<svg width="16" height="16" viewBox="0 0 16 16" fill="none"
  xmlns="http://www.w3.org/2000/svg">
  <path d="M12.8182 5.79546H11.4091C11.3258 5.39015 11.1799 5.03409 10.9716 4.72727C10.767 4.42046 10.517 4.16288 10.2216 3.95455C9.92992 3.74243 9.60606 3.58333 9.25 3.47727C8.89394 3.37121 8.52273 3.31818 8.13636 3.31818C7.43182 3.31818 6.79356 3.49621 6.22159 3.85227C5.65341 4.20833 5.20076 4.73296 4.86364 5.42614C4.5303 6.11932 4.36364 6.9697 4.36364 7.97727C4.36364 8.98485 4.5303 9.83523 4.86364 10.5284C5.20076 11.2216 5.65341 11.7462 6.22159 12.1023C6.79356 12.4583 7.43182 12.6364 8.13636 12.6364C8.52273 12.6364 8.89394 12.5833 9.25 12.4773C9.60606 12.3712 9.92992 12.214 10.2216 12.0057C10.517 11.7936 10.767 11.5341 10.9716 11.2273C11.1799 10.9167 11.3258 10.5606 11.4091 10.1591H12.8182C12.7121 10.7538 12.5189 11.286 12.2386 11.7557C11.9583 12.2254 11.6098 12.625 11.1932 12.9545C10.7765 13.2803 10.3087 13.5284 9.78977 13.6989C9.27462 13.8693 8.72348 13.9545 8.13636 13.9545C7.14394 13.9545 6.26136 13.7121 5.48864 13.2273C4.71591 12.7424 4.10795 12.053 3.66477 11.1591C3.22159 10.2652 3 9.20455 3 7.97727C3 6.75 3.22159 5.6894 3.66477 4.79546C4.10795 3.90152 4.71591 3.21212 5.48864 2.72727C6.26136 2.24243 7.14394 2 8.13636 2C8.72348 2 9.27462 2.08523 9.78977 2.25568C10.3087 2.42614 10.7765 2.67614 11.1932 3.00568C11.6098 3.33144 11.9583 3.72917 12.2386 4.19886C12.5189 4.66477 12.7121 5.19697 12.8182 5.79546Z" fill="currentColor"/>
</svg>