<svg width="16" height="16" viewBox="0 0 16 16" fill="none"
  xmlns="http://www.w3.org/2000/svg">
  <path d="M5.39894 6.6266V9.37339H4.21543C2.87295 9.37339 1.77777 10.4244 1.77777 11.7757C1.77777 13.127 2.87295 14.2222 4.21543 14.2222C5.55791 14.2222 6.64426 13.127 6.64426 11.7757V10.6099H9.35572V11.7757C9.35572 13.127 10.4421 14.2222 11.7846 14.2222C13.1359 14.2222 14.2222 13.127 14.2222 11.7757C14.2222 10.4244 13.1359 9.37339 11.7846 9.37339H10.6099V6.6266H11.7846C13.1359 6.6266 14.2222 5.57558 14.2222 4.22427C14.2222 2.87295 13.1359 1.77777 11.7846 1.77777C10.4421 1.77777 9.35572 2.87295 9.35572 4.22427V5.3901H6.64426V4.22427C6.64426 2.87295 5.55791 1.77777 4.21543 1.77777C2.87295 1.77777 1.77777 2.87295 1.77777 4.22427C1.77777 5.57558 2.87295 6.6266 4.21543 6.6266H5.39894ZM4.22427 5.40777C3.57069 5.40777 3.04076 4.87784 3.04076 4.22427C3.04076 3.57069 3.57069 3.04076 4.21543 3.04076C4.86018 3.04076 5.3901 3.57069 5.3901 4.2331V5.40777H4.22427ZM11.7757 5.40777H10.6099V4.2331C10.6099 3.57069 11.1486 3.04076 11.7846 3.04076C12.4293 3.04076 12.9681 3.57069 12.9681 4.22427C12.9681 4.87784 12.4293 5.40777 11.7757 5.40777ZM6.6531 9.39105V6.61777H9.35572V9.39105H6.6531ZM4.22427 10.5834H5.3901V11.7669C5.3901 12.4205 4.86018 12.9592 4.21543 12.9592C3.57069 12.9592 3.04076 12.4205 3.04076 11.7757C3.04076 11.1221 3.57069 10.5834 4.22427 10.5834ZM11.7757 10.5834C12.4293 10.5834 12.9681 11.1221 12.9681 11.7757C12.9681 12.4205 12.4293 12.9592 11.7846 12.9592C11.1486 12.9592 10.6099 12.4205 10.6099 11.7669V10.5834H11.7757Z" fill="currentColor"/>
</svg>
