<svg width="16" height="16" viewBox="0 0 16 16" fill="none"
  xmlns="http://www.w3.org/2000/svg">
  <path d="M6.33251 13.5H9.66749C10.5236 13.5 10.9702 12.9807 10.9702 12.1309V9.64449H13.0918C13.6055 9.64449 14 9.31402 14 8.81044C14 8.49571 13.8586 8.27539 13.6203 8.03147L8.72953 2.86195C8.52109 2.64163 8.27543 2.5 8 2.5C7.73201 2.5 7.47891 2.64163 7.27047 2.86195L2.37965 8.03147C2.134 8.29113 2 8.49571 2 8.81044C2 9.31402 2.40199 9.64449 2.90819 9.64449H5.03722V12.1309C5.03722 12.9807 5.48387 13.5 6.33251 13.5ZM6.51117 12.3512C6.32506 12.3512 6.19851 12.2175 6.19851 12.0286V8.76323C6.19851 8.61373 6.1464 8.55865 6.00496 8.55865H3.57816C3.54839 8.55865 3.5335 8.54292 3.5335 8.52718C3.5335 8.51144 3.54094 8.49571 3.55583 8.47997L7.933 3.88484C7.95534 3.86123 7.97767 3.85336 8 3.85336C8.02978 3.85336 8.05211 3.86123 8.07444 3.88484L12.4442 8.47997C12.4665 8.49571 12.4739 8.51144 12.4739 8.52718C12.4739 8.54292 12.4591 8.55865 12.4293 8.55865H9.99504C9.86104 8.55865 9.80893 8.61373 9.80893 8.76323V12.0286C9.80893 12.2096 9.67494 12.3512 9.49628 12.3512H6.51117Z" fill="currentColor"/>
</svg>