<svg width="20" height="20" viewBox="0 0 20 20" fill="none"
  xmlns="http://www.w3.org/2000/svg">
  <path d="M9.708 15.312C9.41133 15.312 9.09633 15.3044 8.763 15.289C8.42967 15.2737 8.092 15.249 7.75 15.215C7.40533 15.1784 7.08033 15.1434 6.775 15.11C6.46967 15.0767 6.19667 15.0344 5.956 14.983V13.533C6.262 13.553 6.61967 13.573 7.029 13.593C7.43833 13.613 7.867 13.628 8.315 13.638C8.763 13.648 9.19467 13.653 9.61 13.653C10.0006 13.6573 10.3905 13.6194 10.773 13.54C11.0688 13.4866 11.3425 13.3476 11.56 13.14C11.6579 13.0309 11.7331 12.9033 11.781 12.7647C11.8289 12.6261 11.8486 12.4794 11.839 12.333V11.81C11.8497 11.6426 11.8229 11.4749 11.7604 11.3191C11.698 11.1634 11.6015 11.0236 11.478 10.91C11.1715 10.6822 10.7928 10.5732 10.412 10.603H9.282C8.38439 10.6594 7.4921 10.4289 6.734 9.94503C6.41427 9.66865 6.16609 9.31907 6.01061 8.92609C5.85512 8.5331 5.79693 8.10835 5.841 7.68803V7.12003C5.80145 6.68454 5.8697 6.24602 6.03974 5.84315C6.20978 5.44029 6.47638 5.08548 6.816 4.81003C7.6498 4.28616 8.62725 4.03777 9.61 4.10003C10.0253 4.10003 10.454 4.11736 10.896 4.15203C11.338 4.1867 11.7613 4.22903 12.166 4.27903C12.57 4.32903 12.914 4.3837 13.198 4.44303V5.89303C12.7173 5.86303 12.1683 5.83303 11.551 5.80303C10.9337 5.77303 10.363 5.7587 9.839 5.76003C9.4688 5.75486 9.09937 5.79516 8.739 5.88003C8.45809 5.93819 8.20447 6.08804 8.018 6.30603C7.83711 6.56983 7.75045 6.8869 7.772 7.20603V7.56503C7.7523 7.75149 7.78033 7.9399 7.85344 8.11255C7.92656 8.2852 8.04238 8.43643 8.19 8.55203C8.5534 8.76256 8.97078 8.86134 9.39 8.83603H10.663C11.2676 8.81363 11.8688 8.93675 12.416 9.19503C12.8491 9.40949 13.2063 9.75104 13.44 10.174C13.6684 10.6105 13.7826 11.0976 13.772 11.59V12.29C13.8158 12.9593 13.6311 13.6235 13.248 14.174C12.8803 14.6255 12.3731 14.9421 11.806 15.074C11.1196 15.2419 10.4146 15.3219 9.708 15.312Z" fill="#A7B0B5"/>
  <path d="M8.995 2.24103H10.614L10.814 4.26203H8.795L8.995 2.24103Z" fill="#A7B0B5"/>
  <path d="M8.995 17.333H10.614L10.816 15.186H8.795L8.995 17.333Z" fill="#A7B0B5"/>
</svg>
