<svg width="20" height="20" viewBox="0 0 20 20" fill="none"
  xmlns="http://www.w3.org/2000/svg">
  <g clip-path="url(#clip0_5840_87811)">
    <path d="M12 14.3333C10.3267 14.3333 8.88 13.3867 8.16 12H12V10.6667H7.72C7.68667 10.4467 7.66667 10.2267 7.66667 10C7.66667 9.77333 7.68667 9.55333 7.72 9.33333H12V8H8.16C8.88 6.61333 10.3333 5.66667 12 5.66667C13.0733 5.66667 14.06 6.06 14.82 6.71333L16 5.53333C14.94 4.58 13.5333 4 12 4C9.38667 4 7.17333 5.67333 6.34667 8H4V9.33333H6.04C6.01333 9.55333 6 9.77333 6 10C6 10.2267 6.01333 10.4467 6.04 10.6667H4V12H6.34667C7.17333 14.3267 9.38667 16 12 16C13.54 16 14.94 15.42 16 14.4667L14.8133 13.2867C14.06 13.94 13.08 14.3333 12 14.3333Z" fill="#A7B0B5"/>
  </g>
  <defs>
    <clipPath id="clip0_5840_87811">
      <rect width="20" height="20" fill="white"/>
    </clipPath>
  </defs>
</svg>
