<svg width="20" height="20" viewBox="0 0 20 20" fill="none"
  xmlns="http://www.w3.org/2000/svg">
  <g clip-path="url(#clip0_5840_87819)">
    <path d="M11.3423 16C12.6377 16 13.772 15.2148 14.027 13.9865L12.8525 13.3959C12.6847 14.1275 12.235 14.6577 11.3423 14.6577H8.05362C8.61069 13.9865 9.06037 13.0872 9.06037 11.973C9.06037 11.7381 9.04023 11.5099 9.00667 11.3019H11.3423V9.95952H8.53686C7.9865 8.89908 7.31533 8.34872 7.31533 7.27485C7.31533 5.9795 8.36906 4.92577 9.66442 4.92577C10.6712 4.92577 11.537 5.56338 11.8658 6.45603L13.1075 5.93252C12.5706 4.55663 11.2349 3.58344 9.66442 3.58344C7.62407 3.58344 5.973 5.23451 5.973 7.27485C5.973 8.46953 6.50322 9.22124 6.97304 9.95952H5.973V11.3019H7.63078C7.68447 11.5099 7.71803 11.7314 7.71803 11.973C7.71803 13.7852 5.973 14.6577 5.973 14.6577V16H11.3423Z" fill="#A7B0B5"/>
  </g>
  <defs>
    <clipPath id="clip0_5840_87819">
      <rect width="20" height="20" fill="white"/>
    </clipPath>
  </defs>
</svg>
