<svg width="21" height="15" viewBox="0 0 21 15" fill="none"
  xmlns="http://www.w3.org/2000/svg">
  <g clip-path="url(#clip0_3611_62410)">
    <path d="M13.96 12.672H16.36V11.56H15.24V4.8H16.36V3.696H13.96V12.672ZM20.1981 12.672H17.7981V11.56H18.9181V4.8H17.7981V3.696H20.1981V12.672Z" fill="#EA4821"/>
    <path d="M0.37 9.22C0.37 10.92 1.52 12.09 2.95 12.09C3.87 12.09 4.53 11.65 4.88 11.18V12H6.03V6.49H4.88V7.29C4.54 6.84 3.9 6.4 2.97 6.4C1.52 6.4 0.37 7.52 0.37 9.22ZM4.88 9.24C4.88 10.43 4.07 11.1 3.21 11.1C2.36 11.1 1.54 10.41 1.54 9.22C1.54 8.03 2.36 7.39 3.21 7.39C4.07 7.39 4.88 8.06 4.88 9.24ZM8.66734 7.31V4.6H7.52734V12H8.66734V11.2C9.02734 11.68 9.67734 12.09 10.5873 12.09C12.0373 12.09 13.1773 10.92 13.1773 9.22C13.1773 7.52 12.0473 6.4 10.5873 6.4C9.71734 6.4 9.02734 6.81 8.66734 7.31ZM12.0173 9.22C12.0173 10.41 11.1973 11.1 10.3373 11.1C9.48734 11.1 8.66734 10.43 8.66734 9.24C8.66734 8.06 9.48734 7.39 10.3373 7.39C11.1973 7.39 12.0173 8.03 12.0173 9.22Z" fill="#EA4821"/>
  </g>
  <defs>
    <clipPath id="clip0_3611_62410">
      <rect width="21" height="15" fill="white"/>
    </clipPath>
  </defs>
</svg>
