<svg width="13" height="13" viewBox="0 0 13 13" fill="none"
  xmlns="http://www.w3.org/2000/svg">
  <g clip-path="url(#clip0_3611_62361)">
    <path d="M4.46948 3.115C4.36187 3.11421 4.25891 3.07105 4.18291 2.99486C4.10691 2.91868 4.064 2.81561 4.06348 2.708V1.083C4.06426 0.975567 4.10729 0.872755 4.18326 0.796784C4.25923 0.720814 4.36204 0.677787 4.46948 0.677002C4.57709 0.677525 4.68015 0.720437 4.75634 0.796435C4.83252 0.872433 4.87569 0.975395 4.87648 1.083V2.708C4.87595 2.81578 4.8329 2.919 4.75669 2.99521C4.68047 3.07143 4.57726 3.11448 4.46948 3.115Z" fill="#454450"/>
    <path d="M8.531 3.115C8.42339 3.11421 8.32043 3.07105 8.24443 2.99486C8.16843 2.91868 8.12552 2.81561 8.125 2.708V1.083C8.12579 0.975567 8.16881 0.872755 8.24478 0.796784C8.32075 0.720814 8.42356 0.677787 8.531 0.677002C8.63861 0.677525 8.74168 0.720437 8.81786 0.796435C8.89405 0.872433 8.93721 0.975395 8.938 1.083V2.708C8.93747 2.81578 8.89443 2.919 8.81821 2.99521C8.742 3.07143 8.63878 3.11448 8.531 3.115Z" fill="#454450"/>
    <path d="M6.4997 7.63202C6.56079 7.63873 6.62262 7.63257 6.68119 7.61392C6.73976 7.59528 6.79377 7.56457 6.83974 7.52377C6.88572 7.48298 6.92264 7.43301 6.94812 7.37707C6.9736 7.32114 6.98708 7.26049 6.9877 7.19902C6.98748 7.13764 6.97422 7.07701 6.9488 7.02114C6.92337 6.96528 6.88635 6.91546 6.84021 6.87498C6.79406 6.83451 6.73984 6.80431 6.68113 6.78639C6.62242 6.76846 6.56058 6.76323 6.4997 6.77102C6.43889 6.76338 6.37715 6.76873 6.31857 6.78673C6.25998 6.80472 6.20589 6.83494 6.15985 6.8754C6.11382 6.91586 6.0769 6.96562 6.05153 7.02141C6.02616 7.0772 6.01292 7.13774 6.0127 7.19902C6.01332 7.26039 6.02678 7.32095 6.0522 7.37681C6.07762 7.43267 6.11445 7.48259 6.16031 7.52337C6.20617 7.56415 6.26006 7.59488 6.31851 7.61359C6.37696 7.6323 6.43868 7.63858 6.4997 7.63202Z" fill="#454450"/>
    <path d="M7.11684 8.70101C7.09947 8.84853 7.0251 8.98341 6.90963 9.07683C6.79416 9.17026 6.64673 9.21482 6.49884 9.20101C6.35111 9.21455 6.20394 9.16985 6.08868 9.07646C5.97343 8.98306 5.89921 8.84834 5.88184 8.70101C5.8992 8.5535 5.97357 8.41862 6.08904 8.3252C6.20452 8.23177 6.35194 8.1872 6.49984 8.20101C6.64756 8.18748 6.79474 8.23217 6.90999 8.32557C7.02524 8.41897 7.09947 8.55369 7.11684 8.70101Z" fill="#454450"/>
    <path d="M10.5995 2.438C10.5182 2.37794 10.4219 2.34159 10.3212 2.33297C10.2204 2.32435 10.1193 2.3438 10.029 2.38917C9.93867 2.43454 9.86268 2.50405 9.80946 2.58999C9.75625 2.67592 9.72788 2.77492 9.72752 2.876V2.93C9.73431 3.24013 9.62726 3.54202 9.42661 3.7786C9.22596 4.01518 8.9456 4.17007 8.63852 4.214C8.4685 4.23178 8.29665 4.21366 8.13408 4.16082C7.97151 4.10798 7.82185 4.02159 7.69478 3.90725C7.56771 3.79291 7.46607 3.65316 7.39643 3.49704C7.32679 3.34093 7.29071 3.17194 7.29052 3.001V2.438C7.29025 2.29433 7.23306 2.15662 7.13148 2.05504C7.02989 1.95345 6.89218 1.89626 6.74852 1.896H6.25352C6.10985 1.89626 5.97214 1.95345 5.87056 2.05504C5.76897 2.15662 5.71178 2.29433 5.71152 2.438V3.001C5.71222 3.20403 5.6614 3.40392 5.56381 3.58196C5.46622 3.76 5.32505 3.91037 5.15352 4.019C5.10302 4.05119 5.05058 4.08025 4.99652 4.106C4.94501 4.13416 4.89027 4.15599 4.83352 4.171C4.76526 4.19412 4.69437 4.20857 4.62252 4.214C4.53619 4.22483 4.44884 4.22483 4.36252 4.214C4.29066 4.20857 4.21977 4.19412 4.15152 4.171C4.09575 4.15401 4.04155 4.13227 3.98952 4.106C3.93545 4.08025 3.88301 4.05119 3.83252 4.019C3.65954 3.89499 3.51868 3.73149 3.42162 3.54208C3.32457 3.35267 3.27414 3.14282 3.27452 2.93V2.876C3.27402 2.78211 3.2495 2.68991 3.20329 2.60818C3.15708 2.52645 3.09071 2.45791 3.01051 2.40909C2.93031 2.36027 2.83895 2.33279 2.74513 2.32928C2.65131 2.32576 2.55814 2.34632 2.47452 2.389C2.46952 2.396 2.46352 2.396 2.45852 2.396C2.43732 2.40668 2.41723 2.4194 2.39852 2.434C2.38252 2.454 2.36052 2.465 2.34452 2.481C2.19549 2.59766 2.06118 2.73197 1.94452 2.881C1.88739 2.94465 1.83649 3.01364 1.79252 3.087C1.78589 3.09329 1.78046 3.10075 1.77652 3.109C1.72802 3.18159 1.68458 3.25743 1.64652 3.336C1.63552 3.347 1.63052 3.352 1.63052 3.363C1.59603 3.42714 1.56693 3.49404 1.54352 3.563C1.53058 3.58731 1.51987 3.61275 1.51152 3.639C1.48125 3.71871 1.45587 3.8002 1.43552 3.883C1.41349 3.96105 1.39711 4.04059 1.38652 4.121C1.37552 4.181 1.37052 4.24 1.36452 4.305C1.35852 4.37 1.35352 4.458 1.35352 4.534V9.279C1.35352 9.97864 1.63145 10.6496 2.12617 11.1443C2.62089 11.6391 3.29187 11.917 3.99152 11.917H9.00752C9.70716 11.917 10.3781 11.6391 10.8729 11.1443C11.3676 10.6496 11.6455 9.97864 11.6455 9.279V4.534C11.6457 4.12744 11.5512 3.72641 11.3697 3.36264C11.1882 2.99886 10.9245 2.6823 10.5995 2.438ZM6.49952 9.886C5.65952 9.886 5.14552 9.469 5.14552 8.797C5.14474 8.61731 5.19268 8.44078 5.28425 8.28618C5.37581 8.13157 5.50758 8.00468 5.66552 7.919C5.54043 7.83653 5.43819 7.72382 5.36826 7.59132C5.29834 7.45881 5.263 7.3108 5.26552 7.161C5.26833 7.0072 5.30353 6.85573 5.36885 6.71646C5.43416 6.5772 5.5281 6.45327 5.64455 6.35277C5.761 6.25227 5.89733 6.17746 6.04465 6.13321C6.19197 6.08897 6.34696 6.07629 6.49952 6.096C6.65144 6.077 6.80565 6.09025 6.95211 6.13489C7.09856 6.17952 7.23395 6.25454 7.34945 6.35503C7.46496 6.45553 7.55797 6.57925 7.62242 6.71813C7.68688 6.857 7.72132 7.00791 7.72352 7.161C7.72716 7.31099 7.69231 7.45942 7.62229 7.59212C7.55226 7.72482 7.4494 7.83736 7.32352 7.919C7.48353 8.00283 7.61752 8.1289 7.71095 8.2835C7.80439 8.43811 7.85369 8.61535 7.85352 8.796C7.85352 9.468 7.33352 9.886 6.49952 9.886Z" fill="#454450"/>
  </g>
  <defs>
    <clipPath id="clip0_3611_62361">
      <rect width="13" height="13" fill="white"/>
    </clipPath>
  </defs>
</svg>
