<svg width="13" height="13" viewBox="0 0 13 13" fill="none"
  xmlns="http://www.w3.org/2000/svg">
  <g clip-path="url(#clip0_3611_62400)">
    <path d="M1.81769 7.71099C1.81769 8.39299 1.66569 9.44199 1.66569 10.187C1.65176 10.3684 1.67721 10.5507 1.74032 10.7213C1.80342 10.892 1.90268 11.047 2.03128 11.1757C2.15989 11.3044 2.3148 11.4037 2.48541 11.467C2.65601 11.5302 2.83827 11.5558 3.01969 11.542H3.61969V10.654H3.22569C2.84869 10.654 2.66069 10.493 2.66069 10.107C2.66069 9.48799 2.80469 8.44699 2.80469 7.67599C2.82905 7.39882 2.7457 7.12292 2.57195 6.90559C2.39821 6.68827 2.14742 6.54623 1.87169 6.50899V6.49099C2.14686 6.45375 2.39718 6.31214 2.57085 6.09548C2.74452 5.87881 2.82824 5.60367 2.80469 5.32699C2.80469 4.55599 2.66069 3.51499 2.66069 2.89599C2.66069 2.50999 2.84869 2.34899 3.22569 2.34899H3.62069V1.46099H3.02069C2.83919 1.44704 2.65682 1.47252 2.48609 1.53568C2.31537 1.59884 2.16033 1.69819 2.03161 1.82691C1.90289 1.95562 1.80354 2.11067 1.74038 2.28139C1.67722 2.45212 1.65174 2.63449 1.66569 2.81599C1.66569 3.56099 1.81769 4.60999 1.81769 5.29199C1.81769 5.75799 1.50369 6.05399 0.929688 6.11699V6.88799C1.50369 6.94899 1.81769 7.24499 1.81769 7.71099Z" fill="#C418FF"/>
    <path d="M3.7211 11.6421H3.0211C2.82652 11.6557 2.63127 11.6274 2.44855 11.5591C2.26584 11.4908 2.09991 11.3841 1.96198 11.2462C1.82405 11.1082 1.71733 10.9423 1.64903 10.7596C1.58074 10.5769 1.55246 10.3816 1.5661 10.1871C1.5661 9.80205 1.6061 9.33705 1.6451 8.88705C1.6841 8.43705 1.7181 8.03905 1.7181 7.71005C1.7181 7.18205 1.2841 7.02405 0.918102 6.98405L0.829102 6.97405V6.02705L0.918102 6.01705C1.2821 5.97705 1.7181 5.81705 1.7181 5.29105C1.7181 4.96205 1.6821 4.55005 1.6451 4.11405C1.6081 3.67805 1.5661 3.20005 1.5661 2.81405C1.55246 2.61947 1.58074 2.42422 1.64903 2.2415C1.71733 2.05879 1.82405 1.89286 1.96198 1.75493C2.09991 1.617 2.26584 1.51028 2.44855 1.44198C2.63127 1.37369 2.82652 1.34541 3.0211 1.35905H3.7211V2.44705H3.2261C2.8911 2.44705 2.7611 2.57205 2.7611 2.89405C2.7611 3.18205 2.7931 3.56605 2.8271 3.97305C2.8651 4.43605 2.9051 4.91405 2.9051 5.32505C2.92699 5.57132 2.86962 5.81815 2.74136 6.02952C2.6131 6.24089 2.42065 6.40575 2.1921 6.50005C2.4214 6.5937 2.6147 6.75828 2.74372 6.96971C2.87274 7.18114 2.93069 7.42831 2.9091 7.67505C2.9091 8.08605 2.8691 8.56505 2.8311 9.02705C2.7971 9.43305 2.7651 9.81705 2.7651 10.1061C2.7651 10.4281 2.8951 10.5531 3.2301 10.5531H3.7251L3.7211 11.6421ZM1.0301 6.79805C1.26789 6.80456 1.49374 6.90362 1.65959 7.07414C1.82544 7.24466 1.91819 7.47318 1.9181 7.71105C1.9181 8.04905 1.8821 8.46505 1.8441 8.90505C1.8061 9.34505 1.7661 9.81105 1.7661 10.1871C1.75236 10.3553 1.77536 10.5244 1.8335 10.6829C1.89165 10.8413 1.98355 10.9852 2.10284 11.1046C2.22212 11.224 2.36595 11.316 2.52433 11.3743C2.68272 11.4325 2.85188 11.4557 3.0201 11.4421H3.5201V10.7541H3.2261C3.13724 10.7676 3.04647 10.7603 2.96089 10.7328C2.87531 10.7054 2.79725 10.6585 2.73283 10.5958C2.66841 10.5331 2.61938 10.4564 2.58959 10.3716C2.55979 10.2868 2.55004 10.1962 2.5611 10.1071C2.5611 9.80705 2.5931 9.42305 2.6271 9.00705C2.6651 8.54805 2.7041 8.07405 2.7041 7.67105C2.72768 7.41786 2.65202 7.1654 2.49308 6.96691C2.33414 6.76841 2.10433 6.63939 1.8521 6.60705L1.7721 6.59105V6.41005L1.8521 6.39405C2.10508 6.36195 2.33561 6.2326 2.49484 6.03342C2.65407 5.83424 2.72949 5.58089 2.7051 5.32705C2.7051 4.92705 2.6661 4.45005 2.6281 3.99105C2.5941 3.58005 2.5621 3.19105 2.5621 2.89105C2.55104 2.80186 2.56079 2.71131 2.59059 2.62652C2.62038 2.54172 2.66941 2.46498 2.73383 2.40231C2.79825 2.33963 2.87631 2.29273 2.96189 2.26527C3.04747 2.23781 3.13824 2.23055 3.2271 2.24405H3.5221V1.55605H3.0221C2.8538 1.54229 2.68453 1.56531 2.52602 1.62351C2.36751 1.68171 2.22356 1.77371 2.10416 1.89311C1.98476 2.01251 1.89276 2.15646 1.83456 2.31497C1.77636 2.47348 1.75334 2.64275 1.7671 2.81105C1.7671 3.18705 1.8071 3.64805 1.8451 4.09305C1.8831 4.53805 1.9191 4.94905 1.9191 5.28705C1.91919 5.52492 1.82644 5.75344 1.66059 5.92396C1.49474 6.09448 1.26889 6.19354 1.0311 6.20005L1.0301 6.79805Z" fill="#C418FF"/>
    <path d="M11.1839 7.71099C11.1839 8.39299 11.3359 9.44199 11.3359 10.187C11.3498 10.3684 11.3243 10.5507 11.2612 10.7213C11.1981 10.892 11.0989 11.047 10.9703 11.1757C10.8417 11.3044 10.6867 11.4037 10.5161 11.467C10.3455 11.5302 10.1633 11.5558 9.98186 11.542H9.38186V10.654H9.77686C10.1539 10.654 10.3419 10.493 10.3419 10.107C10.3419 9.48799 10.1979 8.44699 10.1979 7.67599C10.1738 7.39898 10.2572 7.12333 10.431 6.90623C10.6047 6.68912 10.8553 6.54723 11.1309 6.50999V6.49199C10.8553 6.45498 10.6046 6.31333 10.4307 6.09642C10.2568 5.87951 10.1731 5.60398 10.1969 5.32699C10.1969 4.55599 10.3409 3.51499 10.3409 2.89599C10.3409 2.50999 10.1529 2.34899 9.77586 2.34899H9.38086V1.46099H9.98086C10.1624 1.44704 10.3447 1.47252 10.5155 1.53568C10.6862 1.59884 10.8412 1.69819 10.9699 1.82691C11.0987 1.95562 11.198 2.11067 11.2612 2.28139C11.3243 2.45212 11.3498 2.63449 11.3359 2.81599C11.3359 3.56099 11.1839 4.60999 11.1839 5.29199C11.1839 5.75799 11.4979 6.05399 12.0719 6.11699V6.88799C11.4979 6.94899 11.1839 7.24499 11.1839 7.71099Z" fill="#C418FF"/>
    <path d="M9.98225 11.642H9.28225V10.554H9.77725C10.1122 10.554 10.2423 10.429 10.2423 10.107C10.2423 9.819 10.2103 9.435 10.1763 9.028C10.1383 8.565 10.0983 8.087 10.0983 7.676C10.0767 7.42926 10.1346 7.18209 10.2636 6.97066C10.3926 6.75923 10.586 6.59465 10.8153 6.501C10.5859 6.40757 10.3925 6.24322 10.2634 6.03198C10.1342 5.82074 10.076 5.5737 10.0973 5.327C10.0973 4.916 10.1372 4.437 10.1752 3.975C10.2092 3.569 10.2412 3.185 10.2412 2.896C10.2412 2.574 10.1113 2.449 9.77625 2.449H9.28125V1.361H9.98125C10.1758 1.34736 10.3711 1.37564 10.5538 1.44394C10.7365 1.51223 10.9024 1.61895 11.0404 1.75688C11.1783 1.89481 11.285 2.06074 11.3533 2.24346C11.4216 2.42617 11.4499 2.62142 11.4363 2.816C11.4363 3.201 11.3963 3.666 11.3573 4.116C11.3183 4.566 11.2842 4.964 11.2842 5.293C11.2842 5.821 11.7183 5.979 12.0842 6.019L12.1732 6.029V6.98L12.0842 6.99C11.7202 7.03 11.2842 7.19 11.2842 7.716C11.2842 8.045 11.3203 8.457 11.3573 8.893C11.3943 9.329 11.4363 9.807 11.4363 10.193C11.449 10.387 11.4201 10.5815 11.3514 10.7634C11.2828 10.9453 11.176 11.1104 11.0383 11.2477C10.9006 11.3849 10.7351 11.4911 10.5529 11.5591C10.3708 11.6271 10.1762 11.6554 9.98225 11.642ZM9.48225 11.442H9.98225C10.1505 11.4558 10.3198 11.4327 10.4783 11.3745C10.6368 11.3163 10.7808 11.2244 10.9002 11.1049C11.0196 10.9855 11.1116 10.8416 11.1698 10.6831C11.228 10.5246 11.251 10.3553 11.2372 10.187C11.2372 9.811 11.1972 9.35 11.1592 8.905C11.1212 8.46 11.0853 8.049 11.0853 7.711C11.0852 7.47313 11.1779 7.24462 11.3438 7.0741C11.5096 6.90358 11.7355 6.80452 11.9732 6.798V6.198C11.7355 6.19149 11.5096 6.09243 11.3438 5.92191C11.1779 5.75139 11.0852 5.52288 11.0853 5.285C11.0853 4.947 11.1212 4.531 11.1592 4.091C11.1972 3.651 11.2372 3.185 11.2372 2.809C11.251 2.64071 11.228 2.47143 11.1698 2.31292C11.1116 2.15441 11.0196 2.01046 10.9002 1.89106C10.7808 1.77166 10.6368 1.67967 10.4783 1.62146C10.3198 1.56326 10.1505 1.54024 9.98225 1.554H9.48225V2.242H9.77725C9.86611 2.2285 9.95688 2.23577 10.0425 2.26322C10.128 2.29068 10.2061 2.33758 10.2705 2.40026C10.3349 2.46293 10.384 2.53968 10.4138 2.62447C10.4436 2.70927 10.4533 2.79981 10.4422 2.889C10.4422 3.189 10.4102 3.573 10.3762 3.989C10.3382 4.448 10.2993 4.922 10.2993 5.325C10.2746 5.579 10.3499 5.83261 10.5091 6.03201C10.6684 6.23141 10.8991 6.3609 11.1522 6.393L11.2323 6.409V6.59L11.1522 6.606C10.8991 6.63811 10.6684 6.7676 10.5091 6.967C10.3499 7.1664 10.2746 7.42001 10.2993 7.674C10.2993 8.074 10.3382 8.551 10.3762 9.01C10.4102 9.421 10.4422 9.81 10.4422 10.11C10.4533 10.1992 10.4436 10.2897 10.4138 10.3745C10.384 10.4593 10.3349 10.5361 10.2705 10.5988C10.2061 10.6614 10.128 10.7083 10.0425 10.7358C9.95688 10.7632 9.86611 10.7705 9.77725 10.757H9.48125L9.48225 11.442Z" fill="#C418FF"/>
    <path d="M7.51787 4.18304C7.51959 4.06945 7.49869 3.95666 7.45638 3.85123C7.41408 3.74581 7.35121 3.64986 7.27144 3.56897C7.19168 3.48809 7.09661 3.4239 6.99178 3.38013C6.88696 3.33636 6.77447 3.31389 6.66087 3.31404C6.54629 3.31256 6.43258 3.33402 6.32643 3.37716C6.22027 3.4203 6.12382 3.48423 6.04275 3.56521C5.96168 3.64619 5.89763 3.74256 5.85438 3.84867C5.81112 3.95477 5.78952 4.06846 5.79087 4.18304C5.78953 4.29753 5.81109 4.41113 5.85428 4.51717C5.89748 4.62321 5.96144 4.71954 6.0424 4.8005C6.12337 4.88146 6.2197 4.94542 6.32574 4.98862C6.43177 5.03182 6.54538 5.05338 6.65987 5.05204C6.77355 5.05231 6.88615 5.02995 6.99109 4.98624C7.09603 4.94253 7.19122 4.87835 7.27109 4.79745C7.35096 4.71656 7.41392 4.62056 7.45629 4.51507C7.49866 4.40958 7.51959 4.29671 7.51787 4.18304ZM5.33887 9.68304H6.22287L7.66287 6.39704H6.18387L5.33887 9.68304Z" fill="#C418FF"/>
    <path d="M6.65996 3.21599C6.7868 3.21544 6.91248 3.24022 7.02963 3.28887C7.14677 3.33753 7.25302 3.40907 7.34215 3.49932C7.43129 3.58957 7.5015 3.69671 7.54869 3.81445C7.59588 3.93219 7.61909 4.05817 7.61696 4.185C7.61909 4.31182 7.59588 4.4378 7.54869 4.55554C7.5015 4.67328 7.43129 4.78042 7.34215 4.87067C7.25302 4.96092 7.14677 5.03246 7.02963 5.08112C6.91248 5.12977 6.7868 5.15455 6.65996 5.154C6.53217 5.15534 6.4054 5.13112 6.28709 5.08278C6.16879 5.03443 6.06135 4.96292 5.97107 4.87246C5.8808 4.782 5.80951 4.67441 5.76141 4.55601C5.71331 4.43761 5.68935 4.31078 5.69096 4.18299C5.68989 4.05554 5.71424 3.92915 5.76258 3.81121C5.81092 3.69328 5.88229 3.58616 5.97251 3.49613C6.06273 3.40609 6.17 3.33495 6.28803 3.28685C6.40607 3.23875 6.53251 3.21466 6.65996 3.21599ZM6.65996 4.95399C6.76072 4.95442 6.86055 4.93467 6.95356 4.89591C7.04657 4.85715 7.13087 4.80016 7.20152 4.72831C7.27216 4.65646 7.3277 4.57119 7.36487 4.47754C7.40205 4.38388 7.4201 4.28373 7.41796 4.18299C7.41983 4.08251 7.40161 3.98266 7.36437 3.8893C7.32714 3.79595 7.27165 3.71097 7.20114 3.63934C7.13063 3.56772 7.04653 3.51089 6.95377 3.47219C6.86102 3.4335 6.76147 3.41371 6.66096 3.41399C6.55959 3.41279 6.45901 3.43185 6.36511 3.47006C6.27121 3.50826 6.18589 3.56485 6.11416 3.63648C6.04243 3.70812 5.98574 3.79337 5.94741 3.88721C5.90908 3.98106 5.88989 4.08163 5.89096 4.18299C5.88962 4.28445 5.90858 4.38514 5.94673 4.47916C5.98488 4.57317 6.04144 4.65861 6.11309 4.73045C6.18474 4.80228 6.27003 4.85907 6.36395 4.89746C6.45786 4.93585 6.55851 4.95507 6.65996 4.95399ZM6.10696 6.299H7.81296L6.28496 9.78299H5.20996L6.10696 6.299ZM7.50696 6.49899H6.26196L5.46796 9.58299H6.15496L7.50696 6.49899Z" fill="#C418FF"/>
  </g>
  <defs>
    <clipPath id="clip0_3611_62400">
      <rect width="13" height="13" fill="white"/>
    </clipPath>
  </defs>
</svg>
