<svg width="16" height="16" viewBox="0 0 16 16" fill="none"
  xmlns="http://www.w3.org/2000/svg">
  <path d="M12.2177 2.18036H3.77937C2.89589 2.18036 2.17969 2.89656 2.17969 3.78004V12.2184C2.17969 13.1018 2.89589 13.818 3.77937 13.818H12.2177C13.1012 13.818 13.8174 13.1018 13.8174 12.2184V3.78004C13.8174 2.89656 13.1012 2.18036 12.2177 2.18036Z" fill="white"/>
  <path d="M12.2182 2.58029H3.77984C3.11723 2.58029 2.58008 3.11744 2.58008 3.78005V12.2184C2.58008 12.881 3.11723 13.4181 3.77984 13.4181H12.2182C12.8808 13.4181 13.4179 12.881 13.4179 12.2184V3.78005C13.4179 3.11744 12.8808 2.58029 12.2182 2.58029Z" stroke="#9E1C53"/>
  <path d="M3.77937 2.18036H12.2177C12.6419 2.18036 13.0488 2.3489 13.3488 2.64889C13.6488 2.94889 13.8174 3.35578 13.8174 3.78004V5.08938H2.17969V3.78004C2.17969 3.35578 2.34822 2.94889 2.64822 2.64889C2.94822 2.3489 3.35511 2.18036 3.77937 2.18036V2.18036Z" fill="#9E1C53"/>
  <path d="M8.39945 2.39871H7.59961V13.6005H8.39945V2.39871Z" fill="#9E1C53"/>
  <path d="M2.39844 8.40072V9.20056H13.6002V8.40072H2.39844Z" fill="#9E1C53"/>
</svg>
