<svg width="16" height="15" viewBox="0 0 16 15" fill="none"
  xmlns="http://www.w3.org/2000/svg">
  <g clip-path="url(#clip0_3611_62357)">
    <path d="M0.6 8.26C0.6 10.38 1.16 11.98 3.2 11.98C5.24 11.98 5.8 10.38 5.8 8.26C5.8 6.18 5.24 4.58 3.2 4.58C1.16 4.58 0.6 6.18 0.6 8.26ZM4.68 8.26C4.68 9.69 4.53 10.94 3.2 10.94C1.87 10.94 1.72 9.69 1.72 8.26C1.72 6.9 1.87 5.62 3.2 5.62C4.53 5.62 4.68 6.9 4.68 8.26ZM7.78625 12H8.93625V4.71H6.85625V5.75H7.78625V12ZM10.5023 8.26C10.5023 10.38 11.0623 11.98 13.1023 11.98C15.1423 11.98 15.7023 10.38 15.7023 8.26C15.7023 6.18 15.1423 4.58 13.1023 4.58C11.0623 4.58 10.5023 6.18 10.5023 8.26ZM14.5823 8.26C14.5823 9.69 14.4323 10.94 13.1023 10.94C11.7723 10.94 11.6223 9.69 11.6223 8.26C11.6223 6.9 11.7723 5.62 13.1023 5.62C14.4323 5.62 14.5823 6.9 14.5823 8.26Z" fill="#5F89FF"/>
  </g>
  <defs>
    <clipPath id="clip0_3611_62357">
      <rect width="16" height="15" fill="white"/>
    </clipPath>
  </defs>
</svg>
