<svg width="21" height="13" viewBox="0 0 21 13" fill="none"
  xmlns="http://www.w3.org/2000/svg">
  <g clip-path="url(#clip0_3611_62370)">
    <path d="M13.96 12.672H16.36V11.56H15.24V4.8H16.36V3.696H13.96V12.672ZM20.1981 12.672H17.7981V11.56H18.9181V4.8H17.7981V3.696H20.1981V12.672Z" fill="#A7B0B5"/>
    <path d="M8.74862 1.90091V1.05591C8.74862 0.948104 8.70579 0.844709 8.62956 0.768475C8.55333 0.692242 8.44993 0.649414 8.34212 0.649414C8.23431 0.649414 8.13092 0.692242 8.05468 0.768475C7.97845 0.844709 7.93562 0.948104 7.93562 1.05591V1.86891H4.41462V1.05591C4.41462 0.948104 4.37179 0.844709 4.29556 0.768475C4.21933 0.692242 4.11593 0.649414 4.00812 0.649414C3.90031 0.649414 3.79692 0.692242 3.72068 0.768475C3.64445 0.844709 3.60162 0.948104 3.60162 1.05591V1.90091C2.99492 1.90593 2.41478 2.15046 1.98754 2.58125C1.56031 3.01204 1.3206 3.59419 1.32062 4.20091C1.31886 4.23797 1.32465 4.27501 1.33763 4.30977C1.3506 4.34452 1.37051 4.37628 1.39613 4.40312C1.42175 4.42996 1.45255 4.45131 1.48667 4.46589C1.52079 4.48046 1.55752 4.48796 1.59462 4.48791H10.7616C10.7989 4.48869 10.836 4.4817 10.8705 4.46738C10.9049 4.45305 10.936 4.43172 10.9618 4.40473C10.9876 4.37773 11.0074 4.34567 11.0201 4.31059C11.0329 4.2755 11.0381 4.23815 11.0356 4.20091C11.0356 3.59316 10.7951 3.01011 10.3666 2.57915C9.93804 2.14819 9.35636 1.90435 8.74862 1.90091Z" fill="#A7B0B5"/>
    <path d="M10.5085 5.30292H1.84148C1.69782 5.30318 1.56011 5.36037 1.45852 5.46196C1.35694 5.56355 1.29975 5.70125 1.29948 5.84492V9.18092C1.25434 9.54739 1.2933 9.91933 1.41341 10.2685C1.53352 10.6177 1.73162 10.9349 1.99266 11.196C2.25371 11.4571 2.57083 11.6554 2.91995 11.7756C3.26907 11.8958 3.641 11.9349 4.00748 11.8899H6.67648C6.76269 11.8904 6.84777 11.8703 6.92459 11.8312C7.00142 11.7921 7.06777 11.7351 7.11809 11.6651C7.16841 11.5951 7.20124 11.5141 7.21384 11.4288C7.22643 11.3435 7.21842 11.2565 7.19048 11.1749C7.07913 10.8832 7.01173 10.5765 6.99048 10.2649C6.99234 9.47498 7.30723 8.71798 7.86618 8.15979C8.42513 7.60159 9.18254 7.28771 9.97248 7.28692C10.1286 7.2859 10.2846 7.29862 10.4385 7.32492C10.5148 7.33593 10.5925 7.33045 10.6665 7.30885C10.7405 7.28725 10.809 7.25003 10.8674 7.1997C10.9258 7.14937 10.9727 7.08711 11.005 7.01711C11.0372 6.94711 11.0541 6.871 11.0545 6.79392V5.85092C11.0529 5.70667 10.9951 5.56874 10.8933 5.46655C10.7914 5.36436 10.6537 5.306 10.5095 5.30392L10.5085 5.30292ZM4.66348 9.83692C4.56052 9.934 4.42379 9.98713 4.28229 9.98506C4.1408 9.98298 4.00568 9.92584 3.90562 9.82578C3.80556 9.72572 3.74842 9.5906 3.74635 9.44911C3.74427 9.30761 3.7974 9.17088 3.89448 9.06792C3.94635 9.01888 4.00711 8.98018 4.07348 8.95392C4.17208 8.91247 4.28075 8.90118 4.38577 8.92147C4.49078 8.94176 4.58742 8.99272 4.66348 9.06792C4.76467 9.17031 4.82142 9.30846 4.82142 9.45242C4.82142 9.59637 4.76467 9.73453 4.66348 9.83692ZM4.66348 7.93692L4.58248 8.00492C4.55153 8.02571 4.51789 8.0422 4.48248 8.05392C4.45105 8.07001 4.41732 8.08115 4.38248 8.08692C4.3482 8.09449 4.31346 8.09983 4.27848 8.10292C4.20708 8.10372 4.13624 8.09025 4.07012 8.0633C4.004 8.03634 3.94393 7.99645 3.89344 7.94596C3.84295 7.89547 3.80306 7.8354 3.7761 7.76928C3.74915 7.70316 3.73568 7.63232 3.73648 7.56092C3.73873 7.41774 3.79477 7.28065 3.89348 7.17692C3.9574 7.11404 4.03579 7.06784 4.12176 7.04238C4.20773 7.01692 4.29864 7.01299 4.38648 7.03092C4.42133 7.03666 4.45507 7.04779 4.48648 7.06392C4.52189 7.07564 4.55553 7.09212 4.58648 7.11292L4.66748 7.18092C4.76867 7.28331 4.82542 7.42146 4.82542 7.56542C4.82542 7.70937 4.76867 7.84753 4.66748 7.94992L4.66348 7.93692ZM6.56348 7.93692C6.48768 8.01302 6.39097 8.06488 6.28563 8.08592C6.1803 8.10696 6.07109 8.09622 5.97187 8.05508C5.87264 8.01393 5.78788 7.94423 5.72835 7.85482C5.66881 7.76541 5.63719 7.66033 5.63748 7.55292C5.64036 7.44695 5.67385 7.34408 5.73392 7.25673C5.79399 7.16939 5.87806 7.1013 5.97598 7.06069C6.07391 7.02008 6.18149 7.0087 6.28574 7.0279C6.39 7.04711 6.48646 7.09608 6.56348 7.16892C6.66467 7.27131 6.72142 7.40946 6.72142 7.55342C6.72142 7.69737 6.66467 7.83553 6.56348 7.93792V7.93692Z" fill="#A7B0B5"/>
    <path d="M9.97012 8.00989C9.44786 8.01075 8.94204 8.19262 8.53881 8.52453C8.13558 8.85644 7.85988 9.31786 7.75865 9.83022C7.65742 10.3426 7.73692 10.8742 7.98363 11.3345C8.23033 11.7948 8.62897 12.1554 9.11166 12.3548C9.59436 12.5542 10.1313 12.5801 10.6309 12.4282C11.1306 12.2762 11.5621 11.9557 11.852 11.5213C12.1419 11.0869 12.2723 10.5654 12.2209 10.0457C12.1695 9.52595 11.9395 9.04011 11.5701 8.67089C11.3601 8.46084 11.1106 8.29432 10.836 8.18089C10.5615 8.06746 10.2672 8.00935 9.97012 8.00989ZM10.9501 11.0709C10.9352 11.0963 10.9139 11.1174 10.8882 11.1319C10.8626 11.1465 10.8336 11.1541 10.8041 11.1539C10.7739 11.1542 10.7443 11.1455 10.7191 11.1289L10.0191 10.7119C9.93025 10.6536 9.85663 10.5749 9.80443 10.4824C9.75224 10.3898 9.72298 10.2861 9.71912 10.1799V9.25489C9.71912 9.20994 9.73698 9.16682 9.76877 9.13504C9.80055 9.10325 9.84367 9.08539 9.88862 9.08539C9.93358 9.08539 9.97669 9.10325 10.0085 9.13504C10.0403 9.16682 10.0581 9.20994 10.0581 9.25489V10.1809C10.0623 10.2285 10.0767 10.2747 10.1004 10.3163C10.124 10.3579 10.1563 10.3939 10.1951 10.4219L10.8951 10.8389C10.9145 10.85 10.9314 10.8649 10.9448 10.8827C10.9583 10.9005 10.9681 10.9208 10.9736 10.9424C10.9791 10.9641 10.9802 10.9866 10.9769 11.0086C10.9735 11.0307 10.9658 11.0519 10.9541 11.0709H10.9501Z" fill="#A7B0B5"/>
  </g>
  <defs>
    <clipPath id="clip0_3611_62370">
      <rect width="21" height="13" fill="white"/>
    </clipPath>
  </defs>
</svg>
