<svg width="17" height="15" viewBox="0 0 17 15" fill="none"
  xmlns="http://www.w3.org/2000/svg">
  <g clip-path="url(#clip0_3611_62394)">
    <path d="M1.38 12H2.53V4.71H0.45V5.75H1.38V12ZM4.00609 11.9H8.86609V10.95H5.69609C6.86609 9.88 8.66609 8.53 8.66609 6.76C8.66609 5.45 7.82609 4.56 6.34609 4.56C5.05609 4.56 4.03609 5.33 3.99609 6.91H5.09609C5.12609 6.09 5.55609 5.53 6.35609 5.53C7.20609 5.53 7.53609 6.05 7.53609 6.81C7.53609 8.24 5.72609 9.56 4.00609 11.07V11.9Z" fill="#79BC81"/>
    <path d="M9.96 12.672H12.36V11.56H11.24V4.8H12.36V3.696H9.96V12.672ZM16.1981 12.672H13.7981V11.56H14.9181V4.8H13.7981V3.696H16.1981V12.672Z" fill="#79BC81"/>
  </g>
  <defs>
    <clipPath id="clip0_3611_62394">
      <rect width="17" height="15" fill="white"/>
    </clipPath>
  </defs>
</svg>
