<svg width="20" height="20" viewBox="0 0 20 20" fill="none" xmlns="http://www.w3.org/2000/svg">
<path fill-rule="evenodd" clip-rule="evenodd" d="M14.7219 8.66292C13.4256 9.33843 11.8515 9.67618 9.99967 9.67618C8.14782 9.67618 6.57375 9.33843 5.27745 8.66292C3.98116 7.9874 3.33301 7.17535 3.33301 6.22676C3.33301 5.27817 3.98116 4.46612 5.27745 3.79061C6.57375 3.1151 8.14782 2.77734 9.99967 2.77734C11.8515 2.77734 13.4256 3.1151 14.7219 3.79061C16.0182 4.46612 16.6663 5.27817 16.6663 6.22676C16.6663 7.17535 16.0182 7.9874 14.7219 8.66292ZM11.8978 11.1853C11.1386 11.3075 10.5058 11.3686 9.99967 11.3686C9.4935 11.3686 8.86079 11.3075 8.10153 11.1853C7.34227 11.0631 6.61079 10.8655 5.90708 10.5924C5.20338 10.3194 4.59844 9.96363 4.09227 9.52527C3.58609 9.08691 3.33301 8.55153 3.33301 7.91913V10.075C3.33301 10.7074 3.58609 11.2428 4.09227 11.6812C4.59844 12.1195 5.20338 12.4752 5.90708 12.7483C6.61079 13.0214 7.34227 13.219 8.10153 13.3412C8.86079 13.4634 9.4935 13.5244 9.99967 13.5244C10.4029 13.5244 10.8864 13.4857 11.4503 13.4082C12.0584 12.0539 13.4189 11.1107 14.9997 11.1107C15.438 11.1107 15.8595 11.1832 16.2526 11.3169C16.5284 10.9558 16.6663 10.5419 16.6663 10.075V7.91913C16.6663 8.55153 16.4133 9.08691 15.9071 9.52527C15.4009 9.96363 14.796 10.3194 14.0923 10.5924C13.3886 10.8655 12.6571 11.0631 11.8978 11.1853ZM11.1108 14.9927C11.1108 14.995 11.1108 14.9973 11.1108 14.9996C11.1108 15.7599 11.329 16.4693 11.7062 17.0685C11.0315 17.1707 10.4626 17.2218 9.99967 17.2218C9.4935 17.2218 8.86079 17.1607 8.10153 17.0385C7.34227 16.9164 6.61079 16.7187 5.90708 16.4457C5.20338 16.1726 4.59844 15.8169 4.09227 15.3785C3.58609 14.9401 3.33301 14.4048 3.33301 13.7724V11.6165C3.33301 12.2489 3.58609 12.7843 4.09227 13.2226C4.59844 13.661 5.20338 14.0167 5.90708 14.2898C6.61079 14.5629 7.34227 14.7605 8.10153 14.8827C8.86079 15.0048 9.4935 15.0659 9.99967 15.0659C10.3195 15.0659 10.6899 15.0415 11.1108 14.9927Z" fill="#5F89FF"/>
<circle cx="15.0004" cy="15.0004" r="2.77778" fill="#58D266"/>
</svg>
