<svg width="16" height="16" viewBox="0 0 16 16" fill="none"
  xmlns="http://www.w3.org/2000/svg">
  <path d="M4.66735 5.33388H2.66765C2.31426 5.33283 1.97565 5.19198 1.72577 4.94209C1.47589 4.69221 1.33504 4.3536 1.33398 4.00021L1.33398 2.66735C1.33504 2.31396 1.47589 1.97535 1.72577 1.72546C1.97565 1.47558 2.31426 1.33473 2.66765 1.33368L4.66416 1.33368C5.01754 1.33473 5.35615 1.47558 5.60604 1.72546C5.85592 1.97535 5.99677 2.31396 5.99782 2.66735V4.00101C5.99656 4.35371 5.85606 4.69164 5.60689 4.94126C5.35772 5.19088 5.02004 5.33199 4.66735 5.33388Z" fill="#3BC7FF"/>
  <path d="M13.867 4.66623H11.4656C11.2538 4.66623 11.0507 4.58209 10.9009 4.43232C10.7511 4.28256 10.667 4.07943 10.667 3.86763V2.7983C10.667 2.58649 10.7511 2.38337 10.9009 2.2336C11.0507 2.08383 11.2538 1.99969 11.4656 1.99969H13.867C14.0788 1.99969 14.2819 2.08383 14.4317 2.2336C14.5815 2.38337 14.6656 2.58649 14.6656 2.7983V3.86603C14.6658 3.97104 14.6453 4.07506 14.6053 4.17213C14.5652 4.26921 14.5064 4.35743 14.4323 4.43176C14.3581 4.50609 14.27 4.56505 14.173 4.60529C14.076 4.64552 13.972 4.66623 13.867 4.66623Z" fill="#3BC7FF"/>
  <path d="M13.867 9.66629H11.4656C11.2538 9.66629 11.0507 9.58215 10.9009 9.43238C10.7511 9.28262 10.667 9.07949 10.667 8.86769V7.79836C10.667 7.58656 10.7511 7.38343 10.9009 7.23366C11.0507 7.08389 11.2538 6.99976 11.4656 6.99976H13.867C14.0788 6.99976 14.2819 7.08389 14.4317 7.23366C14.5815 7.38343 14.6656 7.58656 14.6656 7.79836V8.86609C14.6658 8.9711 14.6453 9.07512 14.6053 9.17219C14.5652 9.26927 14.5064 9.35749 14.4323 9.43182C14.3581 9.50615 14.27 9.56511 14.173 9.60535C14.076 9.64558 13.972 9.66629 13.867 9.66629Z" fill="#3BC7FF"/>
  <path opacity="0.96" d="M10.667 8.83334C10.7995 8.83334 10.9267 8.78066 11.0205 8.68691C11.1142 8.59316 11.1669 8.466 11.1669 8.33341C11.1669 8.20082 11.1142 8.07366 11.0205 7.97991C10.9267 7.88616 10.7995 7.83349 10.667 7.83349H8.83017V3.83329H10.667C10.7998 3.83308 10.9271 3.78044 11.0214 3.68682C11.1156 3.59321 11.169 3.46618 11.1701 3.33336C11.169 3.20054 11.1156 3.07351 11.0214 2.9799C10.9271 2.88628 10.7998 2.83364 10.667 2.83344H5.99993C5.86766 2.83448 5.74111 2.88748 5.64758 2.98101C5.55405 3.07454 5.50104 3.20109 5.5 3.33336C5.50104 3.46563 5.55405 3.59218 5.64758 3.68571C5.74111 3.77924 5.86766 3.83224 5.99993 3.83329H7.83671V11.9998C7.83608 12.2412 7.88316 12.4803 7.97524 12.7034C8.06732 12.9266 8.2026 13.1293 8.37328 13.3C8.54397 13.4707 8.74671 13.606 8.96984 13.6981C9.19298 13.7901 9.43211 13.8372 9.6735 13.8366H10.667C10.7995 13.8366 10.9267 13.7839 11.0205 13.6902C11.1142 13.5964 11.1669 13.4692 11.1669 13.3367C11.1669 13.2041 11.1142 13.0769 11.0205 12.9832C10.9267 12.8894 10.7995 12.8367 10.667 12.8367H9.66631C9.44546 12.8365 9.23372 12.7487 9.07756 12.5925C8.9214 12.4364 8.83358 12.2246 8.83337 12.0038V8.83334H10.667Z" fill="#3BC7FF"/>
  <path d="M13.867 14.6664H11.4656C11.2538 14.6664 11.0507 14.5822 10.9009 14.4324C10.7511 14.2827 10.667 14.0796 10.667 13.8677V12.7984C10.667 12.5866 10.7511 12.3835 10.9009 12.2337C11.0507 12.084 11.2538 11.9998 11.4656 11.9998H13.867C14.0788 11.9998 14.2819 12.084 14.4317 12.2337C14.5815 12.3835 14.6656 12.5866 14.6656 12.7984V13.8662C14.6658 13.9712 14.6453 14.0752 14.6053 14.1723C14.5652 14.2693 14.5064 14.3576 14.4323 14.4319C14.3581 14.5062 14.27 14.5652 14.173 14.6054C14.076 14.6456 13.972 14.6664 13.867 14.6664Z" fill="#3BC7FF"/>
</svg>
