<svg width="17" height="15" viewBox="0 0 17 15" fill="none"
  xmlns="http://www.w3.org/2000/svg">
  <g clip-path="url(#clip0_3611_62379)">
    <path d="M1.38 12H2.53V4.71H0.45V5.75H1.38V12ZM4.00609 11.9H8.86609V10.95H5.69609C6.86609 9.88 8.66609 8.53 8.66609 6.76C8.66609 5.45 7.82609 4.56 6.34609 4.56C5.05609 4.56 4.03609 5.33 3.99609 6.91H5.09609C5.12609 6.09 5.55609 5.53 6.35609 5.53C7.20609 5.53 7.53609 6.05 7.53609 6.81C7.53609 8.24 5.72609 9.56 4.00609 11.07V11.9ZM11.1976 11.34C11.1976 10.93 10.8776 10.61 10.4776 10.61C10.0676 10.61 9.74758 10.93 9.74758 11.34C9.74758 11.75 10.0676 12.07 10.4776 12.07C10.8776 12.07 11.1976 11.75 11.1976 11.34ZM12.2597 6.51H13.3697C13.4397 6 13.8097 5.52 14.6097 5.52C15.3897 5.52 15.7997 5.94 15.7997 6.57C15.7997 7.35 15.1697 7.65 14.1397 7.66H13.8697V8.6H14.1297C15.3197 8.6 15.9397 8.93 15.9397 9.89C15.9397 10.57 15.5197 11.09 14.6697 11.09C13.8097 11.09 13.3097 10.57 13.2597 9.89H12.1597C12.2297 11.32 13.2997 12.04 14.6797 12.04C16.1997 12.04 17.0197 11.16 17.0197 10C17.0197 8.99 16.5297 8.36 15.7697 8.13V8.09C16.3397 7.9 16.8897 7.31 16.8897 6.44C16.8897 5.38 16.0997 4.54 14.6497 4.54C13.3197 4.54 12.3397 5.25 12.2597 6.51Z" fill="#79BC81"/>
  </g>
  <defs>
    <clipPath id="clip0_3611_62379">
      <rect width="17" height="15" fill="white"/>
    </clipPath>
  </defs>
</svg>
