<svg width="71" height="82" viewBox="0 0 71 82" fill="none" xmlns="http://www.w3.org/2000/svg">
<g opacity="0.7">
<ellipse cx="33" cy="33.2075" rx="33" ry="33.2075" fill="#E9EDF0"/>
<g filter="url(#filter0_f_9034_306167)">
<ellipse cx="33" cy="75.4717" rx="24" ry="4.5283" fill="#D3DBE0"/>
</g>
<g filter="url(#filter1_ii_9034_306167)">
<path d="M9 53.585C9 53.585 10.1797 58.868 33 58.868C55.8203 58.868 57 53.585 57 53.585V66.4151C57 66.4151 53.25 72.4529 33 72.4529C12.75 72.4529 9 66.4151 9 66.4151V53.585Z" fill="#A7B0B5"/>
</g>
<path d="M57 53.5848C57 56.5025 47.25 58.8678 33 58.8678C18.75 58.8678 9 56.5025 9 53.5848C9 50.667 19.7452 48.3018 33 48.3018C46.2548 48.3018 57 50.667 57 53.5848Z" fill="#D3DBE0"/>
<path d="M52.5 53.5851C52.5 55.6692 44.2734 57.3587 32.25 57.3587C20.2266 57.3587 12 55.6692 12 53.5851C12 51.501 21.0662 49.8115 32.25 49.8115C43.4338 49.8115 52.5 51.501 52.5 53.5851Z" fill="#6D777E"/>
<ellipse cx="13.5" cy="61.8854" rx="1.5" ry="1.50943" fill="#6D777E"/>
<ellipse cx="18" cy="63.3952" rx="1.5" ry="1.50943" fill="#6D777E"/>
<ellipse cx="22.5" cy="64.1491" rx="1.5" ry="1.50943" fill="#6D777E"/>
<g filter="url(#filter2_ii_9034_306167)">
<path d="M9 36.9814C9 36.9814 10.1797 42.2645 33 42.2645C55.8203 42.2645 57 36.9814 57 36.9814V49.8116C57 49.8116 53.25 54.3399 33 54.3399C12.75 54.3399 9 49.8116 9 49.8116V36.9814Z" fill="#A7B0B5"/>
</g>
<path d="M57 36.9813C57 39.899 47.25 42.2643 33 42.2643C18.75 42.2643 9 39.899 9 36.9813C9 34.0635 19.7452 31.6982 33 31.6982C46.2548 31.6982 57 34.0635 57 36.9813Z" fill="#D3DBE0"/>
<path d="M52.5 36.9816C52.5 39.0657 44.2734 40.7552 32.25 40.7552C20.2266 40.7552 12 39.0657 12 36.9816C12 34.8975 21.0662 33.208 32.25 33.208C43.4338 33.208 52.5 34.8975 52.5 36.9816Z" fill="#6D777E"/>
<ellipse cx="13.5" cy="45.2829" rx="1.5" ry="1.50943" fill="#6D777E"/>
<ellipse cx="18" cy="46.7926" rx="1.5" ry="1.50943" fill="#6D777E"/>
<ellipse cx="22.5" cy="47.5475" rx="1.5" ry="1.50943" fill="#6D777E"/>
<g filter="url(#filter3_ii_9034_306167)">
<path d="M9 20.377C9 20.377 10.1797 25.66 33 25.66C55.8203 25.66 57 20.377 57 20.377V33.2071C57 33.2071 53.25 37.7354 33 37.7354C12.75 37.7354 9 33.2071 9 33.2071V20.377Z" fill="#A7B0B5"/>
</g>
<path d="M57 20.3768C57 23.2945 47.25 25.6598 33 25.6598C18.75 25.6598 9 23.2945 9 20.3768C9 17.459 19.7452 15.0938 33 15.0938C46.2548 15.0938 57 17.459 57 20.3768Z" fill="#D3DBE0"/>
<path d="M52.5 18.8673C52.5 20.9514 44.2734 22.6409 32.25 22.6409C20.2266 22.6409 12 20.9514 12 18.8673C12 16.7832 21.0662 15.0938 32.25 15.0938C43.4338 15.0938 52.5 16.7832 52.5 18.8673Z" fill="#6D777E"/>
<ellipse cx="13.5" cy="28.6794" rx="1.5" ry="1.50943" fill="#6D777E"/>
<ellipse cx="18" cy="30.1891" rx="1.5" ry="1.50943" fill="#6D777E"/>
<ellipse cx="22.5" cy="30.943" rx="1.5" ry="1.50943" fill="#6D777E"/>
</g>
<g filter="url(#filter4_ii_9034_306167)">
<circle cx="55.8936" cy="17.8936" r="14.8936" fill="#6D777E"/>
</g>
<g filter="url(#filter5_d_9034_306167)">
<path d="M57.2792 20.5225H54.3388C54.3388 19.9003 54.5164 19.2857 54.8715 18.6787C55.2266 18.0717 55.6456 17.5633 56.1286 17.1536C57.3218 16.1217 57.9184 15.1808 57.9184 14.331C57.9184 13.7999 57.7479 13.3902 57.407 13.1018C57.0661 12.8135 56.5903 12.6693 55.9795 12.6693C54.7863 12.6693 53.9411 13.3446 53.4439 14.6952L50.9297 13.1474C51.3558 12.0396 52.0306 11.1746 52.9539 10.5524C53.8772 9.93023 54.9212 9.61914 56.086 9.61914C57.3644 9.61914 58.4795 10.0213 59.4312 10.8256C60.3829 11.6147 60.8588 12.7073 60.8588 14.1034C60.8588 14.7256 60.7309 15.3174 60.4752 15.8789C60.2338 16.4252 59.9355 16.8956 59.5803 17.2902C59.2394 17.6695 58.8914 18.0337 58.5363 18.3828C58.1954 18.7166 57.8971 19.0657 57.6414 19.4299C57.3999 19.7941 57.2792 20.1583 57.2792 20.5225ZM57.6201 24.2328C57.6201 24.7639 57.4425 25.2192 57.0874 25.5985C56.7323 25.9779 56.3062 26.1676 55.809 26.1676C55.3118 26.1676 54.8857 25.9779 54.5306 25.5985C54.1755 25.2192 53.9979 24.7639 53.9979 24.2328C53.9979 23.7016 54.1755 23.2464 54.5306 22.867C54.8857 22.4876 55.3118 22.2979 55.809 22.2979C56.3062 22.2979 56.7323 22.4876 57.0874 22.867C57.4425 23.2464 57.6201 23.7016 57.6201 24.2328Z" fill="white"/>
</g>
<defs>
<filter id="filter0_f_9034_306167" x="7" y="68.9434" width="52" height="13.0566" filterUnits="userSpaceOnUse" color-interpolation-filters="sRGB">
<feFlood flood-opacity="0" result="BackgroundImageFix"/>
<feBlend mode="normal" in="SourceGraphic" in2="BackgroundImageFix" result="shape"/>
<feGaussianBlur stdDeviation="1" result="effect1_foregroundBlur_9034_306167"/>
</filter>
<filter id="filter1_ii_9034_306167" x="8" y="52.585" width="50" height="20.8682" filterUnits="userSpaceOnUse" color-interpolation-filters="sRGB">
<feFlood flood-opacity="0" result="BackgroundImageFix"/>
<feBlend mode="normal" in="SourceGraphic" in2="BackgroundImageFix" result="shape"/>
<feColorMatrix in="SourceAlpha" type="matrix" values="0 0 0 0 0 0 0 0 0 0 0 0 0 0 0 0 0 0 127 0" result="hardAlpha"/>
<feOffset dx="2" dy="1"/>
<feGaussianBlur stdDeviation="0.5"/>
<feComposite in2="hardAlpha" operator="arithmetic" k2="-1" k3="1"/>
<feColorMatrix type="matrix" values="0 0 0 0 1 0 0 0 0 1 0 0 0 0 1 0 0 0 0.4 0"/>
<feBlend mode="normal" in2="shape" result="effect1_innerShadow_9034_306167"/>
<feColorMatrix in="SourceAlpha" type="matrix" values="0 0 0 0 0 0 0 0 0 0 0 0 0 0 0 0 0 0 127 0" result="hardAlpha"/>
<feOffset dx="-2" dy="-1"/>
<feGaussianBlur stdDeviation="0.5"/>
<feComposite in2="hardAlpha" operator="arithmetic" k2="-1" k3="1"/>
<feColorMatrix type="matrix" values="0 0 0 0 0 0 0 0 0 0 0 0 0 0 0 0 0 0 0.1 0"/>
<feBlend mode="normal" in2="effect1_innerShadow_9034_306167" result="effect2_innerShadow_9034_306167"/>
</filter>
<filter id="filter2_ii_9034_306167" x="8" y="35.9814" width="50" height="19.3584" filterUnits="userSpaceOnUse" color-interpolation-filters="sRGB">
<feFlood flood-opacity="0" result="BackgroundImageFix"/>
<feBlend mode="normal" in="SourceGraphic" in2="BackgroundImageFix" result="shape"/>
<feColorMatrix in="SourceAlpha" type="matrix" values="0 0 0 0 0 0 0 0 0 0 0 0 0 0 0 0 0 0 127 0" result="hardAlpha"/>
<feOffset dx="2" dy="1"/>
<feGaussianBlur stdDeviation="0.5"/>
<feComposite in2="hardAlpha" operator="arithmetic" k2="-1" k3="1"/>
<feColorMatrix type="matrix" values="0 0 0 0 1 0 0 0 0 1 0 0 0 0 1 0 0 0 0.4 0"/>
<feBlend mode="normal" in2="shape" result="effect1_innerShadow_9034_306167"/>
<feColorMatrix in="SourceAlpha" type="matrix" values="0 0 0 0 0 0 0 0 0 0 0 0 0 0 0 0 0 0 127 0" result="hardAlpha"/>
<feOffset dx="-2" dy="-1"/>
<feGaussianBlur stdDeviation="0.5"/>
<feComposite in2="hardAlpha" operator="arithmetic" k2="-1" k3="1"/>
<feColorMatrix type="matrix" values="0 0 0 0 0 0 0 0 0 0 0 0 0 0 0 0 0 0 0.1 0"/>
<feBlend mode="normal" in2="effect1_innerShadow_9034_306167" result="effect2_innerShadow_9034_306167"/>
</filter>
<filter id="filter3_ii_9034_306167" x="8" y="19.377" width="50" height="19.3584" filterUnits="userSpaceOnUse" color-interpolation-filters="sRGB">
<feFlood flood-opacity="0" result="BackgroundImageFix"/>
<feBlend mode="normal" in="SourceGraphic" in2="BackgroundImageFix" result="shape"/>
<feColorMatrix in="SourceAlpha" type="matrix" values="0 0 0 0 0 0 0 0 0 0 0 0 0 0 0 0 0 0 127 0" result="hardAlpha"/>
<feOffset dx="2" dy="1"/>
<feGaussianBlur stdDeviation="0.5"/>
<feComposite in2="hardAlpha" operator="arithmetic" k2="-1" k3="1"/>
<feColorMatrix type="matrix" values="0 0 0 0 1 0 0 0 0 1 0 0 0 0 1 0 0 0 0.4 0"/>
<feBlend mode="normal" in2="shape" result="effect1_innerShadow_9034_306167"/>
<feColorMatrix in="SourceAlpha" type="matrix" values="0 0 0 0 0 0 0 0 0 0 0 0 0 0 0 0 0 0 127 0" result="hardAlpha"/>
<feOffset dx="-2" dy="-1"/>
<feGaussianBlur stdDeviation="0.5"/>
<feComposite in2="hardAlpha" operator="arithmetic" k2="-1" k3="1"/>
<feColorMatrix type="matrix" values="0 0 0 0 0 0 0 0 0 0 0 0 0 0 0 0 0 0 0.1 0"/>
<feBlend mode="normal" in2="effect1_innerShadow_9034_306167" result="effect2_innerShadow_9034_306167"/>
</filter>
<filter id="filter4_ii_9034_306167" x="40" y="1" width="31.7871" height="33.7871" filterUnits="userSpaceOnUse" color-interpolation-filters="sRGB">
<feFlood flood-opacity="0" result="BackgroundImageFix"/>
<feBlend mode="normal" in="SourceGraphic" in2="BackgroundImageFix" result="shape"/>
<feColorMatrix in="SourceAlpha" type="matrix" values="0 0 0 0 0 0 0 0 0 0 0 0 0 0 0 0 0 0 127 0" result="hardAlpha"/>
<feOffset dx="1" dy="2"/>
<feGaussianBlur stdDeviation="1"/>
<feComposite in2="hardAlpha" operator="arithmetic" k2="-1" k3="1"/>
<feColorMatrix type="matrix" values="0 0 0 0 1 0 0 0 0 1 0 0 0 0 1 0 0 0 0.6 0"/>
<feBlend mode="normal" in2="shape" result="effect1_innerShadow_9034_306167"/>
<feColorMatrix in="SourceAlpha" type="matrix" values="0 0 0 0 0 0 0 0 0 0 0 0 0 0 0 0 0 0 127 0" result="hardAlpha"/>
<feOffset dx="-1" dy="-2"/>
<feGaussianBlur stdDeviation="1"/>
<feComposite in2="hardAlpha" operator="arithmetic" k2="-1" k3="1"/>
<feColorMatrix type="matrix" values="0 0 0 0 0 0 0 0 0 0 0 0 0 0 0 0 0 0 0.15 0"/>
<feBlend mode="normal" in2="effect1_innerShadow_9034_306167" result="effect2_innerShadow_9034_306167"/>
</filter>
<filter id="filter5_d_9034_306167" x="49.9297" y="9.61914" width="11.9287" height="18.5488" filterUnits="userSpaceOnUse" color-interpolation-filters="sRGB">
<feFlood flood-opacity="0" result="BackgroundImageFix"/>
<feColorMatrix in="SourceAlpha" type="matrix" values="0 0 0 0 0 0 0 0 0 0 0 0 0 0 0 0 0 0 127 0" result="hardAlpha"/>
<feOffset dy="1"/>
<feGaussianBlur stdDeviation="0.5"/>
<feComposite in2="hardAlpha" operator="out"/>
<feColorMatrix type="matrix" values="0 0 0 0 0 0 0 0 0 0 0 0 0 0 0 0 0 0 0.25 0"/>
<feBlend mode="normal" in2="BackgroundImageFix" result="effect1_dropShadow_9034_306167"/>
<feBlend mode="normal" in="SourceGraphic" in2="effect1_dropShadow_9034_306167" result="shape"/>
</filter>
</defs>
</svg>
