<svg width="14" height="18" viewBox="0 0 14 18" fill="none" xmlns="http://www.w3.org/2000/svg">
<g clip-path="url(#clip0_3738_7080)">
<path d="M1.90023 0.5H8.64565L13.233 5.22779V16.3664C13.233 16.6669 13.1137 16.9551 12.9013 17.1677C12.6888 17.3802 12.4007 17.4998 12.1002 17.5H1.90023C1.59958 17.5 1.31123 17.3806 1.09863 17.168C0.886037 16.9554 0.766602 16.667 0.766602 16.3664L0.766602 1.63363C0.766602 1.33297 0.886037 1.04463 1.09863 0.832033C1.31123 0.619436 1.59958 0.5 1.90023 0.5V0.5Z" fill="#3BC7FF"/>
<path d="M8.65625 1.53618L8.73751 4.89767L11.1364 8.97499H13.2339V5.24663L9.21896 1.53618H8.65625Z" fill="url(#paint0_linear_3738_7080)"/>
<path d="M8.6543 0.505461V4.56127C8.65493 4.75119 8.71797 4.93571 8.83342 5.08651C8.89593 5.14 8.96826 5.18041 9.04662 5.20545C9.12498 5.2305 9.20758 5.23964 9.28953 5.23232H13.2328L8.6543 0.505461Z" fill="#A3E5FF"/>
</g>
<defs>
<linearGradient id="paint0_linear_3738_7080" x1="8.83936" y1="5.02498" x2="12.391" y2="7.18216" gradientUnits="userSpaceOnUse">
<stop stop-color="#0FA9E6" stop-opacity="0.502"/>
<stop offset="1" stop-color="#0FA9E6" stop-opacity="0"/>
</linearGradient>
<clipPath id="clip0_3738_7080">
<rect width="12.4673" height="17" fill="white" transform="translate(0.766602 0.5)"/>
</clipPath>
</defs>
</svg>
