<svg width="6" height="6" viewBox="0 0 6 6" fill="none"
  xmlns="http://www.w3.org/2000/svg">
  <g clip-path="url(#clip0_3610_62211)">
    <path d="M3.26578 4.7345C3.19546 4.80481 3.10009 4.8443 3.00066 4.8443C2.90122 4.8443 2.80585 4.80481 2.73553 4.7345L0.640782 2.6405C0.588247 2.5881 0.55244 2.52129 0.537891 2.44853C0.523342 2.37577 0.530706 2.30033 0.559051 2.23175C0.587396 2.16318 0.635448 2.10456 0.697124 2.0633C0.758801 2.02205 0.83133 2.00002 0.905532 2L5.09503 2C5.1693 1.99987 5.24193 2.02179 5.30372 2.06299C5.36551 2.10419 5.41368 2.1628 5.44212 2.23141C5.47056 2.30001 5.47799 2.37552 5.46346 2.44835C5.44894 2.52118 5.41311 2.58806 5.36053 2.6405L3.26578 4.7345Z" fill="#A7B0B5"/>
  </g>
  <defs>
    <clipPath id="clip0_3610_62211">
      <rect width="6" height="3" fill="white" transform="translate(0 2)"/>
    </clipPath>
  </defs>
</svg>
