<svg width="20" height="20" viewBox="0 0 20 20" fill="none" xmlns="http://www.w3.org/2000/svg">
<path d="M5.13932 12.2914H7.47266V11.1456H5.52821V8.85395H7.47266V7.70812H5.13932C4.91895 7.70812 4.73423 7.78132 4.58516 7.92773C4.43608 8.07415 4.36155 8.25557 4.36155 8.472V11.5276C4.36155 11.744 4.43608 11.9254 4.58516 12.0718C4.73423 12.2182 4.91895 12.2914 5.13932 12.2914ZM8.17266 12.2914H10.506C10.7264 12.2914 10.9111 12.2182 11.0602 12.0718C11.2092 11.9254 11.2838 11.744 11.2838 11.5276V10.3817C11.2838 10.1653 11.2092 9.96477 11.0602 9.78016C10.9111 9.59556 10.7264 9.50325 10.506 9.50325H9.33932V8.85395H11.2838V7.70812H8.95043C8.73006 7.70812 8.54534 7.78132 8.39627 7.92773C8.24719 8.07415 8.17266 8.25557 8.17266 8.472V9.61784C8.17266 9.83427 8.24719 10.0284 8.39627 10.2003C8.54534 10.3722 8.73006 10.4581 8.95043 10.4581H10.1171V11.1456H8.17266V12.2914ZM13.306 12.2914H14.4727L15.8338 7.70812H14.6671L13.8893 10.3435L13.1115 7.70812H11.9449L13.306 12.2914ZM3.77821 16.1109C3.35043 16.1109 2.98423 15.9613 2.6796 15.6621C2.37497 15.3629 2.22266 15.0033 2.22266 14.5831V5.41645C2.22266 4.99631 2.37497 4.63665 2.6796 4.33746C2.98423 4.03827 3.35043 3.88867 3.77821 3.88867H16.2227C16.6504 3.88867 17.0166 4.03827 17.3213 4.33746C17.6259 4.63665 17.7782 4.99631 17.7782 5.41645V14.5831C17.7782 15.0033 17.6259 15.3629 17.3213 15.6621C17.0166 15.9613 16.6504 16.1109 16.2227 16.1109H3.77821Z" fill="#58D266"/>
</svg>
