<svg width="24" height="24" viewBox="0 0 24 24" fill="none" xmlns="http://www.w3.org/2000/svg">
<path d="M13.404 18.509V3H12.152C8.93599 3.581 5.728 4.119 2.5 4.676V19.345C5.676 19.906 8.892 20.467 12.088 21.045H13.395V18.506L13.404 18.509ZM8.674 15.29C8.27504 14.4334 7.92547 13.5546 7.627 12.658C7.336 13.509 6.93599 14.311 6.60699 15.145C6.14799 15.145 5.689 15.119 5.23 15.101C5.767 14.046 6.288 12.983 6.842 11.937C6.371 10.856 5.851 9.79901 5.366 8.72701L6.755 8.64799C7.066 9.467 7.40899 10.278 7.66699 11.118C7.95799 10.226 8.35599 9.375 8.70999 8.526C9.18466 8.49333 9.66033 8.46433 10.137 8.439C9.57899 9.58566 9.01634 10.7353 8.44901 11.888C9.03 13.05 9.611 14.227 10.192 15.401C9.686 15.36 9.18399 15.328 8.67799 15.291L8.674 15.29Z" fill="#29AF7C"/>
<path d="M13.9321 5.00977V6.12277H16.1551V7.75977H13.9321V8.65976H16.1551V10.3018H13.9321V11.2018H16.1551V12.8408H13.9321V13.7408H16.1551V15.3678H13.9321V16.3208H16.1551V17.9098H13.9321V19.0228H21.6081V5.00977H13.9321ZM19.9141 17.9278H16.6831V16.3388H19.9141V17.9278ZM19.9141 15.3858H16.6831V13.7448H19.9141V15.3858ZM19.9141 12.8438H16.6831V11.2048H19.9141V12.8438ZM19.9141 10.3018H16.6831V8.65976H19.9141V10.3018ZM19.9141 7.75977H16.6831V6.12376H19.9141V7.75977Z" fill="#29AF7C"/>
</svg>
