<svg width="15" height="15" viewBox="0 0 15 15" fill="none"
  xmlns="http://www.w3.org/2000/svg">
  <g clip-path="url(#clip0_3611_62398)">
    <path d="M1.38 12H2.53V4.71H0.45V5.75H1.38V12ZM4.00609 11.9H8.86609V10.95H5.69609C6.86609 9.88 8.66609 8.53 8.66609 6.76C8.66609 5.45 7.82609 4.56 6.34609 4.56C5.05609 4.56 4.03609 5.33 3.99609 6.91H5.09609C5.12609 6.09 5.55609 5.53 6.35609 5.53C7.20609 5.53 7.53609 6.05 7.53609 6.81C7.53609 8.24 5.72609 9.56 4.00609 11.07V11.9ZM9.84758 6.51H10.9576C11.0276 6 11.3976 5.52 12.1976 5.52C12.9776 5.52 13.3876 5.94 13.3876 6.57C13.3876 7.35 12.7576 7.65 11.7276 7.66H11.4576V8.6H11.7176C12.9076 8.6 13.5276 8.93 13.5276 9.89C13.5276 10.57 13.1076 11.09 12.2576 11.09C11.3976 11.09 10.8976 10.57 10.8476 9.89H9.74758C9.81758 11.32 10.8876 12.04 12.2676 12.04C13.7876 12.04 14.6076 11.16 14.6076 10C14.6076 8.99 14.1176 8.36 13.3576 8.13V8.09C13.9276 7.9 14.4776 7.31 14.4776 6.44C14.4776 5.38 13.6876 4.54 12.2376 4.54C10.9076 4.54 9.92758 5.25 9.84758 6.51Z" fill="#79BC81"/>
  </g>
  <defs>
    <clipPath id="clip0_3611_62398">
      <rect width="15" height="15" fill="white"/>
    </clipPath>
  </defs>
</svg>
