<svg width="13" height="13" viewBox="0 0 13 13" fill="none"
  xmlns="http://www.w3.org/2000/svg">
  <g clip-path="url(#clip0_3611_62416)">
    <path d="M6.50371 2.51898C5.57414 2.51898 4.66544 2.79463 3.89253 3.31107C3.11962 3.82752 2.51721 4.56156 2.16148 5.42037C1.80575 6.27918 1.71267 7.2242 1.89402 8.13591C2.07537 9.04762 2.523 9.88508 3.18031 10.5424C3.83762 11.1997 4.67508 11.6473 5.58679 11.8287C6.4985 12.01 7.44351 11.9169 8.30232 11.5612C9.16114 11.2055 9.89518 10.6031 10.4116 9.83016C10.9281 9.05725 11.2037 8.14855 11.2037 7.21898C11.2037 5.97246 10.7085 4.777 9.82712 3.89558C8.94569 3.01416 7.75023 2.51898 6.50371 2.51898V2.51898ZM6.90371 7.04198C6.90371 7.14966 6.86094 7.25293 6.7848 7.32907C6.70866 7.40521 6.60539 7.44798 6.49771 7.44798C6.39003 7.44798 6.28677 7.40521 6.21063 7.32907C6.13449 7.25293 6.09171 7.14966 6.09171 7.04198V4.33398C6.09171 4.2263 6.13449 4.12304 6.21063 4.0469C6.28677 3.97076 6.39003 3.92798 6.49771 3.92798C6.60539 3.92798 6.70866 3.97076 6.7848 4.0469C6.86094 4.12304 6.90371 4.2263 6.90371 4.33398V7.04198Z" fill="#A7B0B5"/>
    <path d="M8.06598 1.86801H4.93498C4.83225 1.86855 4.7335 1.82831 4.66039 1.75614C4.58728 1.68397 4.54578 1.58574 4.54498 1.48301C4.54406 1.43107 4.55344 1.37946 4.57259 1.33116C4.59173 1.28287 4.62027 1.23885 4.65653 1.20165C4.6928 1.16445 4.73609 1.13481 4.78388 1.11445C4.83168 1.09409 4.88303 1.0834 4.93498 1.08301H8.06598C8.11727 1.08275 8.16811 1.09265 8.21554 1.11216C8.26298 1.13167 8.30608 1.16038 8.34235 1.19665C8.37861 1.23292 8.40733 1.27602 8.42684 1.32345C8.44634 1.37089 8.45625 1.42172 8.45598 1.47301C8.45652 1.57707 8.41576 1.67709 8.34265 1.75114C8.26954 1.82519 8.17004 1.86722 8.06598 1.86801Z" fill="#A7B0B5"/>
  </g>
  <defs>
    <clipPath id="clip0_3611_62416">
      <rect width="13" height="13" fill="white"/>
    </clipPath>
  </defs>
</svg>
