<svg width="16" height="17" viewBox="0 0 16 17" fill="none" xmlns="http://www.w3.org/2000/svg">
<path d="M4.11068 10.3336H5.97734V9.41688H4.42179V7.58355H5.97734V6.66688H4.11068C3.93438 6.66688 3.7866 6.72545 3.66734 6.84258C3.54808 6.95971 3.48845 7.10485 3.48845 7.278V9.72244C3.48845 9.89559 3.54808 10.0407 3.66734 10.1579C3.7866 10.275 3.93438 10.3336 4.11068 10.3336ZM6.53734 10.3336H8.40401C8.58031 10.3336 8.72808 10.275 8.84734 10.1579C8.9666 10.0407 9.02623 9.89559 9.02623 9.72244V8.80577C9.02623 8.63262 8.9666 8.47221 8.84734 8.32452C8.72808 8.17684 8.58031 8.10299 8.40401 8.10299H7.47068V7.58355H9.02623V6.66688H7.15957C6.98327 6.66688 6.83549 6.72545 6.71623 6.84258C6.59697 6.95971 6.53734 7.10485 6.53734 7.278V8.19466C6.53734 8.36781 6.59697 8.52313 6.71623 8.66063C6.83549 8.79813 6.98327 8.86688 7.15957 8.86688H8.0929V9.41688H6.53734V10.3336ZM10.644 10.3336H11.5773L12.6662 6.66688H11.7329L11.1107 8.77522L10.4885 6.66688H9.55512L10.644 10.3336ZM3.02179 13.3891C2.67957 13.3891 2.3866 13.2694 2.1429 13.0301C1.8992 12.7907 1.77734 12.503 1.77734 12.1669V4.83355C1.77734 4.49744 1.8992 4.20971 2.1429 3.97036C2.3866 3.731 2.67957 3.61133 3.02179 3.61133H12.9773C13.3196 3.61133 13.6125 3.731 13.8562 3.97036C14.0999 4.20971 14.2218 4.49744 14.2218 4.83355V12.1669C14.2218 12.503 14.0999 12.7907 13.8562 13.0301C13.6125 13.2694 13.3196 13.3891 12.9773 13.3891H3.02179Z" fill="#A7B0B5"/>
</svg>
