<svg width="24" height="24" viewBox="0 0 24 24" fill="none" xmlns="http://www.w3.org/2000/svg">
<path d="M18.745 7.20802C18.7454 7.12607 18.7296 7.04484 18.6985 6.96899C18.6675 6.89314 18.6218 6.82417 18.564 6.76603L15.191 3.15203C15.1299 3.08577 15.0552 3.03356 14.972 2.99903C14.8888 2.9645 14.799 2.94846 14.709 2.95202H6.27701C5.99538 2.95386 5.72583 3.06655 5.52669 3.26569C5.32755 3.46483 5.21485 3.7344 5.21301 4.01602V19.936C5.21485 20.2176 5.32755 20.4872 5.52669 20.6864C5.72583 20.8855 5.99538 20.9982 6.27701 21H17.701C17.9826 20.9982 18.2522 20.8855 18.4514 20.6864C18.6505 20.4872 18.7632 20.2176 18.765 19.936L18.745 7.20802ZM10.353 16.865C10.0547 17.0979 9.68744 17.2249 9.30902 17.226C8.89634 17.226 8.50056 17.0621 8.20876 16.7703C7.91695 16.4785 7.75302 16.0827 7.75302 15.67C7.75302 15.2573 7.91695 14.8616 8.20876 14.5698C8.50056 14.278 8.89634 14.114 9.30902 14.114C9.65121 14.1093 9.98696 14.2072 10.273 14.395C10.2984 14.4118 10.3203 14.4335 10.3371 14.4589C10.354 14.4843 10.3655 14.5128 10.3711 14.5428C10.3767 14.5728 10.3762 14.6035 10.3697 14.6333C10.3631 14.663 10.3507 14.6912 10.333 14.716L10.233 14.897C10.153 15.038 10.052 15.038 9.91202 14.957C9.74147 14.8563 9.54801 14.8009 9.35002 14.796C9.2356 14.7883 9.12086 14.8055 9.01373 14.8465C8.9066 14.8874 8.80963 14.9511 8.72949 15.0331C8.64936 15.1152 8.58797 15.2136 8.54956 15.3217C8.51115 15.4297 8.49664 15.5448 8.50702 15.659C8.49813 15.7747 8.51341 15.8909 8.55186 16.0003C8.59032 16.1097 8.65112 16.2099 8.73041 16.2946C8.80969 16.3792 8.90572 16.4465 9.01239 16.492C9.11906 16.5375 9.23405 16.5603 9.35002 16.559C9.57516 16.5512 9.79238 16.474 9.97202 16.338C9.99443 16.3167 10.0213 16.3006 10.0507 16.2909C10.0801 16.2812 10.1113 16.2782 10.142 16.282C10.1727 16.2858 10.2022 16.2964 10.2283 16.313C10.2544 16.3296 10.2765 16.3518 10.293 16.378L10.413 16.539C10.444 16.5906 10.455 16.6518 10.444 16.7109C10.4329 16.7701 10.4005 16.8231 10.353 16.86V16.865ZM12.019 17.226C11.6752 17.2225 11.34 17.1182 11.055 16.926C10.975 16.846 10.894 16.765 11.015 16.605L11.156 16.424C11.1709 16.3965 11.1917 16.3726 11.217 16.3542C11.2423 16.3357 11.2714 16.3232 11.3022 16.3174C11.333 16.3117 11.3646 16.3129 11.3949 16.3209C11.4251 16.329 11.4532 16.3437 11.477 16.364C11.6362 16.4758 11.8246 16.5387 12.019 16.545C12.24 16.545 12.34 16.445 12.34 16.345C12.34 15.923 11.015 15.984 11.015 15.045C11.02 14.9112 11.0527 14.7799 11.111 14.6594C11.1694 14.5389 11.2521 14.4318 11.354 14.3449C11.456 14.2581 11.5748 14.1933 11.703 14.1548C11.8313 14.1162 11.9661 14.1047 12.099 14.121C12.3878 14.1229 12.6712 14.199 12.922 14.342C12.9485 14.3577 12.9717 14.3784 12.9901 14.4031C13.0085 14.4278 13.0218 14.4559 13.0293 14.4858C13.0367 14.5156 13.0381 14.5467 13.0335 14.5771C13.0288 14.6076 13.0181 14.6368 13.002 14.663L12.902 14.863C12.822 15.024 12.702 15.004 12.581 14.943C12.4329 14.8606 12.2682 14.8124 12.099 14.802C11.858 14.802 11.778 14.902 11.778 15.002C11.778 15.444 13.103 15.343 13.103 16.287C13.0945 16.4202 13.0597 16.5504 13.0004 16.67C12.9411 16.7896 12.8586 16.8962 12.7577 16.9836C12.6568 17.071 12.5396 17.1374 12.4127 17.1791C12.2859 17.2207 12.1521 17.2366 12.019 17.226ZM16.255 14.415L15.355 16.985C15.3378 17.0399 15.3028 17.0875 15.2555 17.1202C15.2083 17.153 15.1514 17.1691 15.094 17.166H14.731C14.6731 17.172 14.6149 17.157 14.567 17.1238C14.5192 17.0906 14.4848 17.0414 14.47 16.985L13.57 14.415C13.51 14.254 13.59 14.154 13.751 14.154H14.072C14.1327 14.1484 14.1933 14.1658 14.2417 14.2029C14.2901 14.24 14.3227 14.2939 14.333 14.354L14.815 15.88C14.875 16.061 14.935 16.362 14.935 16.362C14.935 16.362 14.995 16.062 15.055 15.88L15.537 14.354C15.5473 14.2939 15.5799 14.24 15.6283 14.2029C15.6767 14.1658 15.7373 14.1484 15.798 14.154H16.098C16.231 14.154 16.315 14.255 16.255 14.415ZM17.821 7.40802H15.612C15.3304 7.40619 15.0608 7.2935 14.8617 7.09436C14.6625 6.89522 14.5499 6.62565 14.548 6.34403V3.97503C14.5496 3.96188 14.5549 3.94945 14.5633 3.93919C14.5717 3.92893 14.5828 3.92127 14.5954 3.91708C14.6079 3.91289 14.6214 3.91235 14.6343 3.91553C14.6472 3.9187 14.6588 3.92547 14.668 3.93502L17.881 7.29303C17.901 7.33303 17.881 7.41303 17.821 7.41303V7.40802Z" fill="#29AF7C"/>
</svg>
