<svg width="19" height="15" viewBox="0 0 19 15" fill="none"
  xmlns="http://www.w3.org/2000/svg">
  <g clip-path="url(#clip0_3611_62414)">
    <path d="M0.37 8.22C0.37 9.92 1.52 11.09 2.95 11.09C3.87 11.09 4.53 10.65 4.88 10.18V11H6.03V5.49H4.88V6.29C4.54 5.84 3.9 5.4 2.97 5.4C1.52 5.4 0.37 6.52 0.37 8.22ZM4.88 8.24C4.88 9.43 4.07 10.1 3.21 10.1C2.36 10.1 1.54 9.41 1.54 8.22C1.54 7.03 2.36 6.39 3.21 6.39C4.07 6.39 4.88 7.06 4.88 8.24ZM8.66734 6.31V3.6H7.52734V11H8.66734V10.2C9.02734 10.68 9.67734 11.09 10.5873 11.09C12.0373 11.09 13.1773 9.92 13.1773 8.22C13.1773 6.52 12.0473 5.4 10.5873 5.4C9.71734 5.4 9.02734 5.81 8.66734 6.31ZM12.0173 8.22C12.0173 9.41 11.1973 10.1 10.3373 10.1C9.48734 10.1 8.66734 9.43 8.66734 8.24C8.66734 7.06 9.48734 6.39 10.3373 6.39C11.1973 6.39 12.0173 7.03 12.0173 8.22ZM13.9247 8.24C13.9247 9.97 15.0447 11.09 16.6247 11.09C17.9747 11.09 18.8547 10.34 19.1647 9.26H17.9347C17.7247 9.83 17.3047 10.13 16.6247 10.13C15.7047 10.13 15.0947 9.45 15.0947 8.24C15.0947 7.04 15.7047 6.36 16.6247 6.36C17.3047 6.36 17.7447 6.7 17.9347 7.23H19.1647C18.8547 6.07 17.9747 5.4 16.6247 5.4C15.0447 5.4 13.9247 6.52 13.9247 8.24Z" fill="#EA4821"/>
  </g>
  <defs>
    <clipPath id="clip0_3611_62414">
      <rect width="19" height="15" fill="white"/>
    </clipPath>
  </defs>
</svg>
