<svg width="16" height="16" viewBox="0 0 16 16" fill="none" xmlns="http://www.w3.org/2000/svg">
<path d="M9.09656 13.5896V0.222656H8.07756C5.4596 0.723535 2.84884 1.18631 0.222656 1.66759V14.3104C2.80771 14.7939 5.42464 15.2773 8.02614 15.7782H9.09656V13.5896ZM5.24675 10.8152C4.92092 10.077 4.63528 9.31976 4.39123 8.54705C4.15473 9.28095 3.82878 9.97129 3.56143 10.691C3.18817 10.691 2.81387 10.6682 2.44062 10.6529C2.87763 9.74371 3.30127 8.82797 3.75268 7.93074C3.37017 6.99976 2.94652 6.08729 2.55167 5.16393L3.68276 5.09643C3.93572 5.8031 4.2154 6.50107 4.42517 7.22516C4.66167 6.45642 4.98558 5.72253 5.27452 4.9919C5.66115 4.96359 6.04811 4.93855 6.43542 4.91677C5.98093 5.90474 5.52301 6.8956 5.06167 7.88937C5.53467 8.89113 6.00766 9.90487 6.48066 10.9164C6.06935 10.8816 5.65805 10.8544 5.24675 10.8217V10.8152Z" fill="#1D6F42"/>
<path d="M9.53027 1.95508V2.91437H11.339V4.3299H9.53027V5.10626H11.339V6.52179H9.53027V7.29815H11.339V8.71368H9.53027V9.49004H11.339V10.8925H9.53027V11.7135H11.339V13.0833H9.53027V14.0426H15.778V1.95617L9.53027 1.95508ZM14.3991 13.0877H11.7698V11.7179H14.3991V13.0877ZM14.3991 10.8969H11.7698V9.48133H14.3991V10.8969ZM14.3991 8.70605H11.7698V7.29052H14.3991V8.70605ZM14.3991 6.51526H11.7698V5.09973H14.3991V6.51526ZM14.3991 4.32445H11.7698V2.91437H14.3991V4.32445Z" fill="#1D6F42"/>
</svg>
