<svg width="13" height="13" viewBox="0 0 13 13" fill="none"
  xmlns="http://www.w3.org/2000/svg">
  <g clip-path="url(#clip0_3611_62381)">
    <path d="M4.14323 11.326C4.12723 11.326 4.10523 11.337 4.08923 11.337C3.03603 10.8119 2.18236 9.95821 1.65723 8.90501C1.65723 8.88901 1.66823 8.86701 1.66823 8.85101C2.33186 9.04293 3.0064 9.19487 3.68823 9.30601C3.80138 9.98745 3.95329 10.6619 4.14323 11.326Z" fill="#3BC7FF"/>
    <path d="M11.3432 8.91101C10.8005 9.99196 9.91456 10.8624 8.82422 11.386C9.03319 10.704 9.19787 10.0092 9.31722 9.30601C9.99751 9.19547 10.6704 9.04352 11.3322 8.85101C11.3242 8.87301 11.3432 8.89401 11.3432 8.91101Z" fill="#3BC7FF"/>
    <path d="M11.3862 4.17601C10.7074 3.96901 10.0164 3.80436 9.31722 3.68301C9.20166 2.98263 9.03692 2.29125 8.82422 1.61401C9.94564 2.15051 10.8497 3.05459 11.3862 4.17601Z" fill="#3BC7FF"/>
    <path d="M4.14426 1.67298C3.95339 2.33487 3.80311 3.00778 3.69426 3.68798C2.99061 3.80304 2.29566 3.96609 1.61426 4.17598C2.13788 3.08564 3.00831 2.19974 4.08926 1.65698C4.10626 1.65698 4.12726 1.67298 4.14426 1.67298Z" fill="#3BC7FF"/>
    <path d="M8.39135 3.56901C7.13495 3.42817 5.86675 3.42817 4.61035 3.56901C4.73996 2.82342 4.92446 2.08842 5.16235 1.37001C5.16869 1.33063 5.17237 1.29088 5.17335 1.25101C5.60745 1.14253 6.05292 1.08613 6.50035 1.08301C6.94614 1.0861 7.38996 1.1425 7.82235 1.25101C7.82503 1.29099 7.83038 1.33074 7.83835 1.37001C8.07595 2.08858 8.26077 2.82353 8.39135 3.56901Z" fill="#3BC7FF"/>
    <path d="M3.56901 8.39099C2.82292 8.26174 2.08753 8.07689 1.36901 7.83799C1.32963 7.83164 1.28988 7.82797 1.25001 7.82699C1.14187 7.39285 1.08581 6.94738 1.08301 6.49999C1.08618 6.05453 1.14258 5.61105 1.25101 5.17899C1.29101 5.17598 1.33076 5.1703 1.37001 5.16199C2.08915 4.92662 2.82397 4.74217 3.56901 4.60999C3.43358 5.86668 3.43358 7.13429 3.56901 8.39099Z" fill="#3BC7FF"/>
    <path d="M11.9157 6.49999C11.9126 6.94742 11.8562 7.39289 11.7477 7.82699C11.7078 7.82797 11.6681 7.83164 11.6287 7.83799C10.9094 8.07305 10.1746 8.25783 9.42969 8.39099C9.57053 7.13459 9.57053 5.86638 9.42969 4.60999C10.1756 4.73955 10.911 4.92405 11.6297 5.16199C11.6685 5.1726 11.7085 5.17798 11.7487 5.17799C11.8565 5.61048 11.9126 6.05426 11.9157 6.49999Z" fill="#3BC7FF"/>
    <path d="M8.39135 9.42999C8.26211 10.1761 8.07726 10.9115 7.83835 11.63C7.83038 11.6693 7.82503 11.709 7.82235 11.749C7.38996 11.8575 6.94614 11.9139 6.50035 11.917C6.05288 11.9135 5.60741 11.8568 5.17335 11.748C5.17232 11.7085 5.16865 11.669 5.16235 11.63C4.92694 10.9105 4.74249 10.1754 4.61035 9.42999C5.23764 9.50485 5.86863 9.54458 6.50035 9.54899C7.13242 9.54479 7.76375 9.50506 8.39135 9.42999V9.42999Z" fill="#3BC7FF"/>
    <path d="M8.53821 8.53796C7.18458 8.7089 5.81483 8.7089 4.46121 8.53796C4.29027 7.18434 4.29027 5.81459 4.46121 4.46096C5.81483 4.29003 7.18458 4.29003 8.53821 4.46096C8.70914 5.81459 8.70914 7.18434 8.53821 8.53796Z" fill="#3BC7FF"/>
  </g>
  <defs>
    <clipPath id="clip0_3611_62381">
      <rect width="13" height="13" fill="white"/>
    </clipPath>
  </defs>
</svg>
