<svg width="16" height="16" viewBox="0 0 16 16" fill="none"
  xmlns="http://www.w3.org/2000/svg">
  <path d="M1.83576 9.54C1.83576 10.6328 4.60136 11.5216 7.99976 11.5216C11.3982 11.5216 14.1598 10.6336 14.1638 9.5432V9.53839C14.1638 9.46479 14.1638 7.9608 14.1638 7.9608C12.8974 8.8896 10.443 9.32079 7.99976 9.32079C5.55656 9.32079 3.10136 8.8896 1.83496 7.9608C1.83496 7.9608 1.83496 9.46719 1.83496 9.54159L1.83576 9.54Z" fill="#5F89FF"/>
  <path d="M14.1638 11.0424C12.8974 11.9712 10.443 12.4024 7.99976 12.4024C5.55656 12.4024 3.10136 11.9712 1.83496 11.0424V12.8432C2.17576 13.8336 4.82696 14.6032 7.99976 14.6032C11.1726 14.6032 13.823 13.8328 14.1638 12.8432V11.0424Z" fill="#5F89FF"/>
  <path d="M1.83576 6.4584C1.83576 7.5512 4.60136 8.43999 7.99976 8.43999C11.3982 8.43999 14.1598 7.55199 14.1638 6.46159V6.4568C14.1638 6.3832 14.1638 4.8792 14.1638 4.8792C12.8974 5.808 10.443 6.23919 7.99976 6.23919C5.55656 6.23919 3.10136 5.808 1.83496 4.8792C1.83496 4.8792 1.83496 6.38559 1.83496 6.45999L1.83576 6.4584Z" fill="#5F89FF"/>
  <path d="M14.1647 3.37599C14.1647 4.47039 11.4047 5.35759 7.99994 5.35759C4.59514 5.35759 1.83594 4.47039 1.83594 3.37599C1.83594 2.28159 4.59594 1.39439 7.99994 1.39439C11.4039 1.39439 14.1647 2.28159 14.1647 3.37599Z" fill="#5F89FF"/>
</svg>
