<svg width="20" height="20" viewBox="0 0 20 20" fill="none" xmlns="http://www.w3.org/2000/svg">
<path d="M6.87258 4.78843C6.70726 4.78678 6.54917 4.72038 6.43227 4.60348C6.31536 4.48657 6.24896 4.32849 6.24731 4.16317V1.66317C6.24896 1.49785 6.31536 1.33976 6.43227 1.22286C6.54917 1.10595 6.70726 1.03955 6.87258 1.0379C7.0379 1.03955 7.19598 1.10595 7.31289 1.22286C7.42979 1.33976 7.4962 1.49785 7.49784 1.66317V4.16317C7.4962 4.32849 7.42979 4.48657 7.31289 4.60348C7.19598 4.72038 7.0379 4.78678 6.87258 4.78843Z"/>
<path d="M13.1233 4.78843C12.958 4.78678 12.7999 4.72038 12.683 4.60348C12.5661 4.48657 12.4997 4.32849 12.498 4.16317V1.66317C12.4997 1.49785 12.5661 1.33976 12.683 1.22286C12.7999 1.10595 12.958 1.03955 13.1233 1.0379C13.2886 1.03955 13.4467 1.10595 13.5636 1.22286C13.6805 1.33976 13.7469 1.49785 13.7486 1.66317V4.16317C13.7469 4.32849 13.6805 4.48657 13.5636 4.60348C13.4467 4.72038 13.2886 4.78678 13.1233 4.78843Z"/>
<path d="M9.99784 11.74C10.0918 11.7501 10.1867 11.7405 10.2767 11.7117C10.3667 11.683 10.4496 11.6357 10.5202 11.5729C10.5908 11.5101 10.6475 11.4333 10.6866 11.3473C10.7257 11.2613 10.7464 11.1681 10.7473 11.0737C10.747 10.9793 10.7267 10.8861 10.6877 10.8002C10.6486 10.7144 10.5918 10.6377 10.521 10.5754C10.4501 10.5131 10.3668 10.4666 10.2767 10.4389C10.1865 10.4112 10.0914 10.403 9.99784 10.4147C9.90416 10.4028 9.809 10.4109 9.71869 10.4385C9.62839 10.4662 9.54498 10.5127 9.47401 10.575C9.40304 10.6373 9.34613 10.714 9.30704 10.8C9.26796 10.8859 9.2476 10.9792 9.24731 11.0737C9.24822 11.1682 9.26893 11.2615 9.30811 11.3476C9.34728 11.4337 9.40405 11.5106 9.47476 11.5733C9.54547 11.6361 9.62855 11.6834 9.71865 11.7121C9.80874 11.7408 9.90385 11.7503 9.99784 11.74Z"/>
<path d="M10.9474 13.3895C10.9219 13.6167 10.8085 13.825 10.6315 13.9698C10.4544 14.1146 10.2278 14.1843 9.99999 14.1642C9.77134 14.1858 9.54335 14.1167 9.36517 13.9718C9.18698 13.8268 9.07285 13.6177 9.04736 13.3895C9.07286 13.1622 9.18624 12.9539 9.36327 12.8092C9.5403 12.6644 9.76693 12.5946 9.99473 12.6147C10.2234 12.5932 10.4514 12.6623 10.6296 12.8072C10.8077 12.9521 10.9219 13.1612 10.9474 13.3895Z"/>
<path d="M16.3085 3.74631C16.1833 3.65393 16.035 3.59804 15.8799 3.58484C15.7249 3.57164 15.5693 3.60165 15.4302 3.67153C15.2912 3.74142 15.1743 3.84845 15.0924 3.98076C15.0105 4.11306 14.9669 4.26546 14.9664 4.42105V4.50421C14.9769 4.98145 14.8121 5.446 14.5034 5.81005C14.1946 6.1741 13.7632 6.41243 13.2906 6.48C13.0288 6.50774 12.764 6.48012 12.5136 6.39892C12.2631 6.31772 12.0325 6.18476 11.8368 6.00867C11.641 5.83258 11.4845 5.61729 11.3774 5.37678C11.2702 5.13628 11.2148 4.87592 11.2148 4.61263V3.74631C11.2143 3.52556 11.1264 3.31399 10.9704 3.15779C10.8144 3.0016 10.6029 2.91346 10.3822 2.91263H9.61481C9.39388 2.91318 9.18215 3.0012 9.02592 3.15742C8.8697 3.31365 8.78169 3.52538 8.78113 3.74631V4.61368C8.78128 4.92524 8.70273 5.23179 8.55275 5.50488C8.40277 5.77797 8.18623 6.00875 7.92324 6.17579C7.84536 6.22528 7.7645 6.26993 7.68113 6.30947C7.60221 6.35461 7.51808 6.38995 7.4306 6.41473C7.3254 6.45042 7.21612 6.4727 7.10534 6.48105C6.97253 6.49772 6.83815 6.49772 6.70534 6.48105C6.59456 6.4727 6.48528 6.45042 6.38008 6.41473C6.29367 6.38698 6.20985 6.35176 6.12955 6.30947C6.04618 6.26993 5.96532 6.22528 5.88745 6.17579C5.62157 5.98556 5.40487 5.73469 5.25531 5.44399C5.10575 5.15329 5.02764 4.83113 5.02745 4.50421V4.42105C5.0271 4.27736 4.98999 4.13614 4.91965 4.01084C4.84931 3.88554 4.74808 3.78032 4.62558 3.7052C4.50309 3.63008 4.36341 3.58755 4.21984 3.58167C4.07626 3.57578 3.93357 3.60673 3.80534 3.67158C3.79692 3.68 3.7885 3.68 3.78008 3.68842C3.74776 3.70472 3.71709 3.72411 3.6885 3.74631C3.66324 3.77158 3.6306 3.78842 3.60534 3.81263C3.37548 3.99247 3.16834 4.19961 2.9885 4.42947C2.90073 4.52706 2.82248 4.6328 2.75481 4.74526C2.74439 4.75483 2.73582 4.76625 2.72955 4.77894C2.65487 4.89103 2.58804 5.00815 2.52955 5.12947C2.51376 5.14631 2.50113 5.15473 2.50113 5.17158C2.4481 5.2705 2.40338 5.37366 2.36745 5.48C2.34891 5.51752 2.33376 5.55662 2.32218 5.59684C2.27568 5.71927 2.23666 5.84441 2.20534 5.97158C2.17166 6.09173 2.14669 6.21415 2.1306 6.33789C2.11376 6.42947 2.10534 6.52105 2.09692 6.62105C2.0885 6.73789 2.08008 6.85473 2.08008 6.97158V14.2726C2.08008 15.3491 2.50772 16.3815 3.26892 17.1427C4.03012 17.9039 5.06253 18.3316 6.13903 18.3316H13.8569C14.9334 18.3316 15.9658 17.9039 16.727 17.1427C17.4882 16.3815 17.9159 15.3491 17.9159 14.2726V6.97158C17.9163 6.34617 17.7713 5.72922 17.4924 5.16947C17.2134 4.60972 16.8081 4.1225 16.3085 3.74631ZM9.99797 15.2063C8.70639 15.2063 7.91376 14.5642 7.91376 13.5305C7.91262 13.2545 7.98619 12.9834 8.12666 12.7458C8.26713 12.5082 8.46928 12.3131 8.71166 12.1811C8.52147 12.0533 8.36639 11.8799 8.26064 11.6767C8.15489 11.4735 8.10185 11.2469 8.10639 11.0179C8.11045 10.7814 8.16427 10.5484 8.26436 10.3341C8.36446 10.1198 8.50857 9.92893 8.68732 9.77402C8.86606 9.6191 9.07544 9.50357 9.30181 9.43496C9.52817 9.36635 9.76645 9.34618 10.0011 9.37579C10.235 9.34691 10.4723 9.36767 10.6976 9.43672C10.9229 9.50577 11.1311 9.62155 11.3086 9.77651C11.4861 9.93147 11.6289 10.1221 11.7278 10.336C11.8266 10.5499 11.8792 10.7823 11.8822 11.0179C11.8888 11.2482 11.8363 11.4764 11.7298 11.6807C11.6233 11.8851 11.4663 12.0587 11.2738 12.1853C11.5178 12.3152 11.7219 12.5092 11.864 12.7464C12.006 12.9836 12.0807 13.2551 12.0801 13.5316C12.0801 14.5653 11.2822 15.2063 9.99797 15.2063Z"/>
</svg>
