<svg width="20" height="20" viewBox="0 0 20 20" fill="none" xmlns="http://www.w3.org/2000/svg">
<path d="M1 5.31776C1 6.90654 2.10138 8 3.47091 8C4.35201 8 4.9841 7.58878 5.31931 7.14953V7.91589H6.42068V2.76635H5.31931V3.51402C4.99368 3.09346 4.38074 2.68224 3.49007 2.68224C2.10138 2.68224 1 3.72897 1 5.31776ZM5.31931 5.33645C5.31931 6.4486 4.54355 7.07477 3.71992 7.07477C2.90586 7.07477 2.12053 6.42991 2.12053 5.31776C2.12053 4.20561 2.90586 3.60748 3.71992 3.60748C4.54355 3.60748 5.31931 4.23364 5.31931 5.33645Z"/>
<path d="M8.94651 3.53271V1H7.85471V7.91589H8.94651V7.16822C9.29129 7.61682 9.91381 8 10.7853 8C12.174 8 13.2658 6.90654 13.2658 5.31776C13.2658 3.72897 12.1836 2.68224 10.7853 2.68224C9.95211 2.68224 9.29129 3.06542 8.94651 3.53271ZM12.1549 5.31776C12.1549 6.42991 11.3695 7.07477 10.5459 7.07477C9.73184 7.07477 8.94651 6.4486 8.94651 5.33645C8.94651 4.23364 9.73184 3.60748 10.5459 3.60748C11.3695 3.60748 12.1549 4.20561 12.1549 5.31776Z"/>
<path d="M13.9816 5.33645C13.9816 6.95327 15.0542 8 16.5674 8C17.8603 8 18.7031 7.29907 19 6.28972H17.822C17.6209 6.82243 17.2186 7.1028 16.5674 7.1028C15.6863 7.1028 15.1021 6.46729 15.1021 5.33645C15.1021 4.21495 15.6863 3.57944 16.5674 3.57944C17.2186 3.57944 17.64 3.8972 17.822 4.39252H19C18.7031 3.30841 17.8603 2.68224 16.5674 2.68224C15.0542 2.68224 13.9816 3.72897 13.9816 5.33645Z"/>
<path d="M2.87773 18.9626H3.96279V12.1586H2.00024V13.1293H2.87773V18.9626Z"/>
<path d="M6.67647 18.8693H11.262V17.9826H8.27104C9.37497 16.9839 11.0733 15.7239 11.0733 14.0719C11.0733 12.8493 10.2808 12.0186 8.88433 12.0186C7.66718 12.0186 6.70478 12.7373 6.66704 14.2119H7.70492C7.73323 13.4466 8.13894 12.9239 8.89377 12.9239C9.69577 12.9239 10.0071 13.4093 10.0071 14.1186C10.0071 15.4533 8.29935 16.6853 6.67647 18.0946V18.8693Z"/>
<path d="M13.509 13.8386H14.5564C14.6224 13.3626 14.9715 12.9146 15.7263 12.9146C16.4623 12.9146 16.8491 13.3066 16.8491 13.8946C16.8491 14.6226 16.2547 14.9026 15.2829 14.9119H15.0281V15.7893H15.2734C16.3962 15.7893 16.9812 16.0973 16.9812 16.9933C16.9812 17.6279 16.5849 18.1133 15.7829 18.1133C14.9715 18.1133 14.4997 17.6279 14.4526 16.9933H13.4147C13.4807 18.3279 14.4903 18.9999 15.7924 18.9999C17.2265 18.9999 18.0002 18.1786 18.0002 17.0959C18.0002 16.1533 17.5379 15.5653 16.8208 15.3506V15.3133C17.3586 15.1359 17.8776 14.5853 17.8776 13.7733C17.8776 12.7839 17.1322 11.9999 15.7641 11.9999C14.5092 11.9999 13.5845 12.6626 13.509 13.8386Z"/>
</svg>
