<svg width="20" height="20" viewBox="0 0 20 20" fill="none" xmlns="http://www.w3.org/2000/svg">
<path d="M9.99792 3.87158C8.56786 3.87075 7.16967 4.294 5.98015 5.08781C4.79063 5.88162 3.86322 7.01033 3.31519 8.33122C2.76716 9.6521 2.62312 11.1058 2.9013 12.5086C3.17947 13.9113 3.86736 15.2001 4.87798 16.2119C5.8886 17.2237 7.17656 17.9131 8.57898 18.1929C9.9814 18.4727 11.4353 18.3303 12.7568 17.7839C14.0784 17.2374 15.2081 16.3113 16.0033 15.1227C16.7985 13.9341 17.2234 12.5364 17.2242 11.1063C17.224 9.18909 16.4628 7.35035 15.1079 5.99387C13.753 4.6374 11.9151 3.87409 9.99792 3.87158ZM10.6232 10.8316C10.6232 10.9974 10.5573 11.1565 10.4401 11.2737C10.3228 11.391 10.1638 11.4568 9.99792 11.4568C9.83209 11.4568 9.67305 11.391 9.55579 11.2737C9.43854 11.1565 9.37266 10.9974 9.37266 10.8316V6.66422C9.37266 6.49838 9.43854 6.33935 9.55579 6.22209C9.67305 6.10483 9.83209 6.03895 9.99792 6.03895C10.1638 6.03895 10.3228 6.10483 10.4401 6.22209C10.5573 6.33935 10.6232 6.49838 10.6232 6.66422V10.8316Z"/>
<path d="M12.4062 2.87157H7.58829C7.50942 2.87185 7.43127 2.85652 7.35835 2.82647C7.28543 2.79641 7.21918 2.75223 7.16341 2.69646C7.10763 2.64069 7.06345 2.57443 7.0334 2.50151C7.00334 2.42859 6.98801 2.35044 6.98829 2.27157C6.98745 2.11141 7.05012 1.95744 7.16259 1.8434C7.27505 1.72936 7.42813 1.66454 7.58829 1.66315H12.4062C12.4851 1.66287 12.5632 1.6782 12.6361 1.70826C12.709 1.73831 12.7753 1.7825 12.8311 1.83827C12.8868 1.89404 12.931 1.96029 12.9611 2.03321C12.9911 2.10613 13.0065 2.18428 13.0062 2.26315C13.007 2.42331 12.9444 2.57728 12.8319 2.69132C12.7194 2.80537 12.5663 2.87018 12.4062 2.87157Z"/>
</svg>
