<svg width="20" height="20" viewBox="0 0 20 20" fill="none" xmlns="http://www.w3.org/2000/svg">
<path d="M13.958 2.96676V1.66703C13.958 1.50124 13.8922 1.34223 13.7749 1.225C13.6577 1.10776 13.4987 1.0419 13.3329 1.0419C13.1671 1.0419 13.0081 1.10776 12.8909 1.225C12.7736 1.34223 12.7078 1.50124 12.7078 1.66703V2.9173H7.29102V1.66703C7.29102 1.58494 7.27485 1.50365 7.24343 1.4278C7.21202 1.35196 7.16597 1.28305 7.10792 1.225C7.04987 1.16695 6.98096 1.1209 6.90511 1.08949C6.82927 1.05807 6.74798 1.0419 6.66589 1.0419C6.58379 1.0419 6.5025 1.05807 6.42666 1.08949C6.35082 1.1209 6.2819 1.16695 6.22385 1.225C6.1658 1.28305 6.11976 1.35196 6.08834 1.4278C6.05693 1.50365 6.04076 1.58494 6.04076 1.66703V2.96676C5.10702 2.97481 4.2143 3.35154 3.55709 4.01486C2.89988 4.67818 2.53143 5.57435 2.53202 6.50812C2.52917 6.56515 2.53794 6.62216 2.55782 6.67569C2.57769 6.72921 2.60824 6.77814 2.64762 6.81949C2.687 6.86083 2.73438 6.89374 2.78687 6.9162C2.83937 6.93866 2.89589 6.9502 2.95298 6.95013H17.0553C17.1127 6.95129 17.1697 6.94048 17.2227 6.9184C17.2757 6.89631 17.3235 6.86344 17.3631 6.82186C17.4027 6.78028 17.4332 6.73091 17.4527 6.67689C17.4722 6.62288 17.4802 6.5654 17.4762 6.50812C17.4768 5.57272 17.1071 4.67513 16.4478 4.01154C15.7886 3.34795 14.8934 2.97232 13.958 2.96676Z"/>
<path d="M16.666 8.20038H3.33302C3.11213 8.20093 2.90045 8.28893 2.74425 8.44512C2.58806 8.60131 2.50007 8.813 2.49951 9.03389V14.1665C2.49951 16.667 3.74978 18.334 6.666 18.334H10.7704C10.903 18.3348 11.0339 18.3037 11.152 18.2436C11.2702 18.1834 11.3723 18.0959 11.4498 17.9883C11.5272 17.8806 11.5778 17.756 11.5973 17.6249C11.6168 17.4937 11.6046 17.3598 11.5618 17.2343C11.3903 16.7855 11.2864 16.3138 11.2535 15.8346C11.256 14.6191 11.7403 13.4543 12.6002 12.5954C13.4601 11.7364 14.6255 11.2535 15.8409 11.2524C16.081 11.2506 16.3209 11.27 16.5576 11.3102C16.6749 11.3271 16.7945 11.3186 16.9082 11.2853C17.022 11.2521 17.1273 11.1948 17.217 11.1174C17.3068 11.0401 17.3789 10.9443 17.4285 10.8367C17.4782 10.7291 17.5042 10.6121 17.5048 10.4936V9.04231C17.5026 8.82023 17.4136 8.60782 17.2569 8.45049C17.1001 8.29316 16.8881 8.20339 16.666 8.20038V8.20038ZM7.67421 15.1758C7.51665 15.3313 7.30416 15.4185 7.08276 15.4185C6.86136 15.4185 6.64887 15.3313 6.4913 15.1758C6.33577 15.0182 6.24856 14.8057 6.24856 14.5843C6.24856 14.3629 6.33577 14.1504 6.4913 13.9928C6.5709 13.9177 6.66413 13.8584 6.76598 13.8181C6.91768 13.7542 7.08493 13.7367 7.24659 13.7678C7.40825 13.7989 7.55706 13.8772 7.67421 13.9928C7.82974 14.1504 7.91695 14.3629 7.91695 14.5843C7.91695 14.8057 7.82974 15.0182 7.67421 15.1758ZM7.67421 12.2595L7.54897 12.3648C7.50236 12.3963 7.45175 12.4214 7.39848 12.4395C7.35116 12.4638 7.30042 12.4809 7.24799 12.49C7.193 12.4993 7.13744 12.5049 7.08171 12.5068C6.97193 12.508 6.86304 12.4872 6.76141 12.4457C6.65977 12.4042 6.56744 12.3428 6.48982 12.2652C6.41219 12.1876 6.35084 12.0953 6.30935 11.9936C6.26786 11.892 6.24707 11.7831 6.2482 11.6733C6.25159 11.4527 6.33802 11.2415 6.49025 11.0819C6.58858 10.985 6.70921 10.9138 6.84153 10.8745C6.97385 10.8353 7.11379 10.8291 7.24904 10.8567C7.30147 10.8658 7.35221 10.8828 7.39953 10.9072C7.4528 10.9253 7.50341 10.9504 7.55003 10.9819L7.67526 11.0871C7.8308 11.2447 7.91801 11.4572 7.91801 11.6786C7.91801 11.9 7.8308 12.1125 7.67526 12.27L7.67421 12.2595ZM10.5904 12.2595C10.4739 12.3769 10.325 12.457 10.1627 12.4895C10.0005 12.522 9.83226 12.5055 9.67944 12.4421C9.52663 12.3786 9.39614 12.2712 9.30461 12.1333C9.21309 11.9955 9.16465 11.8335 9.16548 11.6681C9.16887 11.4475 9.2553 11.2363 9.40753 11.0766C9.56866 10.928 9.77981 10.8455 9.99899 10.8455C10.2182 10.8455 10.4293 10.928 10.5904 11.0766C10.746 11.2342 10.8332 11.4467 10.8332 11.6681C10.8332 11.8895 10.746 12.102 10.5904 12.2595Z"/>
<path d="M15.8375 12.3647C15.1506 12.3647 14.4791 12.5684 13.908 12.95C13.3369 13.3317 12.8917 13.8741 12.6289 14.5087C12.366 15.1433 12.2972 15.8416 12.4312 16.5152C12.5652 17.1889 12.896 17.8077 13.3817 18.2934C13.8674 18.7791 14.4862 19.1099 15.1599 19.2439C15.8336 19.3779 16.5319 19.3091 17.1665 19.0463C17.8011 18.7834 18.3435 18.3383 18.7251 17.7672C19.1067 17.196 19.3104 16.5246 19.3104 15.8377C19.3104 14.9166 18.9445 14.0333 18.2932 13.382C17.6419 12.7306 16.7585 12.3647 15.8375 12.3647V12.3647ZM17.3456 17.0743C17.3226 17.1136 17.2897 17.1462 17.2502 17.1687C17.2106 17.1912 17.1659 17.203 17.1203 17.2027C17.0737 17.2035 17.0278 17.1903 16.9888 17.1648L15.9132 16.5228C15.7758 16.4335 15.6619 16.3125 15.5809 16.1701C15.5 16.0276 15.4544 15.8678 15.4481 15.704V14.2801C15.4481 14.2111 15.4755 14.1448 15.5244 14.096C15.5732 14.0471 15.6395 14.0197 15.7085 14.0197C15.7776 14.0197 15.8439 14.0471 15.8927 14.096C15.9416 14.1448 15.969 14.2111 15.969 14.2801V15.704C15.9753 15.7775 15.9974 15.8486 16.0337 15.9128C16.07 15.9769 16.1198 16.0324 16.1795 16.0755L17.2551 16.7175C17.2848 16.7347 17.3108 16.7576 17.3315 16.7849C17.3522 16.8123 17.3672 16.8435 17.3756 16.8768C17.3841 16.91 17.3857 16.9447 17.3806 16.9786C17.3754 17.0125 17.3635 17.045 17.3456 17.0743Z"/>
</svg>
