<svg width="20" height="20" viewBox="0 0 20 20" fill="none" xmlns="http://www.w3.org/2000/svg">
<path d="M2.54221 15.9486V7.90874L1 8.22983V7.21521L2.68645 6.38039H3.918V15.9486H2.54221Z"/>
<path d="M7.50326 16C7.07426 16 6.70072 15.9144 6.38266 15.7431C6.06461 15.5633 5.82051 15.2979 5.65039 14.9469C5.48027 14.5872 5.3952 14.142 5.3952 13.6112V8.8463C5.3952 8.30688 5.48027 7.85737 5.65039 7.49776C5.82791 7.12959 6.0757 6.8556 6.39376 6.67579C6.71182 6.48742 7.08535 6.39324 7.51436 6.39324H9.18971C9.64831 6.39324 10.0255 6.4917 10.3214 6.68863C10.6247 6.88556 10.8503 7.16812 10.9982 7.53629C11.1461 7.8959 11.2201 8.33257 11.2201 8.8463V13.6112C11.2201 14.3989 11.0389 14.9939 10.6765 15.3964C10.314 15.7988 9.81474 16 9.17862 16H7.50326ZM7.82502 14.5616H8.82358C9.17862 14.5616 9.4375 14.4631 9.60023 14.2662C9.77036 14.0607 9.85542 13.7653 9.85542 13.38V9.00042C9.85542 8.58087 9.76666 8.2812 9.58914 8.10139C9.41901 7.91302 9.18232 7.81884 8.87905 7.81884H7.78064C7.46258 7.81884 7.21479 7.92159 7.03727 8.12708C6.85975 8.32401 6.77099 8.61512 6.77099 9.00042V13.38C6.77099 13.7824 6.86345 14.0821 7.04837 14.279C7.23329 14.4674 7.49217 14.5616 7.82502 14.5616Z"/>
<path d="M16.2026 10.0402C15.7736 10.0402 15.3742 10.0231 15.0043 9.98888C14.6419 9.95463 14.3016 9.90754 13.9836 9.8476V8.76877H15.8032C16.0251 8.76877 16.21 8.74736 16.3579 8.70455C16.5059 8.66174 16.6168 8.58896 16.6908 8.48621C16.7647 8.38347 16.8017 8.24647 16.8017 8.07523V7.79268C16.8017 7.62144 16.7647 7.48872 16.6908 7.39454C16.6168 7.29179 16.517 7.21901 16.3912 7.1762C16.2729 7.12483 16.1397 7.09486 15.9918 7.0863L14.5383 7.02208V5.98178L15.9363 5.89188C16.1878 5.87475 16.3838 5.82338 16.5244 5.73776C16.6649 5.65213 16.7352 5.5023 16.7352 5.28824V4.99285C16.7352 4.75311 16.6575 4.5733 16.5022 4.45343C16.3542 4.33356 16.1101 4.27362 15.7699 4.27362H14.1278V3.20763C14.4311 3.13914 14.7528 3.08776 15.0931 3.05351C15.4407 3.0107 15.818 2.99358 16.2248 3.00214C16.7574 3.0107 17.1716 3.16054 17.4674 3.45166C17.7707 3.73421 17.9223 4.15375 17.9223 4.71029V5.22403C17.9223 5.47233 17.8854 5.6821 17.8114 5.85335C17.7448 6.01603 17.6524 6.15302 17.534 6.26433C17.4231 6.36708 17.2936 6.44414 17.1457 6.49551C17.301 6.54688 17.4415 6.63678 17.5673 6.76522C17.7004 6.88509 17.804 7.03921 17.878 7.22757C17.9593 7.41594 18 7.64284 18 7.90827V8.26788C18 8.84154 17.841 9.2825 17.5229 9.59074C17.2049 9.89041 16.7647 10.0402 16.2026 10.0402Z"/>
</svg>
