<svg width="20" height="20" viewBox="0 0 20 20" fill="none" xmlns="http://www.w3.org/2000/svg">
<path d="M10.5005 13.9283V6.69721L9 6.9004V5.76494L10.6837 5H12.1956V13.9283H10.5005Z"/>
<path d="M16.5832 14C15.9724 14 15.3882 13.9761 14.8308 13.9283C14.281 13.8884 13.7847 13.8287 13.3418 13.749V12.3267H15.9418C16.2549 12.3267 16.5107 12.3028 16.7092 12.255C16.9078 12.2072 17.0528 12.1235 17.1445 12.004C17.2437 11.8845 17.2934 11.7171 17.2934 11.502V11.1315C17.2934 10.9163 17.2437 10.749 17.1445 10.6295C17.0452 10.502 16.9116 10.4104 16.7436 10.3546C16.5832 10.2908 16.3962 10.255 16.1824 10.247L14.0978 10.1633V8.8008L16.1136 8.68127C16.4572 8.66534 16.7245 8.60159 16.9154 8.49004C17.1063 8.37849 17.2017 8.18725 17.2017 7.91633V7.61753C17.2017 7.2988 17.0987 7.06375 16.8925 6.91235C16.694 6.76096 16.358 6.68526 15.8846 6.68526H13.5251V5.2749C13.9603 5.20319 14.4337 5.13944 14.9453 5.08367C15.4569 5.01992 15.9953 4.99602 16.5603 5.01195C17.0567 5.01992 17.4766 5.10757 17.8203 5.2749C18.1639 5.43426 18.4235 5.67729 18.5991 6.00398C18.7824 6.32271 18.874 6.72112 18.874 7.1992V7.85657C18.874 8.07968 18.8473 8.28287 18.7938 8.46614C18.748 8.6494 18.6755 8.80876 18.5762 8.94422C18.4769 9.07171 18.3624 9.18327 18.2326 9.27888C18.1028 9.36653 17.9653 9.43426 17.8203 9.48207C17.9806 9.52191 18.1295 9.59761 18.267 9.70916C18.412 9.82072 18.538 9.95617 18.6449 10.1155C18.7518 10.2669 18.8358 10.4502 18.8969 10.6653C18.9656 10.8805 19 11.1155 19 11.3705V11.8247C19 12.5339 18.7862 13.0757 18.3586 13.4502C17.931 13.8167 17.3392 14 16.5832 14Z"/>
<path d="M3.33307 13.1847C3.15512 13.1847 2.96399 13.1781 2.75969 13.165C2.56197 13.1584 2.35766 13.1452 2.14676 13.1254C1.94245 13.0991 1.74803 13.076 1.56349 13.0562C1.37896 13.0299 1.21419 13.0002 1.0692 12.9672V12.0083C1.25374 12.0215 1.46793 12.0347 1.71178 12.0479C1.96223 12.061 2.22255 12.0709 2.49277 12.0775C2.76298 12.0841 3.02331 12.0874 3.27375 12.0874C3.53737 12.0874 3.77134 12.0643 3.97565 12.0182C4.17996 11.9655 4.33813 11.8765 4.45017 11.7513C4.56221 11.6261 4.61823 11.4481 4.61823 11.2174V10.8714C4.61823 10.6144 4.54573 10.4167 4.40074 10.2783C4.25575 10.1399 4.04155 10.0707 3.75816 10.0707H3.07603C2.41039 10.0707 1.89632 9.92569 1.53384 9.6357C1.17795 9.34572 1 8.84813 1 8.14293V7.76727C1 7.06208 1.19442 6.5546 1.58327 6.24485C1.9787 5.9285 2.5422 5.77032 3.27375 5.77032C3.52419 5.77032 3.78123 5.78351 4.04485 5.80987C4.31506 5.82964 4.5721 5.856 4.81595 5.88895C5.0598 5.92191 5.2674 5.95816 5.43876 5.9977V6.95663C5.14877 6.93686 4.81595 6.91709 4.44029 6.89731C4.07121 6.87754 3.7285 6.86766 3.41215 6.86766C3.16171 6.86766 2.94093 6.89402 2.7498 6.94674C2.55867 6.99947 2.41368 7.09503 2.31482 7.23343C2.21596 7.36525 2.16653 7.56296 2.16653 7.82659V8.06385C2.16653 8.3736 2.24892 8.59109 2.41368 8.71632C2.58504 8.84154 2.82889 8.90415 3.14524 8.90415H3.90645C4.33484 8.90415 4.68743 8.98323 4.96424 9.14141C5.24104 9.29958 5.44535 9.51707 5.57716 9.79388C5.71556 10.0641 5.78476 10.3738 5.78476 10.7231V11.1878C5.78476 11.7282 5.67932 12.1434 5.46842 12.4334C5.25752 12.7234 4.96753 12.9211 4.59846 13.0266C4.22939 13.132 3.80759 13.1847 3.33307 13.1847Z"/>
<path d="M2.92841 4H4.14571L4.29752 6.28136H2.77661L2.92841 4Z"/>
<path d="M2.92841 14.6463H4.14571L4.29752 12.365H2.77661L2.92841 14.6463Z"/>
</svg>
