<svg width="20" height="20" viewBox="0 0 20 20" fill="none" xmlns="http://www.w3.org/2000/svg">
<path d="M5.68213 15L12.6831 4.00764H14.1787L7.2696 15H5.68213ZM5.09055 9.75927C4.8002 9.78859 4.50671 9.75863 4.22914 9.67133C3.95157 9.58404 3.69615 9.44137 3.47946 9.25259C3.13675 8.83616 2.96759 8.31123 3.00514 7.7807V5.99044C2.96894 5.461 3.13625 4.93727 3.47508 4.51939C3.69779 4.32794 3.95977 4.18388 4.24398 4.09659C4.52819 4.00929 4.82827 3.98071 5.12468 4.01271H6.6999C6.99139 3.9822 7.28627 4.01158 7.56515 4.09891C7.84404 4.18623 8.10061 4.32954 8.318 4.51939C8.65371 4.93845 8.81787 5.46208 8.77918 5.99044V7.77732C8.81635 8.30672 8.64997 8.83076 8.31187 9.24922C8.08916 9.44066 7.82718 9.58472 7.54297 9.67202C7.25876 9.75932 6.95868 9.78789 6.66227 9.75589L5.09055 9.75927ZM5.37059 8.31778H6.38223C6.51196 8.33263 6.64348 8.32091 6.76819 8.28337C6.8929 8.24582 7.00799 8.18331 7.10595 8.09991C7.24965 7.91147 7.31858 7.67957 7.30023 7.44629V6.32147C7.31605 6.19848 7.30633 6.07367 7.27162 5.95435C7.23691 5.83502 7.17792 5.72356 7.09808 5.62648C6.90036 5.48794 6.65695 5.42397 6.41373 5.44661H5.40035C5.16844 5.43447 4.93806 5.48946 4.73875 5.60452C4.57773 5.7098 4.49722 5.94765 4.49722 6.31809V7.4446C4.47852 7.6752 4.54011 7.90523 4.67225 8.09822C4.76421 8.18294 4.87467 8.2467 4.99551 8.28484C5.11636 8.32298 5.24452 8.33453 5.37059 8.31862V8.31778ZM13.2922 14.9552C13.003 14.9851 12.7106 14.9554 12.4342 14.8681C12.1578 14.7807 11.9038 14.6377 11.689 14.4486C11.35 14.0292 11.1836 13.5038 11.2216 12.9733V11.1864C11.1846 10.6582 11.3479 10.1351 11.6811 9.71452C11.902 9.52281 12.1626 9.37852 12.4456 9.29118C12.7286 9.20384 13.0276 9.17543 13.3228 9.20784H14.9103C15.2018 9.17733 15.4967 9.20671 15.7755 9.29403C16.0544 9.38136 16.311 9.52466 16.5284 9.71452C16.8662 10.1331 17.0322 10.6571 16.9948 11.1864V12.9733C17.0322 13.5026 16.8662 14.0266 16.5284 14.4452C16.3057 14.6366 16.0437 14.7807 15.7595 14.868C15.4753 14.9553 15.1752 14.9839 14.8788 14.9519L13.2922 14.9552ZM13.588 13.5137H14.5839C14.7161 13.5293 14.8502 13.518 14.9775 13.4804C15.1049 13.4429 15.2227 13.38 15.3233 13.2959C15.4668 13.1077 15.5358 12.8761 15.5176 12.6431V11.5174C15.5331 11.3946 15.5225 11.2699 15.4864 11.1512C15.4503 11.0324 15.3894 10.922 15.3076 10.8267C15.1065 10.6889 14.861 10.6251 14.6154 10.6468H13.6186C13.3843 10.6354 13.1516 10.6903 12.9491 10.8047C12.7829 10.91 12.6997 11.1478 12.6997 11.5183V12.6431C12.681 12.8737 12.7426 13.1037 12.8747 13.2967C12.9696 13.3816 13.0827 13.4452 13.206 13.4829C13.3293 13.5206 13.4598 13.5314 13.588 13.5146V13.5137Z"/>
</svg>
