<svg width="20" height="20" viewBox="0 0 20 20" fill="none" xmlns="http://www.w3.org/2000/svg">
<path d="M3.4 13.753V7.296L2 7.477V6.468L3.568 5.785H4.976V13.753H3.4ZM6.131 13.753V12.484L8.766 9.871C8.95484 9.69275 9.13 9.50054 9.29 9.296C9.41424 9.1342 9.51522 8.9558 9.59 8.766C9.65793 8.5872 9.69185 8.39727 9.69 8.206C9.69529 8.03257 9.65677 7.86061 9.578 7.706C9.49754 7.56447 9.37075 7.45499 9.219 7.396C8.99882 7.3159 8.76511 7.27955 8.531 7.289H6.312V6.052C6.65333 5.98534 7.032 5.92667 7.448 5.876C7.90984 5.81997 8.37478 5.79325 8.84 5.796C9.33825 5.77332 9.83537 5.86072 10.296 6.052C10.6257 6.20079 10.8922 6.46153 11.048 6.788C11.2066 7.15435 11.283 7.55097 11.272 7.95C11.276 8.27927 11.2274 8.60707 11.128 8.921C11.0288 9.21888 10.887 9.50081 10.707 9.758C10.5016 10.0494 10.267 10.3191 10.007 10.563L8.236 12.323H11.517V13.752L6.131 13.753ZM15.315 13.817C14.7463 13.817 14.204 13.7973 13.688 13.758C13.172 13.7187 12.708 13.6647 12.296 13.596V12.324H14.717C14.957 12.329 15.1967 12.3075 15.432 12.26C15.5899 12.2326 15.7344 12.1539 15.843 12.036C15.9389 11.9071 15.986 11.7484 15.976 11.588V11.257C15.9851 11.0943 15.9358 10.9336 15.837 10.804C15.739 10.6902 15.6118 10.6055 15.469 10.559C15.2985 10.5025 15.1206 10.4718 14.941 10.468L13 10.396V9.177L14.877 9.07C15.136 9.06967 15.3915 9.01015 15.624 8.896C15.7117 8.84503 15.7833 8.77028 15.8303 8.6804C15.8774 8.59051 15.8981 8.48915 15.89 8.388V8.121C15.8985 8.00162 15.8772 7.88199 15.8279 7.77289C15.7787 7.66379 15.7031 7.56864 15.608 7.496C15.3199 7.33773 14.9915 7.26815 14.664 7.296H12.467V6.03C12.8723 5.96334 13.3133 5.90467 13.79 5.854C14.2881 5.80016 14.7893 5.78078 15.29 5.796C15.6926 5.79102 16.0919 5.86897 16.463 6.025C16.7697 6.1588 17.0257 6.38683 17.194 6.676C17.3712 7.00478 17.4578 7.37474 17.445 7.748V8.335C17.4471 8.51865 17.4239 8.7017 17.376 8.879C17.3351 9.03167 17.2644 9.17474 17.168 9.3C17.0776 9.41603 16.9696 9.51725 16.848 9.6C16.7297 9.68063 16.6004 9.74362 16.464 9.787C16.6167 9.82358 16.7602 9.89171 16.885 9.987C17.018 10.0878 17.135 10.2082 17.232 10.344C17.3382 10.4968 17.4192 10.6656 17.472 10.844C17.5343 11.0478 17.565 11.2599 17.563 11.473V11.878C17.5803 12.1487 17.5353 12.4198 17.4312 12.6704C17.3272 12.9209 17.167 13.1442 16.963 13.323C16.4889 13.6764 15.9053 13.8513 15.315 13.817Z" />
</svg>
