<svg width="20" height="20" viewBox="0 0 20 20" fill="none" xmlns="http://www.w3.org/2000/svg">
<path d="M2.47031 13.9467V7.26933L1 7.536V6.69333L2.60782 6H3.78194V13.9467H2.47031Z"/>
<path d="M5.05276 13.9467V12.88L7.76066 10.2027C8.00042 9.968 8.19435 9.75111 8.34244 9.552C8.49052 9.35289 8.59983 9.15733 8.67035 8.96533C8.74086 8.76622 8.77612 8.54933 8.77612 8.31467C8.77612 8.10133 8.73381 7.91644 8.64919 7.76C8.57162 7.59644 8.43411 7.472 8.23666 7.38667C8.04626 7.30133 7.77829 7.25867 7.43275 7.25867H5.26432V6.224C5.59575 6.16711 5.96245 6.11733 6.3644 6.07467C6.77341 6.032 7.21767 6.01067 7.69719 6.01067C8.30365 6.01067 8.77965 6.096 9.12519 6.26667C9.47073 6.43022 9.71754 6.672 9.86563 6.992C10.0137 7.30489 10.0878 7.67822 10.0878 8.112C10.0878 8.46756 10.0384 8.79467 9.93967 9.09333C9.848 9.392 9.70344 9.68 9.50599 9.95733C9.31559 10.2276 9.0723 10.5084 8.77612 10.8L6.79809 12.752H10.3416V13.9467H5.05276Z"/>
<path d="M11.5672 13.9573C11.4333 13.9573 11.3663 13.8933 11.3663 13.7653V12.752C11.3663 12.6169 11.4333 12.5493 11.5672 12.5493H12.3183C12.4522 12.5493 12.5192 12.6169 12.5192 12.752V13.7653C12.5192 13.8364 12.4981 13.8862 12.4558 13.9147C12.4205 13.9431 12.3747 13.9573 12.3183 13.9573H11.5672Z"/>
<path d="M16.1123 14C15.7879 14 15.4494 13.9858 15.0968 13.9573C14.7442 13.9289 14.4234 13.8933 14.1342 13.8507V12.816H16.0065C16.5636 12.816 16.9832 12.6276 17.2653 12.2507C17.5473 11.8667 17.6884 11.2978 17.6884 10.544C17.5121 10.5796 17.3181 10.6116 17.1066 10.64C16.895 10.6684 16.6764 10.6862 16.4508 10.6933C16.2322 10.7004 16.01 10.704 15.7844 10.704C15.2837 10.704 14.8782 10.64 14.5679 10.512C14.2576 10.3769 14.0285 10.1778 13.8804 9.91467C13.7393 9.65156 13.6688 9.328 13.6688 8.944V7.824C13.6688 7.39022 13.7499 7.04178 13.9121 6.77867C14.0814 6.51556 14.307 6.32356 14.5891 6.20267C14.8782 6.08178 15.2026 6.02133 15.5622 6.02133H16.7258C17.0854 6.02133 17.4063 6.08178 17.6884 6.20267C17.9704 6.31644 18.2067 6.51911 18.3971 6.81067C18.5945 7.09511 18.7426 7.49333 18.8413 8.00533C18.9471 8.51022 19 9.15378 19 9.936C19 10.6827 18.933 11.3156 18.799 11.8347C18.6721 12.3538 18.4817 12.7733 18.2278 13.0933C17.981 13.4133 17.6778 13.6444 17.3181 13.7867C16.9655 13.9289 16.5636 14 16.1123 14ZM16.1334 9.57333H17.6884C17.6884 9.104 17.6637 8.71644 17.6143 8.41067C17.565 8.09778 17.4874 7.856 17.3816 7.68533C17.2829 7.50756 17.1559 7.38311 17.0008 7.312C16.8527 7.24089 16.6764 7.20533 16.4719 7.20533H15.8478C15.6786 7.20533 15.527 7.23378 15.393 7.29067C15.2661 7.34044 15.1638 7.42933 15.0862 7.55733C15.0157 7.67822 14.9805 7.85244 14.9805 8.08V8.70933C14.9805 8.944 15.0228 9.12533 15.1074 9.25333C15.1991 9.37422 15.3295 9.45956 15.4988 9.50933C15.668 9.552 15.8796 9.57333 16.1334 9.57333Z"/>
</svg>
