<svg width="20" height="20" viewBox="0 0 20 20" fill="none" xmlns="http://www.w3.org/2000/svg">
<path d="M9.99995 1.66632C8.3517 1.66632 6.74047 2.15508 5.37 3.0708C3.99953 3.98652 2.93138 5.28806 2.30063 6.81084C1.66987 8.33362 1.50484 10.0092 1.82639 11.6258C2.14795 13.2424 2.94166 14.7273 4.10714 15.8928C5.27263 17.0583 6.75755 17.852 8.37413 18.1736C9.9907 18.4951 11.6663 18.3301 13.1891 17.6993C14.7119 17.0686 16.0134 16.0004 16.9292 14.63C17.8449 13.2595 18.3336 11.6483 18.3336 10C18.33 7.79089 17.4508 5.67328 15.8888 4.1112C14.3267 2.54911 12.2091 1.66994 9.99995 1.66632ZM13.6242 12.9747C13.5689 13.0693 13.4897 13.1476 13.3945 13.2018C13.2994 13.256 13.1916 13.284 13.0821 13.2832C12.97 13.2851 12.8599 13.2531 12.7663 13.1916L10.1831 11.6495C9.85314 11.4351 9.57947 11.1446 9.38512 10.8024C9.19077 10.4602 9.08142 10.0764 9.06626 9.68316V6.26632C9.06626 6.10049 9.13214 5.94145 9.2494 5.82419C9.36666 5.70693 9.5257 5.64106 9.69153 5.64106C9.85736 5.64106 10.0164 5.70693 10.1337 5.82419C10.2509 5.94145 10.3168 6.10049 10.3168 6.26632V9.68316C10.3324 9.85959 10.386 10.0306 10.4737 10.1844C10.5614 10.3383 10.6813 10.4714 10.8252 10.5747L13.4084 12.1168C13.4797 12.1582 13.5421 12.2134 13.5918 12.2792C13.6414 12.3451 13.6774 12.4202 13.6975 12.5002C13.7176 12.5802 13.7215 12.6634 13.7089 12.7449C13.6963 12.8264 13.6675 12.9046 13.6242 12.9747Z"/>
</svg>
