<svg width="20" height="20" viewBox="0 0 20 20" fill="none" xmlns="http://www.w3.org/2000/svg">
<path d="M10.068 15.078C9.834 15.078 9.58267 15.0693 9.314 15.052C9.054 15.0433 8.78533 15.026 8.508 15C8.23933 14.9653 7.98367 14.935 7.741 14.909C7.49833 14.8743 7.28167 14.8353 7.091 14.792V13.531C7.33367 13.5483 7.61533 13.5657 7.936 13.583C8.26533 13.6003 8.60767 13.6133 8.963 13.622C9.31833 13.6307 9.66067 13.635 9.99 13.635C10.3367 13.635 10.6443 13.6047 10.913 13.544C11.1817 13.4747 11.3897 13.3577 11.537 13.193C11.6843 13.0283 11.758 12.7943 11.758 12.491V12.036C11.758 11.698 11.6627 11.438 11.472 11.256C11.2813 11.074 10.9997 10.983 10.627 10.983H9.73C8.85467 10.983 8.17867 10.7923 7.702 10.411C7.234 10.0297 7 9.37534 7 8.448V7.954C7 7.02667 7.25567 6.35934 7.767 5.952C8.287 5.536 9.028 5.328 9.99 5.328C10.3193 5.328 10.6573 5.34534 11.004 5.38C11.3593 5.406 11.6973 5.44067 12.018 5.484C12.3387 5.52734 12.6117 5.575 12.837 5.627V6.888C12.4557 6.862 12.018 6.836 11.524 6.81C11.0387 6.784 10.588 6.771 10.172 6.771C9.84267 6.771 9.55233 6.80567 9.301 6.875C9.04967 6.94434 8.859 7.07 8.729 7.252C8.599 7.42534 8.534 7.68534 8.534 8.032V8.344C8.534 8.75134 8.64233 9.03734 8.859 9.202C9.08433 9.36667 9.405 9.449 9.821 9.449H10.822C11.3853 9.449 11.849 9.553 12.213 9.761C12.577 9.969 12.8457 10.255 13.019 10.619C13.201 10.9743 13.292 11.3817 13.292 11.841V12.452C13.292 13.1627 13.1533 13.7087 12.876 14.09C12.5987 14.4713 12.2173 14.7313 11.732 14.87C11.2467 15.0087 10.692 15.078 10.068 15.078Z"/>
<path d="M9.53654 3H11.1373L11.3369 6H9.33691L9.53654 3Z"/>
<path d="M9.53654 17H11.1373L11.3369 14H9.33691L9.53654 17Z"/>
</svg>
