<svg width="20" height="20" viewBox="0 0 20 20" fill="none" xmlns="http://www.w3.org/2000/svg">
<path d="M1.36298 17.215H1.7524V16.6369C2.64077 16.5656 3.12755 15.8876 3.12755 15.1597C3.12755 14.1035 2.38522 13.9108 1.7524 13.7181V12.3693C1.98971 12.455 2.13574 12.669 2.16008 12.9474H3.07888C3.02411 12.0981 2.513 11.62 1.7524 11.5486V10.9706H1.36298V11.5486C0.571965 11.62 0 12.1695 0 13.0116C0 14.0678 0.736253 14.2748 1.36298 14.4603V15.8234C1.08308 15.752 0.937049 15.5308 0.91271 15.2025H0C0.0182542 16.0589 0.57805 16.5513 1.36298 16.6298V17.215ZM2.24527 15.2025C2.24527 15.5236 2.06273 15.7734 1.7524 15.8376V14.5888C2.03839 14.7029 2.24527 14.8671 2.24527 15.2025ZM0.888371 12.9616C0.888371 12.5977 1.08308 12.3979 1.36298 12.3479V13.5825C1.08308 13.4683 0.888371 13.2971 0.888371 12.9616Z"/>
<path d="M6.40903 18V17.9001C5.57542 16.8938 5.13124 15.4808 5.13124 14.0535C5.13124 12.6262 5.57542 11.1204 6.5003 10.0928V10H5.64235C4.75398 10.9349 4.3098 12.4692 4.3098 14.0535C4.3098 15.6307 4.75398 17.1008 5.55108 18H6.40903Z"/>
<path d="M7.42124 16.5941H8.29744V11.3916H6.83102V12.3122H7.42124V16.5941Z"/>
<path d="M9.09031 16.5227H12.0962V15.6949H10.3012C11.007 14.9955 11.9988 14.0535 11.9988 12.8475C11.9988 11.9411 11.5181 11.2774 10.5628 11.2774C9.76571 11.2774 9.11465 11.8269 9.08422 13.0187H9.91175C9.91783 12.4692 10.143 12.1267 10.5506 12.1267C10.9705 12.1267 11.1469 12.4407 11.1469 12.9045C11.1469 13.8608 10.0943 14.7814 9.09031 15.7806V16.5227Z"/>
<path d="M13.6248 16.0589C13.6248 15.7306 13.4057 15.4737 13.1076 15.4737C12.7972 15.4737 12.5782 15.7306 12.5782 16.0589C12.5782 16.3872 12.7972 16.6441 13.1076 16.6441C13.4057 16.6441 13.6248 16.3872 13.6248 16.0589Z"/>
<path d="M14.4083 15.1311C14.4569 15.8947 14.9072 16.6012 15.8504 16.6012C17.0247 16.6012 17.3594 15.645 17.3594 13.8751C17.3594 12.2266 16.9882 11.2703 15.7834 11.2703C14.8464 11.2703 14.2866 11.9554 14.2866 12.9973C14.2866 14.0963 14.9011 14.6601 15.6678 14.6601C16.0572 14.6601 16.4162 14.4817 16.6049 14.1748C16.6049 15.3452 16.3858 15.7806 15.8869 15.7806C15.4914 15.7806 15.2662 15.545 15.1993 15.1311H14.4083ZM15.8443 13.8466C15.3271 13.8466 15.1019 13.4612 15.1019 12.9902C15.1019 12.4692 15.3697 12.1195 15.8138 12.1195C16.2459 12.1195 16.5258 12.4335 16.5258 13.0045C16.5258 13.5112 16.2702 13.8466 15.8443 13.8466Z"/>
<path d="M17.9008 18V17.9001C18.7344 16.8938 19.1786 15.4808 19.1786 14.0535C19.1786 12.6262 18.7344 11.1204 17.8095 10.0928V10H18.6674C19.5558 10.9349 20 12.4692 20 14.0535C20 15.6307 19.5558 17.1008 18.7587 18H17.9008Z"/>
<path d="M3.58293 4.86853H6.33678V4.23108H3.58293V4.86853Z"/>
<path d="M7.8441 6.95352H8.61464V2.11288H7.22097V2.80345H7.8441V6.95352Z"/>
<path d="M9.60368 6.88712H12.8601V6.25631H10.736C11.52 5.54582 12.7261 4.6494 12.7261 3.4741C12.7261 2.60425 12.1632 2.01328 11.1716 2.01328C10.3072 2.01328 9.62378 2.52457 9.59698 3.57371H10.334C10.3541 3.02922 10.6422 2.65737 11.1783 2.65737C11.7478 2.65737 11.9689 3.00266 11.9689 3.5073C11.9689 4.45684 10.7561 5.33333 9.60368 6.33599V6.88712Z"/>
<path d="M14.4222 6.51527C14.4222 6.24303 14.2078 6.03054 13.9398 6.03054C13.6651 6.03054 13.4507 6.24303 13.4507 6.51527C13.4507 6.78752 13.6651 7 13.9398 7C14.2078 7 14.4222 6.78752 14.4222 6.51527Z"/>
<path d="M15.3952 5.63878C15.4555 6.32935 15.9245 6.94688 16.9363 6.94688C18.2161 6.94688 18.5645 6.07702 18.5645 4.44356C18.5645 2.85657 18.1424 2 16.8827 2C15.8575 2 15.2612 2.63745 15.2612 3.60027C15.2612 4.62284 15.958 5.14741 16.8157 5.14741C17.2579 5.14741 17.68 4.98141 17.9011 4.67596C17.9011 5.91102 17.5929 6.31607 16.9832 6.31607C16.474 6.31607 16.1858 6.07038 16.0987 5.63878H15.3952ZM16.9497 4.50996C16.273 4.50996 15.9915 4.07835 15.9915 3.58035C15.9915 3.02258 16.3333 2.63081 16.9028 2.63081C17.4589 2.63081 17.814 2.98274 17.814 3.60027C17.814 4.14475 17.4924 4.50996 16.9497 4.50996Z"/>
<path d="M3 4.76228H19V5.09429H3V4.76228Z"/>
</svg>
