<svg width="20" height="20" viewBox="0 0 20 20" fill="none" xmlns="http://www.w3.org/2000/svg">
<path d="M2.67585 18V17.8876C1.61327 16.7556 1.04707 15.1659 1.04707 13.5602C1.04707 11.9545 1.61327 10.2605 2.79219 9.10437V9H1.69858C0.566195 10.0517 0 11.7779 0 13.5602C0 15.3345 0.566195 16.9884 1.58224 18H2.67585Z"/>
<path d="M3.96609 16.4184H5.08297V10.5656H3.21375V11.6012H3.96609V16.4184Z"/>
<path d="M6.09362 16.3381H9.92514V15.4068H7.63709C8.53679 14.62 9.80104 13.5602 9.80104 12.2034C9.80104 11.1838 9.18831 10.4371 7.9706 10.4371C6.95455 10.4371 6.12465 11.0553 6.08587 12.3961H7.1407C7.14845 11.7779 7.43543 11.3925 7.95509 11.3925C8.49026 11.3925 8.71519 11.7458 8.71519 12.2676C8.71519 13.3434 7.37338 14.3791 6.09362 15.5031V16.3381Z"/>
<path d="M11.8736 15.8162C11.8736 15.4469 11.5944 15.1579 11.2143 15.1579C10.8188 15.1579 10.5396 15.4469 10.5396 15.8162C10.5396 16.1855 10.8188 16.4746 11.2143 16.4746C11.5944 16.4746 11.8736 16.1855 11.8736 15.8162Z"/>
<path d="M12.8723 14.7725C12.9344 15.6316 13.5083 16.4264 14.7105 16.4264C16.2075 16.4264 16.634 15.3506 16.634 13.3595C16.634 11.5049 16.1609 10.4291 14.6252 10.4291C13.4308 10.4291 12.7172 11.1998 12.7172 12.372C12.7172 13.6084 13.5006 14.2426 14.4778 14.2426C14.9742 14.2426 15.4318 14.0419 15.6723 13.6967C15.6723 15.0134 15.3931 15.5031 14.7571 15.5031C14.2529 15.5031 13.9659 15.2382 13.8806 14.7725H12.8723ZM14.7028 13.3274C14.0435 13.3274 13.7565 12.8938 13.7565 12.364C13.7565 11.7779 14.0978 11.3845 14.664 11.3845C15.2147 11.3845 15.5715 11.7377 15.5715 12.38C15.5715 12.95 15.2457 13.3274 14.7028 13.3274Z"/>
<path d="M17.3241 18V17.8876C18.3867 16.7556 18.9529 15.1659 18.9529 13.5602C18.9529 11.9545 18.3867 10.2605 17.2078 9.10437V9H18.3014C19.4338 10.0517 20 11.7779 20 13.5602C20 15.3345 19.4338 16.9884 18.4178 18H17.3241Z"/>
<path d="M2.58293 4.86853H5.33678V4.23108H2.58293V4.86853Z"/>
<path d="M6.8441 6.95352H7.61464V2.11288H6.22097V2.80345H6.8441V6.95352Z"/>
<path d="M8.60368 6.88712H11.8601V6.25631H9.73604C10.52 5.54582 11.7261 4.6494 11.7261 3.4741C11.7261 2.60425 11.1632 2.01328 10.1716 2.01328C9.30722 2.01328 8.62378 2.52457 8.59698 3.57371H9.33402C9.35412 3.02922 9.64224 2.65737 10.1783 2.65737C10.7478 2.65737 10.9689 3.00266 10.9689 3.5073C10.9689 4.45684 9.75614 5.33333 8.60368 6.33599V6.88712Z"/>
<path d="M13.4222 6.51527C13.4222 6.24303 13.2078 6.03054 12.9398 6.03054C12.6651 6.03054 12.4507 6.24303 12.4507 6.51527C12.4507 6.78752 12.6651 7 12.9398 7C13.2078 7 13.4222 6.78752 13.4222 6.51527Z"/>
<path d="M14.3952 5.63878C14.4555 6.32935 14.9245 6.94688 15.9363 6.94688C17.2161 6.94688 17.5645 6.07702 17.5645 4.44356C17.5645 2.85657 17.1424 2 15.8827 2C14.8575 2 14.2612 2.63745 14.2612 3.60027C14.2612 4.62284 14.958 5.14741 15.8157 5.14741C16.2579 5.14741 16.68 4.98141 16.9011 4.67596C16.9011 5.91102 16.5929 6.31607 15.9832 6.31607C15.474 6.31607 15.1858 6.07038 15.0987 5.63878H14.3952ZM15.9497 4.50996C15.273 4.50996 14.9915 4.07835 14.9915 3.58035C14.9915 3.02258 15.3333 2.63081 15.9028 2.63081C16.4589 2.63081 16.814 2.98274 16.814 3.60027C16.814 4.14475 16.4924 4.50996 15.9497 4.50996Z"/>
<path d="M2 4.76228H18V5.09429H2V4.76228Z"/>
</svg>
