<svg width="20" height="20" viewBox="0 0 20 20" fill="none" xmlns="http://www.w3.org/2000/svg">
<path d="M9.99967 9.67618C11.8515 9.67618 13.4256 9.33843 14.7219 8.66292C16.0182 7.9874 16.6663 7.17535 16.6663 6.22676C16.6663 5.27817 16.0182 4.46612 14.7219 3.79061C13.4256 3.1151 11.8515 2.77734 9.99967 2.77734C8.14782 2.77734 6.57375 3.1151 5.27745 3.79061C3.98116 4.46612 3.33301 5.27817 3.33301 6.22676C3.33301 7.17535 3.98116 7.9874 5.27745 8.66292C6.57375 9.33843 8.14782 9.67618 9.99967 9.67618ZM9.99967 11.3686C10.5058 11.3686 11.1386 11.3075 11.8978 11.1853C12.6571 11.0631 13.3886 10.8655 14.0923 10.5924C14.796 10.3194 15.4009 9.96363 15.9071 9.52527C16.4133 9.08691 16.6663 8.55153 16.6663 7.91913V10.075C16.6663 10.7074 16.4133 11.2428 15.9071 11.6812C15.4009 12.1195 14.796 12.4752 14.0923 12.7483C13.3886 13.0214 12.6571 13.219 11.8978 13.3412C11.1386 13.4634 10.5058 13.5244 9.99967 13.5244C9.4935 13.5244 8.86079 13.4634 8.10153 13.3412C7.34227 13.219 6.61079 13.0214 5.90708 12.7483C5.20338 12.4752 4.59844 12.1195 4.09227 11.6812C3.58609 11.2428 3.33301 10.7074 3.33301 10.075V7.91913C3.33301 8.55153 3.58609 9.08691 4.09227 9.52527C4.59844 9.96363 5.20338 10.3194 5.90708 10.5924C6.61079 10.8655 7.34227 11.0631 8.10153 11.1853C8.86079 11.3075 9.4935 11.3686 9.99967 11.3686ZM9.99967 15.0659C10.5058 15.0659 11.1386 15.0048 11.8978 14.8827C12.6571 14.7605 13.3886 14.5629 14.0923 14.2898C14.796 14.0167 15.4009 13.661 15.9071 13.2226C16.4133 12.7843 16.6663 12.2489 16.6663 11.6165V13.7724C16.6663 14.4048 16.4133 14.9401 15.9071 15.3785C15.4009 15.8169 14.796 16.1726 14.0923 16.4457C13.3886 16.7187 12.6571 16.9164 11.8978 17.0385C11.1386 17.1607 10.5058 17.2218 9.99967 17.2218C9.4935 17.2218 8.86079 17.1607 8.10153 17.0385C7.34227 16.9164 6.61079 16.7187 5.90708 16.4457C5.20338 16.1726 4.59844 15.8169 4.09227 15.3785C3.58609 14.9401 3.33301 14.4048 3.33301 13.7724V11.6165C3.33301 12.2489 3.58609 12.7843 4.09227 13.2226C4.59844 13.661 5.20338 14.0167 5.90708 14.2898C6.61079 14.5629 7.34227 14.7605 8.10153 14.8827C8.86079 15.0048 9.4935 15.0659 9.99967 15.0659Z" fill="#A7B0B5"/>
</svg>
