<svg width="16" height="17" viewBox="0 0 16 17" fill="none" xmlns="http://www.w3.org/2000/svg">
<path fill-rule="evenodd" clip-rule="evenodd" d="M6.74037 5.96523H12.7604V7.78525H6.74037V5.96523ZM13.6004 8.62526V7.78525V5.96523V4.60523V3.16523C13.6004 2.85595 13.3497 2.60522 13.0404 2.60522H11.6004H4.40039H2.96039C2.65111 2.60522 2.40039 2.85595 2.40039 3.16523V4.60522V5.96523V7.78525V8.62526V10.5852V11.4252V13.8347C2.40039 14.144 2.65111 14.3947 2.96039 14.3947H13.0404C13.3497 14.3947 13.6004 14.144 13.6004 13.8347V11.4252V10.5852V8.62526ZM12.7604 10.5852V8.62526H6.74037V10.5852H12.7604ZM5.90037 10.5852V8.62526H3.24039V10.5852H5.90037ZM3.24039 11.4252H5.90037V13.5547H3.24039V11.4252ZM6.74037 11.4252H12.7604V13.5547H6.74037V11.4252ZM3.24039 7.78525H5.90037V5.96523H3.24039V7.78525Z" fill="#9E1C53"/>
<rect opacity="0.15" x="2.40039" y="8.5" width="11.2" height="2.4" fill="#9E1C53"/>
</svg>
