<svg width="20" height="20" viewBox="0 0 20 20" fill="none" xmlns="http://www.w3.org/2000/svg">
<path fill-rule="evenodd" clip-rule="evenodd" d="M5.8793 4.90142C6.09535 4.67413 6.3577 4.56049 6.66634 4.56049C6.97498 4.56049 7.23733 4.67413 7.45338 4.90142C7.66943 5.12871 7.77745 5.4047 7.77745 5.7294C7.77745 6.0541 7.66943 6.33009 7.45338 6.55738C7.23733 6.78467 6.97498 6.89831 6.66634 6.89831C6.3577 6.89831 6.09535 6.78467 5.8793 6.55738C5.66325 6.33009 5.55523 6.0541 5.55523 5.7294C5.55523 5.4047 5.66325 5.12871 5.8793 4.90142ZM5.8793 13.4435C6.09535 13.2162 6.3577 13.1026 6.66634 13.1026C6.97498 13.1026 7.23733 13.2162 7.45338 13.4435C7.66943 13.6708 7.77745 13.9468 7.77745 14.2715C7.77745 14.5962 7.66943 14.8722 7.45338 15.0995C7.23733 15.3267 6.97498 15.4404 6.66634 15.4404C6.3577 15.4404 6.09535 15.3267 5.8793 15.0995C5.66325 14.8722 5.55523 14.5962 5.55523 14.2715C5.55523 13.9468 5.66325 13.6708 5.8793 13.4435ZM15.9256 2.22266H4.07375C3.86387 2.22266 3.68795 2.29734 3.54597 2.4467C3.404 2.59606 3.33301 2.78114 3.33301 3.00193V8.45687C3.33301 8.67766 3.404 8.86274 3.54597 9.0121C3.68795 9.16146 3.86387 9.23614 4.07375 9.23614H15.9256C16.1355 9.23614 16.3114 9.16146 16.4534 9.0121C16.5954 8.86274 16.6663 8.67766 16.6663 8.45687V3.00193C16.6663 2.78114 16.5954 2.59606 16.4534 2.4467C16.3114 2.29734 16.1355 2.22266 15.9256 2.22266ZM15.9256 10.7647H4.07375C3.86387 10.7647 3.68795 10.8394 3.54597 10.9888C3.404 11.1381 3.33301 11.3232 3.33301 11.544V16.9989C3.33301 17.2197 3.404 17.4048 3.54597 17.5542C3.68795 17.7035 3.86387 17.7782 4.07375 17.7782H12.278C11.5577 17.0724 11.1108 16.0886 11.1108 15.0004C11.1108 12.8527 12.8519 11.1115 14.9997 11.1115C15.5954 11.1115 16.1599 11.2455 16.6646 11.485C16.6529 11.29 16.5825 11.1246 16.4534 10.9888C16.3114 10.8394 16.1355 10.7647 15.9256 10.7647Z" fill="#6D777E"/>
<circle cx="15.0004" cy="15.0004" r="2.77778" fill="#EA4821"/>
</svg>
