<svg width="20" height="20" viewBox="0 0 20 20" fill="none" xmlns="http://www.w3.org/2000/svg">
<path d="M6.66634 4.56049C6.3577 4.56049 6.09535 4.67413 5.8793 4.90142C5.66325 5.12871 5.55523 5.4047 5.55523 5.7294C5.55523 6.0541 5.66325 6.33009 5.8793 6.55738C6.09535 6.78467 6.3577 6.89831 6.66634 6.89831C6.97498 6.89831 7.23733 6.78467 7.45338 6.55738C7.66943 6.33009 7.77745 6.0541 7.77745 5.7294C7.77745 5.4047 7.66943 5.12871 7.45338 4.90142C7.23733 4.67413 6.97498 4.56049 6.66634 4.56049ZM6.66634 13.1026C6.3577 13.1026 6.09535 13.2162 5.8793 13.4435C5.66326 13.6708 5.55523 13.9468 5.55523 14.2715C5.55523 14.5962 5.66326 14.8722 5.8793 15.0995C6.09535 15.3267 6.3577 15.4404 6.66634 15.4404C6.97498 15.4404 7.23733 15.3267 7.45338 15.0995C7.66943 14.8722 7.77745 14.5962 7.77745 14.2715C7.77745 13.9468 7.66943 13.6708 7.45338 13.4435C7.23733 13.2162 6.97498 13.1026 6.66634 13.1026ZM4.07375 2.22266H15.9256C16.1355 2.22266 16.3114 2.29734 16.4534 2.4467C16.5954 2.59606 16.6663 2.78114 16.6663 3.00193V8.45687C16.6663 8.67766 16.5954 8.86274 16.4534 9.0121C16.3114 9.16146 16.1355 9.23614 15.9256 9.23614H4.07375C3.86387 9.23614 3.68795 9.16146 3.54597 9.0121C3.404 8.86274 3.33301 8.67766 3.33301 8.45687V3.00193C3.33301 2.78114 3.404 2.59606 3.54597 2.4467C3.68795 2.29734 3.86387 2.22266 4.07375 2.22266ZM4.07375 10.7647H15.9256C16.1355 10.7647 16.3114 10.8394 16.4534 10.9888C16.5954 11.1381 16.6663 11.3232 16.6663 11.544V16.9989C16.6663 17.2197 16.5954 17.4048 16.4534 17.5542C16.3114 17.7035 16.1355 17.7782 15.9256 17.7782H4.07375C3.86387 17.7782 3.68795 17.7035 3.54597 17.5542C3.404 17.4048 3.33301 17.2197 3.33301 16.9989V11.544C3.33301 11.3232 3.404 11.1381 3.54597 10.9888C3.68795 10.8394 3.86387 10.7647 4.07375 10.7647Z" fill="#A7B0B5"/>
</svg>
