<svg width="20" height="20" viewBox="0 0 20 20" fill="none" xmlns="http://www.w3.org/2000/svg">
<path d="M9.30545 15.0551H10.6943V12.0398L11.8054 13.1954L12.7777 12.1662L9.99989 9.27734L7.22211 12.1662L8.2117 13.1773L9.30545 12.0398V15.0551ZM5.83322 17.2218C5.45128 17.2218 5.12431 17.0804 4.85232 16.7975C4.58033 16.5146 4.44434 16.1746 4.44434 15.7773V4.22179C4.44434 3.82457 4.58033 3.48452 4.85232 3.20165C5.12431 2.91878 5.45128 2.77734 5.83322 2.77734H11.3888L15.5554 7.11068V15.7773C15.5554 16.1746 15.4195 16.5146 15.1475 16.7975C14.8755 17.0804 14.5485 17.2218 14.1666 17.2218H5.83322ZM10.6943 7.8329V4.22179H5.83322V15.7773H14.1666V7.8329H10.6943Z" fill="#A7B0B5"/>
</svg>
