<svg width="20" height="20" viewBox="0 0 20 20" fill="none" xmlns="http://www.w3.org/2000/svg">
<path d="M14.7135 13.1422L6.85722 5.28593C6.42316 4.85187 5.71953 4.85176 5.28561 5.28567C4.8517 5.71959 4.85181 6.42322 5.28587 6.85728L13.1421 14.7135C13.5762 15.1476 14.2798 15.1477 14.7137 14.7138C15.1476 14.2798 15.1475 13.5762 14.7135 13.1422Z" fill="#6D777E"/>
<path d="M13.1422 5.28557L5.28593 13.1418C4.85187 13.5759 4.85176 14.2795 5.28567 14.7134C5.71959 15.1473 6.42322 15.1472 6.85727 14.7132L14.7135 6.85692C15.1476 6.42286 15.1477 5.71923 14.7138 5.28532C14.2798 4.8514 13.5762 4.85152 13.1422 5.28557Z" fill="#6D777E"/>
</svg>
