<svg width="37" height="18" viewBox="0 0 37 18" fill="none" xmlns="http://www.w3.org/2000/svg">
  <path
    d="M8.11283 15.1223C7.85677 15.1131 7.60681 15.0388 7.38753 14.9062C7.16826 14.7737 6.98691 14.5873 6.8598 14.3648C6.77647 14.1151 6.75418 13.8491 6.79486 13.589C6.83554 13.3288 6.93799 13.0819 7.09359 12.8695L8.49359 11.4233C8.55948 11.3423 8.63036 11.2658 8.70619 11.194L8.79847 11.1055L9.25511 10.6338V10.6758L11.0748 8.96069H11.0817L9.20316 7.19258V7.25991L7.10316 5.12778C6.94767 4.91532 6.8451 4.66843 6.80443 4.4083C6.76375 4.14818 6.78616 3.88221 6.86937 3.63242C6.99648 3.40996 7.17852 3.22356 7.39779 3.09102C7.61706 2.95847 7.86634 2.88415 8.1224 2.875H15.7342C15.9743 2.87884 16.208 2.95241 16.4069 3.08691C16.6058 3.22142 16.761 3.41105 16.8539 3.63242C16.9184 3.90053 16.9267 4.17919 16.8786 4.45068C16.8304 4.72218 16.7271 4.98059 16.5744 5.21016L15.2174 6.55547C15.1642 6.61567 15.1094 6.67313 15.052 6.72773L14.8661 6.9041L14.5078 7.25991V7.24453L12.6874 8.9624L14.5078 10.6745V10.6365L14.9501 11.0945L15.0595 11.1967C15.1378 11.2708 15.2105 11.3502 15.2776 11.4346L16.5839 12.7898C16.7367 13.0194 16.8406 13.2782 16.8888 13.5497C16.937 13.8212 16.9287 14.0995 16.8642 14.3676C16.7712 14.589 16.6153 14.7786 16.4164 14.9131C16.2175 15.0476 15.9839 15.1212 15.7438 15.125L8.11283 15.1223ZM10.4042 12.2843C10.4024 12.3382 10.4111 12.3922 10.4302 12.4426C10.4493 12.493 10.4785 12.5392 10.5157 12.5783C10.5528 12.6174 10.5975 12.6485 10.6469 12.6702C10.6963 12.6919 10.7495 12.7035 10.8035 12.7044H12.9411C13.0495 12.7011 13.1521 12.6552 13.2268 12.5766C13.3015 12.4979 13.3425 12.3928 13.3403 12.2843C13.3419 12.2305 13.3328 12.1771 13.3136 12.1268C13.2944 12.0764 13.2653 12.0301 13.2282 11.9911C13.1911 11.952 13.1469 11.9209 13.0976 11.8991C13.0483 11.8774 12.9949 11.8657 12.9411 11.8646H10.8035C10.6949 11.8675 10.5918 11.9134 10.517 11.9921C10.4422 12.0708 10.4016 12.1758 10.4042 12.2843ZM10.4042 5.64287C10.4026 5.69672 10.4117 5.75044 10.4309 5.80078C10.4501 5.85112 10.4792 5.89707 10.5163 5.93613C10.5535 5.97519 10.5976 6.00632 10.6469 6.02808C10.6962 6.04983 10.7496 6.06185 10.8035 6.06294H12.9397C13.0481 6.05964 13.1507 6.01342 13.2254 5.93477C13.3001 5.85611 13.3412 5.75133 13.3389 5.64287C13.3406 5.58902 13.3314 5.5353 13.3122 5.48496C13.293 5.43462 13.2639 5.38867 13.2268 5.34961C13.1897 5.31055 13.1455 5.27908 13.0962 5.25732C13.0469 5.23557 12.9936 5.22389 12.9397 5.2228H10.8035C10.695 5.2261 10.5924 5.27198 10.5177 5.35063C10.443 5.42929 10.402 5.53441 10.4042 5.64287Z"
    fill="#A7B0B5" />
  <path
    d="M30.2248 16H25.8426V14.0097H28.1684V3.97178H25.8426V2H30.2248V15.9971V16ZM24.1019 16H19.7196V2H24.1019V3.97178H21.7731V14.0097H24.1019V16Z"
    fill="#A7B0B5" />
</svg>
