<svg width="37" height="18" viewBox="0 0 37 18" fill="none" xmlns="http://www.w3.org/2000/svg">
  <path
    d="M6.37934 13.7658H4.17183V6.73995L2 7.37443V5.69747L6.17767 4.25785H6.38089L6.37934 13.7658ZM14.2646 13.7658H7.62659V12.3247L10.6842 9.115C11.2751 8.57585 11.6725 7.85746 11.8151 7.07037C11.8373 6.73827 11.7423 6.4089 11.5468 6.13959C11.4503 6.03083 11.3303 5.94552 11.1959 5.89014C11.0615 5.83476 10.9162 5.81078 10.7711 5.82002C10.6102 5.81795 10.4514 5.85602 10.3089 5.93078C10.1664 6.00553 10.0448 6.11462 9.95511 6.24818C9.73874 6.5615 9.62987 6.93656 9.64485 7.31703H7.43113C7.42714 6.74844 7.5784 6.18954 7.8686 5.70057C8.15774 5.20837 8.57838 4.80653 9.08327 4.54019C9.61816 4.25715 10.2156 4.11311 10.8207 4.12134C11.6723 4.0656 12.5154 4.31837 13.1958 4.83339C13.4794 5.08966 13.7016 5.40657 13.8458 5.76056C13.9901 6.11455 14.0526 6.49651 14.0288 6.87801C14.0286 7.25251 13.9576 7.6236 13.8194 7.97168C13.6541 8.3716 13.4354 8.74732 13.1694 9.08863C12.73 9.64045 12.2553 10.1633 11.7484 10.6539L10.5198 12.0718H14.2646V13.7658ZM17.254 8.08803H18.2934C18.4593 8.11331 18.6289 8.09978 18.7887 8.04851C18.9485 7.99723 19.0943 7.9096 19.2145 7.7925C19.3348 7.67541 19.4262 7.53203 19.4818 7.37363C19.5373 7.21522 19.5553 7.04611 19.5344 6.87956C19.5398 6.73829 19.5164 6.5974 19.4657 6.46541C19.4151 6.33343 19.3382 6.21309 19.2397 6.11167C19.1281 6.00621 18.996 5.9249 18.8516 5.87285C18.7072 5.8208 18.5536 5.79912 18.4004 5.80916C18.1248 5.80339 17.8556 5.89329 17.6387 6.06358C17.5382 6.13589 17.4565 6.23123 17.4003 6.34162C17.3442 6.452 17.3153 6.57422 17.3161 6.69806H15.1179C15.1115 6.21861 15.2583 5.74963 15.5367 5.35928C15.8327 4.95328 16.2339 4.63576 16.6971 4.44091C17.2111 4.21671 17.7668 4.10409 18.3275 4.11048C19.2179 4.05909 20.099 4.31482 20.8236 4.83494C21.1213 5.0718 21.3587 5.37575 21.5164 5.72194C21.6742 6.06814 21.7477 6.44675 21.7311 6.82682C21.7287 7.24309 21.5976 7.64842 21.3557 7.9872C21.0766 8.3747 20.699 8.68054 20.262 8.87299C20.7302 9.03015 21.1429 9.31947 21.4503 9.70605C21.7464 10.1047 21.8984 10.592 21.8816 11.0883C21.8936 11.4818 21.8108 11.8724 21.6402 12.2272C21.4696 12.5819 21.2161 12.8905 20.9011 13.1267C20.1546 13.6656 19.2472 13.9352 18.3275 13.8915C17.7307 13.8966 17.1395 13.775 16.5932 13.5347C16.1014 13.3315 15.6802 12.9884 15.3816 12.548C15.1056 12.1215 14.9625 11.6226 14.9705 11.1146H17.1858C17.1856 11.2591 17.2171 11.4018 17.2779 11.5329C17.3387 11.6639 17.4275 11.7801 17.5379 11.8732C17.7754 12.0878 18.0867 12.2023 18.4066 12.1928C18.7471 12.211 19.0812 12.0952 19.3374 11.8701C19.4506 11.7649 19.54 11.6366 19.5997 11.4941C19.6593 11.3515 19.6879 11.1978 19.6834 11.0433C19.7024 10.8573 19.68 10.6695 19.6178 10.4933C19.5556 10.317 19.4551 10.1568 19.3235 10.0241C19.0388 9.80898 18.6868 9.70229 18.3306 9.72311H17.2587L17.254 8.08803Z"
    fill="#A7B0B5" />
  <path
    d="M35 15.9011H30.6796V13.9389H32.9726V4.04285H30.6796V2.09894H35V15.8982V15.9011ZM28.9636 15.9011H24.6432V2.09894H28.9636V4.04285H26.6677V13.9389H28.9636V15.9011Z"
    fill="#A7B0B5" />
</svg>
