<svg width="37" height="18" viewBox="0 0 37 18" fill="none" xmlns="http://www.w3.org/2000/svg">
  <path
    d="M9.07186 14.6861C9.05226 14.6861 9.02706 14.6987 9.00746 14.6987C7.76701 14.0802 6.76158 13.0747 6.14305 11.8343C6.14305 11.8147 6.15565 11.7895 6.15565 11.7699C6.93755 11.9961 7.73231 12.1751 8.53566 12.3061C8.669 13.109 8.84802 13.9036 9.07186 14.6861Z"
    fill="#A7B0B5" />
  <path
    d="M17.5503 11.8399C16.9112 13.1134 15.8679 14.139 14.5837 14.7561C14.8299 13.9528 15.024 13.1344 15.1647 12.3061C15.9658 12.1758 16.7583 11.9967 17.5377 11.7699C17.5307 11.7951 17.5503 11.8203 17.5503 11.8399Z"
    fill="#A7B0B5" />
  <path
    d="M17.6021 6.26376C16.8024 6.01982 15.9884 5.82578 15.1647 5.68276C15.0285 4.85766 14.8343 4.04318 14.5837 3.24536C15.9049 3.87732 16.9701 4.94249 17.6021 6.26376Z"
    fill="#A7B0B5" />
  <path
    d="M9.07047 3.31672C8.84568 4.09851 8.66895 4.89333 8.54127 5.69672C7.71264 5.82969 6.89407 6.01913 6.09127 6.26372C6.7084 4.97948 7.734 3.93616 9.00747 3.29712C9.03127 3.29712 9.05227 3.31672 9.07047 3.31672Z"
    fill="#A7B0B5" />
  <path
    d="M14.0727 5.54971C12.5928 5.38382 11.0991 5.38382 9.61926 5.54971C9.77219 4.67153 9.98978 3.80584 10.2703 2.95971C10.2776 2.91338 10.2818 2.86661 10.2829 2.81971C10.7939 2.69168 11.3184 2.62495 11.8453 2.62091C12.3693 2.6246 12.891 2.69087 13.3993 2.81831C13.4027 2.86536 13.4092 2.91213 13.4189 2.95831C13.6996 3.80504 13.9181 4.67114 14.0727 5.54971Z"
    fill="#A7B0B5" />
  <path
    d="M8.39567 11.2281C7.51733 11.0759 6.65158 10.8583 5.80567 10.5771C5.75934 10.5698 5.71257 10.5656 5.66567 10.5645C5.53753 10.053 5.4708 9.52803 5.46687 9.00072C5.47045 8.47624 5.53672 7.95407 5.66427 7.44532C5.71132 7.44191 5.75809 7.43536 5.80427 7.42572C6.65172 7.14816 7.51766 6.93062 8.39567 6.77472C8.23617 8.2549 8.23617 9.74794 8.39567 11.2281Z"
    fill="#A7B0B5" />
  <path
    d="M18.2279 9.00072C18.2244 9.52798 18.1581 10.0529 18.0305 10.5645C17.9836 10.5656 17.9368 10.5698 17.8905 10.5771C17.0428 10.8539 16.1769 11.0715 15.2991 11.2281C15.465 9.74829 15.465 8.25455 15.2991 6.77472C16.1773 6.92765 17.0429 7.14525 17.8891 7.42572C17.9347 7.43845 17.9817 7.44504 18.0291 7.44532C18.1566 7.95409 18.2234 8.47621 18.2279 9.00072Z"
    fill="#A7B0B5" />
  <path
    d="M14.0727 12.4517C13.9205 13.3301 13.7029 14.1958 13.4217 15.0417C13.412 15.0879 13.4055 15.1347 13.4021 15.1817C12.8929 15.3094 12.3702 15.3757 11.8453 15.3791C11.3185 15.376 10.794 15.3102 10.2829 15.1831C10.2818 15.1362 10.2776 15.0895 10.2703 15.0431C9.99269 14.1957 9.77516 13.3297 9.61926 12.4517C10.3581 12.5398 11.1012 12.5866 11.8453 12.5917C12.5898 12.5868 13.3334 12.5401 14.0727 12.4517Z"
    fill="#A7B0B5" />
  <path
    d="M14.2475 11.4015C12.6531 11.6028 11.0398 11.6028 9.44545 11.4015C9.24414 9.80714 9.24414 8.19381 9.44545 6.59947C11.0398 6.39816 12.6531 6.39816 14.2475 6.59947C14.4488 8.19381 14.4488 9.80714 14.2475 11.4015Z"
    fill="#A7B0B5" />
  <path
    d="M31.5331 16H27.1508V14.0097H29.4766V3.97178H27.1508V2H31.5331V15.9971V16ZM25.4102 16H21.0279V2H25.4102V3.97178H23.0814V14.0097H25.4102V16Z"
    fill="#A7B0B5" />
</svg>
