<svg width="37" height="18" viewBox="0 0 37 18" fill="none" xmlns="http://www.w3.org/2000/svg">
  <path
    d="M24.7228 13.4983C24.3386 13.3726 23.9958 13.1312 23.7346 12.8026C23.4306 12.382 23.2232 11.8898 23.1296 11.3663C22.981 10.5814 22.9136 9.78122 22.9288 8.98037C22.9133 8.19877 22.9849 7.41802 23.1411 6.6546C23.2442 6.13275 23.4575 5.64362 23.7652 5.22569C24.0294 4.89088 24.3755 4.64311 24.7643 4.51059C25.1867 4.37283 25.6263 4.30591 26.0676 4.31224C26.4258 4.31081 26.7838 4.33336 27.1395 4.37982C27.4698 4.4249 27.7709 4.47748 28.0371 4.54058C28.2682 4.59056 28.496 4.65893 28.7177 4.74498L28.7647 4.76598V6.33007L28.6755 6.30751C28.5361 6.27445 28.359 6.24286 28.1304 6.21131C27.9018 6.17976 27.6384 6.15275 27.347 6.13171C27.0557 6.11068 26.7455 6.10164 26.4235 6.10164C26.1568 6.09547 25.8901 6.13349 25.6341 6.21434C25.4319 6.2817 25.2573 6.42175 25.1393 6.61104C24.9919 6.87619 24.8974 7.1713 24.8609 7.47791C24.7907 7.97907 24.7585 8.48561 24.7657 8.99238C24.7605 9.48722 24.7885 9.98178 24.8494 10.4723C24.8844 10.7818 24.9759 11.0809 25.1175 11.3527C25.2326 11.548 25.4049 11.6958 25.6075 11.772C25.873 11.8616 26.1509 11.9031 26.429 11.8951C26.999 11.8951 27.4687 11.8831 27.8228 11.8591C28.1768 11.8351 28.469 11.8065 28.6864 11.7749L28.7701 11.7629V13.3075L28.7204 13.327C28.4864 13.4085 28.2473 13.4728 28.0052 13.5193C27.7417 13.5734 27.4478 13.614 27.1259 13.644C26.8039 13.6741 26.4443 13.6876 26.0512 13.6876C25.6023 13.695 25.1545 13.6313 24.7228 13.4983ZM23.003 8.98037C22.9879 9.77468 23.0549 10.5684 23.2024 11.3468C23.2937 11.8571 23.4955 12.337 23.7918 12.7471C24.0429 13.0656 24.374 13.2993 24.7452 13.4202C25.168 13.5497 25.6063 13.6115 26.0458 13.6035C26.4375 13.6035 26.7938 13.59 27.1116 13.5599C27.4047 13.5352 27.6963 13.494 27.9854 13.4367C28.2214 13.3912 28.4542 13.3284 28.6823 13.2489C28.4542 13.3289 28.2213 13.3926 27.9854 13.4397C27.7206 13.4908 27.428 13.5328 27.1116 13.5628C26.7952 13.5929 26.4388 13.6049 26.0472 13.6049C25.6077 13.6128 25.1694 13.551 24.7466 13.4216C24.3757 13.3009 24.0446 13.0678 23.7931 12.7501C23.4961 12.3405 23.2942 11.8604 23.2037 11.3498C23.055 10.571 22.9877 9.77526 23.003 8.98037ZM23.2133 6.67414C23.129 7.05238 23.0725 7.43719 23.0445 7.82501C23.0723 7.43657 23.1292 7.05114 23.2146 6.67258C23.2768 6.39129 23.365 6.11745 23.478 5.85523C23.3639 6.11782 23.2762 6.39223 23.2133 6.67414ZM24.7813 7.4614C24.8039 7.31764 24.8349 7.17714 24.8745 7.03774C24.8338 7.17846 24.8024 7.32196 24.7799 7.46737L24.7813 7.4614ZM27.3518 6.05358C27.6473 6.07462 27.9092 6.10013 28.1406 6.13318C28.372 6.16623 28.5586 6.19933 28.698 6.22938C28.5586 6.19632 28.3788 6.16327 28.1474 6.13171C27.916 6.10016 27.6541 6.07315 27.36 6.05212C27.0659 6.03108 26.7537 6.02057 26.429 6.02057C26.7477 6.01857 27.0534 6.02952 27.347 6.05056L27.3518 6.05358ZM16.2905 13.5734V4.35882H19.6675C20.3459 4.2966 21.0192 4.5267 21.5404 4.99882C21.7475 5.24253 21.9071 5.52871 22.0094 5.84028C22.1116 6.15185 22.1548 6.48247 22.1359 6.81233C22.1432 7.14417 22.0959 7.47483 21.9964 7.78897C21.9092 8.05499 21.7664 8.29558 21.5786 8.49205C21.4525 8.61943 21.306 8.72124 21.1464 8.79256C21.2569 8.83833 21.3641 8.89309 21.4669 8.95634C21.6512 9.07582 21.8154 9.22823 21.9522 9.40706C22.1059 9.6087 22.2217 9.84023 22.2945 10.0891C22.3805 10.3841 22.4224 10.6921 22.4177 11.0012C22.4378 11.5212 22.3347 12.0381 22.1189 12.5037C21.9214 12.8828 21.6064 13.1743 21.2287 13.327C20.7783 13.5007 20.3016 13.5832 19.8234 13.5704L16.2905 13.5734ZM18.1192 11.7855H19.7703C19.9348 11.7895 20.0982 11.7509 20.246 11.6728C20.3779 11.5946 20.4835 11.4738 20.5482 11.3272C20.6291 11.1229 20.6669 10.9016 20.6584 10.6796C20.6645 10.4848 20.6247 10.2915 20.5427 10.1178C20.4701 9.97303 20.362 9.8525 20.2303 9.7692C20.0892 9.68534 19.9301 9.64281 19.7689 9.64595H18.1179L18.1192 11.7855ZM20.4685 11.5887C20.5254 11.5216 20.5725 11.4456 20.6081 11.3633C20.5691 11.443 20.5199 11.5164 20.4617 11.5812L20.4685 11.5887ZM19.7716 9.56479C19.9457 9.5612 20.1181 9.60793 20.2698 9.70005C20.1174 9.60871 19.9446 9.56304 19.7703 9.56782L19.7716 9.56479ZM21.9216 7.76191C21.8376 8.01653 21.6996 8.24645 21.5187 8.43345C21.3432 8.61018 21.1276 8.73445 20.8939 8.79403C21.1255 8.73323 21.3385 8.60904 21.5125 8.43345C21.6946 8.24711 21.8331 8.01703 21.9168 7.76191C21.9377 7.70031 21.9558 7.63572 21.974 7.56961C21.9531 7.62821 21.935 7.69124 21.9127 7.75284L21.9216 7.76191ZM18.1206 8.09241H19.6784C19.7771 8.09765 19.8758 8.07717 19.9656 8.03271C20.0554 7.98825 20.1337 7.92113 20.1943 7.83702C20.3302 7.63276 20.3982 7.38491 20.3869 7.13384C20.405 6.99715 20.3963 6.8579 20.3617 6.72494C20.3271 6.59198 20.2675 6.46827 20.1861 6.36161C20.0419 6.21927 19.852 6.14327 19.6566 6.14978H18.1233L18.1206 8.09241ZM20.0867 8.05188C20.1503 8.00673 20.2066 7.95032 20.2528 7.88507C20.2024 7.94695 20.1431 7.99972 20.0772 8.04133L20.0867 8.05188ZM19.6566 6.07009C19.8702 6.06454 20.077 6.14732 20.2358 6.30146C20.3253 6.41434 20.392 6.54626 20.4311 6.68862C20.3922 6.5462 20.3274 6.41421 20.2378 6.30146C20.0789 6.14641 19.8709 6.06456 19.6566 6.07009ZM13.9262 13.5824L13.3927 11.6848H10.6439L10.1212 13.5824H8.22989L10.9086 4.36781H13.1388L15.8175 13.5824H13.9262ZM13.4498 11.6066L13.9807 13.5013L13.4485 11.6037L13.4498 11.6066ZM13.051 9.97654L12.02 5.99948L13.051 9.97204V9.97654ZM11.0842 9.89685H12.9524L12.0179 6.29999L11.0842 9.89685Z"
    fill="#A7B0B5" />
</svg>
  