<svg width="37" height="18" viewBox="0 0 37 18" fill="none" xmlns="http://www.w3.org/2000/svg">
  <path
    d="M14.7655 15.1223C14.5094 15.1131 14.2595 15.0388 14.0402 14.9062C13.8209 14.7737 13.6396 14.5873 13.5124 14.3648C13.4291 14.1151 13.4068 13.8491 13.4475 13.589C13.4882 13.3288 13.5906 13.0819 13.7462 12.8695L15.1462 11.4233C15.2121 11.3423 15.283 11.2658 15.3588 11.194L15.4511 11.1055L15.9078 10.6338V10.6758L17.7275 8.96069H17.7343L15.8558 7.19258V7.25991L13.7558 5.12778C13.6003 4.91532 13.4978 4.66843 13.4571 4.4083C13.4164 4.14818 13.4388 3.88221 13.522 3.63242C13.6491 3.40996 13.8312 3.22356 14.0504 3.09102C14.2697 2.95847 14.519 2.88415 14.775 2.875H22.3869C22.6269 2.87884 22.8606 2.95241 23.0595 3.08691C23.2584 3.22142 23.4136 3.41105 23.5066 3.63242C23.571 3.90053 23.5794 4.17919 23.5312 4.45068C23.483 4.72218 23.3797 4.98059 23.227 5.21016L21.8701 6.55547C21.8169 6.61567 21.762 6.67313 21.7046 6.72773L21.5187 6.9041L21.1605 7.25991V7.24453L19.3401 8.9624L21.1605 10.6745V10.6365L21.6028 11.0945L21.7122 11.1967C21.7905 11.2708 21.8631 11.3502 21.9302 11.4346L23.2366 12.7898C23.3894 13.0194 23.4933 13.2782 23.5415 13.5497C23.5896 13.8212 23.5813 14.0995 23.5168 14.3676C23.4239 14.589 23.268 14.7786 23.0691 14.9131C22.8702 15.0476 22.6365 15.1212 22.3964 15.125L14.7655 15.1223ZM17.0569 12.2843C17.055 12.3382 17.0637 12.3922 17.0829 12.4426C17.102 12.493 17.1312 12.5392 17.1683 12.5783C17.2055 12.6174 17.2502 12.6485 17.2996 12.6702C17.3489 12.6919 17.4022 12.7035 17.4561 12.7044H19.5937C19.7021 12.7011 19.8047 12.6552 19.8794 12.5766C19.9542 12.4979 19.9952 12.3928 19.9929 12.2843C19.9946 12.2305 19.9855 12.1771 19.9663 12.1268C19.9471 12.0764 19.9179 12.0301 19.8808 11.9911C19.8437 11.952 19.7995 11.9209 19.7502 11.8991C19.701 11.8774 19.6476 11.8657 19.5937 11.8646H17.4561C17.3475 11.8675 17.2445 11.9134 17.1697 11.9921C17.0949 12.0708 17.0542 12.1758 17.0569 12.2843ZM17.0569 5.64287C17.0552 5.69672 17.0643 5.75044 17.0835 5.80078C17.1027 5.85112 17.1319 5.89707 17.169 5.93613C17.2061 5.97519 17.2503 6.00632 17.2996 6.02808C17.3489 6.04983 17.4022 6.06185 17.4561 6.06294H19.5923C19.7008 6.05964 19.8034 6.01342 19.8781 5.93477C19.9528 5.85611 19.9938 5.75133 19.9916 5.64287C19.9932 5.58902 19.9841 5.5353 19.9649 5.48496C19.9457 5.43462 19.9166 5.38867 19.8794 5.34961C19.8423 5.31055 19.7982 5.27908 19.7489 5.25732C19.6996 5.23557 19.6462 5.22389 19.5923 5.2228H17.4561C17.3477 5.2261 17.2451 5.27198 17.1704 5.35063C17.0956 5.42929 17.0546 5.53441 17.0569 5.64287Z"
    fill="#A7B0B5" />
</svg>
