<svg width="37" height="18" viewBox="0 0 37 18" fill="none" xmlns="http://www.w3.org/2000/svg">
  <path
    d="M18.0255 15.839H13.5975C13.1712 15.7766 12.7856 15.5511 12.5223 15.2102C12.2589 14.8693 12.1382 14.4395 12.1855 14.0113V4.96693C12.1855 4.70451 12.2897 4.45284 12.4751 4.26715C12.6605 4.08147 12.9118 3.977 13.1742 3.97664H14.1623V2.28314C14.1623 2.20804 14.1917 2.13607 14.2448 2.08297C14.2979 2.02987 14.3702 2 14.4453 2H15.2637C15.3388 2 15.4111 2.02987 15.4642 2.08297C15.5173 2.13607 15.5468 2.20804 15.5468 2.28314V3.97664H20.6863V2.28314C20.6863 2.24596 20.6937 2.20913 20.708 2.17478C20.7222 2.14043 20.7433 2.10926 20.7696 2.08297C20.7958 2.05668 20.8269 2.03577 20.8613 2.02154C20.8956 2.00731 20.9322 2 20.9694 2H21.7865C21.8616 2 21.9339 2.02987 21.987 2.08297C22.0401 2.13607 22.0702 2.20804 22.0702 2.28314V3.97664H23.0589C23.3213 3.977 23.5726 4.08147 23.758 4.26715C23.9435 4.45284 24.0476 4.70451 24.0476 4.96693V8.72423C23.6236 8.44491 23.157 8.23687 22.6658 8.10832V6.99051H13.5647V14.0167C13.5573 14.1756 13.6014 14.3327 13.6899 14.4649H17.1357C17.3478 14.973 17.6483 15.4395 18.0229 15.843L18.0255 15.839ZM15.3482 13.2169C15.1035 13.2162 14.8691 13.1185 14.6963 12.9452C14.5235 12.7719 14.4263 12.5371 14.4263 12.2923C14.4263 12.0473 14.5238 11.8124 14.6969 11.6391C14.87 11.4657 15.1046 11.3682 15.3495 11.3678C15.5945 11.3682 15.8297 11.4657 16.0028 11.6391C16.1759 11.8124 16.2728 12.0473 16.2728 12.2923C16.2728 12.5375 16.1755 12.7728 16.0021 12.9462C15.8288 13.1195 15.5934 13.2169 15.3482 13.2169ZM15.3482 10.1869C15.1035 10.1862 14.8691 10.0885 14.6963 9.91518C14.5235 9.74186 14.4263 9.50707 14.4263 9.26233C14.4263 9.01735 14.5238 8.78242 14.6969 8.60907C14.87 8.43572 15.1046 8.33816 15.3495 8.33781C15.5945 8.33816 15.8297 8.43572 16.0028 8.60907C16.1759 8.78242 16.2728 9.01735 16.2728 9.26233C16.2724 9.50731 16.1748 9.74216 16.0015 9.91526C15.8281 10.0884 15.5932 10.1855 15.3482 10.1855V10.1869ZM17.5773 10.0152C17.4582 9.92935 17.3612 9.81641 17.2942 9.68577C17.2273 9.55512 17.1922 9.41052 17.192 9.26372C17.192 9.01874 17.2895 8.78373 17.4626 8.61038C17.6357 8.43703 17.8703 8.33947 18.1152 8.33912C18.2638 8.33934 18.4101 8.37529 18.5418 8.44395C18.6735 8.51262 18.7868 8.612 18.872 8.73364C18.3618 9.07247 17.923 9.50784 17.5799 10.0152H17.5773Z"
    fill="#A7B0B5" />
  <path
    d="M20.0112 15.635C20.0005 15.635 19.987 15.6417 19.9777 15.6417C19.3249 15.3165 18.7959 14.7875 18.4707 14.1347C18.4707 14.1254 18.4774 14.1119 18.4774 14.1012C18.8887 14.2201 19.3068 14.3142 19.7294 14.383C19.7994 14.8053 19.8935 15.2234 20.0112 15.635Z"
    fill="#454450" />
  <path
    d="M24.469 14.1388C24.1326 14.8082 23.5838 15.3471 22.9083 15.6712C23.038 15.2488 23.1402 14.8185 23.2143 14.383C23.6356 14.3145 24.0524 14.2204 24.4622 14.1012C24.4582 14.1146 24.469 14.128 24.469 14.1388Z"
    fill="#454450" />
  <path
    d="M24.4958 11.2067C24.0754 11.0783 23.6474 10.9761 23.2143 10.9008C23.1425 10.467 23.0403 10.0387 22.9083 9.61926C23.6033 9.95158 24.1635 10.5118 24.4958 11.2067Z"
    fill="#454450" />
  <path
    d="M20.0111 9.65679C19.8928 10.0667 19.7996 10.4835 19.732 10.9048C19.2962 10.9759 18.8658 11.0768 18.4438 11.2067C18.7682 10.531 19.3077 9.98215 19.9776 9.64606C19.987 9.64606 20.0004 9.65679 20.0111 9.65679Z"
    fill="#454450" />
  <path
    d="M22.64 10.831C21.8619 10.7437 21.0765 10.7437 20.2984 10.831C20.3788 10.3691 20.4931 9.9139 20.6406 9.46894C20.6445 9.44452 20.6467 9.41986 20.6473 9.39513C20.9164 9.32767 21.1925 9.29253 21.4699 9.29047C21.7459 9.2926 22.0207 9.32773 22.2884 9.39513C22.2899 9.41992 22.2931 9.44457 22.2978 9.46894C22.4449 9.91402 22.5592 10.3692 22.64 10.831Z"
    fill="#454450" />
  <path
    d="M19.6557 13.8153C19.1938 13.7353 18.7385 13.621 18.2936 13.4731C18.2692 13.4692 18.2446 13.467 18.2198 13.4664C18.1525 13.1978 18.1173 12.9221 18.1152 12.6452C18.1173 12.3691 18.1524 12.0943 18.2198 11.8266C18.2447 11.8247 18.2693 11.8211 18.2936 11.8159C18.7391 11.67 19.1942 11.5557 19.6557 11.4737C19.5718 12.252 19.5718 13.037 19.6557 13.8153Z"
    fill="#454450" />
  <path
    d="M24.8246 12.6452C24.8225 12.9225 24.7874 13.1987 24.7199 13.4678C24.6952 13.4683 24.6705 13.4706 24.6461 13.4745C24.2005 13.6195 23.7454 13.7334 23.2841 13.8153C23.3713 13.0372 23.3713 12.2518 23.2841 11.4737C23.7459 11.5541 24.2011 11.6684 24.6461 11.8159C24.6701 11.8227 24.6949 11.8264 24.7199 11.8266C24.787 12.0944 24.8222 12.3691 24.8246 12.6452Z"
    fill="#454450" />
  <path
    d="M22.64 14.4595C22.56 14.9214 22.4457 15.3766 22.2978 15.8215C22.2926 15.8458 22.289 15.8705 22.2871 15.8953C22.0194 15.9627 21.7446 15.9978 21.4685 16C21.1916 15.9978 20.9159 15.9627 20.6473 15.8953C20.6467 15.8706 20.6445 15.8459 20.6406 15.8215C20.4947 15.3761 20.3804 14.9209 20.2984 14.4595C20.6872 14.5059 21.0783 14.5305 21.4699 14.5333C21.861 14.5306 22.2517 14.506 22.64 14.4595Z"
    fill="#454450" />
  <path
    d="M22.7328 13.9082C21.8943 14.0141 21.0458 14.0141 20.2074 13.9082C20.1015 13.0697 20.1015 12.2213 20.2074 11.3828C21.0458 11.2769 21.8943 11.2769 22.7328 11.3828C22.8387 12.2213 22.8387 13.0697 22.7328 13.9082Z"
    fill="#454450" />
</svg>
  