<svg width="37" height="18" viewBox="0 0 37 18" fill="none" xmlns="http://www.w3.org/2000/svg">
  <path
    d="M21.7638 15.547C21.5908 15.547 21.3839 15.5118 21.149 15.4425C20.9172 15.3741 20.6838 15.2753 20.4553 15.1486L20.3831 15.1086V15.0262V13.7426V13.5488L20.5671 13.6097C20.8223 13.6942 21.03 13.7623 21.1902 13.8139C21.3661 13.8706 21.4182 13.8823 21.4315 13.8847C21.5315 13.8839 21.613 13.864 21.6738 13.8254C21.691 13.8145 21.7366 13.7856 21.7366 13.6651V10.3787C21.7366 10.1086 21.8223 9.83551 21.9913 9.56716C22.1212 9.36072 22.2873 9.18101 22.4864 9.03097C22.4132 8.97452 22.3442 8.91312 22.2801 8.84729C22.1682 8.73234 22.0708 8.60791 21.9905 8.47744C21.9094 8.3456 21.8463 8.20653 21.8029 8.06406C21.7589 7.91981 21.7366 7.77558 21.7366 7.63538V4.34902C21.7366 4.24425 21.6982 4.20565 21.6693 4.18573C21.6083 4.14364 21.5263 4.12231 21.4255 4.12231C21.4047 4.12486 21.2681 4.15654 20.5778 4.44967L20.3831 4.53237V4.32081V2.98793V2.90697L20.4533 2.86659C20.682 2.73498 20.9156 2.6323 21.1477 2.56138C21.383 2.48947 21.5903 2.453 21.7638 2.453C22.0687 2.453 22.3484 2.49589 22.595 2.58047C22.8441 2.66586 23.0582 2.78511 23.2315 2.93494C23.4067 3.08645 23.5429 3.26894 23.6362 3.4773C23.7291 3.68495 23.7762 3.90942 23.7762 4.14451V7.27571C23.7762 7.36839 23.7835 7.47546 23.7978 7.59393C23.8113 7.70575 23.8373 7.81005 23.8751 7.90395C23.9103 7.99143 23.9582 8.06279 24.0215 8.12212C24.0727 8.17018 24.1435 8.19355 24.2378 8.19355H24.8995H25.0395V8.33355V9.68759V9.82759H24.8995H24.2378C24.1435 9.82759 24.0727 9.85095 24.0215 9.89903C23.9582 9.95835 23.9103 10.0297 23.8751 10.1172C23.8373 10.2111 23.8113 10.3154 23.7978 10.4272C23.7835 10.5457 23.7762 10.6527 23.7762 10.7454V13.8625C23.7762 14.1072 23.729 14.3354 23.6359 14.5409C23.5426 14.7467 23.4066 14.9278 23.2315 15.0792C23.0575 15.2296 22.8426 15.3467 22.5926 15.4274C22.3467 15.5067 22.0678 15.547 21.7638 15.547ZM15.2286 15.547C14.9245 15.547 14.6468 15.5067 14.4032 15.4272C14.1562 15.3467 13.9417 15.2298 13.7656 15.0799C13.5876 14.9283 13.45 14.747 13.3566 14.5409C13.2635 14.3354 13.2163 14.1072 13.2163 13.8625V10.7454C13.2163 10.6527 13.209 10.5457 13.1947 10.4272C13.1811 10.3145 13.156 10.2093 13.1201 10.1145C13.0874 10.0281 13.041 9.95763 12.9785 9.89902C12.9273 9.85095 12.859 9.82759 12.7698 9.82759H12.1005H11.9605V9.68759V8.33355V8.19355H12.1005H12.7698C12.859 8.19355 12.9273 8.17018 12.9785 8.12212C13.041 8.0635 13.0874 7.99301 13.1201 7.90662C13.156 7.8119 13.1811 7.70667 13.1947 7.59393C13.209 7.47546 13.2163 7.36839 13.2163 7.27571V4.14451C13.2163 3.90942 13.2634 3.68495 13.3563 3.4773C13.4497 3.2686 13.5874 3.08589 13.7656 2.93423C13.941 2.78487 14.1547 2.6659 14.4008 2.58061C14.6451 2.49594 14.9236 2.453 15.2286 2.453C15.3126 2.453 15.4077 2.46339 15.5114 2.48386C15.6105 2.50344 15.7186 2.53062 15.8326 2.56462C15.9478 2.59901 16.0658 2.64252 16.1834 2.69396C16.3004 2.74518 16.4152 2.80337 16.5246 2.86686L16.5943 2.90732V2.98793V4.32081V4.53564L16.3978 4.44889C16.1462 4.33782 15.9427 4.2535 15.793 4.19829C15.6255 4.13645 15.5745 4.12457 15.5619 4.12233C15.4642 4.12303 15.3857 4.14397 15.3285 4.18459C15.3006 4.20446 15.2634 4.24313 15.2634 4.34902V7.63538C15.2634 7.91404 15.1781 8.1959 15.01 8.47316C14.8787 8.68963 14.7088 8.87736 14.5036 9.03318C14.5734 9.08728 14.64 9.14534 14.7026 9.2069C14.8147 9.31701 14.9136 9.4377 14.9965 9.56562C15.08 9.69456 15.1458 9.82832 15.1919 9.96316C15.2393 10.1018 15.2634 10.2416 15.2634 10.3787V13.6651C15.2634 13.7868 15.3074 13.8156 15.324 13.8264C15.3822 13.8645 15.4623 13.8841 15.562 13.8847C15.5743 13.8828 15.6248 13.8726 15.8015 13.82C15.9557 13.7741 16.1588 13.704 16.4052 13.6116L16.5943 13.5406V13.7426V15.0262V15.1068L16.5246 15.1472C16.4146 15.2111 16.299 15.2684 16.1811 15.3176C16.0642 15.3663 15.947 15.4083 15.8326 15.4424C15.7176 15.4767 15.6084 15.5029 15.5081 15.5203C15.4055 15.538 15.3114 15.547 15.2286 15.547Z"
    fill="#A7B0B5" />
  <path
    d="M15.2286 2.59299C14.9379 2.59299 14.6772 2.63296 14.4466 2.71288C14.216 2.79281 14.0192 2.90212 13.8563 3.04081C13.6934 3.1795 13.5693 3.34406 13.4841 3.53447C13.3989 3.72489 13.3563 3.92822 13.3563 4.1445V7.27569C13.3563 7.37444 13.3488 7.48609 13.3337 7.61069C13.3187 7.73527 13.2911 7.85045 13.251 7.95625C13.2109 8.06202 13.152 8.15135 13.0743 8.22422C12.9966 8.29711 12.8951 8.33353 12.7698 8.33353H12.1005V9.68757H12.7698C12.8951 9.68757 12.9966 9.72401 13.0743 9.79688C13.152 9.86975 13.2109 9.95909 13.251 10.0649C13.2911 10.1707 13.3187 10.2858 13.3337 10.4104C13.3488 10.535 13.3563 10.6467 13.3563 10.7454V13.8625C13.3563 14.0882 13.3989 14.2951 13.4841 14.4831C13.5693 14.6712 13.6934 14.8345 13.8563 14.9732C14.0192 15.1119 14.216 15.2189 14.4466 15.2941C14.6772 15.3693 14.9379 15.407 15.2286 15.407C15.3038 15.407 15.3891 15.3987 15.4843 15.3823C15.5796 15.3658 15.6823 15.3411 15.7926 15.3082C15.9029 15.2753 16.0144 15.2354 16.1272 15.1883C16.24 15.1413 16.3491 15.0873 16.4543 15.0261V13.7426C16.2037 13.8367 15.9994 13.9072 15.8415 13.9542C15.6836 14.0012 15.5921 14.0247 15.567 14.0247C15.4367 14.0247 15.3302 13.9977 15.2474 13.9436C15.1647 13.8895 15.1234 13.7967 15.1234 13.665V10.3787C15.1234 10.2564 15.1021 10.133 15.0594 10.0085C15.0168 9.88387 14.9567 9.76162 14.879 9.64174C14.8013 9.52184 14.7098 9.41018 14.6045 9.30674C14.4993 9.20331 14.3839 9.11164 14.2586 9.03171C14.5243 8.86716 14.7349 8.65677 14.8903 8.40054C15.0457 8.1443 15.1234 7.88924 15.1234 7.63537V4.34901C15.1234 4.22207 15.1647 4.12921 15.2474 4.07045C15.3302 4.01168 15.4367 3.98229 15.567 3.98229C15.5971 3.98229 15.6886 4.0105 15.8415 4.06692C15.9944 4.12334 16.1987 4.20796 16.4543 4.3208V2.98791C16.3491 2.9268 16.24 2.87156 16.1272 2.8222C16.0144 2.77283 15.9029 2.73169 15.7926 2.69877C15.6823 2.66587 15.5796 2.64001 15.4843 2.6212C15.3891 2.6024 15.3038 2.59299 15.2286 2.59299ZM21.7638 2.59299C21.6034 2.59299 21.4117 2.62708 21.1886 2.69524C20.9655 2.76342 20.7437 2.86098 20.5231 2.98791V4.3208C21.0545 4.09513 21.3553 3.98229 21.4255 3.98229C21.5558 3.98229 21.6636 4.01168 21.7488 4.07045C21.834 4.12921 21.8766 4.22207 21.8766 4.34901V7.63537C21.8766 7.76231 21.8967 7.8916 21.9368 8.02324C21.9769 8.15488 22.0345 8.28182 22.1097 8.40407C22.1849 8.5263 22.2752 8.64149 22.3804 8.74961C22.4857 8.85775 22.6035 8.95179 22.7339 9.03171C22.4732 9.19157 22.2651 9.3949 22.1097 9.64174C21.9543 9.88856 21.8766 10.1342 21.8766 10.3787V13.665C21.8766 13.7967 21.834 13.8895 21.7488 13.9436C21.6636 13.9977 21.5558 14.0247 21.4255 14.0247C21.4004 14.0247 21.3077 13.9989 21.1472 13.9471C20.9868 13.8954 20.7788 13.8272 20.5231 13.7426V15.0261C20.7437 15.1484 20.9655 15.2424 21.1886 15.3082C21.4117 15.374 21.6034 15.407 21.7638 15.407C22.0546 15.407 22.3165 15.3693 22.5496 15.2941C22.7827 15.2189 22.9795 15.1119 23.1399 14.9732C23.3003 14.8345 23.4232 14.6712 23.5084 14.4831C23.5936 14.2951 23.6362 14.0882 23.6362 13.8625V10.7454C23.6362 10.6467 23.6437 10.535 23.6588 10.4104C23.6738 10.2858 23.7026 10.1707 23.7452 10.0649C23.7878 9.95909 23.848 9.86975 23.9257 9.79688C24.0034 9.72401 24.1074 9.68757 24.2378 9.68757H24.8995V8.33353H24.2378C24.1074 8.33353 24.0034 8.29711 23.9257 8.22422C23.848 8.15135 23.7878 8.06202 23.7452 7.95625C23.7026 7.85045 23.6738 7.73527 23.6588 7.61069C23.6437 7.48609 23.6362 7.37444 23.6362 7.27569V4.1445C23.6362 3.92822 23.5936 3.72489 23.5084 3.53447C23.4232 3.34406 23.3003 3.1795 23.1399 3.04081C22.9795 2.90212 22.7827 2.79281 22.5496 2.71288C22.3165 2.63296 22.0546 2.59299 21.7638 2.59299ZM15.2286 2.31299C15.3216 2.31299 15.4259 2.32426 15.5385 2.3465C15.642 2.36694 15.7544 2.39518 15.8727 2.43046C15.9933 2.46647 16.1167 2.51197 16.2395 2.56569C16.3614 2.61903 16.481 2.67962 16.5949 2.74576L16.7343 2.8267V4.75044L16.3413 4.57696C16.0923 4.46706 15.8915 4.38383 15.7446 4.3296C15.6227 4.28465 15.5683 4.26831 15.547 4.26264C15.4865 4.26478 15.4404 4.27686 15.4097 4.29864C15.4097 4.29864 15.4034 4.31361 15.4034 4.34901V7.63537C15.4034 7.93999 15.3113 8.24629 15.1297 8.54573C15.019 8.72821 14.8829 8.8915 14.7229 9.03394C14.7495 9.05774 14.7754 9.08211 14.8008 9.10702C14.9201 9.22428 15.0255 9.35296 15.114 9.48946C15.2038 9.62802 15.2746 9.77215 15.3244 9.91786C15.3768 10.0711 15.4034 10.2261 15.4034 10.3787V13.665C15.4034 13.6912 15.4063 13.7064 15.4083 13.7139C15.441 13.7323 15.4894 13.7428 15.5495 13.7445C15.5705 13.7399 15.6263 13.7261 15.7616 13.6858C15.9127 13.6408 16.1126 13.5717 16.356 13.4805L16.7343 13.3385V15.1873L16.5949 15.2683C16.4796 15.3352 16.3585 15.3953 16.2349 15.4468C16.1136 15.4974 15.9917 15.541 15.8727 15.5765C15.7523 15.6124 15.6377 15.6399 15.532 15.6582C15.4214 15.6773 15.3194 15.687 15.2286 15.687C14.9097 15.687 14.6174 15.6443 14.3598 15.5603C14.0954 15.4741 13.8649 15.3483 13.6748 15.1865C13.481 15.0214 13.331 14.8237 13.2291 14.5987C13.1277 14.3749 13.0763 14.1273 13.0763 13.8625V10.7454C13.0763 10.6583 13.0694 10.5569 13.0557 10.444C13.0435 10.3425 13.0211 10.2483 12.9892 10.1641C12.9642 10.0981 12.9294 10.0448 12.8828 10.0011C12.873 9.99196 12.847 9.96757 12.7698 9.96757H11.8205V8.05353H12.7698C12.847 8.05353 12.873 8.02916 12.8828 8.01999C12.9294 7.97628 12.9642 7.92296 12.9892 7.85696C13.0211 7.77282 13.0435 7.67864 13.0557 7.57714C13.0694 7.46422 13.0763 7.36279 13.0763 7.27569V4.1445C13.0763 3.88957 13.1275 3.64584 13.2285 3.42009C13.3305 3.19224 13.4807 2.9929 13.6748 2.8276C13.8636 2.66692 14.0924 2.53931 14.3549 2.44833C14.614 2.35852 14.908 2.31299 15.2286 2.31299ZM21.7638 2.31299C22.0842 2.31299 22.3791 2.35842 22.6404 2.44802C22.9065 2.53924 23.1361 2.66741 23.323 2.82899C23.5139 2.99403 23.6623 3.1929 23.7639 3.42009C23.865 3.64584 23.9162 3.88957 23.9162 4.1445V7.27569C23.9162 7.36279 23.9231 7.46422 23.9367 7.57714C23.9488 7.67675 23.9717 7.7691 24.005 7.85163C24.0324 7.91982 24.0692 7.97488 24.1172 8.01999C24.1261 8.02828 24.153 8.05353 24.2378 8.05353H25.1795V9.96757H24.2378C24.153 9.96757 24.1261 9.99284 24.1172 10.0011C24.0692 10.0462 24.0324 10.1013 24.005 10.1695C23.9717 10.252 23.9488 10.3444 23.9367 10.444C23.9231 10.5569 23.9162 10.6583 23.9162 10.7454V13.8625C23.9162 14.1273 23.8648 14.3749 23.7634 14.5987C23.6617 14.823 23.5136 15.0203 23.323 15.1851C23.1348 15.3478 22.9035 15.4741 22.6356 15.5606C22.3758 15.6444 22.0825 15.687 21.7638 15.687C21.5747 15.687 21.3606 15.6509 21.1094 15.5768C20.8678 15.5055 20.6249 15.4027 20.3874 15.2711L20.2431 15.1911V13.355L20.6111 13.4768C20.8659 13.5611 21.0733 13.6291 21.2332 13.6807C21.3664 13.7236 21.4231 13.739 21.4454 13.7444C21.5074 13.7425 21.5566 13.7314 21.592 13.7113C21.5939 13.7042 21.5966 13.6898 21.5966 13.665V10.3787C21.5966 10.0817 21.6896 9.7836 21.8728 9.49255C21.9813 9.32014 22.1133 9.16525 22.267 9.02939C22.2371 9.00207 22.208 8.97391 22.1798 8.94494C22.0607 8.82261 21.9569 8.69 21.8713 8.5508C21.7839 8.40877 21.7158 8.25875 21.6689 8.10484C21.621 7.94736 21.5966 7.78941 21.5966 7.63537V4.34901C21.5966 4.31311 21.5899 4.30037 21.5899 4.30037C21.5555 4.27722 21.5057 4.26436 21.4417 4.26252C21.396 4.27344 21.2268 4.32618 20.6326 4.57852L20.2431 4.74391V2.82599L20.3835 2.74522C20.6213 2.60839 20.8646 2.50148 21.1068 2.42747C21.3589 2.35044 21.5738 2.31299 21.7638 2.31299Z"
    fill="#A7B0B5" />
</svg>
