<svg width="37" height="18" viewBox="0 0 37 18" fill="none" xmlns="http://www.w3.org/2000/svg">
  <path
    d="M8.21865 14.5885H5.81159V6.44552L3.44739 7.17973V5.24169L7.99773 3.56999H8.21865V14.5885ZM10.6026 12.0406C10.9496 12.0283 11.2879 12.1567 11.549 12.3998C11.6717 12.5142 11.7692 12.656 11.8344 12.815C11.8997 12.974 11.9311 13.1464 11.9265 13.3198C11.9311 13.4932 11.8997 13.6656 11.8344 13.8246C11.7692 13.9836 11.6717 14.1254 11.549 14.2398C11.2879 14.4829 10.9496 14.6113 10.6026 14.599C10.2534 14.6131 9.91249 14.4832 9.65135 14.2363C9.5301 14.1215 9.43382 13.9801 9.36919 13.8219C9.30456 13.6636 9.27313 13.4923 9.2771 13.3198C9.27313 13.1473 9.30456 12.976 9.36919 12.8177C9.43382 12.6595 9.5301 12.5181 9.65135 12.4033C9.91249 12.1564 10.2534 12.0265 10.6026 12.0406ZM20.2474 14.5885H13.013V12.9238L16.345 9.20014C16.9893 8.57553 17.4227 7.74309 17.5782 6.83103C17.6037 6.44482 17.5004 6.06141 17.2864 5.7481C17.1811 5.62161 17.05 5.52238 16.9032 5.45799C16.7563 5.39361 16.5975 5.36577 16.4389 5.37662C16.2635 5.37406 16.0901 5.41807 15.9347 5.50466C15.7792 5.59125 15.6465 5.71768 15.5487 5.87252C15.3119 6.23478 15.1922 6.66888 15.2074 7.10964H12.797C12.7924 6.45078 12.9572 5.80309 13.2735 5.23643C13.5873 4.66702 14.044 4.20165 14.5924 3.89242C15.1757 3.56494 15.8272 3.39862 16.4868 3.40878C17.4149 3.34432 18.3337 3.63731 19.0752 4.23412C19.3844 4.53101 19.6267 4.8982 19.784 5.30838C19.9413 5.71856 20.0095 6.16115 19.9836 6.60323C19.9836 7.037 19.9064 7.46686 19.7561 7.87014C19.5757 8.33321 19.3372 8.76821 19.0472 9.16334C18.5684 9.80209 18.0512 10.4073 17.499 10.9752L16.1603 12.6171H20.2408L20.2474 14.5885Z"
    fill="#A7B0B5" />
  <path
    d="M33.5526 16H29.1703V14.0097H31.4961V3.97178H29.1703V2H33.5526V15.9971V16ZM27.4297 16H23.0474V2H27.4297V3.97178H25.1009V14.0097H27.4297V16Z"
    fill="#A7B0B5" />
</svg>
