<svg width="37" height="18" viewBox="0 0 37 18" fill="none" xmlns="http://www.w3.org/2000/svg">
  <path
    d="M24.7643 12.9102V10.5153L22.4195 5.08856H24.3086L25.6951 8.55528L27.0694 5.08856H28.8945L26.5631 10.5153V12.9102H24.7643ZM25.6963 8.95002L27.1731 5.23473L25.6988 8.94751L25.6963 8.95002ZM20.487 12.9102L17.5688 8.30039V12.9102H15.7608V5.08856H17.1986L20.1271 9.70085V5.08856H21.9248V12.9102H20.487ZM20.2784 10.2018V5.23595V10.1981V10.2018ZM13.2599 12.9114L12.7804 11.3336H10.4326L9.96716 12.9114H8.10547L10.5588 5.08978H12.6755L15.1277 12.9114H13.2599ZM12.5303 9.83573L11.6031 6.52768L12.5303 9.83321V9.83573ZM10.8699 9.68956H12.337L11.6019 7.06615L10.8699 9.68956Z"
    fill="#A7B0B5" />
</svg>
