<svg width="27" height="14" viewBox="0 0 27 14" fill="none" xmlns="http://www.w3.org/2000/svg">
  <path
    d="M3.11828 12.5845C2.59552 12.5971 2.07705 12.4909 1.60082 12.2749C1.17445 12.0753 0.822874 11.7451 0.597005 11.3321C0.350734 10.8501 0.230229 10.3134 0.247545 9.7724V4.30144C0.230244 3.75083 0.353333 3.2053 0.604823 2.71519C0.831881 2.29483 1.1836 1.95538 1.61177 1.74342C2.08702 1.51996 2.60812 1.41001 3.13313 1.42289H5.36201C5.89771 1.4052 6.42882 1.52448 6.90526 1.77C7.30916 1.99723 7.63041 2.34645 7.82387 2.76757C8.03639 3.25204 8.14043 3.77725 8.1272 4.30613V9.77709C8.15381 10.1594 8.10098 10.5439 7.97319 10.9052C7.8454 11.2666 7.64479 11.5971 7.38372 11.8778C6.82473 12.3756 6.09143 12.6323 5.34403 12.5907L3.11828 12.5845ZM0.316343 9.7724C0.297921 10.3016 0.41539 10.827 0.656421 11.2985C0.414303 10.8262 0.296303 10.3013 0.314779 9.77083L0.316343 9.7724ZM2.3529 10.2063C2.40348 10.31 2.47365 10.404 2.55851 10.4823C2.83656 10.7081 3.18827 10.8218 3.54591 10.802H4.87339C5.05143 10.8187 5.23098 10.7992 5.4011 10.7442C5.57122 10.6891 5.72861 10.6001 5.86314 10.4823C6.09051 10.2157 6.20487 9.87109 6.18289 9.52144V6.08235L2.3529 10.2063ZM2.50066 3.47039C2.37587 3.60541 2.28008 3.76519 2.21922 3.93869C2.15836 4.11218 2.13341 4.29629 2.14651 4.47968C2.12533 4.29794 2.14551 4.11323 2.20515 3.94025C2.26479 3.76727 2.36259 3.60985 2.49128 3.47978C2.61997 3.3497 2.77629 3.25044 2.94863 3.18895C3.12097 3.12746 3.30454 3.1056 3.4865 3.12484C3.30702 3.1128 3.12701 3.13733 2.95723 3.19677C2.78744 3.25621 2.63344 3.34903 2.50066 3.47039ZM2.54835 3.51887C2.43021 3.64778 2.33982 3.79927 2.28254 3.96449C2.22527 4.1297 2.20231 4.30531 2.21531 4.47968V7.98288L6.06797 3.81047C6.01995 3.68895 5.94521 3.57927 5.84985 3.48994C5.59805 3.27974 5.27597 3.17273 4.94844 3.19051H3.48884C3.31795 3.17951 3.1463 3.20293 2.98459 3.25931C2.82288 3.31569 2.67537 3.404 2.54835 3.51887ZM11.4858 12.5235V3.30935L9.43357 3.67757V2.38371L9.47501 2.36573L11.7312 1.40491H13.4488V12.5251L11.4858 12.5235Z"
    fill="#A7B0B5" />
  <path
    d="M26.7541 14H22.3718V12.0097H24.6976V1.97178H22.3718V0H26.7541V13.9971V14ZM20.6311 14H16.2488V0H20.6311V1.97178H18.3024V12.0097H20.6311V14Z"
    fill="#A7B0B5" />
</svg>
  