<svg width="37" height="18" viewBox="0 0 37 18" fill="none" xmlns="http://www.w3.org/2000/svg">
  <path
    d="M15.1112 15.547C14.9381 15.547 14.7313 15.5118 14.4964 15.4425C14.2646 15.3741 14.0312 15.2753 13.8026 15.1486L13.7305 15.1086V15.0262V13.7426V13.5488L13.9145 13.6097C14.1697 13.6942 14.3774 13.7623 14.5376 13.8139C14.7135 13.8706 14.7656 13.8823 14.7789 13.8847C14.8789 13.8839 14.9604 13.864 15.0212 13.8254C15.0384 13.8145 15.084 13.7856 15.084 13.6651V10.3787C15.084 10.1086 15.1697 9.83551 15.3387 9.56716C15.4686 9.36072 15.6347 9.18101 15.8338 9.03097C15.7606 8.97452 15.6916 8.91312 15.6275 8.84729C15.5156 8.73234 15.4181 8.60791 15.3379 8.47744C15.2568 8.3456 15.1937 8.20653 15.1503 8.06406C15.1063 7.91981 15.084 7.77558 15.084 7.63538V4.34902C15.084 4.24425 15.0456 4.20565 15.0167 4.18573C14.9557 4.14364 14.8737 4.12231 14.7729 4.12231C14.7521 4.12486 14.6155 4.15654 13.9252 4.44967L13.7305 4.53237V4.32081V2.98793V2.90697L13.8007 2.86659C14.0294 2.73498 14.263 2.6323 14.4951 2.56138C14.7304 2.48947 14.9377 2.453 15.1112 2.453C15.4161 2.453 15.6957 2.49589 15.9424 2.58047C16.1915 2.66586 16.4056 2.78511 16.5789 2.93494C16.7541 3.08645 16.8903 3.26894 16.9836 3.4773C17.0765 3.68495 17.1236 3.90942 17.1236 4.14451V7.27571C17.1236 7.36839 17.1308 7.47546 17.1451 7.59393C17.1586 7.70575 17.1847 7.81005 17.2225 7.90395C17.2577 7.99143 17.3056 8.06279 17.3689 8.12212C17.4201 8.17018 17.4909 8.19355 17.5851 8.19355H18.2469H18.3869V8.33355V9.68759V9.82759H18.2469H17.5851C17.4909 9.82759 17.4201 9.85095 17.3688 9.89903C17.3056 9.95835 17.2577 10.0297 17.2225 10.1172C17.1846 10.2111 17.1586 10.3154 17.1451 10.4272C17.1308 10.5457 17.1236 10.6527 17.1236 10.7454V13.8625C17.1236 14.1072 17.0764 14.3354 16.9833 14.5409C16.89 14.7467 16.754 14.9278 16.5789 15.0792C16.4049 15.2296 16.19 15.3467 15.94 15.4274C15.6941 15.5067 15.4152 15.547 15.1112 15.547ZM8.57602 15.547C8.27187 15.547 7.99415 15.5067 7.75058 15.4272C7.50361 15.3467 7.28909 15.2298 7.11297 15.0799C6.93497 14.9283 6.79738 14.747 6.70398 14.5409C6.61087 14.3354 6.56366 14.1072 6.56366 13.8625V10.7454C6.56366 10.6527 6.55641 10.5457 6.54212 10.4272C6.52851 10.3145 6.50341 10.2093 6.46748 10.1145C6.43474 10.0281 6.38842 9.95763 6.32591 9.89902C6.27466 9.85095 6.20637 9.82759 6.11715 9.82759H5.4479H5.3079V9.68759V8.33355V8.19355H5.4479H6.11715C6.20638 8.19355 6.27467 8.17018 6.32591 8.12212C6.38842 8.0635 6.43474 7.99301 6.4675 7.90662C6.50341 7.8119 6.52851 7.70667 6.54212 7.59393C6.55641 7.47546 6.56366 7.36839 6.56366 7.27571V4.14451C6.56366 3.90942 6.61079 3.68495 6.7037 3.4773C6.79711 3.2686 6.9348 3.08589 7.11297 2.93423C7.28841 2.78487 7.50211 2.6659 7.74815 2.58061C7.99246 2.49594 8.27099 2.453 8.57602 2.453C8.65994 2.453 8.75507 2.46339 8.85881 2.48386C8.95793 2.50344 9.06599 2.53062 9.18002 2.56462C9.29523 2.59901 9.41322 2.64252 9.53074 2.69396C9.64781 2.74518 9.76263 2.80337 9.872 2.86686L9.94171 2.90732V2.98793V4.32081V4.53564L9.74518 4.44889C9.49354 4.33782 9.29006 4.2535 9.1404 4.19829C8.97284 4.13645 8.92188 4.12457 8.90928 4.12233C8.81158 4.12303 8.73308 4.14397 8.67591 4.18459C8.64794 4.20446 8.61076 4.24313 8.61076 4.34902V7.63538C8.61076 7.91404 8.5255 8.1959 8.35736 8.47316C8.22605 8.68963 8.05622 8.87736 7.85101 9.03318C7.92083 9.08728 7.98737 9.14534 8.05003 9.2069C8.1621 9.31701 8.26097 9.4377 8.34386 9.56562C8.42743 9.69456 8.49318 9.82832 8.5393 9.96316C8.58672 10.1018 8.61076 10.2416 8.61076 10.3787V13.6651C8.61076 13.7868 8.65483 13.8156 8.67143 13.8264C8.72962 13.8645 8.80965 13.8841 8.90936 13.8847C8.92166 13.8828 8.9722 13.8726 9.14893 13.82C9.3031 13.7741 9.50618 13.704 9.75254 13.6116L9.94171 13.5406V13.7426V15.0262V15.1068L9.872 15.1472C9.76196 15.2111 9.64638 15.2684 9.52847 15.3176C9.41161 15.3663 9.29438 15.4083 9.18002 15.4424C9.06499 15.4767 8.9558 15.5029 8.85553 15.5203C8.75284 15.538 8.6588 15.547 8.57602 15.547Z"
    fill="#A7B0B5" />
  <path
    d="M8.57602 2.59299C8.28527 2.59299 8.02459 2.63296 7.794 2.71288C7.5634 2.79281 7.36663 2.90212 7.20371 3.04081C7.0408 3.1795 6.91671 3.34406 6.8315 3.53447C6.74628 3.72489 6.70366 3.92822 6.70366 4.1445V7.27569C6.70366 7.37444 6.69614 7.48609 6.68111 7.61069C6.66607 7.73527 6.63849 7.85045 6.5984 7.95625C6.55829 8.06202 6.49939 8.15135 6.42169 8.22422C6.34397 8.29711 6.24246 8.33353 6.11715 8.33353H5.4479V9.68757H6.11715C6.24246 9.68757 6.34397 9.72401 6.42169 9.79688C6.49939 9.86975 6.55829 9.95909 6.5984 10.0649C6.63849 10.1707 6.66607 10.2858 6.68111 10.4104C6.69614 10.535 6.70366 10.6467 6.70366 10.7454V13.8625C6.70366 14.0882 6.74628 14.2951 6.8315 14.4831C6.91671 14.6712 7.0408 14.8345 7.20371 14.9732C7.36663 15.1119 7.5634 15.2189 7.794 15.2941C8.02459 15.3693 8.28527 15.407 8.57602 15.407C8.65123 15.407 8.73645 15.3987 8.83169 15.3823C8.92695 15.3658 9.02971 15.3411 9.14 15.3082C9.25028 15.2753 9.36181 15.2354 9.47461 15.1883C9.58741 15.1413 9.69644 15.0873 9.80171 15.0261V13.7426C9.55107 13.8367 9.34678 13.9072 9.18887 13.9542C9.03097 14.0012 8.93948 14.0247 8.9144 14.0247C8.78406 14.0247 8.67754 13.9977 8.59482 13.9436C8.51211 13.8895 8.47076 13.7967 8.47076 13.665V10.3787C8.47076 10.2564 8.44945 10.133 8.40683 10.0085C8.36423 9.88387 8.30407 9.76162 8.22637 9.64174C8.14867 9.52184 8.05718 9.41018 7.9519 9.30674C7.84664 9.20331 7.73133 9.11164 7.606 9.03171C7.8717 8.86716 8.08224 8.65677 8.23766 8.40054C8.39306 8.1443 8.47076 7.88924 8.47076 7.63537V4.34901C8.47076 4.22207 8.51211 4.12921 8.59482 4.07045C8.67754 4.01168 8.78406 3.98229 8.9144 3.98229C8.94449 3.98229 9.03598 4.0105 9.18887 4.06692C9.34177 4.12334 9.54605 4.20796 9.80171 4.3208V2.98791C9.69644 2.9268 9.58741 2.87156 9.47461 2.8222C9.36181 2.77283 9.25028 2.73169 9.14 2.69877C9.02971 2.66587 8.92695 2.64001 8.83169 2.6212C8.73645 2.6024 8.65123 2.59299 8.57602 2.59299ZM15.1112 2.59299C14.9508 2.59299 14.7591 2.62708 14.536 2.69524C14.3129 2.76342 14.0911 2.86098 13.8705 2.98791V4.3208C14.4019 4.09513 14.7027 3.98229 14.7729 3.98229C14.9032 3.98229 15.011 4.01168 15.0962 4.07045C15.1814 4.12921 15.224 4.22207 15.224 4.34901V7.63537C15.224 7.76231 15.2441 7.8916 15.2842 8.02324C15.3243 8.15488 15.3819 8.28182 15.4571 8.40407C15.5323 8.5263 15.6226 8.64149 15.7278 8.74961C15.8331 8.85775 15.9509 8.95179 16.0813 9.03171C15.8206 9.19157 15.6125 9.3949 15.4571 9.64174C15.3017 9.88856 15.224 10.1342 15.224 10.3787V13.665C15.224 13.7967 15.1814 13.8895 15.0962 13.9436C15.011 13.9977 14.9032 14.0247 14.7729 14.0247C14.7478 14.0247 14.655 13.9989 14.4946 13.9471C14.3342 13.8954 14.1262 13.8272 13.8705 13.7426V15.0261C14.0911 15.1484 14.3129 15.2424 14.536 15.3082C14.7591 15.374 14.9508 15.407 15.1112 15.407C15.402 15.407 15.6639 15.3693 15.897 15.2941C16.1301 15.2189 16.3269 15.1119 16.4873 14.9732C16.6477 14.8345 16.7705 14.6712 16.8558 14.4831C16.941 14.2951 16.9836 14.0882 16.9836 13.8625V10.7454C16.9836 10.6467 16.9911 10.535 17.0062 10.4104C17.0212 10.2858 17.05 10.1707 17.0926 10.0649C17.1352 9.95909 17.1954 9.86975 17.2731 9.79688C17.3508 9.72401 17.4548 9.68757 17.5851 9.68757H18.2469V8.33353H17.5851C17.4548 8.33353 17.3508 8.29711 17.2731 8.22422C17.1954 8.15135 17.1352 8.06202 17.0926 7.95625C17.05 7.85045 17.0212 7.73527 17.0062 7.61069C16.9911 7.48609 16.9836 7.37444 16.9836 7.27569V4.1445C16.9836 3.92822 16.941 3.72489 16.8558 3.53447C16.7705 3.34406 16.6477 3.1795 16.4873 3.04081C16.3269 2.90212 16.1301 2.79281 15.897 2.71288C15.6639 2.63296 15.402 2.59299 15.1112 2.59299ZM8.57602 2.31299C8.66901 2.31299 8.77328 2.32426 8.88593 2.3465C8.98939 2.36694 9.10179 2.39518 9.22004 2.43046C9.34072 2.46647 9.46413 2.51197 9.58686 2.56569C9.70878 2.61903 9.82835 2.67962 9.94228 2.74576L10.0817 2.8267V4.75044L9.68864 4.57696C9.43964 4.46706 9.23888 4.38383 9.09194 4.3296C8.97012 4.28465 8.91565 4.26831 8.89442 4.26264C8.83392 4.26478 8.78778 4.27686 8.75708 4.29864C8.75708 4.29864 8.75076 4.31361 8.75076 4.34901V7.63537C8.75076 7.93999 8.65868 8.24629 8.47707 8.54573C8.36638 8.72821 8.23025 8.8915 8.07033 9.03394C8.09684 9.05774 8.12279 9.08211 8.14814 9.10702C8.2675 9.22428 8.37288 9.35296 8.46135 9.48946C8.55114 9.62802 8.62194 9.77215 8.67177 9.91786C8.72418 10.0711 8.75076 10.2261 8.75076 10.3787V13.665C8.75076 13.6912 8.75366 13.7064 8.75569 13.7139C8.78843 13.7323 8.83677 13.7428 8.89692 13.7445C8.91792 13.7399 8.97368 13.7261 9.10897 13.6858C9.26005 13.6408 9.46002 13.5717 9.70336 13.4805L10.0817 13.3385V15.1873L9.94231 15.2683C9.82698 15.3352 9.70586 15.3953 9.58233 15.4468C9.46098 15.4974 9.33908 15.541 9.22005 15.5765C9.09972 15.6124 8.9851 15.6399 8.87937 15.6582C8.76883 15.6773 8.66677 15.687 8.57602 15.687C8.2571 15.687 7.96477 15.6443 7.70715 15.5603C7.44275 15.4741 7.2123 15.3483 7.0222 15.1865C6.8284 15.0214 6.67843 14.8237 6.57646 14.5987C6.47507 14.3749 6.42366 14.1273 6.42366 13.8625V10.7454C6.42366 10.6583 6.41675 10.5569 6.40312 10.444C6.39087 10.3425 6.36849 10.2483 6.33657 10.1641C6.31156 10.0981 6.27675 10.0448 6.23015 10.0011C6.22038 9.99196 6.19437 9.96757 6.11715 9.96757H5.1679V8.05353H6.11715C6.19437 8.05353 6.22037 8.02916 6.23014 8.01999C6.27675 7.97628 6.31156 7.92296 6.33658 7.85696C6.36849 7.77282 6.39087 7.67864 6.40312 7.57714C6.41675 7.46422 6.42366 7.36279 6.42366 7.27569V4.1445C6.42366 3.88957 6.47489 3.64584 6.57593 3.42009C6.6779 3.19224 6.82805 2.9929 7.0222 2.8276C7.21097 2.66692 7.43978 2.53931 7.7023 2.44833C7.96139 2.35852 8.25535 2.31299 8.57602 2.31299ZM15.1112 2.31299C15.4316 2.31299 15.7265 2.35842 15.9878 2.44802C16.2539 2.53924 16.4835 2.66741 16.6704 2.82899C16.8613 2.99403 17.0097 3.1929 17.1113 3.42009C17.2124 3.64584 17.2636 3.88957 17.2636 4.1445V7.27569C17.2636 7.36279 17.2705 7.46422 17.2841 7.57714C17.2962 7.67675 17.3191 7.7691 17.3524 7.85163C17.3798 7.91982 17.4165 7.97488 17.4646 8.01999C17.4735 8.02828 17.5004 8.05353 17.5851 8.05353H18.5269V9.96757H17.5851C17.5004 9.96757 17.4735 9.99284 17.4646 10.0011C17.4165 10.0462 17.3798 10.1013 17.3524 10.1695C17.3191 10.252 17.2962 10.3444 17.2841 10.444C17.2705 10.5569 17.2636 10.6583 17.2636 10.7454V13.8625C17.2636 14.1273 17.2122 14.3749 17.1108 14.5987C17.0091 14.823 16.861 15.0203 16.6704 15.1851C16.4822 15.3478 16.2509 15.4741 15.983 15.5606C15.7232 15.6444 15.4298 15.687 15.1112 15.687C14.9221 15.687 14.708 15.6509 14.4567 15.5768C14.2152 15.5055 13.9723 15.4027 13.7348 15.2711L13.5905 15.1911V13.355L13.9585 13.4768C14.2133 13.5611 14.4207 13.6291 14.5805 13.6807C14.7138 13.7236 14.7705 13.739 14.7928 13.7444C14.8548 13.7425 14.904 13.7314 14.9394 13.7113C14.9413 13.7042 14.944 13.6898 14.944 13.665V10.3787C14.944 10.0817 15.0369 9.7836 15.2202 9.49255C15.3287 9.32014 15.4606 9.16525 15.6144 9.02939C15.5845 9.00207 15.5554 8.97391 15.5272 8.94494C15.4081 8.82261 15.3043 8.69 15.2186 8.5508C15.1313 8.40877 15.0632 8.25875 15.0163 8.10484C14.9684 7.94736 14.944 7.78941 14.944 7.63537V4.34901C14.944 4.31311 14.9373 4.30037 14.9373 4.30037C14.9029 4.27722 14.8531 4.26436 14.7891 4.26252C14.7434 4.27344 14.5742 4.32618 13.98 4.57852L13.5905 4.74391V2.82599L13.7309 2.74522C13.9686 2.60839 14.212 2.50148 14.4542 2.42747C14.7063 2.35044 14.9212 2.31299 15.1112 2.31299Z"
    fill="#A7B0B5" />
  <path
    d="M31.8321 16H27.4498V14.0097H29.7756V3.97178H27.4498V2H31.8321V15.9971V16ZM25.7092 16H21.3269V2H25.7092V3.97178H23.3804V14.0097H25.7092V16Z"
    fill="#A7B0B5" />
</svg>
  