<svg width="37" height="18" viewBox="0 0 37 18" fill="none" xmlns="http://www.w3.org/2000/svg">
  <path
    d="M4.76637 5.9217H6.2448V10.1421C6.25054 10.5089 6.15618 10.8702 5.97187 11.1874C5.79173 11.4932 5.52776 11.7411 5.21118 11.9016C4.87444 12.0733 4.5009 12.1602 4.12297 12.1548C3.55713 12.1901 2.99893 12.0096 2.56093 11.6496C2.36979 11.4646 2.22098 11.2404 2.12475 10.9924C2.02852 10.7444 1.98714 10.4785 2.00347 10.213H3.49003C3.47239 10.4272 3.52322 10.6415 3.6352 10.825C3.69591 10.8927 3.77167 10.9453 3.8564 10.9783C3.94112 11.0114 4.03243 11.0241 4.12297 11.0155C4.21527 11.0196 4.30712 11.0005 4.39012 10.96C4.47311 10.9194 4.54458 10.8586 4.59797 10.7832C4.72007 10.5913 4.77858 10.3657 4.76521 10.1386L4.76637 5.9217ZM10.4373 10.4383C10.4416 10.3415 10.4228 10.2451 10.3824 10.157C10.342 10.069 10.2812 9.99179 10.2051 9.93191C9.95551 9.76458 9.68117 9.6376 9.39211 9.55563C9.0687 9.45106 8.75252 9.32537 8.44559 9.17935C8.10885 9.0594 7.81567 8.84149 7.60375 8.55361C7.39182 8.26573 7.27084 7.92106 7.25635 7.56388C7.25107 7.2382 7.35582 6.92026 7.55366 6.6615C7.77374 6.38559 8.06541 6.17547 8.39681 6.0541C8.78763 5.90418 9.20353 5.83046 9.62206 5.83692C10.0305 5.82879 10.4359 5.90798 10.8113 6.0692C11.141 6.21159 11.4231 6.44532 11.6243 6.74279C11.8199 7.03872 11.9215 7.38687 11.9158 7.74157H10.4408C10.4466 7.63372 10.4288 7.52589 10.3887 7.42561C10.3486 7.32532 10.2871 7.23499 10.2086 7.16088C10.0346 7.01593 9.8122 6.94209 9.58606 6.95416C9.36339 6.94189 9.14292 7.00354 8.95892 7.12953C8.88679 7.17931 8.82792 7.24596 8.78744 7.32369C8.74696 7.40141 8.72609 7.48786 8.72664 7.57549C8.73147 7.66197 8.75699 7.74603 8.80104 7.8206C8.8451 7.89517 8.90641 7.95808 8.97982 8.00404C9.25468 8.18123 9.5551 8.31518 9.87059 8.40123C10.2334 8.51163 10.5837 8.65953 10.9158 8.84255C11.2166 8.98474 11.4709 9.20922 11.6493 9.48999C11.8277 9.77076 11.9229 10.0963 11.9239 10.429C11.9335 10.6738 11.8831 10.9173 11.777 11.1381C11.6709 11.359 11.5124 11.5505 11.3153 11.696C10.825 12.0296 10.2386 12.1928 9.64645 12.1606C9.1798 12.1667 8.71713 12.0741 8.28881 11.8888C7.91922 11.7383 7.60186 11.4827 7.37597 11.1537C7.16905 10.8337 7.0623 10.4592 7.06937 10.0782H8.55592C8.54475 10.2108 8.56174 10.3442 8.60578 10.4697C8.64981 10.5952 8.71989 10.7099 8.81142 10.8064C9.05021 10.9834 9.34586 11.0661 9.6418 11.0387C9.84733 11.05 10.051 10.9946 10.2225 10.8808C10.2919 10.8303 10.3478 10.7635 10.3852 10.6864C10.4227 10.6092 10.4406 10.524 10.4373 10.4383ZM17.9746 9.12476C17.9855 9.6739 17.8715 10.2183 17.6413 10.717C17.437 11.1581 17.1069 11.529 16.6925 11.7831C16.2696 12.036 15.7845 12.1655 15.2919 12.1571C14.8031 12.1662 14.3211 12.0413 13.8982 11.7959C13.4886 11.551 13.1589 11.1923 12.9494 10.7635C12.7151 10.2831 12.5931 9.75565 12.5928 9.22115V8.87274C12.5818 8.32297 12.6954 7.77783 12.925 7.27818C13.1293 6.83668 13.4599 6.46567 13.875 6.21205C14.3003 5.95783 14.7883 5.8275 15.2837 5.83576C15.7738 5.8275 16.2565 5.95621 16.6774 6.2074C17.0905 6.46056 17.4212 6.82807 17.6297 7.26541C17.8653 7.75618 17.9846 8.2947 17.9781 8.83906L17.9746 9.12476ZM16.4648 8.86694C16.4954 8.38283 16.3891 7.8999 16.1582 7.47329C16.0678 7.32308 15.9388 7.19981 15.7846 7.11628C15.6304 7.03276 15.4567 6.99202 15.2814 6.99829C14.5381 6.99829 14.1452 7.55575 14.1026 8.67067V9.12244C14.0738 9.6056 14.1774 10.0875 14.4023 10.5161C14.4924 10.6705 14.6231 10.7973 14.78 10.8828C14.937 10.9684 15.1144 11.0094 15.293 11.0015C15.467 11.0072 15.6393 10.9658 15.7917 10.8818C15.9442 10.7978 16.0712 10.6743 16.1594 10.5242C16.3872 10.104 16.4941 9.6288 16.4683 9.15147L16.4648 8.86694ZM23.9603 12.0735H22.4924L20.3125 8.24096V12.0735H18.8259V5.91822H20.309L22.4842 9.75074V5.91822H23.9627L23.9603 12.0735Z"
    fill="#A7B0B5" />
  <path
    d="M35 14.8069H31.3647V13.1558H33.294V4.82887H31.3647V3.19318H35V14.8045V14.8069ZM29.9207 14.8069H26.2854V3.19318H29.9207V4.82887H27.9889V13.1558H29.9207V14.8069Z"
    fill="#A7B0B5" />
</svg>
