<svg width="37" height="18" viewBox="0 0 37 18" fill="none" xmlns="http://www.w3.org/2000/svg">
  <path
    d="M18.4929 13.4983C18.1087 13.3726 17.7659 13.1312 17.5047 12.8026C17.2007 12.382 16.9933 11.8898 16.8997 11.3663C16.7511 10.5814 16.6838 9.78122 16.6989 8.98037C16.6834 8.19877 16.755 7.41802 16.9112 6.6546C17.0143 6.13275 17.2277 5.64362 17.5353 5.22569C17.7995 4.89088 18.1456 4.64311 18.5344 4.51059C18.9568 4.37283 19.3964 4.30591 19.8377 4.31224C20.1959 4.31081 20.554 4.33336 20.9096 4.37982C21.2399 4.4249 21.541 4.47748 21.8073 4.54058C22.0383 4.59056 22.2661 4.65893 22.4878 4.74498L22.5348 4.76598V6.33007L22.4456 6.30751C22.3062 6.27445 22.1291 6.24286 21.9005 6.21131C21.6719 6.17976 21.4085 6.15275 21.1172 6.13171C20.8259 6.11068 20.5156 6.10164 20.1936 6.10164C19.9269 6.09547 19.6602 6.13349 19.4042 6.21434C19.202 6.2817 19.0274 6.42175 18.9094 6.61104C18.762 6.87619 18.6675 7.1713 18.631 7.47791C18.5609 7.97907 18.5287 8.48561 18.5358 8.99238C18.5306 9.48722 18.5586 9.98178 18.6195 10.4723C18.6545 10.7818 18.746 11.0809 18.8876 11.3527C19.0027 11.548 19.175 11.6958 19.3776 11.772C19.6431 11.8616 19.921 11.9031 20.1991 11.8951C20.7691 11.8951 21.2389 11.8831 21.5929 11.8591C21.9469 11.8351 22.2391 11.8065 22.4565 11.7749L22.5402 11.7629V13.3075L22.4905 13.327C22.2565 13.4085 22.0174 13.4728 21.7753 13.5193C21.5118 13.5734 21.2179 13.614 20.896 13.644C20.574 13.6741 20.2144 13.6876 19.8214 13.6876C19.3724 13.695 18.9246 13.6313 18.4929 13.4983ZM16.7731 8.98037C16.758 9.77468 16.825 10.5684 16.9725 11.3468C17.0638 11.8571 17.2656 12.337 17.5619 12.7471C17.813 13.0656 18.1441 13.2993 18.5153 13.4202C18.9381 13.5497 19.3764 13.6115 19.8159 13.6035C20.2076 13.6035 20.5639 13.59 20.8817 13.5599C21.1748 13.5352 21.4664 13.494 21.7555 13.4367C21.9915 13.3912 22.2244 13.3284 22.4524 13.2489C22.2243 13.3289 21.9915 13.3926 21.7555 13.4397C21.4907 13.4908 21.1981 13.5328 20.8817 13.5628C20.5653 13.5929 20.2089 13.6049 19.8173 13.6049C19.3778 13.6128 18.9395 13.551 18.5167 13.4216C18.1458 13.3009 17.8147 13.0678 17.5632 12.7501C17.2662 12.3405 17.0643 11.8604 16.9739 11.3498C16.8252 10.571 16.7578 9.77526 16.7731 8.98037ZM16.9834 6.67414C16.8992 7.05238 16.8426 7.43719 16.8146 7.82501C16.8424 7.43657 16.8994 7.05114 16.9847 6.67258C17.0469 6.39129 17.1351 6.11745 17.2481 5.85523C17.1341 6.11782 17.0463 6.39223 16.9834 6.67414ZM18.5514 7.4614C18.574 7.31764 18.605 7.17714 18.6447 7.03774C18.604 7.17846 18.5725 7.32196 18.5501 7.46737L18.5514 7.4614ZM21.1219 6.05358C21.4174 6.07462 21.6793 6.10013 21.9107 6.13318C22.1421 6.16623 22.3287 6.19933 22.4681 6.22938C22.3287 6.19632 22.1489 6.16327 21.9175 6.13171C21.6861 6.10016 21.4242 6.07315 21.1301 6.05212C20.836 6.03108 20.5238 6.02057 20.1991 6.02057C20.5178 6.01857 20.8235 6.02952 21.1172 6.05056L21.1219 6.05358ZM10.0606 13.5734V4.35882H13.4376C14.116 4.2966 14.7893 4.5267 15.3106 4.99882C15.5176 5.24253 15.6772 5.52871 15.7795 5.84028C15.8817 6.15185 15.9249 6.48247 15.906 6.81233C15.9133 7.14417 15.866 7.47483 15.7665 7.78897C15.6793 8.05499 15.5365 8.29558 15.3487 8.49205C15.2226 8.61943 15.0761 8.72124 14.9165 8.79256C15.0271 8.83833 15.1342 8.89309 15.2371 8.95634C15.4213 9.07582 15.5855 9.22823 15.7223 9.40706C15.876 9.6087 15.9919 9.84023 16.0646 10.0891C16.1506 10.3841 16.1925 10.6921 16.1878 11.0012C16.2079 11.5212 16.1048 12.0381 15.889 12.5037C15.6915 12.8828 15.3765 13.1743 14.9989 13.327C14.5484 13.5007 14.0717 13.5832 13.5935 13.5704L10.0606 13.5734ZM11.8893 11.7855H13.5404C13.7049 11.7895 13.8684 11.7509 14.0161 11.6728C14.1481 11.5946 14.2536 11.4738 14.3183 11.3272C14.3992 11.1229 14.437 10.9016 14.4285 10.6796C14.4346 10.4848 14.3948 10.2915 14.3128 10.1178C14.2402 9.97303 14.1321 9.8525 14.0005 9.7692C13.8593 9.68534 13.7002 9.64281 13.539 9.64595H11.888L11.8893 11.7855ZM14.2387 11.5887C14.2955 11.5216 14.3426 11.4456 14.3782 11.3633C14.3393 11.443 14.29 11.5164 14.2319 11.5812L14.2387 11.5887ZM13.5418 9.56479C13.7158 9.5612 13.8882 9.60793 14.0399 9.70005C13.8876 9.60871 13.7147 9.56304 13.5404 9.56782L13.5418 9.56479ZM15.6917 7.76191C15.6077 8.01653 15.4697 8.24645 15.2888 8.43345C15.1133 8.61018 14.8977 8.73445 14.664 8.79403C14.8956 8.73323 15.1086 8.60904 15.2826 8.43345C15.4647 8.24711 15.6032 8.01703 15.6869 7.76191C15.7078 7.70031 15.726 7.63572 15.7441 7.56961C15.7232 7.62821 15.7051 7.69124 15.6828 7.75284L15.6917 7.76191ZM11.8907 8.09241H13.4485C13.5472 8.09765 13.6459 8.07717 13.7357 8.03271C13.8255 7.98825 13.9038 7.92113 13.9644 7.83702C14.1003 7.63276 14.1684 7.38491 14.157 7.13384C14.1751 6.99715 14.1664 6.8579 14.1318 6.72494C14.0973 6.59198 14.0376 6.46827 13.9562 6.36161C13.812 6.21927 13.6222 6.14327 13.4267 6.14978H11.8934L11.8907 8.09241ZM13.8569 8.05188C13.9204 8.00673 13.9767 7.95032 14.0229 7.88507C13.9725 7.94695 13.9133 7.99972 13.8473 8.04133L13.8569 8.05188ZM13.4267 6.07009C13.6403 6.06454 13.8471 6.14732 14.0059 6.30146C14.0954 6.41434 14.1621 6.54626 14.2012 6.68862C14.1623 6.5462 14.0976 6.41421 14.0079 6.30146C13.849 6.14641 13.641 6.06456 13.4267 6.07009ZM7.69636 13.5824L7.16279 11.6848H4.41398L3.8913 13.5824H2L4.67872 4.36781H6.90894L9.58765 13.5824H7.69636ZM7.21996 11.6066L7.7508 13.5013L7.2186 11.6037L7.21996 11.6066ZM6.82115 9.97654L5.79008 5.99948L6.82115 9.97204V9.97654ZM4.8543 9.89685H6.72246L5.78804 6.29999L4.8543 9.89685Z"
    fill="#A7B0B5" />
  <path
    d="M35 15.6H30.8682V13.7234H33.0611V4.25913H30.8682V2.40002H35V15.5973V15.6ZM29.227 15.6H25.0951V2.40002H29.227V4.25913H27.0313V13.7234H29.227V15.6Z"
    fill="#A7B0B5" />
</svg>
