<svg width="37" height="18" viewBox="0 0 37 18" fill="none" xmlns="http://www.w3.org/2000/svg">
  <path
    d="M13.2355 10.2985H10.2395L10.7995 7.65393H13.7955L13.2355 10.2985ZM12.2975 14.6553H13.9635L14.5753 11.8273H16.9133V10.2985H14.8959L15.4559 7.65393H17.8163V6.12653H15.7835L16.3785 3.34473H14.7125L14.1175 6.12653H11.1215L11.7165 3.34473H10.0505L9.45549 6.12653H6.78009V7.65533H9.13349L8.57349 10.2999H5.87849V11.8287H8.24729L7.63549 14.6553H9.30149L9.91329 11.8273H12.9093L12.2975 14.6553Z"
    fill="#A7B0B5" />
  <path
    d="M31.1215 16H26.7392V14.0097H29.065V3.97178H26.7392V2H31.1215V15.9971V16ZM24.9986 16H20.6163V2H24.9986V3.97178H22.6698V14.0097H24.9986V16Z"
    fill="#A7B0B5" />
</svg>
  