<svg width="37" height="18" viewBox="0 0 37 18" fill="none" xmlns="http://www.w3.org/2000/svg">
  <path
    d="M18.6588 12.9102V10.5153L16.314 5.08856H18.2032L19.5897 8.55528L20.964 5.08856H22.7891L20.4577 10.5153V12.9102H18.6588ZM19.5909 8.95002L21.0677 5.23473L19.5933 8.94751L19.5909 8.95002ZM14.3816 12.9102L11.4634 8.30039V12.9102H9.65537V5.08856H11.0931L14.0217 9.70085V5.08856H15.8193V12.9102H14.3816ZM14.173 10.2018V5.23595V10.1981V10.2018ZM7.15441 12.9114L6.67496 11.3336H4.32711L3.86169 12.9114H2L4.45338 5.08978H6.57004L9.0222 12.9114H7.15441ZM6.42486 9.83573L5.49768 6.52768L6.42486 9.83321V9.83573ZM4.76447 9.68956H6.2315L5.49646 7.06615L4.76447 9.68956Z"
    fill="#A7B0B5" />
  <path
    d="M35 15.4243H30.9781V13.5976H33.1127V4.3853H30.9781V2.57568H35V15.4216V15.4243ZM29.3806 15.4243H25.3588V2.57568H29.3806V4.3853H27.2434V13.5976H29.3806V15.4243Z"
    fill="#A7B0B5" />
</svg>
