<svg width="37" height="18" viewBox="0 0 37 18" fill="none" xmlns="http://www.w3.org/2000/svg">
  <path
    d="M11.849 2.73639C10.3998 2.736 8.99531 3.23817 7.87485 4.1573C6.75438 5.07643 5.98731 6.35566 5.70434 7.77699C5.42137 9.19832 5.64002 10.6738 6.32303 11.952C7.00604 13.2302 8.11114 14.2319 9.45 14.7866C10.7889 15.3413 12.2787 15.4146 13.6655 14.9939C15.0523 14.5733 16.2504 13.6847 17.0555 12.4797C17.8606 11.2747 18.2229 9.82779 18.0808 8.38556C17.9386 6.94333 17.3007 5.59501 16.2758 4.57039C15.1013 3.39615 13.5099 2.73646 11.849 2.73639ZM14.5692 11.2288C14.5278 11.2995 14.4684 11.3581 14.3972 11.3986C14.3259 11.4392 14.2452 11.4603 14.1632 11.4598C14.0793 11.4611 13.9969 11.4372 13.9267 11.3912L11.9876 10.2334C11.7395 10.0725 11.5337 9.85438 11.3875 9.59733C11.2413 9.34029 11.1591 9.05188 11.1476 8.75639V6.19019C11.1476 6.06562 11.1971 5.94615 11.2852 5.85806C11.3733 5.76998 11.4928 5.72049 11.6174 5.72049C11.7419 5.72049 11.8614 5.76998 11.9495 5.85806C12.0376 5.94615 12.087 6.06562 12.087 6.19019V8.75779C12.0982 8.89031 12.1379 9.01885 12.2034 9.13459C12.2689 9.25034 12.3586 9.35056 12.4664 9.42839L14.4054 10.5862C14.4591 10.6171 14.5061 10.6584 14.5435 10.7078C14.581 10.7572 14.6081 10.8135 14.6234 10.8736C14.6387 10.9336 14.6417 10.9961 14.6324 11.0574C14.6231 11.1186 14.6017 11.176 14.5692 11.2288Z"
    fill="#A7B0B5" />
  <path
    d="M31.4162 16H27.034V14.0097H29.3598V3.97178H27.034V2H31.4162V15.9971V16ZM25.2933 16H20.911V2H25.2933V3.97178H22.9645V14.0097H25.2933V16Z"
    fill="#A7B0B5" />
</svg>
