<svg width="37" height="18" viewBox="0 0 37 18" fill="none" xmlns="http://www.w3.org/2000/svg">
  <path
    d="M11.5128 15.839H7.08479C6.65855 15.7766 6.27289 15.5511 6.00956 15.2102C5.74624 14.8693 5.62547 14.4395 5.67278 14.0113V4.96694C5.67278 4.70452 5.77696 4.45284 5.96239 4.26716C6.14782 4.08148 6.3991 3.977 6.66151 3.97665H7.64959V2.28314C7.64959 2.20805 7.67905 2.13607 7.73215 2.08297C7.78525 2.02987 7.85755 2 7.93265 2H8.75102C8.82612 2 8.89842 2.02987 8.95152 2.08297C9.00462 2.13607 9.03408 2.20805 9.03408 2.28314V3.97665H14.1737V2.28314C14.1737 2.24596 14.1811 2.20913 14.1953 2.17478C14.2095 2.14043 14.2306 2.10926 14.2569 2.08297C14.2832 2.05668 14.3143 2.03577 14.3486 2.02154C14.383 2.00731 14.4195 2 14.4567 2H15.2738C15.3489 2 15.4212 2.02987 15.4743 2.08297C15.5274 2.13607 15.5575 2.20805 15.5575 2.28314V3.97665H16.5462C16.8086 3.977 17.0599 4.08148 17.2454 4.26716C17.4308 4.45284 17.535 4.70452 17.535 4.96694V8.72424C17.1109 8.44492 16.6443 8.23688 16.1531 8.10833V6.99052H7.05203V14.0167C7.0446 14.1756 7.08869 14.3327 7.17717 14.4649H10.623C10.8351 14.973 11.1356 15.4395 11.5102 15.843L11.5128 15.839ZM8.83555 13.2169C8.5908 13.2162 8.35641 13.1185 8.1836 12.9452C8.01079 12.7719 7.91365 12.5371 7.91365 12.2923C7.91365 12.0474 8.01115 11.8124 8.18425 11.6391C8.35735 11.4657 8.59188 11.3682 8.83686 11.3678C9.08184 11.3682 9.31702 11.4657 9.49012 11.6391C9.66322 11.8124 9.76007 12.0474 9.76007 12.2923C9.76007 12.5376 9.66285 12.7728 9.48946 12.9462C9.31607 13.1196 9.08076 13.2169 8.83555 13.2169ZM8.83555 10.1869C8.5908 10.1862 8.35641 10.0885 8.1836 9.91519C8.01079 9.74188 7.91365 9.50709 7.91365 9.26234C7.91365 9.01736 8.01115 8.78244 8.18425 8.60908C8.35735 8.43573 8.59188 8.33818 8.83686 8.33782C9.08184 8.33818 9.31702 8.43573 9.49012 8.60908C9.66322 8.78244 9.76007 9.01736 9.76007 9.26234C9.75971 9.50732 9.66216 9.74217 9.48881 9.91527C9.31545 10.0884 9.08053 10.1856 8.83555 10.1856V10.1869ZM11.0646 10.0152C10.9455 9.92937 10.8485 9.81642 10.7816 9.68578C10.7146 9.55514 10.6795 9.41053 10.6793 9.26373C10.6793 9.01876 10.7769 8.78375 10.95 8.61039C11.1231 8.43704 11.3576 8.33949 11.6026 8.33913C11.7511 8.33936 11.8974 8.3753 12.0291 8.44397C12.1608 8.51263 12.2741 8.61201 12.3593 8.73366C11.8492 9.07249 11.4103 9.50785 11.0672 10.0152H11.0646Z"
    fill="#A7B0B5" />
  <path
    d="M14.9586 9.29053C14.1825 9.29067 13.4304 9.55992 12.8305 10.0524C12.2307 10.5449 11.8201 11.2301 11.6688 11.9914C11.5175 12.7526 11.6349 13.5428 12.0009 14.2272C12.3668 14.9116 12.9588 15.448 13.6759 15.7449C14.393 16.0418 15.1909 16.0808 15.9335 15.8554C16.6762 15.63 17.3178 15.1541 17.7489 14.5087C18.18 13.8633 18.3739 13.0884 18.2978 12.316C18.2216 11.5436 17.8799 10.8215 17.3311 10.2728C17.0195 9.9613 16.6496 9.71423 16.2425 9.54569C15.8355 9.37715 15.3992 9.29045 14.9586 9.29053ZM16.4159 13.8396C16.3937 13.8774 16.3619 13.9088 16.3238 13.9305C16.2856 13.9521 16.2424 13.9634 16.1985 13.963C16.1533 13.964 16.1089 13.9514 16.071 13.9268L15.0324 13.3068C14.8997 13.2207 14.7896 13.1039 14.7114 12.9664C14.6332 12.8288 14.5891 12.6745 14.5829 12.5165V11.1397C14.5829 11.0729 14.6094 11.0089 14.6566 10.9618C14.7037 10.9146 14.7677 10.8881 14.8345 10.8881C14.9012 10.8881 14.9652 10.9146 15.0124 10.9618C15.0596 11.0089 15.0861 11.0729 15.0861 11.1397V12.5151C15.0923 12.586 15.1138 12.6547 15.149 12.7165C15.1842 12.7783 15.2323 12.8318 15.29 12.8734L16.3287 13.4934C16.3574 13.51 16.3825 13.5321 16.4024 13.5586C16.4224 13.585 16.4369 13.6152 16.4451 13.6474C16.4532 13.6795 16.4548 13.713 16.4498 13.7458C16.4448 13.7785 16.4333 13.81 16.4159 13.8382V13.8396Z"
    fill="#454450" />
  <path
    d="M31.3372 15.8517H27.0478V13.9035H29.3243V4.07832H27.0478V2.14832H31.3372V15.8489V15.8517ZM25.344 15.8517H21.0546V2.14832H25.344V4.07832H23.0646V13.9035H25.344V15.8517Z"
    fill="#A7B0B5" />
</svg>
