<svg width="37" height="18" viewBox="0 0 37 18" fill="none" xmlns="http://www.w3.org/2000/svg">
  <path
    d="M10.285 5.9217H11.7635V10.1421C11.7692 10.5089 11.6749 10.8702 11.4906 11.1874C11.3104 11.4932 11.0464 11.7411 10.7299 11.9016C10.3931 12.0733 10.0196 12.1602 9.64165 12.1548C9.0758 12.1901 8.51761 12.0096 8.07961 11.6496C7.88846 11.4646 7.73966 11.2404 7.64343 10.9924C7.54719 10.7444 7.50582 10.4785 7.52215 10.213H9.0087C8.99106 10.4272 9.0419 10.6415 9.15388 10.825C9.21458 10.8927 9.29035 10.9453 9.37508 10.9783C9.4598 11.0114 9.55111 11.0241 9.64165 11.0155C9.73394 11.0196 9.8258 11.0005 9.90879 10.96C9.99179 10.9194 10.0633 10.8586 10.1167 10.7832C10.2387 10.5913 10.2973 10.3657 10.2839 10.1386L10.285 5.9217ZM15.956 10.4383C15.9603 10.3415 15.9415 10.2451 15.9011 10.157C15.8607 10.069 15.7999 9.99179 15.7237 9.93191C15.4742 9.76458 15.1998 9.6376 14.9108 9.55563C14.5874 9.45106 14.2712 9.32537 13.9643 9.17935C13.6275 9.0594 13.3343 8.84149 13.1224 8.55361C12.9105 8.26573 12.7895 7.92106 12.775 7.56388C12.7697 7.2382 12.8745 6.92026 13.0723 6.6615C13.2924 6.38559 13.5841 6.17547 13.9155 6.0541C14.3063 5.90418 14.7222 5.83046 15.1407 5.83692C15.5492 5.82879 15.9546 5.90798 16.33 6.0692C16.6597 6.21159 16.9417 6.44532 17.1429 6.74279C17.3386 7.03872 17.4402 7.38687 17.4344 7.74157H15.9595C15.9653 7.63372 15.9475 7.52589 15.9074 7.42561C15.8673 7.32532 15.8058 7.23499 15.7272 7.16088C15.5532 7.01593 15.3309 6.94209 15.1047 6.95416C14.8821 6.94189 14.6616 7.00354 14.4776 7.12953C14.4055 7.17931 14.3466 7.24596 14.3061 7.32369C14.2656 7.40141 14.2448 7.48786 14.2453 7.57549C14.2501 7.66197 14.2757 7.74603 14.3197 7.8206C14.3638 7.89517 14.4251 7.95808 14.4985 8.00404C14.7734 8.18123 15.0738 8.31518 15.3893 8.40123C15.7521 8.51163 16.1024 8.65953 16.4345 8.84255C16.7352 8.98474 16.9895 9.20922 17.1679 9.48999C17.3464 9.77076 17.4416 10.0963 17.4426 10.429C17.4522 10.6738 17.4018 10.9173 17.2957 11.1381C17.1896 11.359 17.0311 11.5505 16.834 11.696C16.3437 12.0296 15.7573 12.1928 15.1651 12.1606C14.6985 12.1667 14.2358 12.0741 13.8075 11.8888C13.4379 11.7383 13.1205 11.4827 12.8946 11.1537C12.6877 10.8337 12.581 10.4592 12.588 10.0782H14.0746C14.0634 10.2108 14.0804 10.3442 14.1245 10.4697C14.1685 10.5952 14.2386 10.7099 14.3301 10.8064C14.5689 10.9834 14.8645 11.0661 15.1605 11.0387C15.366 11.05 15.5697 10.9946 15.7412 10.8808C15.8105 10.8303 15.8664 10.7635 15.9039 10.6864C15.9414 10.6092 15.9593 10.524 15.956 10.4383ZM23.4933 9.12476C23.5042 9.6739 23.3902 10.2183 23.16 10.717C22.9557 11.1581 22.6256 11.529 22.2112 11.7831C21.7883 12.036 21.3032 12.1655 20.8105 12.1571C20.3217 12.1662 19.8398 12.0413 19.4169 11.7959C19.0072 11.551 18.6776 11.1923 18.4681 10.7635C18.2337 10.2831 18.1118 9.75565 18.1115 9.22115V8.87274C18.1005 8.32297 18.214 7.77783 18.4437 7.27818C18.6479 6.83668 18.9785 6.46567 19.3937 6.21205C19.819 5.95783 20.3069 5.8275 20.8024 5.83576C21.2925 5.8275 21.7752 5.95621 22.1961 6.2074C22.6091 6.46056 22.9399 6.82807 23.1484 7.26541C23.384 7.75618 23.5032 8.2947 23.4968 8.83906L23.4933 9.12476ZM21.9835 8.86694C22.014 8.38283 21.9078 7.8999 21.6769 7.47329C21.5865 7.32308 21.4574 7.19981 21.3032 7.11628C21.1491 7.03276 20.9753 6.99202 20.8001 6.99829C20.0568 6.99829 19.6639 7.55575 19.6213 8.67067V9.12244C19.5925 9.6056 19.6961 10.0875 19.9209 10.5161C20.0111 10.6705 20.1417 10.7973 20.2987 10.8828C20.4557 10.9684 20.6331 11.0094 20.8117 11.0015C20.9857 11.0072 21.158 10.9658 21.3104 10.8818C21.4629 10.7978 21.5899 10.6743 21.6781 10.5242C21.9059 10.104 22.0128 9.6288 21.987 9.15147L21.9835 8.86694ZM29.479 12.0735H28.011L25.8311 8.24096V12.0735H24.3446V5.91822H25.8277L28.0029 9.75074V5.91822H29.4813L29.479 12.0735Z"
    fill="#A7B0B5" />
</svg>
