<svg width="37" height="18" viewBox="0 0 37 18" fill="none" xmlns="http://www.w3.org/2000/svg">
  <path
    d="M11.3729 15.839H6.94489C6.51866 15.7766 6.133 15.5511 5.86967 15.2102C5.60634 14.8693 5.48558 14.4395 5.53289 14.0113V4.96693C5.53289 4.70451 5.63706 4.45284 5.8225 4.26715C6.00793 4.08147 6.2592 3.977 6.52162 3.97664H7.50969V2.28314C7.50969 2.20804 7.53915 2.13607 7.59225 2.08297C7.64535 2.02987 7.71766 2 7.79275 2H8.61112C8.68622 2 8.75852 2.02987 8.81162 2.08297C8.86472 2.13607 8.89418 2.20804 8.89418 2.28314V3.97664H14.0337V2.28314C14.0337 2.24596 14.0411 2.20913 14.0554 2.17478C14.0696 2.14043 14.0907 2.10926 14.117 2.08297C14.1433 2.05668 14.1743 2.03577 14.2087 2.02154C14.243 2.00731 14.2796 2 14.3168 2H15.1339C15.209 2 15.2813 2.02987 15.3344 2.08297C15.3875 2.13607 15.4176 2.20804 15.4176 2.28314V3.97664H16.4063C16.6687 3.977 16.92 4.08147 17.1054 4.26715C17.2909 4.45284 17.395 4.70451 17.395 4.96693V8.72423C16.971 8.44491 16.5044 8.23687 16.0132 8.10832V6.99051H6.91213V14.0167C6.90471 14.1756 6.9488 14.3327 7.03728 14.4649H10.4831C10.6952 14.973 10.9957 15.4395 11.3703 15.843L11.3729 15.839ZM8.69565 13.2169C8.4509 13.2162 8.21651 13.1185 8.0437 12.9452C7.87089 12.7719 7.77375 12.5371 7.77375 12.2923C7.77375 12.0473 7.87126 11.8124 8.04436 11.6391C8.21746 11.4657 8.45198 11.3682 8.69696 11.3678C8.94194 11.3682 9.17712 11.4657 9.35022 11.6391C9.52332 11.8124 9.62017 12.0473 9.62017 12.2923C9.62017 12.5375 9.52295 12.7728 9.34956 12.9462C9.17617 13.1195 8.94086 13.2169 8.69565 13.2169ZM8.69565 10.1869C8.4509 10.1862 8.21651 10.0885 8.0437 9.91518C7.87089 9.74186 7.77375 9.50707 7.77375 9.26233C7.77375 9.01735 7.87126 8.78242 8.04436 8.60907C8.21746 8.43572 8.45198 8.33816 8.69696 8.33781C8.94194 8.33816 9.17712 8.43572 9.35022 8.60907C9.52332 8.78242 9.62017 9.01735 9.62017 9.26233C9.61981 9.50731 9.52226 9.74216 9.34891 9.91526C9.17555 10.0884 8.94063 10.1855 8.69565 10.1855V10.1869ZM10.9247 10.0152C10.8056 9.92935 10.7086 9.81641 10.6417 9.68577C10.5747 9.55512 10.5396 9.41052 10.5394 9.26372C10.5394 9.01874 10.637 8.78373 10.8101 8.61038C10.9832 8.43703 11.2177 8.33947 11.4627 8.33912C11.6112 8.33934 11.7575 8.37529 11.8892 8.44395C12.0209 8.51262 12.1342 8.612 12.2194 8.73364C11.7093 9.07247 11.2704 9.50784 10.9273 10.0152H10.9247Z"
    fill="#A7B0B5" />
  <path
    d="M13.3586 15.635C13.3479 15.635 13.3345 15.6417 13.3251 15.6417C12.6723 15.3165 12.1433 14.7875 11.8181 14.1347C11.8181 14.1254 11.8248 14.1119 11.8248 14.1012C12.2361 14.2201 12.6542 14.3142 13.0768 14.383C13.1469 14.8053 13.2409 15.2234 13.3586 15.635Z"
    fill="#454450" />
  <path
    d="M17.8164 14.1388C17.48 14.8082 16.9312 15.3471 16.2557 15.6712C16.3854 15.2488 16.4876 14.8185 16.5617 14.383C16.983 14.3145 17.3998 14.2204 17.8097 14.1012C17.8056 14.1146 17.8164 14.128 17.8164 14.1388Z"
    fill="#454450" />
  <path
    d="M17.8432 11.2067C17.4228 11.0783 16.9948 10.9761 16.5617 10.9008C16.4899 10.467 16.3877 10.0387 16.2557 9.61926C16.9507 9.95158 17.5109 10.5118 17.8432 11.2067Z"
    fill="#454450" />
  <path
    d="M13.3585 9.65679C13.2402 10.0667 13.147 10.4835 13.0794 10.9048C12.6436 10.9759 12.2132 11.0768 11.7912 11.2067C12.1156 10.531 12.6551 9.98215 13.325 9.64606C13.3344 9.64606 13.3478 9.65679 13.3585 9.65679Z"
    fill="#454450" />
  <path
    d="M15.9874 10.831C15.2093 10.7437 14.4239 10.7437 13.6458 10.831C13.7262 10.3691 13.8406 9.9139 13.988 9.46894C13.9919 9.44452 13.9941 9.41986 13.9947 9.39513C14.2638 9.32767 14.5399 9.29253 14.8173 9.29047C15.0933 9.2926 15.3681 9.32773 15.6358 9.39513C15.6373 9.41992 15.6405 9.44457 15.6452 9.46894C15.7923 9.91402 15.9067 10.3692 15.9874 10.831Z"
    fill="#454450" />
  <path
    d="M13.0031 13.8153C12.5412 13.7353 12.0859 13.621 11.6411 13.4731C11.6166 13.4692 11.592 13.467 11.5673 13.4664C11.4999 13.1978 11.4648 12.9221 11.4626 12.6452C11.4647 12.3691 11.4999 12.0943 11.5673 11.8266C11.5921 11.8247 11.6167 11.8211 11.6411 11.8159C12.0865 11.67 12.5416 11.5557 13.0031 11.4737C12.9192 12.252 12.9192 13.037 13.0031 13.8153Z"
    fill="#454450" />
  <path
    d="M18.172 12.6452C18.1699 12.9225 18.1348 13.1987 18.0673 13.4678C18.0426 13.4683 18.0179 13.4706 17.9935 13.4745C17.5479 13.6195 17.0928 13.7334 16.6315 13.8153C16.7187 13.0372 16.7187 12.2518 16.6315 11.4737C17.0933 11.5541 17.5485 11.6684 17.9935 11.8159C18.0175 11.8227 18.0423 11.8264 18.0673 11.8266C18.1344 12.0944 18.1696 12.3691 18.172 12.6452Z"
    fill="#454450" />
  <path
    d="M15.9874 14.4595C15.9075 14.9214 15.7931 15.3766 15.6452 15.8215C15.64 15.8458 15.6364 15.8705 15.6345 15.8953C15.3668 15.9627 15.092 15.9978 14.8159 16C14.539 15.9978 14.2633 15.9627 13.9947 15.8953C13.9941 15.8706 13.9919 15.8459 13.988 15.8215C13.8421 15.3761 13.7278 14.9209 13.6458 14.4595C14.0346 14.5059 14.4257 14.5305 14.8173 14.5333C15.2084 14.5306 15.5991 14.506 15.9874 14.4595Z"
    fill="#454450" />
  <path
    d="M16.0802 13.9082C15.2417 14.0141 14.3933 14.0141 13.5548 13.9082C13.4489 13.0697 13.4489 12.2213 13.5548 11.3828C14.3933 11.2769 15.2417 11.2769 16.0802 11.3828C16.1861 12.2213 16.1861 13.0697 16.0802 13.9082Z"
    fill="#454450" />
  <path
    d="M31.4772 16H27.0949V14.0097H29.4207V3.97178H27.0949V2H31.4772V15.9971V16ZM25.3543 16H20.972V2H25.3543V3.97178H23.0255V14.0097H25.3543V16Z"
    fill="#A7B0B5" />
</svg>
  