<svg width="37" height="18" viewBox="0 0 37 18" fill="none" xmlns="http://www.w3.org/2000/svg">
  <path
    d="M14.8713 14.5885H12.4642V6.44552L10.1 7.17973V5.24169L14.6503 3.56999H14.8713V14.5885ZM17.2553 12.0406C17.6022 12.0283 17.9405 12.1567 18.2016 12.3998C18.3243 12.5142 18.4218 12.656 18.487 12.815C18.5523 12.974 18.5838 13.1464 18.5791 13.3198C18.5838 13.4932 18.5523 13.6656 18.487 13.8246C18.4218 13.9836 18.3243 14.1254 18.2016 14.2398C17.9405 14.4829 17.6022 14.6113 17.2553 14.599C16.906 14.6131 16.5651 14.4832 16.304 14.2363C16.1827 14.1215 16.0864 13.9801 16.0218 13.8219C15.9572 13.6636 15.9258 13.4923 15.9297 13.3198C15.9258 13.1473 15.9572 12.976 16.0218 12.8177C16.0864 12.6595 16.1827 12.5181 16.304 12.4033C16.5651 12.1564 16.906 12.0265 17.2553 12.0406ZM26.9 14.5885H19.6656V12.9238L22.9976 9.20014C23.642 8.57553 24.0753 7.74309 24.2308 6.83103C24.2563 6.44482 24.153 6.06141 23.939 5.7481C23.8337 5.62161 23.7027 5.52238 23.5558 5.45799C23.4089 5.39361 23.2501 5.36577 23.0916 5.37662C22.9161 5.37406 22.7428 5.41807 22.5873 5.50466C22.4318 5.59125 22.2992 5.71768 22.2013 5.87252C21.9646 6.23478 21.8448 6.66888 21.86 7.10964H19.4496C19.445 6.45078 19.6098 5.80309 19.9261 5.23643C20.2399 4.66702 20.6966 4.20165 21.2451 3.89242C21.8284 3.56494 22.4798 3.39862 23.1394 3.40878C24.0675 3.34432 24.9864 3.63731 25.7278 4.23412C26.0371 4.53101 26.2793 4.8982 26.4366 5.30838C26.5939 5.71856 26.6621 6.16115 26.6362 6.60323C26.6362 7.037 26.559 7.46686 26.4087 7.87014C26.2283 8.33321 25.9899 8.76821 25.6998 9.16334C25.221 9.80209 24.7039 10.4073 24.1517 10.9752L22.8129 12.6171H26.8934L26.9 14.5885Z"
    fill="#A7B0B5" />
</svg>
