<svg width="37" height="18" viewBox="0 0 37 18" fill="none" xmlns="http://www.w3.org/2000/svg">
  <path
    d="M12.9379 13.7658H10.7304V6.73988L8.55859 7.37437V5.69741L12.7363 4.25779H12.9395L12.9379 13.7658ZM20.8232 13.7658H14.1852V12.3246L17.2428 9.11494C17.8337 8.57579 18.2311 7.85739 18.3737 7.07031C18.3959 6.73821 18.3009 6.40884 18.1053 6.13953C18.0089 6.03077 17.8889 5.94546 17.7545 5.89008C17.62 5.8347 17.4748 5.81072 17.3297 5.81996C17.1688 5.81789 17.01 5.85596 16.8675 5.93071C16.725 6.00547 16.6034 6.11456 16.5137 6.24812C16.2973 6.56144 16.1885 6.9365 16.2034 7.31697H13.9897C13.9857 6.74838 14.137 6.18948 14.4272 5.70051C14.7163 5.20831 15.137 4.80647 15.6419 4.54013C16.1768 4.25708 16.7742 4.11305 17.3793 4.12128C18.2309 4.06554 19.074 4.31831 19.7544 4.83333C20.038 5.08959 20.2602 5.40651 20.4044 5.7605C20.5486 6.11449 20.6112 6.49645 20.5874 6.87795C20.5872 7.25245 20.5162 7.62354 20.378 7.97162C20.2127 8.37154 19.994 8.74725 19.728 9.08856C19.2886 9.64039 18.8139 10.1632 18.307 10.6538L17.0784 12.0717H20.8232V13.7658ZM23.8126 8.08797H24.852C25.0179 8.11325 25.1875 8.09972 25.3473 8.04844C25.5071 7.99717 25.6529 7.90954 25.7731 7.79244C25.8934 7.67535 25.9848 7.53197 26.0403 7.37357C26.0959 7.21516 26.1139 7.04605 26.093 6.8795C26.0984 6.73823 26.075 6.59734 26.0243 6.46535C25.9737 6.33337 25.8968 6.21303 25.7983 6.1116C25.6867 6.00614 25.5546 5.92484 25.4102 5.87279C25.2658 5.82074 25.1122 5.79906 24.959 5.8091C24.6834 5.80333 24.4142 5.89323 24.1973 6.06351C24.0968 6.13583 24.0151 6.23117 23.9589 6.34156C23.9028 6.45194 23.8739 6.57416 23.8747 6.698H21.6765C21.6701 6.21855 21.8169 5.74957 22.0953 5.35922C22.3913 4.95322 22.7925 4.6357 23.2557 4.44085C23.7697 4.21665 24.3254 4.10403 24.8861 4.11042C25.7765 4.05903 26.6576 4.31476 27.3822 4.83488C27.6799 5.07174 27.9173 5.37569 28.075 5.72188C28.2328 6.06808 28.3063 6.44669 28.2897 6.82676C28.2873 7.24303 28.1562 7.64836 27.9143 7.98714C27.6352 8.37464 27.2576 8.68047 26.8206 8.87293C27.2888 9.03009 27.7015 9.31941 28.0089 9.70599C28.305 10.1046 28.457 10.5919 28.4402 11.0882C28.4522 11.4817 28.3694 11.8723 28.1988 12.2271C28.0282 12.5819 27.7747 12.8904 27.4597 13.1266C26.7131 13.6655 25.8058 13.9351 24.8861 13.8914C24.2893 13.8965 23.6981 13.7749 23.1518 13.5346C22.66 13.3314 22.2388 12.9884 21.9402 12.548C21.6642 12.1215 21.5211 11.6226 21.5291 11.1146H23.7444C23.7442 11.259 23.7757 11.4018 23.8365 11.5328C23.8973 11.6639 23.9861 11.78 24.0965 11.8732C24.334 12.0877 24.6453 12.2022 24.9652 12.1927C25.3057 12.2109 25.6398 12.0951 25.896 11.8701C26.0092 11.7648 26.0986 11.6366 26.1583 11.494C26.2179 11.3514 26.2465 11.1977 26.242 11.0432C26.261 10.8573 26.2386 10.6694 26.1764 10.4932C26.1142 10.317 26.0136 10.1567 25.8821 10.024C25.5974 9.80892 25.2454 9.70223 24.8892 9.72305H23.8173L23.8126 8.08797Z"
    fill="#A7B0B5" />
</svg>
