<svg width="37" height="18" viewBox="0 0 37 18" fill="none" xmlns="http://www.w3.org/2000/svg">
  <path
    d="M13.5008 3.9994H23.4951C23.6268 3.99886 23.7573 4.02434 23.8792 4.07438C24.001 4.12441 24.1118 4.19801 24.2051 4.29096C24.2984 4.38391 24.3725 4.49437 24.423 4.61601C24.4735 4.73765 24.4996 4.86807 24.4996 4.99978V6.9992H12.5004V4.99978C12.5004 4.73446 12.6058 4.48001 12.7934 4.2924C12.981 4.1048 13.2354 3.9994 13.5008 3.9994Z"
    fill="#A7B0B5" />
  <path
    d="M13.8971 7.04267V14.1512C13.8902 14.3115 13.9344 14.4698 14.0234 14.6033H22.982C23.071 14.4698 23.1152 14.3115 23.1083 14.1512V7.04267H13.8971ZM12.5004 5.64594H24.4996V14.1512C24.5478 14.5844 24.4258 15.0194 24.1594 15.3643C23.893 15.7093 23.5029 15.9372 23.0716 16H13.9284C13.4971 15.9372 13.107 15.7093 12.8406 15.3643C12.5742 15.0194 12.4522 14.5844 12.5004 14.1512V5.64594Z"
    fill="#A7B0B5" />
  <path
    d="M14.7848 2H15.6128C15.6503 2 15.6873 2.00737 15.7219 2.0217C15.7565 2.03602 15.7879 2.05702 15.8144 2.08349C15.8409 2.10996 15.8619 2.14138 15.8762 2.17597C15.8905 2.21055 15.8979 2.24762 15.8979 2.28505V6.00018H14.4998V2.28505C14.4998 2.20945 14.5298 2.13695 14.5833 2.08349C14.6367 2.03003 14.7092 2 14.7848 2Z"
    fill="#A7B0B5" />
  <path
    d="M21.3844 2H22.2124C22.2498 2 22.2869 2.00737 22.3215 2.0217C22.356 2.03602 22.3875 2.05702 22.4139 2.08349C22.4404 2.10996 22.4614 2.14138 22.4757 2.17597C22.4901 2.21055 22.4974 2.24762 22.4974 2.28505V6.00018H21.0993V2.28505C21.0993 2.20945 21.1294 2.13695 21.1828 2.08349C21.2363 2.03003 21.3088 2 21.3844 2Z"
    fill="#A7B0B5" />
  <path
    d="M15.7024 11.4772C15.8871 11.4772 16.0677 11.5319 16.2213 11.6346C16.3748 11.7372 16.4945 11.883 16.5652 12.0537C16.6359 12.2243 16.6544 12.4121 16.6184 12.5932C16.5823 12.7744 16.4934 12.9408 16.3628 13.0714C16.2322 13.202 16.0658 13.2909 15.8846 13.327C15.7035 13.363 15.5157 13.3445 15.3451 13.2738C15.1744 13.2032 15.0286 13.0835 14.9259 12.9299C14.8233 12.7763 14.7686 12.5957 14.7686 12.411C14.7686 12.1634 14.8669 11.9258 15.0421 11.7507C15.2172 11.5756 15.4547 11.4772 15.7024 11.4772Z"
    fill="#A7B0B5" />
  <path
    d="M18.5 8.41223C18.6847 8.41223 18.8652 8.467 19.0188 8.56962C19.1724 8.67223 19.2921 8.81808 19.3628 8.98873C19.4334 9.15937 19.4519 9.34714 19.4159 9.52829C19.3799 9.70945 19.2909 9.87585 19.1603 10.0065C19.0297 10.1371 18.8633 10.226 18.6822 10.262C18.501 10.2981 18.3132 10.2796 18.1426 10.2089C17.972 10.1382 17.8261 10.0185 17.7235 9.86494C17.6209 9.71136 17.5661 9.53081 17.5661 9.34611C17.5661 9.09843 17.6645 8.86089 17.8396 8.68576C18.0148 8.51062 18.2523 8.41223 18.5 8.41223Z"
    fill="#A7B0B5" />
  <path
    d="M18.5 11.4772C18.6847 11.4772 18.8652 11.5319 19.0188 11.6346C19.1724 11.7372 19.2921 11.883 19.3628 12.0537C19.4334 12.2243 19.4519 12.4121 19.4159 12.5932C19.3799 12.7744 19.2909 12.9408 19.1603 13.0714C19.0297 13.202 18.8633 13.2909 18.6822 13.327C18.501 13.363 18.3132 13.3445 18.1426 13.2738C17.972 13.2032 17.8261 13.0835 17.7235 12.9299C17.6209 12.7763 17.5661 12.5957 17.5661 12.411C17.5661 12.1634 17.6645 11.9258 17.8396 11.7507C18.0148 11.5756 18.2523 11.4772 18.5 11.4772Z"
    fill="#A7B0B5" />
  <path
    d="M21.3003 8.41223C21.485 8.41223 21.6655 8.467 21.8191 8.56962C21.9727 8.67223 22.0924 8.81808 22.1631 8.98873C22.2337 9.15937 22.2522 9.34714 22.2162 9.52829C22.1802 9.70945 22.0912 9.87585 21.9606 10.0065C21.83 10.1371 21.6636 10.226 21.4825 10.262C21.3013 10.2981 21.1135 10.2796 20.9429 10.2089C20.7722 10.1382 20.6264 10.0185 20.5238 9.86494C20.4212 9.71136 20.3664 9.53081 20.3664 9.34611C20.3664 9.09843 20.4648 8.86089 20.6399 8.68576C20.8151 8.51062 21.0526 8.41223 21.3003 8.41223Z"
    fill="#A7B0B5" />
  <path
    d="M21.3003 11.4785C21.485 11.4785 21.6655 11.5333 21.8191 11.6359C21.9727 11.7385 22.0924 11.8844 22.1631 12.055C22.2337 12.2257 22.2522 12.4134 22.2162 12.5946C22.1802 12.7757 22.0912 12.9421 21.9606 13.0727C21.83 13.2033 21.6636 13.2923 21.4825 13.3283C21.3013 13.3644 21.1135 13.3459 20.9429 13.2752C20.7722 13.2045 20.6264 13.0848 20.5238 12.9312C20.4212 12.7776 20.3664 12.5971 20.3664 12.4124C20.3664 12.1647 20.4648 11.9272 20.6399 11.752C20.8151 11.5769 21.0526 11.4785 21.3003 11.4785Z"
    fill="#A7B0B5" />
  <path
    d="M15.7024 8.41223C15.8871 8.41223 16.0677 8.467 16.2213 8.56962C16.3748 8.67223 16.4945 8.81808 16.5652 8.98873C16.6359 9.15937 16.6544 9.34714 16.6184 9.52829C16.5823 9.70945 16.4934 9.87585 16.3628 10.0065C16.2322 10.1371 16.0658 10.226 15.8846 10.262C15.7035 10.2981 15.5157 10.2796 15.3451 10.2089C15.1744 10.1382 15.0286 10.0185 14.9259 9.86494C14.8233 9.71136 14.7686 9.53081 14.7686 9.34611C14.7686 9.09843 14.8669 8.86089 15.0421 8.68576C15.2172 8.51062 15.4547 8.41223 15.7024 8.41223Z"
    fill="#A7B0B5" />
</svg>
