<svg width="37" height="18" viewBox="0 0 37 18" fill="none" xmlns="http://www.w3.org/2000/svg">
  <path d="M9.31075 6.25502H6.6861V13.3744H4.57681V6.25502H2V4.62555H9.31075V6.25502Z"
    fill="#A7B0B5" />
  <path
    d="M13.3552 14.8763H13.2868H12.1815H12.1131V14.8079V3.19201V3.12366H12.1815H13.2868H13.3552V3.19201V14.8079V14.8763Z"
    fill="#A7B0B5" />
  <path
    d="M13.2868 14.808V3.19206H12.1815V14.808H13.2868ZM13.4235 14.9447H12.0448V3.05536H13.4235V14.9447Z"
    fill="#A7B0B5" />
  <path
    d="M21.6666 9.88989H18.2668V13.3744H16.1575V4.62555H22.0083V6.25365H18.2668V8.26589H21.6666V9.88989Z"
    fill="#A7B0B5" />
  <path
    d="M35 15.835H30.721V13.8916H32.992V4.09029H30.721V2.16498H35V15.8323V15.835ZM29.0213 15.835H24.7423V2.16498H29.0213V4.09029H26.7475V13.8916H29.0213V15.835Z"
    fill="#A7B0B5" />
</svg>
