<svg width="37" height="18" viewBox="0 0 37 18" fill="none" xmlns="http://www.w3.org/2000/svg">
  <path
    d="M18.0245 15.839H13.5965C13.1702 15.7766 12.7846 15.5511 12.5213 15.2102C12.2579 14.8693 12.1372 14.4395 12.1845 14.0113V4.96694C12.1845 4.70452 12.2886 4.45284 12.4741 4.26716C12.6595 4.08148 12.9108 3.977 13.1732 3.97665H14.1613V2.28314C14.1613 2.20805 14.1907 2.13607 14.2438 2.08297C14.2969 2.02987 14.3692 2 14.4443 2H15.2627C15.3378 2 15.4101 2.02987 15.4632 2.08297C15.5163 2.13607 15.5458 2.20805 15.5458 2.28314V3.97665H20.6853V2.28314C20.6853 2.24596 20.6927 2.20913 20.707 2.17478C20.7212 2.14043 20.7423 2.10926 20.7686 2.08297C20.7949 2.05668 20.8259 2.03577 20.8603 2.02154C20.8946 2.00731 20.9312 2 20.9684 2H21.7855C21.8606 2 21.9329 2.02987 21.986 2.08297C22.0391 2.13607 22.0692 2.20805 22.0692 2.28314V3.97665H23.0579C23.3203 3.977 23.5716 4.08148 23.757 4.26716C23.9425 4.45284 24.0466 4.70452 24.0466 4.96694V8.72424C23.6226 8.44492 23.156 8.23688 22.6648 8.10833V6.99052H13.5637V14.0167C13.5563 14.1756 13.6004 14.3327 13.6889 14.4649H17.1347C17.3468 14.973 17.6473 15.4395 18.0219 15.843L18.0245 15.839ZM15.3472 13.2169C15.1025 13.2162 14.8681 13.1185 14.6953 12.9452C14.5225 12.7719 14.4253 12.5371 14.4253 12.2923C14.4253 12.0474 14.5228 11.8124 14.6959 11.6391C14.869 11.4657 15.1036 11.3682 15.3485 11.3678C15.5935 11.3682 15.8287 11.4657 16.0018 11.6391C16.1749 11.8124 16.2718 12.0474 16.2718 12.2923C16.2718 12.5376 16.1745 12.7728 16.0011 12.9462C15.8278 13.1196 15.5924 13.2169 15.3472 13.2169ZM15.3472 10.1869C15.1025 10.1862 14.8681 10.0885 14.6953 9.91519C14.5225 9.74188 14.4253 9.50709 14.4253 9.26234C14.4253 9.01736 14.5228 8.78244 14.6959 8.60908C14.869 8.43573 15.1036 8.33818 15.3485 8.33782C15.5935 8.33818 15.8287 8.43573 16.0018 8.60908C16.1749 8.78244 16.2718 9.01736 16.2718 9.26234C16.2714 9.50732 16.1738 9.74217 16.0005 9.91527C15.8271 10.0884 15.5922 10.1856 15.3472 10.1856V10.1869ZM17.5763 10.0152C17.4572 9.92937 17.3602 9.81642 17.2933 9.68578C17.2263 9.55514 17.1912 9.41053 17.191 9.26373C17.191 9.01876 17.2885 8.78375 17.4616 8.61039C17.6347 8.43704 17.8693 8.33949 18.1142 8.33913C18.2628 8.33936 18.4091 8.3753 18.5408 8.44397C18.6725 8.51263 18.7858 8.61201 18.871 8.73366C18.3608 9.07249 17.922 9.50785 17.5789 10.0152H17.5763Z"
    fill="#A7B0B5" />
  <path
    d="M21.4703 9.29053C20.6941 9.29067 19.9421 9.55992 19.3422 10.0524C18.7423 10.5449 18.3318 11.2301 18.1805 11.9914C18.0292 12.7526 18.1466 13.5428 18.5125 14.2272C18.8785 14.9116 19.4705 15.448 20.1876 15.7449C20.9047 16.0418 21.7025 16.0808 22.4452 15.8554C23.1879 15.63 23.8294 15.1541 24.2605 14.5087C24.6916 13.8633 24.8856 13.0884 24.8095 12.316C24.7333 11.5436 24.3916 10.8215 23.8428 10.2728C23.5312 9.9613 23.1613 9.71423 22.7542 9.54569C22.3471 9.37715 21.9109 9.29045 21.4703 9.29053ZM22.9276 13.8396C22.9054 13.8774 22.8736 13.9088 22.8355 13.9305C22.7973 13.9521 22.7541 13.9634 22.7102 13.963C22.665 13.964 22.6206 13.9514 22.5827 13.9268L21.5441 13.3068C21.4114 13.2207 21.3013 13.1039 21.2231 12.9664C21.1449 12.8288 21.1008 12.6745 21.0945 12.5165V11.1397C21.0945 11.0729 21.1211 11.0089 21.1682 10.9618C21.2154 10.9146 21.2794 10.8881 21.3462 10.8881C21.4129 10.8881 21.4769 10.9146 21.5241 10.9618C21.5713 11.0089 21.5978 11.0729 21.5978 11.1397V12.5151C21.604 12.586 21.6255 12.6547 21.6607 12.7165C21.6959 12.7783 21.744 12.8318 21.8017 12.8734L22.8404 13.4934C22.8691 13.51 22.8941 13.5321 22.9141 13.5586C22.9341 13.585 22.9486 13.6152 22.9567 13.6474C22.9649 13.6795 22.9665 13.713 22.9615 13.7458C22.9565 13.7785 22.9449 13.81 22.9276 13.8382V13.8396Z"
    fill="#454450" />
</svg>
