<svg width="37" height="18" viewBox="0 0 37 18" fill="none" xmlns="http://www.w3.org/2000/svg">
  <path
    d="M14.7709 14.5845C14.2481 14.5971 13.7297 14.4909 13.2534 14.2749C12.8271 14.0753 12.4755 13.7451 12.2496 13.3321C12.0034 12.8501 11.8828 12.3134 11.9002 11.7724V6.30144C11.8829 5.75083 12.006 5.2053 12.2574 4.71519C12.4845 4.29483 12.8362 3.95538 13.2644 3.74342C13.7396 3.51996 14.2607 3.41001 14.7857 3.42289H17.0146C17.5503 3.4052 18.0814 3.52448 18.5579 3.77C18.9618 3.99723 19.283 4.34645 19.4765 4.76757C19.689 5.25204 19.7931 5.77725 19.7798 6.30613V11.7771C19.8064 12.1594 19.7536 12.5439 19.6258 12.9052C19.498 13.2666 19.2974 13.5971 19.0363 13.8778C18.4773 14.3756 17.744 14.6323 16.9966 14.5907L14.7709 14.5845ZM11.969 11.7724C11.9505 12.3016 12.068 12.827 12.309 13.2985C12.0669 12.8262 11.9489 12.3013 11.9674 11.7708L11.969 11.7724ZM14.0055 12.2063C14.0561 12.31 14.1263 12.404 14.2111 12.4823C14.4892 12.7081 14.8409 12.8218 15.1985 12.802H16.526C16.704 12.8187 16.8836 12.7992 17.0537 12.7442C17.2238 12.6891 17.3812 12.6001 17.5158 12.4823C17.7431 12.2157 17.8575 11.8711 17.8355 11.5214V8.08235L14.0055 12.2063ZM14.1533 5.47039C14.0285 5.60541 13.9327 5.76519 13.8718 5.93869C13.811 6.11218 13.786 6.29629 13.7991 6.47968C13.7779 6.29794 13.7981 6.11323 13.8578 5.94025C13.9174 5.76727 14.0152 5.60985 14.1439 5.47978C14.2726 5.3497 14.4289 5.25044 14.6012 5.18895C14.7736 5.12746 14.9572 5.1056 15.1391 5.12484C14.9596 5.1128 14.7796 5.13733 14.6098 5.19677C14.4401 5.25621 14.2861 5.34903 14.1533 5.47039ZM14.201 5.51887C14.0828 5.64778 13.9924 5.79927 13.9352 5.96449C13.8779 6.1297 13.8549 6.30531 13.8679 6.47968V9.98288L17.7206 5.81047C17.6726 5.68895 17.5978 5.57927 17.5025 5.48994C17.2507 5.27974 16.9286 5.17273 16.6011 5.19051H15.1415C14.9706 5.17951 14.7989 5.20293 14.6372 5.25931C14.4755 5.31569 14.328 5.404 14.201 5.51887ZM23.1384 14.5235V5.30935L21.0862 5.67757V4.38371L21.1276 4.36573L23.3839 3.40491H25.1015V14.5251L23.1384 14.5235Z"
    fill="#A7B0B5" />
</svg>
