<svg width="37" height="18" viewBox="0 0 37 18" fill="none" xmlns="http://www.w3.org/2000/svg">
  <path
    d="M6.84819 3.9994H16.8425C16.9743 3.99886 17.1048 4.02434 17.2266 4.07438C17.3485 4.12441 17.4592 4.19801 17.5526 4.29096C17.6459 4.38391 17.7199 4.49437 17.7705 4.61601C17.821 4.73765 17.847 4.86807 17.847 4.99978V6.9992H5.84781V4.99978C5.84781 4.73446 5.95321 4.48001 6.14081 4.2924C6.32842 4.1048 6.58288 3.9994 6.84819 3.9994Z"
    fill="#A7B0B5" />
  <path
    d="M7.24458 7.04267V14.1512C7.23765 14.3115 7.28185 14.4698 7.37081 14.6033H16.3295C16.4184 14.4698 16.4627 14.3115 16.4557 14.1512V7.04267H7.24458ZM5.84784 5.64594H17.847V14.1512C17.8952 14.5844 17.7733 15.0194 17.5068 15.3643C17.2404 15.7093 16.8504 15.9372 16.4191 16H7.2758C6.8445 15.9372 6.45447 15.7093 6.18805 15.3643C5.92162 15.0194 5.79963 14.5844 5.84784 14.1512V5.64594Z"
    fill="#A7B0B5" />
  <path
    d="M8.13228 2H8.96028C8.99771 2 9.03478 2.00737 9.06936 2.0217C9.10394 2.03602 9.13537 2.05702 9.16184 2.08349C9.18831 2.10996 9.2093 2.14138 9.22363 2.17597C9.23795 2.21055 9.24532 2.24762 9.24532 2.28505V6.00018H7.84723V2.28505C7.84723 2.20945 7.87726 2.13695 7.93072 2.08349C7.98417 2.03003 8.05668 2 8.13228 2Z"
    fill="#A7B0B5" />
  <path
    d="M14.7318 2H15.5598C15.5973 2 15.6343 2.00737 15.6689 2.0217C15.7035 2.03602 15.7349 2.05702 15.7614 2.08349C15.7879 2.10996 15.8089 2.14138 15.8232 2.17597C15.8375 2.21055 15.8449 2.24762 15.8449 2.28505V6.00018H14.4468V2.28505C14.4468 2.20945 14.4768 2.13695 14.5303 2.08349C14.5837 2.03003 14.6562 2 14.7318 2Z"
    fill="#A7B0B5" />
  <path
    d="M9.04987 11.4772C9.23457 11.4772 9.41513 11.5319 9.5687 11.6346C9.72228 11.7372 9.84198 11.883 9.91266 12.0537C9.98334 12.2243 10.0018 12.4121 9.9658 12.5932C9.92977 12.7744 9.84082 12.9408 9.71022 13.0714C9.57961 13.202 9.41321 13.2909 9.23206 13.327C9.05091 13.363 8.86314 13.3445 8.69249 13.2738C8.52185 13.2032 8.376 13.0835 8.27338 12.9299C8.17077 12.7763 8.116 12.5957 8.116 12.411C8.116 12.1634 8.21439 11.9258 8.38952 11.7507C8.56466 11.5756 8.80219 11.4772 9.04987 11.4772Z"
    fill="#A7B0B5" />
  <path
    d="M11.8474 8.41223C12.0321 8.41223 12.2127 8.467 12.3662 8.56962C12.5198 8.67223 12.6395 8.81808 12.7102 8.98873C12.7809 9.15937 12.7994 9.34714 12.7633 9.52829C12.7273 9.70945 12.6384 9.87585 12.5078 10.0065C12.3772 10.1371 12.2108 10.226 12.0296 10.262C11.8485 10.2981 11.6607 10.2796 11.49 10.2089C11.3194 10.1382 11.1735 10.0185 11.0709 9.86494C10.9683 9.71136 10.9135 9.53081 10.9135 9.34611C10.9135 9.09843 11.0119 8.86089 11.1871 8.68576C11.3622 8.51062 11.5997 8.41223 11.8474 8.41223Z"
    fill="#A7B0B5" />
  <path
    d="M11.8474 11.4772C12.0321 11.4772 12.2127 11.5319 12.3662 11.6346C12.5198 11.7372 12.6395 11.883 12.7102 12.0537C12.7809 12.2243 12.7994 12.4121 12.7633 12.5932C12.7273 12.7744 12.6384 12.9408 12.5078 13.0714C12.3772 13.202 12.2108 13.2909 12.0296 13.327C11.8485 13.363 11.6607 13.3445 11.49 13.2738C11.3194 13.2032 11.1735 13.0835 11.0709 12.9299C10.9683 12.7763 10.9135 12.5957 10.9135 12.411C10.9135 12.1634 11.0119 11.9258 11.1871 11.7507C11.3622 11.5756 11.5997 11.4772 11.8474 11.4772Z"
    fill="#A7B0B5" />
  <path
    d="M14.6477 8.41223C14.8324 8.41223 15.013 8.467 15.1665 8.56962C15.3201 8.67223 15.4398 8.81808 15.5105 8.98873C15.5812 9.15937 15.5997 9.34714 15.5636 9.52829C15.5276 9.70945 15.4387 9.87585 15.3081 10.0065C15.1775 10.1371 15.0111 10.226 14.8299 10.262C14.6487 10.2981 14.461 10.2796 14.2903 10.2089C14.1197 10.1382 13.9738 10.0185 13.8712 9.86494C13.7686 9.71136 13.7138 9.53081 13.7138 9.34611C13.7138 9.09843 13.8122 8.86089 13.9874 8.68576C14.1625 8.51062 14.4 8.41223 14.6477 8.41223Z"
    fill="#A7B0B5" />
  <path
    d="M14.6477 11.4785C14.8324 11.4785 15.013 11.5333 15.1665 11.6359C15.3201 11.7385 15.4398 11.8844 15.5105 12.055C15.5812 12.2257 15.5997 12.4134 15.5636 12.5946C15.5276 12.7757 15.4387 12.9421 15.3081 13.0727C15.1775 13.2033 15.0111 13.2923 14.8299 13.3283C14.6487 13.3644 14.461 13.3459 14.2903 13.2752C14.1197 13.2045 13.9738 13.0848 13.8712 12.9312C13.7686 12.7776 13.7138 12.5971 13.7138 12.4124C13.7138 12.1647 13.8122 11.9272 13.9874 11.752C14.1625 11.5769 14.4 11.4785 14.6477 11.4785Z"
    fill="#A7B0B5" />
  <path
    d="M9.04987 8.41223C9.23457 8.41223 9.41513 8.467 9.5687 8.56962C9.72228 8.67223 9.84198 8.81808 9.91266 8.98873C9.98334 9.15937 10.0018 9.34714 9.9658 9.52829C9.92977 9.70945 9.84082 9.87585 9.71022 10.0065C9.57961 10.1371 9.41321 10.226 9.23206 10.262C9.05091 10.2981 8.86314 10.2796 8.69249 10.2089C8.52185 10.1382 8.376 10.0185 8.27338 9.86494C8.17077 9.71136 8.116 9.53081 8.116 9.34611C8.116 9.09843 8.21439 8.86089 8.38952 8.68576C8.56466 8.51062 8.80219 8.41223 9.04987 8.41223Z"
    fill="#A7B0B5" />
  <path
    d="M31.1625 16H26.7802V14.0097H29.106V3.97183H26.7802V2.00006H31.1625V15.9971V16ZM25.0396 16H20.6573V2.00006H25.0396V3.97183H22.7108V14.0097H25.0396V16Z"
    fill="#A7B0B5" />
</svg>
