<svg width="37" height="18" viewBox="0 0 37 18" fill="none" xmlns="http://www.w3.org/2000/svg">
  <path
    d="M15.7245 14.6861C15.7049 14.6861 15.6797 14.6987 15.6601 14.6987C14.4196 14.0802 13.4142 13.0747 12.7957 11.8343C12.7957 11.8147 12.8083 11.7895 12.8083 11.7699C13.5902 11.9961 14.3849 12.1751 15.1883 12.3061C15.3216 13.109 15.5006 13.9036 15.7245 14.6861Z"
    fill="#A7B0B5" />
  <path
    d="M24.2029 11.8399C23.5638 13.1134 22.5205 14.139 21.2363 14.7561C21.4825 13.9528 21.6766 13.1344 21.8173 12.3061C22.6185 12.1758 23.4109 11.9967 24.1903 11.7699C24.1833 11.7951 24.2029 11.8203 24.2029 11.8399Z"
    fill="#A7B0B5" />
  <path
    d="M24.2547 6.26376C23.455 6.01982 22.641 5.82578 21.8173 5.68276C21.6811 4.85766 21.4869 4.04318 21.2363 3.24536C22.5576 3.87732 23.6227 4.94249 24.2547 6.26376Z"
    fill="#A7B0B5" />
  <path
    d="M15.7231 3.31672C15.4983 4.09851 15.3216 4.89333 15.1939 5.69672C14.3653 5.82969 13.5467 6.01913 12.7439 6.26372C13.361 4.97948 14.3866 3.93616 15.6601 3.29712C15.6839 3.29712 15.7049 3.31672 15.7231 3.31672Z"
    fill="#A7B0B5" />
  <path
    d="M20.7253 5.54971C19.2454 5.38382 17.7517 5.38382 16.2719 5.54971C16.4248 4.67153 16.6424 3.80584 16.9229 2.95971C16.9302 2.91338 16.9344 2.86661 16.9355 2.81971C17.4465 2.69168 17.971 2.62495 18.4979 2.62091C19.0219 2.6246 19.5436 2.69087 20.0519 2.81831C20.0553 2.86536 20.0618 2.91213 20.0715 2.95831C20.3522 3.80504 20.5707 4.67114 20.7253 5.54971Z"
    fill="#A7B0B5" />
  <path
    d="M15.0483 11.2281C14.17 11.0759 13.3042 10.8583 12.4583 10.5771C12.412 10.5698 12.3652 10.5656 12.3183 10.5645C12.1902 10.053 12.1234 9.52803 12.1195 9.00072C12.1231 8.47624 12.1893 7.95407 12.3169 7.44532C12.3639 7.44191 12.4107 7.43536 12.4569 7.42572C13.3043 7.14816 14.1703 6.93062 15.0483 6.77472C14.8888 8.2549 14.8888 9.74794 15.0483 11.2281Z"
    fill="#A7B0B5" />
  <path
    d="M24.8805 9.00072C24.877 9.52798 24.8108 10.0529 24.6831 10.5645C24.6362 10.5656 24.5894 10.5698 24.5431 10.5771C23.6954 10.8539 22.8295 11.0715 21.9517 11.2281C22.1176 9.74829 22.1176 8.25455 21.9517 6.77472C22.8299 6.92765 23.6956 7.14525 24.5417 7.42572C24.5873 7.43845 24.6344 7.44504 24.6817 7.44532C24.8093 7.95409 24.876 8.47621 24.8805 9.00072Z"
    fill="#A7B0B5" />
  <path
    d="M20.7253 12.4517C20.5731 13.3301 20.3555 14.1958 20.0743 15.0417C20.0646 15.0879 20.0581 15.1347 20.0547 15.1817C19.5455 15.3094 19.0228 15.3757 18.4979 15.3791C17.9711 15.376 17.4467 15.3102 16.9355 15.1831C16.9344 15.1362 16.9302 15.0895 16.9229 15.0431C16.6453 14.1957 16.4278 13.3297 16.2719 12.4517C17.0107 12.5398 17.7539 12.5866 18.4979 12.5917C19.2424 12.5868 19.986 12.5401 20.7253 12.4517Z"
    fill="#A7B0B5" />
  <path
    d="M20.9001 11.4015C19.3057 11.6028 17.6924 11.6028 16.0981 11.4015C15.8968 9.80714 15.8968 8.19381 16.0981 6.59947C17.6924 6.39816 19.3057 6.39816 20.9001 6.59947C21.1014 8.19381 21.1014 9.80714 20.9001 11.4015Z"
    fill="#A7B0B5" />
</svg>
