<svg width="20" height="20" viewBox="0 0 20 20" fill="none"
  xmlns="http://www.w3.org/2000/svg">
  <path d="M16.7344 13.817V14.6835C16.7344 16.0088 16.2345 16.542 14.9681 16.542H5.07031V11.9586H14.9703C16.2367 11.9586 16.7344 12.4918 16.7344 13.817Z" fill="currentColor"/>
  <path d="M12.5709 6.73308V7.59955C12.5709 8.92481 12.0621 9.45803 10.8046 9.45803H5.07031V4.8746H10.8035C12.0621 4.8746 12.5709 5.40782 12.5709 6.73308Z" fill="currentColor"/>
  <path d="M5.07083 18.8294C4.90608 18.8282 4.74834 18.7626 4.63142 18.6465C4.51451 18.5304 4.44774 18.3732 4.44541 18.2084V2.79184C4.44391 2.70929 4.45906 2.62729 4.48995 2.55073C4.52085 2.47417 4.56686 2.40463 4.62524 2.34625C4.68362 2.28787 4.75316 2.24186 4.82972 2.21096C4.90628 2.18006 4.98829 2.16492 5.07083 2.16642C5.153 2.16628 5.2344 2.18235 5.31034 2.21373C5.38629 2.24511 5.45529 2.29117 5.51339 2.34928C5.5715 2.40738 5.61756 2.47638 5.64894 2.55233C5.68032 2.62828 5.69639 2.70967 5.69625 2.79184V18.2084C5.69253 18.3727 5.62531 18.5292 5.5087 18.645C5.39208 18.7607 5.23514 18.8268 5.07083 18.8294Z" fill="currentColor"/>
</svg>
