<svg width="20" height="20" viewBox="0 0 20 20" fill="none"
  xmlns="http://www.w3.org/2000/svg">
  <g clip-path="url(#clip0_5804_133152)">
    <path d="M13.317 16.6475H14.1834C15.5087 16.6475 16.0419 16.1476 16.0419 14.8813V4.98346H11.4585V14.8835C11.4674 16.1499 12.0006 16.6475 13.317 16.6475Z" fill="currentColor"/>
    <path d="M6.23299 12.484H7.09946C8.42472 12.484 8.95794 11.9752 8.95794 10.7177V4.98346H4.37451V10.7166C4.3834 11.9752 4.91661 12.484 6.23299 12.484Z" fill="currentColor"/>
    <path d="M17.708 5.59998H2.29143C2.12683 5.60087 1.96858 5.53648 1.85135 5.42092C1.73413 5.30536 1.66748 5.14805 1.66602 4.98345C1.66718 4.81794 1.73344 4.65954 1.85048 4.5425C1.96752 4.42546 2.12592 4.3592 2.29143 4.35803H17.708C17.8727 4.36035 18.03 4.42713 18.1461 4.54404C18.2622 4.66096 18.3278 4.8187 18.329 4.98345C18.3275 5.14728 18.2615 5.30392 18.1452 5.41935C18.029 5.53479 17.8718 5.59969 17.708 5.59998Z" fill="currentColor"/>
  </g>
  <defs>
    <clipPath id="clip0_5804_133152">
      <rect width="20" height="20" fill="white" transform="translate(0 0.5)"/>
    </clipPath>
  </defs>
</svg>
