<svg width="20" height="20" viewBox="0 0 20 20" fill="none"
  xmlns="http://www.w3.org/2000/svg">
  <g clip-path="url(#clip0_5804_133343)">
    <path d="M12.7168 18.4927C12.5792 18.4897 12.4473 18.4377 12.3446 18.3461C12.242 18.2544 12.1754 18.1291 12.1569 17.9928C12.1384 17.8564 12.1692 17.7179 12.2438 17.6022C12.3183 17.4866 12.4317 17.4013 12.5635 17.3618C14.2351 16.9257 15.6901 15.8948 16.656 14.4626C17.6219 13.0303 18.0322 11.295 17.81 9.5818C17.5879 7.86864 16.7486 6.29532 15.4494 5.15675C14.1502 4.01818 12.4803 3.39255 10.7528 3.39714C9.50631 3.41606 8.27856 3.70374 7.15339 4.24054C6.02823 4.77734 5.03215 5.55061 4.23316 6.50756H6.48821C6.64185 6.50653 6.78961 6.56657 6.89899 6.67449C7.00836 6.7824 7.07038 6.92934 7.07141 7.08299C7.07244 7.23663 7.0124 7.38439 6.90448 7.49376C6.79657 7.60313 6.64963 7.66516 6.49599 7.66619H3.09785C3.04349 7.66705 2.98928 7.66032 2.93678 7.64619C2.87104 7.62487 2.80888 7.59379 2.75237 7.55399C2.68533 7.50884 2.63009 7.44827 2.5913 7.37736C2.55126 7.30434 2.52526 7.22446 2.51465 7.14186V3.59598C2.51581 3.44373 2.57681 3.29804 2.68447 3.19038C2.79213 3.08272 2.93782 3.02172 3.09008 3.02056C3.24233 3.02172 3.38802 3.08272 3.49568 3.19038C3.60334 3.29804 3.66434 3.44373 3.6655 3.59598V5.42891C4.56273 4.4359 5.65703 3.64074 6.87862 3.09411C8.10021 2.54748 9.4223 2.26139 10.7606 2.25406C12.761 2.25902 14.6915 2.99081 16.1925 4.31318C17.6935 5.63554 18.6628 7.45835 18.9199 9.44219C19.177 11.426 18.7043 13.4357 17.59 15.097C16.4756 16.7583 14.7954 17.958 12.8623 18.4727C12.8144 18.4831 12.7658 18.4898 12.7168 18.4927Z" fill="currentColor"/>
    <path d="M10.2163 18.7304C10.1982 18.7315 10.18 18.7289 10.163 18.7226C9.3422 18.6675 8.53481 18.4865 7.76904 18.1861C7.66025 18.1427 7.56703 18.0675 7.50146 17.9705C7.43589 17.8734 7.40101 17.7589 7.40134 17.6417C7.40293 17.5496 7.42663 17.4592 7.47045 17.3781C7.51426 17.297 7.57691 17.2277 7.65312 17.1759C7.72932 17.124 7.81686 17.0913 7.90837 17.0803C7.99988 17.0694 8.09267 17.0806 8.17895 17.113C8.83924 17.3714 9.53464 17.529 10.2418 17.5807H10.2496C10.3968 17.5903 10.5347 17.6563 10.6346 17.7649C10.7345 17.8735 10.7887 18.0163 10.7861 18.1639V18.195C10.7743 18.3389 10.7095 18.4734 10.6042 18.5723C10.499 18.6713 10.3607 18.7276 10.2163 18.7304ZM5.99499 17.0808C5.86419 17.0827 5.73671 17.0395 5.63396 16.9586C4.98908 16.4442 4.42448 15.8365 3.95877 15.1556C3.88891 15.0625 3.85005 14.9499 3.84769 14.8335C3.84713 14.7394 3.86998 14.6467 3.9142 14.5637C3.95842 14.4807 4.0226 14.41 4.10096 14.358C4.22683 14.2741 4.38037 14.2424 4.52919 14.2695C4.67801 14.2967 4.81045 14.3806 4.89857 14.5036C5.3001 15.0912 5.78938 15.6139 6.34935 16.0532C6.41557 16.107 6.46911 16.1746 6.50617 16.2514C6.54322 16.3283 6.56289 16.4123 6.56375 16.4976C6.5655 16.6304 6.52245 16.7599 6.44156 16.8653C6.38753 16.9332 6.31873 16.9879 6.24039 17.0252C6.16204 17.0626 6.07622 17.0816 5.98943 17.0808H5.99499ZM3.42778 13.3383C3.30611 13.3397 3.18727 13.3015 3.08912 13.2296C2.99097 13.1577 2.9188 13.0559 2.88346 12.9395C2.63837 12.1495 2.51403 11.3271 2.51465 10.5C2.51581 10.3477 2.57681 10.2021 2.68447 10.0944C2.79214 9.98674 2.93782 9.92574 3.09008 9.92458C3.24233 9.92574 3.38802 9.98674 3.49568 10.0944C3.60335 10.2021 3.66434 10.3477 3.66551 10.5C3.66597 11.2086 3.77192 11.9132 3.97988 12.5907C3.99567 12.6482 4.00352 12.7076 4.00321 12.7673C4.00354 12.8887 3.96501 13.007 3.89325 13.105C3.82149 13.2029 3.72028 13.2753 3.60441 13.3116C3.54692 13.328 3.48756 13.337 3.42778 13.3383Z" fill="currentColor"/>
    <path d="M13.8288 10.5C13.8288 11.1068 13.6489 11.7 13.3117 12.2046C12.9746 12.7092 12.4954 13.1024 11.9347 13.3347C11.3741 13.5669 10.7572 13.6276 10.162 13.5093C9.56684 13.3909 9.02014 13.0986 8.59104 12.6696C8.16194 12.2405 7.86973 11.6938 7.75134 11.0986C7.63295 10.5034 7.69371 9.88649 7.92594 9.32585C8.15816 8.76521 8.55142 8.28602 9.05599 7.94888C9.56055 7.61174 10.1538 7.43179 10.7606 7.43179C11.5743 7.43179 12.3547 7.75505 12.9301 8.33045C13.5055 8.90585 13.8288 9.68626 13.8288 10.5Z" fill="currentColor"/>
  </g>
  <defs>
    <clipPath id="clip0_5804_133343">
      <rect width="20" height="20" fill="white" transform="translate(0.760254 0.5)"/>
    </clipPath>
  </defs>
</svg>
