<svg width="20" height="20" viewBox="0 0 20 20" fill="none" xmlns="http://www.w3.org/2000/svg">
<path d="M9.11133 14.4446H5.55577C4.32614 14.4446 3.27799 14.0112 2.41133 13.1446C1.54466 12.2779 1.11133 11.2297 1.11133 10.0001C1.11133 8.77048 1.54466 7.72233 2.41133 6.85566C3.27799 5.989 4.32614 5.55566 5.55577 5.55566H9.11133V7.33344H5.55577C4.81503 7.33344 4.1854 7.5927 3.66688 8.11122C3.14837 8.62974 2.88911 9.25937 2.88911 10.0001C2.88911 10.7408 3.14837 11.3705 3.66688 11.889C4.1854 12.4075 4.81503 12.6668 5.55577 12.6668H9.11133V14.4446ZM6.44466 10.889V9.11122H13.5558V10.889H6.44466ZM10.8891 14.4446V12.6668H14.4447C15.1854 12.6668 15.815 12.4075 16.3336 11.889C16.8521 11.3705 17.1113 10.7408 17.1113 10.0001C17.1113 9.25937 16.8521 8.62974 16.3336 8.11122C15.815 7.5927 15.1854 7.33344 14.4447 7.33344H10.8891V5.55566H14.4447C15.6743 5.55566 16.7224 5.989 17.5891 6.85566C18.4558 7.72233 18.8891 8.77048 18.8891 10.0001C18.8891 11.2297 18.4558 12.2779 17.5891 13.1446C16.7224 14.0112 15.6743 14.4446 14.4447 14.4446H10.8891Z" fill="#A7B0B5"/>
</svg>
