<svg width="20" height="20" viewBox="0 0 20 20" fill="none"
  xmlns="http://www.w3.org/2000/svg">
  <path d="M7.17322 3.34672V7.20549H3.34718C3.29933 6.68963 3.36517 6.16955 3.54005 5.68188C3.71494 5.19421 3.99461 4.75082 4.35938 4.38293C4.72416 4.01503 5.16515 3.73159 5.65131 3.55256C6.13747 3.37353 6.65697 3.30326 7.17322 3.34672Z" fill="#A7B0B5"/>
  <path d="M16.6551 7.20549H12.8291V3.34672C13.3454 3.30326 13.8649 3.37353 14.351 3.55256C14.8372 3.73159 15.2782 4.01503 15.6429 4.38293C16.0077 4.75082 16.2874 5.19421 16.4623 5.68188C16.6372 6.16955 16.703 6.68963 16.6551 7.20549Z" fill="#A7B0B5"/>
  <path d="M16.6551 12.8613C16.6943 13.3722 16.6219 13.8856 16.443 14.3657C16.264 14.8459 15.9829 15.2814 15.619 15.6422C15.255 16.0029 14.817 16.2802 14.3353 16.4549C13.8536 16.6296 13.3397 16.6975 12.8291 16.6539V12.8613H16.6551Z" fill="#A7B0B5"/>
  <path d="M7.17328 12.8613V16.6539C6.66273 16.6975 6.14879 16.6296 5.66706 16.4549C5.18534 16.2802 4.74735 16.0029 4.38343 15.6422C4.0195 15.2814 3.73834 14.8459 3.55943 14.3657C3.38051 13.8856 3.30811 13.3722 3.34724 12.8613L7.17328 12.8613Z" fill="#A7B0B5"/>
  <path d="M3.34766 8.20361H7.1737V11.866H3.34766V8.20361Z" fill="#A7B0B5"/>
  <path d="M12.8291 8.20361H16.6551V11.866H12.8291V8.20361Z" fill="#A7B0B5"/>
  <path d="M8.16992 8.20361H11.8323V11.866H8.16992V8.20361Z" fill="#A7B0B5"/>
  <path d="M8.16992 3.34668H11.8323V7.20545H8.16992V3.34668Z" fill="#A7B0B5"/>
  <path d="M8.16992 12.8613H11.8323V16.6539H8.16992V12.8613Z" fill="#A7B0B5"/>
</svg>
