<svg width="20" height="20" viewBox="0 0 20 20" fill="none"
  xmlns="http://www.w3.org/2000/svg">
  <path fill-rule="evenodd" clip-rule="evenodd" d="M3.38932 8.38894V11.6667H16.6116V8.38894H3.38932ZM2.22266 8.38894V7.22228V3.55561C2.22266 3.12606 2.57088 2.77783 3.00044 2.77783H17.0005C17.43 2.77783 17.7782 3.12606 17.7782 3.55561L17.7782 7.22228V8.38894V11.6667V12.8334L17.7782 16.5001C17.7782 16.9296 17.43 17.2778 17.0005 17.2778H3.00044C2.57088 17.2778 2.22266 16.9296 2.22266 16.5001V12.8334V11.6667V8.38894ZM16.6116 7.22228V3.9445H3.38932V7.22228H16.6116ZM16.6116 16.1112V12.8334H3.38932V16.1112H16.6116Z" fill="#A7B0B5"/>
</svg>
