<svg width="20" height="20" viewBox="0 0 20 20" fill="none"
  xmlns="http://www.w3.org/2000/svg">
  <path fill-rule="evenodd" clip-rule="evenodd" d="M11.6389 3.41667L8.36111 3.41667L8.36111 16.6389L11.6389 16.6389L11.6389 3.41667ZM11.6389 2.25L12.8056 2.25L16.4722 2.25C16.9018 2.25 17.25 2.59822 17.25 3.02778L17.25 17.0278C17.25 17.4574 16.9018 17.8056 16.4722 17.8056L12.8056 17.8056L11.6389 17.8056L8.36111 17.8056L7.19444 17.8056L3.52778 17.8056C3.09822 17.8056 2.75 17.4574 2.75 17.0278L2.75 3.02778C2.75 2.59822 3.09822 2.25 3.52778 2.25L7.19444 2.25L8.36111 2.25L11.6389 2.25ZM12.8056 16.6389L16.0833 16.6389L16.0833 3.41667L12.8056 3.41667L12.8056 16.6389ZM3.91667 16.6389L7.19444 16.6389L7.19444 3.41667L3.91667 3.41667L3.91667 16.6389Z" fill="#A7B0B5"/>
</svg>
