<svg width="12" height="12" viewBox="0 0 12 12" fill="none" xmlns="http://www.w3.org/2000/svg">
    <path
        d="M6.65803 4.93914C6.64742 4.93239 6.63643 4.92623 6.6251 4.9207L5.98299 4.61876C5.80844 4.53671 5.61508 4.50461 5.42383 4.52595C5.23258 4.54729 5.05074 4.62125 4.89797 4.73983C4.7452 4.8584 4.62734 5.01708 4.55712 5.19868C4.48691 5.38028 4.46703 5.57789 4.49963 5.77012L4.83575 7.77294C4.84044 7.80078 4.84856 7.82775 4.85981 7.85324L5.13284 9.51455C5.13346 9.52818 5.13489 9.54181 5.13715 9.55537L5.22476 10.0915C5.22891 10.1162 5.23391 10.1407 5.23972 10.1649L5.24906 10.2217L5.25391 10.2179C5.30523 10.392 5.39967 10.5507 5.52912 10.6784C5.68932 10.8365 5.89486 10.9389 6.11614 10.9709C6.33741 11.0029 6.563 10.9628 6.76039 10.8565C6.95778 10.7502 7.11678 10.5831 7.21449 10.3793L7.73849 9.28993C7.81066 9.14103 7.91582 9.01107 8.04576 8.91022C8.17569 8.80937 8.32688 8.74035 8.48749 8.70857L9.66154 8.47993C9.88063 8.4372 10.0807 8.32503 10.2328 8.1596C10.3849 7.99416 10.4813 7.78402 10.508 7.55947C10.5348 7.33492 10.4904 7.10757 10.3815 6.9102C10.2725 6.71284 10.1045 6.55566 9.90173 6.46134L7.6198 5.39212C7.61307 5.38898 7.60626 5.38608 7.59937 5.38342L6.65803 4.93914Z"
        fill="currentColor" />
    <path fill-rule="evenodd" clip-rule="evenodd"
        d="M3.125 1.75098C3.125 1.54387 3.29289 1.37598 3.5 1.37598H8.5C8.70711 1.37598 8.875 1.54387 8.875 1.75098V4.25098C8.875 4.45808 8.70711 4.62598 8.5 4.62598C8.29289 4.62598 8.125 4.45808 8.125 4.25098V2.12598H3.875V3.50098C3.875 3.70808 3.70711 3.87598 3.5 3.87598H1.875V7.37598H3.25C3.45711 7.37598 3.625 7.54387 3.625 7.75098C3.625 7.95808 3.45711 8.12598 3.25 8.12598H1.5C1.29289 8.12598 1.125 7.95808 1.125 7.75098V3.50098C1.125 3.29387 1.29289 3.12598 1.5 3.12598H3.125V1.75098Z"
        fill="currentColor" stroke="currentColor" stroke-width="0.5" stroke-linecap="round"
        stroke-linejoin="round" />
</svg>