<svg width="20" height="20" viewBox="0 0 20 20" fill="none"
  xmlns="http://www.w3.org/2000/svg">
  <path d="M14.8649 7.32375C14.9794 7.596 15.1943 7.82292 15.4722 7.96517C15.75 8.10742 16.0735 8.15605 16.3863 8.10262C16.6992 8.04919 16.9818 7.89707 17.1852 7.67263C17.3886 7.44819 17.5 7.16557 17.5 6.87375C17.5 6.58193 17.3886 6.29931 17.1852 6.07487C16.9818 5.85043 16.6992 5.69831 16.3863 5.64488C16.0735 5.59145 15.75 5.64008 15.4722 5.78233C15.1943 5.92458 14.9794 6.1515 14.8649 6.42375C14.8351 6.41519 14.8045 6.40933 14.7735 6.40625H12.047V5.9375C12.0452 5.68893 11.9365 5.45105 11.7445 5.27552C11.5526 5.09999 11.2929 5.00098 11.0218 5H8.97686C8.70671 5.00229 8.44838 5.10188 8.2576 5.27727C8.06683 5.45266 7.95891 5.68979 7.95713 5.9375V6.40625H5.23058C5.19815 6.40949 5.16618 6.41578 5.13515 6.425C5.02057 6.15275 4.80573 5.92583 4.52784 5.78358C4.24996 5.64133 3.92655 5.5927 3.61367 5.64613C3.30079 5.69956 3.01815 5.85168 2.81475 6.07612C2.61135 6.30056 2.5 6.58318 2.5 6.875C2.5 7.16682 2.61135 7.44944 2.81475 7.67388C3.01815 7.89832 3.30079 8.05044 3.61367 8.10387C3.92655 8.1573 4.24996 8.10867 4.52784 7.96642C4.80573 7.82417 5.02057 7.59725 5.13515 7.325C5.16622 7.3338 5.1982 7.33966 5.23058 7.3425H6.98102C6.27289 7.83637 5.69977 8.47453 5.307 9.20652C4.91423 9.9385 4.71258 10.7442 4.71799 11.56C4.71802 11.6644 4.72484 11.7688 4.73843 11.8725H4.54894C4.41462 11.8723 4.28158 11.8965 4.15745 11.9435C4.03332 11.9906 3.92053 12.0596 3.82555 12.1467C3.73057 12.2338 3.65527 12.3372 3.60395 12.451C3.55263 12.5649 3.5263 12.6868 3.52648 12.81V14.06C3.52594 14.1834 3.552 14.3056 3.60316 14.4197C3.65432 14.5338 3.72957 14.6375 3.82458 14.7249C3.9196 14.8123 4.03251 14.8815 4.15682 14.9287C4.28113 14.9759 4.41439 15.0002 4.54894 15H5.91222C6.05394 14.999 6.19365 14.9692 6.3212 14.9125C6.50184 14.8407 6.65558 14.7219 6.76339 14.5708C6.87121 14.4198 6.92839 14.243 6.92786 14.0625V12.8125C6.92822 12.5648 6.82155 12.3271 6.6312 12.1514C6.44084 11.9757 6.18232 11.8763 5.91222 11.875H5.75408C5.75408 11.8562 5.75408 11.8375 5.75408 11.8187C5.74306 11.7358 5.73851 11.6523 5.74044 11.5687C5.73089 10.8287 5.93133 10.0991 6.32209 9.45156C6.71286 8.80399 7.28053 8.2607 7.9694 7.875C7.98465 8.11113 8.09747 8.33307 8.28489 8.49562C8.47231 8.65818 8.72024 8.74914 8.97822 8.75H11.0231C11.2815 8.74836 11.5297 8.65731 11.718 8.49507C11.9064 8.33283 12.0209 8.11137 12.0388 7.875C12.7239 8.26156 13.2884 8.80405 13.6773 9.44975C14.0662 10.0955 14.2663 10.8224 14.2582 11.56C14.2582 11.6475 14.2582 11.7287 14.2446 11.81C14.2446 11.8287 14.2514 11.8475 14.2514 11.8662H14.0919C13.9576 11.8661 13.8245 11.8902 13.7004 11.9373C13.5763 11.9843 13.4635 12.0534 13.3685 12.1405C13.2735 12.2276 13.1982 12.331 13.1469 12.4448C13.0956 12.5586 13.0692 12.6806 13.0694 12.8037V14.0537C13.0689 14.2343 13.1261 14.411 13.2339 14.5621C13.3417 14.7131 13.4954 14.8319 13.6761 14.9037C13.8049 14.9643 13.9471 14.9973 14.0919 15H15.4552C15.5895 15.0002 15.7225 14.976 15.8466 14.929C15.9708 14.8819 16.0836 14.8129 16.1785 14.7258C16.2735 14.6387 16.3488 14.5353 16.4001 14.4215C16.4515 14.3076 16.4778 14.1857 16.4776 14.0625V12.8125C16.4778 12.6893 16.4515 12.5674 16.4001 12.4535C16.3488 12.3397 16.2735 12.2363 16.1785 12.1492C16.0836 12.0621 15.9708 11.9931 15.8466 11.946C15.7225 11.899 15.5895 11.8748 15.4552 11.875H15.2643C15.2779 11.7713 15.2847 11.6669 15.2847 11.5625C15.2901 10.746 15.088 9.93957 14.6945 9.2071C14.301 8.47463 13.7269 7.83624 13.0176 7.3425H14.7735C14.8046 7.33901 14.8351 7.33273 14.8649 7.32375Z" fill="#A7B0B5"/>
</svg>
