<svg width="20" height="20" viewBox="0 0 20 20" fill="none"
  xmlns="http://www.w3.org/2000/svg">
  <path fill-rule="evenodd" clip-rule="evenodd" d="M8.39688 6.775H16.0563V9.09064H8.39688V6.775ZM17.125 6.775V9.09064H17.125V10.1594H17.125V12.6531H17.125V13.7218H17.125V16.7875C17.125 17.181 16.806 17.5 16.4125 17.5H3.5875C3.194 17.5 2.875 17.181 2.875 16.7875V6.775V4.5V3.2125C2.875 2.819 3.194 2.5 3.5875 2.5H4.875H15.125H16.4125C16.806 2.5 17.125 2.819 17.125 3.2125V4.5V6.775ZM16.0563 12.6531V10.1594H8.39688V12.6531H16.0563ZM8.39688 13.7218H16.0563V16.4313H8.39688V13.7218ZM7.32813 12.6531V10.1594H3.94375V12.6531H7.32813ZM3.94375 13.7218H7.32813V16.4313H3.94375V13.7218ZM7.32813 6.775V9.09064H3.94375V6.775H7.32813Z" fill="#A7B0B5"/>
  <rect opacity="0.15" x="2.875" y="10" width="14.25" height="3.05357" fill="#A7B0B5"/>
</svg>
