<svg width="40" height="40" viewBox="0 0 40 40" fill="none"
  xmlns="http://www.w3.org/2000/svg">
  <path d="M33.3779 34.0354L23.4223 24.3044C23.1112 23.975 22.7807 23.6392 22.4307 23.2971C22.0807 22.955 21.7371 22.6319 21.4001 22.3278C22.3853 21.7196 23.176 20.9087 23.7723 19.8951C24.3686 18.8814 24.6668 17.7664 24.6668 16.55C24.6668 14.6494 23.9862 13.034 22.6251 11.7035C21.264 10.3731 19.6112 9.70793 17.6668 9.70793C15.7223 9.70793 14.0696 10.3731 12.7084 11.7035C11.3473 13.034 10.6668 14.6494 10.6668 16.55C10.6668 16.7021 10.6733 16.8478 10.6862 16.9872C10.6992 17.1265 10.7186 17.2723 10.7446 17.4243C10.2779 17.475 9.76585 17.5763 9.20844 17.7284C8.65103 17.8804 8.15196 18.0578 7.71122 18.2606C7.65937 17.9818 7.62048 17.7031 7.59455 17.4243C7.56863 17.1455 7.55566 16.8541 7.55566 16.55C7.55566 13.7878 8.53437 11.4501 10.4918 9.53688C12.4492 7.62362 14.8408 6.66699 17.6668 6.66699C20.4927 6.66699 22.8844 7.62362 24.8418 9.53688C26.7992 11.4501 27.7779 13.7878 27.7779 16.55C27.7779 17.6397 27.6029 18.6724 27.2529 19.648C26.9029 20.6236 26.4168 21.5169 25.7946 22.3278L35.5557 31.9068L33.3779 34.0354Z" fill="black"/>
  <path d="M12.2221 35.5553C10.0703 35.5553 8.236 34.814 6.71934 33.3316C5.20267 31.8491 4.44434 30.0562 4.44434 27.9529C4.44434 25.8496 5.20267 24.0567 6.71934 22.5743C8.236 21.0918 10.0703 20.3506 12.2221 20.3506C14.374 20.3506 16.2082 21.0918 17.7249 22.5743C19.2416 24.0567 19.9999 25.8496 19.9999 27.9529C19.9999 30.0562 19.2416 31.8491 17.7249 33.3316C16.2082 34.814 14.374 35.5553 12.2221 35.5553ZM9.461 31.7161L12.2221 29.0173L14.9443 31.7161L16.0721 30.6518L13.311 27.9529L16.0721 25.2541L14.9832 24.1898L12.2221 26.8886L9.461 24.1898L8.37211 25.2541L11.1332 27.9529L8.37211 30.6518L9.461 31.7161Z" fill="#EA4821"/>
</svg>
