<svg width="26" height="30" viewBox="0 0 26 30" fill="none"
  xmlns="http://www.w3.org/2000/svg">
  <path d="M2.5 23.5977C3.46649 23.5977 4.25 22.8142 4.25 21.8477C4.25 20.8812 3.46649 20.0977 2.5 20.0977C1.5335 20.0977 0.75 20.8812 0.75 21.8477C0.75 22.8142 1.5335 23.5977 2.5 23.5977Z" fill="#5F89FF" stroke="#5F89FF" stroke-width="0.5"/>
  <path d="M20.3669 26.55L20.3682 26.5489C20.9975 25.9947 21.0335 25.0138 20.411 24.4362C19.8771 23.9338 19.0622 23.9406 18.511 24.4023L18.5109 24.4023L18.5074 24.4054C15.1339 27.3409 10.1577 27.5594 6.5414 24.9513L6.54093 24.9509C5.95609 24.5312 5.14909 24.5924 4.62731 25.0991L4.62729 25.0991L4.62473 25.1017C4.02635 25.6998 4.12438 26.6873 4.80267 27.1849C9.47884 30.6273 15.9833 30.3605 20.3669 26.55Z" fill="#5F89FF" stroke="#5F89FF" stroke-width="0.5"/>
  <path d="M23.1094 6.75098C22.1429 6.75098 21.3594 7.53448 21.3594 8.50098C21.3594 9.46748 22.1429 10.251 23.1094 10.251C24.0759 10.251 24.8594 9.46748 24.8594 8.50098C24.8594 7.53448 24.0759 6.75098 23.1094 6.75098Z" fill="#5F89FF" stroke="#5F89FF" stroke-width="0.5"/>
  <path d="M5.24243 3.79864L5.24122 3.79971C4.61184 4.35397 4.57584 5.3348 5.1984 5.91245C5.73224 6.41485 6.54714 6.40804 7.0984 5.94634L7.09843 5.94638L7.10199 5.94328C10.4755 3.00769 15.4517 2.78924 19.068 5.39737L19.0684 5.39771C19.6533 5.81744 20.4603 5.75619 20.9821 5.24949L20.9821 5.24951L20.9846 5.24695C21.583 4.64879 21.485 3.66129 20.8067 3.16369C16.1305 -0.278661 9.62609 -0.0118527 5.24243 3.79864Z" fill="#5F89FF" stroke="#5F89FF" stroke-width="0.5"/>
</svg>
