<svg width="20" height="20" viewBox="0 0 20 20" fill="none"
  xmlns="http://www.w3.org/2000/svg">
  <path fill-rule="evenodd" clip-rule="evenodd" d="M9.13364 5.03466C9.67252 5.03436 10.2062 5.14023 10.7041 5.34624C11.2021 5.55225 11.6545 5.85436 12.0357 6.2353C12.4169 6.61623 12.7192 7.06854 12.9255 7.56637C13.1318 8.0642 13.238 8.5978 13.238 9.13668C13.238 9.94789 12.9975 10.7409 12.5468 11.4154C12.0962 12.0899 11.4557 12.6157 10.7063 12.9262C9.95685 13.2368 9.13219 13.3181 8.33654 13.1601C7.54088 13.002 6.80997 12.6115 6.2362 12.0381C5.66243 11.4646 5.27157 10.7339 5.11303 9.93836C4.95449 9.1428 5.03539 8.31809 5.34551 7.56851C5.65563 6.81892 6.18104 6.17811 6.85531 5.7271C7.52958 5.27608 8.32243 5.03512 9.13364 5.03466ZM11.3543 3.77475C10.6499 3.48333 9.89498 3.33356 9.13268 3.33399C7.98516 3.33463 6.86358 3.6755 5.90977 4.31351C4.95595 4.95151 4.21271 5.85799 3.77402 6.91835C3.33533 7.97871 3.22088 9.14534 3.44515 10.2707C3.66942 11.3961 4.22233 12.4298 5.03398 13.241C5.84563 14.0522 6.87958 14.6045 8.0051 14.8281C9.13063 15.0518 10.2972 14.9366 11.3573 14.4974C11.7983 14.3146 12.2127 14.0792 12.5921 13.7978L15.215 16.4206C15.547 16.7527 16.0855 16.7527 16.4175 16.4206C16.7496 16.0885 16.7496 15.5501 16.4175 15.2181L13.7951 12.5956C13.8522 12.5186 13.9075 12.4401 13.9609 12.3601C14.5984 11.406 14.9386 10.2842 14.9386 9.13668C14.9386 8.37439 14.7884 7.61956 14.4966 6.91533C14.2048 6.2111 13.7771 5.57127 13.2379 5.0324C12.6987 4.49353 12.0587 4.06617 11.3543 3.77475Z" fill="currentColor"/>
</svg>
