<svg width="20" height="20" viewBox="0 0 20 20" fill="none"
  xmlns="http://www.w3.org/2000/svg">
  <path d="M17.8896 9.31558C17.2185 8.95869 16.4687 8.77538 15.7086 8.78232H4.28876C3.52592 8.77745 2.77362 8.9606 2.09839 9.31558V6.80125C2.09839 3.60168 3.09692 2.61781 6.36449 2.61781H7.45634C7.8962 2.56916 8.34087 2.64525 8.73953 2.83739C9.13818 3.02953 9.47473 3.32996 9.71071 3.70433L10.8106 5.14147C11.0399 5.44677 11.0492 5.4641 11.4518 5.4641H13.6275C16.4271 5.4641 17.563 6.184 17.867 8.80899C17.8616 8.67834 17.8816 8.98363 17.8896 9.31558Z" fill="#344DB9"/>
  <path d="M18.1335 8.51904L17.9908 8.32174C17.7458 8.02377 17.4434 7.77806 17.1016 7.59917C16.6392 7.33654 16.1163 7.19871 15.5845 7.19922H4.40466C3.87248 7.19939 3.3494 7.33716 2.88619 7.59917C2.53017 7.79106 2.21607 8.05213 1.96231 8.36706C1.45444 9.00764 1.21328 9.81947 1.28907 10.6334L1.62103 14.8315C1.73834 16.098 1.88766 17.6592 4.73661 17.6592H15.2605C18.1068 17.6592 18.2508 16.0967 18.3761 14.8222L18.7081 10.6468C18.7913 9.89047 18.5861 9.13062 18.1335 8.51904Z" fill="#6888F7"/>
</svg>
