<svg width="20" height="20" viewBox="0 0 20 20" fill="none"
  xmlns="http://www.w3.org/2000/svg">
  <g id="translate">
    <g id="Group 26525">
      <path id="Rectangle 42855" d="M14.7137 13.1422L6.85746 5.28593C6.4234 4.85187 5.71977 4.85176 5.28586 5.28567C4.85194 5.71959 4.85206 6.42322 5.28611 6.85728L13.1423 14.7135C13.5764 15.1476 14.28 15.1477 14.7139 14.7138C15.1479 14.2798 15.1478 13.5762 14.7137 13.1422Z" fill="#0E0121"/>
      <path id="Rectangle 42856" d="M13.1424 5.28557L5.28617 13.1418C4.85212 13.5759 4.852 14.2795 5.28592 14.7134C5.71983 15.1473 6.42346 15.1472 6.85752 14.7132L14.7138 6.85692C15.1478 6.42286 15.1479 5.71923 14.714 5.28532C14.2801 4.8514 13.5765 4.85152 13.1424 5.28557Z" fill="#0E0121"/>
    </g>
  </g>
</svg>
