<svg width="20" height="20" viewBox="0 0 20 20" fill="none"
  xmlns="http://www.w3.org/2000/svg">
  <path fill-rule="evenodd" clip-rule="evenodd" d="M16.7924 7.87244C16.7858 7.86891 16.779 7.86546 16.7722 7.86209C16.7748 7.74937 16.7869 7.64202 16.7924 7.87244ZM16.7608 7.85663C16.7646 7.85842 16.7684 7.86024 16.7722 7.86209C16.7714 7.89299 16.7714 7.9243 16.7724 7.94916C16.7688 7.91802 16.7649 7.88717 16.7608 7.85663ZM15.658 7.75839C16.0962 7.72789 16.5054 7.73704 16.7608 7.85663C16.4537 5.61061 14.5874 4.99089 12.1512 4.99089H10.2322C9.88032 4.99089 9.86905 4.97583 9.67208 4.71283L9.66662 4.70555L8.69654 3.43452C8.48841 3.10341 8.19157 2.83771 7.83996 2.66778C7.48834 2.49785 7.09613 2.43055 6.70818 2.47358H5.74515C2.86314 2.47358 1.98242 3.34373 1.98242 6.17349V8.39721C2.57798 8.08325 3.24151 7.92127 3.91435 7.92558H10.7473C11.5373 7.47545 12.437 7.23279 13.3617 7.23279C14.1599 7.23279 14.9445 7.41381 15.658 7.75839Z" fill="#344DB9"/>
  <path fill-rule="evenodd" clip-rule="evenodd" d="M16.994 7.86303L17.1287 8.0494C17.257 8.22266 17.3642 8.40851 17.4493 8.60309C17.4059 8.57228 17.362 8.54204 17.3177 8.5124C16.3857 7.88966 15.2899 7.55727 14.169 7.55727C12.6659 7.55727 11.2244 8.15437 10.1615 9.21722C9.09868 10.2801 8.50158 11.7216 8.50158 13.2247C8.50158 14.3456 8.83397 15.4413 9.45671 16.3733C9.52746 16.4792 9.60159 16.5824 9.67895 16.6829H4.47445C1.78341 16.6829 1.64237 15.2083 1.53156 14.012L1.218 10.0466C1.14641 9.27774 1.3742 8.51092 1.85393 7.90585C2.09362 7.60837 2.39031 7.36177 2.72659 7.18051C3.16413 6.93304 3.65822 6.8029 4.16089 6.80274H14.721C15.2234 6.80225 15.7172 6.93244 16.1541 7.18051C16.4769 7.34949 16.7625 7.58159 16.994 7.86303Z" fill="#6888F7"/>
  <path d="M14.4444 8.88867C15.3235 8.88867 16.1828 9.14933 16.9136 9.6377C17.6445 10.1261 18.2142 10.8202 18.5506 11.6323C18.887 12.4444 18.975 13.338 18.8035 14.2002C18.632 15.0623 18.2087 15.8542 17.5871 16.4758C16.9656 17.0974 16.1736 17.5207 15.3115 17.6922C14.4494 17.8637 13.5557 17.7756 12.7436 17.4392C11.9315 17.1029 11.2374 16.5332 10.749 15.8023C10.2607 15.0714 10 14.2121 10 13.3331C10 12.1544 10.4683 11.0239 11.3017 10.1904C12.1352 9.35692 13.2657 8.88867 14.4444 8.88867Z" fill="#3D4BAC"/>
  <path fill-rule="evenodd" clip-rule="evenodd" d="M14.4445 10.7773C14.0763 10.7773 13.7778 11.0758 13.7778 11.444V12.7764L12.4445 12.7764C12.0763 12.7764 11.7778 13.0748 11.7778 13.443C11.7778 13.8112 12.0763 14.1097 12.4445 14.1097H13.7778V15.4439C13.7778 15.8121 14.0763 16.1106 14.4445 16.1106C14.8127 16.1106 15.1111 15.8121 15.1111 15.4439V14.1097H16.4444C16.8126 14.1097 17.111 13.8112 17.111 13.443C17.111 13.0748 16.8126 12.7764 16.4444 12.7764L15.1111 12.7764V11.444C15.1111 11.0758 14.8127 10.7773 14.4445 10.7773Z" fill="white"/>
</svg>
