<svg width="18" height="18" viewBox="0 0 18 18" fill="none"
  xmlns="http://www.w3.org/2000/svg">
  <path d="M12.8556 15.3365C12.7451 15.3364 12.6329 15.3143 12.5395 15.2743C12.4367 15.2312 12.3416 15.1679 12.2638 15.091L9.21541 12.0387C9.0624 11.8805 8.97944 11.6716 8.98292 11.4517C8.98293 11.2269 9.06963 11.0197 9.22706 10.8666C9.38017 10.7126 9.59232 10.623 9.81032 10.6195L9.81948 10.6194C10.0336 10.6194 10.2394 10.703 10.399 10.8547L11.8522 12.3118L12.023 12.4831V12.2412V6.07419C12.023 5.85114 12.1101 5.64069 12.2683 5.48161C12.4238 5.32353 12.6343 5.23669 12.8615 5.23669C13.0831 5.23669 13.2973 5.32574 13.4491 5.48102C13.6086 5.64133 13.696 5.85177 13.696 6.07419V12.2373V12.4793L13.8669 12.3079L15.317 10.8528C15.4756 10.7031 15.6814 10.6194 15.8946 10.6194L15.9042 10.6195C16.1218 10.623 16.3339 10.7126 16.4859 10.8654C16.6452 11.0195 16.7322 11.2267 16.7322 11.4502C16.7356 11.6699 16.6534 11.8791 16.5007 12.0407L13.4461 15.0913C13.2917 15.2457 13.082 15.3328 12.8556 15.3365Z" fill="currentColor"/>
  <path d="M5.03094 12.7658C4.80336 12.7658 4.59293 12.6789 4.4384 12.521C4.28164 12.3631 4.19203 12.1472 4.19203 11.9282V5.76123V5.51937L4.02123 5.69061L2.56642 7.14918C2.40891 7.29882 2.20422 7.38225 1.99194 7.38225C1.99193 7.38225 1.99195 7.38225 1.99194 7.38225L1.97975 7.38216C1.76132 7.37878 1.54918 7.28935 1.39773 7.1368C1.23872 6.98228 1.15186 6.77505 1.15186 6.55202C1.1485 6.33026 1.23163 6.12151 1.38593 5.96272L4.43391 2.91098C4.51091 2.83398 4.60569 2.77069 4.70797 2.72798C4.80306 2.68754 4.91577 2.66541 5.02592 2.66541C5.25061 2.66885 5.46052 2.75608 5.61546 2.91102L8.67199 5.96378C8.82252 6.12222 8.90459 6.33125 8.90125 6.5505C8.90124 6.77505 8.81438 6.98228 8.65665 7.13553C8.50392 7.28935 8.29178 7.37878 8.07333 7.38216L8.06114 7.38225C7.84888 7.38225 7.64419 7.29882 7.48477 7.14731L6.03563 5.69437L5.86483 5.52313V5.76499V11.9282C5.86483 12.1472 5.77522 12.3631 5.61898 12.5205C5.46618 12.6766 5.25204 12.7658 5.03094 12.7658Z" fill="currentColor"/>
</svg>
