<svg width="20" height="20" viewBox="0 0 20 20" fill="none"
  xmlns="http://www.w3.org/2000/svg">
  <path d="M4.16661 11.9311C3.63523 11.9311 3.18065 11.742 2.80219 11.3636C2.42373 10.9851 2.23467 10.5305 2.23467 9.99913C2.23467 9.46775 2.42373 9.01317 2.80219 8.63471C3.18065 8.25625 3.63523 8.06719 4.16661 8.06719C4.69799 8.06719 5.15258 8.25625 5.53104 8.63471C5.9095 9.01317 6.09856 9.46775 6.09856 9.99913C6.09856 10.5305 5.9095 10.9851 5.53104 11.3636C5.15258 11.742 4.69799 11.9311 4.16661 11.9311ZM9.99995 11.9311C9.46857 11.9311 9.01398 11.742 8.63552 11.3636C8.25706 10.9851 8.068 10.5305 8.068 9.99913C8.068 9.46775 8.25706 9.01317 8.63552 8.63471C9.01398 8.25625 9.46857 8.06719 9.99995 8.06719C10.5313 8.06719 10.9859 8.25625 11.3644 8.63471C11.7428 9.01317 11.9319 9.46775 11.9319 9.99913C11.9319 10.5305 11.7428 10.9851 11.3644 11.3636C10.9859 11.742 10.5313 11.9311 9.99995 11.9311ZM15.8333 11.9311C15.3019 11.9311 14.8473 11.742 14.4689 11.3636C14.0904 10.9851 13.9013 10.5305 13.9013 9.99913C13.9013 9.46775 14.0904 9.01317 14.4689 8.63471C14.8473 8.25625 15.3019 8.06719 15.8333 8.06719C16.3647 8.06719 16.8192 8.25625 17.1977 8.63471C17.5762 9.01317 17.7652 9.46775 17.7652 9.99913C17.7652 10.5305 17.5762 10.9851 17.1977 11.3636C16.8192 11.742 16.3647 11.9311 15.8333 11.9311Z" fill="currentColor" stroke="currentColor" stroke-width="0.025"/>
</svg>
