<svg width="20" height="20" viewBox="0 0 20 20" fill="none"
  xmlns="http://www.w3.org/2000/svg">
  <g clip-path="url(#clip0_8982_106334)">
    <path d="M4.54563 1.11133H11.7596L16.6656 6.05542V17.7036C16.6656 18.0179 16.538 18.3193 16.3109 18.5416C16.0837 18.7638 15.7756 18.8889 15.4542 18.8891H4.54563C4.22409 18.8891 3.91572 18.7642 3.68835 18.5419C3.46098 18.3196 3.33325 18.018 3.33325 17.7036V2.29683C3.33325 1.98241 3.46098 1.68088 3.68835 1.45855C3.91572 1.23623 4.22409 1.11133 4.54563 1.11133V1.11133Z" fill="#3BC7FF"/>
    <path d="M11.771 2.19531L11.8579 5.71059L14.4235 9.97446H16.6667V6.07552L12.3728 2.19531H11.771Z" fill="url(#paint0_linear_8982_106334)"/>
    <path d="M11.769 1.11719V5.35855C11.7697 5.55717 11.8371 5.75012 11.9606 5.90783C12.0275 5.96376 12.1048 6.00602 12.1886 6.03221C12.2724 6.0584 12.3608 6.06796 12.4484 6.06031H16.6656L11.769 1.11719Z" fill="#A3E5FF"/>
  </g>
  <defs>
    <linearGradient id="paint0_linear_8982_106334" x1="11.9668" y1="5.84373" x2="15.7189" y2="8.17428" gradientUnits="userSpaceOnUse">
      <stop stop-color="#0FA9E6" stop-opacity="0.502"/>
      <stop offset="1" stop-color="#0FA9E6" stop-opacity="0"/>
    </linearGradient>
    <clipPath id="clip0_8982_106334">
      <rect width="13.3333" height="17.7778" fill="white" transform="translate(3.33325 1.11133)"/>
    </clipPath>
  </defs>
</svg>
