<svg width="16" height="16" viewBox="0 0 16 16" fill="none" xmlns="http://www.w3.org/2000/svg">
  <path d="M4.00005 6.66704C3.73639 6.66704 3.47866 6.74522 3.25944 6.8917C3.04022 7.03818 2.86936 7.24637 2.76847 7.48995C2.66757 7.73354 2.64117 8.00157 2.69261 8.26016C2.74404 8.51875 2.871 8.75627 3.05744 8.94271C3.24387 9.12914 3.48139 9.2561 3.73998 9.30753C3.99857 9.35897 4.2666 9.33257 4.51018 9.23168C4.75377 9.13078 4.96196 8.95992 5.10844 8.7407C5.25492 8.52148 5.3331 8.26375 5.3331 8.00009C5.33199 7.64689 5.19119 7.30846 4.94143 7.05871C4.69168 6.80895 4.35325 6.66815 4.00005 6.66704ZM12.0001 6.66704C11.7364 6.66704 11.4787 6.74522 11.2594 6.8917C11.0402 7.03818 10.8694 7.24637 10.7685 7.48995C10.6676 7.73354 10.6412 8.00157 10.6926 8.26016C10.7441 8.51875 10.871 8.75627 11.0574 8.94271C11.2439 9.12914 11.4814 9.2561 11.74 9.30753C11.9986 9.35897 12.2666 9.33257 12.5102 9.23168C12.7538 9.13078 12.962 8.95992 13.1084 8.7407C13.2549 8.52148 13.3331 8.26375 13.3331 8.00009C13.332 7.64689 13.1912 7.30846 12.9414 7.05871C12.6917 6.80895 12.3533 6.66815 12.0001 6.66704ZM8.00005 6.66704C7.7364 6.66704 7.47867 6.74522 7.25945 6.8917C7.04023 7.03818 6.86937 7.24637 6.76847 7.48995C6.66757 7.73354 6.64117 8.00157 6.69261 8.26016C6.74405 8.51875 6.87101 8.75627 7.05744 8.94271C7.24387 9.12914 7.4814 9.2561 7.73998 9.30753C7.99857 9.35897 8.2666 9.33257 8.51019 9.23168C8.75377 9.13078 8.96197 8.95992 9.10845 8.7407C9.25492 8.52148 9.33311 8.26375 9.33311 8.00009C9.332 7.64689 9.19119 7.30846 8.94144 7.05871C8.69168 6.80895 8.35326 6.66815 8.00005 6.66704Z" fill="#A7B0B5"/>
</svg>
