<svg width="18" height="18" viewBox="0 0 18 18" fill="none" xmlns="http://www.w3.org/2000/svg">
<path d="M10.124 3.07549V14.9245C10.124 16.0495 10.604 16.5005 11.796 16.5005H14.824C16.016 16.5005 16.496 16.0505 16.496 14.9255V3.07549C16.499 1.95049 16.019 1.50049 14.824 1.50049H11.796C10.604 1.50049 10.124 1.95049 10.124 3.07549Z" fill="#A7B0B5"/>
<path d="M1.5 3.07549V14.9245C1.5 16.0495 1.98 16.5005 3.172 16.5005H6.2C7.392 16.5005 7.872 16.0505 7.872 14.9255V3.07549C7.875 1.95049 7.395 1.50049 6.2 1.50049H3.172C1.98 1.50049 1.5 1.95049 1.5 3.07549Z" fill="#A7B0B5"/>
</svg>
