<svg width="9" height="12" viewBox="0 0 9 12" fill="none" xmlns="http://www.w3.org/2000/svg">
<path d="M1.24802 5.16799C1.11106 5.25931 0.998767 5.38303 0.921099 5.52817C0.843432 5.67331 0.802795 5.83537 0.802795 5.99999C0.802795 6.1646 0.843432 6.32666 0.921099 6.4718C0.998767 6.61694 1.11106 6.74066 1.24802 6.83198L7.44802 10.963C7.59859 11.0627 7.77333 11.1197 7.9537 11.1281C8.13408 11.1364 8.31335 11.0958 8.4725 11.0105C8.63164 10.9252 8.76471 10.7984 8.85759 10.6435C8.95047 10.4887 8.99969 10.3116 9.00002 10.131V1.86899C9.00005 1.68794 8.95093 1.51029 8.85789 1.35498C8.76486 1.19966 8.63142 1.07252 8.47179 0.987111C8.31216 0.901702 8.13233 0.86123 7.9515 0.870013C7.77067 0.878797 7.59562 0.936506 7.44502 1.03699L1.24802 5.16799Z"/>
</svg>
