<svg width="18" height="18" viewBox="0 0 18 18" fill="none" xmlns="http://www.w3.org/2000/svg">
<path d="M15.375 7.64199H13.208C12.3531 7.64067 11.5336 7.30047 10.9291 6.69595C10.3245 6.09143 9.98433 5.27191 9.98301 4.41699V2.24999C9.98248 2.05124 9.9033 1.86078 9.76276 1.72024C9.62222 1.5797 9.43176 1.50052 9.23301 1.49999H6.05201C5.49507 1.46821 4.93771 1.55452 4.41646 1.75325C3.89522 1.95199 3.42188 2.25866 3.02747 2.65317C2.63306 3.04767 2.3265 3.52109 2.12789 4.04238C1.92927 4.56367 1.8431 5.12106 1.87501 5.67799V12.323C1.84325 12.8798 1.92953 13.4371 2.12821 13.9583C2.32688 14.4795 2.63347 14.9528 3.02786 15.3471C3.42225 15.7415 3.89555 16.0481 4.41672 16.2468C4.93789 16.4455 5.49516 16.5318 6.05201 16.5H11.947C12.5039 16.5318 13.0611 16.4455 13.5823 16.2468C14.1035 16.0481 14.5768 15.7415 14.9712 15.3471C15.3656 14.9528 15.6721 14.4795 15.8708 13.9583C16.0695 13.4371 16.1558 12.8798 16.124 12.323V8.39199C16.1235 8.19341 16.0444 8.0031 15.9041 7.86259C15.7638 7.72208 15.5736 7.64278 15.375 7.64199Z" fill="#A7B0B5"/>
<path d="M11.85 1.65701C11.7827 1.58821 11.6965 1.54077 11.6024 1.52062C11.5083 1.50047 11.4103 1.5085 11.3207 1.5437C11.2311 1.5789 11.1538 1.63972 11.0986 1.71856C11.0433 1.7974 11.0125 1.89077 11.01 1.98701V4.60501C11.0218 5.14249 11.2448 5.65371 11.6307 6.02802C12.0166 6.40232 12.5344 6.60961 13.072 6.60501C13.785 6.61301 14.772 6.61201 15.622 6.61201C15.7155 6.61405 15.8076 6.58832 15.8865 6.53805C15.9654 6.48779 16.0276 6.41525 16.0653 6.32962C16.103 6.24398 16.1144 6.1491 16.0982 6.05696C16.0819 5.96483 16.0387 5.87958 15.974 5.81201C14.895 4.72501 12.96 2.76701 11.85 1.65701Z" fill="#A7B0B5"/>
</svg>
