<svg width="12" height="12" viewBox="0 0 12 12" fill="none"
  xmlns="http://www.w3.org/2000/svg">
  <path d="M5.75903 10.2004C5.63173 10.2004 5.5097 10.1498 5.41968 10.0598C5.32966 9.9698 5.27905 9.84727 5.27905 9.71997V6.71997H2.27905C2.15175 6.71997 2.02971 6.66936 1.9397 6.57935C1.84968 6.48933 1.79907 6.36778 1.79907 6.24048V5.75903C1.79907 5.63173 1.84968 5.50921 1.9397 5.41919C2.02971 5.32917 2.15175 5.27856 2.27905 5.27856H5.27905V2.27856C5.27905 2.15126 5.32966 2.02971 5.41968 1.9397C5.5097 1.84968 5.63173 1.79907 5.75903 1.79907H6.24097C6.36819 1.79934 6.49012 1.84974 6.58008 1.9397C6.67004 2.02966 6.72068 2.15134 6.72095 2.27856V5.27856H9.72095C9.84817 5.27883 9.9701 5.33021 10.0601 5.42017C10.15 5.51013 10.2007 5.63181 10.2009 5.75903V6.24048C10.2007 6.3677 10.15 6.48939 10.0601 6.57935C9.9701 6.66931 9.84817 6.71971 9.72095 6.71997H6.72095V9.71997C6.72068 9.84719 6.67004 9.96888 6.58008 10.0588C6.49012 10.1488 6.36819 10.2002 6.24097 10.2004H5.75903Z"/>
</svg>
