<svg width="9" height="12" viewBox="0 0 9 12" fill="none" xmlns="http://www.w3.org/2000/svg">
<path d="M7.75201 5.16799C7.88897 5.25931 8.00126 5.38303 8.07893 5.52817C8.1566 5.67331 8.19724 5.83537 8.19724 5.99999C8.19724 6.1646 8.1566 6.32666 8.07893 6.4718C8.00126 6.61694 7.88897 6.74066 7.75201 6.83198L1.55201 10.963C1.40144 11.0627 1.2267 11.1197 1.04633 11.1281C0.865952 11.1364 0.686678 11.0958 0.527535 11.0105C0.368392 10.9252 0.235319 10.7984 0.14244 10.6435C0.0495615 10.4887 0.000343323 10.3116 1.04904e-05 10.131V1.86899C-1.62125e-05 1.68794 0.0491047 1.51029 0.142136 1.35498C0.235166 1.19966 0.368615 1.07252 0.528245 0.987111C0.687875 0.901702 0.867698 0.86123 1.04853 0.870013C1.22936 0.878797 1.40441 0.936506 1.55501 1.03699L7.75201 5.16799Z"/>
</svg>
