<svg width="23" height="23" viewBox="0 0 23 23" fill="none" xmlns="http://www.w3.org/2000/svg">
<path d="M7.63601 3.381H6.09281C5.72602 3.33312 5.35314 3.37003 5.00284 3.48888C4.65255 3.60772 4.3342 3.80535 4.07226 4.06654C3.81033 4.32773 3.61181 4.64553 3.49197 4.99548C3.37213 5.34543 3.33417 5.71821 3.38101 6.08514V7.62723C3.33397 7.99353 3.37153 8.36572 3.49079 8.71523C3.61006 9.06474 3.80785 9.38226 4.06899 9.6434C4.33012 9.90453 4.64764 10.1023 4.99715 10.2216C5.34666 10.3409 5.71886 10.3784 6.08515 10.3314H7.62724C7.99353 10.3784 8.36573 10.3409 8.71524 10.2216C9.06475 10.1023 9.38227 9.90453 9.6434 9.6434C9.90454 9.38226 10.1023 9.06474 10.2216 8.71523C10.3409 8.36572 10.3784 7.99353 10.3314 7.62723V6.08514C10.3795 5.71941 10.343 5.34753 10.2247 4.99814C10.1063 4.64875 9.9094 4.33119 9.64899 4.06993C9.38858 3.80868 9.07166 3.6107 8.72265 3.49125C8.37365 3.37181 8.00189 3.33409 7.63601 3.381Z"/>
<path d="M16.9148 3.38101H15.3727C15.0065 3.33397 14.6343 3.37153 14.2847 3.49079C13.9352 3.61006 13.6177 3.80785 13.3566 4.06899C13.0955 4.33012 12.8977 4.64764 12.7784 4.99715C12.6591 5.34666 12.6216 5.71886 12.6686 6.08515V7.62724C12.6216 7.99353 12.6591 8.36573 12.7784 8.71524C12.8977 9.06475 13.0955 9.38227 13.3566 9.6434C13.6177 9.90454 13.9352 10.1023 14.2847 10.2216C14.6343 10.3409 15.0065 10.3784 15.3727 10.3314H16.9148C17.2811 10.3784 17.6533 10.3409 18.0028 10.2216C18.3523 10.1023 18.6699 9.90454 18.931 9.6434C19.1921 9.38227 19.3899 9.06475 19.5092 8.71524C19.6285 8.36573 19.666 7.99353 19.619 7.62724V6.08515C19.666 5.71886 19.6285 5.34666 19.5092 4.99715C19.3899 4.64764 19.1921 4.33012 18.931 4.06899C18.6699 3.80785 18.3523 3.61006 18.0028 3.49079C17.6533 3.37153 17.2811 3.33397 16.9148 3.38101Z"/>
<path d="M16.9148 12.662H15.3727C15.0065 12.615 14.6343 12.6526 14.2847 12.7718C13.9352 12.8911 13.6177 13.0889 13.3566 13.35C13.0955 13.6112 12.8977 13.9287 12.7784 14.2782C12.6591 14.6277 12.6216 14.9999 12.6686 15.3662V16.9083C12.6216 17.2746 12.6591 17.6468 12.7784 17.9963C12.8977 18.3458 13.0955 18.6633 13.3566 18.9244C13.6177 19.1856 13.9352 19.3834 14.2847 19.5026C14.6343 19.6219 15.0065 19.6595 15.3727 19.6124H16.9148C17.2811 19.6595 17.6533 19.6219 18.0028 19.5026C18.3523 19.3834 18.6699 19.1856 18.931 18.9244C19.1921 18.6633 19.3899 18.3458 19.5092 17.9963C19.6285 17.6468 19.666 17.2746 19.619 16.9083V15.3662C19.666 14.9999 19.6285 14.6277 19.5092 14.2782C19.3899 13.9287 19.1921 13.6112 18.931 13.35C18.6699 13.0889 18.3523 12.8911 18.0028 12.7718C17.6533 12.6526 17.2811 12.615 16.9148 12.662Z"/>
<path d="M7.63594 12.662H6.09275C5.72595 12.6142 5.35307 12.6511 5.00278 12.7699C4.65248 12.8888 4.33413 13.0864 4.07219 13.3476C3.81026 13.6088 3.61174 13.9266 3.4919 14.2765C3.37206 14.6265 3.3341 14.9993 3.38094 15.3662V16.9083C3.33306 17.2751 3.36997 17.648 3.48882 17.9983C3.60766 18.3485 3.80529 18.6669 4.06648 18.9288C4.32767 19.1908 4.64547 19.3893 4.99542 19.5091C5.34537 19.629 5.71815 19.6669 6.08508 19.6201H7.62717C7.99336 19.6671 8.36545 19.6296 8.71487 19.5103C9.06428 19.3911 9.38174 19.1934 9.64285 18.9324C9.90396 18.6714 10.1018 18.3541 10.2211 18.0047C10.3405 17.6553 10.3782 17.2833 10.3313 16.917V15.3739C10.3807 15.0075 10.3452 14.6348 10.2274 14.2844C10.1097 13.934 9.91293 13.6154 9.65236 13.3533C9.39179 13.0911 9.0744 12.8924 8.72474 12.7726C8.37509 12.6527 8.00254 12.6149 7.63594 12.662Z"/>
</svg>
