<svg width="12" height="12" viewBox="0 0 12 12" fill="none" xmlns="http://www.w3.org/2000/svg">
<path d="M3.87553 1.50017V4.40003H1.00026C0.964302 4.01236 1.01378 3.62152 1.1452 3.25504C1.27663 2.88856 1.48681 2.55535 1.76093 2.27888C2.03506 2.00241 2.36646 1.7894 2.73181 1.65486C3.09716 1.52032 3.48756 1.46751 3.87553 1.50017Z"/>
<path d="M11.0009 4.40003H8.1256V1.50017C8.51356 1.46751 8.90397 1.52032 9.26932 1.65486C9.63467 1.7894 9.96607 2.00241 10.2402 2.27888C10.5143 2.55535 10.7245 2.88856 10.8559 3.25504C10.9874 3.62152 11.0368 4.01236 11.0009 4.40003Z"/>
<path d="M11.0009 8.65033C11.0303 9.03429 10.9759 9.42005 10.8414 9.78089C10.707 10.1417 10.4957 10.469 10.2222 10.7401C9.94869 11.0112 9.61954 11.2196 9.25752 11.3509C8.89551 11.4822 8.50929 11.5332 8.1256 11.5004V8.65033H11.0009Z"/>
<path d="M3.87529 8.65033V11.5004C3.49161 11.5332 3.10538 11.4822 2.74337 11.3509C2.38135 11.2196 2.0522 11.0112 1.77872 10.7401C1.50523 10.469 1.29394 10.1417 1.15948 9.78089C1.02502 9.42005 0.970615 9.03429 1.00002 8.65033L3.87529 8.65033Z"/>
<path d="M1.0006 5.15018H3.87586V7.90247H1.0006V5.15018Z"/>
<path d="M8.1256 5.15018H11.0009V7.90247H8.1256V5.15018Z"/>
<path d="M4.62463 5.15018H7.37692V7.90247H4.62463V5.15018Z"/>
<path d="M4.62463 1.50018H7.37692V4.40005H4.62463V1.50018Z"/>
<path d="M4.62463 8.65033H7.37692V11.5004H4.62463V8.65033Z"/>
</svg>
