<svg width="18" height="18" viewBox="0 0 18 18" fill="none"
  xmlns="http://www.w3.org/2000/svg">
  <path d="M5.81325 1.50025V5.85005H1.50035C1.44642 5.26854 1.52063 4.68228 1.71777 4.13256C1.9149 3.58284 2.23017 3.08302 2.64136 2.66832C3.05255 2.25361 3.54966 1.9341 4.09768 1.73229C4.6457 1.53048 5.23131 1.45127 5.81325 1.50025Z" fill="#5F89FF"/>
  <path d="M16.5006 5.85005H12.1877V1.50025C12.7696 1.45127 13.3552 1.53048 13.9033 1.73229C14.4513 1.9341 14.9484 2.25361 15.3596 2.66832C15.7708 3.08302 16.086 3.58284 16.2832 4.13256C16.4803 4.68228 16.5545 5.26854 16.5006 5.85005Z" fill="#5F89FF"/>
  <path d="M16.5006 12.2255C16.5447 12.8014 16.4631 13.38 16.2614 13.9213C16.0597 14.4626 15.7428 14.9535 15.3325 15.3602C14.9223 15.7668 14.4286 16.0794 13.8856 16.2763C13.3425 16.4732 12.7632 16.5498 12.1877 16.5006V12.2255H16.5006Z" fill="#5F89FF"/>
  <path d="M5.81319 12.2255V16.5006C5.23766 16.5498 4.65833 16.4732 4.1153 16.2763C3.57228 16.0794 3.07856 15.7668 2.66833 15.3602C2.25809 14.9535 1.94116 14.4626 1.73947 13.9213C1.53779 13.38 1.45617 12.8014 1.50029 12.2255L5.81319 12.2255Z" fill="#5F89FF"/>
  <path d="M1.50031 6.97528H5.81321V11.1037H1.50031V6.97528Z" fill="#5F89FF"/>
  <path d="M12.1877 6.97528H16.5006V11.1037H12.1877V6.97528Z" fill="#5F89FF"/>
  <path d="M6.93756 6.97528H11.066V11.1037H6.93756V6.97528Z" fill="#5F89FF"/>
  <path d="M6.93756 1.50031H11.066V5.8501H6.93756V1.50031Z" fill="#5F89FF"/>
  <path d="M6.93756 12.2255H11.066V16.5006H6.93756V12.2255Z" fill="#5F89FF"/>
</svg>
