<svg width="13" height="13" viewBox="0 0 13 13" fill="none"
  xmlns="http://www.w3.org/2000/svg">
  <path d="M6.5 0.25C5.26387 0.25 4.0555 0.616556 3.02769 1.30332C1.99988 1.99007 1.1988 2.96619 0.725756 4.10823C0.252708 5.25027 0.128937 6.50693 0.370095 7.71932C0.611252 8.9317 1.20651 10.0453 2.08059 10.9194C2.95466 11.7935 4.06831 12.3888 5.28069 12.6299C6.49307 12.8711 7.74974 12.7473 8.89178 12.2742C10.0338 11.8012 11.0099 11.0001 11.6967 9.97231C12.3834 8.94451 12.75 7.73613 12.75 6.5C12.7474 4.84321 12.088 3.25503 10.9165 2.0835C9.74497 0.911974 8.15679 0.252645 6.5 0.25ZM6.03125 4C6.03125 3.87568 6.08064 3.75645 6.16855 3.66854C6.25645 3.58064 6.37568 3.53125 6.5 3.53125C6.62432 3.53125 6.74355 3.58064 6.83146 3.66854C6.91937 3.75645 6.96875 3.87568 6.96875 4V7.125C6.96875 7.24932 6.91937 7.36855 6.83146 7.45646C6.74355 7.54436 6.62432 7.59375 6.5 7.59375C6.37568 7.59375 6.25645 7.54436 6.16855 7.45646C6.08064 7.36855 6.03125 7.24932 6.03125 7.125V4ZM7.075 9.2375C7.0448 9.31399 7.00025 9.384 6.94375 9.44375C6.88297 9.49891 6.81322 9.54329 6.7375 9.575C6.66266 9.60795 6.58178 9.62497 6.5 9.62497C6.41823 9.62497 6.33735 9.60795 6.2625 9.575C6.18679 9.54329 6.11704 9.49891 6.05625 9.44375C5.99975 9.384 5.9552 9.31399 5.925 9.2375C5.89201 9.16267 5.87497 9.08178 5.87497 9C5.87497 8.91822 5.89201 8.83733 5.925 8.7625C5.95307 8.68494 5.99786 8.6145 6.05618 8.55618C6.11451 8.49786 6.18494 8.45307 6.2625 8.425C6.41467 8.36249 6.58534 8.36249 6.7375 8.425C6.81506 8.45307 6.8855 8.49786 6.94382 8.55618C7.00215 8.6145 7.04693 8.68494 7.075 8.7625C7.10799 8.83733 7.12503 8.91822 7.12503 9C7.12503 9.08178 7.10799 9.16267 7.075 9.2375Z" fill="#EA4821"/>
</svg>
