<svg width="8" height="6" viewBox="0 0 8 6" fill="none" xmlns="http://www.w3.org/2000/svg">
<path d="M4.76194 0.819233C4.55864 0.614828 4.28295 0.5 3.99549 0.5C3.70803 0.5 3.43233 0.614828 3.22904 0.819233L0.425572 3.63882C0.274006 3.7913 0.170793 3.98556 0.128983 4.19703C0.0871717 4.4085 0.10864 4.62769 0.190674 4.82689C0.272707 5.0261 0.411622 5.19636 0.589857 5.31617C0.768093 5.43598 0.977646 5.49995 1.19203 5.5L6.79895 5.5C7.01333 5.49995 7.22288 5.43598 7.40112 5.31617C7.57936 5.19636 7.71827 5.02609 7.8003 4.82689C7.88234 4.62769 7.90381 4.4085 7.86199 4.19703C7.82018 3.98555 7.71697 3.7913 7.5654 3.63881L4.76194 0.819233Z"/>
</svg>
