<svg width="8" height="6" viewBox="0 0 8 6" fill="none" xmlns="http://www.w3.org/2000/svg">
<path d="M4.76194 5.18077C4.55864 5.38517 4.28295 5.5 3.99549 5.5C3.70803 5.5 3.43233 5.38517 3.22904 5.18077L0.425572 2.36118C0.274006 2.2087 0.170793 2.01444 0.128982 1.80297C0.0871717 1.5915 0.10864 1.37231 0.190674 1.17311C0.272707 0.973904 0.411622 0.803636 0.589857 0.683826C0.768093 0.564017 0.977646 0.500045 1.19203 0.499999L6.79895 0.5C7.01333 0.500046 7.22288 0.564017 7.40112 0.683827C7.57936 0.803637 7.71827 0.973905 7.8003 1.17311C7.88234 1.37231 7.90381 1.5915 7.86199 1.80297C7.82018 2.01445 7.71697 2.2087 7.5654 2.36119L4.76194 5.18077Z"/>
</svg>
