<svg width="18" height="18" viewBox="0 0 18 18" fill="none" xmlns="http://www.w3.org/2000/svg">
<path d="M8.35598 5.83611C8.52681 5.66662 8.75846 5.57141 9 5.57141C9.24154 5.57141 9.4732 5.66662 9.64402 5.83611L14.7324 10.8844C14.86 11.0107 14.947 11.1718 14.9823 11.3472C15.0177 11.5226 14.9998 11.7045 14.9309 11.8698C14.8621 12.0352 14.7453 12.1765 14.5955 12.276C14.4457 12.3754 14.2695 12.4285 14.0893 12.4286L3.91255 12.4286C3.73215 12.4289 3.55571 12.376 3.40562 12.2767C3.25552 12.1774 3.13851 12.0361 3.06943 11.8707C3.00035 11.7053 2.98231 11.5233 3.01759 11.3477C3.05288 11.1721 3.13989 11.0109 3.26762 10.8844L8.35598 5.83611Z"/>
</svg>
