<svg width="19" height="19" viewBox="0 0 19 19" fill="none" xmlns="http://www.w3.org/2000/svg">
    <path
        d="M16.8646 6.00059H12.4466C12.3737 6.00098 12.3015 5.98693 12.2341 5.95923C12.1667 5.93153 12.1055 5.89073 12.054 5.83921C12.0024 5.78769 11.9616 5.72646 11.9339 5.65906C11.9062 5.59167 11.8922 5.51945 11.8926 5.44659C11.8922 5.37372 11.9062 5.3015 11.9339 5.23411C11.9616 5.16672 12.0024 5.10549 12.054 5.05396C12.1055 5.00244 12.1667 4.96165 12.2341 4.93395C12.3015 4.90625 12.3737 4.89219 12.4466 4.89259H16.8646C16.9374 4.89219 17.0097 4.90625 17.0771 4.93395C17.1445 4.96165 17.2057 5.00244 17.2572 5.05396C17.3087 5.10549 17.3495 5.16672 17.3772 5.23411C17.4049 5.3015 17.419 5.37372 17.4186 5.44659C17.419 5.51945 17.4049 5.59167 17.3772 5.65906C17.3495 5.72646 17.3087 5.78769 17.2572 5.83921C17.2057 5.89073 17.1445 5.93153 17.0771 5.95923C17.0097 5.98693 16.9374 6.00098 16.8646 6.00059Z"
        fill="#454450" />
    <path
        d="M5.08204 6.00059H2.13604C2.06318 6.00098 1.99096 5.98693 1.92356 5.95923C1.85617 5.93153 1.79494 5.89073 1.74342 5.83921C1.69189 5.78769 1.6511 5.72646 1.6234 5.65906C1.5957 5.59167 1.58164 5.51945 1.58204 5.44659C1.58164 5.37372 1.5957 5.3015 1.6234 5.23411C1.6511 5.16672 1.69189 5.10549 1.74342 5.05396C1.79494 5.00244 1.85617 4.96165 1.92356 4.93395C1.99096 4.90625 2.06318 4.89219 2.13604 4.89259H5.08204C5.22897 4.89259 5.36988 4.95095 5.47378 5.05485C5.57767 5.15874 5.63604 5.29966 5.63604 5.44659C5.63604 5.59352 5.57767 5.73443 5.47378 5.83832C5.36988 5.94222 5.22897 6.00059 5.08204 6.00059Z"
        fill="#454450" />
    <path
        d="M11.1544 5.44731C11.1544 6.06578 10.971 6.67035 10.6274 7.18458C10.2838 7.69881 9.79543 8.09961 9.22404 8.33628C8.65266 8.57296 8.02392 8.63488 7.41734 8.51423C6.81077 8.39357 6.25359 8.09575 5.81627 7.65844C5.37895 7.22112 5.08113 6.66394 4.96048 6.05736C4.83982 5.45078 4.90175 4.82205 5.13842 4.25066C5.3751 3.67928 5.77589 3.19091 6.29012 2.84731C6.80436 2.50371 7.40893 2.32031 8.02739 2.32031C8.85672 2.32031 9.65209 2.64976 10.2385 3.23619C10.8249 3.82262 11.1544 4.61798 11.1544 5.44731Z"
        fill="#454450" />
    <path
        d="M16.8633 14.0982H13.9173C13.8444 14.0986 13.7722 14.0846 13.7048 14.0569C13.6374 14.0292 13.5762 13.9884 13.5247 13.9369C13.4731 13.8853 13.4324 13.8241 13.4046 13.7567C13.3769 13.6893 13.3629 13.6171 13.3633 13.5442C13.3629 13.4714 13.3769 13.3992 13.4046 13.3318C13.4324 13.2644 13.4731 13.2031 13.5247 13.1516C13.5762 13.1001 13.6374 13.0593 13.7048 13.0316C13.7722 13.0039 13.8444 12.9898 13.9173 12.9902H16.8633C16.9362 12.9898 17.0084 13.0039 17.0758 13.0316C17.1432 13.0593 17.2044 13.1001 17.2559 13.1516C17.3074 13.2031 17.3482 13.2644 17.3759 13.3318C17.4036 13.3992 17.4177 13.4714 17.4173 13.5442C17.4177 13.6171 17.4036 13.6893 17.3759 13.7567C17.3482 13.8241 17.3074 13.8853 17.2559 13.9369C17.2044 13.9884 17.1432 14.0292 17.0758 14.0569C17.0084 14.0846 16.9362 14.0986 16.8633 14.0982Z"
        fill="#454450" />
    <path
        d="M6.55404 14.0982H2.13604C2.06318 14.0986 1.99096 14.0846 1.92356 14.0569C1.85617 14.0292 1.79494 13.9884 1.74342 13.9369C1.69189 13.8853 1.6511 13.8241 1.6234 13.7567C1.5957 13.6893 1.58164 13.6171 1.58204 13.5442C1.58164 13.4714 1.5957 13.3992 1.6234 13.3318C1.6511 13.2644 1.69189 13.2031 1.74342 13.1516C1.79494 13.1001 1.85617 13.0593 1.92356 13.0316C1.99096 13.0039 2.06318 12.9898 2.13604 12.9902H6.55404C6.70097 12.9902 6.84188 13.0486 6.94578 13.1525C7.04967 13.2564 7.10804 13.3973 7.10804 13.5442C7.10804 13.6912 7.04967 13.8321 6.94578 13.936C6.84188 14.0399 6.70097 14.0982 6.55404 14.0982Z"
        fill="#454450" />
    <path
        d="M14.0997 13.5528C14.0997 14.1712 13.9163 14.7758 13.5727 15.2901C13.2291 15.8043 12.7407 16.2051 12.1694 16.4418C11.598 16.6784 10.9692 16.7404 10.3627 16.6197C9.75608 16.499 9.1989 16.2012 8.76158 15.7639C8.32426 15.3266 8.02644 14.7694 7.90579 14.1628C7.78513 13.5563 7.84706 12.9275 8.08373 12.3561C8.32041 11.7847 8.7212 11.2964 9.23544 10.9528C9.74967 10.6092 10.3542 10.4258 10.9727 10.4258C11.802 10.4258 12.5974 10.7552 13.1838 11.3417C13.7703 11.9281 14.0997 12.7234 14.0997 13.5528Z"
        fill="#454450" />
</svg>