<svg width="20" height="20" viewBox="0 0 20 20" fill="none" xmlns="http://www.w3.org/2000/svg">
    <path
        d="M14.0673 8.33398C13.0179 8.3351 12.0119 8.75245 11.2698 9.49446C10.5278 10.2365 10.1105 11.2425 10.1094 12.2919C10.1089 13.0126 10.3078 13.7194 10.6841 14.334C11.0344 14.9185 11.5302 15.4023 12.1231 15.7382C12.716 16.0741 13.3858 16.2506 14.0673 16.2506C14.7487 16.2506 15.4185 16.0741 16.0114 15.7382C16.6044 15.4023 17.1001 14.9185 17.4504 14.334C17.8278 13.7198 18.0268 13.0127 18.0252 12.2919C18.0253 11.7721 17.923 11.2574 17.7242 10.7771C17.5253 10.2968 17.2338 9.86047 16.8662 9.49292C16.4987 9.12536 16.0623 8.83383 15.5821 8.63498C15.1018 8.43613 14.5871 8.33385 14.0673 8.33398ZM15.5673 13.7677C15.5094 13.8258 15.4406 13.872 15.3648 13.9034C15.289 13.9349 15.2078 13.9511 15.1257 13.9511C15.0436 13.9511 14.9624 13.9349 14.8866 13.9034C14.8108 13.872 14.742 13.8258 14.6841 13.7677L14.0841 13.1677L13.4588 13.7929C13.4009 13.8511 13.3321 13.8972 13.2564 13.9287C13.1806 13.9602 13.0993 13.9764 13.0173 13.9764C12.9352 13.9764 12.854 13.9602 12.7782 13.9287C12.7024 13.8972 12.6336 13.8511 12.5757 13.7929C12.4603 13.6749 12.3957 13.5164 12.3957 13.3514C12.3957 13.1863 12.4603 13.0278 12.5757 12.9098L13.201 12.2845L12.601 11.6761C12.4838 11.559 12.418 11.4001 12.418 11.2345C12.418 11.0689 12.4838 10.91 12.601 10.7929C12.7181 10.6758 12.8769 10.61 13.0425 10.61C13.2082 10.61 13.367 10.6758 13.4841 10.7929L14.0841 11.3929L14.6673 10.8098C14.7844 10.6927 14.9432 10.6269 15.1088 10.6269C15.2745 10.6269 15.4333 10.6927 15.5504 10.8098C15.6675 10.9269 15.7333 11.0857 15.7333 11.2514C15.7333 11.417 15.6675 11.5758 15.5504 11.6929L14.9673 12.2761L15.5673 12.8845C15.6266 12.9417 15.6738 13.0103 15.706 13.0862C15.7382 13.1621 15.7548 13.2437 15.7548 13.3261C15.7548 13.4085 15.7382 13.4901 15.706 13.566C15.6738 13.6418 15.6266 13.7104 15.5673 13.7677Z" />
    <path
        d="M17.151 3.35023V5.1997C17.1022 5.92247 16.8081 6.60691 16.3173 7.1397L16.1668 7.27338C16.107 7.32515 16.0346 7.36013 15.9569 7.37474C15.8793 7.38935 15.7991 7.38307 15.7246 7.35654C15.5583 7.29865 15.391 7.25654 15.2246 7.21444C14.8456 7.12294 14.4567 7.07805 14.0668 7.08075C12.6856 7.08131 11.3611 7.63023 10.3845 8.60688C9.40781 9.58353 8.85889 10.908 8.85833 12.2892C8.85596 13.2356 9.11534 14.1642 9.60781 14.9723C10.012 15.6521 10.572 16.2261 11.2415 16.6471C11.289 16.6711 11.3305 16.7057 11.3626 16.7482C11.3947 16.7907 11.4167 16.84 11.4269 16.8923C11.437 16.9447 11.4351 16.9986 11.4212 17.05C11.4073 17.1015 11.3819 17.1491 11.3468 17.1892C11.2889 17.2386 11.2299 17.2808 11.172 17.3229L10.0057 18.0808C9.74996 18.2373 9.4572 18.3231 9.1574 18.3293C8.85761 18.3354 8.56156 18.2618 8.29958 18.1159C8.0376 17.9701 7.8191 17.7572 7.66647 17.4991C7.51384 17.241 7.43257 16.9469 7.43096 16.6471V12.1923C7.38743 11.5493 7.15367 10.9337 6.75939 10.4239L3.60149 7.05549C3.17071 6.5946 2.90652 6.00285 2.85096 5.37444V3.43233C2.84196 3.20703 2.8779 2.9822 2.95667 2.77093C3.03545 2.55966 3.15549 2.36619 3.3098 2.20178C3.46411 2.03738 3.64961 1.90534 3.85547 1.81335C4.06133 1.72137 4.28344 1.67128 4.50886 1.66602H15.4931C15.9352 1.67292 16.3568 1.85341 16.667 2.16852C16.9772 2.48362 17.151 2.90807 17.151 3.35023Z" />
</svg>