<svg width="19" height="19" viewBox="0 0 19 19" fill="none" xmlns="http://www.w3.org/2000/svg">
    <path
        d="M7.13204 16.9795C7.03364 16.9797 6.93617 16.9604 6.84522 16.9228C6.75427 16.8852 6.67164 16.8301 6.60204 16.7605L2.62804 12.7945C2.55835 12.7249 2.50306 12.6422 2.46534 12.5511C2.42762 12.4601 2.4082 12.3625 2.4082 12.264C2.4082 12.1655 2.42762 12.0679 2.46534 11.9769C2.50306 11.8859 2.55835 11.8032 2.62804 11.7335C2.69769 11.6638 2.78039 11.6085 2.87142 11.5708C2.96244 11.5331 3.06001 11.5137 3.15854 11.5137C325707 11.5137 3.35464 11.5331 3.44567 11.5708C3.53669 11.6085 3.61939 11.6638 3.68904 11.7335L7.65804 15.6985C7.76314 15.8033 7.83477 15.937 7.86385 16.0826C7.89293 16.2281 7.87816 16.3791 7.82141 16.5162C7.76466 16.6534 7.66848 16.7707 7.54505 16.8531C7.42162 16.9356 7.27649 16.9796 7.12804 16.9795H7.13204Z" />
    <path
        d="M7.13281 16.9795C6.9339 16.9795 6.74313 16.9005 6.60248 16.7598C6.46183 16.6192 6.38281 16.4284 6.38281 16.2295V2.77148C6.38281 2.57257 6.46183 2.38181 6.60248 2.24115C6.74313 2.1005 6.9339 2.02148 7.13281 2.02148C7.33172 2.02148 7.52249 2.1005 7.66314 2.24115C7.80379 2.38181 7.88281 2.57257 7.88281 2.77148V16.2295C7.88281 16.4284 7.80379 16.6192 7.66314 16.7598C7.52249 16.9005 7.33172 16.9795 7.13281 16.9795Z" />
    <path
        d="M15.841 7.48732C15.7426 7.48748 15.6452 7.46821 15.5542 7.43063C15.4633 7.39305 15.3806 7.3379 15.311 7.26832L11.337 3.30232C11.2673 3.23267 11.212 3.14997 11.1743 3.05895C11.1366 2.96792 11.1172 2.87036 11.1172 2.77182C11.1172 2.67329 11.1366 2.57573 11.1743 2.4847C11.212 2.39368 11.2673 2.31097 11.337 2.24132C11.4067 2.17163 11.4894 2.11634 11.5804 2.07862C11.6714 2.0409 11.769 2.02148 11.8675 2.02148C11.9661 2.02148 12.0636 2.0409 12.1547 2.07862C12.2457 2.11634 12.3284 2.17163 12.398 2.24132L16.367 6.20632C16.4721 6.31116 16.5438 6.44482 16.5728 6.59039C16.6019 6.73596 16.5871 6.88689 16.5304 7.02406C16.4736 7.16123 16.3775 7.27847 16.254 7.36094C16.1306 7.44341 15.9855 7.48739 15.837 7.48732H15.841Z" />
    <path
        d="M11.8652 16.9795C11.6663 16.9795 11.4756 16.9005 11.3349 16.7598C11.1943 16.6192 11.1152 16.4284 11.1152 16.2295V2.77148C11.1152 2.57257 11.1943 2.38181 11.3349 2.24115C11.4756 2.1005 11.6663 2.02148 11.8652 2.02148C12.0641 2.02148 12.2549 2.1005 12.3956 2.24115C12.5362 2.38181 12.6152 2.57257 12.6152 2.77148V16.2295C12.6152 16.4284 12.5362 16.6192 12.3956 16.7598C12.2549 16.9005 12.0641 16.9795 11.8652 16.9795Z" />
</svg>