<svg width="14" height="14" viewBox="0 0 14 14" fill="none" xmlns="http://www.w3.org/2000/svg">
    <path d="M5.61751 12.0564L5.41629 10.4386C5.3073 10.3965 5.20459 10.346 5.10818 10.287C5.01176 10.228 4.91744 10.1648 4.82522 10.0974L3.32867 10.7293L1.94531 8.32795L3.24064 7.34212C3.23226 7.28314 3.22807 7.22626 3.22807 7.17149V6.83024C3.22807 6.77547 3.23226 6.7186 3.24064 6.65962L1.94531 5.67378L3.32867 3.2724L4.82522 3.90434C4.91744 3.83693 5.01386 3.77374 5.11447 3.71476C5.21507 3.65578 5.31568 3.60522 5.41629 3.56309L5.61751 1.94531H8.38423L8.58544 3.56309C8.69444 3.60522 8.79714 3.65578 8.89356 3.71476C8.98997 3.77374 9.08429 3.83693 9.17652 3.90434L10.6731 3.2724L12.0564 5.67378L10.7611 6.65962C10.7695 6.7186 10.7737 6.77547 10.7737 6.83024V7.17149C10.7737 7.22626 10.7653 7.28314 10.7485 7.34212L12.0438 8.32795L10.6605 10.7293L9.17652 10.0974C9.08429 10.1648 8.98788 10.228 8.88727 10.287C8.78666 10.346 8.68605 10.3965 8.58544 10.4386L8.38423 12.0564H5.61751ZM7.02602 8.77031C7.51229 8.77031 7.9273 8.59758 8.27104 8.25212C8.61479 7.90665 8.78666 7.48957 8.78666 7.00087C8.78666 6.51216 8.61479 6.09508 8.27104 5.74962C7.9273 5.40416 7.51229 5.23142 7.02602 5.23142C6.53136 5.23142 6.11426 5.40416 5.77471 5.74962C5.43515 6.09508 5.26538 6.51216 5.26538 7.00087C5.26538 7.48957 5.43515 7.90665 5.77471 8.25212C6.11426 8.59758 6.53136 8.77031 7.02602 8.77031Z"/>
</svg>
