<svg width="14" height="14" viewBox="0 0 14 14" fill="none" xmlns="http://www.w3.org/2000/svg">
<path fill-rule="evenodd" clip-rule="evenodd" d="M9.11692 3.46504C9.93 3.51003 10.7374 3.57024 11.5454 3.65072C11.6456 3.66023 11.7381 3.70862 11.803 3.78551C11.8679 3.86239 11.9001 3.96166 11.8927 4.06202C11.883 4.15526 11.8392 4.24163 11.7697 4.30456C11.7003 4.36749 11.61 4.40254 11.5163 4.40297H11.4763C8.84071 4.10484 6.18197 4.0696 3.53937 4.29777L2.51588 4.3979C2.46682 4.40252 2.41733 4.39743 2.37024 4.38292C2.32315 4.36842 2.27937 4.34478 2.24141 4.31335C2.20346 4.28193 2.17206 4.24333 2.14902 4.19977C2.12598 4.15622 2.11174 4.10855 2.10712 4.05948C2.1025 4.01042 2.10759 3.96093 2.1221 3.91384C2.13661 3.86675 2.16025 3.82297 2.19167 3.78502C2.2231 3.74706 2.26169 3.71566 2.30525 3.69262C2.34881 3.66958 2.39648 3.65534 2.44554 3.65072L3.46903 3.54996C3.93546 3.50813 4.40253 3.47518 4.86896 3.44476L4.97416 2.80278C5.05464 2.31607 5.16491 1.65381 6.33416 1.65381H7.64854C8.81578 1.65381 8.93161 2.34049 9.00954 2.80246L9.01045 2.80785L9.11692 3.45997V3.46504ZM10.414 4.96594C10.4921 4.99958 10.5627 5.04863 10.6216 5.11015C10.6804 5.17403 10.7259 5.24906 10.7553 5.3308C10.7847 5.41255 10.7974 5.49935 10.7927 5.58609L10.4815 10.7289C10.4264 11.4938 10.356 12.4444 8.60499 12.4444H5.3837C3.63394 12.4444 3.56233 11.4894 3.50719 10.7289L3.19539 5.58165C3.19114 5.49558 3.20415 5.40953 3.23364 5.32856C3.26314 5.24759 3.30852 5.17333 3.36714 5.11015C3.42582 5.04812 3.49657 4.99875 3.57504 4.96508C3.65351 4.9314 3.73804 4.91413 3.82343 4.91433H10.1665C10.2516 4.91474 10.3358 4.93229 10.414 4.96594ZM6.15622 9.93164H7.8274V9.93228C7.92723 9.93228 8.02298 9.89262 8.09358 9.82202C8.16418 9.75142 8.20384 9.65567 8.20384 9.55584C8.20384 9.456 8.16418 9.36025 8.09358 9.28965C8.02298 9.21906 7.92723 9.1794 7.8274 9.1794H6.15622C6.05914 9.18338 5.96736 9.22475 5.90008 9.29485C5.8328 9.36495 5.79522 9.45836 5.79522 9.55552C5.79522 9.65269 5.8328 9.74609 5.90008 9.81619C5.96736 9.88629 6.05914 9.92766 6.15622 9.93164ZM5.73986 7.92459H8.24883V7.92522C8.34867 7.92522 8.44442 7.88556 8.51502 7.81497C8.58561 7.74437 8.62527 7.64862 8.62527 7.54878C8.62527 7.44894 8.58561 7.3532 8.51502 7.2826C8.44442 7.212 8.34867 7.17234 8.24883 7.17234H5.73986C5.68916 7.17026 5.63857 7.17845 5.59113 7.19641C5.54368 7.21438 5.50035 7.24175 5.46375 7.27688C5.42714 7.31201 5.39802 7.35418 5.37812 7.40085C5.35823 7.44752 5.34797 7.49773 5.34797 7.54847C5.34797 7.5992 5.35823 7.64941 5.37812 7.69608C5.39802 7.74276 5.42714 7.78492 5.46375 7.82006C5.50035 7.85519 5.54368 7.88256 5.59113 7.90052C5.63857 7.91848 5.68916 7.92667 5.73986 7.92459Z"/>
</svg>
