<svg width="18" height="18" viewBox="0 0 18 18" fill="none" xmlns="http://www.w3.org/2000/svg">
<path d="M9.64402 12.1638C9.47319 12.3333 9.24154 12.4285 9 12.4285C8.75846 12.4285 8.5268 12.3333 8.35598 12.1638L3.26762 7.11553C3.14 6.9892 3.05302 6.82813 3.01768 6.65271C2.98234 6.4773 3.00023 6.29542 3.06908 6.1301C3.13794 5.96478 3.25466 5.82344 3.40448 5.72399C3.5543 5.62453 3.73048 5.57142 3.91072 5.57139L14.0875 5.57139C14.2679 5.57107 14.4443 5.62391 14.5944 5.72323C14.7445 5.82255 14.8615 5.96386 14.9306 6.12926C14.9996 6.29466 15.0177 6.47669 14.9824 6.65227C14.9471 6.82785 14.8601 6.98909 14.7324 7.11553L9.64402 12.1638Z"/>
</svg>
