<svg width="14" height="14" viewBox="0 0 14 14" fill="none" xmlns="http://www.w3.org/2000/svg">
<g id="translate">
<path id="Union" fill-rule="evenodd" clip-rule="evenodd" d="M6.13437 2.03402C6.67325 2.03371 7.20691 2.13959 7.70486 2.3456C8.20281 2.55161 8.65528 2.85372 9.03643 3.23465C9.41759 3.61559 9.71995 4.0679 9.92624 4.56573C10.1325 5.06356 10.2387 5.59716 10.2387 6.13604C10.2387 6.94725 9.99819 7.74024 9.54755 8.41476C9.09692 9.08929 8.4564 9.61505 7.70699 9.92559C6.95758 10.2361 6.13292 10.3175 5.33727 10.1594C4.54162 10.0013 3.8107 9.61087 3.23693 9.03743C2.66316 8.46398 2.2723 7.73328 2.11376 6.93772C1.95522 6.14216 2.03613 5.31745 2.34624 4.56787C2.65636 3.81828 3.18177 3.17747 3.85604 2.72646C4.53031 2.27544 5.32317 2.03447 6.13437 2.03402ZM8.35501 0.77411C7.65062 0.48269 6.89571 0.332916 6.13341 0.333344C4.98589 0.333992 3.86432 0.674864 2.9105 1.31287C1.95668 1.95087 1.21344 2.85735 0.774753 3.91771C0.336062 4.97807 0.221616 6.1447 0.445883 7.27009C0.670151 8.39549 1.22306 9.42913 2.03471 10.2403C2.84636 11.0515 3.88031 11.6038 5.00584 11.8275C6.13136 12.0511 7.29792 11.936 8.35803 11.4967C8.79906 11.314 9.21343 11.0785 9.59288 10.7972L12.2157 13.42C12.5478 13.752 13.0862 13.752 13.4183 13.42C13.7503 13.0879 13.7503 12.5495 13.4183 12.2174L10.7958 9.59494C10.8529 9.51798 10.9082 9.43948 10.9617 9.3595C11.5991 8.40533 11.9394 7.28357 11.9394 6.13604C11.9394 5.37374 11.7892 4.61892 11.4974 3.91469C11.2055 3.21046 10.7778 2.57063 10.2387 2.03176C9.69948 1.49289 9.05941 1.06553 8.35501 0.77411Z"/>
</g>
</svg>
