<svg width="18" height="18" viewBox="0 0 18 18" fill="none" xmlns="http://www.w3.org/2000/svg">
<path fill-rule="evenodd" clip-rule="evenodd" d="M9.04189 3.5C11.3708 3.5 13.582 4.86725 15.0931 7.24196C15.4147 7.80954 15.5838 8.45076 15.5838 9.10312C15.5838 9.75548 15.4147 10.3967 15.0931 10.9643C14.405 12.0791 13.4749 13.0248 12.3717 13.7315C11.3741 14.36 10.2209 14.6976 9.04189 14.7062C6.71298 14.7062 4.50182 13.3455 2.99064 10.9643C2.66904 10.3967 2.5 9.75548 2.5 9.10312C2.5 8.45076 2.66904 7.80954 2.99064 7.24196C3.67882 6.12716 4.60891 5.18142 5.71207 4.47474C6.70965 3.84623 7.86286 3.50865 9.04189 3.5ZM7.57356 11.3039C8.00818 11.5943 8.51917 11.7493 9.04189 11.7493C9.38908 11.7497 9.73295 11.6817 10.0538 11.549C10.3746 11.4163 10.6662 11.2217 10.9117 10.9762C11.1572 10.7307 11.3518 10.4392 11.4845 10.1183C11.6172 9.79746 11.6852 9.45359 11.6848 9.10639C11.6848 8.58367 11.5298 8.07269 11.2394 7.63807C10.949 7.20344 10.5362 6.86469 10.0533 6.66465C9.57036 6.46462 9.03895 6.41228 8.52628 6.51426C8.0136 6.61623 7.54268 6.86795 7.17306 7.23757C6.80344 7.60719 6.55173 8.07811 6.44975 8.59079C6.34777 9.10346 6.40011 9.63487 6.60015 10.1178C6.80018 10.6007 7.13893 11.0135 7.57356 11.3039ZM8.00547 7.55158C8.31211 7.34611 8.67276 7.2361 9.04188 7.23546C9.28766 7.2352 9.53107 7.28342 9.75818 7.37735C9.9853 7.47128 10.1917 7.60909 10.3654 7.78288C10.5392 7.95667 10.677 8.16302 10.771 8.39014C10.8649 8.61725 10.9131 8.86066 10.9129 9.10643C10.9122 9.47555 10.8022 9.8362 10.5967 10.1428C10.3913 10.4495 10.0995 10.6884 9.75839 10.8293C9.41724 10.9703 9.04198 11.007 8.67998 10.9348C8.31799 10.8627 7.98549 10.6848 7.72449 10.4238C7.46348 10.1628 7.28567 9.83033 7.2135 9.46834C7.14133 9.10634 7.17804 8.73108 7.31899 8.38993C7.45995 8.04879 7.69883 7.75706 8.00547 7.55158Z"/>
</svg>
