<svg width="19" height="19" viewBox="0 0 19 19" fill="none" xmlns="http://www.w3.org/2000/svg">
    <path
        d="M7.52786 18.0012H9.42786L6.75986 10.6172H4.67786L2.00586 18.0012H3.88886L4.33086 16.7012H7.08586L7.52786 18.0012ZM6.62786 15.3082H4.80386L5.70386 12.6082L6.62786 15.3082Z"
        fill="#3BC7FF" />
    <path
        d="M8.22286 0.998047H3.00586V2.47105H6.16186L3.00586 7.01505V8.38205H8.22286V6.91005H5.04686L8.22286 2.36505V0.998047Z"
        fill="#454450" />
    <path
        d="M14.4962 18.0007C14.3978 18.0007 14.3003 17.9813 14.2093 17.9435C14.1184 17.9057 14.0358 17.8504 13.9662 17.7807L11.4732 15.2877C11.3328 15.147 11.2539 14.9564 11.2539 14.7577C11.2539 14.5589 11.3328 14.3683 11.4732 14.2277C11.6139 14.0872 11.8045 14.0083 12.0032 14.0083C12.202 14.0083 12.3926 14.0872 12.5332 14.2277L14.4962 16.1897L16.4582 14.2277C16.5279 14.158 16.6106 14.1027 16.7016 14.0649C16.7926 14.0272 16.8902 14.0078 16.9887 14.0078C17.0873 14.0078 17.1848 14.0272 17.2759 14.0649C17.3669 14.1027 17.4496 14.158 17.5192 14.2277C17.5889 14.2973 17.6442 14.38 17.6819 14.471C17.7197 14.5621 17.7391 14.6596 17.7391 14.7582C17.7391 14.8567 17.7197 14.9543 17.6819 15.0453C17.6442 15.1363 17.5889 15.219 17.5192 15.2887L15.0262 17.7807C14.9567 17.8504 14.8741 17.9057 14.7832 17.9435C14.6922 17.9813 14.5947 18.0007 14.4962 18.0007Z"
        fill="#454450" />
    <path
        d="M14.4945 17.999C14.2716 17.9711 14.0683 17.8573 13.9282 17.6816C13.7881 17.506 13.7222 17.2826 13.7445 17.059V1.94C13.7222 1.71644 13.7881 1.493 13.9282 1.31737C14.0683 1.14175 14.2716 1.02785 14.4945 1C14.7175 1.02785 14.9207 1.14175 15.0608 1.31737C15.2009 1.493 15.2669 1.71644 15.2445 1.94V17.059C15.2669 17.2826 15.2009 17.506 15.0608 17.6816C14.9207 17.8573 14.7175 17.9711 14.4945 17.999Z"
        fill="#454450" />
</svg>