<svg width="18" height="18" viewBox="0 0 18 18" fill="none" xmlns="http://www.w3.org/2000/svg">
<path fill-rule="evenodd" clip-rule="evenodd" d="M14.9915 2.5C15.1242 2.5 15.2515 2.55252 15.3456 2.64608C15.3928 2.69116 15.4304 2.74535 15.4561 2.80538C15.4818 2.86541 15.4951 2.93003 15.4951 2.99532C15.4951 3.06062 15.4818 3.12523 15.4561 3.18526C15.4304 3.24529 15.3928 3.29949 15.3456 3.34457L3.35107 15.3424C3.30546 15.3893 3.25093 15.4268 3.19068 15.4524C3.13044 15.4781 3.06568 15.4915 3.0002 15.4918C2.86931 15.4906 2.74381 15.4394 2.64933 15.3488C2.55577 15.2547 2.50325 15.1274 2.50325 14.9947C2.50325 14.862 2.55577 14.7347 2.64933 14.6406L4.56082 12.7281C3.95545 12.1717 3.42616 11.5367 2.98732 10.8396C2.6679 10.2759 2.5 9.63902 2.5 8.99108C2.5 8.34313 2.6679 7.70625 2.98732 7.14251C3.67083 6.03527 4.59463 5.09593 5.69031 4.39404C6.68244 3.77267 7.827 3.43763 8.99758 3.4259C10.3158 3.44345 11.5928 3.86398 12.6598 4.62476L14.6374 2.64608C14.7315 2.55252 14.8588 2.5 14.9915 2.5ZM10.47 6.81567C10.3241 6.71668 10.168 6.63261 10.0042 6.56501C9.68503 6.43334 9.3428 6.3668 8.99758 6.3693C8.47847 6.37001 7.9712 6.52442 7.53973 6.81306C7.10827 7.1017 6.77195 7.51165 6.57318 7.9912C6.37441 8.47074 6.3221 8.99841 6.42284 9.50765C6.49099 9.85213 6.62712 10.1777 6.82148 10.4662L7.38188 9.9055C7.22642 9.62958 7.14164 9.31644 7.13928 8.99434C7.14031 8.5018 7.33643 8.02973 7.68471 7.68145C8.03298 7.33318 8.50505 7.13706 8.99759 7.13603C9.31936 7.13839 9.63217 7.22299 9.90787 7.37813L10.47 6.81567ZM15.0208 7.16203C14.8374 6.87167 14.6379 6.59184 14.4231 6.32384C14.3664 6.25162 14.295 6.19225 14.2136 6.14963C14.1323 6.10701 14.0428 6.08212 13.9512 6.07659C13.8595 6.07107 13.7677 6.08503 13.6818 6.11757C13.596 6.15011 13.518 6.20048 13.453 6.26537L11.5037 8.21464C11.6541 8.67965 11.6677 9.17811 11.5427 9.65061C11.4266 10.1049 11.1904 10.5195 10.8588 10.851C10.5273 11.1826 10.1127 11.4188 9.65839 11.5349C9.1859 11.6599 8.68744 11.6463 8.22243 11.4959L6.62597 13.0937C6.5492 13.1694 6.49249 13.2631 6.46095 13.3662C6.42941 13.4693 6.42403 13.5787 6.4453 13.6844C6.46658 13.7901 6.51383 13.8889 6.5828 13.9718C6.65178 14.0547 6.7403 14.1191 6.84039 14.1593C7.52852 14.4252 8.25985 14.5618 8.99759 14.5621C10.1686 14.5535 11.314 14.2182 12.3049 13.594C13.424 12.8757 14.3641 11.9112 15.0533 10.774C15.352 10.2178 15.5055 9.5952 15.4999 8.96387C15.4942 8.33254 15.3294 7.71283 15.0208 7.16203ZM10.8559 8.99434C10.8549 9.48688 10.6588 9.95895 10.3105 10.3072C9.9622 10.6555 9.49013 10.8516 8.99759 10.8526C8.9603 10.8547 8.92293 10.8503 8.88713 10.8397L10.8429 8.88388C10.8536 8.91968 10.858 8.95705 10.8559 8.99434Z"/>
</svg>
