<svg width="25" height="25" viewBox="0 0 25 25" fill="none" xmlns="http://www.w3.org/2000/svg">
<g clip-path="url(#clip0_4488_69844)">
<path d="M8.68818 3.15781V8.73671H3.15771C3.15771 5.26718 5.22568 3.17734 8.68818 3.15781Z" fill="#A7B0B5"/>
<path d="M21.842 8.73671H16.3115V3.15781C19.774 3.17734 21.842 5.26718 21.842 8.73671Z" fill="#A7B0B5"/>
<path d="M21.842 16.3586C21.8037 19.7734 19.749 21.8219 16.3115 21.8414V16.3586H21.842Z" fill="#A7B0B5"/>
<path d="M8.68818 16.3586V21.8414C5.25459 21.8219 3.196 19.7734 3.15771 16.3586H8.68818Z" fill="#A7B0B5"/>
<path d="M3.15771 9.90155H8.68818V15.1922H3.15771V9.90155Z" fill="#A7B0B5"/>
<path d="M16.3115 9.90155H21.842V15.1922H16.3115V9.90155Z" fill="#A7B0B5"/>
<path d="M9.85449 9.90155H15.1451V15.1922H9.85449V9.90155Z" fill="#A7B0B5"/>
<path d="M9.85449 3.15781H15.1451V8.73671H9.85449V3.15781Z" fill="#A7B0B5"/>
<path d="M9.85449 16.3586H15.1451V21.8414H9.85449V16.3586Z" fill="#A7B0B5"/>
</g>
<defs>
<clipPath id="clip0_4488_69844">
<rect width="25" height="25" fill="white"/>
</clipPath>
</defs>
</svg>
