<svg width="25" height="25" viewBox="0 0 25 25" fill="none" xmlns="http://www.w3.org/2000/svg">
<path d="M21.7702 23.3312H15.0007V21.6672H20.921C21.1282 21.6672 21.3269 21.5849 21.4734 21.4384C21.6199 21.2918 21.7022 21.0931 21.7022 20.8859V14.9992H23.3335V21.7687C23.3335 21.974 23.2931 22.1772 23.2145 22.3669C23.1359 22.5565 23.0207 22.7288 22.8756 22.8739C22.7304 23.019 22.5581 23.134 22.3684 23.2125C22.1787 23.291 21.9755 23.3313 21.7702 23.3312ZM10.0015 23.3312H3.23193C2.81753 23.3312 2.4201 23.1666 2.12708 22.8736C1.83405 22.5806 1.66943 22.1831 1.66943 21.7687V14.9992H3.37178V20.8859C3.37178 21.0931 3.45409 21.2918 3.6006 21.4384C3.74711 21.5849 3.94583 21.6672 4.15303 21.6672H10.0015V23.3328V23.3312ZM23.3335 10.0008H21.7022V4.11483C21.7022 3.90763 21.6199 3.70892 21.4734 3.5624C21.3269 3.41589 21.1282 3.33358 20.921 3.33358H15.0007V1.66718H21.7702C22.1846 1.66718 22.582 1.8318 22.8751 2.12482C23.1681 2.41785 23.3327 2.81527 23.3327 3.22968V9.99921L23.3335 10.0008ZM3.37178 10.0008H1.66943V3.22968C1.66943 2.81527 1.83405 2.41785 2.12708 2.12482C2.4201 1.8318 2.81753 1.66718 3.23193 1.66718H10.0015V3.33358H4.15303C3.94583 3.33358 3.74711 3.41589 3.6006 3.5624C3.45409 3.70892 3.37178 3.90763 3.37178 4.11483V9.99999V10.0008Z" fill="#A7B0B5"/>
</svg>
