<svg width="25" height="25" viewBox="0 0 25 25" fill="none" xmlns="http://www.w3.org/2000/svg">
<g clip-path="url(#clip0_4488_69822)">
<path d="M22.9161 22.9169H2.08313C1.87634 22.9154 1.67843 22.8327 1.5322 22.6864C1.38597 22.5402 1.30319 22.3423 1.30176 22.1355C1.30319 21.9287 1.38597 21.7308 1.5322 21.5846C1.67843 21.4383 1.87634 21.3556 2.08313 21.3541H22.9161C23.1229 21.3556 23.3208 21.4383 23.467 21.5846C23.6132 21.7308 23.696 21.9287 23.6974 22.1355C23.696 22.3423 23.6132 22.5402 23.467 22.6864C23.3208 22.8327 23.1229 22.9154 22.9161 22.9169Z" fill="#A7B0B5"/>
<path d="M10.1562 4.16627V22.9192H14.8445V4.16627C14.8445 3.02078 14.3757 2.08313 12.9692 2.08313H12.0315C10.6251 2.08313 10.1562 3.02078 10.1562 4.16627Z" fill="#A7B0B5"/>
<path d="M3.12451 10.4165V22.9184H7.29157V10.4165C7.29157 9.27099 6.8751 8.33334 5.6249 8.33334H4.79118C3.54098 8.33334 3.12451 9.27099 3.12451 10.4165Z" fill="#A7B0B5"/>
<path d="M17.708 15.6251V22.9184H21.8751V15.6251C21.8751 14.4796 21.4586 13.542 20.2084 13.542H19.3747C18.1245 13.542 17.708 14.4796 17.708 15.6251Z" fill="#A7B0B5"/>
</g>
<defs>
<clipPath id="clip0_4488_69822">
<rect width="25" height="25" fill="white"/>
</clipPath>
</defs>
</svg>
