<svg width="25" height="25" viewBox="0 0 25 25" fill="none" xmlns="http://www.w3.org/2000/svg">
<g clip-path="url(#clip0_4488_69833)">
<path d="M2.6876 19.8023L2.6665 19.8234C2.37399 19.1636 2.1944 18.4592 2.13525 17.7398C2.20255 18.4534 2.38926 19.1506 2.6876 19.8023Z" fill="#A7B0B5"/>
<path d="M22.5908 17.3453L19.4486 9.99532C18.8759 8.65001 18.0212 7.88751 17.0486 7.83438C16.0759 7.78126 15.1509 8.45938 14.4384 9.7422L12.5306 13.1688C12.3854 13.4863 12.1635 13.7626 11.8849 13.9729C11.6062 14.1832 11.2796 14.3209 10.9345 14.3734C10.5841 14.3833 10.237 14.3035 9.92598 14.1418C9.61498 13.9801 9.35036 13.7417 9.15716 13.4492L8.93606 13.168C8.66001 12.7652 8.28514 12.4401 7.84739 12.2239C7.40964 12.0076 6.92367 11.9074 6.43606 11.9328C5.95403 12.009 5.49967 12.2078 5.11661 12.5101C4.73354 12.8125 4.43463 13.2082 4.24856 13.6594L2.51028 17.1242C2.20408 17.7339 2.05898 18.4118 2.08878 19.0934C2.11858 19.775 2.32229 20.4377 2.68054 21.0183C3.03879 21.5989 3.53965 22.0782 4.13547 22.4106C4.73129 22.743 5.40224 22.9174 6.0845 22.9172H18.897C19.5595 22.9177 20.2118 22.7538 20.7954 22.4402C21.3789 22.1266 21.8756 21.6731 22.2408 21.1203C22.6127 20.5716 22.8398 19.9378 22.901 19.2778C22.9622 18.6178 22.8555 17.953 22.5908 17.3453Z" fill="#A7B0B5"/>
<path d="M10.8744 5.47734C10.8744 6.14856 10.6754 6.8047 10.3025 7.3628C9.92956 7.9209 9.39952 8.35589 8.7794 8.61275C8.15927 8.86962 7.4769 8.93683 6.81858 8.80588C6.16025 8.67493 5.55555 8.35171 5.08092 7.87708C4.6063 7.40246 4.28307 6.79775 4.15213 6.13943C4.02118 5.4811 4.08838 4.79873 4.34525 4.17861C4.60211 3.55848 5.0371 3.02845 5.5952 2.65554C6.1533 2.28263 6.80945 2.08359 7.48067 2.08359C8.38074 2.08359 9.24396 2.44114 9.88041 3.07759C10.5169 3.71405 10.8744 4.57726 10.8744 5.47734Z" fill="#A7B0B5"/>
</g>
<defs>
<clipPath id="clip0_4488_69833">
<rect width="25" height="25" fill="white"/>
</clipPath>
</defs>
</svg>
