<svg width="25" height="25" viewBox="0 0 25 25" fill="none" xmlns="http://www.w3.org/2000/svg">
<path d="M21.7702 23.3312H15.0007V21.6672H20.921C21.1282 21.6672 21.3269 21.5849 21.4734 21.4384C21.6199 21.2918 21.7022 21.0931 21.7022 20.8859V14.9992H23.3335V21.7687C23.3335 21.974 23.2931 22.1772 23.2145 22.3669C23.1359 22.5565 23.0207 22.7288 22.8756 22.8739C22.7304 23.019 22.5581 23.134 22.3684 23.2125C22.1787 23.291 21.9755 23.3313 21.7702 23.3312ZM10.0015 23.3312H3.23193C2.81753 23.3312 2.4201 23.1666 2.12708 22.8736C1.83405 22.5806 1.66943 22.1831 1.66943 21.7687V14.9992H3.37178V20.8859C3.37178 21.0931 3.45409 21.2918 3.6006 21.4384C3.74711 21.5849 3.94583 21.6672 4.15303 21.6672H10.0015V23.3328V23.3312ZM23.3335 10.0008H21.7022V4.11483C21.7022 3.90763 21.6199 3.70892 21.4734 3.5624C21.3269 3.41589 21.1282 3.33358 20.921 3.33358H15.0007V1.66718H21.7702C22.1846 1.66718 22.582 1.8318 22.8751 2.12482C23.1681 2.41785 23.3327 2.81527 23.3327 3.22968V9.99921L23.3335 10.0008ZM3.37178 10.0008H1.66943V3.22968C1.66943 2.81527 1.83405 2.41785 2.12708 2.12482C2.4201 1.8318 2.81753 1.66718 3.23193 1.66718H10.0015V3.33358H4.15303C3.94583 3.33358 3.74711 3.41589 3.6006 3.5624C3.45409 3.70892 3.37178 3.90763 3.37178 4.11483V9.99999V10.0008Z" fill="#A7B0B5"/>
<path d="M10.9346 5.46875H6.24707C5.8156 5.46875 5.46582 5.81853 5.46582 6.25V10.9375C5.46582 11.369 5.8156 11.7188 6.24707 11.7188H10.9346C11.366 11.7188 11.7158 11.369 11.7158 10.9375V6.25C11.7158 5.81853 11.366 5.46875 10.9346 5.46875Z" fill="#A7B0B5"/>
<path d="M10.9346 13.2812H6.24707C5.8156 13.2812 5.46582 13.631 5.46582 14.0625V18.75C5.46582 19.1815 5.8156 19.5312 6.24707 19.5312H10.9346C11.366 19.5312 11.7158 19.1815 11.7158 18.75V14.0625C11.7158 13.631 11.366 13.2812 10.9346 13.2812Z" fill="#A7B0B5"/>
<path d="M18.7471 5.46875H14.0596C13.6281 5.46875 13.2783 5.81853 13.2783 6.25V10.9375C13.2783 11.369 13.6281 11.7188 14.0596 11.7188H18.7471C19.1785 11.7188 19.5283 11.369 19.5283 10.9375V6.25C19.5283 5.81853 19.1785 5.46875 18.7471 5.46875Z" fill="#A7B0B5"/>
<path d="M18.7471 13.2812H14.0596C13.6281 13.2812 13.2783 13.631 13.2783 14.0625V18.75C13.2783 19.1815 13.6281 19.5312 14.0596 19.5312H18.7471C19.1785 19.5312 19.5283 19.1815 19.5283 18.75V14.0625C19.5283 13.631 19.1785 13.2812 18.7471 13.2812Z" fill="#A7B0B5"/>
</svg>
