<svg width="14" height="14" viewBox="0 0 14 14" fill="none" xmlns="http://www.w3.org/2000/svg">
<path d="M12.6401 4.05162C12.4446 3.41648 12.0967 2.83882 11.6267 2.369C11.1567 1.89917 10.5789 1.55145 9.94373 1.35615C9.61306 1.20661 9.25195 1.13665 8.88937 1.15189C8.52678 1.16713 8.17281 1.26713 7.85586 1.44389C7.6296 1.6594 7.45607 1.92418 7.34875 2.21765C7.24143 2.51112 7.20321 2.82538 7.23706 3.13602V4.58829C7.23706 6.02375 7.89039 6.75362 9.17466 6.75362H10.8491C11.1597 6.78697 11.4738 6.74851 11.7672 6.64122C12.0606 6.53393 12.3254 6.36068 12.5412 6.13482C12.7249 5.82145 12.8298 5.46822 12.847 5.1054C12.8643 4.74257 12.7933 4.38098 12.6401 4.05162Z"/>
<path d="M11.0301 7.79148C10.9554 7.70547 10.863 7.63648 10.7593 7.58915C10.6557 7.54182 10.543 7.51724 10.4291 7.51708H8.34027C7.84794 7.51561 7.37613 7.3197 7.02757 6.97201C6.679 6.62432 6.48191 6.153 6.4792 5.66068V3.56721C6.47904 3.45324 6.45447 3.34063 6.40714 3.23695C6.3598 3.13327 6.29081 3.04093 6.2048 2.96615C6.12044 2.89145 6.02108 2.83565 5.91339 2.80249C5.80571 2.76933 5.69217 2.75958 5.5804 2.77388C4.89517 2.86506 4.23566 3.09469 3.64198 3.44881C3.0483 3.80293 2.53288 4.27413 2.12707 4.83375C1.62972 5.5201 1.31351 6.3208 1.20768 7.16178C1.10186 8.00275 1.20983 8.85683 1.52162 9.645C1.83341 10.4332 2.33895 11.13 2.99146 11.671C3.64397 12.212 4.42237 12.5796 5.25467 12.74C5.57186 12.8029 5.89451 12.8341 6.21787 12.8333C7.27711 12.835 8.30905 12.4975 9.16254 11.8701C9.72215 11.4643 10.1934 10.9489 10.5475 10.3552C10.9016 9.76156 11.1312 9.10204 11.2224 8.41681C11.2373 8.30488 11.2278 8.19106 11.1946 8.08313C11.1614 7.97521 11.1053 7.87572 11.0301 7.79148Z"/>
</svg>
