<svg width="14" height="14" viewBox="0 0 14 14" fill="none" xmlns="http://www.w3.org/2000/svg">
<path d="M11.9584 5.94376H10.2729C9.60797 5.94273 8.97056 5.67813 8.50038 5.20795C8.0302 4.73777 7.7656 4.10036 7.76457 3.43543V1.74998C7.76416 1.5954 7.70257 1.44727 7.59326 1.33796C7.48396 1.22865 7.33582 1.16706 7.18124 1.16665H4.70713C4.27395 1.14193 3.84045 1.20906 3.43503 1.36363C3.02962 1.51821 2.66147 1.75673 2.3547 2.06357C2.04794 2.3704 1.8095 2.73862 1.65503 3.14407C1.50055 3.54952 1.43353 3.98304 1.45835 4.41621V9.58454C1.43364 10.0176 1.50075 10.4511 1.65528 10.8564C1.8098 11.2618 2.04826 11.6299 2.35501 11.9367C2.66176 12.2434 3.02988 12.4819 3.43523 12.6364C3.84059 12.7909 4.27402 12.858 4.70713 12.8333H9.29213C9.72523 12.858 10.1587 12.7909 10.564 12.6364C10.9694 12.4819 11.3375 12.2434 11.6442 11.9367C11.951 11.6299 12.1895 11.2618 12.344 10.8564C12.4985 10.4511 12.5656 10.0176 12.5409 9.58454V6.5271C12.5405 6.37265 12.479 6.22463 12.3699 6.11534C12.2607 6.00606 12.1128 5.94438 11.9584 5.94376Z"/>
<path d="M9.21669 1.28878C9.16431 1.23527 9.09733 1.19837 9.02411 1.1827C8.95089 1.16702 8.87468 1.17327 8.80498 1.20065C8.73529 1.22803 8.67521 1.27533 8.63223 1.33665C8.58926 1.39797 8.5653 1.47059 8.56335 1.54544V3.58167C8.57254 3.99971 8.74598 4.39732 9.04613 4.68845C9.34628 4.97958 9.749 5.1408 10.1671 5.13722C10.7217 5.14344 11.4894 5.14267 12.1505 5.14267C12.2232 5.14426 12.2948 5.12424 12.3562 5.08514C12.4175 5.04605 12.4659 4.98963 12.4952 4.92303C12.5246 4.85642 12.5335 4.78262 12.5208 4.71096C12.5082 4.6393 12.4746 4.573 12.4242 4.52044C11.585 3.675 10.08 2.15211 9.21669 1.28878Z"/>
</svg>
