<svg width="14" height="14" viewBox="0 0 14 14" fill="none" xmlns="http://www.w3.org/2000/svg">
<path d="M4.52145 1.16689V4.55007H1.16697C1.12502 4.09778 1.18274 3.64181 1.33607 3.21424C1.4894 2.78668 1.7346 2.39794 2.05442 2.07539C2.37423 1.75284 2.76087 1.50433 3.18711 1.34737C3.61335 1.1904 4.06882 1.1288 4.52145 1.16689Z"/>
<path d="M12.8343 4.55007H9.47986V1.16689C9.93248 1.1288 10.388 1.1904 10.8142 1.34737C11.2404 1.50433 11.6271 1.75284 11.9469 2.07539C12.2667 2.39794 12.5119 2.78668 12.6652 3.21424C12.8186 3.64181 12.8763 4.09778 12.8343 4.55007Z"/>
<path d="M12.8343 9.50873C12.8686 9.95668 12.8052 10.4067 12.6483 10.8277C12.4914 11.2487 12.2449 11.6306 11.9259 11.9468C11.6068 12.2631 11.2228 12.5062 10.8004 12.6594C10.3781 12.8126 9.92749 12.8721 9.47986 12.8338V9.50873H12.8343Z"/>
<path d="M4.52119 9.50873V12.8338C4.07355 12.8721 3.62296 12.8126 3.20061 12.6594C2.77826 12.5062 2.39425 12.2631 2.07518 11.9468C1.75611 11.6306 1.50961 11.2487 1.35274 10.8277C1.19587 10.4067 1.1324 9.95668 1.16671 9.50873L4.52119 9.50873Z"/>
<path d="M1.16736 5.4252H4.52184V8.63621H1.16736V5.4252Z"/>
<path d="M9.47986 5.4252H12.8343V8.63621H9.47986V5.4252Z"/>
<path d="M5.39539 5.4252H8.6064V8.63621H5.39539V5.4252Z"/>
<path d="M5.39539 1.16687H8.6064V4.55004H5.39539V1.16687Z"/>
<path d="M5.39539 9.50873H8.6064V12.8338H5.39539V9.50873Z"/>
</svg>
