<svg width="14" height="14" viewBox="0 0 14 14" fill="none"
  xmlns="http://www.w3.org/2000/svg">
  <path d="M9.46112 6.49926C9.59294 6.63212 9.66699 6.8123 9.66699 7.00016C9.66699 7.18803 9.59294 7.3682 9.46112 7.50107L5.53466 11.4587C5.4364 11.5579 5.31113 11.6256 5.17469 11.6531C5.03826 11.6806 4.8968 11.6667 4.76821 11.6131C4.63963 11.5595 4.5297 11.4688 4.45235 11.3522C4.375 11.2357 4.33369 11.0987 4.33366 10.9585L4.33366 3.04325C4.33341 2.90294 4.37452 2.76572 4.45176 2.64897C4.52901 2.53223 4.63892 2.44123 4.76756 2.3875C4.8962 2.33377 5.03778 2.31974 5.17435 2.34718C5.31091 2.37462 5.43632 2.4423 5.53466 2.54164L9.46112 6.49926Z" fill="#A7B0B5"/>
</svg>
