<svg width="22" height="22" viewBox="0 0 22 22" fill="none" xmlns="http://www.w3.org/2000/svg">
<path d="M17.4216 17.1778H4.45728C4.24222 17.1778 4.03617 17.092 3.8841 16.9399C3.73204 16.7878 3.64624 16.5818 3.64624 16.3667V13.7334C3.64624 13.5184 3.73134 13.3122 3.88334 13.1602C4.03533 13.0082 4.24156 12.9223 4.45651 12.9223C4.67146 12.9223 4.87769 13.0082 5.02968 13.1602C5.18167 13.3122 5.26754 13.5184 5.26754 13.7334V15.5557H16.6105V13.7334C16.6105 13.5185 16.6957 13.3121 16.8476 13.1602C16.9995 13.0083 17.2059 12.9231 17.4208 12.9231C17.6356 12.9231 17.8413 13.0083 17.9932 13.1602C18.1451 13.3121 18.2303 13.5185 18.2303 13.7334V16.3667C18.2303 16.5815 18.1457 16.7879 17.994 16.9399C17.8422 17.0919 17.6363 17.1774 17.4216 17.1778Z" fill="white"/>
<path d="M8.17909 10.0733C8.26527 9.987 8.3676 9.91857 8.48024 9.87188C8.59288 9.82519 8.71362 9.80116 8.83555 9.80116C8.95749 9.80116 9.07822 9.82519 9.19086 9.87188C9.3035 9.91857 9.40584 9.987 9.49202 10.0733L10.1206 10.7018V5.59469C10.1174 5.48428 10.1361 5.37433 10.1755 5.27112C10.2148 5.16792 10.2742 5.07349 10.3501 4.99322C10.4259 4.91296 10.5169 4.84843 10.6177 4.80334C10.7186 4.75824 10.8273 4.73346 10.9377 4.73041C11.1604 4.73698 11.3713 4.83173 11.5241 4.99381C11.6769 5.15589 11.7591 5.37204 11.7525 5.59469V10.7018L12.385 10.0733C12.4707 9.98639 12.5728 9.9174 12.6853 9.87032C12.7979 9.82323 12.9187 9.79899 13.0407 9.79899C13.1627 9.79899 13.2835 9.82323 13.3961 9.87032C13.5086 9.9174 13.6107 9.98639 13.6964 10.0733C13.7832 10.1593 13.8522 10.2616 13.8993 10.3744C13.9463 10.4872 13.9706 10.6083 13.9706 10.7305C13.9706 10.8528 13.9463 10.9738 13.8993 11.0866C13.8522 11.1994 13.7832 11.3018 13.6964 11.3878L11.5938 13.4903C11.508 13.577 11.4058 13.6457 11.2932 13.6924C11.1805 13.7391 11.0597 13.7628 10.9377 13.7622C10.8156 13.7624 10.6946 13.7385 10.5818 13.6919C10.4689 13.6452 10.3664 13.5767 10.2801 13.4903L8.17909 11.3878C8.00535 11.2131 7.90782 10.9768 7.90782 10.7305C7.90782 10.4842 8.00535 10.2479 8.17909 10.0733Z" fill="white"/>
</svg>
