<svg width="16" height="22" viewBox="0 0 16 22" fill="none" xmlns="http://www.w3.org/2000/svg">
<g clip-path="url(#clip0_1617_1895)">
<path d="M1.70005 0.5H10.0326L15.6993 6.34021V20.0996C15.6993 20.4708 15.5519 20.8269 15.2895 21.0895C15.0272 21.352 14.6713 21.4997 14.3001 21.5H1.70005C1.32865 21.5 0.972461 21.3525 0.709841 21.0898C0.447221 20.8272 0.299683 20.471 0.299683 20.0996L0.299683 1.90037C0.299683 1.52897 0.447221 1.17278 0.709841 0.910158C0.972461 0.647538 1.32865 0.5 1.70005 0.5V0.5Z" fill="#3BC7FF"/>
<path d="M10.0458 1.78L10.1461 5.93243L13.1095 10.9691H15.7005V6.36349L10.7409 1.78H10.0458Z" fill="url(#paint0_linear_1617_1895)"/>
<path d="M10.0436 0.506744V5.51686C10.0444 5.75147 10.1222 5.9794 10.2649 6.16569C10.3421 6.23176 10.4314 6.28168 10.5282 6.31261C10.625 6.34355 10.7271 6.35485 10.8283 6.3458H15.6994L10.0436 0.506744Z" fill="#A3E5FF"/>
</g>
<defs>
<linearGradient id="paint0_linear_1617_1895" x1="10.2719" y1="6.0897" x2="14.6593" y2="8.75445" gradientUnits="userSpaceOnUse">
<stop stop-color="#0FA9E6" stop-opacity="0.502"/>
<stop offset="1" stop-color="#0FA9E6" stop-opacity="0"/>
</linearGradient>
<clipPath id="clip0_1617_1895">
<rect width="15.4007" height="21" fill="white" transform="translate(0.299683 0.5)"/>
</clipPath>
</defs>
</svg>
