<svg width="22" height="22" viewBox="0 0 22 22" fill="none" xmlns="http://www.w3.org/2000/svg">
<path d="M14.8687 13.316C14.3235 13.3197 13.7977 13.5187 13.3868 13.877L9.05673 11.4028C9.08535 11.2703 9.09984 11.1352 9.09994 10.9997C9.10062 10.8642 9.08612 10.729 9.05673 10.5966L13.3868 8.12243C13.7977 8.48069 14.3235 8.67973 14.8687 8.68343C15.3153 8.68343 15.7519 8.55099 16.1232 8.30287C16.4946 8.05474 16.784 7.70206 16.9549 7.28944C17.1258 6.87682 17.1705 6.42278 17.0834 5.98475C16.9963 5.54671 16.7812 5.14435 16.4654 4.82854C16.1496 4.51273 15.7472 4.29767 15.3092 4.21054C14.8712 4.1234 14.4171 4.16812 14.0045 4.33904C13.5919 4.50995 13.2392 4.79938 12.9911 5.17073C12.743 5.54208 12.6105 5.97867 12.6105 6.42529C12.6098 6.56084 12.6243 6.69603 12.6537 6.82836L8.32444 9.30257C7.91351 8.94432 7.38774 8.74528 6.84258 8.74158C6.24358 8.74158 5.66912 8.97953 5.24556 9.40308C4.822 9.82664 4.58405 10.4011 4.58405 11.0001C4.58405 11.5991 4.822 12.1736 5.24556 12.5971C5.66912 13.0207 6.24358 13.2586 6.84258 13.2586C7.38774 13.2549 7.91351 13.0559 8.32444 12.6976L12.6537 15.1703C12.6251 15.3027 12.6106 15.4379 12.6105 15.5734C12.6105 16.02 12.743 16.4566 12.9911 16.8279C13.2392 17.1993 13.5919 17.4887 14.0045 17.6596C14.4171 17.8305 14.8712 17.8752 15.3092 17.7881C15.7472 17.701 16.1496 17.4859 16.4654 17.1701C16.7812 16.8543 16.9963 16.4519 17.0834 16.0139C17.1705 15.5759 17.1258 15.1218 16.9549 14.7092C16.784 14.2966 16.4946 13.9439 16.1232 13.6958C15.7519 13.4477 15.3153 13.3152 14.8687 13.3152V13.316Z" fill="currentColor"/>
</svg>
