<svg width="366" height="37" viewBox="0 0 366 37" fill="none"
  xmlns="http://www.w3.org/2000/svg">
  <g opacity="0.1">
    <mask id="mask0_2327_1046" style="mask-type:alpha" maskUnits="userSpaceOnUse" x="0" y="0" width="366" height="37">
      <rect y="0.5" width="366" height="36" fill="#D9D9D9"/>
    </mask>
    <g mask="url(#mask0_2327_1046)">
      <path d="M71.001 32.5728C76.5869 28.3549 81.3748 27.6709 83.0847 27.5569C78.2968 27.6709 74.0789 29.6089 71.001 32.5728Z" fill="url(#paint0_linear_2327_1046)"/>
      <path d="M358.96 8.29797C358.504 -12.898 354.058 -33.0683 346.306 -51.6432C341.062 -17.7981 323.278 -4.35122 311.764 0.776825C308.801 2.71409 305.267 4.08157 301.391 4.08157H231.282L199.477 30.1776V-58.5946L131.99 4.08157H81.6029C75.903 4.08157 70.8871 1.34662 67.5812 -2.52791C54.0154 -10.9607 36.2318 -28.9659 42.3877 -63.9506C30.0759 -40.0197 23.464 -12.898 24.034 15.9331C24.718 45.106 32.9258 72.4556 46.7196 96.1585C50.0255 56.2737 61.6533 39.5221 70.8871 32.5707C73.9651 29.6079 78.1829 28.0125 82.9709 27.7845C83.3129 27.7845 83.5408 28.0125 83.5408 28.0125H141.338L176.677 -4.00937V80.6605L239.832 28.0125H299.339C304.697 28.0125 309.37 29.9497 312.676 33.3684C325.558 41.6873 341.518 61.2878 329.32 106.984C348.7 79.179 359.758 44.992 358.96 8.29797Z" fill="url(#paint1_linear_2327_1046)"/>
      <path d="M67.5817 -2.75569C63.8197 -7.08604 62.1098 -13.2397 63.5917 -19.3934C77.7275 -76.9415 129.71 -119.675 191.497 -119.675C253.284 -119.675 305.267 -76.9415 319.403 -19.3934C321.341 -11.4164 317.921 -3.66736 311.651 0.549042C323.165 -4.57901 340.948 -17.9119 346.192 -51.757C321.455 -111.356 263.202 -153.862 195.145 -155.458C128.684 -156.939 70.5456 -119.447 42.2742 -64.1783C36.2323 -29.0797 53.9019 -11.0745 67.5817 -2.75569Z" fill="url(#paint2_linear_2327_1046)"/>
      <path d="M312.677 33.1407C317.237 37.813 319.289 44.8783 317.009 51.8296C300.137 105.047 250.206 143.679 191.497 143.679C132.788 143.679 82.8572 105.047 65.9855 51.8296C63.7056 44.5364 65.9855 37.1292 71.0014 32.457C61.6536 39.4084 50.0259 56.0461 46.8339 96.0448C75.3334 144.818 127.886 178.094 187.849 179.461C246.558 180.715 298.541 151.656 329.434 106.985C341.518 61.288 325.559 41.4596 312.677 33.1407Z" fill="url(#paint3_linear_2327_1046)"/>
      <g opacity="0.1">
        <path d="M319.859 -16.8859C320.657 -9.8206 317.351 -3.09717 311.765 0.549446C323.279 -4.57861 341.062 -17.9115 346.306 -51.7567C346.306 -51.6427 336.274 -28.0537 319.859 -16.8859Z" fill="black"/>
        <path d="M312.677 33.1409C317.237 37.8132 319.289 44.8785 317.009 51.8298C316.895 52.2856 316.667 52.7415 316.553 53.3113C331.943 77.0143 329.435 106.985 329.435 106.985C341.518 61.2882 325.559 41.4598 312.677 33.1409Z" fill="black"/>
        <path d="M65.9856 51.9436C63.7056 44.6504 65.9856 37.2432 71.0015 32.571C61.6537 39.5223 50.0259 56.16 46.834 96.1588C46.834 96.1588 53.2179 72.3418 67.2396 55.7042C66.7836 54.3367 66.3276 53.1971 65.9856 51.9436Z" fill="black"/>
      </g>
    </g>
  </g>
  <defs>
    <linearGradient id="paint0_linear_2327_1046" x1="70.9621" y1="30.0509" x2="82.9901" y2="30.0509" gradientUnits="userSpaceOnUse">
      <stop stop-color="#00EFFF"/>
      <stop offset="0.9946" stop-color="#C418FF"/>
    </linearGradient>
    <linearGradient id="paint1_linear_2327_1046" x1="79.7737" y1="18.5898" x2="337.274" y2="25.7452" gradientUnits="userSpaceOnUse">
      <stop stop-color="#00EFFF"/>
      <stop offset="0.9946" stop-color="#F918FF"/>
    </linearGradient>
    <linearGradient id="paint2_linear_2327_1046" x1="277.742" y1="-52.4252" x2="-111.679" y2="-126.362" gradientUnits="userSpaceOnUse">
      <stop stop-color="#00EFFF"/>
      <stop offset="0.9946" stop-color="#C418FF"/>
    </linearGradient>
    <linearGradient id="paint3_linear_2327_1046" x1="12.3477" y1="109.86" x2="335.018" y2="99.5249" gradientUnits="userSpaceOnUse">
      <stop stop-color="#00EFFF"/>
      <stop offset="0.9946" stop-color="#C418FF"/>
    </linearGradient>
  </defs>
</svg>
