<svg width="10" height="11" viewBox="0 0 10 11" fill="none" xmlns="http://www.w3.org/2000/svg">
<g id="Icon">
<g id="translate">
<path id="Polygon 1027" d="M5.36039 7.25724C5.26549 7.3514 5.13679 7.4043 5.0026 7.4043C4.86841 7.4043 4.73972 7.3514 4.64482 7.25724L1.81795 4.45263C1.74705 4.38245 1.69873 4.29296 1.67909 4.19551C1.65946 4.09806 1.6694 3.99701 1.70765 3.90517C1.7459 3.81332 1.81075 3.7348 1.89398 3.67955C1.97721 3.6243 2.07509 3.59479 2.17523 3.59477L7.82897 3.59477C7.92919 3.5946 8.02721 3.62396 8.1106 3.67913C8.19398 3.73431 8.25899 3.81282 8.29737 3.9047C8.33574 3.99659 8.34577 4.09772 8.32616 4.19526C8.30656 4.29281 8.25822 4.38239 8.18726 4.45263L5.36039 7.25724Z"/>
</g>
</g>
</svg>
