<svg width="20" height="20" viewBox="0 0 20 20" fill="none" xmlns="http://www.w3.org/2000/svg">
<path d="M8.6915 17.2575C8.48476 17.2539 8.2818 17.2014 8.09928 17.1043C7.91676 17.0071 7.75988 16.868 7.6415 16.6985L6.8335 15.6215C6.8335 15.6285 6.7995 15.6085 6.7865 15.6085H6.5375C4.2375 15.6085 2.8075 14.9825 2.8075 11.8785V9.1875C2.8075 6.3575 4.5375 5.6125 5.9925 5.4845C6.17346 5.46459 6.35546 5.45558 6.5375 5.4575H10.8465C13.2835 5.4575 14.5765 6.7505 14.5765 9.1875V11.8805C14.579 12.0697 14.5677 12.2589 14.5425 12.4465C14.4215 13.8805 13.6805 15.6105 10.8425 15.6105H10.5765L9.7415 16.7015C9.6228 16.8705 9.46578 17.009 9.28328 17.1056C9.10077 17.2022 8.89799 17.2543 8.6915 17.2575ZM6.5375 6.4675C6.38284 6.4675 6.23484 6.47416 6.0935 6.4875C4.5315 6.6225 3.8175 7.4775 3.8175 9.1875V11.8805C3.8175 14.1895 4.5315 14.6005 6.5375 14.6005H6.8075C6.96792 14.6056 7.12541 14.6449 7.26941 14.7158C7.41341 14.7867 7.54061 14.8875 7.6425 15.0115L8.4505 16.0955C8.47272 16.1409 8.50722 16.1791 8.55009 16.2059C8.59296 16.2326 8.64248 16.2468 8.693 16.2468C8.74353 16.2468 8.79304 16.2326 8.83591 16.2059C8.87878 16.1791 8.91329 16.1409 8.9355 16.0955L9.7425 15.0175C9.83957 14.8877 9.96562 14.7825 10.1106 14.7101C10.2556 14.6377 10.4155 14.6001 10.5775 14.6005H10.8465C12.5565 14.6005 13.4115 13.8805 13.5395 12.3455C13.5584 12.1912 13.5674 12.0359 13.5665 11.8805V9.1875C13.5665 7.3095 12.7245 6.4675 10.8465 6.4675H6.5375Z" />
<path d="M8.69351 11.4775C8.56049 11.4773 8.43051 11.4377 8.31998 11.3637C8.20946 11.2896 8.12336 11.1845 8.07255 11.0616C8.02173 10.9387 8.00849 10.8034 8.03449 10.673C8.06049 10.5425 8.12456 10.4227 8.21862 10.3286C8.31269 10.2346 8.43251 10.1705 8.56297 10.1445C8.69342 10.1185 8.82866 10.1317 8.95159 10.1825C9.07452 10.2334 9.17964 10.3195 9.25367 10.43C9.3277 10.5405 9.36731 10.6705 9.36751 10.8035C9.3679 10.8921 9.35074 10.9799 9.31701 11.0619C9.28328 11.1439 9.23365 11.2183 9.17098 11.281C9.10832 11.3436 9.03386 11.3933 8.9519 11.427C8.86995 11.4607 8.78213 11.4779 8.69351 11.4775Z" />
<path d="M10.8465 11.4775C10.7135 11.4773 10.5835 11.4377 10.473 11.3637C10.3625 11.2896 10.2764 11.1845 10.2255 11.0616C10.1747 10.9387 10.1615 10.8034 10.1875 10.673C10.2135 10.5425 10.2776 10.4227 10.3716 10.3286C10.4657 10.2346 10.5855 10.1705 10.716 10.1445C10.8464 10.1185 10.9817 10.1317 11.1046 10.1825C11.2275 10.2334 11.3326 10.3195 11.4067 10.43C11.4807 10.5405 11.5203 10.6705 11.5205 10.8035C11.5209 10.8921 11.5037 10.9799 11.47 11.0619C11.4363 11.1439 11.3866 11.2183 11.324 11.281C11.2613 11.3436 11.1869 11.3933 11.1049 11.427C11.023 11.4607 10.9351 11.4779 10.8465 11.4775Z" />
<path d="M6.5445 11.4775C6.41148 11.4773 6.2815 11.4377 6.17098 11.3637C6.06046 11.2896 5.97436 11.1845 5.92354 11.0616C5.87273 10.9387 5.85949 10.8034 5.88549 10.673C5.91149 10.5425 5.97556 10.4227 6.06962 10.3286C6.16368 10.2346 6.28351 10.1705 6.41396 10.1445C6.54442 10.1185 6.67966 10.1317 6.80259 10.1825C6.92552 10.2334 7.03064 10.3195 7.10467 10.43C7.17869 10.5405 7.21831 10.6705 7.2185 10.8035C7.2189 10.8921 7.20174 10.9799 7.16801 11.0619C7.13428 11.1439 7.08465 11.2183 7.02198 11.281C6.95931 11.3436 6.88486 11.3933 6.8029 11.427C6.72095 11.4607 6.63313 11.4779 6.5445 11.4775Z" />
<path d="M14.0455 12.8915C13.9775 12.8918 13.9101 12.8782 13.8475 12.8515C13.7849 12.8249 13.7284 12.7857 13.6815 12.7365C13.629 12.6829 13.5895 12.618 13.5661 12.5467C13.5427 12.4755 13.536 12.3998 13.5465 12.3255C13.566 12.1783 13.575 12.03 13.5735 11.8815V9.1885C13.5735 7.3105 12.7315 6.4685 10.8535 6.4685H6.54551C6.39084 6.4685 6.24284 6.47517 6.10151 6.4885C6.02729 6.49743 5.95203 6.48997 5.88102 6.46664C5.81 6.44332 5.74497 6.4047 5.69051 6.3535C5.63657 6.30181 5.59458 6.23897 5.56746 6.16936C5.54034 6.09975 5.52875 6.02506 5.53351 5.9505C5.65651 4.4955 6.40351 2.7655 9.23351 2.7655H13.5475C15.9845 2.7655 17.2775 4.0585 17.2775 6.4955V9.1885C17.2775 12.0225 15.5475 12.7635 14.0925 12.8885L14.0455 12.8915ZM6.62651 5.4585H10.8475C13.2845 5.4585 14.5775 6.7515 14.5775 9.1885V11.7935C15.7225 11.5105 16.2605 10.6695 16.2605 9.1875V6.4955C16.2605 4.6175 15.4185 3.7755 13.5405 3.7755H9.23351C7.75051 3.7755 6.91551 4.3145 6.62651 5.4585Z" />
</svg>
