<svg width="12" height="12" viewBox="0 0 12 12" fill="none"
  xmlns="http://www.w3.org/2000/svg">
  <g clip-path="url(#clip0_3609_61487)">
    <path d="M4.99882 9.49999V6.99999H6.99882V9.49999C6.99882 9.6326 7.0515 9.75978 7.14527 9.85355C7.23904 9.94731 7.36621 9.99999 7.49882 9.99999H8.99882C9.13143 9.99999 9.25861 9.94731 9.35238 9.85355C9.44615 9.75978 9.49882 9.6326 9.49882 9.49999V5.99999H10.3488C10.3995 6.00042 10.4491 5.98532 10.4909 5.9567C10.5328 5.92809 10.5648 5.88735 10.5828 5.83996C10.6008 5.79257 10.6038 5.74081 10.5915 5.69164C10.5791 5.64248 10.552 5.59828 10.5138 5.56499L6.33482 1.79999C6.24295 1.71707 6.12358 1.67117 5.99982 1.67117C5.87606 1.67117 5.7567 1.71707 5.66482 1.79999L1.48482 5.56499C1.44715 5.59852 1.42055 5.6427 1.40853 5.69169C1.39652 5.74067 1.39967 5.79215 1.41755 5.8393C1.43544 5.88646 1.46722 5.92707 1.5087 5.95577C1.55018 5.98446 1.59939 5.99988 1.64982 5.99999H2.49882V9.49999C2.49882 9.6326 2.5515 9.75978 2.64527 9.85355C2.73904 9.94731 2.86622 9.99999 2.99882 9.99999H4.49882C4.63143 9.99999 4.75861 9.94731 4.85238 9.85355C4.94614 9.75978 4.99882 9.6326 4.99882 9.49999Z" fill="currentColor"/>
  </g>
  <defs>
    <clipPath id="clip0_3609_61487">
      <rect width="12" height="12" fill="white"/>
    </clipPath>
  </defs>
</svg>
