<svg width="14" height="14" viewBox="0 0 14 14" fill="none" xmlns="http://www.w3.org/2000/svg">
<path d="M9.28601 3.61019L3.61078 9.28543C3.29718 9.59903 3.29703 10.1073 3.61042 10.4207C3.92382 10.7341 4.43209 10.7339 4.74568 10.4203L10.4209 4.7451C10.7345 4.43151 10.7347 3.92324 10.4213 3.60984C10.1079 3.29645 9.59961 3.2966 9.28601 3.61019Z"/>
<path d="M3.61047 4.74582L9.28571 10.4211C9.5993 10.7346 10.1076 10.7348 10.421 10.4214C10.7344 10.108 10.7342 9.59974 10.4206 9.28615L4.74538 3.61091C4.43179 3.29732 3.92351 3.29716 3.61012 3.61056C3.29672 3.92395 3.29688 4.43222 3.61047 4.74582Z"/>
</svg>
