<svg width="20" height="20" viewBox="0 0 20 20" fill="none"
  xmlns="http://www.w3.org/2000/svg">
  <g clip-path="url(#clip0_3861_61087)">
    <path d="M4 4.46795V5.15795C4.00937 5.37794 4.10515 5.58535 4.26655 5.73514C4.42795 5.88493 4.64192 5.96499 4.862 5.95795L16.044 5.93295C16.2645 5.94028 16.4791 5.86043 16.6412 5.71069C16.8033 5.56095 16.8999 5.35338 16.91 5.13295V4.43895C16.8986 4.21982 16.8013 4.01402 16.6392 3.86614C16.4771 3.71827 16.2632 3.64023 16.044 3.64895L4.862 3.67795C4.64322 3.66952 4.42996 3.74777 4.26856 3.8957C4.10715 4.04362 4.01064 4.24927 4 4.46795V4.46795Z" fill="currentColor"/>
    <path d="M7 8.00798V8.69798C7.00937 8.91798 7.10515 9.12539 7.26655 9.27518C7.42795 9.42497 7.64192 9.50503 7.862 9.49798L12.589 9.47298C12.8095 9.48032 13.0241 9.40047 13.1862 9.25073C13.3483 9.10099 13.4449 8.89342 13.455 8.67298V7.97898C13.4436 7.75986 13.3463 7.55406 13.1842 7.40618C13.0221 7.25831 12.8082 7.18027 12.589 7.18898L7.862 7.21798C7.64322 7.20956 7.42996 7.28781 7.26856 7.43573C7.10715 7.58366 7.01064 7.7893 7 8.00798V8.00798Z" fill="currentColor"/>
    <path d="M7 15.1449V15.8349C7.00937 16.0549 7.10515 16.2624 7.26655 16.4121C7.42795 16.5619 7.64192 16.642 7.862 16.6349L12.589 16.6099C12.8095 16.6173 13.0241 16.5374 13.1862 16.3877C13.3483 16.238 13.4449 16.0304 13.455 15.8099V15.1159C13.4436 14.8968 13.3463 14.691 13.1842 14.5431C13.0221 14.3953 12.8082 14.3172 12.589 14.3259L7.862 14.3549C7.64322 14.3465 7.42996 14.4248 7.26856 14.5727C7.10715 14.7206 7.01064 14.9263 7 15.1449V15.1449Z" fill="currentColor"/>
    <path d="M5 11.512V12.202C5.00937 12.4219 5.10515 12.6294 5.26655 12.7791C5.42795 12.9289 5.64192 13.009 5.862 13.002L14.278 12.977C14.4985 12.9843 14.7131 12.9044 14.8752 12.7547C15.0373 12.605 15.1339 12.3974 15.144 12.177V11.483C15.1326 11.2638 15.0353 11.058 14.8732 10.9102C14.7111 10.7623 14.4972 10.6842 14.278 10.693L5.862 10.722C5.64322 10.7135 5.42996 10.7918 5.26856 10.9397C5.10715 11.0876 5.01064 11.2933 5 11.512V11.512Z" fill="currentColor"/>
  </g>
  <defs>
    <clipPath id="clip0_3861_61087">
      <rect width="20" height="20" fill="white"/>
    </clipPath>
  </defs>
</svg>
