<svg width="15" height="15" viewBox="0 0 15 15" fill="none" xmlns="http://www.w3.org/2000/svg">
<g clip-path="url(#clip0_533_320138)">
<path d="M11.727 5.37876C10.671 5.37876 10.239 4.63176 10.764 3.71576C10.9102 3.46127 10.9493 3.15914 10.8728 2.87579C10.7963 2.59245 10.6104 2.35108 10.356 2.20476L9.34699 1.62776C9.12411 1.49822 8.85897 1.46231 8.60967 1.52792C8.36036 1.59353 8.14723 1.75529 8.01699 1.97776L7.95199 2.08776C7.88381 2.28825 7.75456 2.46236 7.58239 2.58567C7.41022 2.70897 7.20376 2.77527 6.99199 2.77527C6.78022 2.77527 6.57377 2.70897 6.4016 2.58567C6.22942 2.46236 6.10018 2.28825 6.03199 2.08776L5.96699 1.97776C5.90404 1.86775 5.81987 1.77133 5.71938 1.69408C5.6189 1.61684 5.50408 1.5603 5.38158 1.52774C5.25908 1.49519 5.13134 1.48727 5.00576 1.50443C4.88018 1.5216 4.75926 1.56352 4.64999 1.62776L3.64099 2.20476C3.38617 2.35224 3.20016 2.59468 3.12369 2.879C3.04722 3.16332 3.08652 3.46635 3.23299 3.72176C3.76399 4.63176 3.33299 5.37876 2.27599 5.37876C1.98211 5.37955 1.70049 5.49665 1.49269 5.70445C1.28488 5.91226 1.16778 6.19388 1.16699 6.48776V7.51376C1.16778 7.80764 1.28488 8.08926 1.49269 8.29707C1.70049 8.50487 1.98211 8.62197 2.27599 8.62276C3.33199 8.62276 3.76399 9.36976 3.23299 10.2858C3.08775 10.54 3.04914 10.8414 3.12561 11.124C3.20207 11.4066 3.38739 11.6474 3.64099 11.7938L4.64999 12.3718C4.87287 12.5013 5.13802 12.5372 5.38732 12.4716C5.63662 12.406 5.84975 12.2442 5.97999 12.0218L6.04399 11.9108C6.11218 11.7103 6.24142 11.5362 6.4136 11.4129C6.58577 11.2896 6.79222 11.2233 7.00399 11.2233C7.21576 11.2233 7.42222 11.2896 7.59439 11.4129C7.76656 11.5362 7.89581 11.7103 7.96399 11.9108L8.02799 12.0218C8.15824 12.2442 8.37136 12.406 8.62067 12.4716C8.86997 12.5372 9.13511 12.5013 9.35799 12.3718L10.367 11.7938C10.6212 11.6472 10.8069 11.4059 10.8834 11.1226C10.9599 10.8394 10.9209 10.5373 10.775 10.2828C10.244 9.36676 10.675 8.61976 11.732 8.61976C12.0255 8.61924 12.307 8.50267 12.5149 8.29548C12.7228 8.08829 12.8404 7.80729 12.842 7.51376V6.48776C12.8388 6.19357 12.7202 5.91241 12.5116 5.70494C12.303 5.49747 12.0212 5.38032 11.727 5.37876ZM7.00099 8.89376C6.62521 8.89376 6.25786 8.78233 5.94541 8.57355C5.63296 8.36478 5.38943 8.06804 5.24562 7.72086C5.10181 7.37368 5.06419 6.99165 5.1375 6.62309C5.21081 6.25452 5.39177 5.91598 5.65749 5.65026C5.92321 5.38454 6.26176 5.20358 6.63032 5.13027C6.99888 5.05696 7.38091 5.09458 7.72809 5.23839C8.07527 5.3822 8.37201 5.62572 8.58078 5.93818C8.78956 6.25063 8.90099 6.61798 8.90099 6.99376C8.90099 7.24327 8.85185 7.49034 8.75636 7.72086C8.66088 7.95138 8.52093 8.16083 8.3445 8.33726C8.16806 8.51369 7.95861 8.65365 7.72809 8.74913C7.49757 8.84461 7.2505 8.89376 7.00099 8.89376Z" fill="#A7B0B5"/>
</g>
<defs>
<clipPath id="clip0_533_320138">
<rect width="14.002" height="14.002" fill="white"/>
</clipPath>
</defs>
</svg>
