<svg width="20" height="20" viewBox="0 0 20 20" fill="none" xmlns="http://www.w3.org/2000/svg">
<path d="M3.66162 17.9933C3.24566 17.9925 2.84692 17.8266 2.55298 17.5323C2.25904 17.238 2.09377 16.8389 2.09351 16.4229V3.55576C2.09351 3.13971 2.25873 2.74076 2.55273 2.44638C2.84673 2.15201 3.24558 1.98695 3.66162 1.98642H16.5315C16.9475 1.98721 17.3462 2.15206 17.6401 2.44638C17.9341 2.7407 18.0993 3.13979 18.0996 3.55576V16.4229C18.0991 16.8388 17.9338 17.2381 17.6399 17.5323C17.346 17.8266 16.9474 17.9922 16.5315 17.9933H3.66162ZM3.94556 16.1407H16.2456V3.84091H3.94556V16.1407Z" />
<path d="M9.95556 14.388L8.92456 13.358C8.89676 13.33 8.87784 13.2945 8.8702 13.2558C8.86255 13.2171 8.86651 13.177 8.88157 13.1406C8.89664 13.1041 8.92215 13.073 8.95488 13.051C8.98762 13.029 9.02612 13.0172 9.06556 13.017H9.51056V10.575H7.06956V11.024C7.06959 11.0636 7.05784 11.1024 7.0358 11.1353C7.01377 11.1683 6.98244 11.194 6.94579 11.2091C6.90914 11.2242 6.86883 11.228 6.82998 11.2202C6.79112 11.2124 6.75547 11.1931 6.72756 11.165L5.69756 10.13C5.67896 10.1114 5.66421 10.0894 5.65415 10.0651C5.64408 10.0408 5.6389 10.0148 5.6389 9.9885C5.6389 9.96222 5.64408 9.93619 5.65415 9.91191C5.66421 9.88763 5.67896 9.86557 5.69756 9.847L6.73056 8.817C6.75847 8.78885 6.79412 8.76964 6.83298 8.7618C6.87183 8.75395 6.91214 8.75783 6.94879 8.77294C6.98544 8.78805 7.01677 8.8137 7.0388 8.84665C7.06084 8.8796 7.07259 8.91836 7.07256 8.958V9.404H9.51056V6.962H9.06556C9.02673 6.96127 8.98895 6.94926 8.95684 6.92743C8.92472 6.90559 8.89966 6.87488 8.8847 6.83903C8.86975 6.80319 8.86556 6.76377 8.87264 6.72559C8.87971 6.6874 8.89775 6.6521 8.92456 6.624L9.95556 5.59C9.97413 5.5714 9.99619 5.55665 10.0205 5.54659C10.0447 5.53652 10.0708 5.53134 10.0971 5.53134C10.1233 5.53134 10.1494 5.53652 10.1736 5.54659C10.1979 5.55665 10.22 5.5714 10.2386 5.59L11.2686 6.624C11.2964 6.65197 11.3153 6.68753 11.3229 6.72621C11.3306 6.7649 11.3266 6.80498 11.3115 6.84142C11.2965 6.87786 11.271 6.90904 11.2382 6.93103C11.2055 6.95301 11.167 6.96483 11.1276 6.965H10.6816V9.404H13.1236V8.958C13.1235 8.91836 13.1353 8.8796 13.1573 8.84665C13.1793 8.8137 13.2107 8.78805 13.2473 8.77294C13.284 8.75783 13.3243 8.75395 13.3631 8.7618C13.402 8.76964 13.4376 8.78885 13.4656 8.817L14.4956 9.848C14.5142 9.86657 14.5289 9.88863 14.539 9.91291C14.549 9.93719 14.5542 9.96322 14.5542 9.9895C14.5542 10.0158 14.549 10.0418 14.539 10.0661C14.5289 10.0904 14.5142 10.1124 14.4956 10.131L13.4656 11.161C13.4379 11.1889 13.4026 11.2081 13.3641 11.216C13.3256 11.224 13.2856 11.2205 13.2492 11.2059C13.2127 11.1912 13.1813 11.1662 13.159 11.1338C13.1366 11.1015 13.1243 11.0633 13.1236 11.024V10.575H10.6816V13.017H11.1306C11.17 13.0172 11.2085 13.029 11.2412 13.051C11.274 13.073 11.2995 13.1041 11.3145 13.1406C11.3296 13.177 11.3336 13.2171 11.3259 13.2558C11.3183 13.2945 11.2994 13.33 11.2716 13.358L10.2376 14.388C10.219 14.4066 10.1969 14.4213 10.1726 14.4314C10.1484 14.4415 10.1223 14.4467 10.0961 14.4467C10.0698 14.4467 10.0437 14.4415 10.0195 14.4314C9.99519 14.4213 9.97313 14.4066 9.95456 14.388H9.95556Z" />
</svg>
