<svg width="14" height="14" viewBox="0 0 14 14" fill="none" xmlns="http://www.w3.org/2000/svg">
<path fill-rule="evenodd" clip-rule="evenodd" d="M9.00603 9.00084L11.5104 6.4965L12.0112 6.99737C12.2867 7.27285 12.7375 7.27285 13.013 6.99737C13.2884 6.7219 13.2884 6.27111 13.013 5.99564L8.0043 0.986964C7.72882 0.711487 7.27804 0.711487 7.00256 0.986964C6.72709 1.26244 6.72709 1.71322 7.00256 1.9887L7.50343 2.48957L4.99909 4.9939C4.16765 5.82534 2.82533 5.82534 1.99389 4.9939L0.992156 5.99564L3.98233 8.98581L0.476262 12.4919L0.476262 13.4936L1.478 13.4936L4.98407 9.98755L8.0043 13.0078L9.00603 12.006C8.17459 11.1746 8.17459 9.83228 9.00603 9.00084Z"/>
</svg>
