<svg width="20" height="20" viewBox="0 0 20 20" fill="none" xmlns="http://www.w3.org/2000/svg">
<path d="M5.24702 2.293H14.025C14.2579 2.293 14.4812 2.3855 14.6459 2.55016C14.8105 2.71482 14.903 2.93814 14.903 3.171V6.093C14.903 6.32586 14.8105 6.54918 14.6459 6.71384C14.4812 6.8785 14.2579 6.971 14.025 6.971H5.24702C5.01416 6.971 4.79084 6.8785 4.62618 6.71384C4.46152 6.54918 4.36902 6.32586 4.36902 6.093V3.171C4.36902 2.93814 4.46152 2.71482 4.62618 2.55016C4.79084 2.3855 5.01416 2.293 5.24702 2.293Z" />
<path d="M9.22614 17.8011C8.76127 17.8005 8.31547 17.6158 7.98639 17.2875C7.6573 16.9592 7.47162 16.5138 7.47003 16.049V12.538C7.4703 12.3829 7.53201 12.2343 7.64166 12.1247C7.75131 12.015 7.89992 11.9533 8.05499 11.953H10.3961C10.551 11.9533 10.6997 12.015 10.8091 12.1247C10.9186 12.2343 10.98 12.383 10.98 12.538V16.049C10.9787 16.5136 10.7934 16.9588 10.4647 17.2871C10.136 17.6155 9.69074 17.8003 9.22614 17.8011ZM8.17096 12.534C8.1401 12.5342 8.11065 12.5467 8.08893 12.5686C8.0672 12.5905 8.05499 12.6202 8.05499 12.651V12.831C8.05499 12.8618 8.0672 12.8914 8.08893 12.9134C8.11065 12.9353 8.1401 12.9478 8.17096 12.948H10.2781C10.3092 12.948 10.3387 12.9357 10.3607 12.9137C10.3826 12.8918 10.3951 12.862 10.3951 12.831V12.651C10.3951 12.62 10.3826 12.5902 10.3607 12.5683C10.3387 12.5463 10.3092 12.534 10.2781 12.534H8.17096Z" />
<path d="M9.65411 11.645H8.77692V9.42499C8.77692 9.30856 8.82325 9.19689 8.90558 9.11456C8.98791 9.03223 9.0997 8.98602 9.21613 8.98602H15.8001V5.07098H15.1939V4.19305H16.2381C16.3545 4.19305 16.4661 4.23927 16.5484 4.32159C16.6307 4.40392 16.6771 4.51559 16.6771 4.63202V9.42499C16.6771 9.54142 16.6307 9.65308 16.5484 9.73541C16.4661 9.81774 16.3545 9.86395 16.2381 9.86395H9.65411V11.645Z" />
<path d="M3.93003 4.19501H4.07603V5.07301H3.93003C3.8136 5.07301 3.70194 5.02676 3.61961 4.94443C3.53728 4.8621 3.49103 4.75044 3.49103 4.63401C3.49103 4.51758 3.53728 4.40592 3.61961 4.32359C3.70194 4.24126 3.8136 4.19501 3.93003 4.19501Z" />
</svg>
