<svg width="18" height="19" viewBox="0 0 18 19" fill="none" xmlns="http://www.w3.org/2000/svg">
<path d="M14.6639 7.80201V11.202C14.6639 14.033 13.5309 15.166 10.6999 15.166H7.29989C4.47089 15.163 3.33789 14.031 3.33789 11.2V7.80001C3.33789 4.97101 4.47089 3.83801 7.30189 3.83801H10.7019C13.5309 3.83801 14.6639 4.97101 14.6639 7.80201Z"/>
<path d="M11.1682 7.341H6.8332C6.66752 7.341 6.5332 7.47532 6.5332 7.641V8.275C6.5332 8.44069 6.66752 8.575 6.8332 8.575H11.1682C11.3339 8.575 11.4682 8.44069 11.4682 8.275V7.641C11.4682 7.47532 11.3339 7.341 11.1682 7.341Z" fill="white"/>
<path d="M11.1682 10.426H6.8332C6.66752 10.426 6.5332 10.5603 6.5332 10.726V11.36C6.5332 11.5257 6.66752 11.66 6.8332 11.66H11.1682C11.3339 11.66 11.4682 11.5257 11.4682 11.36V10.726C11.4682 10.5603 11.3339 10.426 11.1682 10.426Z" fill="white"/>
</svg>
