<svg width="20" height="20" viewBox="0 0 20 20" fill="none" xmlns="http://www.w3.org/2000/svg">
<path d="M15.5387 16.072V15.416C15.5481 15.228 15.4833 15.0439 15.3584 14.9031C15.2336 14.7623 15.0584 14.6761 14.8707 14.663H3.9037C3.71596 14.6761 3.54084 14.7623 3.41595 14.9031C3.29105 15.0439 3.22634 15.228 3.2357 15.416V16.072C3.22639 16.2593 3.29129 16.4428 3.41633 16.5826C3.54137 16.7225 3.71648 16.8074 3.9037 16.819H14.8707C15.0579 16.8074 15.233 16.7225 15.3581 16.5826C15.4831 16.4428 15.548 16.2593 15.5387 16.072Z" />
<path d="M17.6387 15.419C17.6889 15.4562 17.7298 15.5046 17.7579 15.5605C17.7861 15.6163 17.8007 15.678 17.8007 15.7405C17.8007 15.803 17.7861 15.8647 17.7579 15.9205C17.7298 15.9763 17.6889 16.0248 17.6387 16.062L15.1037 17.944C15.0442 17.9883 14.9735 18.0152 14.8996 18.0217C14.8257 18.0282 14.7514 18.014 14.6851 17.9807C14.6188 17.9474 14.5631 17.8963 14.5242 17.8331C14.4852 17.7699 14.4646 17.6972 14.4647 17.623V13.862C14.4646 13.7878 14.4852 13.715 14.5242 13.6519C14.5631 13.5887 14.6188 13.5376 14.6851 13.5043C14.7514 13.471 14.8257 13.4568 14.8996 13.4633C14.9735 13.4697 15.0442 13.4966 15.1037 13.541L17.6387 15.419Z" />
<path d="M5.0897 12.808L8.4897 1.978H11.2217L14.6217 12.808H12.3637L11.6757 10.54H7.9877L7.3147 12.808H5.0897ZM8.4997 8.598H11.1637L9.8317 3.837L8.4997 8.598Z" />
</svg>
