<svg width="24" height="24" viewBox="0 0 24 24" fill="none"
  xmlns="http://www.w3.org/2000/svg">
  <path d="M4 5.25L4 18.75C4 19.4404 4.55964 20 5.25 20C5.94036 20 6.5 19.4404 6.5 18.75L6.5 5.25C6.5 4.55964 5.94036 4 5.25 4C4.55964 4 4 4.55964 4 5.25Z" fill="currentColor"/>
  <path d="M17.5 5.25V18.75C17.5 19.4404 18.0596 20 18.75 20C19.4404 20 20 19.4404 20 18.75V5.25C20 4.55964 19.4404 4 18.75 4C18.0596 4 17.5 4.55964 17.5 5.25Z" fill="currentColor"/>
  <path d="M14.1023 9.00098H7.90234C7.76974 9.00098 7.64256 9.05365 7.54879 9.14742C7.45502 9.24119 7.40234 9.36837 7.40234 9.50098C7.40234 9.63358 7.45502 9.76076 7.54879 9.85453C7.64256 9.9483 7.76974 10.001 7.90234 10.001H14.1023C14.5002 10.001 14.8817 10.159 15.163 10.4403C15.4443 10.7216 15.6023 11.1032 15.6023 11.501C15.6023 11.8988 15.4443 12.2803 15.163 12.5616C14.8817 12.8429 14.5002 13.001 14.1023 13.001H9.70234C9.56974 13.001 9.44256 13.0537 9.34879 13.1474C9.25502 13.2412 9.20234 13.3684 9.20234 13.501C9.20234 13.6336 9.25502 13.7608 9.34879 13.8545C9.44256 13.9483 9.56974 14.001 9.70234 14.001H14.1023C14.7654 14.001 15.4013 13.7376 15.8701 13.2687C16.339 12.7999 16.6023 12.164 16.6023 11.501C16.6023 10.8379 16.339 10.2021 15.8701 9.73321C15.4013 9.26437 14.7654 9.00098 14.1023 9.00098V9.00098Z" fill="currentColor"/>
  <path d="M7.90139 8.75098H14.1014C14.8179 8.7703 15.4986 9.06851 15.9985 9.58213C16.4985 10.0957 16.7782 10.7842 16.7782 11.501C16.7782 12.2177 16.4985 12.9062 15.9985 13.4198C15.4986 13.9334 14.8179 14.2317 14.1014 14.251H9.70139C9.50264 14.2504 9.31218 14.1713 9.17164 14.0307C9.03111 13.8902 8.95192 13.6997 8.95139 13.501C8.95165 13.3021 9.03073 13.1113 9.17129 12.9706C9.31186 12.8298 9.50247 12.7505 9.70139 12.75H14.1014C14.4329 12.75 14.7509 12.6183 14.9853 12.3839C15.2197 12.1494 15.3514 11.8315 15.3514 11.5C15.3514 11.1685 15.2197 10.8505 14.9853 10.6161C14.7509 10.3817 14.4329 10.25 14.1014 10.25H7.90139C7.70264 10.2497 7.51208 10.1708 7.37135 10.0304C7.23062 9.89008 7.15118 9.69973 7.15039 9.50098C7.15092 9.30205 7.23024 9.11144 7.371 8.97088C7.51175 8.83031 7.70247 8.75124 7.90139 8.75098V8.75098ZM14.1014 13.751C14.6865 13.7335 15.2418 13.4888 15.6495 13.0688C16.0573 12.6487 16.2853 12.0864 16.2853 11.501C16.2853 10.9156 16.0573 10.3532 15.6495 9.93318C15.2418 9.51313 14.6865 9.26842 14.1014 9.25098H7.90139C7.83507 9.25124 7.77153 9.27763 7.72455 9.32443C7.67756 9.37123 7.65092 9.43466 7.65039 9.50098C7.65026 9.53407 7.65665 9.56686 7.66919 9.59749C7.68173 9.62811 7.70018 9.65597 7.72349 9.67946C7.7468 9.70295 7.77451 9.72163 7.80503 9.73441C7.83555 9.7472 7.8683 9.75385 7.90139 9.75398H14.1014C14.5655 9.75398 15.0106 9.93835 15.3388 10.2665C15.667 10.5947 15.8514 11.0398 15.8514 11.504C15.8514 11.9681 15.667 12.4132 15.3388 12.7414C15.0106 13.0696 14.5655 13.254 14.1014 13.254H9.70139C9.63576 13.2545 9.57292 13.2806 9.52623 13.3267C9.47954 13.3728 9.45269 13.4354 9.45139 13.501C9.45139 13.5675 9.47766 13.6313 9.52449 13.6785C9.57132 13.7257 9.6349 13.7524 9.70139 13.753L14.1014 13.751Z" fill="currentColor"/>
  <path d="M10.8045 11.634C10.7385 11.6339 10.6732 11.6468 10.6123 11.672C10.5513 11.6972 10.496 11.7343 10.4495 11.781L9.06146 13.17C9.01474 13.2164 8.97767 13.2717 8.95238 13.3325C8.92708 13.3933 8.91406 13.4586 8.91406 13.5245C8.91406 13.5904 8.92708 13.6556 8.95238 13.7164C8.97767 13.7773 9.01474 13.8325 9.06146 13.879L10.4505 15.269C10.5445 15.363 10.672 15.4158 10.805 15.4158C10.9379 15.4158 11.0654 15.363 11.1595 15.269C11.2535 15.175 11.3063 15.0474 11.3063 14.9145C11.3063 14.7815 11.2535 14.654 11.1595 14.56L10.1255 13.525L11.1595 12.49C11.2062 12.4435 11.2432 12.3883 11.2685 12.3274C11.2938 12.2666 11.3069 12.2014 11.3069 12.1355C11.3069 12.0696 11.2938 12.0043 11.2685 11.9435C11.2432 11.8827 11.2062 11.8274 11.1595 11.781C11.1129 11.7343 11.0576 11.6972 10.9966 11.672C10.9357 11.6468 10.8704 11.6339 10.8045 11.634V11.634Z" fill="currentColor"/>
  <path d="M10.8037 11.384C10.9023 11.3837 11.0001 11.403 11.0912 11.4408C11.1823 11.4785 11.2651 11.534 11.3347 11.604C11.4753 11.7451 11.5543 11.9362 11.5543 12.1355C11.5543 12.3347 11.4753 12.5258 11.3347 12.667L10.4777 13.525L11.3347 14.383C11.4106 14.4513 11.4718 14.5343 11.5146 14.627C11.5574 14.7197 11.5808 14.8201 11.5835 14.9222C11.5862 15.0243 11.5681 15.1258 11.5303 15.2207C11.4925 15.3155 11.4357 15.4016 11.3635 15.4738C11.2913 15.546 11.2052 15.6028 11.1103 15.6406C11.0155 15.6784 10.914 15.6965 10.8119 15.6938C10.7098 15.6911 10.6094 15.6677 10.5167 15.6249C10.424 15.5821 10.3409 15.5209 10.2727 15.445L8.88366 14.056C8.74303 13.9148 8.66406 13.7237 8.66406 13.5245C8.66406 13.3252 8.74303 13.1341 8.88366 12.993L10.2727 11.604C10.3422 11.534 10.425 11.4785 10.5161 11.4408C10.6073 11.403 10.705 11.3837 10.8037 11.384V11.384ZM10.8037 15.165C10.8534 15.1649 10.9021 15.1501 10.9435 15.1224C10.9848 15.0947 11.0171 15.0554 11.0361 15.0094C11.0552 14.9634 11.0602 14.9128 11.0505 14.8639C11.0408 14.8151 11.0168 14.7702 10.9817 14.735L9.77066 13.525L10.9817 12.314C11.0288 12.2667 11.0553 12.2027 11.0553 12.136C11.0553 12.0692 11.0288 12.0052 10.9817 11.958C10.9584 11.9345 10.9306 11.9158 10.9001 11.9031C10.8695 11.8904 10.8368 11.8839 10.8037 11.884C10.7706 11.8839 10.7378 11.8904 10.7072 11.9031C10.6767 11.9158 10.649 11.9345 10.6257 11.958L9.23766 13.347C9.19052 13.3942 9.16404 13.4582 9.16404 13.525C9.16404 13.5917 9.19052 13.6557 9.23766 13.703L10.6257 15.092C10.649 15.1153 10.6768 15.1338 10.7074 15.1463C10.7379 15.1588 10.7706 15.1652 10.8037 15.165Z" fill="currentColor"/>
</svg>
