<svg width="20" height="20" viewBox="0 0 20 20" fill="none"
  xmlns="http://www.w3.org/2000/svg">
  <g clip-path="url(#clip0_3861_61096)">
    <path d="M4 4.46795V5.15795C4.00943 5.37794 4.10589 5.58535 4.26841 5.73514C4.43093 5.88493 4.64639 5.96499 4.86801 5.95795L16.128 5.93295C16.35 5.94028 16.5661 5.86043 16.7293 5.71069C16.8925 5.56095 16.9898 5.35338 17 5.13295V4.43895C16.9885 4.21982 16.8905 4.01402 16.7273 3.86614C16.5641 3.71827 16.3487 3.64023 16.128 3.64895L4.86801 3.67795C4.64771 3.66952 4.43296 3.74777 4.27043 3.8957C4.1079 4.04362 4.01071 4.24927 4 4.46795Z" fill="currentColor"/>
    <path d="M11 8.00798V8.69798C11.0087 8.91798 11.0977 9.12539 11.2478 9.27518C11.3978 9.42497 11.5967 9.50503 11.8012 9.49798L16.195 9.47298C16.4 9.48032 16.5995 9.40047 16.7501 9.25073C16.9008 9.10099 16.9906 8.89342 17 8.67298V7.97898C16.9894 7.75986 16.899 7.55406 16.7483 7.40618C16.5976 7.25831 16.3988 7.18027 16.195 7.18898L11.8012 7.21798C11.5979 7.20956 11.3997 7.28781 11.2496 7.43573C11.0996 7.58366 11.0099 7.7893 11 8.00798V8.00798Z" fill="currentColor"/>
    <path d="M11 15.1449V15.8349C11.0087 16.0549 11.0977 16.2624 11.2478 16.4121C11.3978 16.5619 11.5967 16.642 11.8012 16.6349L16.195 16.6099C16.4 16.6173 16.5995 16.5374 16.7501 16.3877C16.9008 16.238 16.9906 16.0304 17 15.8099V15.1159C16.9894 14.8968 16.899 14.691 16.7483 14.5431C16.5976 14.3953 16.3988 14.3172 16.195 14.3259L11.8012 14.3549C11.5979 14.3465 11.3997 14.4248 11.2496 14.5727C11.0996 14.7206 11.0099 14.9263 11 15.1449V15.1449Z" fill="currentColor"/>
    <path d="M7 11.512V12.202C7.00924 12.4219 7.10366 12.6294 7.26277 12.7791C7.42187 12.9289 7.63281 13.009 7.84976 13.002L16.1463 12.977C16.3637 12.9843 16.5752 12.9044 16.735 12.7547C16.8948 12.605 16.99 12.3974 17 12.177V11.483C16.9888 11.2638 16.8928 11.058 16.733 10.9102C16.5732 10.7623 16.3624 10.6842 16.1463 10.693L7.84976 10.722C7.63409 10.7135 7.42386 10.7918 7.26474 10.9397C7.10563 11.0876 7.01049 11.2933 7 11.512Z" fill="currentColor"/>
  </g>
  <defs>
    <clipPath id="clip0_3861_61096">
      <rect width="20" height="20" fill="white"/>
    </clipPath>
  </defs>
</svg>
