<svg width="15" height="15" viewBox="0 0 15 15" fill="none" xmlns="http://www.w3.org/2000/svg">
    <path
        d="M12.0529 5.43906C11.7935 4.3053 11.1501 3.29607 10.2318 2.58239C9.31344 1.86871 8.1766 1.49446 7.01389 1.52306H7.00889C5.84697 1.49398 4.71068 1.8673 3.79241 2.57983C2.87414 3.29236 2.2303 4.30032 1.96989 5.43306C1.28589 8.44906 3.13289 11.0031 4.80489 12.6111C5.42489 13.2111 7.01389 14.5051 7.01389 14.5051C7.01389 14.5051 8.60389 13.2051 9.21389 12.6111C10.8899 11.0041 12.7369 8.45506 12.0529 5.43906ZM7.01389 8.36806C6.64999 8.36787 6.29431 8.25983 5.99178 8.05759C5.68925 7.85535 5.45343 7.568 5.31413 7.23181C5.17483 6.89563 5.13828 6.5257 5.2091 6.16876C5.27993 5.81182 5.45495 5.48387 5.71206 5.22634C5.96916 4.96881 6.29683 4.79326 6.65365 4.72185C7.01048 4.65045 7.38047 4.68639 7.71688 4.82515C8.05329 4.96391 8.34103 5.19925 8.54376 5.50146C8.74648 5.80366 8.8551 6.15916 8.85589 6.52306C8.85642 6.76525 8.80916 7.00516 8.71681 7.22904C8.62446 7.45293 8.48885 7.6564 8.31774 7.82779C8.14663 7.99918 7.94338 8.13512 7.71965 8.22783C7.49591 8.32054 7.25608 8.3682 7.01389 8.36806V8.36806Z" />
</svg>