<svg width="16" height="17" viewBox="0 0 16 17" fill="none" xmlns="http://www.w3.org/2000/svg">
<path d="M2.62694 2.29501C2.40609 2.29527 2.19437 2.38312 2.03821 2.53928C1.88205 2.69544 1.7942 2.90716 1.79394 3.12801V13.128C1.7942 13.3489 1.88205 13.5606 2.03821 13.7167C2.19437 13.8729 2.40609 13.9607 2.62694 13.961H12.6269C12.8478 13.9607 13.0595 13.8729 13.2157 13.7167C13.3718 13.5606 13.4597 13.3489 13.4599 13.128V3.12801C13.4597 2.90716 13.3718 2.69544 13.2157 2.53928C13.0595 2.38312 12.8478 2.29527 12.6269 2.29501H2.62694ZM2.62694 1.46201H12.6269C12.8457 1.46201 13.0624 1.5051 13.2645 1.58882C13.4666 1.67255 13.6503 1.79526 13.805 1.94997C13.9597 2.10467 14.0824 2.28833 14.1661 2.49046C14.2498 2.69258 14.2929 2.90922 14.2929 3.12801V13.128C14.2929 13.3468 14.2498 13.5634 14.1661 13.7656C14.0824 13.9677 13.9597 14.1513 13.805 14.306C13.6503 14.4607 13.4666 14.5835 13.2645 14.6672C13.0624 14.7509 12.8457 14.794 12.6269 14.794H2.62694C2.40807 14.794 2.19135 14.7509 1.98916 14.6671C1.78696 14.5833 1.60326 14.4605 1.44854 14.3057C1.29383 14.1509 1.17113 13.9671 1.08747 13.7649C1.0038 13.5626 0.960806 13.3459 0.960938 13.127V3.12701C0.961203 2.68533 1.13684 2.26183 1.44925 1.94961C1.76166 1.63739 2.18526 1.46201 2.62694 1.46201Z"/>
<path d="M6.37673 6.04501H9.70973V10.211H5.54373V7.08701C5.51913 6.83897 5.59249 6.59115 5.74813 6.39646C5.90377 6.20176 6.12936 6.07564 6.37673 6.04501Z" fill="#3BC7FF"/>
<path d="M5.95996 14.7931H5.12695V1.46201H5.95996V14.7931Z"/>
<path d="M10.126 14.7931H9.29297V1.46201H10.126V14.7931Z"/>
<path d="M14.2919 9.79401V10.627H0.960938V9.79401H14.2919Z"/>
<path d="M14.2919 5.628V6.461L0.960938 6.461V5.628L14.2919 5.628Z"/>
</svg>
