<svg width="21" height="21" viewBox="0 0 21 21" fill="none"
  xmlns="http://www.w3.org/2000/svg">
  <path d="M18.6113 8.0325C18.3643 7.64149 18.0955 7.26465 17.8063 6.90375C17.7299 6.8065 17.6338 6.72654 17.5242 6.66914C17.4147 6.61175 17.2942 6.57823 17.1708 6.57079C17.0473 6.56335 16.9237 6.58216 16.8081 6.62597C16.6924 6.66979 16.5874 6.73763 16.4999 6.825L13.8749 9.45C14.0775 10.0762 14.0957 10.7475 13.9274 11.3838C13.771 11.9955 13.4529 12.5539 13.0065 13.0003C12.56 13.4468 12.0016 13.7649 11.3899 13.9213C10.7536 14.0895 10.0824 14.0713 9.45614 13.8688L7.30627 16.0204C7.20288 16.1224 7.12651 16.2485 7.08404 16.3874C7.04156 16.5262 7.03432 16.6735 7.06297 16.8159C7.09162 16.9583 7.15525 17.0913 7.24814 17.2029C7.34102 17.3145 7.46023 17.4013 7.59502 17.4554C8.52169 17.8135 9.50654 17.9974 10.5 17.9979C12.077 17.9863 13.6195 17.5348 14.9538 16.6941C16.4608 15.7269 17.7268 14.428 18.655 12.8966C19.0572 12.1475 19.264 11.3091 19.2563 10.459C19.2487 9.60878 19.0268 8.77424 18.6113 8.0325Z" fill="currentColor"/>
  <path d="M12.2676 8.7325L8.73256 12.2675C8.26621 11.7969 8.00241 11.1625 7.99756 10.5C7.99895 9.83672 8.26305 9.201 8.73206 8.732C9.20107 8.26299 9.83678 7.99888 10.5001 7.9975C11.1626 8.00235 11.7969 8.26614 12.2676 8.7325Z" fill="currentColor"/>
  <path d="M15.9688 5.03124L13.0025 7.99749C12.6752 7.66729 12.2853 7.40585 11.8555 7.22854C11.4258 7.05123 10.9649 6.96162 10.5 6.96499C9.80094 6.96594 9.11782 7.17388 8.53678 7.56258C7.95575 7.95128 7.50284 8.50334 7.23516 9.14913C6.96749 9.79491 6.89705 10.5055 7.03272 11.1913C7.16839 11.877 7.5041 12.5073 7.9975 13.0025L5.04 15.9687H5.03125C4.00271 15.1205 3.11651 14.1132 2.40625 12.985C1.9761 12.2258 1.75 11.3682 1.75 10.4956C1.75 9.62306 1.9761 8.7654 2.40625 8.00624C3.32671 6.51516 4.57074 5.2502 6.04625 4.30499C7.3823 3.46823 8.92363 3.01704 10.5 3.00124C12.5023 3.02791 14.434 3.74496 15.9688 5.03124Z" fill="currentColor"/>
  <path d="M13.0024 10.5C13.0011 11.1633 12.737 11.799 12.2679 12.268C11.7989 12.737 11.1632 13.0011 10.4999 13.0025C10.4497 13.0053 10.3994 12.9993 10.3512 12.985L12.9849 10.3512C12.9993 10.3995 13.0052 10.4498 13.0024 10.5Z" fill="currentColor"/>
  <path d="M19.0487 1.95125C18.922 1.82526 18.7506 1.75454 18.5719 1.75454C18.3932 1.75454 18.2217 1.82526 18.095 1.95125L1.95123 18.1038C1.82524 18.2305 1.75452 18.4019 1.75452 18.5806C1.75452 18.7593 1.82524 18.9308 1.95123 19.0575C2.07847 19.1795 2.24747 19.2484 2.42373 19.25C2.51191 19.2496 2.59912 19.2315 2.68025 19.197C2.76138 19.1624 2.83481 19.112 2.89623 19.0488L19.0487 2.89188C19.1123 2.83117 19.163 2.75819 19.1976 2.67735C19.2322 2.59651 19.25 2.5095 19.25 2.42157C19.25 2.33364 19.2322 2.24662 19.1976 2.16578C19.163 2.08494 19.1123 2.01196 19.0487 1.95125Z" fill="currentColor"/>
</svg>
