<svg width="24" height="24" viewBox="0 0 24 24" fill="none"
  xmlns="http://www.w3.org/2000/svg">
  <path d="M14.7041 12.9385C14.5113 13.127 14.2522 13.2324 13.9825 13.2324C13.7128 13.2324 13.4536 13.127 13.2608 12.9385L12.5704 12.2471V17.8477C12.5766 18.0919 12.486 18.3281 12.3184 18.5059C12.1508 18.6836 11.9191 18.7878 11.6748 18.7959C11.4308 18.7878 11.2006 18.6837 11.0332 18.5059C10.8659 18.328 10.7755 18.0917 10.7823 17.8477L10.7823 12.2471L10.0889 12.9385C9.99449 13.0336 9.88258 13.1087 9.75883 13.1602C9.63508 13.2116 9.50224 13.2384 9.36821 13.2383C9.2346 13.2395 9.10182 13.2137 8.97856 13.1621C8.8553 13.1105 8.74433 13.0345 8.65141 12.9385C8.55539 12.8456 8.47935 12.7336 8.42778 12.6104C8.3762 12.4871 8.35036 12.3553 8.35161 12.2217C8.35069 12.0875 8.37624 11.9539 8.42778 11.8301C8.47932 11.7062 8.5556 11.5939 8.65141 11.5L10.9512 9.19141C11.046 9.09626 11.1582 9.02023 11.2823 8.96875C11.4063 8.91727 11.5395 8.89153 11.6739 8.8916C11.8082 8.89153 11.9414 8.91727 12.0655 8.96875C12.1895 9.02023 12.3027 9.09626 12.3975 9.19141L14.7041 11.5C14.7993 11.5944 14.8743 11.7073 14.9258 11.8311C14.9773 11.9548 15.004 12.0876 15.0039 12.2217C15.0018 12.4908 14.8943 12.7481 14.7041 12.9385Z" fill="currentColor"/>
  <path d="M4.88867 5.22949L19.1094 5.22949C19.3542 5.25851 19.5804 5.37624 19.7441 5.56055C19.9079 5.74486 19.998 5.98294 19.998 6.22949C19.998 6.47604 19.9079 6.71413 19.7441 6.89844C19.5804 7.08275 19.3542 7.20047 19.1094 7.22949L4.88867 7.22949C4.64384 7.20047 4.41766 7.08275 4.25391 6.89844C4.09015 6.71413 4 6.47604 4 6.22949C4 5.98294 4.09015 5.74486 4.25391 5.56055C4.41766 5.37624 4.64384 5.25851 4.88867 5.22949Z" fill="currentColor"/>
</svg>
