<svg xmlns="http://www.w3.org/2000/svg" width="13.996" height="13.996" viewBox="0 0 13.996 13.996">
  <g id="Group_2474" data-name="Group 2474" transform="translate(0 0.471)">
    <g id="Group_441" data-name="Group 441" transform="translate(1.143 1.061)">
      <path id="Path_478" data-name="Path 478" d="M394.541,35.147l.4.4a.79.79,0,0,0,1.106,0l2.69-2.679a.79.79,0,0,0,0-1.116l-.4-.4a.783.783,0,0,0-1.116,0l-2.679,2.679h0a.783.783,0,0,0,0,1.116Z" transform="translate(-394.307 -31.118)" fill="#50585d" fill-rule="evenodd"/>
      <path id="Path_479" data-name="Path 479" d="M130.523,145.009a1.184,1.184,0,0,0,0,1.676.833.833,0,0,0,1.24.124l4.2-4.2a.837.837,0,0,0-.124-1.24,1.184,1.184,0,0,0-1.676,0l-2.5,2.5-.56-.556,2.155-2.147-2.945-2.41-2.388,2.388,2.9,3.565Z" transform="translate(-125.459 -136.302)" fill="#50585d" fill-rule="evenodd"/>
      <path id="Path_480" data-name="Path 480" d="M103.816,410.942l-2.178-2.178-.559.559,2.178,2.178Z" transform="translate(-92.476 -400.16)" fill="#50585d"/>
    </g>
  </g>
</svg>
