<svg width="20" height="20" viewBox="0 0 20 20" fill="none" xmlns="http://www.w3.org/2000/svg">
<path d="M2.036 9.401L6.067 11.621C6.12819 11.6392 6.19305 11.6412 6.25526 11.6269C6.31748 11.6126 6.37493 11.5824 6.42204 11.5393C6.46914 11.4963 6.5043 11.4417 6.5241 11.381C6.54389 11.3203 6.54765 11.2556 6.535 11.193L6.067 9.537C11.208 7.59 16.758 9.186 17.187 15.107C17.1839 15.1385 17.1878 15.1703 17.1985 15.2001C17.2091 15.2299 17.2263 15.257 17.2486 15.2794C17.271 15.3017 17.2981 15.3189 17.3279 15.3295C17.3577 15.3402 17.3895 15.3441 17.421 15.341H17.966C18 15.3439 18.0341 15.3393 18.0661 15.3276C18.0981 15.3159 18.1272 15.2974 18.1513 15.2733C18.1754 15.2492 18.1939 15.2201 18.2056 15.1881C18.2173 15.1561 18.2219 15.122 18.219 15.088C18.57 7.921 11.555 5.019 5.347 6.636L4.899 4.98C4.8699 4.90824 4.82006 4.84679 4.75583 4.80353C4.69161 4.76026 4.61594 4.73715 4.5385 4.73715C4.46106 4.73715 4.38539 4.76026 4.32117 4.80353C4.25694 4.84679 4.20709 4.90824 4.178 4.98L1.9 8.875C1.84956 8.96309 1.83555 9.0674 1.86096 9.16568C1.88637 9.26395 1.94918 9.3484 2.036 9.401Z" />
</svg>
