<svg width="24" height="4" viewBox="0 0 24 4" fill="none" xmlns="http://www.w3.org/2000/svg">
<path d="M2 8.75117e-08C0.89543 1.35843e-07 -5.42268e-07 0.895431 -3.49336e-07 2C-1.56403e-07 3.10457 0.895431 4 2 4C3.10457 4 4 3.10457 4 2C4 0.895431 3.10457 3.91803e-08 2 8.75117e-08Z" fill="#E6E6E6"/>
<path d="M12 8.75117e-08C10.8954 1.35843e-07 10 0.895431 10 2C10 3.10457 10.8954 4 12 4C13.1046 4 14 3.10457 14 2C14 0.895431 13.1046 3.91803e-08 12 8.75117e-08Z" fill="#E6E6E6"/>
<path d="M22 8.75117e-08C20.8954 1.35843e-07 20 0.895431 20 2C20 3.10457 20.8954 4 22 4C23.1046 4 24 3.10457 24 2C24 0.895431 23.1046 3.91803e-08 22 8.75117e-08Z" fill="#E6E6E6"/>
</svg>
