<svg width="19" height="19" viewBox="0 0 19 19" fill="none" xmlns="http://www.w3.org/2000/svg">
<path d="M17.3702 9.10349V9.10328C17.3702 7.46862 16.8855 5.87067 15.9773 4.5115C15.0692 3.15232 13.7783 2.09298 12.2681 1.46742C10.7579 0.841862 9.09607 0.678188 7.49282 0.997095C5.88956 1.316 4.41688 2.10317 3.261 3.25905C2.10512 4.41493 1.31795 5.88761 0.999048 7.49086C0.680141 9.09412 0.843815 10.7559 1.46937 12.2662C2.09493 13.7764 3.15428 15.0672 4.51345 15.9754C5.87262 16.8836 7.47058 17.3683 9.10524 17.3683H9.10544C11.2965 17.3653 13.397 16.4936 14.9463 14.9443C16.4956 13.395 17.3673 11.2945 17.3702 9.10349ZM5.34014 3.46842C6.42441 2.74393 7.69401 2.34808 8.99635 2.32716L9.10507 2.32728C10.9017 2.32936 12.6241 3.04391 13.8946 4.31421C15.1651 5.58452 15.8799 7.30687 15.8822 9.10348C15.8822 10.4438 15.4847 11.754 14.7401 12.8684C13.9954 13.9829 12.937 14.8515 11.6987 15.3644C10.4603 15.8774 9.09772 16.0116 7.78311 15.7501C6.4685 15.4886 5.26096 14.8431 4.31318 13.8953C3.36539 12.9476 2.71995 11.74 2.45846 10.4254C2.19696 9.1108 2.33117 7.74817 2.84411 6.50984C3.35704 5.2715 4.22567 4.21308 5.34014 3.46842Z" fill="#A7B0B5" stroke="#A7B0B5" stroke-width="0.3"/>
<path d="M17.1459 18.15C17.2783 18.1505 17.4096 18.1247 17.532 18.0741C17.6547 18.0233 17.766 17.9486 17.8594 17.8544L17.86 17.8537C18.0459 17.6639 18.15 17.4088 18.15 17.1432C18.15 16.8776 18.0459 16.6225 17.86 16.4326L17.86 16.4326L17.8588 16.4315L15.5697 14.1447C15.3807 13.956 15.1245 13.85 14.8574 13.85C14.5903 13.85 14.334 13.956 14.1451 14.1447C13.9562 14.3335 13.85 14.5895 13.85 14.8565C13.85 15.1234 13.9562 15.3794 14.1451 15.5682C14.1451 15.5682 14.1451 15.5682 14.1451 15.5682L16.4323 17.8544C16.4324 17.8545 16.4325 17.8546 16.4326 17.8547C16.526 17.9488 16.6371 18.0234 16.7597 18.0741C16.8821 18.1247 17.0134 18.1505 17.1459 18.15ZM17.1459 18.15C17.1456 18.15 17.1454 18.15 17.1451 18.15L17.1459 18L17.1466 18.15C17.1463 18.15 17.1461 18.15 17.1459 18.15Z" fill="#A7B0B5" stroke="#A7B0B5" stroke-width="0.3"/>
</svg>
