<svg width="20" height="20" viewBox="0 0 20 20" fill="none" xmlns="http://www.w3.org/2000/svg">
<path d="M7.0177 16.5398C6.74723 16.5466 6.48531 16.4459 6.28918 16.2596C6.09306 16.0732 5.97887 15.8171 5.9718 15.5467V4.76543C5.97914 4.49505 6.09336 4.23885 6.28943 4.05254C6.48549 3.86622 6.7473 3.76484 7.0177 3.77129H10.2347C11.2613 3.76413 12.2519 4.14953 13.0038 4.84843C13.3663 5.18037 13.6561 5.58344 13.8549 6.033C14.0537 6.48257 14.1572 6.96918 14.1588 7.46074C14.161 8.23271 13.9062 8.98326 13.4347 9.59453C13.7712 9.76444 14.0818 9.98117 14.3568 10.2391C14.7193 10.571 15.0091 10.975 15.2079 11.4246C15.4067 11.8742 15.5102 12.3598 15.5118 12.8514C15.5104 13.3429 15.4069 13.8285 15.2081 14.2781C15.0093 14.7277 14.7195 15.1318 14.3568 15.4637C13.6049 16.1626 12.6143 16.547 11.5878 16.5398H7.0177ZM8.0658 14.5535H11.5878C12.0557 14.5695 12.5111 14.3994 12.8544 14.0809C13.1976 13.7624 13.4008 13.3212 13.4198 12.8533C13.4008 12.3855 13.1976 11.9443 12.8544 11.6258C12.5111 11.3073 12.0557 11.1372 11.5878 11.1531H8.0658V14.5535ZM8.0658 9.16289H10.2347C10.7024 9.17858 11.1575 9.00872 11.5004 8.69023C11.8432 8.37174 12.0461 7.93125 12.0648 7.46367C12.0463 6.996 11.8435 6.55468 11.5006 6.23613C11.1577 5.91758 10.7025 5.74752 10.2347 5.76347H8.0658V9.16289Z" />
</svg>
