<svg width="20px" height="20px" viewBox="0 0 20 20" fill="none"
  xmlns="http://www.w3.org/2000/svg">
  <path d="M11.5704 17.2004H6.0669C5.50772 17.1999 4.97158 16.9776 4.57618 16.5822C4.18078 16.1868 3.95845 15.6506 3.95801 15.0915V7.3091C3.95845 6.74992 4.18078 6.21377 4.57618 5.81837C4.97158 5.42297 5.50772 5.20064 6.0669 5.2002H11.5704C12.1296 5.20064 12.6657 5.42297 13.0611 5.81837C13.4565 6.21377 13.6788 6.74992 13.6793 7.3091V15.0915C13.6788 15.6506 13.4565 16.1868 13.0611 16.5822C12.6657 16.9776 12.1296 17.1999 11.5704 17.2004ZM6.0669 6.41088C5.94896 6.41055 5.83213 6.43354 5.7231 6.47852C5.61408 6.5235 5.51502 6.58958 5.43162 6.67298C5.34822 6.75638 5.28214 6.85544 5.23716 6.96446C5.19218 7.07349 5.16919 7.19032 5.16952 7.30826V15.0906C5.16919 15.2086 5.19218 15.3254 5.23716 15.4344C5.28214 15.5435 5.34822 15.6425 5.43162 15.7259C5.51502 15.8093 5.61408 15.8754 5.7231 15.9204C5.83213 15.9654 5.94896 15.9883 6.0669 15.988H11.5704C11.6883 15.9883 11.8052 15.9654 11.9142 15.9204C12.0232 15.8754 12.1223 15.8093 12.2057 15.7259C12.2891 15.6425 12.3552 15.5435 12.4001 15.4344C12.4451 15.3254 12.4681 15.2086 12.4678 15.0906V7.30826C12.4681 7.19032 12.4451 7.07349 12.4001 6.96446C12.3552 6.85544 12.2891 6.75638 12.2057 6.67298C12.1223 6.58958 12.0232 6.5235 11.9142 6.47852C11.8052 6.43354 11.6883 6.41055 11.5704 6.41088H6.0669Z" fill="currentColor" stroke="currentColor" stroke-width="0.3"/>
  <path d="M15.4372 14.037C15.3575 14.0378 15.2784 14.0226 15.2045 13.9925C15.1307 13.9623 15.0636 13.9177 15.0072 13.8613C14.9508 13.8049 14.9062 13.7378 14.876 13.664C14.8458 13.5901 14.8307 13.511 14.8315 13.4312V6.29046C14.8323 5.99075 14.7738 5.69385 14.6596 5.41677C14.5453 5.1397 14.3774 4.88791 14.1656 4.67586C13.9538 4.46382 13.7022 4.2957 13.4253 4.18113C13.1483 4.06656 12.8515 4.00781 12.5518 4.00825H7.70237C7.54161 4.00825 7.38741 3.94438 7.27373 3.8307C7.16005 3.71702 7.09619 3.56284 7.09619 3.40207C7.09619 3.24131 7.16005 3.08712 7.27373 2.97344C7.38741 2.85976 7.54161 2.7959 7.70237 2.7959H12.5518C13.4776 2.79612 14.3655 3.16402 15.0202 3.8187C15.6749 4.47339 16.0428 5.36127 16.043 6.28713V13.4271C16.0423 13.5875 15.9783 13.7412 15.8648 13.8547C15.7514 13.9681 15.5977 14.0322 15.4372 14.0328V14.037Z" fill="currentColor"/>
  <path d="M15.4374 14.1701C15.3401 14.1711 15.2435 14.1526 15.1534 14.1159C15.0633 14.0791 14.9814 14.0247 14.9125 13.9558C14.8437 13.887 14.7893 13.8051 14.7525 13.715C14.7157 13.6249 14.6973 13.5283 14.6983 13.431V6.29106C14.6977 5.72222 14.4714 5.17687 14.0692 4.77464C13.6669 4.37241 13.1216 4.14615 12.5527 4.14549H7.70336C7.50723 4.14549 7.31915 4.06758 7.18046 3.9289C7.04178 3.79021 6.96387 3.60212 6.96387 3.406C6.96387 3.20987 7.04178 3.02178 7.18046 2.8831C7.31915 2.74442 7.50723 2.6665 7.70336 2.6665H12.5527C13.5137 2.66761 14.435 3.04983 15.1145 3.72933C15.794 4.40883 16.1762 5.3301 16.1773 6.29106V13.431C16.1771 13.6269 16.0992 13.8148 15.9606 13.9534C15.822 14.0919 15.6342 14.1698 15.4382 14.1701H15.4374ZM7.70336 2.9323C7.57795 2.9323 7.45768 2.98213 7.369 3.0708C7.28032 3.15948 7.23051 3.27976 7.23051 3.40517C7.23051 3.53058 7.28032 3.65085 7.369 3.73953C7.45768 3.8282 7.57795 3.87802 7.70336 3.87802H12.5527C13.1936 3.87802 13.8082 4.1326 14.2614 4.58576C14.7145 5.03891 14.9691 5.65353 14.9691 6.29439V13.4343C14.9685 13.4966 14.9802 13.5583 15.0037 13.6159C15.0272 13.6735 15.062 13.7259 15.106 13.7699C15.15 13.8139 15.2024 13.8487 15.26 13.8722C15.3176 13.8957 15.3793 13.9074 15.4416 13.9068C15.5668 13.9065 15.6868 13.8567 15.7754 13.7681C15.8639 13.6796 15.9138 13.5596 15.914 13.4343V6.29106C15.9129 5.40082 15.5588 4.54736 14.9293 3.91787C14.2998 3.28837 13.4463 2.93424 12.5561 2.93314L7.70336 2.9323Z" fill="currentColor"/>
</svg>
