<svg width="8" height="6" viewBox="0 0 8 6" fill="none" xmlns="http://www.w3.org/2000/svg">
<path d="M4.78867 5.18077C4.57948 5.38517 4.29579 5.5 4 5.5C3.70421 5.5 3.42052 5.38517 3.21133 5.18077L0.326608 2.36119C0.170649 2.2087 0.0644445 2.01445 0.0214219 1.80297C-0.0216007 1.5915 0.000490189 1.37231 0.0849009 1.17311C0.169312 0.973905 0.312253 0.803637 0.495656 0.683827C0.679057 0.564017 0.894684 0.500046 1.11528 0.5L6.88472 0.5C7.10532 0.500046 7.32094 0.564017 7.50434 0.683827C7.68775 0.803637 7.83069 0.973905 7.9151 1.17311C7.99951 1.37231 8.0216 1.5915 7.97858 1.80297C7.93556 2.01445 7.82935 2.2087 7.67339 2.36119L4.78867 5.18077Z"/>
</svg>
