<svg width="20" height="20" viewBox="0 0 20 20" fill="none" xmlns="http://www.w3.org/2000/svg">
<path d="M5.14498 15.688L12.285 3.43H13.808L6.76298 15.688H5.14498ZM4.54498 9.844C4.24634 9.87486 3.94456 9.83991 3.66087 9.7416C3.37719 9.6433 3.11849 9.48403 2.90298 9.275C2.55106 8.80324 2.3794 8.22122 2.41898 7.634V5.64C2.37999 5.05407 2.54851 4.47312 2.89498 3.999C3.11676 3.78706 3.38229 3.62628 3.67288 3.52798C3.96347 3.42967 4.27207 3.39623 4.57698 3.43H6.17698C6.47693 3.39765 6.78032 3.43187 7.06552 3.53023C7.35073 3.62858 7.61073 3.78864 7.82698 3.999C8.17309 4.47325 8.34125 5.05419 8.30198 5.64V7.633C8.34096 8.21892 8.17245 8.79988 7.82598 9.274C7.60446 9.48647 7.33905 9.6478 7.04845 9.74663C6.75784 9.84545 6.44911 9.87937 6.14398 9.846L4.54498 9.844ZM4.83098 8.236H5.86198C5.99528 8.25206 6.13049 8.23861 6.25802 8.19662C6.38555 8.15463 6.50229 8.08511 6.59998 7.993C6.74791 7.78033 6.8185 7.52339 6.79998 7.265V6.009C6.832 5.73545 6.75831 5.46001 6.59398 5.239C6.39484 5.0852 6.14431 5.01362 5.89398 5.039H4.85898C4.62146 5.02597 4.38581 5.08751 4.18498 5.215C4.02098 5.33233 3.93898 5.599 3.93898 6.015V7.271C3.92068 7.52684 3.98444 7.78186 4.12098 7.999C4.21267 8.0902 4.32416 8.15903 4.44678 8.20014C4.5694 8.24124 4.69984 8.25351 4.82798 8.236H4.83098ZM12.907 15.636C12.6095 15.6675 12.3088 15.6328 12.0263 15.5344C11.7438 15.436 11.4866 15.2764 11.273 15.067C10.9253 14.5937 10.7554 14.0131 10.793 13.427V11.434C10.7538 10.8493 10.9193 10.2691 11.261 9.793C11.4807 9.58049 11.7448 9.41926 12.0342 9.32088C12.3236 9.2225 12.6313 9.18942 12.935 9.224H14.553C14.8529 9.19165 15.1563 9.22587 15.4415 9.32423C15.7267 9.42258 15.9867 9.58264 16.203 9.793C16.5494 10.2671 16.718 10.8481 16.679 11.434V13.427C16.718 14.0129 16.5494 14.5939 16.203 15.068C15.9812 15.2799 15.7157 15.4407 15.4251 15.539C15.1345 15.6373 14.8259 15.6708 14.521 15.637L12.907 15.636ZM13.207 14.028H14.22C14.3556 14.0451 14.4934 14.0325 14.6236 13.9908C14.7538 13.9492 14.8734 13.8796 14.974 13.787C15.1219 13.5743 15.1925 13.3174 15.174 13.059V11.803C15.2067 11.5282 15.1298 11.2515 14.96 11.033C14.7577 10.88 14.5055 10.8083 14.253 10.832H13.236C12.996 10.8198 12.7581 10.8812 12.554 11.008C12.3846 11.1253 12.3 11.392 12.3 11.808V13.059C12.282 13.315 12.3461 13.57 12.483 13.787C12.5767 13.88 12.6906 13.9502 12.8158 13.9924C12.9409 14.0345 13.0741 14.0474 13.205 14.03L13.207 14.028Z" />
</svg>
