<svg width="20" height="20" viewBox="0 0 20 20" fill="none"
  xmlns="http://www.w3.org/2000/svg">
  <g transform="translate(0, 0)">
    <path fill="currentColor" fill-rule="evenodd" d="M5.08196626,9.37727765 L5.99955419,8 L5.0815666,6.62291941 C4.62836385,6.85296857 4.11835777,6.98725058 3.57817961,6.99913216 C3.55122348,7.00107303 3.52503985,7.00208268 3.49974771,7.00208268 C3.44586152,7.00208268 3.39177256,7.00013278 3.33755121,6.99630282 C1.49448789,6.91222827 0.0231246995,5.40247032 0.000269927977,3.54391978 C6.92469045e-05,3.53097907 -1.98246352e-05,3.51804863 3.68240513e-06,3.50512942 C1.22774602e-06,3.50341893 0,3.50170815 0,3.49999708 C0,3.49829098 1.22063079e-06,3.49658516 3.66106665e-06,3.49487963 C-1.97109738e-05,3.48199716 6.88547616e-05,3.4691033 0.000268397483,3.45619902 C0.0235736053,1.55561775 1.56164322,0.0197518958 3.46297798,0.00018898828 C3.47380467,4.84500079e-05 3.48462385,-1.38757964e-05 3.49543495,2.57804707e-06 C3.49686604,8.59511651e-07 3.49829733,0 3.49972882,0 C3.50116736,0 3.5026057,8.6800093e-07 3.50404384,2.60350766e-06 C3.51491367,-1.40208481e-05 3.52579267,4.89893362e-05 3.53668024,0.000191057626 C5.38088977,0.0192698907 6.88328742,1.46490662 6.99303415,3.28618166 C6.99855951,3.35770064 7.00076239,3.42903042 6.99947653,3.5000104 C7.0295035,3.93876004 6.99947671,4.50000957 6.99947671,4.50000957 L16,14.0000016 L16,14.9952401 L12.9990117,14.9952401 L8,10.000005 L6.52775458,10.7439587 C6.82709523,11.2590932 6.9987709,11.8576041 6.99945558,12.4961622 C6.99946966,12.4974444 6.99947671,12.4987247 6.99947671,12.5000029 C6.99947671,12.505048 6.99945964,12.5100948 6.99942556,12.5151433 C6.99127795,14.4383685 5.43207235,15.9954569 3.50814196,15.9999843 C3.50534334,15.9999948 3.50254523,16 3.49974765,16 C3.49697112,16 3.49419407,15.9999948 3.49141651,15.9999845 C1.56239166,15.9954995 0,14.4302204 0,12.4999971 C0,10.5670021 1.56688196,9 3.49972882,9 C4.06913668,9 4.60678373,9.13599458 5.08196626,9.37727765 Z M12.9843643,1.04188257 L8.99932157,5.00000915 L11.0037439,7.00000748 L15.9987792,2.00001165 L15.9987792,1.00001249 L12.9843643,1.04188257 Z M3.49974771,5.00000915 C4.32811065,5.00000915 4.99963149,4.32843684 4.99963149,3.5000104 C4.99963149,2.67158397 4.32811065,2.00001165 3.49974771,2.00001165 C2.67138477,2.00001165 1.99986393,2.67158397 1.99986393,3.5000104 C1.99986393,4.32843684 2.67138477,5.00000915 3.49974771,5.00000915 Z M3.49974771,14.0000016 C4.32811065,14.0000016 4.99963149,13.3284293 4.99963149,12.5000029 C4.99963149,11.6715765 4.32811065,11.0000041 3.49974771,11.0000041 C2.67138477,11.0000041 1.99986393,11.6715765 1.99986393,12.5000029 C1.99986393,13.3284293 2.67138477,14.0000016 3.49974771,14.0000016 Z" transform="translate(1 1)"/>
  </g>
</svg>
