<svg width="20" height="20" viewBox="0 0 20 20" fill="none" xmlns="http://www.w3.org/2000/svg">
<path d="M4.15466 18.3251C3.74631 18.3249 3.35479 18.1627 3.06604 17.874C2.77729 17.5852 2.61489 17.1934 2.61462 16.7851V3.63373C2.61515 3.22546 2.77759 2.83453 3.06628 2.54584C3.35498 2.25715 3.74639 2.09422 4.15466 2.09369H17.3058C17.714 2.09448 18.105 2.2572 18.3937 2.54584C18.6823 2.83447 18.845 3.22554 18.8458 3.63373V16.7851C18.845 17.1933 18.6823 17.5844 18.3937 17.873C18.105 18.1616 17.714 18.3243 17.3058 18.3251H4.15466ZM17.0826 16.5624V11.1113H11.6317V16.5624H17.0826ZM4.38269 16.5624H9.83362V11.1113H4.38269V16.5624ZM17.0826 9.30756V3.85736H11.6317V9.30756H17.0826ZM9.82971 9.30756V3.85736H4.37878V9.30756H9.82971Z" />
</svg>
