<svg width="20" height="20" viewBox="0 0 20 20" fill="none" xmlns="http://www.w3.org/2000/svg">
<path d="M5.51373 17.2004C5.21456 17.1996 4.92788 17.0802 4.71661 16.8683C4.50535 16.6565 4.38678 16.3687 4.38678 16.0695C4.38731 15.7708 4.50611 15.4849 4.71735 15.2736C4.92859 15.0624 5.215 14.9431 5.51373 14.9426H8.41388L11.3758 6.05487H9.22784C8.92876 6.05487 8.64191 5.93609 8.43024 5.72479C8.21857 5.5135 8.09922 5.227 8.09869 4.92792C8.09922 4.62856 8.21841 4.34184 8.42999 4.13007C8.64158 3.91829 8.92849 3.79883 9.22784 3.79803H16.6548C16.9544 3.79856 17.2414 3.91729 17.4532 4.12909C17.665 4.34089 17.7842 4.62839 17.7847 4.92792C17.7839 5.22709 17.6645 5.51352 17.4527 5.72479C17.2409 5.93606 16.954 6.05487 16.6548 6.05487H13.7547L10.7928 14.9426H12.9407C13.2399 14.9426 13.527 15.0614 13.7388 15.2726C13.9507 15.4839 14.0701 15.7703 14.0709 16.0695C14.0706 16.3691 13.9514 16.6565 13.7396 16.8683C13.5277 17.0802 13.2403 17.2001 12.9407 17.2004H5.51373Z" />
</svg>
