<svg width="20" height="20" viewBox="0 0 20 20" fill="none" xmlns="http://www.w3.org/2000/svg">
<path d="M2.74058 2.35001H17.5916C17.6895 2.36134 17.779 2.41065 17.8409 2.48732C17.9028 2.564 17.9321 2.66192 17.9226 2.76001V5.84501H2.40958V2.76001C2.40002 2.66192 2.42934 2.564 2.49125 2.48732C2.55315 2.41065 2.64269 2.36134 2.74058 2.35001V2.35001Z" fill="#E8716E"/>
<path d="M2.40958 6.37H17.9216V9.618H2.40958V6.37Z" fill="#E7A157"/>
<path d="M2.40958 10.081H17.9216V13.696H2.40958V10.081Z" fill="#E7DA3C"/>
<path d="M2.40958 14.028H17.9216V17.146C17.9315 17.2446 17.9024 17.3431 17.8405 17.4205C17.7786 17.4979 17.6889 17.5479 17.5906 17.56H2.74058C2.64224 17.5479 2.55253 17.4979 2.49067 17.4205C2.4288 17.3431 2.39969 17.2446 2.40958 17.146V14.028Z" fill="#7ABC82"/>
<path d="M3.01258 2.433C2.90499 2.43326 2.80187 2.47612 2.72579 2.5522C2.64971 2.62829 2.60685 2.7314 2.60658 2.839V17.063C2.60685 17.1706 2.64971 17.2737 2.72579 17.3498C2.80187 17.4259 2.90499 17.4687 3.01258 17.469H17.2366C17.3442 17.4687 17.4473 17.4259 17.5234 17.3498C17.5995 17.2737 17.6423 17.1706 17.6426 17.063V2.839C17.6423 2.7314 17.5995 2.62829 17.5234 2.5522C17.4473 2.47612 17.3442 2.43326 17.2366 2.433H3.01258ZM3.01258 1.823H17.2366C17.506 1.823 17.7645 1.93004 17.955 2.12058C18.1455 2.31111 18.2526 2.56954 18.2526 2.839V17.063C18.2526 17.3325 18.1455 17.5909 17.955 17.7814C17.7645 17.972 17.506 18.079 17.2366 18.079H3.01258C2.74312 18.079 2.4847 17.972 2.29416 17.7814C2.10362 17.5909 1.99658 17.3325 1.99658 17.063V2.839C1.99658 2.56954 2.10362 2.31111 2.29416 2.12058C2.4847 1.93004 2.74312 1.823 3.01258 1.823Z" fill="#50585D"/>
<path d="M18.2527 6.37H1.99655V5.71997H18.2527V6.37Z" fill="#50585D"/>
<path d="M18.2527 10.266H1.99655V9.616H18.2527V10.266Z" fill="#50585D"/>
<path d="M18.2527 14.173H1.99655V13.523H18.2527V14.173Z" fill="#50585D"/>
</svg>
