<svg width="24" height="24" viewBox="0 0 24 24" fill="none"
  xmlns="http://www.w3.org/2000/svg">
  <path d="M11.8203 17.489L14.7953 7.99902H17.1953L20.1693 17.489H18.1943L17.5943 15.501H14.3603L13.7703 17.489H11.8203ZM14.8083 13.796H17.1433L15.9763 9.62802L14.8083 13.796Z" fill="currentColor"/>
  <path d="M5.08058 16.5234L5.08058 7.17285C5.056 7.06206 5.05678 6.94744 5.08254 6.83691C5.10829 6.72639 5.15897 6.62269 5.23 6.53418C5.30102 6.44566 5.39037 6.37428 5.49269 6.3252C5.59502 6.27611 5.70733 6.25098 5.82082 6.25098C5.93431 6.25098 6.04662 6.27611 6.14894 6.3252C6.25127 6.37428 6.34159 6.44566 6.41261 6.53418C6.48364 6.62269 6.53334 6.72639 6.5591 6.83691C6.58485 6.94744 6.58564 7.06206 6.56105 7.17285L6.56105 16.5234C6.5864 16.6346 6.58644 16.7492 6.56105 16.8604C6.53567 16.9715 6.48566 17.0759 6.41457 17.165C6.34347 17.2542 6.25264 17.3265 6.14992 17.376C6.04719 17.4254 5.93483 17.4512 5.82082 17.4512C5.7068 17.4512 5.59444 17.4254 5.49172 17.376C5.38899 17.3265 5.29914 17.2542 5.22804 17.165C5.15695 17.0759 5.10597 16.9715 5.08058 16.8604C5.0552 16.7492 5.05523 16.6346 5.08058 16.5234Z" fill="currentColor"/>
  <path d="M4.8307 16.5234L4.8307 7.17285C4.81049 7.03104 4.82146 6.88642 4.86195 6.74902C4.90243 6.61162 4.97218 6.48515 5.06605 6.37695C5.15992 6.26876 5.27558 6.18153 5.40589 6.12207C5.53621 6.06261 5.67769 6.03223 5.82093 6.03223C5.96417 6.03223 6.10566 6.06261 6.23597 6.12207C6.36629 6.18153 6.48292 6.26876 6.57679 6.37695C6.67066 6.48515 6.73943 6.61162 6.77992 6.74902C6.8204 6.88642 6.83137 7.03104 6.81117 7.17285L6.81117 16.5234C6.8364 16.6679 6.82975 16.8154 6.79164 16.957C6.75352 17.0986 6.6848 17.2305 6.59046 17.3428C6.49613 17.455 6.37865 17.5455 6.24574 17.6074C6.11283 17.6693 5.96756 17.7012 5.82093 17.7012C5.67431 17.7012 5.53001 17.6693 5.3971 17.6074C5.26419 17.5455 5.14574 17.455 5.0514 17.3428C4.95707 17.2305 4.88834 17.0986 4.85023 16.957C4.81212 16.8154 4.80546 16.6679 4.8307 16.5234ZM6.31117 7.17285C6.31117 6.80785 6.08593 6.49902 5.82093 6.49902C5.55593 6.49902 5.3307 6.80785 5.3307 7.17285L5.3307 16.5234C5.3307 16.8904 5.55593 17.2002 5.82093 17.2002C6.08593 17.2002 6.31117 16.8904 6.31117 16.5234L6.31117 7.17285Z" fill="currentColor"/>
  <path d="M3.26171 15.2569C3.34463 15.1739 3.44339 15.1084 3.55175 15.0635C3.6601 15.0186 3.77626 14.9951 3.89354 14.9951C4.01083 14.9951 4.12699 15.0186 4.23534 15.0635C4.34369 15.1084 4.44148 15.1739 4.5244 15.2569L5.82421 16.5518L7.12499 15.2569C7.20744 15.1733 7.30571 15.1077 7.41405 15.0625C7.52239 15.0174 7.63848 14.9939 7.75585 14.9942C7.87344 14.9934 7.99006 15.0164 8.09862 15.0615C8.20719 15.1067 8.30532 15.1729 8.38768 15.2569C8.47149 15.3391 8.53782 15.4375 8.583 15.5459C8.62817 15.6543 8.65096 15.7703 8.65038 15.8877C8.65032 16.0052 8.62715 16.122 8.58202 16.2305C8.53689 16.3389 8.47098 16.4377 8.38768 16.5205L6.46093 18.4473C6.29243 18.614 6.06417 18.707 5.82714 18.707C5.5901 18.707 5.36282 18.614 5.19432 18.4473L3.26757 16.5205C3.10081 16.3524 3.00729 16.1245 3.00682 15.8877C3.00553 15.7709 3.02751 15.6552 3.07128 15.5469C3.11505 15.4386 3.17962 15.34 3.26171 15.2569Z" fill="currentColor"/>
</svg>
