<svg width="20" height="20" viewBox="0 0 20 20" fill="none" xmlns="http://www.w3.org/2000/svg">
<path d="M17.981 9.36798L13.964 11.58C13.903 11.598 13.8384 11.5999 13.7764 11.5855C13.7145 11.5712 13.6573 11.5411 13.6104 11.4981C13.5635 11.4551 13.5285 11.4008 13.5088 11.3403C13.4891 11.2798 13.4854 11.2153 13.498 11.153L13.964 9.50298C8.84 7.56298 3.31 9.15398 2.883 15.054C2.88611 15.0854 2.88222 15.117 2.87162 15.1467C2.86101 15.1764 2.84394 15.2034 2.82165 15.2256C2.79936 15.2479 2.7724 15.265 2.74272 15.2756C2.71303 15.2862 2.68137 15.2901 2.65 15.287H2.106C2.07217 15.2899 2.03813 15.2853 2.00624 15.2737C1.97435 15.2621 1.9454 15.2436 1.92139 15.2196C1.89739 15.1956 1.87892 15.1666 1.86728 15.1347C1.85564 15.1029 1.8511 15.0688 1.854 15.035C1.505 7.89598 8.491 5.00098 14.682 6.61198L15.128 4.96298C15.1572 4.89176 15.2069 4.83083 15.2709 4.78795C15.3348 4.74507 15.41 4.72217 15.487 4.72217C15.564 4.72217 15.6392 4.74507 15.7031 4.78795C15.7671 4.83083 15.8168 4.89176 15.846 4.96298L18.117 8.84398C18.1671 8.93183 18.1809 9.03575 18.1555 9.13362C18.1301 9.23149 18.0675 9.31558 17.981 9.36798Z" />
</svg>
