<svg width="5" height="7" viewBox="0 0 5 7" fill="none" xmlns="http://www.w3.org/2000/svg">
<path d="M4.68077 2.80991C4.88517 2.99296 5 3.24118 5 3.5C5 3.75882 4.88517 4.00704 4.68077 4.19009L1.86119 6.71422C1.7087 6.85068 1.51445 6.94361 1.30297 6.98126C1.0915 7.0189 0.872309 6.99957 0.673107 6.92571C0.473905 6.85185 0.303637 6.72678 0.183827 6.5663C0.0640175 6.40582 4.59814e-05 6.21715 2.13514e-07 6.02413L4.34181e-07 0.975868C4.6219e-05 0.782848 0.0640177 0.594175 0.183827 0.433698C0.303637 0.273221 0.473906 0.148148 0.673108 0.0742879C0.87231 0.000428182 1.0915 -0.0189009 1.30297 0.0187439C1.51445 0.0563888 1.7087 0.149317 1.86119 0.285782L4.68077 2.80991Z"/>
</svg>
