<svg width="21" height="21" viewBox="0 0 21 21" fill="none"
  xmlns="http://www.w3.org/2000/svg">
  <path d="M18.594 8.001C16.573 4.83 13.615 3.001 10.5 3.001C8.92464 3.01216 7.38361 3.46235 6.04999 4.301C4.57315 5.24536 3.32772 6.50992 2.40599 8.001C1.97583 8.7602 1.74973 9.6179 1.74973 10.4905C1.74973 11.3631 1.97583 12.2208 2.40599 12.98C4.42699 16.165 7.38499 17.98 10.5 17.98C12.0767 17.9696 13.6192 17.5194 14.954 16.68C16.4294 15.7352 17.6734 14.4706 18.594 12.98C19.0242 12.2208 19.2503 11.3631 19.2503 10.4905C19.2503 9.6179 19.0242 8.7602 18.594 8.001ZM10.5 14.035C9.80079 14.035 9.1173 13.8277 8.53595 13.4392C7.9546 13.0507 7.50151 12.4985 7.23398 11.8526C6.96646 11.2066 6.89651 10.4957 7.03299 9.80999C7.16947 9.12424 7.50625 8.49436 8.00072 8.00002C8.4952 7.50568 9.12517 7.16909 9.81096 7.0328C10.4968 6.89652 11.2076 6.96666 11.8535 7.23437C12.4994 7.50208 13.0514 7.95533 13.4397 8.53679C13.828 9.11825 14.0352 9.8018 14.035 10.501C14.0354 10.9653 13.9442 11.4251 13.7667 11.8541C13.5892 12.2831 13.3288 12.6729 13.0004 13.0011C12.6721 13.3294 12.2822 13.5897 11.8532 13.7671C11.4241 13.9445 10.9643 14.0355 10.5 14.035Z" fill="currentColor"/>
  <path d="M10.5 7.997C10.0058 7.99819 9.52306 8.14582 9.11273 8.42124C8.70239 8.69666 8.3829 9.08752 8.1946 9.54444C8.0063 10.0014 7.95764 10.5038 8.05478 10.9884C8.15192 11.473 8.3905 11.9178 8.74037 12.2669C9.09024 12.6159 9.5357 12.8534 10.0205 12.9494C10.5053 13.0454 11.0076 12.9955 11.4641 12.8061C11.9206 12.6167 12.3107 12.2963 12.5851 11.8853C12.8595 11.4743 13.006 10.9912 13.006 10.497C13.006 10.1682 12.9412 9.84261 12.8151 9.5389C12.6891 9.2352 12.5044 8.95933 12.2717 8.72711C12.0389 8.49488 11.7626 8.31086 11.4586 8.18558C11.1546 8.06029 10.8288 7.99621 10.5 7.997Z" fill="currentColor"/>
</svg>
