<svg width="6" height="26" viewBox="0 0 6 26" fill="none" xmlns="http://www.w3.org/2000/svg">
<path d="M-2.8213e-07 25C-3.06271e-07 25.5523 0.447715 26 1 26C1.55228 26 2 25.5523 2 25C2 24.4477 1.55228 24 1 24C0.447715 24 -2.57989e-07 24.4477 -2.8213e-07 25Z" fill="#E6E6E6"/>
<path d="M4 25C4 25.5523 4.44771 26 5 26C5.55228 26 6 25.5523 6 25C6 24.4477 5.55228 24 5 24C4.44772 24 4 24.4477 4 25Z" fill="#E6E6E6"/>
<path d="M-2.8213e-07 19C-3.06271e-07 19.5523 0.447715 20 1 20C1.55228 20 2 19.5523 2 19C2 18.4477 1.55228 18 1 18C0.447715 18 -2.57989e-07 18.4477 -2.8213e-07 19Z" fill="#E6E6E6"/>
<path d="M4 19C4 19.5523 4.44771 20 5 20C5.55228 20 6 19.5523 6 19C6 18.4477 5.55228 18 5 18C4.44772 18 4 18.4477 4 19Z" fill="#E6E6E6"/>
<path d="M-2.8213e-07 13C-3.06271e-07 13.5523 0.447715 14 1 14C1.55228 14 2 13.5523 2 13C2 12.4477 1.55228 12 1 12C0.447715 12 -2.57989e-07 12.4477 -2.8213e-07 13Z" fill="#E6E6E6"/>
<path d="M4 13C4 13.5523 4.44771 14 5 14C5.55228 14 6 13.5523 6 13C6 12.4477 5.55228 12 5 12C4.44772 12 4 12.4477 4 13Z" fill="#E6E6E6"/>
<path d="M-2.8213e-07 7C-3.06271e-07 7.55228 0.447715 8 1 8C1.55228 8 2 7.55228 2 7C2 6.44772 1.55228 6 1 6C0.447715 6 -2.57989e-07 6.44772 -2.8213e-07 7Z" fill="#E6E6E6"/>
<path d="M4 7C4 7.55228 4.44771 8 5 8C5.55228 8 6 7.55228 6 7C6 6.44772 5.55228 6 5 6C4.44772 6 4 6.44772 4 7Z" fill="#E6E6E6"/>
<path d="M-2.8213e-07 1C-3.06271e-07 1.55228 0.447715 2 1 2C1.55228 2 2 1.55228 2 1C2 0.447715 1.55228 -1.95703e-08 1 -4.37114e-08C0.447715 -6.78525e-08 -2.57989e-07 0.447715 -2.8213e-07 1Z" fill="#E6E6E6"/>
<path d="M4 1C4 1.55228 4.44771 2 5 2C5.55228 2 6 1.55228 6 1C6 0.447715 5.55228 -1.95703e-08 5 -4.37114e-08C4.44772 -6.78525e-08 4 0.447715 4 1Z" fill="#E6E6E6"/>
</svg>
