<svg width="11" height="11" viewBox="0 0 11 11" fill="none"
  xmlns="http://www.w3.org/2000/svg">
  <g clip-path="url(#clip0_3609_61728)">
    <path d="M4.97266 1.47301C5.66489 1.47301 6.34158 1.67828 6.91715 2.06286C7.49272 2.44745 7.94133 2.99407 8.20623 3.63362C8.47114 4.27316 8.54045 4.97689 8.4054 5.65582C8.27036 6.33476 7.93701 6.9584 7.44753 7.44788C6.95805 7.93736 6.33441 8.27071 5.65547 8.40576C4.97654 8.5408 4.27281 8.47149 3.63326 8.20659C2.99372 7.94168 2.4471 7.49307 2.06251 6.9175C1.67793 6.34193 1.47266 5.66524 1.47266 4.97301C1.47451 4.04532 1.84385 3.15615 2.49983 2.50018C3.1558 1.8442 4.04497 1.47486 4.97266 1.47301ZM4.97266 7.47801C5.4669 7.47801 5.95005 7.33151 6.36106 7.05703C6.77207 6.78254 7.09251 6.39239 7.28187 5.93587C7.47124 5.47934 7.52104 4.97693 7.42498 4.49212C7.32892 4.0073 7.09131 3.56184 6.74218 3.21201C6.39305 2.86218 5.94806 2.62368 5.46344 2.52666C4.97882 2.42963 4.47631 2.47842 4.01941 2.66688C3.56251 2.85533 3.17171 3.17498 2.89641 3.58545C2.62111 3.99591 2.47364 4.47877 2.47266 4.97301C2.47292 5.63643 2.73624 6.27268 3.20488 6.74225C3.67352 7.21183 4.30924 7.47642 4.97266 7.47801Z" fill="currentColor"/>
    <path d="M9.02763 9.52699C8.96192 9.52711 8.89684 9.51428 8.8361 9.48923C8.77536 9.46417 8.72015 9.4274 8.67363 9.38099L7.51163 8.21899C7.41789 8.12523 7.36523 7.99808 7.36523 7.86549C7.36523 7.73291 7.41789 7.60576 7.51163 7.51199C7.60539 7.41826 7.73255 7.3656 7.86513 7.3656C7.99771 7.3656 8.12486 7.41826 8.21863 7.51199L9.38163 8.67399C9.45173 8.74392 9.4995 8.83309 9.51887 8.9302C9.53823 9.02731 9.52833 9.12798 9.49041 9.21946C9.45249 9.31093 9.38827 9.38909 9.30588 9.44401C9.22349 9.49894 9.12665 9.52817 9.02763 9.52799V9.52699Z" fill="currentColor"/>
  </g>
  <defs>
    <clipPath id="clip0_3609_61728">
      <rect width="11" height="11" fill="white"/>
    </clipPath>
  </defs>
</svg>
