<svg width="20" height="20" viewBox="0 0 20 20" fill="none" xmlns="http://www.w3.org/2000/svg">
<g clip-path="url(#clip0_1617_2144)">
<path d="M16.0724 17.277H3.44638C3.3072 17.2759 3.17401 17.2202 3.07559 17.1218C2.97718 17.0233 2.92142 16.8902 2.92038 16.751C2.92142 16.6118 2.97718 16.4786 3.07559 16.3802C3.17401 16.2818 3.3072 16.226 3.44638 16.225H16.0724C16.2116 16.226 16.3447 16.2818 16.4432 16.3802C16.5416 16.4786 16.5973 16.6118 16.5984 16.751C16.5973 16.8902 16.5416 17.0233 16.4432 17.1218C16.3447 17.2202 16.2116 17.2759 16.0724 17.277V17.277Z" />
<path d="M5.26938 7.19797H4.14538C3.95972 7.19797 3.78168 7.27172 3.6504 7.40299C3.51913 7.53427 3.44538 7.71232 3.44538 7.89797V13.946C3.44538 14.1316 3.51913 14.3097 3.6504 14.4409C3.78168 14.5722 3.95972 14.646 4.14538 14.646H5.26938C5.45503 14.646 5.63307 14.5722 5.76435 14.4409C5.89563 14.3097 5.96938 14.1316 5.96938 13.946V7.89797C5.96938 7.71232 5.89563 7.53427 5.76435 7.40299C5.63307 7.27172 5.45503 7.19797 5.26938 7.19797V7.19797Z" />
<path d="M10.3214 4.95996H9.19738C9.01172 4.95996 8.83368 5.03371 8.7024 5.16499C8.57113 5.29626 8.49738 5.47431 8.49738 5.65996V13.946C8.49738 14.1316 8.57113 14.3097 8.7024 14.4409C8.83368 14.5722 9.01172 14.646 9.19738 14.646H10.3214C10.507 14.646 10.6851 14.5722 10.8164 14.4409C10.9476 14.3097 11.0214 14.1316 11.0214 13.946V5.65996C11.0214 5.47431 10.9476 5.29626 10.8164 5.16499C10.6851 5.03371 10.507 4.95996 10.3214 4.95996V4.95996Z" />
<path d="M15.3714 2.72195H14.2474C14.0617 2.72195 13.8837 2.7957 13.7524 2.92698C13.6211 3.05826 13.5474 3.2363 13.5474 3.42195V13.945C13.5474 14.1306 13.6211 14.3087 13.7524 14.4399C13.8837 14.5712 14.0617 14.645 14.2474 14.645H15.3714C15.557 14.645 15.7351 14.5712 15.8663 14.4399C15.9976 14.3087 16.0714 14.1306 16.0714 13.945V3.42195C16.0714 3.2363 15.9976 3.05826 15.8663 2.92698C15.7351 2.7957 15.557 2.72195 15.3714 2.72195V2.72195Z" />
</g>
<defs>
<clipPath id="clip0_1617_2144">
<rect width="19.998" height="19.998" fill="white" transform="translate(-0.239624)"/>
</clipPath>
</defs>
</svg>
