<svg width="24" height="24" viewBox="0 0 24 24" fill="none"
  xmlns="http://www.w3.org/2000/svg">
  <path d="M8.745 15.3921L6.57643 5.68602L8.65489 4.48602L15.9754 11.2176L14.265 12.2051L12.7514 10.7834L9.9507 12.4004L10.4337 14.4171L8.745 15.3921ZM9.48618 10.6999L11.5084 9.53237L8.4137 6.50628L9.48618 10.6999Z" fill="currentColor"/>
  <path d="M18.3354 15.2566L10.2376 19.9319C10.1539 20.0086 10.0543 20.0652 9.94566 20.0982C9.83706 20.1311 9.72192 20.1391 9.60975 20.1218C9.49759 20.1046 9.39109 20.0629 9.29742 19.9988C9.20375 19.9348 9.12583 19.8501 9.06908 19.7518C9.01234 19.6535 8.97795 19.5437 8.9693 19.4305C8.96064 19.3173 8.9773 19.2034 9.01845 19.0977C9.05959 18.9919 9.12454 18.897 9.20738 18.8194C9.29022 18.7419 9.38909 18.6839 9.49733 18.6498L17.5952 13.9745C17.6788 13.897 17.778 13.8396 17.887 13.806C17.9959 13.7724 18.1113 13.7635 18.2241 13.7805C18.3368 13.7975 18.4449 13.84 18.5391 13.9043C18.6333 13.9685 18.7117 14.0529 18.7687 14.1517C18.8257 14.2504 18.8596 14.3606 18.8682 14.4743C18.8767 14.588 18.859 14.702 18.8173 14.8081C18.7757 14.9142 18.7108 15.0106 18.6272 15.0882C18.5436 15.1657 18.4444 15.223 18.3354 15.2566Z" fill="currentColor"/>
  <path d="M18.4603 15.473L10.3625 20.1483C10.2498 20.2367 10.1191 20.2995 9.97983 20.3331C9.84059 20.3668 9.69619 20.3696 9.55556 20.3424C9.41492 20.3152 9.28155 20.2587 9.1649 20.1756C9.04824 20.0924 8.95119 19.9851 8.87957 19.861C8.80795 19.737 8.76352 19.5993 8.74986 19.4567C8.7362 19.3141 8.75342 19.1695 8.80019 19.0341C8.84695 18.8987 8.92209 18.7759 9.02085 18.6721C9.1196 18.5684 9.23935 18.4866 9.37227 18.4332L17.4701 13.7579C17.5826 13.6638 17.7137 13.5958 17.8554 13.558C17.9971 13.5202 18.1457 13.5138 18.29 13.5393C18.4344 13.5649 18.5715 13.6214 18.6916 13.7056C18.8117 13.7897 18.9119 13.8996 18.9852 14.0266C19.0585 14.1535 19.1031 14.2944 19.1159 14.4405C19.1287 14.5866 19.1096 14.7344 19.0596 14.8722C19.0095 15.01 18.9296 15.1355 18.8261 15.2393C18.7225 15.3431 18.598 15.4226 18.4603 15.473ZM9.62227 18.8662C9.30617 19.0487 9.15133 19.3981 9.28383 19.6276C9.41633 19.8571 9.7964 19.8978 10.1125 19.7153L18.2103 15.04C18.5282 14.8565 18.6838 14.5066 18.5513 14.2771C18.4188 14.0476 18.0379 14.0074 17.7201 14.1909L9.62227 18.8662Z" fill="currentColor"/>
  <path d="M18.1484 17.4653C18.0351 17.4349 17.929 17.3821 17.8359 17.3107C17.7429 17.2394 17.6645 17.1505 17.6058 17.0489C17.5472 16.9474 17.5095 16.835 17.4941 16.7187C17.4788 16.6025 17.4867 16.485 17.5171 16.3717L17.9886 14.5986L16.2168 14.1196C16.1032 14.0899 15.9972 14.0376 15.9039 13.9664C15.8107 13.8951 15.7323 13.8063 15.6738 13.7046C15.6144 13.6031 15.576 13.4906 15.5608 13.374C15.5457 13.2574 15.5539 13.1393 15.5854 13.026C15.6148 12.9123 15.6668 12.8057 15.7381 12.7123C15.8094 12.619 15.8984 12.5413 16.0004 12.4831C16.1022 12.4244 16.215 12.3861 16.3315 12.3709C16.4479 12.3558 16.5664 12.3635 16.6798 12.3942L19.3118 13.0994C19.5404 13.162 19.7351 13.3131 19.8537 13.5184C19.9722 13.7237 20.0052 13.9671 19.9451 14.1963L19.2399 16.8283C19.1776 17.0568 19.027 17.2518 18.8222 17.3706C18.7217 17.4301 18.6105 17.4689 18.4948 17.4851C18.3791 17.5014 18.2614 17.4948 18.1484 17.4653Z" fill="currentColor"/>
</svg>
