<svg width="20" height="20" viewBox="0 0 20 20" fill="none"
  xmlns="http://www.w3.org/2000/svg">
  <path d="M1.66211 18.3358V1.66315H11.1874V18.3274H4.04211V18.3358H1.66211ZM8.81053 15.9474V4.04315H4.04211V15.9474H8.81053Z" fill="currentColor"/>
  <path d="M13.1065 14.8821C13.2672 14.7248 13.4832 14.6367 13.7081 14.6367C13.933 14.6367 14.1489 14.7248 14.3096 14.8821L14.8854 15.4579V2.45576C14.88 2.25217 14.9554 2.0547 15.095 1.90642C15.2346 1.75813 15.4271 1.67106 15.6307 1.66418C15.8342 1.67106 16.0266 1.75817 16.1661 1.90648C16.3055 2.0548 16.3806 2.25227 16.3749 2.45576V15.4537L16.9528 14.8779C17.0316 14.7989 17.1253 14.7363 17.2285 14.6939C17.3317 14.6514 17.4423 14.6299 17.5539 14.6305C17.6654 14.6298 17.776 14.6519 17.8788 14.6953C17.9816 14.7387 18.0745 14.8026 18.1517 14.8831C18.2323 14.9609 18.2961 15.0544 18.3391 15.1578C18.3822 15.2611 18.4037 15.3722 18.4023 15.4842C18.4029 15.596 18.3809 15.7067 18.3377 15.8098C18.2945 15.9129 18.2309 16.0063 18.1507 16.0842L16.2328 18.0084C16.0726 18.167 15.8562 18.256 15.6307 18.256C15.4052 18.256 15.1888 18.167 15.0286 18.0084L13.1065 16.0852C13.0276 16.0066 12.9651 15.913 12.9227 15.81C12.8802 15.707 12.8586 15.5966 12.8591 15.4852C12.8587 15.2594 12.9476 15.0426 13.1065 14.8821Z" fill="currentColor"/>
  <path opacity="0.4" d="M7.61543 8.80945H5.23438V11.1905H7.61543V8.80945Z" fill="currentColor"/>
</svg>
