<svg width="20" height="20" viewBox="0 0 20 20" fill="none"
  xmlns="http://www.w3.org/2000/svg">
  <path d="M1.66331 1.66211L18.3359 1.66211V11.1874L1.67383 11.1874V4.04211H1.66331V1.66211ZM4.05383 8.81053H15.9559V4.04211L4.05383 4.04211V8.81053Z" fill="currentColor"/>
  <path d="M14.962 18.1558C14.8048 17.9953 14.7167 17.7795 14.7167 17.5548C14.7167 17.3301 14.8048 17.1143 14.962 16.9537L15.5378 16.3769H2.53572C2.33213 16.3823 2.13466 16.307 1.98637 16.1674C1.83809 16.0278 1.75102 15.8352 1.74414 15.6316C1.75101 15.4282 1.83812 15.2357 1.98644 15.0963C2.13476 14.9568 2.33223 14.8817 2.53572 14.8874H15.5336L14.9578 14.3095C14.8791 14.2305 14.8167 14.1368 14.7743 14.0336C14.7319 13.9305 14.7102 13.82 14.7105 13.7085C14.7097 13.5969 14.7317 13.4863 14.7752 13.3835C14.8186 13.2807 14.8826 13.1878 14.9631 13.1106C15.0409 13.03 15.1344 12.9663 15.2377 12.9232C15.3411 12.8801 15.4522 12.8586 15.5641 12.8601C15.676 12.8596 15.7868 12.8817 15.8899 12.9251C15.993 12.9685 16.0863 13.0323 16.1641 13.1127L18.0884 15.0295C18.2467 15.1899 18.3356 15.4062 18.3356 15.6316C18.3356 15.857 18.2467 16.0734 18.0884 16.2337L16.1652 18.1558C16.0865 18.2347 15.993 18.2972 15.89 18.3396C15.787 18.3821 15.6766 18.4037 15.5652 18.4032C15.3393 18.4039 15.1224 18.3149 14.962 18.1558Z" fill="#currentColor"/>
  <path opacity="0.4" d="M11.1895 7.61579V5.23474H8.8084V7.61579H11.1895Z" fill="currentColor"/>
</svg>
