<svg width="10" height="11" viewBox="0 0 10 11" fill="none" xmlns="http://www.w3.org/2000/svg">
<g id="Icon">
<g id="translate">
<path id="Polygon 1027" d="M4.64352 3.74276C4.73842 3.6486 4.86711 3.5957 5.0013 3.5957C5.13549 3.5957 5.26419 3.6486 5.35909 3.74276L8.18596 6.54737C8.25686 6.61755 8.30518 6.70704 8.32481 6.80449C8.34445 6.90194 8.33451 7.00299 8.29626 7.09483C8.25801 7.18668 8.19316 7.26519 8.10993 7.32045C8.02669 7.3757 7.92882 7.40521 7.82868 7.40523L2.17494 7.40523C2.07472 7.4054 1.9767 7.37604 1.89331 7.32087C1.80992 7.26569 1.74492 7.18718 1.70654 7.0953C1.66816 7.00341 1.65814 6.90228 1.67774 6.80474C1.69734 6.70719 1.74569 6.61761 1.81665 6.54737L4.64352 3.74276Z"/>
</g>
</g>
</svg>
