<svg xmlns="http://www.w3.org/2000/svg" width="16.934" height="16.934" viewBox="0 0 16.934 16.934">
  <g id="vuesax_outline_more" data-name="vuesax/outline/more" transform="translate(-556 -190)">
    <g id="more" transform="translate(556 190)">
      <path id="Vector" d="M1.94,3.881a1.94,1.94,0,1,1,1.94-1.94A1.939,1.939,0,0,1,1.94,3.881Zm0-2.822a.882.882,0,1,0,.882.882A.882.882,0,0,0,1.94,1.058Z" transform="translate(1.588 6.526)" fill="#a7b0b5"/>
      <path id="Vector-2" data-name="Vector" d="M1.94,3.881a1.94,1.94,0,1,1,1.94-1.94A1.939,1.939,0,0,1,1.94,3.881Zm0-2.822a.882.882,0,1,0,.882.882A.882.882,0,0,0,1.94,1.058Z" transform="translate(11.465 6.526)" fill="#a7b0b5"/>
      <path id="Vector-3" data-name="Vector" d="M1.94,3.881a1.94,1.94,0,1,1,1.94-1.94A1.939,1.939,0,0,1,1.94,3.881Zm0-2.822a.882.882,0,1,0,.882.882A.882.882,0,0,0,1.94,1.058Z" transform="translate(6.526 6.526)" fill="#a7b0b5"/>
      <path id="Vector-4" data-name="Vector" d="M0,0H16.934V16.934H0Z" fill="none" opacity="0"/>
    </g>
  </g>
</svg>
