<svg width="12" height="12" viewBox="0 0 12 12" fill="none"
  xmlns="http://www.w3.org/2000/svg">
  <path d="M5.75879 10.2004C5.63149 10.2004 5.50945 10.1498 5.41943 10.0598C5.32942 9.96975 5.27881 9.84723 5.27881 9.71992V6.71992H2.27881C2.1515 6.71992 2.02947 6.66932 1.93945 6.5793C1.84944 6.48928 1.79883 6.36774 1.79883 6.24043V5.75899C1.79883 5.63168 1.84944 5.50916 1.93945 5.41914C2.02947 5.32913 2.1515 5.27852 2.27881 5.27852H5.27881V2.27852C5.27881 2.15121 5.32942 2.02967 5.41943 1.93965C5.50945 1.84963 5.63149 1.79903 5.75879 1.79903H6.24072C6.36795 1.79929 6.48987 1.84969 6.57983 1.93965C6.66979 2.02961 6.72044 2.1513 6.7207 2.27852V5.27852H9.7207C9.84793 5.27878 9.96985 5.33016 10.0598 5.42012C10.1498 5.51008 10.2004 5.63176 10.2007 5.75899V6.24043C10.2004 6.36766 10.1498 6.48934 10.0598 6.5793C9.96985 6.66926 9.84793 6.71966 9.7207 6.71992H6.7207V9.71992C6.72044 9.84715 6.66979 9.96883 6.57983 10.0588C6.48987 10.1488 6.36795 10.2001 6.24072 10.2004H5.75879Z" fill="inherit"/>
</svg>
