<svg xmlns="http://www.w3.org/2000/svg" width="25.004" height="25.004" viewBox="0 0 25.004 25.004">
  <g id="vuesax_bold_layer" data-name="vuesax/bold/layer" transform="translate(-620 -380)">
    <g id="layer" transform="translate(620 380)">
      <path id="Vector" d="M17.128,3.016,11.023.3A4.316,4.316,0,0,0,7.876.3L1.771,3.016C.229,3.7,0,4.641,0,5.141S.229,6.579,1.771,7.267L7.876,9.986a4,4,0,0,0,1.573.3,4,4,0,0,0,1.573-.3l6.105-2.719C18.67,6.579,18.9,5.642,18.9,5.141S18.68,3.7,17.128,3.016Z" transform="translate(3.053 2.078)" />
      <path id="Vector-2" data-name="Vector" d="M10.085,7.074a2.947,2.947,0,0,1-1.156-.24L1.907,3.709A3.434,3.434,0,0,1,0,.771a.771.771,0,0,1,1.542,0,1.891,1.891,0,0,0,.99,1.521L9.554,5.418a1.32,1.32,0,0,0,1.052,0l7.022-3.125a1.876,1.876,0,0,0,.99-1.521.771.771,0,1,1,1.542,0,3.447,3.447,0,0,1-1.907,2.938L11.231,6.834A2.86,2.86,0,0,1,10.085,7.074Z" transform="translate(2.417 10.679)" />
      <path id="Vector-3" data-name="Vector" d="M10.085,7.074a2.947,2.947,0,0,1-1.156-.24L1.907,3.709A3.214,3.214,0,0,1,0,.771a.771.771,0,0,1,1.542,0,1.666,1.666,0,0,0,.99,1.521L9.554,5.418a1.32,1.32,0,0,0,1.052,0l7.022-3.125a1.672,1.672,0,0,0,.99-1.521.771.771,0,1,1,1.542,0,3.225,3.225,0,0,1-1.907,2.938L11.231,6.834A2.86,2.86,0,0,1,10.085,7.074Z" transform="translate(2.417 15.846)" />
      <path id="Vector-4" data-name="Vector" d="M0,0H25V25H0Z" fill="none" opacity="0"/>
    </g>
  </g>
</svg>
