<svg width="17" height="17" viewBox="0 0 17 17" fill="none" xmlns="http://www.w3.org/2000/svg">
<path d="M14.2382 6.53063C12.956 6.53063 12.4324 5.62348 13.0697 4.51239C13.1575 4.35917 13.2142 4.19016 13.2366 4.01503C13.259 3.83989 13.2466 3.66205 13.2003 3.49168C13.1539 3.32131 13.0744 3.16175 12.9663 3.02212C12.8583 2.88248 12.7238 2.76552 12.5705 2.67791L11.3478 1.97683C11.0773 1.81953 10.7554 1.77592 10.4527 1.85557C10.15 1.93521 9.89131 2.13162 9.73323 2.40173L9.65462 2.53557C9.5717 2.77878 9.41476 2.98995 9.2058 3.13949C8.99683 3.28902 8.74631 3.36943 8.48935 3.36943C8.23239 3.36943 7.98187 3.28902 7.7729 3.13949C7.56394 2.98995 7.407 2.77878 7.32408 2.53557L7.24654 2.40173C7.1702 2.26782 7.06798 2.15044 6.94585 2.05642C6.82371 1.9624 6.68409 1.89362 6.53511 1.85408C6.38614 1.81454 6.23078 1.80502 6.0781 1.8261C5.92541 1.84717 5.77844 1.89841 5.64575 1.97683L4.41993 2.67791C4.11058 2.85702 3.88473 3.15133 3.79177 3.49649C3.69881 3.84165 3.74631 4.20958 3.92387 4.51982C4.56864 5.62454 4.0439 6.53169 2.76178 6.53169C2.40555 6.53309 2.06431 6.67522 1.81242 6.92712C1.56052 7.17901 1.41839 7.52025 1.41699 7.87648L1.41699 9.12355C1.41811 9.48014 1.56027 9.82181 1.81242 10.074C2.06457 10.3261 2.40625 10.4683 2.76284 10.4694C4.04496 10.4694 4.56864 11.3765 3.92493 12.4876C3.83704 12.6407 3.78016 12.8095 3.75752 12.9845C3.73489 13.1595 3.74695 13.3373 3.79301 13.5076C3.83908 13.678 3.91824 13.8376 4.02599 13.9773C4.13374 14.1171 4.26796 14.2342 4.42099 14.3221L5.64681 15.0232C5.91737 15.1805 6.23927 15.2241 6.54193 15.1445C6.84459 15.0648 7.10332 14.8684 7.26141 14.5983L7.33895 14.4634C7.42187 14.2202 7.57881 14.009 7.78778 13.8595C7.99674 13.7099 8.24726 13.6295 8.50422 13.6295C8.76118 13.6295 9.0117 13.7099 9.22067 13.8595C9.42963 14.009 9.58657 14.2202 9.66949 14.4634L9.74704 14.5983C9.90512 14.8684 10.1639 15.0648 10.4665 15.1445C10.7692 15.2241 11.0911 15.1805 11.3616 15.0232L12.5875 14.3221C12.8963 14.1444 13.122 13.8515 13.215 13.5075C13.308 13.1636 13.2607 12.7968 13.0835 12.4876C12.4387 11.3755 12.9635 10.4694 14.2456 10.4694C14.6022 10.4683 14.9439 10.3261 15.196 10.074C15.4482 9.82181 15.5903 9.48014 15.5914 9.12355V7.87648C15.5876 7.51946 15.4435 7.17828 15.1903 6.92651C14.9372 6.67474 14.5952 6.53256 14.2382 6.53063V6.53063ZM8.5021 10.8019C8.04679 10.8021 7.60164 10.6673 7.22296 10.4145C6.84428 10.1617 6.54908 9.80223 6.3747 9.38163C6.20031 8.96104 6.15457 8.49818 6.24327 8.05159C6.33197 7.60501 6.55112 7.19475 6.873 6.87273C7.19487 6.5507 7.60503 6.33136 8.05157 6.24246C8.49812 6.15356 8.961 6.19908 9.38167 6.37327C9.80235 6.54746 10.1619 6.8425 10.4149 7.22106C10.6679 7.59962 10.8029 8.0447 10.8029 8.50001C10.8018 9.11034 10.5587 9.69534 10.1271 10.1268C9.69541 10.5583 9.1103 10.801 8.49997 10.8019H8.5021Z"/>
</svg>
