<svg width="20" height="20" viewBox="0 0 20 20" fill="none" xmlns="http://www.w3.org/2000/svg">
<path d="M15.3185 3.724H4.76851C3.66394 3.724 2.76851 4.61943 2.76851 5.724V16.274C2.76851 17.3786 3.66394 18.274 4.76851 18.274H15.3185C16.4231 18.274 17.3185 17.3786 17.3185 16.274V5.724C17.3185 4.61943 16.4231 3.724 15.3185 3.724Z" fill="white"/>
<path d="M15.3185 4.224H4.76851C3.94008 4.224 3.26851 4.89557 3.26851 5.724V16.274C3.26851 17.1024 3.94008 17.774 4.76851 17.774H15.3185C16.1469 17.774 16.8185 17.1024 16.8185 16.274V5.724C16.8185 4.89557 16.1469 4.224 15.3185 4.224Z" stroke="currentColor"/>
<path d="M4.76851 3.724H15.3185C15.8489 3.724 16.3576 3.93471 16.7327 4.30979C17.1078 4.68486 17.3185 5.19357 17.3185 5.724V7.361H2.76851V5.724C2.76851 5.19357 2.97922 4.68486 3.35429 4.30979C3.72936 3.93471 4.23807 3.724 4.76851 3.724V3.724Z" fill="currentColor"/>
<path d="M10.5455 3.99698H9.54551V18.002H10.5455V3.99698Z" fill="currentColor"/>
<path d="M3.0425 11.501V12.501H17.0475V11.501H3.0425Z" fill="currentColor"/>
</svg>
