<svg width="20" height="20" viewBox="0 0 20 20" fill="none"
  xmlns="http://www.w3.org/2000/svg">
  <g clip-path="url(#clip0_3861_61078)">
    <path d="M4 4.46795V5.15795C4.00937 5.37794 4.10515 5.58535 4.26655 5.73514C4.42795 5.88493 4.64192 5.96499 4.862 5.95795L16.044 5.93295C16.2645 5.94028 16.4791 5.86043 16.6412 5.71069C16.8033 5.56095 16.8999 5.35338 16.91 5.13295V4.43895C16.8986 4.21982 16.8013 4.01402 16.6392 3.86614C16.4771 3.71827 16.2632 3.64023 16.044 3.64895L4.862 3.67795C4.64322 3.66952 4.42996 3.74777 4.26856 3.8957C4.10715 4.04362 4.01064 4.24927 4 4.46795V4.46795Z" fill="currentColor"/>
    <path d="M4 8.00798V8.69798C4.00937 8.91798 4.10515 9.12539 4.26655 9.27518C4.42795 9.42497 4.64192 9.50503 4.862 9.49798L9.589 9.47298C9.80955 9.48032 10.0241 9.40047 10.1862 9.25073C10.3483 9.10099 10.4449 8.89342 10.455 8.67298V7.97898C10.4436 7.75986 10.3463 7.55406 10.1842 7.40618C10.0221 7.25831 9.80825 7.18027 9.589 7.18898L4.862 7.21798C4.64322 7.20956 4.42996 7.28781 4.26856 7.43573C4.10715 7.58366 4.01064 7.7893 4 8.00798V8.00798Z" fill="currentColor"/>
    <path d="M4 15.1449V15.8349C4.00937 16.0549 4.10515 16.2624 4.26655 16.4121C4.42795 16.5619 4.64192 16.642 4.862 16.6349L9.589 16.6099C9.80955 16.6173 10.0241 16.5374 10.1862 16.3877C10.3483 16.238 10.4449 16.0304 10.455 15.8099V15.1159C10.4436 14.8968 10.3463 14.691 10.1842 14.5431C10.0221 14.3953 9.80825 14.3172 9.589 14.3259L4.862 14.3549C4.64322 14.3465 4.42996 14.4248 4.26856 14.5727C4.10715 14.7206 4.01064 14.9263 4 15.1449V15.1449Z" fill="currentColor"/>
    <path d="M4 11.512V12.202C4.00937 12.4219 4.10515 12.6294 4.26655 12.7791C4.42795 12.9289 4.64192 13.009 4.862 13.002L13.278 12.977C13.4985 12.9843 13.7131 12.9044 13.8752 12.7547C14.0373 12.605 14.1339 12.3974 14.144 12.177V11.483C14.1326 11.2638 14.0353 11.058 13.8732 10.9102C13.7111 10.7623 13.4972 10.6842 13.278 10.693L4.862 10.722C4.64322 10.7135 4.42996 10.7918 4.26856 10.9397C4.10715 11.0876 4.01064 11.2933 4 11.512V11.512Z" fill="currentColor"/>
  </g>
  <defs>
    <clipPath id="clip0_3861_61078">
      <rect width="20" height="20" fill="white"/>
    </clipPath>
  </defs>
</svg>
