<svg width="20" height="20" viewBox="0 0 20 20" fill="none" xmlns="http://www.w3.org/2000/svg">
<path d="M3.42736 2.13397H18.1984C18.3804 2.13397 18.5274 2.33997 18.5274 2.59497V6.06597H3.09836V2.59497C3.09836 2.33997 3.24536 2.13397 3.42736 2.13397Z" fill="#51C2F0"/>
<path opacity="0.3" d="M3.09836 10.012H18.5274V13.924H3.09836V10.012Z" fill="#51C2F0"/>
<path d="M3.58935 2.41898C3.4807 2.41924 3.37657 2.46252 3.29973 2.53936C3.2229 2.61619 3.17962 2.72032 3.17935 2.82898V17.194C3.17962 17.3026 3.2229 17.4068 3.29973 17.4836C3.37657 17.5604 3.4807 17.6037 3.58935 17.604H17.9544C18.063 17.6037 18.1671 17.5604 18.244 17.4836C18.3208 17.4068 18.3641 17.3026 18.3644 17.194V2.82898C18.3641 2.72032 18.3208 2.61619 18.244 2.53936C18.1671 2.46252 18.063 2.41924 17.9544 2.41898H3.58935ZM3.58935 1.80298H17.9544C18.0891 1.80298 18.2225 1.82952 18.347 1.88108C18.4715 1.93264 18.5846 2.00821 18.6798 2.10349C18.7751 2.19876 18.8507 2.31187 18.9023 2.43635C18.9538 2.56083 18.9804 2.69424 18.9804 2.82898V17.194C18.9804 17.4661 18.8723 17.7271 18.6798 17.9195C18.4874 18.1119 18.2265 18.22 17.9544 18.22H3.58935C3.31724 18.22 3.05628 18.1119 2.86386 17.9195C2.67145 17.7271 2.56335 17.4661 2.56335 17.194V2.82898C2.56335 2.55687 2.67145 2.2959 2.86386 2.10349C3.05628 1.91107 3.31724 1.80298 3.58935 1.80298V1.80298Z" fill="#50585D"/>
<path d="M18.9793 6.39496H2.56332V5.73798H18.9793V6.39496Z" fill="#50585D"/>
<path d="M18.9793 10.33H2.56332V9.67297H18.9793V10.33Z" fill="#50585D"/>
<path d="M18.9793 14.2749H2.56332V13.618H18.9793V14.2749Z" fill="#50585D"/>
<path d="M3.58936 6.72198H18.0364V9.34898H3.58936V6.72198Z" fill="white"/>
<path d="M3.58936 14.599H18.0364V16.918C18.0364 16.9997 18.0039 17.078 17.9461 17.1358C17.8884 17.1935 17.81 17.226 17.7284 17.226H3.89736C3.81567 17.226 3.73733 17.1935 3.67957 17.1358C3.62181 17.078 3.58936 16.9997 3.58936 16.918V14.599Z" fill="white"/>
</svg>
