<svg id="vuesax_bold_document-text" data-name="vuesax/bold/document-text" xmlns="http://www.w3.org/2000/svg" width="20.001" height="20.001" viewBox="0 0 20.001 20.001">
  <g id="document-text">
    <path id="Vector" d="M0,0H20V20H0Z" fill="none" opacity="0"/>
    <path id="Vector-2" data-name="Vector" d="M10.834,0H4.167C1.25,0,0,1.667,0,4.167V12.5c0,2.5,1.25,4.167,4.167,4.167h6.667C13.751,16.667,15,15,15,12.5V4.167C15,1.667,13.751,0,10.834,0ZM4.167,8.542H7.5a.625.625,0,0,1,0,1.25H4.167a.625.625,0,0,1,0-1.25Zm6.667,4.584H4.167a.625.625,0,1,1,0-1.25h6.667a.625.625,0,0,1,0,1.25Zm2.083-7.084H11.251A2.29,2.29,0,0,1,8.959,3.75V2.083a.625.625,0,0,1,1.25,0V3.75a1.042,1.042,0,0,0,1.042,1.042h1.667a.625.625,0,1,1,0,1.25Z" transform="translate(2.5 1.667)"/>
    <path id="Vector-3" data-name="Vector" d="M0,0H20V20H0Z" transform="translate(20.001 20.001) rotate(180)" fill="none" opacity="0"/>
  </g>
</svg>
