<svg width="25" height="24" viewBox="0 0 25 24" fill="none" xmlns="http://www.w3.org/2000/svg">
<path d="M16.7698 9.03364L10.5305 2.90545L9.7912 2.18307C9.67186 2.06585 9.51 2 9.34122 2C9.17244 2 9.01058 2.06585 8.89123 2.18307C8.77189 2.30029 8.70484 2.45927 8.70484 2.62504C8.70484 2.79081 8.77189 2.9498 8.89123 3.06702L9.62955 3.79218L4.85081 8.48303C4.36624 8.89486 4.06159 9.47403 4 10.1005C4.01391 10.4301 4.0966 10.7534 4.24296 11.0503C4.38931 11.3472 4.59621 11.6115 4.85081 11.8266L8.25407 15.1693C8.45312 15.4274 8.71034 15.6367 9.00557 15.7809C9.3008 15.925 9.62601 16 9.9557 16C10.2854 16 10.6106 15.925 10.9058 15.7809C11.201 15.6367 11.4583 15.4274 11.6573 15.1693L16.7688 10.1488C16.8495 10.0695 16.9117 9.974 16.9512 9.86885C16.9906 9.76371 17.0065 9.65141 16.9976 9.53968C16.9861 9.34956 16.9053 9.16988 16.7698 9.03364Z"/>
<path d="M19.3125 19H4.6875C3.75552 19 3 19.6716 3 20.5C3 21.3284 3.75552 22 4.6875 22H19.3125C20.2445 22 21 21.3284 21 20.5C21 19.6716 20.2445 19 19.3125 19Z" fill="#9900FF"/>
<path d="M18.8194 11.1758C18.7778 11.1201 18.728 11.0759 18.6731 11.0457C18.6182 11.0156 18.5592 11 18.4996 11C18.4401 11 18.3811 11.0156 18.3262 11.0457C18.2713 11.0759 18.2215 11.1201 18.1799 11.1758C17.9831 11.4587 17.0004 12.9001 17.0004 13.9993C16.996 14.26 17.0316 14.5191 17.105 14.7616C17.1784 15.0041 17.2882 15.225 17.4279 15.4113C17.5675 15.5977 17.7343 15.7458 17.9184 15.8468C18.1026 15.9479 18.3003 16 18.5 16C18.6997 16 18.8974 15.9479 19.0816 15.8468C19.2657 15.7458 19.4325 15.5977 19.5721 15.4113C19.7118 15.225 19.8216 15.0041 19.895 14.7616C19.9684 14.5191 20.004 14.26 19.9996 13.9993C19.9996 12.9085 19.0169 11.4587 18.8194 11.1758Z"/>
</svg>
