<svg width="20" height="20" viewBox="0 0 20 20" fill="none" xmlns="http://www.w3.org/2000/svg">
<path d="M5.58118 5.28802H15.1912V14.788H5.58118V5.28802Z" fill="#51C2F0"/>
<path d="M3.19918 2.44101C3.09018 2.44101 2.98564 2.48431 2.90856 2.56139C2.83148 2.63847 2.78818 2.74301 2.78818 2.85201V17.225C2.78818 17.334 2.83148 17.4386 2.90856 17.5156C2.98564 17.5927 3.09018 17.636 3.19918 17.636H17.5722C17.6812 17.636 17.7857 17.5927 17.8628 17.5156C17.9399 17.4386 17.9832 17.334 17.9832 17.225V2.85201C17.9832 2.74301 17.9399 2.63847 17.8628 2.56139C17.7857 2.48431 17.6812 2.44101 17.5722 2.44101H3.19918ZM3.19918 1.82501H17.5722C17.8446 1.82501 18.1058 1.93321 18.2984 2.12581C18.491 2.31841 18.5992 2.57963 18.5992 2.85201V17.225C18.5992 17.4974 18.491 17.7586 18.2984 17.9512C18.1058 18.1438 17.8446 18.252 17.5722 18.252H3.19918C2.9268 18.252 2.66558 18.1438 2.47298 17.9512C2.28038 17.7586 2.17218 17.4974 2.17218 17.225V2.85201C2.17218 2.57963 2.28038 2.31841 2.47298 2.12581C2.66558 1.93321 2.9268 1.82501 3.19918 1.82501V1.82501Z" fill="#50585D"/>
<path d="M18.5982 5.56198H2.17215V4.905H18.5982V5.56198Z" fill="#50585D"/>
<path d="M18.5982 15.131H2.17215V14.474H18.5982V15.131Z" fill="#50585D"/>
<path d="M5.90917 1.82601L5.90917 18.252H5.25217L5.25217 1.82601H5.90917Z" fill="#50585D"/>
<path d="M15.5192 1.82601L15.5192 18.252H14.8622L14.8622 1.82601H15.5192Z" fill="#50585D"/>
</svg>
