<svg width="20" height="20" viewBox="0 0 20 20" fill="none" xmlns="http://www.w3.org/2000/svg">
<path d="M13.1995 8.55048C12.2874 8.55127 11.4129 8.91395 10.7679 9.55891C10.123 10.2039 9.7603 11.0784 9.75951 11.9905C9.75929 12.6166 9.93235 13.2306 10.2595 13.7645C10.5639 14.2725 10.9948 14.6931 11.5102 14.985C12.0255 15.277 12.6077 15.4305 13.2 15.4305C13.7923 15.4305 14.3745 15.277 14.8898 14.985C15.4052 14.6931 15.8361 14.2725 16.1405 13.7645C16.4686 13.231 16.6417 12.6168 16.6405 11.9905C16.6408 11.5386 16.5519 11.091 16.3791 10.6735C16.2062 10.256 15.9528 9.87659 15.6332 9.55709C15.3136 9.23759 14.9341 8.98423 14.5166 8.81151C14.099 8.63878 13.6514 8.55008 13.1995 8.55048ZM14.4885 12.5185H13.7425V13.2935C13.7425 13.4375 13.6853 13.5756 13.5835 13.6774C13.4816 13.7793 13.3435 13.8365 13.1995 13.8365C13.0555 13.8365 12.9174 13.7793 12.8155 13.6774C12.7137 13.5756 12.6565 13.4375 12.6565 13.2935V12.5185H11.9175C11.7735 12.5185 11.6354 12.4613 11.5335 12.3594C11.4317 12.2576 11.3745 12.1195 11.3745 11.9755C11.3745 11.8315 11.4317 11.6934 11.5335 11.5915C11.6354 11.4897 11.7735 11.4325 11.9175 11.4325H12.6595V10.7225C12.6595 10.5785 12.7167 10.4404 12.8185 10.3385C12.9204 10.2367 13.0585 10.1795 13.2025 10.1795C13.3465 10.1795 13.4846 10.2367 13.5865 10.3385C13.6883 10.4404 13.7455 10.5785 13.7455 10.7225V11.4325H14.4915C14.6355 11.4325 14.7736 11.4897 14.8755 11.5915C14.9773 11.6934 15.0345 11.8315 15.0345 11.9755C15.0345 12.1195 14.9773 12.2576 14.8755 12.3594C14.7736 12.4613 14.6355 12.5185 14.4915 12.5185H14.4885Z" />
<path d="M15.8785 4.22048V5.82748C15.8359 6.45662 15.5794 7.05225 15.1515 7.51548L15.0215 7.63148C14.9696 7.67637 14.9067 7.70669 14.8392 7.71934C14.7718 7.73198 14.7022 7.72651 14.6375 7.70348C14.4925 7.65248 14.3475 7.61648 14.2025 7.58048C13.8728 7.50097 13.5346 7.46201 13.1955 7.46448C11.996 7.46607 10.8461 7.94355 9.99832 8.79211C9.15051 9.64067 8.67404 10.791 8.67351 11.9905C8.67158 12.8131 8.89723 13.6202 9.32551 14.3225C9.67665 14.913 10.163 15.4117 10.7445 15.7775C10.786 15.7982 10.8222 15.8284 10.8501 15.8655C10.878 15.9026 10.8969 15.9456 10.9053 15.9913C10.9138 16.037 10.9115 16.084 10.8987 16.1286C10.8859 16.1732 10.8629 16.2142 10.8315 16.2485C10.7805 16.2915 10.7315 16.3285 10.6795 16.3645L9.66551 17.0235C9.44325 17.1597 9.18877 17.2343 8.92816 17.2397C8.66755 17.2452 8.41018 17.1812 8.18243 17.0544C7.95468 16.9276 7.76474 16.7425 7.63209 16.5182C7.49943 16.2938 7.42883 16.0381 7.42751 15.7775V11.9035C7.39153 11.3461 7.19108 10.8119 6.85151 10.3685L4.10351 7.44248C3.729 7.04164 3.49947 6.52695 3.45151 5.98048V4.29248C3.44376 4.09668 3.47505 3.90131 3.54355 3.71772C3.61205 3.53414 3.7164 3.36602 3.85051 3.22316C3.98462 3.0803 4.14582 2.96555 4.32471 2.8856C4.5036 2.80565 4.69662 2.7621 4.89251 2.75748H14.4375C14.822 2.76222 15.1891 2.91857 15.459 3.19254C15.7288 3.46651 15.8796 3.83593 15.8785 4.22048Z" />
</svg>
