<svg width="20" height="20" viewBox="0 0 20 20" fill="none" xmlns="http://www.w3.org/2000/svg">
<path d="M6.90278 15.618C6.4528 15.2044 6.10025 14.6961 5.8706 14.1298C5.64094 13.5634 5.5399 12.9531 5.57478 12.343V12.118H7.55478L7.57478 12.333C7.58422 12.8824 7.73877 13.4196 8.02278 13.89C8.33956 14.2861 8.75203 14.595 9.22129 14.7874C9.69055 14.9799 10.2011 15.0496 10.7048 14.99C11.2484 14.9963 11.7892 14.9115 12.3048 14.739C12.6757 14.6624 13.0088 14.4602 13.248 14.1665C13.4872 13.8729 13.6178 13.5057 13.6178 13.127C13.6422 12.8967 13.6075 12.6639 13.5168 12.4508C13.4262 12.2376 13.2826 12.0512 13.0998 11.909C12.9669 11.8238 12.8275 11.7492 12.6828 11.686L11.7078 11.249H15.3178L15.3748 11.383C15.5755 11.8509 15.6747 12.356 15.6658 12.865C15.7124 13.4712 15.5907 14.0785 15.314 14.6199C15.0373 15.1613 14.6164 15.6157 14.0978 15.933C13.0307 16.5459 11.8171 16.857 10.5868 16.833C9.24958 16.9065 7.9339 16.4726 6.90278 15.618Z" />
<path d="M6.4088 8.74999L6.3438 8.63399C6.09288 8.16848 5.96744 7.64567 5.9798 7.11699C5.96501 6.58487 6.06446 6.05577 6.27147 5.56534C6.47847 5.07492 6.78821 4.63457 7.1798 4.27399C8.11379 3.4903 9.31284 3.09479 10.5298 3.16899C11.7214 3.1353 12.8944 3.46907 13.8898 4.12499C14.3728 4.48218 14.757 4.95627 15.0065 5.50273C15.2559 6.04919 15.3623 6.65009 15.3158 7.24899V7.47799H13.3468L13.3218 7.27799C13.2852 6.78425 13.1197 6.30875 12.8418 5.89899C12.539 5.58612 12.169 5.34627 11.7597 5.19762C11.3505 5.04896 10.9128 4.9954 10.4798 5.04099C9.79275 4.97418 9.10575 5.16878 8.5558 5.58599C8.37872 5.74259 8.23689 5.93499 8.13966 6.15046C8.04244 6.36594 7.99204 6.59959 7.9918 6.83599C7.97775 7.06001 8.02917 7.28328 8.13979 7.4786C8.2504 7.67391 8.41545 7.83283 8.6148 7.93599C8.95243 8.09129 9.30444 8.21321 9.6658 8.29999L11.2958 8.74799L6.4088 8.74999Z" />
<path d="M16.0868 9.24698H5.08679C4.81065 9.24698 4.58679 9.47084 4.58679 9.74698V10.247C4.58679 10.5231 4.81065 10.747 5.08679 10.747H16.0868C16.3629 10.747 16.5868 10.5231 16.5868 10.247V9.74698C16.5868 9.47084 16.3629 9.24698 16.0868 9.24698Z" />
</svg>
