<svg id="vuesax_bold_bezier" data-name="vuesax/bold/bezier" xmlns="http://www.w3.org/2000/svg" width="11.996" height="11.996" viewBox="0 0 11.996 11.996">
  <g id="bezier">
    <path id="Vector" d="M0,0H12V12H0Z" fill="none" opacity="0"/>
    <path id="Vector-2" data-name="Vector" d="M9.067,1.859a1,1,0,1,0,0-.72A.35.35,0,0,0,9,1.125H7V.75A.755.755,0,0,0,6.248,0h-1.5A.755.755,0,0,0,4,.75v.375H2a.35.35,0,0,0-.07.015,1,1,0,1,0,0,.72A.35.35,0,0,0,2,1.874H3.284A4.207,4.207,0,0,0,1.624,5.248a2.1,2.1,0,0,0,.015.25H1.5a.749.749,0,0,0-.75.75v1A.749.749,0,0,0,1.5,8h1a.7.7,0,0,0,.3-.07.739.739,0,0,0,.445-.68v-1A.749.749,0,0,0,2.5,5.5H2.384c0-.015,0-.03,0-.045a1.407,1.407,0,0,1-.01-.2A3.415,3.415,0,0,1,4.009,2.3a.744.744,0,0,0,.74.7h1.5a.752.752,0,0,0,.745-.7A3.421,3.421,0,0,1,8.622,5.248c0,.07,0,.135-.01.2,0,.015.005.03.005.045H8.5a.749.749,0,0,0-.75.75v1a.739.739,0,0,0,.445.68A.7.7,0,0,0,8.5,8h1a.749.749,0,0,0,.75-.75v-1A.749.749,0,0,0,9.5,5.5h-.14a2.1,2.1,0,0,0,.015-.25A4.207,4.207,0,0,0,7.712,1.874H9A.35.35,0,0,0,9.067,1.859Z" transform="translate(0.5 1.999)" />
  </g>
</svg>
