<svg width="24" height="24" viewBox="0 0 24 24" fill="none"
  xmlns="http://www.w3.org/2000/svg">
  <path d="M7.78039 10.7977L15.1018 4.0666L17.1803 5.2666L15.0108 14.9722L13.3004 13.9847L13.7748 11.963L10.9741 10.346L9.46914 11.7727L7.78039 10.7977ZM12.2146 9.09345L14.2367 10.261L15.3101 6.06786L12.2146 9.09345Z" fill="currentColor"/>
  <path d="M12.6914 19.037L4.59354 14.3617C4.4853 14.3276 4.38643 14.2696 4.30359 14.1921C4.22075 14.1145 4.15629 14.0187 4.11514 13.913C4.074 13.8072 4.05685 13.6941 4.0655 13.581C4.07416 13.4678 4.10855 13.358 4.16529 13.2597C4.22204 13.1614 4.29996 13.0767 4.39363 13.0127C4.4873 12.9486 4.59428 12.9061 4.70645 12.8888C4.81862 12.8715 4.93327 12.8803 5.04187 12.9133C5.15047 12.9463 5.25012 13.0029 5.33378 13.0796L13.4316 17.7549C13.5406 17.7885 13.6398 17.8458 13.7234 17.9233C13.807 18.0009 13.8724 18.0964 13.914 18.2025C13.9557 18.3087 13.9729 18.4235 13.9644 18.5372C13.9558 18.6509 13.922 18.7611 13.8649 18.8598C13.8079 18.9585 13.7295 19.043 13.6353 19.1072C13.5411 19.1715 13.4335 19.2131 13.3208 19.2301C13.208 19.2471 13.0921 19.2391 12.9832 19.2055C12.8742 19.1719 12.775 19.1145 12.6914 19.037Z" fill="currentColor"/>
  <path d="M12.5664 19.2534L4.46859 14.5781C4.33567 14.5247 4.21592 14.4429 4.11717 14.3391C4.01842 14.2354 3.94376 14.1117 3.897 13.9763C3.85023 13.8409 3.83252 13.6972 3.84618 13.5546C3.85984 13.412 3.90427 13.2743 3.9759 13.1502C4.04752 13.0262 4.14457 12.9188 4.26122 12.8357C4.37788 12.7526 4.51173 12.6952 4.65237 12.668C4.793 12.6408 4.93692 12.6445 5.07615 12.6781C5.21539 12.7118 5.34612 12.7746 5.45882 12.863L13.5567 17.5383C13.6944 17.5886 13.8188 17.6682 13.9224 17.772C14.026 17.8758 14.1058 18.0012 14.1559 18.1391C14.2059 18.2769 14.2255 18.4239 14.2127 18.5699C14.1999 18.716 14.1548 18.8577 14.0815 18.9847C14.0082 19.1117 13.9085 19.2207 13.7884 19.3049C13.6683 19.389 13.5307 19.4464 13.3864 19.4719C13.242 19.4975 13.0934 19.4911 12.9517 19.4533C12.81 19.4155 12.6789 19.3475 12.5664 19.2534ZM5.20882 13.296C4.89272 13.1135 4.51265 13.1541 4.38015 13.3836C4.24765 13.6131 4.40249 13.9626 4.71859 14.1451L12.8164 18.8204C13.1343 19.0039 13.5151 18.9637 13.6476 18.7342C13.7801 18.5047 13.6245 18.1548 13.3067 17.9713L5.20882 13.296Z" fill="currentColor"/>
  <path d="M10.6855 19.9791C10.6552 19.8658 10.6478 19.7475 10.6631 19.6312C10.6784 19.5149 10.7161 19.4026 10.7748 19.301C10.8334 19.1994 10.9118 19.1106 11.0049 19.0392C11.0979 18.9678 11.2036 18.9159 11.3169 18.8855L13.0882 18.4073L12.6172 16.6334C12.586 16.5202 12.5783 16.4023 12.5934 16.2859C12.6085 16.1695 12.6462 16.0572 12.7051 15.9557C12.7633 15.8535 12.8414 15.7639 12.9348 15.6925C13.0282 15.6211 13.1346 15.5692 13.2485 15.5398C13.3616 15.5084 13.48 15.5002 13.5965 15.5152C13.7129 15.5303 13.8248 15.5685 13.9262 15.6278C14.0279 15.6866 14.1175 15.765 14.1889 15.8584C14.2602 15.9517 14.3128 16.0581 14.3429 16.1717L15.0481 18.8037C15.1082 19.033 15.0747 19.2772 14.9562 19.4824C14.8377 19.6877 14.6434 19.838 14.4148 19.9006L11.7828 20.6058C11.5538 20.6662 11.3097 20.6332 11.1044 20.5152C11.0026 20.4579 10.9134 20.3811 10.8415 20.289C10.7696 20.1969 10.7165 20.0917 10.6855 19.9791Z" fill="currentColor"/>
</svg>
