<svg width="24" height="24" viewBox="0 0 24 24" fill="none"
  xmlns="http://www.w3.org/2000/svg">
  <path d="M8.64547 4.86078C8.83829 4.67223 9.09745 4.56683 9.36715 4.56683C9.63684 4.56683 9.896 4.67223 10.0888 4.86078L10.7793 5.55219V2.49261C10.7793 2.13361 11.1798 1.8432 11.6748 1.8432C12.1698 1.8432 12.5673 2.13361 12.5673 2.49261V5.55219L13.2607 4.86078C13.3551 4.76565 13.467 4.69059 13.5908 4.6391C13.7145 4.58761 13.8474 4.5609 13.9814 4.56097C14.115 4.55973 14.2478 4.58557 14.3711 4.63715C14.4943 4.68872 14.6053 4.76476 14.6982 4.86078C14.7942 4.95369 14.8703 5.06564 14.9218 5.1889C14.9734 5.31217 14.9992 5.44396 14.998 5.57758C14.9989 5.71173 14.9734 5.84531 14.9218 5.96918C14.8703 6.09304 14.794 6.20535 14.6982 6.29926L12.3984 8.60785C12.3036 8.703 12.1914 8.77902 12.0673 8.83051C11.9433 8.88199 11.8101 8.90772 11.6757 8.90765C11.5414 8.90772 11.4082 8.88199 11.2841 8.83051C11.1601 8.77902 11.0469 8.703 10.9521 8.60785L8.64547 6.29926C8.55033 6.20484 8.47528 6.09195 8.42379 5.9682C8.37229 5.84445 8.34558 5.71161 8.34566 5.57758C8.34776 5.30848 8.45531 5.05119 8.64547 4.86078Z" fill="currentColor"/>
  <path d="M14.7041 19.0492C14.5113 19.2377 14.2522 19.3431 13.9825 19.3431C13.7128 19.3431 13.4536 19.2377 13.2608 19.0492L12.5704 18.3578V21.4174C12.5704 21.7764 12.1698 22.0668 11.6748 22.0668C11.1798 22.0668 10.7823 21.7764 10.7823 21.4174V18.3578L10.0889 19.0492C9.99449 19.1443 9.88258 19.2194 9.75883 19.2709C9.63508 19.3224 9.50224 19.3491 9.36821 19.349C9.2346 19.3502 9.10182 19.3244 8.97856 19.2728C8.8553 19.2213 8.74433 19.1452 8.65141 19.0492C8.55539 18.9563 8.47935 18.8443 8.42778 18.7211C8.3762 18.5978 8.35036 18.466 8.35161 18.3324C8.35069 18.1982 8.37624 18.0647 8.42778 17.9408C8.47932 17.8169 8.5556 17.7046 8.65141 17.6107L10.9512 15.3021C11.046 15.207 11.1582 15.131 11.2823 15.0795C11.4063 15.028 11.5395 15.0023 11.6739 15.0023C11.8082 15.0023 11.9414 15.028 12.0655 15.0795C12.1895 15.131 12.3027 15.207 12.3975 15.3021L14.7041 17.6107C14.7993 17.7051 14.8743 17.818 14.9258 17.9418C14.9773 18.0655 15.004 18.1984 15.0039 18.3324C15.0018 18.6015 14.8943 18.8588 14.7041 19.0492Z" fill="currentColor"/>
  <path d="M4.88867 11.0001L19.1094 11.0001C19.3542 11.0291 19.5804 11.1468 19.7441 11.3311C19.9079 11.5154 19.998 11.7535 19.998 12.0001C19.998 12.2466 19.9079 12.4847 19.7441 12.669C19.5804 12.8533 19.3542 12.971 19.1094 13.0001L4.88867 13.0001C4.64384 12.971 4.41766 12.8533 4.25391 12.669C4.09015 12.4847 4 12.2466 4 12.0001C4 11.7535 4.09015 11.5154 4.25391 11.3311C4.41766 11.1468 4.64384 11.0291 4.88867 11.0001Z" fill="currentColor"/>
</svg>
