<svg width="20" height="20" viewBox="0 0 20 20" fill="none" xmlns="http://www.w3.org/2000/svg">
<path d="M10.4601 5.698H9.82612C9.62469 5.70837 9.43543 5.79756 9.29921 5.94632C9.163 6.09507 9.09076 6.29144 9.09812 6.493V12.18C9.09076 12.3816 9.163 12.5779 9.29921 12.7267C9.43543 12.8754 9.62469 12.9646 9.82612 12.975H10.4601C10.6609 12.9644 10.8495 12.8749 10.9847 12.726C11.1199 12.5772 11.1908 12.3809 11.1821 12.18V6.493C11.1908 6.29208 11.1199 6.09584 10.9847 5.94697C10.8495 5.79809 10.6609 5.70862 10.4601 5.698V5.698Z" />
<path d="M3.38313 15.188V15.822C3.3935 16.0234 3.48269 16.2127 3.63144 16.3489C3.7802 16.4851 3.97656 16.5574 4.17813 16.55H16.1031C16.3047 16.5574 16.5011 16.4851 16.6498 16.3489C16.7986 16.2127 16.8878 16.0234 16.8981 15.822V15.188C16.8875 14.9872 16.798 14.7987 16.6492 14.6634C16.5003 14.5282 16.304 14.4573 16.1031 14.466H4.17813C3.97721 14.4573 3.78097 14.5282 3.63209 14.6634C3.48322 14.7987 3.39374 14.9872 3.38313 15.188V15.188Z" />
<path d="M9.85513 3.447C9.89228 3.40981 9.93639 3.3803 9.98495 3.36017C10.0335 3.34004 10.0856 3.32968 10.1381 3.32968C10.1907 3.32968 10.2427 3.34004 10.2913 3.36017C10.3399 3.3803 10.384 3.40981 10.4211 3.447L12.9421 5.964C12.9991 6.02007 13.0379 6.09191 13.0537 6.17027C13.0694 6.24863 13.0613 6.3299 13.0304 6.40362C12.9996 6.47733 12.9473 6.54011 12.8804 6.58384C12.8135 6.62758 12.735 6.65027 12.6551 6.649H7.62113C7.54155 6.64946 7.46365 6.62618 7.39738 6.58214C7.33111 6.53809 7.27948 6.47528 7.2491 6.40174C7.21871 6.32819 7.21095 6.24726 7.22681 6.16928C7.24267 6.0913 7.28143 6.01983 7.33813 5.964L9.85513 3.447Z" />
</svg>
