<svg width="18" height="19" viewBox="0 0 18 19" fill="none" xmlns="http://www.w3.org/2000/svg">
<path d="M12.8553 15.8365C12.7447 15.8364 12.6325 15.8143 12.5391 15.7743C12.4363 15.7312 12.3412 15.668 12.2634 15.591L9.21502 12.5387C9.06201 12.3805 8.97905 12.1716 8.98253 11.9518C8.98254 11.727 9.06924 11.5197 9.22667 11.3666C9.37978 11.2127 9.59193 11.123 9.80993 11.1195L9.81909 11.1195C10.0332 11.1195 10.239 11.203 10.3986 11.3547L11.8518 12.8118L12.0226 12.9831V12.7412V6.57422C12.0226 6.35117 12.1097 6.14072 12.2679 5.98164C12.4234 5.82356 12.6339 5.73672 12.8611 5.73672C13.0827 5.73672 13.2969 5.82577 13.4487 5.98105C13.6082 6.14136 13.6956 6.3518 13.6956 6.57422V12.7373V12.9793L13.8665 12.8079L15.3166 11.3528C15.4752 11.2031 15.681 11.1195 15.8942 11.1195L15.9038 11.1195C16.1214 11.123 16.3335 11.2126 16.4855 11.3654C16.6448 11.5195 16.7318 11.7267 16.7318 11.9502C16.7352 12.1699 16.653 12.3791 16.5003 12.5407L13.4457 15.5914C13.2913 15.7458 13.0816 15.8328 12.8553 15.8365Z"/>
<path d="M12.8547 15.7365C13.0547 15.733 13.2396 15.6564 13.3754 15.5206L16.4298 12.4701C16.5633 12.3278 16.6352 12.1444 16.6322 11.9502C16.6322 11.7541 16.556 11.5724 16.4149 11.4359C16.2812 11.3015 16.0943 11.2226 15.9032 11.2195L15.8946 11.2195C15.708 11.2195 15.5273 11.2927 15.3856 11.4257L13.596 13.2213V6.57422C13.596 6.37841 13.5189 6.193 13.3776 6.05097C13.2445 5.91481 13.0563 5.83672 12.8615 5.83672C12.6613 5.83672 12.4761 5.91295 12.3392 6.05216C12.1998 6.19237 12.123 6.37777 12.123 6.57422V13.225L10.3283 11.4255C10.1876 11.2926 10.007 11.2195 9.81948 11.2195L9.81193 11.2195C9.61976 11.2226 9.43286 11.3015 9.29677 11.4383C9.15887 11.5724 9.08293 11.7542 9.0829 11.9533C9.07985 12.1465 9.15283 12.3301 9.28616 12.468L12.3341 15.5199C12.4029 15.5879 12.487 15.6439 12.5789 15.6824C12.6598 15.7171 12.7577 15.7363 12.8547 15.7365ZM12.8566 15.9365C12.7365 15.9365 12.6095 15.9131 12.5001 15.8662C12.3859 15.8184 12.2804 15.748 12.1935 15.6621L9.14465 12.6094C8.97277 12.4316 8.87902 12.1973 8.88293 11.9502C8.88293 11.7031 8.98059 11.4668 9.15734 11.2949C9.32922 11.1221 9.56555 11.0234 9.80871 11.0195C10.0548 11.0166 10.2911 11.1143 10.4679 11.2822L11.923 12.7412V6.57422C11.923 6.32617 12.0216 6.08789 12.1974 5.91113C12.3712 5.73437 12.6095 5.63672 12.8615 5.63672C13.1075 5.63672 13.3478 5.73437 13.5206 5.91113C13.6964 6.08789 13.796 6.32617 13.796 6.57422V12.7373L15.2462 11.2822C15.424 11.1143 15.6583 11.0166 15.9054 11.0195C16.1495 11.0234 16.3849 11.1221 16.5568 11.2949C16.7345 11.4668 16.8321 11.7031 16.8321 11.9502C16.8361 12.1973 16.7413 12.4316 16.5734 12.6094L13.5167 15.6621C13.34 15.8389 13.1036 15.9326 12.8566 15.9365Z" fill="white"/>
<path d="M5.02957 13.2659C4.80199 13.2659 4.59156 13.1789 4.43703 13.021C4.28027 12.8631 4.19066 12.6473 4.19066 12.4282V6.26126V6.0194L4.01986 6.19064L2.56505 7.64921C2.40754 7.79885 2.20284 7.88228 1.99057 7.88228C1.99055 7.88228 1.99058 7.88228 1.99057 7.88228L1.97838 7.88219C1.75995 7.87881 1.54781 7.78938 1.39636 7.63683C1.23735 7.48231 1.15049 7.27508 1.15049 7.05205C1.14713 6.83029 1.23026 6.62154 1.38456 6.46275L4.43254 3.41101C4.50954 3.33401 4.60432 3.27072 4.7066 3.22801C4.80169 3.18757 4.9144 3.16544 5.02455 3.16544C5.24924 3.16888 5.45915 3.25611 5.61409 3.41105L8.67062 6.46381C8.82115 6.62225 8.90322 6.83128 8.89988 7.05053C8.89987 7.27508 8.81301 7.48231 8.65528 7.63556C8.50255 7.78938 8.29041 7.87881 8.07196 7.88219L8.05977 7.88228C7.84751 7.88228 7.64282 7.79885 7.4834 7.64734L6.03426 6.1944L5.86346 6.02316V6.26502V12.4282C5.86346 12.6473 5.77385 12.8631 5.61761 13.0205C5.46481 13.1766 5.25067 13.2659 5.02957 13.2659Z"/>
<path d="M5.02326 3.26543C4.92679 3.26566 4.82866 3.28494 4.74554 3.32028C4.65517 3.35801 4.57152 3.41385 4.5037 3.48166L1.45668 6.53243C1.32102 6.67204 1.24792 6.8555 1.25089 7.05204C1.25089 7.24782 1.32699 7.42957 1.46772 7.56636C1.60094 7.70054 1.78778 7.77921 1.98033 7.78219L1.99093 7.78227C2.17667 7.78227 2.35618 7.70922 2.49668 7.57655L4.29106 5.77752V12.4282C4.29106 12.6211 4.37009 12.8113 4.5089 12.9511C4.64446 13.0896 4.82951 13.1658 5.02997 13.1658C5.22434 13.1658 5.41244 13.0876 5.54705 12.95C5.68484 12.8113 5.76386 12.6211 5.76386 12.4282V5.78128L7.55448 7.57655C7.69498 7.70922 7.87447 7.78227 8.06017 7.78227L8.07081 7.78219C8.26338 7.77921 8.45022 7.70054 8.586 7.56383C8.72417 7.42957 8.80027 7.24782 8.80029 7.049C8.80322 6.85687 8.73152 6.67357 8.59838 6.53258L5.54377 3.48175C5.40763 3.3456 5.22283 3.26881 5.02326 3.26543ZM5.02495 3.06543C5.27223 3.0692 5.50822 3.16334 5.6852 3.34033L8.74169 6.39305C8.90989 6.57003 9.00403 6.80476 9.00027 7.05204C9.00027 7.29932 8.90236 7.5353 8.72537 7.70727C8.5534 7.88049 8.31742 7.9784 8.07391 7.98217C7.82663 7.98593 7.5919 7.88802 7.41491 7.71982L5.96386 6.26501V12.4282C5.96386 12.6755 5.8647 12.914 5.68897 13.091C5.51575 13.2679 5.276 13.3659 5.02997 13.3659C4.77767 13.3659 4.53918 13.2679 4.36596 13.091C4.19022 12.914 4.09106 12.6755 4.09106 12.4282V6.26125L2.63625 7.71982C2.45926 7.88802 2.22327 7.98594 1.97725 7.98217C1.73374 7.9784 1.49776 7.88049 1.32579 7.70727C1.1488 7.5353 1.05089 7.29932 1.05089 7.05204C1.04713 6.80476 1.14127 6.57003 1.31324 6.39305L4.36219 3.34033C4.4488 3.25372 4.55424 3.18342 4.66847 3.13572C4.77767 3.08928 4.90445 3.06543 5.02495 3.06543Z" fill="white"/>
</svg>
