<svg xmlns="http://www.w3.org/2000/svg" width="24.998" height="24.998" viewBox="0 0 24.998 24.998">
  <g id="Group_3112" data-name="Group 3112" transform="translate(-16 -261)">
    <path id="Vector" d="M0,0H25V25H0Z" transform="translate(16 261)" fill="none" opacity="0"/>
    <g id="Group_635" data-name="Group 635" transform="translate(19.125 263.083)">
      <path id="Vector-2" data-name="Vector" d="M9.2,18.418A9.213,9.213,0,0,1,0,9.217a9.045,9.045,0,0,1,1.552-5.1,1.2,1.2,0,0,1,2,1.328A6.807,6.807,0,1,0,9.217,2.416a8.058,8.058,0,0,0-2.32.336,1.215,1.215,0,0,1-1.5-.8,1.2,1.2,0,0,1,.8-1.5A10.1,10.1,0,0,1,9.217,0,9.209,9.209,0,0,1,9.2,18.418Z" transform="translate(0 2.413)" />
      <path id="Vector-3" data-name="Vector" d="M1.191,5.454a1.218,1.218,0,0,1-.784-.288,1.21,1.21,0,0,1-.112-1.7L2.967.413A1.2,1.2,0,0,1,4.663.3,1.21,1.21,0,0,1,4.775,2L2.1,5.054A1.29,1.29,0,0,1,1.191,5.454Z" transform="translate(4.202)" />
      <path id="Vector-4" data-name="Vector" d="M4.3,4.667a1.266,1.266,0,0,1-.7-.224L.491,2.171A1.2,1.2,0,0,1,1.915.235l3.1,2.272a1.2,1.2,0,0,1,.256,1.68A1.259,1.259,0,0,1,4.3,4.667Z" transform="translate(4.197 3.058)" />
    </g>
  </g>
</svg>
