<svg width="16" height="16" viewBox="0 0 16 16" fill="none" xmlns="http://www.w3.org/2000/svg">
<path d="M11.167 2.37301V1.33301C11.167 1.2004 11.1143 1.07322 11.0206 0.979454C10.9268 0.885686 10.7996 0.833008 10.667 0.833008C10.5344 0.833008 10.4072 0.885686 10.3134 0.979454C10.2197 1.07322 10.167 1.2004 10.167 1.33301V2.33301H5.833V1.33301C5.833 1.2004 5.78032 1.07322 5.68655 0.979454C5.59278 0.885686 5.46561 0.833008 5.333 0.833008C5.20039 0.833008 5.07321 0.885686 4.97944 0.979454C4.88568 1.07322 4.833 1.2004 4.833 1.33301V2.37301C4.08607 2.3796 3.372 2.68102 2.84626 3.21162C2.32052 3.74223 2.0257 4.45905 2.026 5.20601C2.02356 5.25132 2.03035 5.29666 2.04597 5.33927C2.06158 5.38188 2.08569 5.42088 2.11683 5.45389C2.14797 5.4869 2.18549 5.51324 2.22712 5.53131C2.26875 5.54938 2.31362 5.5588 2.359 5.55901H13.639C13.6845 5.55938 13.7297 5.55035 13.7716 5.53248C13.8135 5.51461 13.8512 5.48829 13.8825 5.45515C13.9138 5.42202 13.9378 5.38279 13.9532 5.33992C13.9686 5.29705 13.975 5.25146 13.972 5.20601C13.9723 4.4594 13.6777 3.74287 13.1524 3.21232C12.6271 2.68177 11.9136 2.38013 11.167 2.37301Z"/>
<path d="M13.333 6.56006H2.66702C2.49028 6.56059 2.32093 6.63103 2.19596 6.756C2.07099 6.88097 2.00054 7.05032 2.00002 7.22706V11.3331C1.94432 11.7841 1.99218 12.242 2.13997 12.6718C2.28776 13.1015 2.53158 13.492 2.85291 13.8134C3.17424 14.1348 3.56461 14.3788 3.99436 14.5267C4.42412 14.6746 4.88193 14.7226 5.33302 14.6671H8.62002C8.72612 14.6677 8.83083 14.6428 8.92539 14.5947C9.01995 14.5466 9.10162 14.4765 9.16358 14.3904C9.22554 14.3043 9.26599 14.2045 9.28155 14.0996C9.29711 13.9946 9.28732 13.8875 9.25302 13.7871C9.11568 13.428 9.03244 13.0506 9.00602 12.6671C9.0076 11.695 9.39446 10.7632 10.0818 10.0759C10.7692 9.3885 11.701 9.00165 12.673 9.00006C12.865 8.99889 13.0568 9.01461 13.246 9.04706C13.34 9.06079 13.4358 9.0542 13.527 9.02774C13.6182 9.00128 13.7027 8.95556 13.7748 8.89367C13.8468 8.83177 13.9047 8.75515 13.9446 8.66896C13.9845 8.58277 14.0054 8.48903 14.006 8.39406V7.23306C14.0042 7.05513 13.9327 6.88501 13.8069 6.75919C13.6811 6.63337 13.5109 6.56188 13.333 6.56006V6.56006ZM6.14002 12.1401C6.01363 12.2641 5.84361 12.3336 5.66652 12.3336C5.48943 12.3336 5.31941 12.2641 5.19302 12.1401C5.06897 12.0137 4.99948 11.8436 4.99948 11.6666C4.99948 11.4895 5.06897 11.3194 5.19302 11.1931C5.25675 11.1328 5.33143 11.0853 5.41302 11.0531C5.53445 11.0018 5.66835 10.9878 5.79776 11.0127C5.92718 11.0377 6.04629 11.1004 6.14002 11.1931C6.26406 11.3194 6.33355 11.4895 6.33355 11.6666C6.33355 11.8436 6.26406 12.0137 6.14002 12.1401ZM6.14002 9.80706L6.04002 9.88706C6.00289 9.91236 5.96253 9.93254 5.92002 9.94706C5.88224 9.96632 5.84179 9.9798 5.80002 9.98706C5.75602 9.99435 5.71159 9.9987 5.66702 10.0001C5.57916 10.001 5.49201 9.98438 5.41066 9.95119C5.32932 9.91801 5.25541 9.86891 5.19329 9.80679C5.13116 9.74466 5.08207 9.67076 5.04888 9.58941C5.01569 9.50807 4.99908 9.42091 5.00002 9.33306C5.00247 9.15671 5.07139 8.98778 5.19302 8.86006C5.27167 8.78257 5.36817 8.72561 5.47403 8.69422C5.57988 8.66283 5.69184 8.65797 5.80002 8.68006C5.84179 8.68732 5.88224 8.7008 5.92002 8.72006C5.96253 8.73458 6.00289 8.75476 6.04002 8.78006L6.14002 8.86006C6.26406 8.98645 6.33355 9.15647 6.33355 9.33356C6.33355 9.51065 6.26406 9.68067 6.14002 9.80706ZM8.47302 9.80706C8.37973 9.90089 8.26063 9.96486 8.13089 9.99082C8.00114 10.0168 7.86661 10.0036 7.74439 9.95286C7.62218 9.90215 7.51781 9.81624 7.44455 9.70605C7.3713 9.59586 7.33248 9.46637 7.33302 9.33406C7.33548 9.15722 7.4048 8.98788 7.52702 8.86006C7.65617 8.74144 7.82515 8.67561 8.00052 8.67561C8.17588 8.67561 8.34486 8.74144 8.47402 8.86006C8.59806 8.98645 8.66755 9.15647 8.66755 9.33356C8.66755 9.51065 8.59806 9.68067 8.47402 9.80706H8.47302Z"/>
<path d="M12.713 10C12.1855 9.9998 11.6697 10.1561 11.231 10.449C10.7923 10.7419 10.4503 11.1584 10.2483 11.6457C10.0463 12.133 9.99331 12.6693 10.0961 13.1867C10.1989 13.7041 10.4528 14.1794 10.8258 14.5525C11.1987 14.9256 11.6739 15.1797 12.1913 15.2827C12.7087 15.3857 13.245 15.3329 13.7324 15.1311C14.2198 14.9293 14.6363 14.5874 14.9294 14.1488C15.2225 13.7102 15.379 13.1945 15.379 12.667C15.3779 11.9602 15.0967 11.2826 14.597 10.7827C14.0973 10.2828 13.4198 10.0013 12.713 10ZM13.873 13.619C13.8554 13.6494 13.8302 13.6746 13.7999 13.6922C13.7695 13.7097 13.7351 13.719 13.7 13.719C13.6645 13.7195 13.6297 13.7094 13.6 13.69L12.773 13.197C12.6675 13.1284 12.58 13.0355 12.5178 12.926C12.4557 12.8165 12.4208 12.6938 12.416 12.568V11.472C12.416 11.4457 12.4212 11.4197 12.4312 11.3955C12.4413 11.3712 12.456 11.3492 12.4746 11.3306C12.4931 11.312 12.5152 11.2973 12.5394 11.2872C12.5637 11.2772 12.5897 11.272 12.616 11.272C12.6422 11.272 12.6683 11.2772 12.6925 11.2872C12.7168 11.2973 12.7388 11.312 12.7574 11.3306C12.776 11.3492 12.7907 11.3712 12.8008 11.3955C12.8108 11.4197 12.816 11.4457 12.816 11.472V12.565C12.8211 12.6214 12.8383 12.6761 12.8664 12.7253C12.8945 12.7745 12.9329 12.817 12.979 12.85L13.806 13.343C13.8286 13.3566 13.8483 13.3746 13.8639 13.3959C13.8795 13.4172 13.8908 13.4414 13.897 13.467C13.9032 13.4927 13.9043 13.5193 13.9002 13.5454C13.8961 13.5715 13.8868 13.5965 13.873 13.619Z"/>
</svg>
