<svg width="24" height="24" viewBox="0 0 24 24" fill="none"
  xmlns="http://www.w3.org/2000/svg">
  <path d="M3.36719 13.4738C3.76737 13.1717 4.11039 13.1227 4.23289 13.1145C3.88988 13.1227 3.5877 13.2615 3.36719 13.4738Z" fill="url(#paint0_linear_2296_296542)"/>
  <path d="M23.9971 11.7348C23.9644 10.2163 23.6459 8.77124 23.0906 7.4405C22.7149 9.86522 21.4408 10.8286 20.616 11.196C20.4036 11.3348 20.1504 11.4327 19.8728 11.4327H14.8501L12.5715 13.3023V6.94249L7.73659 11.4327H4.12678C3.71843 11.4327 3.35908 11.2368 3.12223 10.9592C2.15036 10.3551 0.876308 9.06514 1.31733 6.55878C0.435289 8.27323 -0.0383977 10.2163 0.00243733 12.2818C0.0514394 14.3718 0.639463 16.3312 1.62767 18.0293C1.86451 15.1719 2.69755 13.9717 3.35908 13.4737C3.57959 13.2615 3.88176 13.1472 4.22478 13.1308C4.24928 13.1308 4.26561 13.1472 4.26561 13.1472H8.40629L10.9381 10.8531V16.919L15.4626 13.1472H19.7258C20.1096 13.1472 20.4445 13.286 20.6813 13.5309C21.6042 14.1269 22.7476 15.5311 21.8737 18.8049C23.2621 16.8128 24.0543 14.3636 23.9971 11.7348Z" fill="url(#paint1_linear_2296_296542)"/>
  <path d="M3.12224 10.9429C2.85273 10.6326 2.73023 10.1918 2.8364 9.75092C3.8491 5.62807 7.57326 2.56655 11.9998 2.56655C16.4263 2.56655 20.1505 5.62807 21.1632 9.75092C21.302 10.3224 21.057 10.8776 20.6078 11.1796C21.4327 10.8123 22.7067 9.85706 23.0824 7.43233C21.3102 3.16253 17.1368 0.117333 12.2611 0.00303622C7.49976 -0.103097 3.33458 2.58288 1.30917 6.54245C0.876316 9.05698 2.1422 10.3469 3.12224 10.9429Z" fill="url(#paint2_linear_2296_296542)"/>
  <path d="M20.6813 13.5146C21.008 13.8493 21.155 14.3555 20.9917 14.8535C19.783 18.6661 16.2058 21.4337 11.9998 21.4337C7.79379 21.4337 4.21664 18.6661 3.00792 14.8535C2.84458 14.331 3.00792 13.8003 3.36727 13.4656C2.69757 13.9636 1.86454 15.1556 1.63586 18.0212C3.67762 21.5154 7.4426 23.8993 11.7384 23.9972C15.9445 24.087 19.6686 22.0052 21.8819 18.8049C22.7476 15.5311 21.6042 14.1106 20.6813 13.5146Z" fill="url(#paint3_linear_2296_296542)"/>
  <g opacity="0.1">
    <path d="M3.12229 10.9429C2.85278 10.6326 2.73027 10.1918 2.83644 9.75092C2.84461 9.71827 2.85278 9.67745 2.86095 9.64479C1.6849 8.35487 1.31738 6.54245 1.31738 6.54245C0.876365 9.05698 2.14225 10.3469 3.12229 10.9429Z" fill="black"/>
    <path d="M21.1958 9.93051C21.253 10.4367 21.0162 10.9184 20.616 11.1796C21.4408 10.8122 22.7149 9.85704 23.0906 7.43231C23.0906 7.44048 22.3719 9.13044 21.1958 9.93051Z" fill="black"/>
    <path d="M20.6813 13.5146C21.008 13.8493 21.155 14.3555 20.9916 14.8535C20.9835 14.8861 20.9671 14.9188 20.959 14.9596C22.0615 16.6577 21.8818 18.8049 21.8818 18.8049C22.7475 15.5311 21.6041 14.1105 20.6813 13.5146Z" fill="black"/>
    <path d="M3.00792 14.8616C2.84458 14.3391 3.00792 13.8085 3.36727 13.4737C2.69757 13.9717 1.86454 15.1637 1.63586 18.0293C1.63586 18.0293 2.09322 16.323 3.09776 15.131C3.06509 15.0331 3.03242 14.9514 3.00792 14.8616Z" fill="black"/>
  </g>
  <path d="M18.1331 8.57583C18.5345 8.57583 18.86 8.2504 18.86 7.84897C18.86 7.44753 18.5345 7.1221 18.1331 7.1221C17.7317 7.1221 17.4062 7.44753 17.4062 7.84897C17.4062 8.2504 17.7317 8.57583 18.1331 8.57583Z" fill="url(#paint4_linear_2296_296542)"/>
  <path d="M16.9245 5.53827C13.919 3.32581 9.73749 3.49725 6.91988 5.94647C6.57686 6.24854 6.56053 6.77921 6.89538 7.08944C7.18122 7.35886 7.62224 7.35885 7.92442 7.10577C10.1948 5.13007 13.5433 4.98311 15.9771 6.73839C16.2956 6.96698 16.7366 6.93432 17.0225 6.65675C17.341 6.33835 17.292 5.80768 16.9245 5.53827Z" fill="url(#paint5_linear_2296_296542)"/>
  <path d="M6.18487 16.8868C6.58631 16.8868 6.91174 16.5614 6.91174 16.16C6.91174 15.7585 6.58631 15.4331 6.18487 15.4331C5.78344 15.4331 5.45801 15.7585 5.45801 16.16C5.45801 16.5614 5.78344 16.8868 6.18487 16.8868Z" fill="url(#paint6_linear_2296_296542)"/>
  <path d="M7.39356 18.4701C10.399 20.6826 14.5805 20.5111 17.3981 18.0619C17.7412 17.7599 17.7575 17.2292 17.4226 16.919C17.1368 16.6495 16.6958 16.6495 16.3936 16.9026C14.1232 18.8783 10.7747 19.0253 8.34093 17.27C8.02242 17.0414 7.5814 17.0741 7.29555 17.3517C6.97704 17.6701 7.02604 18.2007 7.39356 18.4701Z" fill="url(#paint7_linear_2296_296542)"/>
  <defs>
    <linearGradient id="paint0_linear_2296_296542" x1="3.3644" y1="13.2932" x2="4.22611" y2="13.2932" gradientUnits="userSpaceOnUse">
      <stop stop-color="#00EFFF"/>
      <stop offset="0.9946" stop-color="#C418FF"/>
    </linearGradient>
    <linearGradient id="paint1_linear_2296_296542" x1="3.99573" y1="12.4721" x2="22.4435" y2="12.9847" gradientUnits="userSpaceOnUse">
      <stop stop-color="#00EFFF"/>
      <stop offset="0.9946" stop-color="#F918FF"/>
    </linearGradient>
    <linearGradient id="paint2_linear_2296_296542" x1="18.1785" y1="7.38446" x2="-9.72028" y2="2.08747" gradientUnits="userSpaceOnUse">
      <stop stop-color="#00EFFF"/>
      <stop offset="0.9946" stop-color="#C418FF"/>
    </linearGradient>
    <linearGradient id="paint3_linear_2296_296542" x1="-0.834794" y1="19.0109" x2="22.2819" y2="18.2705" gradientUnits="userSpaceOnUse">
      <stop stop-color="#00EFFF"/>
      <stop offset="0.9946" stop-color="#C418FF"/>
    </linearGradient>
    <linearGradient id="paint4_linear_2296_296542" x1="15.0087" y1="7.03226" x2="-1.90183" y2="2.59112" gradientUnits="userSpaceOnUse">
      <stop stop-color="#00EFFF"/>
      <stop offset="0.9946" stop-color="#C418FF"/>
    </linearGradient>
    <linearGradient id="paint5_linear_2296_296542" x1="14.8925" y1="6.857" x2="-1.10054" y2="2.65531" gradientUnits="userSpaceOnUse">
      <stop stop-color="#00EFFF"/>
      <stop offset="0.9946" stop-color="#C418FF"/>
    </linearGradient>
    <linearGradient id="paint6_linear_2296_296542" x1="9.30964" y1="16.9767" x2="26.2202" y2="21.4178" gradientUnits="userSpaceOnUse">
      <stop stop-color="#00EFFF"/>
      <stop offset="0.9946" stop-color="#C418FF"/>
    </linearGradient>
    <linearGradient id="paint7_linear_2296_296542" x1="9.42589" y1="17.1514" x2="25.4189" y2="21.3531" gradientUnits="userSpaceOnUse">
      <stop stop-color="#00EFFF"/>
      <stop offset="0.9946" stop-color="#C418FF"/>
    </linearGradient>
  </defs>
</svg>