<svg width="24" height="24" viewBox="0 0 24 24" fill="none"
  xmlns="http://www.w3.org/2000/svg">
  <path d="M7.89844 13.0818L10.8734 3.5918H13.2734L16.2474 13.0818H14.2724L13.6724 11.0938H10.4384L9.84844 13.0818H7.89844ZM10.8864 9.3888H13.2214L12.0544 5.2208L10.8864 9.3888Z" fill="currentColor"/>
  <path d="M16.2725 17.761H6.92188C6.81108 17.7856 6.69647 17.7848 6.58594 17.7591C6.47541 17.7333 6.37172 17.6826 6.2832 17.6116C6.19469 17.5406 6.12331 17.4512 6.07422 17.3489C6.02513 17.2466 6 17.1343 6 17.0208C6 16.9073 6.02513 16.795 6.07422 16.6927C6.12331 16.5903 6.19469 16.5 6.2832 16.429C6.37172 16.358 6.47541 16.3083 6.58594 16.2825C6.69647 16.2568 6.81108 16.256 6.92188 16.2806H16.2725C16.3836 16.2552 16.4982 16.2552 16.6094 16.2806C16.7205 16.3059 16.8249 16.356 16.9141 16.427C17.0032 16.4981 17.0755 16.589 17.125 16.6917C17.1745 16.7944 17.2002 16.9068 17.2002 17.0208C17.2002 17.1348 17.1745 17.2472 17.125 17.3499C17.0755 17.4526 17.0032 17.5425 16.9141 17.6136C16.8249 17.6847 16.7205 17.7356 16.6094 17.761C16.4982 17.7864 16.3836 17.7864 16.2725 17.761Z" fill="currentColor"/>
  <path d="M16.2725 18.0109H6.92188C6.78007 18.0311 6.63545 18.0202 6.49805 17.9797C6.36065 17.9392 6.23417 17.8694 6.12598 17.7756C6.01778 17.6817 5.93056 17.566 5.87109 17.4357C5.81163 17.3054 5.78125 17.1639 5.78125 17.0207C5.78125 16.8774 5.81163 16.736 5.87109 16.6056C5.93056 16.4753 6.01778 16.3587 6.12598 16.2648C6.23417 16.171 6.36065 16.1022 6.49805 16.0617C6.63545 16.0212 6.78007 16.0102 6.92188 16.0304H16.2725C16.4169 16.0052 16.5645 16.0119 16.7061 16.05C16.8476 16.0881 16.9795 16.1568 17.0918 16.2512C17.204 16.3455 17.2945 16.463 17.3564 16.5959C17.4184 16.7288 17.4502 16.8741 17.4502 17.0207C17.4502 17.1673 17.4184 17.3116 17.3564 17.4445C17.2945 17.5774 17.204 17.6959 17.0918 17.7902C16.9795 17.8845 16.8476 17.9533 16.7061 17.9914C16.5645 18.0295 16.4169 18.0362 16.2725 18.0109ZM6.92188 16.5304C6.55687 16.5304 6.24805 16.7557 6.24805 17.0207C6.24805 17.2857 6.55687 17.5109 6.92188 17.5109H16.2725C16.6395 17.5109 16.9492 17.2857 16.9492 17.0207C16.9492 16.7557 16.6395 16.5304 16.2725 16.5304H6.92188Z" fill="currentColor"/>
  <path d="M15.0049 19.5801C14.922 19.4972 14.8564 19.3984 14.8115 19.2901C14.7667 19.1817 14.7432 19.0655 14.7432 18.9483C14.7432 18.831 14.7667 18.7148 14.8115 18.6065C14.8564 18.4981 14.922 18.4003 15.0049 18.3174L16.2998 17.0176L15.0049 15.7168C14.9214 15.6344 14.8557 15.5361 14.8106 15.4277C14.7654 15.3194 14.742 15.2033 14.7422 15.0859C14.7415 14.9684 14.7644 14.8517 14.8096 14.7432C14.8548 14.6346 14.921 14.5365 15.0049 14.4541C15.0871 14.3703 15.1856 14.304 15.294 14.2588C15.4023 14.2136 15.5183 14.1908 15.6358 14.1914C15.7532 14.1915 15.8701 14.2146 15.9785 14.2598C16.087 14.3049 16.1857 14.3708 16.2686 14.4541L18.1953 16.3809C18.362 16.5494 18.4551 16.7776 18.4551 17.0147C18.4551 17.2517 18.362 17.479 18.1953 17.6475L16.2686 19.5742C16.1004 19.741 15.8726 19.8345 15.6358 19.835C15.5189 19.8363 15.4032 19.8143 15.2949 19.7705C15.1866 19.7267 15.088 19.6622 15.0049 19.5801Z" fill="currentColor"/>
</svg>
