<svg width="20" height="20" viewBox="0 0 20 20" fill="none" xmlns="http://www.w3.org/2000/svg">
<path d="M9.70801 15.312C9.41135 15.312 9.09635 15.3043 8.76301 15.289C8.42968 15.2737 8.09201 15.249 7.75001 15.215C7.40535 15.1783 7.08035 15.1433 6.77501 15.11C6.46968 15.0767 6.19668 15.0343 5.95601 14.983V13.533C6.26201 13.553 6.61968 13.573 7.02901 13.593C7.43835 13.613 7.86701 13.628 8.31501 13.638C8.76301 13.648 9.19468 13.653 9.61001 13.653C10.0006 13.6573 10.3905 13.6194 10.773 13.54C11.0689 13.4866 11.3425 13.3475 11.56 13.14C11.658 13.0309 11.7331 12.9033 11.781 12.7647C11.8289 12.6261 11.8486 12.4793 11.839 12.333V11.81C11.8498 11.6426 11.8229 11.4748 11.7605 11.3191C11.698 11.1634 11.6015 11.0236 11.478 10.91C11.1715 10.6822 10.7928 10.5731 10.412 10.603H9.28201C8.3844 10.6593 7.49212 10.4289 6.73401 9.945C6.41429 9.66862 6.16611 9.31904 6.01062 8.92606C5.85513 8.53307 5.79695 8.10832 5.84101 7.688V7.12C5.80146 6.68451 5.86972 6.24599 6.03976 5.84312C6.2098 5.44026 6.47639 5.08545 6.81601 4.81C7.64982 4.28613 8.62726 4.03774 9.61001 4.1C10.0253 4.1 10.454 4.11733 10.896 4.152C11.338 4.18667 11.7613 4.229 12.166 4.279C12.57 4.329 12.914 4.38367 13.198 4.443V5.893C12.7173 5.863 12.1683 5.833 11.551 5.803C10.9337 5.773 10.363 5.75867 9.83902 5.76C9.46882 5.75483 9.09939 5.79513 8.73901 5.88C8.45811 5.93816 8.20448 6.08801 8.01801 6.306C7.83713 6.5698 7.75046 6.88687 7.77201 7.206V7.565C7.75231 7.75146 7.78034 7.93987 7.85346 8.11252C7.92658 8.28517 8.04239 8.4364 8.19001 8.552C8.55342 8.76253 8.9708 8.86131 9.39001 8.836H10.663C11.2677 8.8136 11.8688 8.93672 12.416 9.195C12.8491 9.40946 13.2063 9.75101 13.44 10.174C13.6684 10.6104 13.7826 11.0975 13.772 11.59V12.29C13.8158 12.9592 13.6311 13.6235 13.248 14.174C12.8803 14.6255 12.3731 14.942 11.806 15.074C11.1196 15.2419 10.4146 15.3218 9.70801 15.312Z" />
<path d="M8.99504 2.241H10.614L10.814 4.262H8.79504L8.99504 2.241Z" />
<path d="M8.99504 17.333H10.614L10.816 15.186H8.79504L8.99504 17.333Z" />
</svg>
