<svg id="vuesax_bold_archive-book" data-name="vuesax/bold/archive-book" xmlns="http://www.w3.org/2000/svg" width="20.002" height="20.002" viewBox="0 0 20.002 20.002">
  <g id="archive-book">
    <path id="Vector" d="M0,0H20V20H0Z" transform="translate(20.002 20.002) rotate(180)" fill="none" opacity="0"/>
    <path id="Vector-2" data-name="Vector" d="M4.884.417V5.334a.418.418,0,0,1-.7.308L2.725,4.3a.413.413,0,0,0-.567,0L.7,5.634a.416.416,0,0,1-.7-.3V.417A.413.413,0,0,1,.417,0h4.05A.413.413,0,0,1,4.884.417Z" transform="translate(7.559 1.667)"/>
    <path id="Vector-3" data-name="Vector" d="M11.651,0a.418.418,0,0,0-.458.417V5.437A1.6,1.6,0,0,1,8.509,6.612l-.725-.667a.413.413,0,0,0-.567,0l-.725.667A1.6,1.6,0,0,1,4.767,6.9a1.606,1.606,0,0,1-.958-1.467V.42A.418.418,0,0,0,3.35,0C1.017.3,0,1.87,0,4.121v8.334c0,2.5,1.25,4.167,4.167,4.167h6.667c2.917,0,4.167-1.667,4.167-4.167V4.121C15,1.87,13.985.3,11.651,0Zm.433,13.91H5a.625.625,0,1,1,0-1.25h7.084a.625.625,0,1,1,0,1.25Zm0-3.334H8.543a.625.625,0,0,1,0-1.25h3.542a.625.625,0,0,1,0,1.25Z" transform="translate(2.5 1.713)"/>
  </g>
</svg>
