<svg width="21" height="21" viewBox="0 0 21 21" fill="none" xmlns="http://www.w3.org/2000/svg">
<path d="M9.84665 9.66016V19.3203H6.8314C6.14869 19.3804 5.46058 19.2954 4.81596 19.0713C4.17133 18.8471 3.58601 18.4894 3.10157 18.0236C2.61714 17.5577 2.24547 16.9951 2.01299 16.3757C1.7805 15.7563 1.6929 15.0954 1.7564 14.4398V9.66016H9.84665Z"/>
<path d="M19.2504 9.66016V14.4398C19.3128 15.0949 19.2244 15.755 18.9914 16.3736C18.7584 16.9921 18.3866 17.5539 17.9023 18.019C17.418 18.4841 16.8331 18.8412 16.189 19.0649C15.5449 19.2886 14.8575 19.3735 14.1754 19.3136H11.1602V9.66016H19.2504Z"/>
<path d="M19.2558 7.39354V8.40191H1.75575V7.39354C1.69334 6.73851 1.78176 6.07832 2.01474 5.45979C2.24771 4.84125 2.61954 4.27951 3.10385 3.8144C3.58816 3.34929 4.17309 2.99221 4.81716 2.76847C5.46124 2.54473 6.14868 2.45982 6.83075 2.51975H14.1685C14.8515 2.45798 15.5404 2.54152 16.186 2.76443C16.8316 2.98735 17.4181 3.34416 17.9038 3.80948C18.3895 4.2748 18.7624 4.8372 18.9961 5.45666C19.2298 6.07613 19.3184 6.73743 19.2558 7.39354Z"/>
</svg>
