<svg width="18" height="18" viewBox="0 0 18 18" fill="none"
  xmlns="http://www.w3.org/2000/svg">
  <path fill-rule="evenodd" clip-rule="evenodd" d="M11.7223 4.45513C12.7677 4.51298 13.8057 4.59038 14.8446 4.69386C14.9734 4.70609 15.0923 4.7683 15.1758 4.86716C15.2592 4.96601 15.3006 5.09364 15.2911 5.22267C15.2787 5.34255 15.2224 5.45361 15.133 5.53451C15.0437 5.61542 14.9276 5.66048 14.8071 5.66104H14.7558C11.3671 5.27773 7.94875 5.23242 4.55113 5.52578L3.23521 5.65452C3.17213 5.66046 3.1085 5.65392 3.04795 5.63527C2.9874 5.61661 2.93112 5.58622 2.88232 5.54581C2.83352 5.50541 2.79315 5.45579 2.76353 5.39979C2.7339 5.34378 2.7156 5.28249 2.70966 5.21942C2.70372 5.15634 2.71026 5.09271 2.72892 5.03216C2.74757 4.97161 2.77796 4.91533 2.81837 4.86653C2.85877 4.81772 2.90839 4.77736 2.96439 4.74773C3.0204 4.71811 3.08169 4.6998 3.14477 4.69386L4.46068 4.56431C5.06038 4.51053 5.66089 4.46816 6.26059 4.42905L6.39585 3.60365C6.49933 2.97788 6.64111 2.1264 8.14443 2.1264H9.83434C11.3351 2.1264 11.484 3.00928 11.5842 3.60324L11.5854 3.61017L11.7223 4.44861V4.45513ZM13.3899 6.38486C13.4904 6.42811 13.5812 6.49117 13.6568 6.57027C13.7325 6.6524 13.7909 6.74887 13.8287 6.85397C13.8665 6.95907 13.8828 7.07067 13.8768 7.1822L13.4767 13.7944C13.4058 14.7778 13.3154 16 11.0641 16H6.9224C4.67271 16 4.58064 14.7721 4.50975 13.7944L4.10886 7.17649C4.1034 7.06583 4.12012 6.95519 4.15805 6.85108C4.19597 6.74697 4.25432 6.6515 4.32968 6.57027C4.40513 6.49052 4.49609 6.42705 4.59698 6.38375C4.69787 6.34045 4.80655 6.31824 4.91634 6.3185H13.0718C13.1812 6.31903 13.2894 6.3416 13.3899 6.38486ZM7.91565 12.7693H10.0643V12.7702C10.1927 12.7702 10.3158 12.7192 10.4065 12.6284C10.4973 12.5376 10.5483 12.4145 10.5483 12.2862C10.5483 12.1578 10.4973 12.0347 10.4065 11.9439C10.3158 11.8532 10.1927 11.8022 10.0643 11.8022H7.91565C7.79083 11.8073 7.67282 11.8605 7.58632 11.9506C7.49981 12.0407 7.45151 12.1608 7.45151 12.2857C7.45151 12.4107 7.49981 12.5308 7.58632 12.6209C7.67282 12.711 7.79083 12.7642 7.91565 12.7693ZM7.38032 10.1888H10.6061V10.1897C10.7345 10.1897 10.8576 10.1387 10.9484 10.0479C11.0391 9.95713 11.0901 9.83402 11.0901 9.70566C11.0901 9.57729 11.0391 9.45419 10.9484 9.36342C10.8576 9.27265 10.7345 9.22166 10.6061 9.22166H7.38032C7.31514 9.21898 7.2501 9.22951 7.18909 9.25261C7.12809 9.2757 7.07238 9.31089 7.02532 9.35606C6.97826 9.40123 6.94081 9.45545 6.91523 9.51545C6.88965 9.57546 6.87647 9.64002 6.87647 9.70525C6.87647 9.77048 6.88965 9.83504 6.91523 9.89504C6.94081 9.95505 6.97826 10.0093 7.02532 10.0544C7.07238 10.0996 7.12809 10.1348 7.18909 10.1579C7.2501 10.181 7.31514 10.1915 7.38032 10.1888Z" fill="currentColor"/>
</svg>
