<svg width="24" height="24" viewBox="0 0 24 24" fill="none"
  xmlns="http://www.w3.org/2000/svg">
  <path d="M4 5.25L4 18.75C4 19.4404 4.55964 20 5.25 20C5.94036 20 6.5 19.4404 6.5 18.75L6.5 5.25C6.5 4.55964 5.94036 4 5.25 4C4.55964 4 4 4.55964 4 5.25Z" fill="currentColor"/>
  <path d="M17.5 5.25V18.75C17.5 19.4404 18.0596 20 18.75 20C19.4404 20 20 19.4404 20 18.75V5.25C20 4.55964 19.4404 4 18.75 4C18.0596 4 17.5 4.55964 17.5 5.25Z" fill="currentColor"/>
  <path d="M9.576 13.5L17.5 13.5C18.1904 13.5 18.75 12.9404 18.75 12.25C18.75 11.5596 18.1904 11 17.5 11L9.576 11C8.88564 11 8.326 11.5596 8.326 12.25C8.326 12.9404 8.88564 13.5 9.576 13.5Z" fill="currentColor"/>
</svg>
