<svg width="24" height="24" viewBox="0 0 24 24" fill="none"
  xmlns="http://www.w3.org/2000/svg">
  <path d="M12.49 16.918L3 13.943L3 11.543L12.49 8.56897V10.544L10.502 11.144V14.378L12.49 14.968V16.918ZM8.797 13.93V11.595L4.629 12.762L8.797 13.93Z" fill="currentColor"/>
  <path d="M18.6597 8.17969V17.5303C18.6842 17.6411 18.6835 17.7557 18.6577 17.8662C18.6319 17.9767 18.5813 18.0804 18.5102 18.1689C18.4392 18.2575 18.3499 18.3288 18.2475 18.3779C18.1452 18.427 18.0329 18.4521 17.9194 18.4521C17.8059 18.4521 17.6936 18.427 17.5913 18.3779C17.489 18.3288 17.3986 18.2575 17.3276 18.1689C17.2566 18.0804 17.2069 17.9767 17.1811 17.8662C17.1554 17.7557 17.1546 17.6411 17.1792 17.5303V8.17969C17.1538 8.06853 17.1538 7.95393 17.1792 7.84277C17.2046 7.73162 17.2546 7.62722 17.3257 7.53809C17.3968 7.44895 17.4876 7.37661 17.5903 7.32715C17.693 7.27768 17.8054 7.25195 17.9194 7.25195C18.0334 7.25195 18.1458 7.27768 18.2485 7.32715C18.3512 7.37661 18.4411 7.44895 18.5122 7.53809C18.5833 7.62722 18.6343 7.73162 18.6597 7.84277C18.685 7.95393 18.685 8.06853 18.6597 8.17969Z" fill="currentColor"/>
  <path d="M18.9095 8.17969V17.5303C18.9297 17.6721 18.9188 17.8167 18.8783 17.9541C18.8378 18.0915 18.7681 18.218 18.6742 18.3262C18.5803 18.4344 18.4647 18.5216 18.3343 18.5811C18.204 18.6405 18.0625 18.6709 17.9193 18.6709C17.7761 18.6709 17.6346 18.6405 17.5043 18.5811C17.3739 18.5216 17.2573 18.4344 17.1634 18.3262C17.0696 18.218 17.0008 18.0915 16.9603 17.9541C16.9198 17.8167 16.9089 17.6721 16.9291 17.5303V8.17969C16.9038 8.03525 16.9105 7.88768 16.9486 7.74609C16.9867 7.60451 17.0554 7.4726 17.1498 7.36035C17.2441 7.2481 17.3616 7.15762 17.4945 7.0957C17.6274 7.03379 17.7727 7.00195 17.9193 7.00195C18.0659 7.00195 18.2102 7.03379 18.3431 7.0957C18.476 7.15762 18.5945 7.2481 18.6888 7.36035C18.7832 7.4726 18.8519 7.60451 18.89 7.74609C18.9281 7.88768 18.9348 8.03525 18.9095 8.17969ZM17.4291 17.5303C17.4291 17.8953 17.6543 18.2041 17.9193 18.2041C18.1843 18.2041 18.4095 17.8953 18.4095 17.5303V8.17969C18.4095 7.81269 18.1843 7.50293 17.9193 7.50293C17.6543 7.50293 17.4291 7.81269 17.4291 8.17969V17.5303Z" fill="currentColor"/>
  <path d="M20.4785 9.44627C20.3956 9.52921 20.2968 9.59475 20.1885 9.63963C20.0801 9.68452 19.964 9.70799 19.8467 9.70799C19.7294 9.70799 19.6132 9.68452 19.5049 9.63963C19.3965 9.59475 19.2988 9.52921 19.2158 9.44627L17.916 8.15135L16.6152 9.44627C16.5328 9.5298 16.4345 9.59545 16.3262 9.64061C16.2178 9.68576 16.1018 9.70921 15.9844 9.70897C15.8668 9.70969 15.7502 9.68676 15.6416 9.64159C15.533 9.59641 15.4349 9.5302 15.3525 9.44627C15.2687 9.36403 15.2024 9.26559 15.1572 9.15721C15.1121 9.04883 15.0893 8.93283 15.0899 8.81541C15.0899 8.69794 15.1131 8.5811 15.1582 8.47264C15.2033 8.36418 15.2693 8.26544 15.3525 8.1826L17.2793 6.25584C17.4478 6.08913 17.6761 5.99608 17.9131 5.99608C18.1501 5.99608 18.3774 6.08913 18.5459 6.25584L20.4727 8.1826C20.6394 8.35073 20.7329 8.57861 20.7334 8.81541C20.7347 8.93222 20.7127 9.04793 20.669 9.15623C20.6252 9.26454 20.5606 9.36316 20.4785 9.44627Z" fill="currentColor"/>
</svg>
