<svg width="20" height="20" viewBox="0 0 20 20" fill="none" xmlns="http://www.w3.org/2000/svg">
<path d="M10.76 14.928H15.204C15.3372 14.9474 15.4575 15.0178 15.5396 15.1244C15.6218 15.231 15.6592 15.3653 15.644 15.499C15.6592 15.6327 15.6218 15.767 15.5396 15.8736C15.4575 15.9802 15.3372 16.0506 15.204 16.07H10.76C10.6269 16.0506 10.5065 15.9802 10.4244 15.8736C10.3423 15.767 10.3049 15.6327 10.32 15.499C10.3049 15.3653 10.3423 15.231 10.4244 15.1244C10.5065 15.0178 10.6269 14.9474 10.76 14.928Z" />
<path d="M11.467 13.724C11.5551 13.7235 11.6413 13.7492 11.7146 13.7979C11.7879 13.8467 11.8451 13.9161 11.8788 13.9974C11.9125 14.0788 11.9212 14.1683 11.9038 14.2546C11.8864 14.3409 11.8436 14.4201 11.781 14.482L10.765 15.498L11.781 16.516C11.8642 16.5994 11.9108 16.7124 11.9106 16.8302C11.9104 16.948 11.8634 17.0609 11.78 17.144C11.6966 17.2271 11.5836 17.2737 11.4658 17.2736C11.348 17.2734 11.2352 17.2264 11.152 17.143L9.82202 15.813C9.78077 15.7718 9.74806 15.7228 9.72574 15.6689C9.70342 15.6151 9.69193 15.5573 9.69193 15.499C9.69193 15.4407 9.70342 15.3829 9.72574 15.3291C9.74806 15.2752 9.78077 15.2262 9.82202 15.185L11.152 13.854C11.1934 13.8127 11.2425 13.78 11.2966 13.7576C11.3506 13.7353 11.4085 13.7239 11.467 13.724Z" />
<path d="M4.25203 12.691C4.22091 12.6952 4.18923 12.692 4.15957 12.6817C4.1299 12.6714 4.10308 12.6543 4.08127 12.6317C4.05945 12.6091 4.04327 12.5817 4.03402 12.5517C4.02477 12.5217 4.02272 12.4899 4.02803 12.459V11.298C4.02803 11.138 4.10403 11.058 4.25603 11.058H5.23803C5.40536 11.058 5.48903 11.138 5.48903 11.298V12.459C5.49357 12.4933 5.48915 12.5282 5.47618 12.5603C5.46321 12.5923 5.44214 12.6205 5.41503 12.642C5.36152 12.6736 5.30018 12.6896 5.23803 12.688L4.25203 12.691ZM8.92203 12.725C8.50846 12.736 8.0979 12.6518 7.72203 12.479C7.39732 12.3217 7.13265 12.063 6.96803 11.742C6.78637 11.3687 6.69817 10.9569 6.71103 10.542V6.43299C6.69745 6.00128 6.78764 5.57262 6.97403 5.18299C7.14183 4.85153 7.41227 4.5832 7.74503 4.41799C8.11636 4.23882 8.52482 4.15007 8.93703 4.15899H10.696C11.1102 4.14382 11.5212 4.23615 11.889 4.42699C12.2033 4.60343 12.4533 4.87518 12.603 5.20299C12.7727 5.58958 12.8547 6.00895 12.843 6.43099V10.542C12.8634 10.8365 12.8239 11.1321 12.7268 11.4109C12.6296 11.6897 12.477 11.9459 12.278 12.164C12.0655 12.3585 11.816 12.5083 11.5444 12.6045C11.2728 12.7007 10.9846 12.7413 10.697 12.724L8.92203 12.725ZM9.32203 11.206H10.235C10.3596 11.2166 10.4851 11.2018 10.6038 11.1626C10.7226 11.1234 10.8322 11.0606 10.926 10.978C11.089 10.7885 11.1702 10.5422 11.152 10.293V6.59299C11.1655 6.4656 11.1521 6.33681 11.1129 6.21489C11.0736 6.09296 11.0093 5.98059 10.924 5.88499C10.7519 5.74066 10.5314 5.66704 10.307 5.67899H9.26803C9.15064 5.6709 9.03285 5.68696 8.92191 5.72618C8.81097 5.76539 8.70925 5.82693 8.62303 5.90699C8.46116 6.09692 8.381 6.34317 8.40003 6.59199V10.28C8.3892 10.4069 8.40496 10.5347 8.44628 10.6553C8.4876 10.7758 8.55359 10.8864 8.64003 10.98C8.83092 11.1412 9.07666 11.2225 9.32603 11.207L9.32203 11.206Z" />
</svg>
