<svg width="18" height="19" viewBox="0 0 18 19" fill="none" xmlns="http://www.w3.org/2000/svg">
<path d="M16.064 4.73828H1.935C1.41861 4.73828 1 5.15689 1 5.67328C1 6.18967 1.41861 6.60828 1.935 6.60828H16.064C16.5804 6.60828 16.999 6.18967 16.999 5.67328C16.999 5.15689 16.5804 4.73828 16.064 4.73828Z"/>
<path d="M13.2004 8.56628H4.50336C3.98697 8.56628 3.56836 8.9849 3.56836 9.50128C3.56836 10.0177 3.98697 10.4363 4.50336 10.4363H13.2004C13.7167 10.4363 14.1354 10.0177 14.1354 9.50128C14.1354 8.9849 13.7167 8.56628 13.2004 8.56628Z"/>
<path d="M10.6337 12.3943H7.07172C6.55533 12.3943 6.13672 12.8129 6.13672 13.3293C6.13672 13.8457 6.55533 14.2643 7.07172 14.2643H10.6337C11.1501 14.2643 11.5687 13.8457 11.5687 13.3293C11.5687 12.8129 11.1501 12.3943 10.6337 12.3943Z"/>
</svg>
