<svg width="24" height="24" viewBox="0 0 24 24" fill="none"
  xmlns="http://www.w3.org/2000/svg">
  <path d="M9.29586 11.0615C9.48869 10.873 9.74784 10.7676 10.0175 10.7676C10.2872 10.7676 10.5464 10.873 10.7392 11.0615L11.4296 11.7529V6.15234C11.4234 5.90808 11.514 5.6719 11.6816 5.49414C11.8492 5.31638 12.0809 5.2122 12.3252 5.2041C12.5692 5.2122 12.7994 5.31632 12.9668 5.49414C13.1341 5.67196 13.2245 5.90827 13.2177 6.15234V11.7529L13.9111 11.0615C14.0055 10.9664 14.1174 10.8913 14.2412 10.8398C14.3649 10.7884 14.4978 10.7616 14.6318 10.7617C14.7654 10.7605 14.8982 10.7863 15.0214 10.8379C15.1447 10.8895 15.2557 10.9655 15.3486 11.0615C15.4446 11.1544 15.5206 11.2664 15.5722 11.3896C15.6238 11.5129 15.6496 11.6447 15.6484 11.7783C15.6493 11.9125 15.6238 12.0461 15.5722 12.1699C15.5207 12.2938 15.4444 12.4061 15.3486 12.5L13.0488 14.8086C12.954 14.9037 12.8418 14.9798 12.7177 15.0312C12.5937 15.0827 12.4605 15.1085 12.3261 15.1084C12.1918 15.1085 12.0586 15.0827 11.9345 15.0312C11.8105 14.9798 11.6973 14.9037 11.6025 14.8086L9.29586 12.5C9.20072 12.4056 9.12567 12.2927 9.07418 12.1689C9.02269 12.0452 8.99597 11.9124 8.99605 11.7783C8.99815 11.5092 9.1057 11.2519 9.29586 11.0615Z" fill="currentColor"/>
  <path d="M19.1113 18.7705H4.89062C4.64579 18.7415 4.41961 18.6238 4.25586 18.4395C4.09211 18.2551 4.00195 18.0171 4.00195 17.7705C4.00195 17.524 4.09211 17.2859 4.25586 17.1016C4.41961 16.9173 4.64579 16.7995 4.89062 16.7705H19.1113C19.3562 16.7995 19.5823 16.9173 19.7461 17.1016C19.9098 17.2859 20 17.524 20 17.7705C20 18.0171 19.9098 18.2551 19.7461 18.4395C19.5823 18.6238 19.3562 18.7415 19.1113 18.7705Z" fill="currentColor"/>
</svg>
