<svg width="26" height="6" viewBox="0 0 26 6"  xmlns="http://www.w3.org/2000/svg">
<path d="M1 -1.50996e-07C0.447715 -1.02714e-07 -1.64958e-08 0.447715 3.17865e-08 1C8.00688e-08 1.55228 0.447715 2 1 2C1.55228 2 2 1.55228 2 1C2 0.447715 1.55228 -1.99278e-07 1 -1.50996e-07Z" />
<path d="M1 4C0.447715 4 -1.64958e-08 4.44772 3.17865e-08 5C8.00688e-08 5.55228 0.447715 6 1 6C1.55228 6 2 5.55228 2 5C2 4.44772 1.55228 4 1 4Z" />
<path d="M7 -1.50996e-07C6.44772 -1.02714e-07 6 0.447715 6 1C6 1.55228 6.44772 2 7 2C7.55228 2 8 1.55228 8 1C8 0.447715 7.55228 -1.99278e-07 7 -1.50996e-07Z" />
<path d="M7 4C6.44772 4 6 4.44772 6 5C6 5.55228 6.44772 6 7 6C7.55228 6 8 5.55228 8 5C8 4.44772 7.55228 4 7 4Z" />
<path d="M13 -1.50996e-07C12.4477 -1.02714e-07 12 0.447715 12 1C12 1.55228 12.4477 2 13 2C13.5523 2 14 1.55228 14 1C14 0.447715 13.5523 -1.99278e-07 13 -1.50996e-07Z" />
<path d="M13 4C12.4477 4 12 4.44772 12 5C12 5.55228 12.4477 6 13 6C13.5523 6 14 5.55228 14 5C14 4.44772 13.5523 4 13 4Z" />
<path d="M19 -1.50996e-07C18.4477 -1.02714e-07 18 0.447715 18 1C18 1.55228 18.4477 2 19 2C19.5523 2 20 1.55228 20 1C20 0.447715 19.5523 -1.99278e-07 19 -1.50996e-07Z" />
<path d="M19 4C18.4477 4 18 4.44772 18 5C18 5.55228 18.4477 6 19 6C19.5523 6 20 5.55228 20 5C20 4.44772 19.5523 4 19 4Z" />
<path d="M25 -1.50996e-07C24.4477 -1.02714e-07 24 0.447715 24 1C24 1.55228 24.4477 2 25 2C25.5523 2 26 1.55228 26 1C26 0.447715 25.5523 -1.99278e-07 25 -1.50996e-07Z" />
<path d="M25 4C24.4477 4 24 4.44772 24 5C24 5.55228 24.4477 6 25 6C25.5523 6 26 5.55228 26 5C26 4.44772 25.5523 4 25 4Z" />
</svg>
