<svg width="7" height="5" viewBox="0 0 7 5" fill="none" xmlns="http://www.w3.org/2000/svg">
<path d="M3.80659 4.27373C3.64026 4.43995 3.41474 4.53333 3.17959 4.53333C2.94444 4.53333 2.71892 4.43995 2.55259 4.27373L0.259591 1.98073C0.135623 1.85668 0.0512109 1.69867 0.0170193 1.52667C-0.0171723 1.35466 0.000392437 1.17638 0.0674939 1.01435C0.134595 0.85232 0.248221 0.713819 0.394013 0.616349C0.539804 0.518878 0.711218 0.466813 0.88659 0.466733L5.47359 0.466733C5.64896 0.466813 5.82038 0.518878 5.96617 0.616349C6.11196 0.713819 6.22559 0.85232 6.29269 1.01435C6.35979 1.17638 6.37735 1.35466 6.34316 1.52667C6.30897 1.69867 6.22456 1.85668 6.10059 1.98073L3.80659 4.27373Z" fill="#A7B0B5"/>
</svg>
