<svg width="24" height="24" viewBox="0 0 24 24" fill="none"
  xmlns="http://www.w3.org/2000/svg">
  <path d="M4 5.25L4 18.75C4 19.4404 4.55964 20 5.25 20C5.94036 20 6.5 19.4404 6.5 18.75L6.5 5.25C6.5 4.55964 5.94036 4 5.25 4C4.55964 4 4 4.55964 4 5.25Z" fill="currentColor"/>
  <path d="M12 5.25V7.75C12 8.44036 12.5596 9 13.25 9C13.9404 9 14.5 8.44036 14.5 7.75V5.25C14.5 4.55964 13.9404 4 13.25 4C12.5596 4 12 4.55964 12 5.25Z" fill="currentColor"/>
  <path d="M12 16.25V18.75C12 19.4404 12.5596 20 13.25 20C13.9404 20 14.5 19.4404 14.5 18.75V16.25C14.5 15.5596 13.9404 15 13.25 15C12.5596 15 12 15.5596 12 16.25Z" fill="currentColor"/>
  <path d="M15.9512 15.0948C15.7626 14.9019 15.6572 14.6428 15.6572 14.3731C15.6572 14.1034 15.7626 13.8442 15.9512 13.6514L16.6426 12.961H11.042C10.7977 12.9672 10.5615 12.8767 10.3838 12.709C10.206 12.5414 10.1019 12.3097 10.0938 12.0655C10.1018 11.8214 10.206 11.5912 10.3838 11.4239C10.5616 11.2565 10.7979 11.1662 11.042 11.1729H16.6426L15.9512 10.4795C15.856 10.3851 15.781 10.2732 15.7295 10.1495C15.678 10.0257 15.6513 9.89287 15.6514 9.75883C15.6501 9.62522 15.676 9.49245 15.7275 9.36918C15.7791 9.24592 15.8552 9.13495 15.9512 9.04203C16.0441 8.94601 16.156 8.86998 16.2793 8.8184C16.4026 8.76683 16.5344 8.74099 16.668 8.74223C16.8021 8.74131 16.9357 8.76686 17.0596 8.8184C17.1834 8.86994 17.2957 8.94622 17.3896 9.04203L19.6982 11.3418C19.7934 11.4367 19.8694 11.5488 19.9209 11.6729C19.9724 11.797 19.9981 11.9302 19.998 12.0645C19.9981 12.1988 19.9724 12.332 19.9209 12.4561C19.8694 12.5802 19.7934 12.6933 19.6982 12.7881L17.3896 15.0948C17.2952 15.1899 17.1823 15.265 17.0586 15.3164C16.9348 15.3679 16.802 15.3947 16.668 15.3946C16.3989 15.3925 16.1416 15.2849 15.9512 15.0948Z" fill="currentColor"/>
</svg>
