<svg width="21" height="20" viewBox="0 0 21 20" fill="none" xmlns="http://www.w3.org/2000/svg">
<path d="M4.52591 12.291C4.07251 12.2912 3.62924 12.1569 3.25217 11.9051C2.8751 11.6533 2.58117 11.2954 2.40757 10.8765C2.23397 10.4577 2.1885 9.99677 2.2769 9.55207C2.36531 9.10737 2.58362 8.69888 2.90422 8.37828C3.22482 8.05768 3.63331 7.83937 4.07801 7.75096C4.52271 7.66256 4.98363 7.70803 5.40248 7.88163C5.82133 8.05523 6.17928 8.34916 6.43106 8.72623C6.68283 9.1033 6.81711 9.54657 6.81691 9.99997C6.81704 10.3009 6.75787 10.5988 6.64279 10.8769C6.5277 11.1549 6.35895 11.4075 6.14619 11.6202C5.93342 11.833 5.68081 12.0018 5.40279 12.1168C5.12478 12.2319 4.82681 12.2911 4.52591 12.291ZM4.52591 8.95797C4.31978 8.95777 4.11822 9.01872 3.94673 9.13309C3.77525 9.24747 3.64154 9.41014 3.56252 9.60052C3.4835 9.7909 3.46272 10.0004 3.50281 10.2026C3.5429 10.4048 3.64207 10.5906 3.78775 10.7364C3.93344 10.8822 4.1191 10.9816 4.32126 11.0219C4.52341 11.0622 4.73298 11.0416 4.92344 10.9627C5.11389 10.8839 5.27669 10.7504 5.39123 10.579C5.50577 10.4076 5.56691 10.2061 5.56691 9.99997C5.56691 9.72379 5.45727 9.4589 5.26207 9.26352C5.06687 9.06813 4.80209 8.95824 4.52591 8.95797Z"/>
<path d="M16.1929 12.291C15.7395 12.2912 15.2962 12.1569 14.9192 11.9051C14.5421 11.6533 14.2482 11.2954 14.0746 10.8765C13.901 10.4577 13.8555 9.99677 13.9439 9.55207C14.0323 9.10737 14.2506 8.69888 14.5712 8.37828C14.8918 8.05768 15.3003 7.83937 15.745 7.75096C16.1897 7.66256 16.6506 7.70803 17.0695 7.88163C17.4883 8.05523 17.8463 8.34916 18.098 8.72623C18.3498 9.1033 18.4841 9.54657 18.4839 9.99997C18.484 10.3009 18.4249 10.5988 18.3098 10.8769C18.1947 11.1549 18.0259 11.4075 17.8132 11.6202C17.6004 11.833 17.3478 12.0018 17.0698 12.1168C16.7918 12.2319 16.4938 12.2911 16.1929 12.291ZM16.1929 8.95797C15.9868 8.95777 15.7852 9.01872 15.6137 9.13309C15.4422 9.24747 15.3085 9.41014 15.2295 9.60052C15.1505 9.7909 15.1297 10.0004 15.1698 10.2026C15.2099 10.4048 15.3091 10.5906 15.4547 10.7364C15.6004 10.8822 15.7861 10.9816 15.9883 11.0219C16.1904 11.0622 16.4 11.0416 16.5904 10.9627C16.7809 10.8839 16.9437 10.7504 17.0582 10.579C17.1728 10.4076 17.2339 10.2061 17.2339 9.99997C17.2339 9.72379 17.1243 9.4589 16.9291 9.26352C16.7339 9.06813 16.4691 8.95824 16.1929 8.95797Z"/>
<path d="M10.3589 12.291C9.90552 12.2912 9.46225 12.1569 9.08518 11.9051C8.7081 11.6533 8.41418 11.2954 8.24058 10.8765C8.06698 10.4577 8.0215 9.99677 8.10991 9.55207C8.19832 9.10737 8.41663 8.69888 8.73723 8.37828C9.05783 8.05768 9.46632 7.83937 9.91102 7.75096C10.3557 7.66256 10.8166 7.70803 11.2355 7.88163C11.6543 8.05523 12.0123 8.34916 12.2641 8.72623C12.5158 9.1033 12.6501 9.54657 12.6499 9.99997C12.6501 10.3009 12.5909 10.5988 12.4758 10.8769C12.3607 11.1549 12.192 11.4075 11.9792 11.6202C11.7664 11.833 11.5138 12.0018 11.2358 12.1168C10.9578 12.2319 10.6598 12.2911 10.3589 12.291ZM10.3589 8.95797C10.1528 8.95777 9.95123 9.01872 9.77974 9.13309C9.60825 9.24747 9.47454 9.41014 9.39552 9.60052C9.3165 9.7909 9.29573 10.0004 9.33582 10.2026C9.37591 10.4048 9.47507 10.5906 9.62076 10.7364C9.76645 10.8822 9.95211 10.9816 10.1543 11.0219C10.3564 11.0622 10.566 11.0416 10.7564 10.9627C10.9469 10.8839 11.1097 10.7504 11.2242 10.579C11.3388 10.4076 11.3999 10.2061 11.3999 9.99997C11.3999 9.72379 11.2903 9.4589 11.0951 9.26352C10.8999 9.06813 10.6351 8.95824 10.3589 8.95797Z"/>
</svg>
