<svg width="5" height="4" viewBox="0 0 5 4" fill="none" xmlns="http://www.w3.org/2000/svg">
<path d="M3.04172 3.3236C2.91758 3.44769 2.74924 3.5174 2.57372 3.5174C2.3982 3.5174 2.22986 3.44769 2.10572 3.3236L0.394719 1.6126C0.302298 1.52014 0.239322 1.40239 0.213731 1.27419C0.188141 1.14598 0.201082 1.01308 0.250922 0.892217C0.300763 0.77136 0.385271 0.667965 0.493792 0.595069C0.602313 0.522173 0.729988 0.48304 0.860719 0.482605L4.28572 0.482605C4.41662 0.482646 4.54457 0.521494 4.6534 0.594238C4.76222 0.666982 4.84704 0.770357 4.89713 0.891296C4.94722 1.01223 4.96033 1.14531 4.9348 1.2737C4.90927 1.40208 4.84626 1.52002 4.75372 1.6126L3.04172 3.3236Z" fill="#3BC7FF"/>
</svg>
