<svg width="20" height="20" viewBox="0 0 20 20" fill="none" xmlns="http://www.w3.org/2000/svg">
<path d="M17.098 16.55H12.61C12.4754 16.5306 12.3536 16.4595 12.2705 16.3518C12.1874 16.2441 12.1496 16.1082 12.165 15.973C12.1496 15.8379 12.1874 15.702 12.2705 15.5943C12.3536 15.4866 12.4754 15.4154 12.61 15.396H17.098C17.2327 15.4154 17.3544 15.4866 17.4375 15.5943C17.5206 15.702 17.5584 15.8379 17.543 15.973C17.5584 16.1082 17.5206 16.2441 17.4375 16.3518C17.3544 16.4595 17.2327 16.5306 17.098 16.55Z" />
<path d="M16.383 17.765C16.2943 17.7651 16.2076 17.7389 16.1339 17.6896C16.0601 17.6404 16.0026 17.5704 15.9687 17.4885C15.9348 17.4066 15.9259 17.3165 15.9432 17.2295C15.9605 17.1425 16.0033 17.0627 16.066 17L17.093 15.974L16.066 14.945C15.9821 14.8608 15.935 14.7467 15.9352 14.6278C15.9354 14.5089 15.9828 14.395 16.067 14.311C16.1512 14.2271 16.2653 14.18 16.3842 14.1802C16.5031 14.1804 16.6171 14.2278 16.701 14.312L18.044 15.656C18.0857 15.6977 18.1188 15.7472 18.1413 15.8017C18.1639 15.8562 18.1755 15.9145 18.1755 15.9735C18.1755 16.0325 18.1639 16.0909 18.1413 16.1453C18.1188 16.1998 18.0857 16.2493 18.044 16.291L16.701 17.635C16.6164 17.7187 16.502 17.7654 16.383 17.765Z" />
<path d="M2.43799 13.138C2.40645 13.1434 2.37406 13.1412 2.34356 13.1315C2.31305 13.1218 2.28531 13.105 2.26268 13.0823C2.24005 13.0597 2.22318 13.032 2.21349 13.0015C2.2038 12.9709 2.20157 12.9386 2.20699 12.907V11.731C2.20699 11.5697 2.28399 11.489 2.43799 11.489H3.43199C3.60133 11.489 3.68599 11.5697 3.68599 11.731V12.907C3.69079 12.9417 3.68639 12.9771 3.67323 13.0095C3.66006 13.042 3.6386 13.0704 3.61099 13.092C3.55684 13.1239 3.4948 13.1398 3.43199 13.138H2.43799ZM7.15499 13.173C6.73525 13.1836 6.31874 13.097 5.93799 12.92C5.61028 12.7612 5.34315 12.5001 5.17699 12.176C4.99389 11.7993 4.90501 11.3837 4.91799 10.965V6.82001C4.90404 6.38388 4.99492 5.95076 5.18299 5.55701C5.35222 5.22222 5.62511 4.95108 5.96099 4.78401C6.33647 4.6019 6.74978 4.51142 7.16699 4.52001H8.94299C9.36134 4.5046 9.77653 4.59797 10.148 4.79101C10.4652 4.96953 10.7176 5.24401 10.869 5.57501C11.0409 5.96694 11.1236 6.3922 11.111 6.82001V10.972C11.1318 11.2695 11.0919 11.5681 10.9938 11.8497C10.8956 12.1312 10.7412 12.3899 10.54 12.61C10.3249 12.8067 10.0723 12.9582 9.79745 13.0552C9.52257 13.1523 9.23096 13.193 8.93999 13.175L7.15499 13.173ZM7.55499 11.639H8.47799C8.60423 11.6499 8.73137 11.635 8.85169 11.5953C8.97202 11.5556 9.08303 11.4919 9.17799 11.408C9.34073 11.2172 9.4219 10.9701 9.40399 10.72V6.97901C9.41747 6.85031 9.40388 6.72022 9.3641 6.59709C9.32431 6.47395 9.25922 6.3605 9.17299 6.26401C8.99894 6.11867 8.77645 6.04439 8.54999 6.05601H7.50099C7.38229 6.04783 7.26317 6.06411 7.15102 6.10384C7.03887 6.14358 6.93607 6.20592 6.84899 6.28701C6.68561 6.47895 6.60473 6.72769 6.62399 6.97901V10.704C6.61272 10.8325 6.62842 10.962 6.67009 11.0841C6.71177 11.2062 6.77849 11.3182 6.86599 11.413C7.05949 11.5743 7.30766 11.6549 7.55899 11.638L7.55499 11.639Z" />
<path d="M14.222 13.172C13.802 13.1831 13.3852 13.0968 13.004 12.92C12.6766 12.7624 12.4091 12.5027 12.242 12.18C12.0589 11.8033 11.97 11.3877 11.983 10.969V6.82001C11.9691 6.38388 12.0599 5.95076 12.248 5.55701C12.4159 5.22209 12.6873 4.95029 13.022 4.78201C13.3989 4.59997 13.8136 4.51016 14.232 4.52001H16.008C16.4264 4.5046 16.8416 4.59797 17.213 4.79101C17.5302 4.96953 17.7826 5.24401 17.934 5.57501C18.106 5.96694 18.1886 6.3922 18.176 6.82001V10.972C18.1968 11.2695 18.1569 11.5681 18.0588 11.8497C17.9606 12.1312 17.8062 12.3899 17.605 12.61C17.3899 12.8067 17.1374 12.9582 16.8625 13.0552C16.5876 13.1523 16.296 13.193 16.005 13.175L14.222 13.172ZM14.622 11.638H15.545C15.6713 11.6489 15.7984 11.634 15.9187 11.5943C16.039 11.5546 16.1501 11.4909 16.245 11.407C16.4068 11.2162 16.4872 10.9695 16.469 10.72V6.97901C16.4825 6.85031 16.4689 6.72022 16.4291 6.59709C16.3893 6.47395 16.3242 6.3605 16.238 6.26401C16.064 6.11867 15.8415 6.04439 15.615 6.05601H14.566C14.4473 6.04783 14.3282 6.06411 14.216 6.10384C14.1039 6.14358 14.0011 6.20592 13.914 6.28701C13.7506 6.47895 13.6698 6.72769 13.689 6.97901V10.704C13.6777 10.8325 13.6934 10.962 13.7351 11.0841C13.7768 11.2062 13.8435 11.3182 13.931 11.413C14.124 11.5738 14.3714 11.6543 14.622 11.638Z" />
</svg>
