<svg width="50" height="50" viewBox="0 0 50 50" fill="none"
  xmlns="http://www.w3.org/2000/svg">
  <g filter="url(#filter0_f_5293_1255)">
    <circle cx="25" cy="25" r="20" fill="url(#paint0_linear_5293_1255)"/>
  </g>
  <circle cx="25" cy="25" r="20" fill="#19013A"/>
  <path d="M14.9284 26.7195C15.3953 26.367 15.7955 26.3098 15.9384 26.3003C15.5382 26.3098 15.1857 26.4718 14.9284 26.7195Z" fill="url(#paint1_linear_5293_1255)"/>
  <path d="M38.9967 24.6905C38.9586 22.9189 38.587 21.233 37.9391 19.6805C37.5008 22.5093 36.0144 23.6333 35.052 24.0619C34.8043 24.2238 34.5089 24.3381 34.185 24.3381H28.3251L25.6667 26.5193V19.0995L20.026 24.3381H15.8145C15.3381 24.3381 14.9189 24.1095 14.6426 23.7857C13.5087 23.0808 12.0223 21.5759 12.5368 18.6518C11.5078 20.652 10.9551 22.9189 11.0028 25.3287C11.06 27.767 11.746 30.053 12.8989 32.0341C13.1752 28.7004 14.1471 27.3003 14.9189 26.7193C15.1761 26.4716 15.5287 26.3383 15.9289 26.3192C15.9575 26.3192 15.9765 26.3383 15.9765 26.3383H20.8073L23.7611 23.6618V30.7388L29.0397 26.3383H34.0135C34.4613 26.3383 34.8519 26.5002 35.1283 26.786C36.2049 27.4813 37.5389 29.1195 36.5194 32.939C38.1392 30.6149 39.0634 27.7575 38.9967 24.6905Z" fill="url(#paint2_linear_5293_1255)"/>
  <path d="M14.6423 23.7667C14.3279 23.4047 14.1849 22.8904 14.3088 22.376C15.4903 17.566 19.8352 13.9942 24.9995 13.9942C30.1638 13.9942 34.5087 17.566 35.6902 22.376C35.8521 23.0428 35.5663 23.6905 35.0422 24.0429C36.0046 23.6143 37.491 22.4999 37.9293 19.671C35.8617 14.6895 30.9927 11.1368 25.3044 11.0035C19.7494 10.8796 14.89 14.0133 12.527 18.6328C12.022 21.5664 13.4989 23.0714 14.6423 23.7667Z" fill="url(#paint3_linear_5293_1255)"/>
  <path d="M35.1282 26.767C35.5093 27.1576 35.6808 27.7481 35.4903 28.3291C34.0801 32.7772 29.9067 36.0061 24.9997 36.0061C20.0927 36.0061 15.9193 32.7772 14.5091 28.3291C14.3186 27.7195 14.5091 27.1004 14.9284 26.7099C14.1471 27.2909 13.1752 28.6815 12.9084 32.0247C15.2904 36.1013 19.683 38.8826 24.6948 38.9969C29.6018 39.1017 33.9467 36.6728 36.5289 32.9391C37.5389 29.1197 36.2049 27.4624 35.1282 26.767Z" fill="url(#paint4_linear_5293_1255)"/>
  <g opacity="0.1">
    <path d="M14.6423 23.7667C14.3279 23.4048 14.185 22.8904 14.3088 22.3761C14.3184 22.338 14.3279 22.2904 14.3374 22.2523C12.9654 20.7473 12.5366 18.6328 12.5366 18.6328C12.0221 21.5665 13.499 23.0714 14.6423 23.7667Z" fill="black"/>
    <path d="M35.7284 22.5855C35.7951 23.1761 35.5188 23.738 35.0519 24.0428C36.0143 23.6142 37.5007 22.4998 37.939 19.671C37.939 19.6805 37.1005 21.6521 35.7284 22.5855Z" fill="black"/>
    <path d="M35.1282 26.767C35.5094 27.1575 35.6809 27.7481 35.4903 28.3291C35.4808 28.3672 35.4617 28.4053 35.4522 28.4529C36.7385 30.434 36.5289 32.9391 36.5289 32.9391C37.5389 29.1196 36.2049 27.4623 35.1282 26.767Z" fill="black"/>
    <path d="M14.5091 28.3386C14.3186 27.729 14.5091 27.1099 14.9284 26.7194C14.1471 27.3004 13.1752 28.691 12.9084 32.0342C12.9084 32.0342 13.442 30.0435 14.6139 28.6529C14.5758 28.5386 14.5377 28.4433 14.5091 28.3386Z" fill="black"/>
  </g>
  <path d="M32.1551 21.005C32.6235 21.005 33.0032 20.6253 33.0032 20.157C33.0032 19.6886 32.6235 19.309 32.1551 19.309C31.6868 19.309 31.3071 19.6886 31.3071 20.157C31.3071 20.6253 31.6868 21.005 32.1551 21.005Z" fill="url(#paint5_linear_5293_1255)"/>
  <path d="M30.7452 17.4612C27.2388 14.88 22.3603 15.08 19.0731 17.9375C18.6729 18.2899 18.6538 18.909 19.0445 19.2709C19.378 19.5853 19.8925 19.5853 20.2451 19.29C22.8939 16.985 26.8005 16.8135 29.6399 18.8614C30.0115 19.1281 30.526 19.09 30.8595 18.7661C31.2311 18.3947 31.1739 17.7756 30.7452 17.4612Z" fill="url(#paint6_linear_5293_1255)"/>
  <path d="M18.2155 30.7012C18.6838 30.7012 19.0635 30.3216 19.0635 29.8532C19.0635 29.3849 18.6838 29.0052 18.2155 29.0052C17.7472 29.0052 17.3675 29.3849 17.3675 29.8532C17.3675 30.3216 17.7472 30.7012 18.2155 30.7012Z" fill="url(#paint7_linear_5293_1255)"/>
  <path d="M19.6257 32.5485C23.1321 35.1297 28.0105 34.9297 31.2978 32.0722C31.698 31.7198 31.717 31.1007 31.3264 30.7388C30.9929 30.4244 30.4783 30.4244 30.1258 30.7197C27.477 33.0247 23.5704 33.1962 20.731 31.1483C20.3594 30.8816 19.8448 30.9197 19.5114 31.2436C19.1398 31.615 19.1969 32.2341 19.6257 32.5485Z" fill="url(#paint8_linear_5293_1255)"/>
  <defs>
    <filter id="filter0_f_5293_1255" x="0" y="0" width="50.0001" height="50.0001" filterUnits="userSpaceOnUse" color-interpolation-filters="sRGB">
      <feFlood flood-opacity="0" result="BackgroundImageFix"/>
      <feBlend mode="normal" in="SourceGraphic" in2="BackgroundImageFix" result="shape"/>
      <feGaussianBlur stdDeviation="2.5" result="effect1_foregroundBlur_5293_1255"/>
    </filter>
    <linearGradient id="paint0_linear_5293_1255" x1="5" y1="45.0001" x2="45.0001" y2="45.0001" gradientUnits="userSpaceOnUse">
      <stop stop-color="#00EFFF"/>
      <stop offset="1" stop-color="#F918FF"/>
    </linearGradient>
    <linearGradient id="paint1_linear_5293_1255" x1="14.9252" y1="26.5087" x2="15.9305" y2="26.5087" gradientUnits="userSpaceOnUse">
      <stop stop-color="#00EFFF"/>
      <stop offset="0.9946" stop-color="#C418FF"/>
    </linearGradient>
    <linearGradient id="paint2_linear_5293_1255" x1="15.6616" y1="25.5507" x2="37.1842" y2="26.1488" gradientUnits="userSpaceOnUse">
      <stop stop-color="#00EFFF"/>
      <stop offset="0.9946" stop-color="#F918FF"/>
    </linearGradient>
    <linearGradient id="paint3_linear_5293_1255" x1="32.2081" y1="19.6152" x2="-0.340723" y2="13.4353" gradientUnits="userSpaceOnUse">
      <stop stop-color="#00EFFF"/>
      <stop offset="0.9946" stop-color="#C418FF"/>
    </linearGradient>
    <linearGradient id="paint4_linear_5293_1255" x1="10.0259" y1="33.1795" x2="36.9956" y2="32.3156" gradientUnits="userSpaceOnUse">
      <stop stop-color="#00EFFF"/>
      <stop offset="0.9946" stop-color="#C418FF"/>
    </linearGradient>
    <linearGradient id="paint5_linear_5293_1255" x1="28.5099" y1="19.2041" x2="8.7809" y2="14.0228" gradientUnits="userSpaceOnUse">
      <stop stop-color="#00EFFF"/>
      <stop offset="0.9946" stop-color="#C418FF"/>
    </linearGradient>
    <linearGradient id="paint6_linear_5293_1255" x1="28.3745" y1="18.9998" x2="9.71589" y2="14.0978" gradientUnits="userSpaceOnUse">
      <stop stop-color="#00EFFF"/>
      <stop offset="0.9946" stop-color="#C418FF"/>
    </linearGradient>
    <linearGradient id="paint7_linear_5293_1255" x1="21.8611" y1="30.8061" x2="41.5901" y2="35.9874" gradientUnits="userSpaceOnUse">
      <stop stop-color="#00EFFF"/>
      <stop offset="0.9946" stop-color="#C418FF"/>
    </linearGradient>
    <linearGradient id="paint8_linear_5293_1255" x1="21.9968" y1="31.0099" x2="40.6554" y2="35.9119" gradientUnits="userSpaceOnUse">
      <stop stop-color="#00EFFF"/>
      <stop offset="0.9946" stop-color="#C418FF"/>
    </linearGradient>
  </defs>
</svg>
