<svg width="16" height="16" viewBox="0 0 16 16" fill="none" xmlns="http://www.w3.org/2000/svg">
  <path d="M7.37734 11.1107H8.62179V7.37734H7.37734V11.1107ZM7.99957 6.1329C8.17586 6.1329 8.32364 6.07327 8.4429 5.95401C8.56216 5.83475 8.62179 5.68697 8.62179 5.51068C8.62179 5.33438 8.56216 5.1866 8.4429 5.06734C8.32364 4.94808 8.17586 4.88845 7.99957 4.88845C7.82327 4.88845 7.67549 4.94808 7.55623 5.06734C7.43697 5.1866 7.37734 5.33438 7.37734 5.51068C7.37734 5.68697 7.43697 5.83475 7.55623 5.95401C7.67549 6.07327 7.82327 6.1329 7.99957 6.1329ZM7.99957 14.2218C7.13883 14.2218 6.32994 14.0585 5.5729 13.7318C4.81586 13.4051 4.15734 12.9618 3.59734 12.4018C3.03734 11.8418 2.59401 11.1833 2.26734 10.4262C1.94068 9.6692 1.77734 8.86031 1.77734 7.99957C1.77734 7.13883 1.94068 6.32994 2.26734 5.5729C2.59401 4.81586 3.03734 4.15734 3.59734 3.59734C4.15734 3.03734 4.81586 2.59401 5.5729 2.26734C6.32994 1.94068 7.13883 1.77734 7.99957 1.77734C8.86031 1.77734 9.6692 1.94068 10.4262 2.26734C11.1833 2.59401 11.8418 3.03734 12.4018 3.59734C12.9618 4.15734 13.4051 4.81586 13.7318 5.5729C14.0585 6.32994 14.2218 7.13883 14.2218 7.99957C14.2218 8.86031 14.0585 9.6692 13.7318 10.4262C13.4051 11.1833 12.9618 11.8418 12.4018 12.4018C11.8418 12.9618 11.1833 13.4051 10.4262 13.7318C9.6692 14.0585 8.86031 14.2218 7.99957 14.2218ZM7.99957 12.9773C9.3892 12.9773 10.5662 12.4951 11.5307 11.5307C12.4951 10.5662 12.9773 9.3892 12.9773 7.99957C12.9773 6.60994 12.4951 5.4329 11.5307 4.46845C10.5662 3.50401 9.3892 3.02179 7.99957 3.02179C6.60994 3.02179 5.4329 3.50401 4.46845 4.46845C3.50401 5.4329 3.02179 6.60994 3.02179 7.99957C3.02179 9.3892 3.50401 10.5662 4.46845 11.5307C5.4329 12.4951 6.60994 12.9773 7.99957 12.9773Z"/>
</svg>
