<svg width="6" height="9" viewBox="0 0 6 9" fill="none"
  xmlns="http://www.w3.org/2000/svg">
  <path d="M3.56045 8.47801C3.48899 8.58906 3.3908 8.6804 3.27488 8.74366C3.15895 8.80691 3.02901 8.84006 2.89695 8.84006C2.76489 8.84006 2.63495 8.80691 2.51903 8.74366C2.4031 8.6804 2.30491 8.58906 2.23345 8.47801L0.122451 5.20301C0.0462837 5.08348 0.00371933 4.94565 -0.000768185 4.80398C-0.0052557 4.66232 0.0284986 4.52207 0.0969477 4.39796C0.165397 4.27385 0.266012 4.17047 0.388221 4.09869C0.51043 4.0269 0.64972 3.98936 0.791451 3.99001L5.00245 3.99001C5.14367 3.99044 5.28219 4.02876 5.40355 4.10098C5.52491 4.1732 5.62466 4.27667 5.69239 4.40059C5.76013 4.52451 5.79336 4.66434 5.78862 4.80548C5.78388 4.94663 5.74134 5.08391 5.66545 5.20301L3.56045 8.47801Z" fill="#F07F84"/>
  <path d="M2.71308 6.47302H3.08008C3.63236 6.47302 4.08008 6.02531 4.08008 5.47302L4.08008 1.16002C4.08008 0.607738 3.63236 0.160022 3.08008 0.160022H2.71308C2.16079 0.160022 1.71308 0.607738 1.71308 1.16002L1.71308 5.47302C1.71308 6.02531 2.16079 6.47302 2.71308 6.47302Z" fill="#F07F84"/>
</svg>
