<svg width="9" height="7" viewBox="0 0 9 7" fill="none"
  xmlns="http://www.w3.org/2000/svg">
  <path d="M8.31569 2.836C8.42674 2.90746 8.51808 3.00565 8.58133 3.12158C8.64459 3.2375 8.67773 3.36745 8.67773 3.4995C8.67773 3.63156 8.64459 3.76151 8.58133 3.87743C8.51808 3.99335 8.42674 4.09154 8.31569 4.163L5.04069 6.269C4.92152 6.34494 4.78414 6.38748 4.64291 6.39218C4.50168 6.39687 4.36178 6.36356 4.23783 6.2957C4.11388 6.22785 4.01043 6.12796 3.93828 6.00646C3.86613 5.88496 3.82794 5.74631 3.82769 5.605V1.394C3.82811 1.25278 3.86644 1.11426 3.93866 0.992902C4.01088 0.871543 4.11435 0.771792 4.23827 0.704059C4.36219 0.636327 4.50202 0.603097 4.64316 0.607836C4.78431 0.612575 4.92159 0.655111 5.04069 0.731003L8.31569 2.836Z" fill="#FCDC74"/>
  <path d="M6.31055 3.68203V3.31503C6.31055 2.76275 5.86283 2.31503 5.31055 2.31503L0.998547 2.31503C0.446262 2.31503 -0.00145292 2.76275 -0.00145292 3.31503V3.68203C-0.00145292 4.23432 0.446262 4.68203 0.998547 4.68203H5.31055C5.86283 4.68203 6.31055 4.23432 6.31055 3.68203Z" fill="#FCDC74"/>
</svg>
