<svg width="6" height="9" viewBox="0 0 6 9" fill="none"
  xmlns="http://www.w3.org/2000/svg">
  <path d="M2.23154 0.523027C2.303 0.411975 2.40119 0.320636 2.51712 0.257381C2.63304 0.194127 2.76298 0.16098 2.89504 0.16098C3.0271 0.16098 3.15704 0.194127 3.27297 0.257381C3.38889 0.320636 3.48708 0.411975 3.55854 0.523027L5.66454 3.79803C5.74048 3.9172 5.78302 4.05457 5.78772 4.1958C5.79241 4.33703 5.75909 4.47693 5.69124 4.60088C5.62339 4.72483 5.5235 4.82829 5.402 4.90044C5.2805 4.97258 5.14185 5.01078 5.00054 5.01103H0.789541C0.648319 5.0106 0.5098 4.97228 0.38844 4.90006C0.267081 4.82784 0.16733 4.72437 0.0995976 4.60045C0.0318654 4.47652 -0.00136512 4.3367 0.0033742 4.19555C0.00811351 4.05441 0.0506489 3.91712 0.126541 3.79803L2.23154 0.523027Z" fill="#6ABE83"/>
  <path d="M3.07794 2.52802H2.71094C2.15865 2.52802 1.71094 2.97573 1.71094 3.52802V7.84001C1.71094 8.3923 2.15865 8.84001 2.71094 8.84001H3.07794C3.63022 8.84001 4.07794 8.3923 4.07794 7.84001V3.52802C4.07794 2.97573 3.63022 2.52802 3.07794 2.52802Z" fill="#6ABE83"/>
</svg>
