<svg width="18" height="18" viewBox="0 0 18 18" fill="none"
  xmlns="http://www.w3.org/2000/svg">
  <path fill-rule="evenodd" clip-rule="evenodd" d="M15.999 8.45587L14.7111 7.53991L12.4596 10.3866L10.4477 7.84646H7.09826L8.26736 2.56859C8.28295 2.50027 8.43201 2.50119 8.43201 2.58521V2.88992H10.0415V2.58521C10.0364 2.19181 9.87904 1.81388 9.59927 1.52322C9.31949 1.23257 8.93681 1.04945 8.52392 1.00865C8.11104 0.967859 7.69673 1.07223 7.35972 1.30195C7.0227 1.53166 6.78646 1.8707 6.69589 2.25466L5.4547 7.84646H3.60946V9.37184H5.11761L3.77411 15.4115C3.75755 15.4798 3.60946 15.4789 3.60946 15.3958V15.0901H2V15.3958C1.99991 15.7925 2.15497 16.1752 2.43523 16.4699C2.7155 16.7646 3.10106 16.9504 3.51744 16.9914C3.93382 17.0324 4.35144 16.9257 4.68963 16.6918C5.02782 16.458 5.26256 16.1137 5.3485 15.7254L6.75922 9.37184H9.64301L11.3314 11.5103L11.4532 11.6627L8.92011 14.8648L10.2081 15.7808L12.4605 12.9341L14.712 15.7808L16 14.8648L13.4669 11.6627L15.999 8.45587Z" fill="currentColor"/>
</svg>
