<svg width="21" height="21" viewBox="0 0 21 21" fill="none" xmlns="http://www.w3.org/2000/svg">
<path d="M13.481 18.833H6.523C6.36065 18.8266 6.2071 18.7575 6.09453 18.6404C5.98195 18.5232 5.91908 18.367 5.91908 18.2045C5.91908 18.0421 5.98195 17.8859 6.09453 17.7687C6.2071 17.6516 6.36065 17.5825 6.523 17.576H8.539C8.76002 17.5758 8.97189 17.4878 9.12808 17.3314C9.28427 17.175 9.372 16.9631 9.372 16.742V15.932C9.37174 15.7112 9.28389 15.4995 9.12773 15.3433C8.97157 15.1872 8.75984 15.0993 8.539 15.099H5.339C4.36465 15.0982 3.43041 14.711 2.74126 14.0222C2.0521 13.3334 1.66432 12.3994 1.663 11.425V5.84004C1.66379 4.86562 2.05124 3.93133 2.74026 3.2423C3.42928 2.55328 4.36357 2.16584 5.338 2.16504H11.701C11.288 2.62099 11.0605 3.21487 11.063 3.83004C11.0612 4.15389 11.1239 4.47486 11.2473 4.77427C11.3707 5.07368 11.5525 5.34554 11.782 5.57404L13.843 7.63504C14.4763 8.10106 15.2448 8.34692 16.031 8.33504C16.7456 8.34593 17.4399 8.09721 17.985 7.63504C18.1107 7.50988 18.2223 7.37139 18.318 7.22204V11.432C18.3172 12.4067 17.9298 13.3411 17.2409 14.0305C16.5519 14.7198 15.6176 15.1077 14.643 15.109H11.463C11.2418 15.109 11.0297 15.1969 10.8733 15.3533C10.7169 15.5097 10.629 15.7219 10.629 15.943V16.75C10.6293 16.9711 10.7172 17.1829 10.8736 17.3391C11.03 17.4953 11.242 17.583 11.463 17.583H13.481C13.6469 17.583 13.806 17.6489 13.9233 17.7662C14.0406 17.8836 14.1065 18.0427 14.1065 18.2085C14.1065 18.3744 14.0406 18.5335 13.9233 18.6508C13.806 18.7681 13.6469 18.834 13.481 18.834V18.833ZM15.581 6.65904C15.4798 6.65945 15.3795 6.63978 15.286 6.60116C15.1924 6.56254 15.1074 6.50573 15.036 6.43404L12.981 4.37404C12.8372 4.22908 12.7566 4.03319 12.7566 3.82904C12.7566 3.62489 12.8372 3.429 12.981 3.28404L14.098 2.16504H14.631C15.1048 2.16444 15.5742 2.25614 16.013 2.43504L14.613 3.83004L16.128 5.34204C16.2363 5.44999 16.31 5.5877 16.3398 5.73767C16.3697 5.88763 16.3542 6.04308 16.2955 6.18424C16.2367 6.32541 16.1374 6.44593 16.01 6.53047C15.8826 6.61501 15.7329 6.65977 15.58 6.65904H15.581Z"/>
<path d="M15.567 6.60702C15.4674 6.60746 15.3687 6.58806 15.2767 6.54994C15.1846 6.51183 15.1011 6.45576 15.031 6.38502L13.009 4.36302C12.8681 4.22022 12.789 4.02766 12.789 3.82702C12.789 3.62638 12.8681 3.43381 13.009 3.29102L15.031 1.26902C15.1732 1.12686 15.366 1.047 15.567 1.047C15.768 1.047 15.9608 1.12686 16.103 1.26902C16.2452 1.41117 16.325 1.60398 16.325 1.80502C16.325 2.00605 16.2452 2.19886 16.103 2.34102L14.617 3.82702L16.103 5.31302C16.2439 5.45581 16.323 5.64838 16.323 5.84902C16.323 6.04966 16.2439 6.24222 16.103 6.38502C16.0329 6.45576 15.9494 6.51183 15.8573 6.54994C15.7653 6.58806 15.6666 6.60746 15.567 6.60702Z"/>
<path d="M18.6 6.60702C18.5004 6.60746 18.4017 6.58806 18.3097 6.54994C18.2176 6.51183 18.1341 6.45576 18.064 6.38502C17.9231 6.24222 17.844 6.04966 17.844 5.84902C17.844 5.64838 17.9231 5.45581 18.064 5.31302L19.55 3.82702L18.064 2.34102C17.9218 2.19886 17.842 2.00605 17.842 1.80502C17.842 1.60398 17.9218 1.41117 18.064 1.26902C18.2062 1.12686 18.399 1.047 18.6 1.047C18.801 1.047 18.9938 1.12686 19.136 1.26902L21.158 3.29102C21.2989 3.43381 21.378 3.62638 21.378 3.82702C21.378 4.02766 21.2989 4.22022 21.158 4.36302L19.136 6.38502C19.0659 6.45576 18.9824 6.51183 18.8903 6.54994C18.7983 6.58806 18.6996 6.60746 18.6 6.60702Z"/>
</svg>
