<svg width="20" height="20" viewBox="0 0 20 20" fill="none" xmlns="http://www.w3.org/2000/svg">
<path d="M13.49 2.16298H6.506C5.85481 2.10206 5.1982 2.18549 4.58294 2.40733C3.96769 2.62917 3.40892 2.98396 2.94645 3.44643C2.48398 3.9089 2.12919 4.46766 1.90735 5.08292C1.68551 5.69818 1.60208 6.35479 1.663 7.00598V13.982C1.60137 14.6337 1.68424 15.291 1.90571 15.907C2.12718 16.523 2.4818 17.0825 2.9443 17.5458C3.40679 18.0091 3.96578 18.3646 4.58142 18.5871C5.19706 18.8096 5.8542 18.8935 6.506 18.833H13.482C14.1332 18.8939 14.7898 18.8105 15.4051 18.5886C16.0203 18.3668 16.5791 18.012 17.0416 17.5495C17.504 17.0871 17.8588 16.5283 18.0807 15.913C18.3025 15.2978 18.3859 14.6412 18.325 13.99V7.00598C18.3876 6.35513 18.3055 5.6985 18.0848 5.08303C17.8641 4.46757 17.5101 3.90849 17.0481 3.44577C16.5861 2.98304 16.0276 2.62811 15.4125 2.40635C14.7974 2.1846 14.141 2.10149 13.49 2.16298ZM8.281 11.557C7.71185 12.4092 6.93054 13.0985 6.014 13.557C5.92852 13.5997 5.83453 13.6226 5.739 13.624C5.59749 13.6251 5.4598 13.5781 5.34859 13.4906C5.23738 13.403 5.15929 13.2803 5.12716 13.1424C5.09504 13.0046 5.11079 12.86 5.17183 12.7323C5.23287 12.6046 5.33556 12.5015 5.463 12.44C6.18614 12.0806 6.80155 11.5365 7.247 10.863C7.32021 10.7548 7.35934 10.6271 7.35934 10.4965C7.35934 10.3658 7.32021 10.2382 7.247 10.13C6.79696 9.46118 6.18266 8.91919 5.463 8.55598C5.3864 8.52188 5.31748 8.47267 5.26035 8.4113C5.20322 8.34993 5.15907 8.27766 5.13054 8.19882C5.10201 8.11998 5.08969 8.03619 5.09431 7.95248C5.09893 7.86876 5.12041 7.78684 5.15744 7.71162C5.19448 7.6364 5.24632 7.56943 5.30986 7.51472C5.37339 7.46001 5.44732 7.41869 5.5272 7.39324C5.60709 7.36778 5.69129 7.35871 5.77477 7.36657C5.85824 7.37443 5.93927 7.39906 6.013 7.43898C6.92954 7.89745 7.71086 8.58674 8.28 9.43898C8.49218 9.75135 8.60571 10.1202 8.60589 10.4978C8.60607 10.8754 8.49289 11.2444 8.281 11.557ZM14.163 13.624H10.831C10.6652 13.624 10.5063 13.5581 10.3891 13.4409C10.2718 13.3237 10.206 13.1647 10.206 12.999C10.206 12.8332 10.2718 12.6742 10.3891 12.557C10.5063 12.4398 10.6652 12.374 10.831 12.374H14.163C14.3288 12.374 14.4877 12.4398 14.6049 12.557C14.7222 12.6742 14.788 12.8332 14.788 12.999C14.788 13.1647 14.7222 13.3237 14.6049 13.4409C14.4877 13.5581 14.3288 13.624 14.163 13.624Z"/>
</svg>
