<svg width="9" height="6" viewBox="0 0 9 6" fill="none"
  xmlns="http://www.w3.org/2000/svg">
  <path d="M5.38729 5.61663C5.27079 5.73817 5.13247 5.83458 4.98023 5.90036C4.82798 5.96614 4.6648 6 4.5 6C4.3352 6 4.17202 5.96614 4.01977 5.90036C3.86753 5.83458 3.72921 5.73817 3.61271 5.61663L0.368036 2.23351C0.192393 2.05062 0.0727348 1.81752 0.0242071 1.56369C-0.0243206 1.30987 0.000462532 1.04674 0.0954218 0.807611C0.190381 0.568481 0.351247 0.364101 0.557656 0.220338C0.764066 0.0765758 1.00674 -0.000104904 1.25497 4.76837e-07L7.74432 4.76837e-07C7.9926 -0.000252724 8.23538 0.0763206 8.4419 0.220026C8.64842 0.363732 8.80939 0.568106 8.90444 0.807266C8.99949 1.04643 9.02433 1.30962 8.97583 1.56351C8.92732 1.8174 8.80765 2.05058 8.63196 2.23351L5.38729 5.61663Z"/>
</svg>
