<svg width="21" height="21" viewBox="0 0 21 21" fill="none" xmlns="http://www.w3.org/2000/svg">
<path d="M16.478 2.16699H4.27798C3.68664 2.16988 3.12034 2.40607 2.7022 2.82422C2.28406 3.24236 2.04787 3.80866 2.04498 4.39999V6.59199C2.04602 7.18473 2.28133 7.75302 2.69962 8.17299C3.1179 8.59297 3.68525 8.83056 4.27798 8.83399H16.47C17.0627 8.83295 17.631 8.59763 18.051 8.17935C18.4709 7.76106 18.7085 7.19372 18.712 6.60099V4.40099C18.7093 3.80931 18.4731 3.24261 18.0547 2.82422C17.6364 2.40584 17.0697 2.16962 16.478 2.16699V2.16699ZM6.00298 6.33399C6.00298 6.49975 5.93713 6.65872 5.81992 6.77593C5.70271 6.89314 5.54374 6.95899 5.37798 6.95899C5.21221 6.95899 5.05324 6.89314 4.93603 6.77593C4.81882 6.65872 4.75298 6.49975 4.75298 6.33399V4.66699C4.75298 4.50123 4.81882 4.34226 4.93603 4.22505C5.05324 4.10784 5.21221 4.04199 5.37798 4.04199C5.54374 4.04199 5.70271 4.10784 5.81992 4.22505C5.93713 4.34226 6.00298 4.50123 6.00298 4.66699V6.33399ZM9.33598 6.33399C9.33598 6.49975 9.27013 6.65872 9.15292 6.77593C9.03571 6.89314 8.87674 6.95899 8.71098 6.95899C8.54521 6.95899 8.38624 6.89314 8.26903 6.77593C8.15182 6.65872 8.08598 6.49975 8.08598 6.33399V4.66699C8.08598 4.50123 8.15182 4.34226 8.26903 4.22505C8.38624 4.10784 8.54521 4.04199 8.71098 4.04199C8.87674 4.04199 9.03571 4.10784 9.15292 4.22505C9.27013 4.34226 9.33598 4.50123 9.33598 4.66699V6.33399ZM15.378 6.12599H12.045C11.8792 6.12599 11.7202 6.06014 11.603 5.94293C11.4858 5.82572 11.42 5.66675 11.42 5.50099C11.42 5.33523 11.4858 5.17626 11.603 5.05905C11.7202 4.94184 11.8792 4.87599 12.045 4.87599H15.378C15.5437 4.87599 15.7027 4.94184 15.8199 5.05905C15.9371 5.17626 16.003 5.33523 16.003 5.50099C16.003 5.66675 15.9371 5.82572 15.8199 5.94293C15.7027 6.06014 15.5437 6.12599 15.378 6.12599Z"/>
<path d="M16.478 12.167H4.27798C3.68664 12.1699 3.12034 12.4061 2.7022 12.8242C2.28406 13.2424 2.04787 13.8087 2.04498 14.4V16.592C2.04602 17.1847 2.28133 17.753 2.69962 18.173C3.1179 18.593 3.68525 18.8306 4.27798 18.834H16.47C17.0617 18.8324 17.6288 18.5966 18.0472 18.1782C18.4656 17.7598 18.7014 17.1927 18.703 16.601V14.409C18.7051 13.8167 18.4719 13.2477 18.0547 12.8273C17.6374 12.4069 17.0703 12.1694 16.478 12.167ZM6.00298 16.334C6.00298 16.4998 5.93713 16.6587 5.81992 16.7759C5.70271 16.8931 5.54374 16.959 5.37798 16.959C5.21221 16.959 5.05324 16.8931 4.93603 16.7759C4.81882 16.6587 4.75298 16.4998 4.75298 16.334V14.667C4.75298 14.5012 4.81882 14.3423 4.93603 14.2251C5.05324 14.1078 5.21221 14.042 5.37798 14.042C5.54374 14.042 5.70271 14.1078 5.81992 14.2251C5.93713 14.3423 6.00298 14.5012 6.00298 14.667V16.334ZM9.33598 16.334C9.33598 16.4998 9.27013 16.6587 9.15292 16.7759C9.03571 16.8931 8.87674 16.959 8.71098 16.959C8.54521 16.959 8.38624 16.8931 8.26903 16.7759C8.15182 16.6587 8.08598 16.4998 8.08598 16.334V14.667C8.08598 14.5012 8.15182 14.3423 8.26903 14.2251C8.38624 14.1078 8.54521 14.042 8.71098 14.042C8.87674 14.042 9.03571 14.1078 9.15292 14.2251C9.27013 14.3423 9.33598 14.5012 9.33598 14.667V16.334ZM15.378 16.126H12.045C11.8792 16.126 11.7202 16.0601 11.603 15.9429C11.4858 15.8257 11.42 15.6668 11.42 15.501C11.42 15.3352 11.4858 15.1763 11.603 15.0591C11.7202 14.9418 11.8792 14.876 12.045 14.876H15.378C15.5437 14.876 15.7027 14.9418 15.8199 15.0591C15.9371 15.1763 16.003 15.3352 16.003 15.501C16.003 15.6668 15.9371 15.8257 15.8199 15.9429C15.7027 16.0601 15.5437 16.126 15.378 16.126Z"/>
</svg>
