<svg width="20" height="20" viewBox="0 0 20 20" fill="none"
  xmlns="http://www.w3.org/2000/svg">
  <g clip-path="url(#clip0_10633_6519)">
    <path d="M4.54539 1.11108H11.7594L16.6654 6.05518V17.7034C16.6654 18.0176 16.5378 18.319 16.3106 18.5413C16.0835 18.7636 15.7753 18.8886 15.454 18.8889H4.54539C4.22385 18.8889 3.91547 18.764 3.68811 18.5416C3.46074 18.3193 3.33301 18.0178 3.33301 17.7034V2.29658C3.33301 1.98217 3.46074 1.68063 3.68811 1.45831C3.91547 1.23598 4.22385 1.11108 4.54539 1.11108V1.11108Z" fill="#3BC7FF"/>
    <path d="M11.7705 2.19458L11.8574 5.70986L14.423 9.97373H16.6662V6.07479L12.3723 2.19458H11.7705Z" fill="url(#paint0_linear_10633_6519)"/>
    <path d="M11.7686 1.1167V5.35806C11.7692 5.55668 11.8366 5.74963 11.9601 5.90734C12.027 5.96327 12.1043 6.00553 12.1881 6.03172C12.2719 6.05791 12.3603 6.06747 12.4479 6.05982H16.6652L11.7686 1.1167Z" fill="#A3E5FF"/>
  </g>
  <defs>
    <linearGradient id="paint0_linear_10633_6519" x1="11.9663" y1="5.843" x2="15.7184" y2="8.17355" gradientUnits="userSpaceOnUse">
      <stop stop-color="#0FA9E6" stop-opacity="0.502"/>
      <stop offset="1" stop-color="#0FA9E6" stop-opacity="0"/>
    </linearGradient>
    <clipPath id="clip0_10633_6519">
      <rect width="13.3333" height="17.7778" fill="white" transform="translate(3.33301 1.11108)"/>
    </clipPath>
  </defs>
</svg>
