<svg width="20" height="20" viewBox="0 0 20 20" fill="none" xmlns="http://www.w3.org/2000/svg">
<path d="M3.1581 2.10547H13.6844V17.8949H3.1581C2.87893 17.8949 2.61118 17.784 2.41378 17.5866C2.21637 17.3892 2.10547 17.1215 2.10547 16.8423V3.1581C2.10547 2.87893 2.21637 2.61118 2.41378 2.41378C2.61118 2.21637 2.87893 2.10547 3.1581 2.10547V2.10547Z" fill="#E3E3E3"/>
<path d="M14.7363 2.10547H16.8416C17.1208 2.10547 17.3885 2.21637 17.5859 2.41378C17.7833 2.61118 17.8942 2.87893 17.8942 3.1581V16.8423C17.8942 17.1215 17.7833 17.3892 17.5859 17.5866C17.3885 17.784 17.1208 17.8949 16.8416 17.8949H14.7363V2.10547Z" fill="#50585D"/>
</svg>
