<svg width="19" height="19" viewBox="0 0 19 19" fill="none"
  xmlns="http://www.w3.org/2000/svg">
  <path d="M8.70752 15.754V3.24501C8.70752 2.05801 8.20152 1.58301 6.94252 1.58301H3.74252C2.48552 1.58301 1.97852 2.05801 1.97852 3.24501V15.754C1.97852 16.942 2.48552 17.417 3.74352 17.417H6.94352C8.20152 17.416 8.70752 16.941 8.70752 15.754Z" fill="#50585D"/>
  <path d="M17.022 8.62901V3.24501C17.022 2.05801 16.516 1.58301 15.257 1.58301H12.057C10.8 1.58301 10.293 2.05801 10.293 3.24501V8.62901C10.293 9.81601 10.8 10.291 12.058 10.291H15.258C16.516 10.291 17.022 9.81601 17.022 8.62901Z" fill="#50585D"/>
  <path d="M17.022 15.754V13.538C17.022 12.35 16.516 11.875 15.257 11.875H12.057C10.8 11.875 10.293 12.35 10.293 13.538V15.754C10.293 16.942 10.8 17.417 12.058 17.417H15.258C16.516 17.417 17.022 16.942 17.022 15.754Z" fill="#50585D"/>
</svg>
