<svg width="14" height="14" viewBox="0 0 14 14" fill="none" xmlns="http://www.w3.org/2000/svg">
<path d="M12.2902 3.05031C11.3507 2.95673 10.412 2.88673 9.46658 2.83441V2.82852L9.34279 2.07031C9.25216 1.53315 9.12174 0.728516 7.75932 0.728516H6.23111C4.87164 0.728516 4.74343 1.49852 4.64985 2.06441L4.52753 2.81083C3.98522 2.8462 3.44216 2.88452 2.89985 2.93315L1.70985 3.05031C1.65281 3.05568 1.59738 3.07223 1.54673 3.09902C1.49609 3.12581 1.45122 3.16231 1.41468 3.20645C1.37814 3.25058 1.35066 3.30147 1.33379 3.35623C1.31692 3.41098 1.311 3.46853 1.31637 3.52557C1.32174 3.58261 1.3383 3.63804 1.36509 3.68868C1.39188 3.73933 1.42838 3.7842 1.47251 3.82074C1.51665 3.85727 1.56754 3.88476 1.6223 3.90163C1.67705 3.91849 1.7346 3.92441 1.79164 3.91904L2.98164 3.80262C6.05415 3.53733 9.14544 3.5783 12.2098 3.92494H12.2563C12.3653 3.92443 12.4702 3.88368 12.551 3.81052C12.6318 3.73735 12.6827 3.63692 12.694 3.52852C12.7026 3.41183 12.6651 3.29641 12.5896 3.20702C12.5142 3.11762 12.4066 3.06136 12.2902 3.05031Z" fill="#E6451F"/>
<path d="M11.2173 4.74917C11.1489 4.67764 11.0668 4.62061 10.9759 4.58149C10.885 4.54238 10.7872 4.52197 10.6882 4.52149H3.31316C3.21387 4.52126 3.11559 4.54134 3.02436 4.58049C2.93312 4.61965 2.85086 4.67705 2.78263 4.74917C2.71448 4.82262 2.66171 4.90896 2.62742 5.00311C2.59313 5.09725 2.57801 5.19731 2.58294 5.29738L2.94547 11.282C3.00958 12.1662 3.09284 13.2766 5.12726 13.2766H8.87263C10.9085 13.2766 10.9903 12.1714 11.0544 11.282L11.4162 5.30254C11.4217 5.20169 11.4069 5.10076 11.3727 5.00572C11.3386 4.91068 11.2857 4.82344 11.2173 4.74917ZM7.96852 10.3551H6.02547C5.91259 10.3504 5.80588 10.3023 5.72765 10.2208C5.64942 10.1393 5.60574 10.0307 5.60574 9.91775C5.60574 9.80478 5.64942 9.69618 5.72765 9.61467C5.80588 9.53317 5.91259 9.48507 6.02547 9.48043H7.96852C8.0846 9.48043 8.19593 9.52655 8.27801 9.60863C8.3601 9.69071 8.40621 9.80204 8.40621 9.91812C8.40621 10.0342 8.3601 10.1455 8.27801 10.2276C8.19593 10.3097 8.0846 10.3558 7.96852 10.3558V10.3551ZM8.45852 8.02149H5.54137C5.48243 8.02391 5.42361 8.01439 5.36844 7.9935C5.31327 7.97261 5.26289 7.94079 5.22034 7.89994C5.17778 7.8591 5.14392 7.81007 5.12078 7.7558C5.09765 7.70154 5.08573 7.64316 5.08573 7.58417C5.08573 7.52518 5.09765 7.4668 5.12078 7.41254C5.14392 7.35827 5.17778 7.30924 5.22034 7.2684C5.26289 7.22755 5.31327 7.19573 5.36844 7.17484C5.42361 7.15395 5.48243 7.14443 5.54137 7.14685H8.45852C8.5746 7.14685 8.68593 7.19297 8.76801 7.27505C8.85009 7.35713 8.89621 7.46846 8.89621 7.58454C8.89621 7.70062 8.85009 7.81195 8.76801 7.89403C8.68593 7.97611 8.5746 8.02222 8.45852 8.02222V8.02149Z" fill="#E6451F"/>
</svg>
