<svg width="20" height="20" viewBox="0 0 20 20" fill="none"
  xmlns="http://www.w3.org/2000/svg">
  <path d="M7.17273 3.34672V7.20549H3.34669C3.29884 6.68963 3.36468 6.16955 3.53956 5.68188C3.71445 5.19421 3.99412 4.75082 4.3589 4.38293C4.72367 4.01503 5.16466 3.73159 5.65082 3.55256C6.13698 3.37353 6.65648 3.30326 7.17273 3.34672Z" fill="#A7B0B5"/>
  <path d="M16.6542 7.20549H12.8281V3.34672C13.3444 3.30326 13.8639 3.37353 14.35 3.55256C14.8362 3.73159 15.2772 4.01503 15.642 4.38293C16.0067 4.75082 16.2864 5.19421 16.4613 5.68188C16.6362 6.16955 16.702 6.68963 16.6542 7.20549Z" fill="#A7B0B5"/>
  <path d="M7.17231 12.8613V16.6539C6.66175 16.6975 6.14781 16.6296 5.66609 16.4549C5.18437 16.2802 4.74637 16.0029 4.38245 15.6422C4.01852 15.2814 3.73737 14.8459 3.55845 14.3657C3.37953 13.8856 3.30713 13.3722 3.34626 12.8613L7.17231 12.8613Z" fill="#A7B0B5"/>
  <path d="M3.34717 8.20361H7.17321V11.866H3.34717V8.20361Z" fill="#A7B0B5"/>
  <path d="M8.16943 3.34668H11.8318V7.20545H8.16943V3.34668Z" fill="#A7B0B5"/>
  <path d="M16.5434 15.2029L15.7132 14.7293L16.5336 14.2558C16.6522 14.1867 16.6917 14.0388 16.6225 13.9204C16.5533 13.802 16.4051 13.7625 16.2865 13.8316L15.219 14.4432L13.2718 13.3087L15.1992 12.2038L16.2865 12.8351C16.326 12.8549 16.3655 12.8647 16.4051 12.8647C16.494 12.8647 16.5731 12.8253 16.6225 12.7365C16.6917 12.6181 16.6522 12.4701 16.5336 12.4011L15.6934 11.9176L16.5336 11.4342C16.6522 11.3652 16.6917 11.2172 16.6225 11.0988C16.5533 10.9804 16.4051 10.941 16.2865 11.01L15.4562 11.4836V10.5463C15.4562 10.4082 15.3475 10.2997 15.2091 10.2997C15.0707 10.2997 14.962 10.4082 14.962 10.5463V11.7697L13.0148 12.8943V10.6746L14.102 10.0432C14.2207 9.97413 14.2602 9.82615 14.191 9.70776C14.1218 9.58937 13.9736 9.54991 13.8549 9.61897L13.0148 10.1024V9.13556C13.0148 8.99744 12.8962 8.88892 12.7677 8.88892C12.6392 8.88892 12.5206 8.99744 12.5206 9.13556V10.0925L11.7002 9.61897C11.5816 9.54991 11.4333 9.58937 11.3641 9.70776C11.2949 9.82615 11.3345 9.97413 11.4531 10.0432L12.5206 10.6647V12.9141L10.5931 11.7993V10.5463C10.5931 10.4082 10.4844 10.2997 10.346 10.2997C10.2077 10.2997 10.0989 10.4082 10.0989 10.5463V11.5132L9.25878 11.0297C9.14017 10.9607 8.99191 11.0002 8.92272 11.1185C8.85353 11.2369 8.89306 11.3849 9.01168 11.454L9.84195 11.9275L9.03144 12.4011C8.91283 12.4701 8.8733 12.6181 8.94249 12.7365C8.99191 12.8154 9.07098 12.8647 9.15994 12.8647C9.19948 12.8647 9.2489 12.8549 9.27855 12.8351L10.3362 12.2235L12.2833 13.3482L10.3559 14.4531L9.26866 13.8217C9.15005 13.7526 9.00179 13.7921 8.9326 13.9105C8.86341 14.0289 8.90295 14.1769 9.02156 14.2459L9.86172 14.7293L9.02156 15.2128C8.90295 15.2818 8.86341 15.4298 8.9326 15.5482C8.98202 15.6271 9.0611 15.6764 9.15005 15.6764C9.18959 15.6764 9.23901 15.6666 9.26866 15.6468L10.0989 15.1733V16.1105C10.0989 16.2486 10.2077 16.3572 10.346 16.3572C10.4844 16.3572 10.5931 16.2486 10.5931 16.1105V14.8872L12.5403 13.7625V15.9823L11.4531 16.6137C11.3345 16.6827 11.2949 16.8307 11.3641 16.9491C11.4135 17.028 11.4926 17.0773 11.5816 17.0773C11.6211 17.0773 11.6705 17.0675 11.7002 17.0478L12.5403 16.5643V17.5312C12.5403 17.6693 12.6491 17.7778 12.7874 17.7778C12.9258 17.7778 13.0346 17.6693 13.0346 17.5312V16.5742L13.8549 17.0478C13.8945 17.0675 13.934 17.0773 13.9736 17.0773C14.0625 17.0773 14.1416 17.0379 14.191 16.9491C14.2602 16.8307 14.2207 16.6827 14.102 16.6137L13.0346 15.9921V13.7526L14.962 14.8576V16.1105C14.962 16.2486 15.0707 16.3572 15.2091 16.3572C15.3475 16.3572 15.4562 16.2486 15.4562 16.1105V15.1437L16.2963 15.6271C16.3359 15.6468 16.3754 15.6567 16.415 15.6567C16.5039 15.6567 16.583 15.6172 16.6324 15.5285C16.7016 15.4199 16.6621 15.2719 16.5434 15.2029Z" fill="#A7B0B5"/>
</svg>
