<svg width="20" height="20" viewBox="0 0 20 20" fill="none"
  xmlns="http://www.w3.org/2000/svg">
  <path fill-rule="evenodd" clip-rule="evenodd" d="M16.6668 7.9998V12.0024C16.6668 15.3351 15.333 16.6689 12.0003 16.6689H7.99769C4.6673 16.6654 3.3335 15.3328 3.3335 12V7.99745C3.3335 4.66706 4.6673 3.33325 8.00004 3.33325H12.0026C15.333 3.33325 16.6668 4.66706 16.6668 7.9998ZM12.5516 7.45709H7.44829C7.25324 7.45709 7.09512 7.61521 7.09512 7.81026V8.55662C7.09512 8.75167 7.25324 8.90979 7.44829 8.90979H12.5516C12.7466 8.90979 12.9048 8.75167 12.9048 8.55662V7.81026C12.9048 7.61521 12.7466 7.45709 12.5516 7.45709ZM7.44829 11.0889H12.5516C12.7466 11.0889 12.9048 11.247 12.9048 11.442V12.1884C12.9048 12.3835 12.7466 12.5416 12.5516 12.5416H7.44829C7.25324 12.5416 7.09512 12.3835 7.09512 12.1884V11.442C7.09512 11.247 7.25324 11.0889 7.44829 11.0889Z" fill="#A7B0B5"/>
</svg>
