<svg width="21" height="21" viewBox="0 0 21 21" fill="none" xmlns="http://www.w3.org/2000/svg">
<g clip-path="url(#clip0_954_35206)">
<path d="M9.62482 17.4127V3.58695C9.62482 2.275 9.06555 1.75 7.67403 1.75H4.13718C2.74787 1.75 2.1875 2.275 2.1875 3.58695V17.4127C2.1875 18.7257 2.74787 19.2507 4.13829 19.2507H7.67513C9.06555 19.2496 9.62482 18.7246 9.62482 17.4127Z" fill="#50585D"/>
<path d="M18.8123 8.26V3.54053C18.8123 2.26174 18.2531 1.75 16.8615 1.75H13.3247C11.9354 1.75 11.375 2.26174 11.375 3.54053V8.26C11.375 9.53879 11.9354 10.0505 13.3258 10.0505H16.8626C18.2531 10.0505 18.8123 9.53879 18.8123 8.26Z" fill="#50585D"/>
<path d="M18.0696 14.7869H15.8381V12.5554C15.8381 12.3581 15.7597 12.1689 15.6202 12.0294C15.4807 11.8899 15.2915 11.8115 15.0942 11.8115C14.8969 11.8115 14.7077 11.8899 14.5682 12.0294C14.4287 12.1689 14.3504 12.3581 14.3504 12.5554V14.7869H12.1188C11.9216 14.7869 11.7324 14.8653 11.5929 15.0048C11.4534 15.1443 11.375 15.3335 11.375 15.5307C11.375 15.728 11.4534 15.9172 11.5929 16.0567C11.7324 16.1962 11.9216 16.2746 12.1188 16.2746H14.3504V18.5061C14.3504 18.7034 14.4287 18.8926 14.5682 19.0321C14.7077 19.1716 14.8969 19.2499 15.0942 19.2499C15.2915 19.2499 15.4807 19.1716 15.6202 19.0321C15.7597 18.8926 15.8381 18.7034 15.8381 18.5061V16.2746H18.0696C18.2669 16.2746 18.4561 16.1962 18.5956 16.0567C18.7351 15.9172 18.8134 15.728 18.8134 15.5307C18.8134 15.3335 18.7351 15.1443 18.5956 15.0048C18.4561 14.8653 18.2669 14.7869 18.0696 14.7869Z" fill="#50585D"/>
</g>
<defs>
<clipPath id="clip0_954_35206">
<rect width="21" height="21" fill="white"/>
</clipPath>
</defs>
</svg>
