<svg width="18" height="18" viewBox="0 0 18 18" fill="none" xmlns="http://www.w3.org/2000/svg">
<path d="M3.24805 11.8691V15.1033" stroke="#50585D" stroke-width="1.5" stroke-linecap="round" stroke-linejoin="round"/>
<path d="M15.4677 8.9995C15.4682 9.84919 15.3012 10.6906 14.9763 11.4757C14.6514 12.2608 14.1749 12.9742 13.574 13.575C12.9732 14.1758 12.2599 14.6523 11.4748 14.9773C10.6897 15.3022 9.84821 15.4692 8.99852 15.4687C5.42242 15.4687 3.24644 11.8689 3.24644 11.8689H6.16416M2.52932 8.9995C2.52682 8.14925 2.69245 7.3069 3.01667 6.52089C3.34089 5.73488 3.81731 5.02073 4.41853 4.41951C5.01975 3.81829 5.7339 3.34187 6.51991 3.01765C7.30592 2.69342 8.14827 2.5278 8.99852 2.5303C10.2878 2.56117 11.5503 2.90496 12.6773 3.53205C13.8042 4.15914 14.7618 5.05074 15.4677 6.13009M15.4677 6.13009V2.89502M15.4677 6.13009L12.5974 6.12914" stroke="#50585D" stroke-width="1.5" stroke-linecap="round" stroke-linejoin="round"/>
</svg>
