<svg width="20" height="20" viewBox="0 0 20 20" fill="none"
  xmlns="http://www.w3.org/2000/svg">
  <path d="M7.17273 3.34672V7.20549H3.34669C3.29884 6.68963 3.36468 6.16955 3.53956 5.68188C3.71445 5.19421 3.99412 4.75082 4.3589 4.38293C4.72367 4.01503 5.16466 3.73159 5.65082 3.55256C6.13698 3.37353 6.65648 3.30326 7.17273 3.34672Z" fill="#A7B0B5"/>
  <path d="M16.6542 7.20549H12.8281V3.34672C13.3444 3.30326 13.8639 3.37353 14.35 3.55256C14.8362 3.73159 15.2772 4.01503 15.642 4.38293C16.0067 4.75082 16.2864 5.19421 16.4613 5.68188C16.6362 6.16955 16.702 6.68963 16.6542 7.20549Z" fill="#A7B0B5"/>
  <path d="M16.6542 12.8613C16.6933 13.3722 16.6209 13.8856 16.442 14.3657C16.2631 14.8459 15.9819 15.2814 15.618 15.6422C15.2541 16.0029 14.8161 16.2802 14.3343 16.4549C13.8526 16.6296 13.3387 16.6975 12.8281 16.6539V12.8613H16.6542Z" fill="#A7B0B5"/>
  <path d="M7.17231 12.8613V16.6539C6.66175 16.6975 6.14781 16.6296 5.66609 16.4549C5.18437 16.2802 4.74637 16.0029 4.38245 15.6422C4.01852 15.2814 3.73737 14.8459 3.55845 14.3657C3.37953 13.8856 3.30713 13.3722 3.34626 12.8613L7.17231 12.8613Z" fill="#A7B0B5"/>
  <path d="M3.34717 8.20361H7.17321V11.866H3.34717V8.20361Z" fill="#A7B0B5"/>
  <path d="M12.8281 8.20361H16.6542V11.866H12.8281V8.20361Z" fill="#A7B0B5"/>
  <path d="M8.16943 8.20361H11.8318V11.866H8.16943V8.20361Z" fill="#A7B0B5"/>
  <path d="M8.16943 3.34668H11.8318V7.20545H8.16943V3.34668Z" fill="#A7B0B5"/>
  <path d="M8.16943 12.8613H11.8318V16.6539H8.16943V12.8613Z" fill="#A7B0B5"/>
</svg>
