<svg width="20" height="20" viewBox="0 0 20 20" fill="none"
  xmlns="http://www.w3.org/2000/svg">
  <path fill-rule="evenodd" clip-rule="evenodd" d="M10.0466 3.88892C12.6343 3.88892 15.0911 5.40809 16.7702 8.04665C17.1275 8.67729 17.3154 9.38976 17.3154 10.1146C17.3154 10.8395 17.1275 11.5519 16.7702 12.1826C16.0056 13.4212 14.9721 14.4721 13.7464 15.2573C12.638 15.9556 11.3566 16.3307 10.0466 16.3403C7.45892 16.3403 5.00207 14.8284 3.32299 12.1826C2.96566 11.5519 2.77783 10.8395 2.77783 10.1146C2.77783 9.38976 2.96566 8.67729 3.32299 8.04665C4.08763 6.80798 5.12106 5.75716 6.3468 4.97196C7.45522 4.27362 8.73656 3.89853 10.0466 3.88892ZM8.41512 12.5599C8.89804 12.8826 9.46579 13.0548 10.0466 13.0548C10.4324 13.0553 10.8144 12.9797 11.1709 12.8323C11.5274 12.6849 11.8514 12.4686 12.1241 12.1958C12.3969 11.923 12.6132 11.5991 12.7606 11.2426C12.908 10.8861 12.9837 10.504 12.9832 10.1182C12.9832 9.53744 12.8109 8.96969 12.4883 8.48677C12.1656 8.00385 11.707 7.62746 11.1704 7.4052C10.6338 7.18294 10.0433 7.12478 9.4737 7.23809C8.90406 7.3514 8.38081 7.63108 7.97012 8.04177C7.55943 8.45246 7.27975 8.9757 7.16644 9.54535C7.05313 10.115 7.11129 10.7054 7.33355 11.242C7.55581 11.7786 7.9322 12.2372 8.41512 12.5599ZM8.89503 8.39068C9.23574 8.16237 9.63646 8.04014 10.0466 8.03942C10.3197 8.03914 10.5901 8.09271 10.8425 8.19708C11.0948 8.30145 11.3241 8.45457 11.5172 8.64767C11.7103 8.84077 11.8634 9.07005 11.9678 9.3224C12.0722 9.57475 12.1257 9.84521 12.1255 10.1183C12.1247 10.5284 12.0025 10.9291 11.7742 11.2699C11.5459 11.6106 11.2218 11.876 10.8427 12.0326C10.4637 12.1892 10.0467 12.23 9.64448 12.1498C9.24226 12.0696 8.87283 11.8721 8.58282 11.5821C8.29281 11.2921 8.09524 10.9226 8.01505 10.5204C7.93486 10.1182 7.97565 9.70122 8.13227 9.32217C8.28889 8.94312 8.55431 8.61898 8.89503 8.39068Z" fill="#A7B0B5"/>
</svg>
