<svg width="20" height="20" viewBox="0 0 20 20" fill="none"
  xmlns="http://www.w3.org/2000/svg">
  <path d="M16.6889 17.0175L11.7112 12.152C11.5556 11.9872 11.3903 11.8194 11.2153 11.6483C11.0403 11.4773 10.8686 11.3157 10.7001 11.1637C11.1926 10.8596 11.588 10.4541 11.8862 9.94729C12.1843 9.44046 12.3334 8.88296 12.3334 8.27477C12.3334 7.32448 11.9931 6.51673 11.3126 5.85153C10.632 5.18632 9.80561 4.85372 8.83339 4.85372C7.86116 4.85372 7.03478 5.18632 6.35422 5.85153C5.67367 6.51673 5.33339 7.32448 5.33339 8.27477C5.33339 8.3508 5.33663 8.42365 5.34311 8.49334C5.34959 8.56303 5.35931 8.63588 5.37228 8.71191C5.13894 8.73725 4.88292 8.78793 4.60422 8.86395C4.32552 8.93998 4.07598 9.02867 3.85561 9.13004C3.82968 8.99066 3.81024 8.85128 3.79728 8.71191C3.78431 8.57253 3.77783 8.42682 3.77783 8.27477C3.77783 6.89368 4.26718 5.72482 5.24589 4.76819C6.22459 3.81157 7.42042 3.33325 8.83339 3.33325C10.2463 3.33325 11.4422 3.81157 12.4209 4.76819C13.3996 5.72482 13.8889 6.89368 13.8889 8.27477C13.8889 8.81961 13.8014 9.33593 13.6264 9.82375C13.4514 10.3116 13.2084 10.7582 12.8973 11.1637L17.7778 15.9531L16.6889 17.0175Z" fill="#0E0121"/>
  <rect x="2.22217" y="10" width="7.77778" height="7.77778" rx="3.88889" fill="#A7B0B5"/>
  <path d="M8.51831 13.4077H3.7038C3.4378 13.4077 3.22217 13.6233 3.22217 13.8892C3.22217 14.1551 3.4378 14.3707 3.7038 14.3707H8.51831C8.78431 14.3707 8.99995 14.1551 8.99995 13.8892C8.99995 13.6233 8.78431 13.4077 8.51831 13.4077Z" fill="white"/>
  <path d="M5.62988 11.4817V16.2962C5.62988 16.5622 5.84545 16.7778 6.11136 16.7778C6.37728 16.7778 6.59285 16.5622 6.59285 16.2962V11.4817C6.59285 11.2157 6.37728 11.0001 6.11136 11.0001C5.84545 11.0001 5.62988 11.2157 5.62988 11.4817Z" fill="white"/>
</svg>
