<svg width="18" height="18" viewBox="0 0 16 16" fill="none"
  xmlns="http://www.w3.org/2000/svg">
  <path d="M3.16055 14.2218C2.7803 14.2218 2.45479 14.0864 2.184 13.8156C1.91322 13.5448 1.77783 13.2193 1.77783 12.8391V3.16006C1.77783 2.77981 1.91322 2.4543 2.184 2.18352C2.45479 1.91273 2.7803 1.77734 3.16055 1.77734H8.00005V3.16006H3.16055V12.8391H12.8396V7.99957H14.2223V12.8391C14.2223 13.2193 14.0869 13.5448 13.8161 13.8156C13.5453 14.0864 13.2198 14.2218 12.8396 14.2218H3.16055ZM6.40993 10.5576L5.44203 9.58969L11.8717 3.16006H9.38277V1.77734H14.2223V6.61685H12.8396V4.12796L6.40993 10.5576Z" fill="currentColor"/>
</svg>
