<svg width="26" height="14" viewBox="0 0 26 14" fill="none"
  xmlns="http://www.w3.org/2000/svg">
  <g clip-path="url(#clip0_6808_92572)">
    <path opacity="0.01" d="M26 0H0V14H26V0Z" fill="#3BC7FF"/>
    <path d="M10.3182 11.399C10.1353 11.3925 9.95676 11.3394 9.80013 11.2448C9.64351 11.1501 9.51398 11.0169 9.42318 10.858C9.36366 10.6796 9.34774 10.4897 9.37679 10.3038C9.40585 10.118 9.47903 9.94164 9.59017 9.78992L10.5902 8.75696C10.6372 8.69906 10.6879 8.64446 10.742 8.59314L10.8079 8.52991L11.1341 8.19299V8.22302L12.4339 6.99792H12.4388L11.097 5.73499V5.78308L9.59701 4.26013C9.48594 4.10837 9.41268 3.93202 9.38363 3.74622C9.35458 3.56041 9.37058 3.37044 9.43002 3.19202C9.52081 3.03311 9.65084 2.89997 9.80746 2.8053C9.96408 2.71062 10.1421 2.65754 10.325 2.651H15.762C15.9335 2.65374 16.1005 2.7063 16.2425 2.80237C16.3846 2.89844 16.4955 3.03389 16.5619 3.19202C16.6079 3.38352 16.6138 3.58257 16.5794 3.77649C16.545 3.97041 16.4712 4.15499 16.3621 4.31897L15.3929 5.27991C15.3549 5.32291 15.3157 5.36395 15.2747 5.40295L15.1419 5.52893L14.8861 5.78308V5.77209L13.5858 6.99915L14.8861 8.22205V8.19495L15.202 8.52209L15.2801 8.59509C15.3361 8.648 15.388 8.70473 15.4359 8.76501L16.369 9.73303C16.4781 9.89698 16.5523 10.0818 16.5868 10.2758C16.6212 10.4697 16.6153 10.6685 16.5692 10.86C16.5028 11.0181 16.3914 11.1536 16.2494 11.2496C16.1073 11.3457 15.9404 11.3983 15.7689 11.401L10.3182 11.399ZM11.9549 9.37195C11.9536 9.41045 11.9598 9.44897 11.9735 9.48499C11.9871 9.521 12.008 9.55398 12.0345 9.58191C12.061 9.60984 12.093 9.63209 12.1283 9.64758C12.1635 9.66307 12.2016 9.67136 12.2401 9.672H13.7669C13.8444 9.66964 13.9177 9.63687 13.971 9.58069C14.0244 9.52451 14.0537 9.44942 14.0521 9.37195C14.0533 9.33348 14.0468 9.29536 14.033 9.2594C14.0193 9.22344 13.9985 9.19038 13.972 9.16248C13.9455 9.13457 13.914 9.11234 13.8787 9.0968C13.8435 9.08126 13.8054 9.07292 13.7669 9.07214H12.2401C12.1625 9.07424 12.0889 9.10697 12.0355 9.16321C11.9821 9.21945 11.953 9.2944 11.9549 9.37195ZM11.9549 4.62805C11.9537 4.66652 11.9603 4.70489 11.974 4.74084C11.9877 4.7768 12.0085 4.80962 12.035 4.83752C12.0615 4.86543 12.0931 4.88766 12.1283 4.9032C12.1635 4.91874 12.2016 4.92733 12.2401 4.9281H13.766C13.8434 4.92575 13.9167 4.89273 13.9701 4.83655C14.0234 4.78037 14.0527 4.70552 14.0511 4.62805C14.0523 4.58959 14.0458 4.55122 14.0321 4.51526C14.0184 4.4793 13.9975 4.44648 13.971 4.41858C13.9445 4.39068 13.913 4.3682 13.8778 4.35266C13.8426 4.33712 13.8044 4.32878 13.766 4.328H12.2401C12.1626 4.33036 12.0893 4.36313 12.036 4.41931C11.9826 4.47549 11.9533 4.55058 11.9549 4.62805Z" fill="#3BC7FF"/>
  </g>
  <defs>
    <clipPath id="clip0_6808_92572">
      <rect width="26" height="14" fill="white"/>
    </clipPath>
  </defs>
</svg>
