<svg width="26" height="14" viewBox="0 0 26 14" fill="none"
  xmlns="http://www.w3.org/2000/svg">
  <g clip-path="url(#clip0_6808_93330)">
    <path opacity="0.01" d="M26 0H0V14H26V0Z" fill="#3BC7FF"/>
    <path d="M4.61495 3.67303H11.268C11.4443 3.67303 11.6135 3.7431 11.7382 3.86781C11.8629 3.99252 11.933 4.16167 11.933 4.33803V5.67303H3.94995V4.33803C3.94995 4.16167 4.02001 3.99252 4.14473 3.86781C4.26944 3.7431 4.43858 3.67303 4.61495 3.67303Z" fill="#3BC7FF"/>
    <path d="M4.87898 5.69701V10.426C4.87432 10.5324 4.90375 10.6375 4.96298 10.726H10.92C10.9792 10.6375 11.0086 10.5324 11.004 10.426V5.69701H4.87898ZM3.94998 4.76801H11.933V10.426C11.9651 10.7142 11.8839 11.0036 11.7067 11.2331C11.5294 11.4626 11.2699 11.6142 10.983 11.656H4.89998C4.61304 11.6142 4.35355 11.4626 4.1763 11.2331C3.99905 11.0036 3.9179 10.7142 3.94998 10.426V4.76801Z" fill="#3BC7FF"/>
    <path d="M5.47003 2.34302H6.02103C6.07142 2.34302 6.11975 2.36304 6.15538 2.39867C6.19101 2.4343 6.21103 2.48263 6.21103 2.53302V5.00402H5.28003V2.53302C5.28003 2.48263 5.30005 2.4343 5.33568 2.39867C5.37131 2.36304 5.41964 2.34302 5.47003 2.34302Z" fill="#3BC7FF"/>
    <path d="M9.86102 2.34302H10.412C10.4624 2.34302 10.5107 2.36304 10.5464 2.39867C10.582 2.4343 10.602 2.48263 10.602 2.53302V5.00402H9.67102V2.53302C9.67102 2.48263 9.69104 2.4343 9.72667 2.39867C9.7623 2.36304 9.81063 2.34302 9.86102 2.34302Z" fill="#3BC7FF"/>
    <path d="M6.08098 8.64801C6.204 8.64801 6.32426 8.68449 6.42655 8.75284C6.52884 8.82118 6.60856 8.91833 6.65564 9.03198C6.70272 9.14564 6.71503 9.2707 6.69103 9.39136C6.66703 9.51201 6.60779 9.62284 6.5208 9.70983C6.43382 9.79682 6.32299 9.85606 6.20233 9.88006C6.08167 9.90406 5.95661 9.89174 5.84296 9.84466C5.7293 9.79759 5.63216 9.71786 5.56381 9.61557C5.49546 9.51329 5.45898 9.39303 5.45898 9.27001C5.45898 9.10505 5.52452 8.94684 5.64116 8.83019C5.75781 8.71354 5.91602 8.64801 6.08098 8.64801Z" fill="#3BC7FF"/>
    <path d="M7.94195 6.60901C8.06497 6.60901 8.18522 6.64549 8.28751 6.71383C8.3898 6.78218 8.46952 6.87932 8.5166 6.99298C8.56368 7.10664 8.57599 7.2317 8.55199 7.35235C8.52799 7.47301 8.46875 7.58384 8.38177 7.67083C8.29478 7.75782 8.18395 7.81706 8.06329 7.84106C7.94264 7.86506 7.81757 7.85274 7.70392 7.80566C7.59026 7.75858 7.49312 7.67886 7.42477 7.57657C7.35643 7.47429 7.31995 7.35403 7.31995 7.23101C7.31995 7.06604 7.38548 6.90784 7.50213 6.79119C7.61877 6.67454 7.77698 6.60901 7.94195 6.60901Z" fill="#3BC7FF"/>
    <path d="M7.94095 8.64801C8.06377 8.64801 8.18383 8.68443 8.28596 8.75267C8.38808 8.8209 8.46767 8.91789 8.51468 9.03136C8.56168 9.14484 8.57398 9.2697 8.55001 9.39016C8.52605 9.51062 8.46691 9.62128 8.38006 9.70812C8.29321 9.79497 8.18256 9.85412 8.0621 9.87808C7.94164 9.90204 7.81677 9.88974 7.7033 9.84274C7.58983 9.79574 7.49284 9.71614 7.4246 9.61402C7.35637 9.5119 7.31995 9.39183 7.31995 9.26901C7.31995 9.10431 7.38537 8.94636 7.50183 8.8299C7.61829 8.71344 7.77625 8.64801 7.94095 8.64801Z" fill="#3BC7FF"/>
    <path d="M9.80498 6.60901C9.928 6.60901 10.0483 6.64549 10.1505 6.71383C10.2528 6.78218 10.3326 6.87932 10.3796 6.99298C10.4267 7.10664 10.439 7.2317 10.415 7.35235C10.391 7.47301 10.3318 7.58384 10.2448 7.67083C10.1578 7.75782 10.047 7.81706 9.92633 7.84106C9.80567 7.86506 9.68061 7.85274 9.56695 7.80566C9.4533 7.75858 9.35616 7.67886 9.28781 7.57657C9.21946 7.47429 9.18298 7.35403 9.18298 7.23101C9.18298 7.06604 9.24852 6.90784 9.36516 6.79119C9.48181 6.67454 9.64002 6.60901 9.80498 6.60901Z" fill="#3BC7FF"/>
    <path d="M9.80398 8.64905C9.92681 8.64905 10.0469 8.68547 10.149 8.75371C10.2511 8.82194 10.3307 8.91893 10.3777 9.0324C10.4247 9.14587 10.437 9.27074 10.4131 9.3912C10.3891 9.51166 10.3299 9.62231 10.2431 9.70916C10.1562 9.79601 10.0456 9.85515 9.92513 9.87912C9.80467 9.90308 9.67981 9.89078 9.56634 9.84378C9.45286 9.79677 9.35588 9.71718 9.28764 9.61506C9.2194 9.51293 9.18298 9.39287 9.18298 9.27005C9.18298 9.10535 9.24841 8.94739 9.36487 8.83093C9.48133 8.71447 9.63928 8.64905 9.80398 8.64905Z" fill="#3BC7FF"/>
    <path d="M6.08098 6.60901C6.204 6.60901 6.32426 6.64549 6.42655 6.71383C6.52884 6.78218 6.60856 6.87932 6.65564 6.99298C6.70272 7.10664 6.71503 7.2317 6.69103 7.35235C6.66703 7.47301 6.60779 7.58384 6.5208 7.67083C6.43382 7.75782 6.32299 7.81706 6.20233 7.84106C6.08167 7.86506 5.95661 7.85274 5.84296 7.80566C5.7293 7.75858 5.63216 7.67886 5.56381 7.57657C5.49546 7.47429 5.45898 7.35403 5.45898 7.23101C5.45898 7.06604 5.52452 6.90784 5.64116 6.79119C5.75781 6.67454 5.91602 6.60901 6.08098 6.60901Z" fill="#3BC7FF"/>
    <path d="M22.0499 11.7919H19.15V10.4291H20.6891V3.55609H19.15V2.20599H22.0499V11.79V11.7919ZM17.8331 11.7919H14.9332V2.20599H17.8331V3.55609H16.2921V10.4291H17.8331V11.7919Z" fill="#3BC7FF"/>
  </g>
  <defs>
    <clipPath id="clip0_6808_93330">
      <rect width="26" height="14" fill="white"/>
    </clipPath>
  </defs>
</svg>
