<svg width="26" height="14" viewBox="0 0 26 14" fill="none"
  xmlns="http://www.w3.org/2000/svg">
  <g clip-path="url(#clip0_6808_93369)">
    <path opacity="0.01" d="M26 0H0V14H26V0Z" fill="#3BC7FF"/>
    <path d="M22.3248 11.7919H19.4249V10.4291H20.964V3.55609H19.4249V2.20599H22.3248V11.79V11.7919ZM18.108 11.7919H15.2081V2.20599H18.108V3.55609H16.567V10.4291H18.108V11.7919Z" fill="#3BC7FF"/>
    <path d="M7.61796 11.684H4.62796C4.34025 11.6417 4.08016 11.4895 3.90241 11.2594C3.72467 11.0292 3.64313 10.7391 3.67496 10.45V4.34302C3.67496 4.16576 3.74531 3.99575 3.87056 3.87032C3.9958 3.74489 4.16571 3.67429 4.34296 3.67402H5.00996V2.53402C5.00996 2.48354 5.02995 2.43511 5.06555 2.39932C5.10116 2.36352 5.14948 2.34328 5.19996 2.34302H5.75296C5.77813 2.34289 5.80308 2.34773 5.82636 2.35727C5.84965 2.36681 5.87083 2.38086 5.88867 2.39861C5.90651 2.41636 5.92067 2.43746 5.93033 2.4607C5.93999 2.48393 5.94497 2.50885 5.94496 2.53402V3.67702H9.41296V2.53402C9.41296 2.50885 9.41794 2.48393 9.4276 2.4607C9.43726 2.43746 9.45142 2.41636 9.46926 2.39861C9.4871 2.38086 9.50828 2.36681 9.53157 2.35727C9.55485 2.34773 9.5798 2.34289 9.60496 2.34302H10.157C10.2076 2.34302 10.2562 2.36314 10.292 2.39896C10.3278 2.43478 10.348 2.48336 10.348 2.53402V3.67702H11.015C11.1917 3.67728 11.3612 3.74747 11.4863 3.87226C11.6115 3.99704 11.6822 4.16628 11.683 4.34302V6.87802C11.3967 6.6895 11.0815 6.54898 10.75 6.46202V5.70802H4.60696V10.45C4.6023 10.5564 4.63173 10.6615 4.69096 10.75H7.01796C7.1614 11.0931 7.36455 11.4079 7.61796 11.68V11.684ZM5.81196 9.91402C5.68855 9.91402 5.56791 9.87742 5.46529 9.80886C5.36267 9.74029 5.28269 9.64284 5.23546 9.52881C5.18823 9.41479 5.17588 9.28933 5.19995 9.16828C5.22403 9.04724 5.28346 8.93605 5.37073 8.84879C5.458 8.76152 5.56918 8.70209 5.69023 8.67801C5.81127 8.65393 5.93674 8.66629 6.05076 8.71352C6.16478 8.76075 6.26224 8.84073 6.3308 8.94334C6.39937 9.04596 6.43596 9.1666 6.43596 9.29002C6.43596 9.45551 6.37022 9.61423 6.2532 9.73125C6.13618 9.84828 5.97746 9.91402 5.81196 9.91402ZM5.81196 7.86902C5.68859 7.86922 5.56793 7.83284 5.46523 7.76448C5.36252 7.69612 5.28239 7.59885 5.23495 7.48497C5.18751 7.37108 5.17489 7.24569 5.19869 7.12463C5.22249 7.00358 5.28165 6.89229 5.36867 6.80485C5.4557 6.7174 5.5667 6.65771 5.68764 6.63333C5.80858 6.60895 5.93403 6.62096 6.04815 6.66785C6.16226 6.71475 6.25991 6.79441 6.32876 6.89679C6.39761 6.99916 6.43457 7.11965 6.43496 7.24302C6.43523 7.32505 6.41932 7.40632 6.38814 7.4822C6.35696 7.55807 6.31113 7.62705 6.25326 7.68519C6.1954 7.74334 6.12664 7.7895 6.05092 7.82104C5.97519 7.85259 5.89399 7.86889 5.81196 7.86902ZM7.31196 7.75302C7.23788 7.70024 7.17623 7.6319 7.13133 7.55279C7.08643 7.47368 7.05937 7.38571 7.05205 7.29504C7.04472 7.20438 7.05731 7.1132 7.08892 7.02791C7.12054 6.94262 7.17042 6.86527 7.23508 6.80128C7.29973 6.7373 7.37759 6.68822 7.4632 6.65749C7.54882 6.62676 7.64012 6.61511 7.7307 6.62338C7.82129 6.63164 7.90898 6.65961 7.98762 6.70532C8.06626 6.75104 8.13396 6.81339 8.18597 6.88802C7.84142 7.11676 7.54387 7.4106 7.31196 7.75302Z" fill="#3BC7FF"/>
    <path d="M9.94301 7.26398C9.41918 7.2638 8.91149 7.44527 8.50647 7.77746C8.10145 8.10966 7.82415 8.57202 7.72183 9.08576C7.61952 9.5995 7.69851 10.1328 7.94535 10.5948C8.1922 11.0569 8.59162 11.419 9.07554 11.6195C9.55947 11.82 10.098 11.8466 10.5992 11.6945C11.1005 11.5425 11.5336 11.2214 11.8246 10.7859C12.1157 10.3503 12.2467 9.82733 12.1953 9.30603C12.144 8.78472 11.9134 8.29735 11.543 7.92698C11.1186 7.50265 10.5431 7.26418 9.94301 7.26398ZM10.926 10.335C10.9111 10.3607 10.8896 10.382 10.8638 10.3967C10.838 10.4115 10.8087 10.4191 10.779 10.419C10.7485 10.4195 10.7185 10.4108 10.693 10.394L9.99301 9.97498C9.90398 9.91641 9.83028 9.83736 9.77809 9.74445C9.72589 9.65154 9.69672 9.54748 9.69301 9.44098V8.51298C9.69301 8.46789 9.71092 8.42465 9.7428 8.39277C9.77468 8.36089 9.81792 8.34298 9.86301 8.34298C9.90809 8.34298 9.95133 8.36089 9.98321 8.39277C10.0151 8.42465 10.033 8.46789 10.033 8.51298V9.44098C10.0371 9.48879 10.0515 9.53515 10.0751 9.57691C10.0988 9.61867 10.1311 9.65485 10.17 9.68298L10.87 10.102C10.8895 10.1131 10.9065 10.1281 10.9201 10.1459C10.9336 10.1638 10.9435 10.1842 10.949 10.2059C10.9545 10.2277 10.9556 10.2503 10.9521 10.2725C10.9487 10.2947 10.9408 10.3159 10.929 10.335H10.926Z" fill="#454450"/>
  </g>
  <defs>
    <clipPath id="clip0_6808_93369">
      <rect width="26" height="14" fill="white"/>
    </clipPath>
  </defs>
</svg>
