<svg width="26" height="14" viewBox="0 0 26 14" fill="none"
  xmlns="http://www.w3.org/2000/svg">
  <g clip-path="url(#clip0_6808_92424)">
    <path opacity="0.01" d="M26 0H0V14H26V0Z" fill="#5F89FF"/>
    <path d="M15.3311 11.6766C15.2075 11.6766 15.0597 11.6515 14.8919 11.602C14.7264 11.5531 14.5597 11.4825 14.3964 11.392L14.3449 11.3635V11.3046V10.3878V10.2493L14.4763 10.2928C14.6586 10.3532 14.807 10.4018 14.9214 10.4387C15.047 10.4792 15.0842 10.4875 15.0937 10.4892C15.1651 10.4887 15.2234 10.4744 15.2668 10.4469C15.2791 10.4391 15.3117 10.4184 15.3117 10.3324V7.98495C15.3117 7.79198 15.3729 7.59695 15.4936 7.40527C15.5864 7.25781 15.705 7.12945 15.8472 7.02227C15.7949 6.98196 15.7457 6.9381 15.6999 6.89108C15.6199 6.80897 15.5503 6.72009 15.493 6.6269C15.4351 6.53273 15.39 6.43339 15.359 6.33163C15.3276 6.22859 15.3117 6.12557 15.3117 6.02543V3.67803C15.3117 3.60319 15.2842 3.57562 15.2636 3.56139C15.22 3.53133 15.1614 3.51609 15.0894 3.51609C15.0746 3.51791 14.977 3.54054 14.484 3.74992L14.3449 3.80899V3.65788V2.70582V2.64799L14.395 2.61915C14.5583 2.52514 14.7252 2.4518 14.891 2.40114C15.0591 2.34978 15.2071 2.32373 15.3311 2.32373C15.5489 2.32373 15.7486 2.35436 15.9248 2.41478C16.1027 2.47577 16.2557 2.56095 16.3794 2.66797C16.5046 2.77619 16.6019 2.90654 16.6685 3.05537C16.7349 3.20369 16.7685 3.36403 16.7685 3.53195V5.76852C16.7685 5.83472 16.7737 5.9112 16.7839 5.99582C16.7935 6.07569 16.8121 6.15019 16.8392 6.21726C16.8643 6.27975 16.8985 6.33072 16.9437 6.3731C16.9803 6.40743 17.0308 6.42412 17.0982 6.42412H17.5709H17.6709V6.52412V7.49129V7.59129H17.5709H17.0982C17.0309 7.59129 16.9803 7.60798 16.9437 7.64232C16.8985 7.68469 16.8643 7.73566 16.8392 7.79815C16.8121 7.86523 16.7935 7.93973 16.7839 8.0196C16.7737 8.10422 16.7685 8.18069 16.7685 8.24689V10.4734C16.7685 10.6482 16.7348 10.8112 16.6683 10.958C16.6017 11.1049 16.5045 11.2343 16.3794 11.3424C16.2552 11.4498 16.1016 11.5335 15.9231 11.5911C15.7474 11.6478 15.5483 11.6766 15.3311 11.6766ZM10.6631 11.6766C10.4459 11.6766 10.2475 11.6478 10.0735 11.591C9.8971 11.5335 9.74387 11.45 9.61807 11.3429C9.49093 11.2347 9.39265 11.1052 9.32594 10.958C9.25943 10.8112 9.22571 10.6482 9.22571 10.4734V8.24689C9.22571 8.18069 9.22053 8.10422 9.21032 8.0196C9.2006 7.93907 9.18267 7.86392 9.15701 7.79623C9.13362 7.73454 9.10054 7.68418 9.05589 7.64231C9.01928 7.60798 8.9705 7.59129 8.90677 7.59129H8.42874H8.32874V7.49129V6.52412V6.42412H8.42874H8.90677C8.97051 6.42412 9.01929 6.40743 9.05589 6.3731C9.10054 6.33123 9.13362 6.28088 9.15702 6.21917C9.18267 6.15151 9.2006 6.07635 9.21032 5.99582C9.22053 5.9112 9.22571 5.83472 9.22571 5.76852V3.53195C9.22571 3.36403 9.25937 3.20369 9.32574 3.05537C9.39246 2.9063 9.49081 2.77579 9.61807 2.66746C9.74339 2.56078 9.89603 2.4758 10.0718 2.41488C10.2463 2.3544 10.4452 2.32373 10.6631 2.32373C10.723 2.32373 10.791 2.33115 10.8651 2.34577C10.9359 2.35976 11.0131 2.37917 11.0945 2.40346C11.1768 2.42802 11.2611 2.4591 11.345 2.49584C11.4287 2.53243 11.5107 2.57399 11.5888 2.61934L11.6386 2.64824V2.70582V3.65788V3.81133L11.4982 3.74936C11.3185 3.67003 11.1731 3.6098 11.0662 3.57036C10.9465 3.52619 10.9102 3.51771 10.9011 3.5161C10.8314 3.51661 10.7753 3.53157 10.7345 3.56058C10.7145 3.57477 10.6879 3.60239 10.6879 3.67803V6.02543C10.6879 6.22447 10.627 6.4258 10.5069 6.62384C10.4131 6.77847 10.2918 6.91255 10.1452 7.02386C10.1951 7.0625 10.2426 7.10397 10.2874 7.14794C10.3674 7.22659 10.4381 7.3128 10.4973 7.40417C10.557 7.49627 10.6039 7.59181 10.6369 7.68813C10.6707 7.78714 10.6879 7.88701 10.6879 7.98495V10.3324C10.6879 10.4193 10.7194 10.4399 10.7313 10.4476C10.7728 10.4748 10.83 10.4888 10.9012 10.4892C10.91 10.4879 10.9461 10.4806 11.0723 10.443C11.1824 10.4102 11.3275 10.3601 11.5035 10.2941L11.6386 10.2434V10.3878V11.3046V11.3621L11.5888 11.391C11.5102 11.4367 11.4276 11.4776 11.3434 11.5127C11.26 11.5475 11.1762 11.5775 11.0945 11.6019C11.0124 11.6264 10.9344 11.6451 10.8628 11.6575C10.7894 11.6701 10.7222 11.6766 10.6631 11.6766Z" fill="#5F89FF"/>
    <path d="M10.6631 2.42375C10.4554 2.42375 10.2692 2.4523 10.1045 2.50939C9.93983 2.56648 9.79928 2.64456 9.68291 2.74362C9.56654 2.84269 9.47791 2.96023 9.41704 3.09624C9.35617 3.23225 9.32573 3.37749 9.32573 3.53197V5.76854C9.32573 5.83907 9.32036 5.91882 9.30962 6.00782C9.29888 6.09681 9.27918 6.17908 9.25054 6.25465C9.22189 6.3302 9.17982 6.39401 9.12432 6.44606C9.06881 6.49812 8.9963 6.52414 8.90679 6.52414H8.42876V7.49131H8.90679C8.9963 7.49131 9.06881 7.51734 9.12432 7.56939C9.17982 7.62144 9.22189 7.68525 9.25054 7.76081C9.27918 7.83637 9.29888 7.91864 9.30962 8.00764C9.32036 8.09663 9.32573 8.17639 9.32573 8.24691V10.4734C9.32573 10.6346 9.35617 10.7824 9.41704 10.9167C9.47791 11.051 9.56654 11.1677 9.68291 11.2668C9.79928 11.3659 9.93983 11.4423 10.1045 11.496C10.2692 11.5497 10.4554 11.5766 10.6631 11.5766C10.7168 11.5766 10.7777 11.5707 10.8457 11.559C10.9138 11.5472 10.9872 11.5296 11.066 11.5061C11.1447 11.4826 11.2244 11.454 11.305 11.4204C11.3855 11.3869 11.4634 11.3482 11.5386 11.3046V10.3878C11.3596 10.4549 11.2137 10.5053 11.1009 10.5389C10.9881 10.5725 10.9227 10.5893 10.9048 10.5893C10.8117 10.5893 10.7356 10.57 10.6766 10.5313C10.6175 10.4927 10.5879 10.4264 10.5879 10.3324V7.98497C10.5879 7.89765 10.5727 7.8095 10.5423 7.72051C10.5118 7.63152 10.4689 7.5442 10.4134 7.45857C10.3579 7.37293 10.2925 7.29317 10.2173 7.21929C10.1421 7.14541 10.0598 7.07993 9.97026 7.02284C10.16 6.9053 10.3104 6.75502 10.4214 6.572C10.5324 6.38897 10.5879 6.20679 10.5879 6.02545V3.67805C10.5879 3.58738 10.6175 3.52105 10.6766 3.47908C10.7356 3.4371 10.8117 3.41611 10.9048 3.41611C10.9263 3.41611 10.9917 3.43626 11.1009 3.47656C11.2101 3.51686 11.356 3.5773 11.5386 3.6579V2.70584C11.4634 2.66219 11.3855 2.62274 11.305 2.58747C11.2244 2.55221 11.1447 2.52282 11.066 2.49931C10.9872 2.47581 10.9138 2.45735 10.8457 2.4439C10.7777 2.43047 10.7168 2.42375 10.6631 2.42375ZM15.3311 2.42375C15.2165 2.42375 15.0796 2.4481 14.9202 2.49679C14.7609 2.54549 14.6025 2.61517 14.4449 2.70584V3.6579C14.8245 3.49671 15.0393 3.41611 15.0894 3.41611C15.1825 3.41611 15.2595 3.4371 15.3204 3.47908C15.3813 3.52105 15.4117 3.58738 15.4117 3.67805V6.02545C15.4117 6.11612 15.426 6.20847 15.4547 6.3025C15.4833 6.39653 15.5245 6.4872 15.5782 6.57452C15.6319 6.66183 15.6964 6.74411 15.7716 6.82134C15.8468 6.89858 15.9309 6.96575 16.024 7.02284C15.8378 7.13702 15.6892 7.28226 15.5782 7.45857C15.4672 7.63487 15.4117 7.81034 15.4117 7.98497V10.3324C15.4117 10.4264 15.3813 10.4927 15.3204 10.5313C15.2595 10.57 15.1825 10.5893 15.0894 10.5893C15.0715 10.5893 15.0053 10.5708 14.8907 10.5339C14.7761 10.4969 14.6275 10.4482 14.4449 10.3878V11.3046C14.6025 11.3919 14.7609 11.4591 14.9202 11.5061C15.0796 11.5531 15.2165 11.5766 15.3311 11.5766C15.5388 11.5766 15.7259 11.5497 15.8924 11.496C16.0589 11.4423 16.1995 11.3659 16.314 11.2668C16.4286 11.1677 16.5164 11.051 16.5772 10.9167C16.6381 10.7824 16.6685 10.6346 16.6685 10.4734V8.24691C16.6685 8.17639 16.6739 8.09663 16.6847 8.00764C16.6954 7.91864 16.716 7.83637 16.7464 7.76081C16.7768 7.68525 16.8198 7.62144 16.8753 7.56939C16.9308 7.51734 17.0051 7.49131 17.0982 7.49131H17.5709V6.52414H17.0982C17.0051 6.52414 16.9308 6.49812 16.8753 6.44606C16.8198 6.39401 16.7768 6.3302 16.7464 6.25465C16.716 6.17908 16.6954 6.09681 16.6847 6.00782C16.6739 5.91882 16.6685 5.83907 16.6685 5.76854V3.53197C16.6685 3.37749 16.6381 3.23225 16.5772 3.09624C16.5164 2.96023 16.4286 2.84269 16.314 2.74362C16.1995 2.64456 16.0589 2.56648 15.8924 2.50939C15.7259 2.4523 15.5388 2.42375 15.3311 2.42375ZM10.6631 2.22375C10.7295 2.22375 10.804 2.2318 10.8845 2.24769C10.9584 2.26229 11.0387 2.28246 11.1231 2.30766C11.2093 2.33338 11.2975 2.36588 11.3852 2.40425C11.4722 2.44235 11.5576 2.48563 11.639 2.53287L11.7386 2.59069V3.96479L11.4579 3.84087C11.28 3.76237 11.1366 3.70292 11.0316 3.66419C10.9446 3.63209 10.9057 3.62042 10.8906 3.61636C10.8473 3.61789 10.8144 3.62652 10.7925 3.64208C10.7925 3.64208 10.7879 3.65277 10.7879 3.67805V6.02545C10.7879 6.24304 10.7222 6.46182 10.5924 6.67571C10.5134 6.80606 10.4161 6.92269 10.3019 7.02443C10.3209 7.04144 10.3394 7.05884 10.3575 7.07663C10.4428 7.16039 10.518 7.2523 10.5812 7.3498C10.6454 7.44877 10.6959 7.55172 10.7315 7.6558C10.769 7.76524 10.7879 7.87599 10.7879 7.98497V10.3324C10.7879 10.3511 10.79 10.3619 10.7915 10.3673C10.8148 10.3804 10.8494 10.3879 10.8923 10.3891C10.9073 10.3858 10.9472 10.376 11.0438 10.3472C11.1517 10.3151 11.2946 10.2657 11.4684 10.2005L11.7386 10.0991V11.4197L11.639 11.4775C11.5567 11.5254 11.4702 11.5683 11.3819 11.605C11.2952 11.6412 11.2082 11.6724 11.1231 11.6977C11.0372 11.7234 10.9553 11.743 10.8798 11.756C10.8008 11.7697 10.7279 11.7766 10.6631 11.7766C10.4353 11.7766 10.2265 11.7462 10.0425 11.6861C9.85365 11.6245 9.68904 11.5347 9.55326 11.4191C9.41483 11.3012 9.30771 11.16 9.23487 10.9993C9.16245 10.8394 9.12573 10.6625 9.12573 10.4734V8.24691C9.12573 8.1847 9.12079 8.11226 9.11106 8.0316C9.10231 7.95909 9.08632 7.89183 9.06352 7.8317C9.04566 7.78458 9.02079 7.74649 8.98751 7.71527C8.98053 7.70873 8.96195 7.69131 8.90679 7.69131H8.22876V6.32414H8.90679C8.96195 6.32414 8.98052 6.30673 8.9875 6.30018C9.02079 6.26896 9.04566 6.23087 9.06353 6.18373C9.08632 6.12363 9.10231 6.05636 9.11106 5.98386C9.12079 5.9032 9.12573 5.83075 9.12573 5.76854V3.53197C9.12573 3.34988 9.16232 3.17579 9.23449 3.01454C9.30733 2.85179 9.41458 2.7094 9.55326 2.59133C9.68809 2.47656 9.85153 2.38541 10.039 2.32042C10.2241 2.25627 10.4341 2.22375 10.6631 2.22375ZM15.3311 2.22375C15.56 2.22375 15.7706 2.2562 15.9573 2.3202C16.1473 2.38536 16.3113 2.47691 16.4448 2.59232C16.5812 2.71021 16.6872 2.85226 16.7598 3.01454C16.8319 3.17579 16.8685 3.34988 16.8685 3.53197V5.76854C16.8685 5.83075 16.8735 5.9032 16.8832 5.98386C16.8918 6.05501 16.9082 6.12097 16.9319 6.17992C16.9515 6.22863 16.9778 6.26796 17.0121 6.30018C17.0184 6.3061 17.0377 6.32414 17.0982 6.32414H17.7709V7.69131H17.0982C17.0377 7.69131 17.0184 7.70936 17.0121 7.71529C16.9778 7.74749 16.9515 7.78682 16.9319 7.83552C16.9082 7.89448 16.8918 7.96044 16.8832 8.0316C16.8735 8.11226 16.8685 8.1847 16.8685 8.24691V10.4734C16.8685 10.6625 16.8318 10.8394 16.7594 10.9993C16.6868 11.1595 16.5809 11.3004 16.4448 11.4181C16.3104 11.5343 16.1452 11.6246 15.9538 11.6863C15.7682 11.7462 15.5587 11.7766 15.3311 11.7766C15.196 11.7766 15.0431 11.7508 14.8636 11.6979C14.6911 11.647 14.5176 11.5735 14.348 11.4795L14.2449 11.4224V10.1109L14.5077 10.1979C14.6898 10.2582 14.8379 10.3067 14.9521 10.3435C15.0472 10.3742 15.0878 10.3852 15.1037 10.3891C15.148 10.3877 15.1831 10.3797 15.2084 10.3654C15.2097 10.3604 15.2117 10.3501 15.2117 10.3324V7.98497C15.2117 7.77285 15.2781 7.5599 15.4089 7.35201C15.4865 7.22886 15.5807 7.11823 15.6905 7.02119C15.6692 7.00167 15.6484 6.98156 15.6283 6.96086C15.5432 6.87348 15.469 6.77876 15.4079 6.67933C15.3455 6.57788 15.2968 6.47072 15.2633 6.36079C15.2291 6.2483 15.2117 6.13548 15.2117 6.02545V3.67805C15.2117 3.65241 15.2069 3.64331 15.2069 3.64331C15.1823 3.62678 15.1468 3.61759 15.101 3.61628C15.0684 3.62408 14.9475 3.66175 14.5231 3.84199L14.2449 3.96012V2.59018L14.3451 2.53249C14.515 2.43475 14.6888 2.35839 14.8618 2.30552C15.0419 2.2505 15.1954 2.22375 15.3311 2.22375Z" fill="#5F89FF"/>
  </g>
  <defs>
    <clipPath id="clip0_6808_92424">
      <rect width="26" height="14" fill="white"/>
    </clipPath>
  </defs>
</svg>
