<svg width="26" height="14" viewBox="0 0 26 14" fill="none"
  xmlns="http://www.w3.org/2000/svg">
  <g clip-path="url(#clip0_6808_93171)">
    <path opacity="0.01" d="M26 0H0V14H26V0Z" fill="#5F89FF"/>
    <path d="M13.818 7.58601H11.465V10H10V3.93701H14.055V5.06701H11.465V6.46201H13.821L13.818 7.58601Z" fill="#5F89FF"/>
    <path d="M8.81624 11.0478H8.76624H8.0002H7.9502V10.9978V3.00251V2.95251H8.0002H8.76624H8.81624V3.00251V10.9978V11.0478Z" fill="#A7C4FF"/>
    <path d="M8.76619 10.9978V3.00253H8.00015V10.9978H8.76619ZM8.86619 11.0978H7.90015V2.90253H8.86619V11.0978Z" fill="#A7C4FF"/>
    <path d="M6.994 5.06701H5.175V10H3.713V5.06701H1.927V3.93701H6.994V5.06701Z" fill="#5F89FF"/>
    <path d="M23.7769 11.7619H20.877V10.3991H22.416V3.52606H20.877V2.17596H23.7769V11.7599V11.7619ZM19.5601 11.7619H16.6602V2.17596H19.5601V3.52606H18.019V10.3991H19.5601V11.7619Z" fill="#5F89FF"/>
  </g>
  <defs>
    <clipPath id="clip0_6808_93171">
      <rect width="26" height="14" fill="white"/>
    </clipPath>
  </defs>
</svg>
