<svg width="26" height="14" viewBox="0 0 26 14" fill="none"
  xmlns="http://www.w3.org/2000/svg">
  <g clip-path="url(#clip0_6808_92395)">
    <path opacity="0.01" d="M26 0H0V14H26V0Z" fill="#5F89FF"/>
    <path d="M17.8739 10.0432V8.17933L16.049 3.95569H17.5193L18.5984 6.65383L19.668 3.95569H21.0885L19.274 8.17933V10.0432H17.8739ZM18.5994 6.96105L19.7487 4.06945L18.6013 6.95909L18.5994 6.96105ZM14.545 10.0432L12.2738 6.45544V10.0432H10.8666V3.95569H11.9856L14.2649 7.54541V3.95569H15.664V10.0432H14.545ZM14.3826 7.9353V4.0704V7.93239V7.9353ZM8.92011 10.0442L8.54695 8.81621H6.71963L6.35739 10.0442H4.90845L6.8179 3.95664H8.46529L10.3738 10.0442H8.92011ZM8.3523 7.65039L7.63068 5.07575L8.3523 7.64843V7.65039ZM7.06003 7.53663H8.20181L7.62973 5.49484L7.06003 7.53663Z" fill="#5F89FF"/>
  </g>
  <defs>
    <clipPath id="clip0_6808_92395">
      <rect width="26" height="14" fill="white"/>
    </clipPath>
  </defs>
</svg>
