<svg width="26" height="14" viewBox="0 0 26 14" fill="none"
  xmlns="http://www.w3.org/2000/svg">
  <g clip-path="url(#clip0_6808_93245)">
    <path opacity="0.01" d="M26 0H0V14H26V0Z" fill="#5F89FF"/>
    <path d="M10.2731 11.6766C10.1495 11.6766 10.0017 11.6515 9.83394 11.602C9.66838 11.5531 9.50167 11.4825 9.33842 11.392L9.28689 11.3635V11.3046V10.3878V10.2493L9.41831 10.2928C9.60063 10.3532 9.74898 10.4018 9.86337 10.4387C9.98902 10.4792 10.0263 10.4875 10.0357 10.4892C10.1072 10.4887 10.1654 10.4744 10.2088 10.4469C10.2211 10.4391 10.2537 10.4184 10.2537 10.3324V7.98495C10.2537 7.79198 10.3149 7.59695 10.4356 7.40527C10.5284 7.25781 10.647 7.12945 10.7892 7.02227C10.7369 6.98196 10.6877 6.9381 10.6419 6.89108C10.562 6.80897 10.4924 6.72009 10.435 6.6269C10.3771 6.53273 10.332 6.43339 10.301 6.33163C10.2696 6.22859 10.2537 6.12557 10.2537 6.02543V3.67803C10.2537 3.60319 10.2263 3.57562 10.2056 3.56139C10.162 3.53133 10.1034 3.51609 10.0314 3.51609C10.0166 3.51791 9.91901 3.54054 9.42598 3.74992L9.28689 3.80899V3.65788V2.70582V2.64799L9.33701 2.61915C9.50036 2.52514 9.66724 2.4518 9.83302 2.40114C10.0011 2.34978 10.1492 2.32373 10.2731 2.32373C10.4909 2.32373 10.6906 2.35436 10.8668 2.41478C11.0447 2.47577 11.1977 2.56095 11.3214 2.66797C11.4466 2.77619 11.5439 2.90654 11.6105 3.05537C11.6769 3.20369 11.7105 3.36403 11.7105 3.53195V5.76852C11.7105 5.83472 11.7157 5.9112 11.7259 5.99582C11.7356 6.07569 11.7542 6.15019 11.7812 6.21726C11.8063 6.27975 11.8405 6.33072 11.8857 6.3731C11.9223 6.40743 11.9729 6.42412 12.0402 6.42412H12.5129H12.6129V6.52412V7.49129V7.59129H12.5129H12.0402C11.9729 7.59129 11.9223 7.60798 11.8857 7.64232C11.8405 7.68469 11.8063 7.73566 11.7812 7.79815C11.7541 7.86523 11.7356 7.93973 11.7259 8.0196C11.7157 8.10422 11.7105 8.18069 11.7105 8.24689V10.4734C11.7105 10.6482 11.6768 10.8112 11.6103 10.958C11.5437 11.1049 11.4465 11.2343 11.3214 11.3424C11.1972 11.4498 11.0437 11.5335 10.8651 11.5911C10.6894 11.6478 10.4903 11.6766 10.2731 11.6766ZM5.60512 11.6766C5.38787 11.6766 5.1895 11.6478 5.01552 11.591C4.83911 11.5335 4.68588 11.45 4.56008 11.3429C4.43294 11.2347 4.33466 11.1052 4.26795 10.958C4.20144 10.8112 4.16772 10.6482 4.16772 10.4734V8.24689C4.16772 8.18069 4.16254 8.10422 4.15233 8.0196C4.14261 7.93907 4.12468 7.86392 4.09902 7.79623C4.07563 7.73454 4.04255 7.68418 3.9979 7.64231C3.96129 7.60798 3.91251 7.59129 3.84878 7.59129H3.37075H3.27075V7.49129V6.52412V6.42412H3.37075H3.84878C3.91252 6.42412 3.9613 6.40743 3.9979 6.3731C4.04255 6.33123 4.07563 6.28088 4.09903 6.21917C4.12468 6.15151 4.14261 6.07635 4.15233 5.99582C4.16254 5.9112 4.16772 5.83472 4.16772 5.76852V3.53195C4.16772 3.36403 4.20138 3.20369 4.26775 3.05537C4.33447 2.9063 4.43282 2.77579 4.56008 2.66746C4.6854 2.56078 4.83804 2.4758 5.01378 2.41488C5.18829 2.3544 5.38724 2.32373 5.60512 2.32373C5.66506 2.32373 5.73301 2.33115 5.80711 2.34577C5.87791 2.35976 5.9551 2.37917 6.03655 2.40346C6.11884 2.42802 6.20312 2.4591 6.28706 2.49584C6.37068 2.53243 6.4527 2.57399 6.53082 2.61934L6.58061 2.64824V2.70582V3.65788V3.81133L6.44023 3.74936C6.26049 3.67003 6.11515 3.6098 6.00825 3.57036C5.88856 3.52619 5.85217 3.51771 5.84316 3.5161C5.77338 3.51661 5.71731 3.53157 5.67647 3.56058C5.65649 3.57477 5.62993 3.60239 5.62993 3.67803V6.02543C5.62993 6.22447 5.56903 6.4258 5.44893 6.62384C5.35514 6.77847 5.23383 6.91255 5.08726 7.02386C5.13713 7.0625 5.18466 7.10397 5.22941 7.14794C5.30946 7.22659 5.38008 7.3128 5.43929 7.40417C5.49898 7.49627 5.54595 7.59181 5.57889 7.68813C5.61276 7.78714 5.62993 7.88701 5.62993 7.98495V10.3324C5.62993 10.4193 5.66141 10.4399 5.67327 10.4476C5.71483 10.4748 5.772 10.4888 5.84322 10.4892C5.852 10.4879 5.8881 10.4806 6.01434 10.443C6.12446 10.4102 6.26952 10.3601 6.44549 10.2941L6.58061 10.2434V10.3878V11.3046V11.3621L6.53082 11.391C6.45222 11.4367 6.36966 11.4776 6.28544 11.5127C6.20197 11.5475 6.11823 11.5775 6.03655 11.6019C5.95438 11.6264 5.87639 11.6451 5.80477 11.6575C5.73142 11.6701 5.66425 11.6766 5.60512 11.6766Z" fill="#5F89FF"/>
    <path d="M5.60515 2.42375C5.39747 2.42375 5.21127 2.4523 5.04656 2.50939C4.88185 2.56648 4.7413 2.64456 4.62493 2.74362C4.50856 2.84269 4.41993 2.96023 4.35906 3.09624C4.29819 3.23225 4.26775 3.37749 4.26775 3.53197V5.76854C4.26775 5.83907 4.26238 5.91882 4.25164 6.00782C4.2409 6.09681 4.2212 6.17908 4.19256 6.25465C4.16391 6.3302 4.12184 6.39401 4.06634 6.44606C4.01083 6.49812 3.93832 6.52414 3.84881 6.52414H3.37078V7.49131H3.84881C3.93832 7.49131 4.01083 7.51734 4.06634 7.56939C4.12184 7.62144 4.16391 7.68525 4.19256 7.76081C4.2212 7.83637 4.2409 7.91864 4.25164 8.00764C4.26238 8.09663 4.26775 8.17639 4.26775 8.24691V10.4734C4.26775 10.6346 4.29819 10.7824 4.35906 10.9167C4.41993 11.051 4.50856 11.1677 4.62493 11.2668C4.7413 11.3659 4.88185 11.4423 5.04656 11.496C5.21127 11.5497 5.39747 11.5766 5.60515 11.5766C5.65887 11.5766 5.71974 11.5707 5.78777 11.559C5.85581 11.5472 5.92921 11.5296 6.00799 11.5061C6.08676 11.4826 6.16643 11.454 6.247 11.4204C6.32757 11.3869 6.40545 11.3482 6.48064 11.3046V10.3878C6.30161 10.4549 6.15569 10.5053 6.0429 10.5389C5.93011 10.5725 5.86476 10.5893 5.84685 10.5893C5.75375 10.5893 5.67766 10.57 5.61858 10.5313C5.5595 10.4927 5.52996 10.4264 5.52996 10.3324V7.98497C5.52996 7.89765 5.51474 7.8095 5.4843 7.72051C5.45387 7.63152 5.4109 7.5442 5.3554 7.45857C5.2999 7.37293 5.23455 7.29317 5.15935 7.21929C5.08416 7.14541 5.0018 7.07993 4.91228 7.02284C5.10206 6.9053 5.25245 6.75502 5.36346 6.572C5.47446 6.38897 5.52996 6.20679 5.52996 6.02545V3.67805C5.52996 3.58738 5.5595 3.52105 5.61858 3.47908C5.67766 3.4371 5.75375 3.41611 5.84685 3.41611C5.86834 3.41611 5.93369 3.43626 6.0429 3.47656C6.15211 3.51686 6.29803 3.5773 6.48064 3.6579V2.70584C6.40545 2.66219 6.32757 2.62274 6.247 2.58747C6.16643 2.55221 6.08676 2.52282 6.00799 2.49931C5.92921 2.47581 5.85581 2.45735 5.78777 2.4439C5.71974 2.43047 5.65887 2.42375 5.60515 2.42375ZM10.2731 2.42375C10.1586 2.42375 10.0216 2.4481 9.86227 2.49679C9.70292 2.54549 9.54448 2.61517 9.38692 2.70584V3.6579C9.76648 3.49671 9.98132 3.41611 10.0315 3.41611C10.1245 3.41611 10.2015 3.4371 10.2624 3.47908C10.3233 3.52105 10.3537 3.58738 10.3537 3.67805V6.02545C10.3537 6.11612 10.368 6.20847 10.3967 6.3025C10.4253 6.39653 10.4665 6.4872 10.5202 6.57452C10.5739 6.66183 10.6384 6.74411 10.7136 6.82134C10.7888 6.89858 10.8729 6.96575 10.966 7.02284C10.7798 7.13702 10.6312 7.28226 10.5202 7.45857C10.4092 7.63487 10.3537 7.81034 10.3537 7.98497V10.3324C10.3537 10.4264 10.3233 10.4927 10.2624 10.5313C10.2015 10.57 10.1245 10.5893 10.0315 10.5893C10.0135 10.5893 9.94731 10.5708 9.83272 10.5339C9.71814 10.4969 9.56954 10.4482 9.38692 10.3878V11.3046C9.54448 11.3919 9.70292 11.4591 9.86227 11.5061C10.0216 11.5531 10.1586 11.5766 10.2731 11.5766C10.4808 11.5766 10.6679 11.5497 10.8344 11.496C11.0009 11.4423 11.1415 11.3659 11.2561 11.2668C11.3706 11.1677 11.4584 11.051 11.5192 10.9167C11.5801 10.7824 11.6106 10.6346 11.6106 10.4734V8.24691C11.6106 8.17639 11.6159 8.09663 11.6267 8.00764C11.6374 7.91864 11.658 7.83637 11.6884 7.76081C11.7189 7.68525 11.7618 7.62144 11.8173 7.56939C11.8728 7.51734 11.9471 7.49131 12.0402 7.49131H12.5129V6.52414H12.0402C11.9471 6.52414 11.8728 6.49812 11.8173 6.44606C11.7618 6.39401 11.7189 6.3302 11.6884 6.25465C11.658 6.17908 11.6374 6.09681 11.6267 6.00782C11.6159 5.91882 11.6106 5.83907 11.6106 5.76854V3.53197C11.6106 3.37749 11.5801 3.23225 11.5192 3.09624C11.4584 2.96023 11.3706 2.84269 11.2561 2.74362C11.1415 2.64456 11.0009 2.56648 10.8344 2.50939C10.6679 2.4523 10.4808 2.42375 10.2731 2.42375ZM5.60515 2.22375C5.67157 2.22375 5.74605 2.2318 5.82651 2.24769C5.90041 2.26229 5.9807 2.28246 6.06516 2.30766C6.15136 2.33338 6.23951 2.36588 6.32718 2.40425C6.41426 2.44235 6.49967 2.48563 6.58105 2.53287L6.68064 2.59069V3.96479L6.39988 3.84087C6.22202 3.76237 6.07862 3.70292 5.97366 3.66419C5.88665 3.63209 5.84774 3.62042 5.83257 3.61636C5.78936 3.61789 5.7564 3.62652 5.73448 3.64208C5.73448 3.64208 5.72996 3.65277 5.72996 3.67805V6.02545C5.72996 6.24304 5.66419 6.46182 5.53447 6.67571C5.4554 6.80606 5.35816 6.92269 5.24394 7.02443C5.26288 7.04144 5.28141 7.05884 5.29952 7.07663C5.38478 7.16039 5.46005 7.2523 5.52324 7.3498C5.58738 7.44877 5.63795 7.55172 5.67354 7.6558C5.71098 7.76524 5.72996 7.87599 5.72996 7.98497V10.3324C5.72996 10.3511 5.73203 10.3619 5.73348 10.3673C5.75687 10.3804 5.7914 10.3879 5.83436 10.3891C5.84936 10.3858 5.88919 10.376 5.98583 10.3472C6.09374 10.3151 6.23658 10.2657 6.41039 10.2005L6.68064 10.0991V11.4197L6.58107 11.4775C6.49869 11.5254 6.41218 11.5683 6.32394 11.605C6.23726 11.6412 6.15019 11.6724 6.06517 11.6977C5.97922 11.7234 5.89735 11.743 5.82183 11.756C5.74287 11.7697 5.66997 11.7766 5.60515 11.7766C5.37735 11.7766 5.16854 11.7462 4.98453 11.6861C4.79567 11.6245 4.63106 11.5347 4.49528 11.4191C4.35685 11.3012 4.24973 11.16 4.17689 10.9993C4.10447 10.8394 4.06775 10.6625 4.06775 10.4734V8.24691C4.06775 8.1847 4.06281 8.11226 4.05308 8.0316C4.04433 7.95909 4.02834 7.89183 4.00554 7.8317C3.98768 7.78458 3.96281 7.74649 3.92953 7.71527C3.92255 7.70873 3.90397 7.69131 3.84881 7.69131H3.17078V6.32414H3.84881C3.90397 6.32414 3.92254 6.30673 3.92952 6.30018C3.96281 6.26896 3.98768 6.23087 4.00555 6.18373C4.02834 6.12363 4.04433 6.05636 4.05308 5.98386C4.06281 5.9032 4.06775 5.83075 4.06775 5.76854V3.53197C4.06775 3.34988 4.10434 3.17579 4.17651 3.01454C4.24935 2.85179 4.3566 2.7094 4.49528 2.59133C4.63011 2.47656 4.79355 2.38541 4.98106 2.32042C5.16613 2.25627 5.3761 2.22375 5.60515 2.22375ZM10.2731 2.22375C10.502 2.22375 10.7126 2.2562 10.8993 2.3202C11.0893 2.38536 11.2534 2.47691 11.3869 2.59232C11.5232 2.71021 11.6292 2.85226 11.7018 3.01454C11.774 3.17579 11.8106 3.34988 11.8106 3.53197V5.76854C11.8106 5.83075 11.8155 5.9032 11.8252 5.98386C11.8338 6.05501 11.8502 6.12097 11.874 6.17992C11.8936 6.22863 11.9198 6.26796 11.9541 6.30018C11.9605 6.3061 11.9797 6.32414 12.0402 6.32414H12.7129V7.69131H12.0402C11.9797 7.69131 11.9605 7.70936 11.9541 7.71529C11.9198 7.74749 11.8936 7.78682 11.874 7.83552C11.8502 7.89448 11.8338 7.96044 11.8252 8.0316C11.8155 8.11226 11.8106 8.1847 11.8106 8.24691V10.4734C11.8106 10.6625 11.7738 10.8394 11.7014 10.9993C11.6288 11.1595 11.523 11.3004 11.3869 11.4181C11.2524 11.5343 11.0872 11.6246 10.8958 11.6863C10.7102 11.7462 10.5007 11.7766 10.2731 11.7766C10.1381 11.7766 9.98514 11.7508 9.80566 11.6979C9.63312 11.647 9.45961 11.5735 9.28998 11.4795L9.18692 11.4224V10.1109L9.44976 10.1979C9.63178 10.2582 9.77989 10.3067 9.89409 10.3435C9.98927 10.3742 10.0298 10.3852 10.0457 10.3891C10.09 10.3877 10.1251 10.3797 10.1504 10.3654C10.1518 10.3604 10.1537 10.3501 10.1537 10.3324V7.98497C10.1537 7.77285 10.2201 7.5599 10.351 7.35201C10.4285 7.22886 10.5227 7.11823 10.6326 7.02119C10.6112 7.00167 10.5904 6.98156 10.5703 6.96086C10.4852 6.87348 10.4111 6.77876 10.3499 6.67933C10.2875 6.57788 10.2389 6.47072 10.2054 6.36079C10.1711 6.2483 10.1537 6.13548 10.1537 6.02545V3.67805C10.1537 3.65241 10.1489 3.64331 10.1489 3.64331C10.1243 3.62678 10.0888 3.61759 10.043 3.61628C10.0104 3.62408 9.88953 3.66175 9.4651 3.84199L9.18692 3.96012V2.59018L9.28717 2.53249C9.45702 2.43475 9.63084 2.35839 9.80382 2.30552C9.98389 2.2505 10.1374 2.22375 10.2731 2.22375Z" fill="#5F89FF"/>
    <path d="M22.6299 11.7929H19.73V10.4301H21.269V3.55707H19.73V2.20697H22.6299V11.791V11.7929ZM18.4131 11.7929H15.5132V2.20697H18.4131V3.55707H16.8721V10.4301H18.4131V11.7929Z" fill="#5F89FF"/>
  </g>
  <defs>
    <clipPath id="clip0_6808_93245">
      <rect width="26" height="14" fill="white"/>
    </clipPath>
  </defs>
</svg>
