<svg width="26" height="14" viewBox="0 0 26 14" fill="none"
  xmlns="http://www.w3.org/2000/svg">
  <g clip-path="url(#clip0_6808_93224)">
    <path opacity="0.01" d="M26 0H0V14H26V0Z" fill="#5F89FF"/>
    <path d="M6.17789 10.612C6.16589 10.612 6.14989 10.62 6.13689 10.62C5.34877 10.2269 4.70994 9.5881 4.31689 8.79997C4.31689 8.78697 4.32489 8.77097 4.32489 8.75897C4.82195 8.90281 5.32719 9.01668 5.83789 9.09997C5.9224 9.61003 6.03591 10.1148 6.17789 10.612Z" fill="#5F89FF"/>
    <path d="M11.5669 8.80397C11.1609 9.61402 10.4976 10.2664 9.68091 10.659C9.8374 10.1478 9.96066 9.62705 10.0499 9.09997C10.559 9.01708 11.0626 8.9032 11.5579 8.75897C11.5539 8.77497 11.5669 8.79097 11.5669 8.80397Z" fill="#5F89FF"/>
    <path d="M11.5989 5.25998C11.0907 5.10503 10.5734 4.98179 10.0499 4.89098C9.96342 4.36662 9.84012 3.84901 9.68091 3.34198C10.5205 3.7436 11.1973 4.42043 11.5989 5.25998Z" fill="#5F89FF"/>
    <path d="M6.17794 3.387C6.03503 3.88234 5.92249 4.38595 5.84094 4.895C5.3142 4.98136 4.79398 5.10364 4.28394 5.261C4.67595 4.44465 5.32763 3.78136 6.13694 3.375C6.14894 3.375 6.16494 3.387 6.17794 3.387Z" fill="#5F89FF"/>
    <path d="M9.356 4.80601C8.41561 4.70058 7.46639 4.70058 6.526 4.80601C6.62329 4.2479 6.76166 3.69773 6.94 3.16001C6.94467 3.13055 6.94734 3.10082 6.948 3.07101C7.27283 2.98975 7.60617 2.94745 7.941 2.94501C8.27317 2.94777 8.60383 2.99006 8.926 3.07101C8.92801 3.10091 8.93202 3.13064 8.938 3.16001C9.11722 3.69777 9.25692 4.2479 9.356 4.80601Z" fill="#5F89FF"/>
    <path d="M5.74796 8.41502C5.18977 8.31855 4.63958 8.1805 4.10196 8.00202C4.07251 7.99736 4.04278 7.99468 4.01296 7.99402C3.93163 7.66887 3.88933 7.33518 3.88696 7.00002C3.8894 6.66651 3.9317 6.33449 4.01296 6.01102C4.04286 6.00901 4.0726 6.005 4.10196 5.99902C4.64024 5.82258 5.19026 5.68423 5.74796 5.58502C5.64661 6.52563 5.64661 7.47441 5.74796 8.41502Z" fill="#5F89FF"/>
    <path d="M11.997 7.00002C11.9945 7.33485 11.9522 7.66819 11.871 7.99302C11.8412 7.99368 11.8114 7.99636 11.782 8.00102C11.2436 8.17699 10.6936 8.31533 10.136 8.41502C10.2414 7.47463 10.2414 6.52541 10.136 5.58502C10.6941 5.68231 11.2443 5.82068 11.782 5.99902C11.811 6.00696 11.8409 6.011 11.871 6.01102C11.952 6.33454 11.9943 6.66653 11.997 7.00002Z" fill="#5F89FF"/>
    <path d="M9.356 9.19299C9.2592 9.75121 9.12081 10.3014 8.942 10.839C8.93602 10.8684 8.93201 10.8981 8.93 10.928C8.60653 11.0093 8.27451 11.0516 7.941 11.054C7.60617 11.0515 7.27283 11.0092 6.948 10.928C6.94734 10.8982 6.94467 10.8684 6.94 10.839C6.76355 10.3007 6.62521 9.75069 6.526 9.19299C6.99564 9.24901 7.46804 9.27872 7.941 9.28199C8.41396 9.27885 8.88637 9.24914 9.356 9.19299Z" fill="#5F89FF"/>
    <path d="M9.46799 8.52604C8.45468 8.65399 7.4293 8.65399 6.41599 8.52604C6.2897 7.51388 6.29104 6.48986 6.41999 5.47804C7.43198 5.35042 8.456 5.35042 9.46799 5.47804C9.5956 6.49003 9.5956 7.51404 9.46799 8.52604Z" fill="#5F89FF"/>
    <path d="M22.1129 11.7919H19.213V10.4291H20.7521V3.55609H19.213V2.20599H22.1129V11.79V11.7919ZM17.8961 11.7919H14.9962V2.20599H17.8961V3.55609H16.3551V10.4291H17.8961V11.7919Z" fill="#5F89FF"/>
  </g>
  <defs>
    <clipPath id="clip0_6808_93224">
      <rect width="26" height="14" fill="white"/>
    </clipPath>
  </defs>
</svg>
