<svg width="26" height="14" viewBox="0 0 26 14" fill="none"
  xmlns="http://www.w3.org/2000/svg">
  <g clip-path="url(#clip0_6808_92473)">
    <path opacity="0.01" d="M26 0H0V14H26V0Z" fill="#58D266"/>
    <path d="M10.799 10.186H9.33903V5.53902L7.90503 5.95802V4.85202L10.665 3.89802H10.799V10.186ZM12.245 8.73202C12.4555 8.72499 12.6607 8.79828 12.819 8.93702C12.8935 9.0023 12.9526 9.0832 12.9922 9.17395C13.0318 9.26469 13.0508 9.36306 13.048 9.46202C13.0508 9.56099 13.0318 9.65935 12.9922 9.7501C12.9526 9.84085 12.8935 9.92175 12.819 9.98702C12.6607 10.1258 12.4555 10.1991 12.245 10.192C12.0332 10.2001 11.8264 10.1259 11.668 9.98502C11.5945 9.91956 11.5361 9.83886 11.4969 9.74854C11.4577 9.65823 11.4386 9.56045 11.441 9.46202C11.4386 9.36359 11.4577 9.26582 11.4969 9.1755C11.5361 9.08519 11.5945 9.00449 11.668 8.93902C11.8264 8.79812 12.0332 8.72394 12.245 8.73202ZM18.095 10.186H13.707V9.23602L15.728 7.11102C16.1189 6.75457 16.3817 6.27952 16.476 5.75902C16.4915 5.53862 16.4288 5.31982 16.299 5.14102C16.2352 5.06884 16.1557 5.01221 16.0666 4.97546C15.9775 4.93872 15.8812 4.92283 15.785 4.92902C15.6786 4.92756 15.5735 4.95268 15.4792 5.00209C15.3849 5.05151 15.3044 5.12366 15.245 5.21202C15.1014 5.41876 15.0288 5.66649 15.038 5.91802H13.576C13.5732 5.54202 13.6732 5.1724 13.865 4.84902C14.0554 4.52407 14.3324 4.2585 14.665 4.08202C15.0188 3.89514 15.4139 3.80023 15.814 3.80602C16.377 3.76924 16.9343 3.93644 17.384 4.27702C17.5716 4.44645 17.7186 4.656 17.814 4.89008C17.9094 5.12416 17.9507 5.37674 17.935 5.62902C17.935 5.87657 17.8882 6.12188 17.797 6.35202C17.6876 6.61628 17.543 6.86453 17.367 7.09002C17.0766 7.45455 16.763 7.79993 16.428 8.12402L15.616 9.06102H18.091L18.095 10.186Z" fill="#58D266"/>
  </g>
  <defs>
    <clipPath id="clip0_6808_92473">
      <rect width="26" height="14" fill="white"/>
    </clipPath>
  </defs>
</svg>
