<svg width="26" height="14" viewBox="0 0 26 14" fill="none"
  xmlns="http://www.w3.org/2000/svg">
  <g clip-path="url(#clip0_6808_93212)">
    <path opacity="0.01" d="M26 0H0V14H26V0Z" fill="#5F89FF"/>
    <path d="M12.9402 9.75598V8.06799L11.2869 4.242H12.6189L13.5959 6.68597L14.5662 4.242H15.8528L14.2092 8.06799V9.75598H12.9402ZM13.0398 8.047V9.65399V8.04297L11.4402 4.34296L13.0398 8.047ZM13.593 6.96497L14.634 4.34698L13.594 6.96399L13.593 6.96497ZM9.92017 9.75598L7.86304 6.50696V9.75598H6.58813V4.24298H7.60181L9.66577 7.49396V4.24298H10.9338V9.75598H9.92017ZM4.823 9.75897L4.48608 8.64697H2.83081L2.5022 9.75897H1.198L2.92603 4.24597H4.41821L6.14722 9.75897H4.823ZM4.31079 7.59198L3.65698 5.26001L4.30981 7.58997L4.31079 7.59198ZM3.14087 7.492H4.17407L3.65601 5.64496L3.14087 7.492Z" fill="#5F89FF"/>
    <path d="M24.9689 11.7929H22.069V10.4301H23.608V3.55707H22.069V2.20697H24.9689V11.791V11.7929ZM20.7521 11.7929H17.8522V2.20697H20.7521V3.55707H19.2111V10.4301H20.7521V11.7929Z" fill="#5F89FF"/>
  </g>
  <defs>
    <clipPath id="clip0_6808_93212">
      <rect width="26" height="14" fill="white"/>
    </clipPath>
  </defs>
</svg>
