<svg width="26" height="14" viewBox="0 0 26 14" fill="none"
  xmlns="http://www.w3.org/2000/svg">
  <g clip-path="url(#clip0_6808_92502)">
    <path opacity="0.01" d="M26 0H0V14H26V0Z" fill="#3BC7FF"/>
    <path d="M9.31696 3.04005H16.68C16.777 3.03965 16.8732 3.05842 16.9629 3.09528C17.0527 3.13214 17.1343 3.18637 17.203 3.25484C17.2718 3.32332 17.3263 3.4047 17.3636 3.49431C17.4008 3.58393 17.42 3.68001 17.42 3.77705V5.25005H8.57996V3.77705C8.57996 3.58158 8.6576 3.39412 8.79582 3.25591C8.93403 3.11769 9.12149 3.04005 9.31696 3.04005Z" fill="#3BC7FF"/>
    <path d="M9.60899 5.28199V10.519C9.60388 10.637 9.63645 10.7537 9.70199 10.852H16.302C16.3675 10.7537 16.4001 10.637 16.395 10.519V5.28199H9.60899ZM8.57999 4.25299H17.42V10.519C17.4555 10.8381 17.3656 11.1586 17.1694 11.4127C16.9731 11.6668 16.6857 11.8347 16.368 11.881H9.63199C9.31424 11.8347 9.0269 11.6668 8.83062 11.4127C8.63434 11.1586 8.54447 10.8381 8.57999 10.519V4.25299Z" fill="#3BC7FF"/>
    <path d="M10.263 1.56702H10.873C10.9006 1.56702 10.9279 1.57245 10.9533 1.583C10.9788 1.59356 11.002 1.60902 11.0215 1.62852C11.041 1.64802 11.0564 1.67117 11.067 1.69665C11.0775 1.72213 11.083 1.74944 11.083 1.77702V4.51402H10.053V1.77702C10.053 1.72132 10.0751 1.66791 10.1145 1.62852C10.1539 1.58914 10.2073 1.56702 10.263 1.56702Z" fill="#3BC7FF"/>
    <path d="M15.125 1.56702H15.735C15.7626 1.56702 15.7899 1.57245 15.8154 1.583C15.8409 1.59356 15.864 1.60902 15.8835 1.62852C15.903 1.64802 15.9185 1.67117 15.9291 1.69665C15.9396 1.72213 15.945 1.74944 15.945 1.77702V4.51402H14.915V1.77702C14.915 1.72132 14.9372 1.66791 14.9765 1.62852C15.0159 1.58914 15.0693 1.56702 15.125 1.56702Z" fill="#3BC7FF"/>
    <path d="M10.939 8.54901C11.0751 8.54901 11.2081 8.58936 11.3212 8.66496C11.4343 8.74056 11.5225 8.84801 11.5746 8.97373C11.6267 9.09944 11.6403 9.23777 11.6138 9.37123C11.5872 9.50469 11.5217 9.62728 11.4255 9.7235C11.3292 9.81972 11.2067 9.88524 11.0732 9.91179C10.9397 9.93834 10.8014 9.92471 10.6757 9.87264C10.55 9.82057 10.4425 9.73238 10.3669 9.61924C10.2913 9.5061 10.251 9.37308 10.251 9.23701C10.251 9.05454 10.3235 8.87955 10.4525 8.75052C10.5815 8.6215 10.7565 8.54901 10.939 8.54901Z" fill="#3BC7FF"/>
    <path d="M13 6.29102C13.1361 6.29102 13.2691 6.33137 13.3822 6.40696C13.4954 6.48256 13.5836 6.59001 13.6356 6.71573C13.6877 6.84144 13.7013 6.97978 13.6748 7.11324C13.6482 7.2467 13.5827 7.36929 13.4865 7.46551C13.3903 7.56172 13.2677 7.62725 13.1342 7.6538C13.0008 7.68034 12.8624 7.66672 12.7367 7.61464C12.611 7.56257 12.5036 7.47439 12.428 7.36125C12.3524 7.24811 12.312 7.11509 12.312 6.97902C12.312 6.79655 12.3845 6.62155 12.5135 6.49253C12.6425 6.3635 12.8175 6.29102 13 6.29102Z" fill="#3BC7FF"/>
    <path d="M13 8.54901C13.1361 8.54901 13.2691 8.58936 13.3822 8.66496C13.4954 8.74056 13.5836 8.84801 13.6356 8.97373C13.6877 9.09944 13.7013 9.23777 13.6748 9.37123C13.6482 9.50469 13.5827 9.62728 13.4865 9.7235C13.3903 9.81972 13.2677 9.88524 13.1342 9.91179C13.0008 9.93834 12.8624 9.92471 12.7367 9.87264C12.611 9.82057 12.5036 9.73238 12.428 9.61924C12.3524 9.5061 12.312 9.37308 12.312 9.23701C12.312 9.05454 12.3845 8.87955 12.5135 8.75052C12.6425 8.6215 12.8175 8.54901 13 8.54901Z" fill="#3BC7FF"/>
    <path d="M15.063 6.29102C15.1991 6.29102 15.3321 6.33137 15.4452 6.40696C15.5584 6.48256 15.6466 6.59001 15.6986 6.71573C15.7507 6.84144 15.7643 6.97978 15.7378 7.11324C15.7112 7.2467 15.6457 7.36929 15.5495 7.46551C15.4533 7.56172 15.3307 7.62725 15.1972 7.6538C15.0638 7.68034 14.9254 7.66672 14.7997 7.61464C14.674 7.56257 14.5665 7.47439 14.4909 7.36125C14.4154 7.24811 14.375 7.11509 14.375 6.97902C14.375 6.79655 14.4475 6.62155 14.5765 6.49253C14.7055 6.3635 14.8805 6.29102 15.063 6.29102Z" fill="#3BC7FF"/>
    <path d="M15.063 8.54999C15.1991 8.54999 15.3321 8.59034 15.4452 8.66594C15.5584 8.74154 15.6466 8.84899 15.6986 8.9747C15.7507 9.10042 15.7643 9.23875 15.7378 9.37221C15.7112 9.50567 15.6457 9.62826 15.5495 9.72448C15.4533 9.8207 15.3307 9.88622 15.1972 9.91277C15.0638 9.93931 14.9254 9.92569 14.7997 9.87362C14.674 9.82154 14.5665 9.73336 14.4909 9.62022C14.4154 9.50708 14.375 9.37406 14.375 9.23799C14.375 9.05552 14.4475 8.88052 14.5765 8.7515C14.7055 8.62247 14.8805 8.54999 15.063 8.54999Z" fill="#3BC7FF"/>
    <path d="M10.939 6.29102C11.0751 6.29102 11.2081 6.33137 11.3212 6.40696C11.4343 6.48256 11.5225 6.59001 11.5746 6.71573C11.6267 6.84144 11.6403 6.97978 11.6138 7.11324C11.5872 7.2467 11.5217 7.36929 11.4255 7.46551C11.3292 7.56172 11.2067 7.62725 11.0732 7.6538C10.9397 7.68034 10.8014 7.66672 10.6757 7.61464C10.55 7.56257 10.4425 7.47439 10.3669 7.36125C10.2913 7.24811 10.251 7.11509 10.251 6.97902C10.251 6.79655 10.3235 6.62155 10.4525 6.49253C10.5815 6.3635 10.7565 6.29102 10.939 6.29102Z" fill="#3BC7FF"/>
  </g>
  <defs>
    <clipPath id="clip0_6808_92502">
      <rect width="26" height="14" fill="white"/>
    </clipPath>
  </defs>
</svg>
