<svg width="26" height="14" viewBox="0 0 26 14" fill="none"
  xmlns="http://www.w3.org/2000/svg">
  <g clip-path="url(#clip0_6808_92377)">
    <path opacity="0.01" d="M26 0H0V14H26V0Z" fill="#5F89FF"/>
    <path d="M5.92594 4.35191H7.19894V7.98591C7.20388 8.3017 7.12263 8.61285 6.96394 8.88591C6.80882 9.14926 6.58153 9.36268 6.30894 9.50091C6.01899 9.64873 5.69736 9.72356 5.37194 9.71891C4.88471 9.74932 4.40408 9.59388 4.02694 9.28391C3.86235 9.12461 3.73422 8.93156 3.65136 8.71802C3.5685 8.50448 3.53288 8.27553 3.54694 8.04691H4.82694C4.81175 8.23138 4.85552 8.41591 4.95194 8.57391C5.00421 8.63223 5.06945 8.67745 5.1424 8.70594C5.21535 8.73443 5.29398 8.74538 5.37194 8.73791C5.4514 8.74149 5.5305 8.72505 5.60196 8.6901C5.67342 8.65516 5.73496 8.60283 5.78094 8.53791C5.88607 8.37264 5.93645 8.17845 5.92494 7.98291L5.92594 4.35191ZM10.8089 8.24091C10.8126 8.15757 10.7964 8.07455 10.7616 7.99873C10.7269 7.92291 10.6745 7.85647 10.6089 7.80491C10.3941 7.66083 10.1578 7.55149 9.90894 7.48091C9.63047 7.39087 9.35821 7.28264 9.09394 7.15691C8.80398 7.05363 8.55154 6.866 8.36906 6.61812C8.18659 6.37024 8.08241 6.07346 8.06994 5.76591C8.06539 5.48548 8.15559 5.21172 8.32594 4.98891C8.51543 4.75134 8.76658 4.57042 9.05194 4.46591C9.38845 4.33682 9.74656 4.27335 10.1069 4.27891C10.4586 4.2719 10.8077 4.34009 11.1309 4.47891C11.4148 4.60152 11.6577 4.80277 11.8309 5.05891C11.9994 5.31372 12.0869 5.61349 12.0819 5.91891H10.8119C10.8169 5.82604 10.8016 5.7332 10.7671 5.64685C10.7325 5.5605 10.6796 5.48271 10.6119 5.41891C10.4621 5.29409 10.2707 5.23051 10.0759 5.24091C9.88421 5.23035 9.69437 5.28343 9.53594 5.39191C9.47383 5.43477 9.42314 5.49217 9.38829 5.55909C9.35343 5.62602 9.33546 5.70045 9.33594 5.77591C9.3401 5.85037 9.36206 5.92275 9.4 5.98696C9.43793 6.05117 9.49072 6.10534 9.55394 6.14491C9.7906 6.29748 10.0493 6.41282 10.3209 6.48691C10.6333 6.58197 10.935 6.70932 11.2209 6.86691C11.4799 6.98934 11.6989 7.18263 11.8525 7.42439C12.0061 7.66615 12.0881 7.94648 12.0889 8.23291C12.0972 8.44371 12.0538 8.65334 11.9625 8.84351C11.8711 9.03367 11.7347 9.1986 11.5649 9.32391C11.1427 9.61111 10.6378 9.75165 10.1279 9.72391C9.72613 9.72919 9.32775 9.64945 8.95894 9.48991C8.6407 9.36026 8.36744 9.14019 8.17294 8.85691C7.99477 8.58138 7.90285 8.25897 7.90894 7.93091H9.18894C9.17932 8.04502 9.19395 8.15988 9.23187 8.26794C9.26978 8.376 9.33013 8.47482 9.40894 8.55791C9.61455 8.71028 9.86911 8.78148 10.1239 8.75791C10.3009 8.76767 10.4763 8.71996 10.6239 8.62191C10.6837 8.57846 10.7318 8.52098 10.7641 8.45454C10.7963 8.38809 10.8117 8.31472 10.8089 8.24091ZM17.2989 7.10991C17.3083 7.58275 17.2102 8.05154 17.0119 8.48091C16.836 8.86073 16.5518 9.1801 16.1949 9.39891C15.8308 9.61664 15.4131 9.72817 14.9889 9.72091C14.568 9.72872 14.1531 9.62116 13.7889 9.40991C13.4362 9.19903 13.1523 8.89017 12.9719 8.52091C12.7702 8.10727 12.6652 7.65314 12.6649 7.19291V6.89291C12.6554 6.41952 12.7532 5.95013 12.9509 5.51991C13.1268 5.13976 13.4115 4.82029 13.7689 4.60191C14.1352 4.38301 14.5553 4.2708 14.9819 4.27791C15.4039 4.27079 15.8195 4.38162 16.1819 4.59791C16.5376 4.81589 16.8224 5.13234 17.0019 5.50891C17.2048 5.93149 17.3075 6.39518 17.3019 6.86391L17.2989 7.10991ZM15.9989 6.88791C16.0252 6.47107 15.9337 6.05524 15.7349 5.68791C15.657 5.55856 15.5459 5.45242 15.4132 5.3805C15.2804 5.30858 15.1308 5.27351 14.9799 5.27891C14.3399 5.27891 14.0016 5.75891 13.9649 6.71891V7.10791C13.9401 7.52393 14.0293 7.93884 14.2229 8.30791C14.3006 8.44084 14.4131 8.55004 14.5482 8.6237C14.6834 8.69737 14.8361 8.73271 14.9899 8.72591C15.1397 8.73076 15.2881 8.69515 15.4194 8.62282C15.5506 8.5505 15.66 8.44413 15.7359 8.31491C15.9321 7.95304 16.0242 7.54392 16.0019 7.13291L15.9989 6.88791ZM22.4529 9.64891H21.1889L19.3119 6.34891V9.64891H18.0319V4.34891H19.3089L21.1819 7.64891V4.34891H22.4549L22.4529 9.64891Z" fill="#5F89FF"/>
  </g>
  <defs>
    <clipPath id="clip0_6808_92377">
      <rect width="26" height="14" fill="white"/>
    </clipPath>
  </defs>
</svg>
