<svg width="26" height="14" viewBox="0 0 26 14" fill="none"
  xmlns="http://www.w3.org/2000/svg">
  <g clip-path="url(#clip0_6808_93294)">
    <path opacity="0.01" d="M26 0H0V14H26V0Z" fill="#58D266"/>
    <path d="M4.86104 10.062H3.44004V5.53902L2.04004 5.94702V4.87102L4.73104 3.94402H4.86104V10.062ZM9.93504 10.062H5.66404V9.13702L7.63104 7.06902C8.01106 6.7219 8.26649 6.25952 8.35804 5.75302C8.3728 5.53905 8.31192 5.32668 8.18604 5.15302C8.1239 5.08286 8.04655 5.02782 7.9599 4.99212C7.87324 4.95642 7.77957 4.94099 7.68604 4.94702C7.58258 4.94566 7.4804 4.97008 7.38874 5.0181C7.29709 5.06611 7.21883 5.13619 7.16104 5.22202C7.02185 5.42338 6.95167 5.66442 6.96104 5.90902H5.53704C5.53324 5.54319 5.62936 5.18326 5.81504 4.86802C6.00127 4.55149 6.27208 4.29315 6.59704 4.12202C6.94127 3.94008 7.32572 3.84758 7.71504 3.85302C8.26285 3.81718 8.80526 3.97976 9.24304 4.31102C9.42558 4.47596 9.56858 4.67994 9.66138 4.90779C9.75418 5.13564 9.7944 5.38148 9.77904 5.62702C9.77835 5.86676 9.73255 6.10422 9.64404 6.32702C9.53777 6.58444 9.39716 6.8263 9.22604 7.04602C8.94448 7.4023 8.64018 7.74001 8.31504 8.05702L7.52504 8.96902H9.93404L9.93504 10.062ZM11.858 6.40902H12.526C12.6325 6.42426 12.741 6.41477 12.8431 6.38131C12.9453 6.34785 13.0384 6.29131 13.1151 6.21607C13.1919 6.14084 13.2503 6.04892 13.2859 5.94747C13.3214 5.84601 13.3331 5.73773 13.32 5.63102C13.3236 5.54018 13.3087 5.44956 13.2762 5.36465C13.2437 5.27974 13.1943 5.2023 13.131 5.13702C13.0597 5.07055 12.9755 5.01932 12.8837 4.98648C12.7919 4.95364 12.6944 4.93987 12.597 4.94602C12.4197 4.94245 12.2465 5.0004 12.107 5.11002C12.0424 5.15654 11.9898 5.21784 11.9536 5.28881C11.9174 5.35978 11.8987 5.43836 11.899 5.51802H10.483C10.4787 5.20938 10.5729 4.9074 10.752 4.65602C10.9423 4.39486 11.2003 4.19053 11.498 4.06502C11.8288 3.92098 12.1863 3.84872 12.547 3.85302C13.1201 3.82018 13.687 3.98504 14.153 4.32002C14.3447 4.47245 14.4975 4.66807 14.599 4.89089C14.7005 5.11372 14.7478 5.35741 14.737 5.60202C14.7347 5.86838 14.6502 6.12752 14.495 6.34402C14.3165 6.59286 14.0749 6.78961 13.795 6.91402C14.0965 7.01502 14.3622 7.20119 14.56 7.45002C14.7503 7.70822 14.847 8.02354 14.834 8.34402C14.8415 8.59696 14.7881 8.848 14.6783 9.07598C14.5685 9.30396 14.4055 9.50221 14.203 9.65402C13.7224 10 13.1386 10.1728 12.547 10.144C12.163 10.1475 11.7826 10.0695 11.431 9.91502C11.1145 9.78429 10.8433 9.5635 10.651 9.28002C10.4731 9.00543 10.3809 8.68416 10.386 8.35702H11.815C11.815 8.44999 11.8354 8.54184 11.8746 8.62613C11.9138 8.71043 11.9709 8.78513 12.042 8.84502C12.1949 8.9831 12.3951 9.05688 12.601 9.05102C12.8206 9.06298 13.036 8.98829 13.201 8.84302C13.2739 8.77528 13.3314 8.6928 13.3699 8.60106C13.4083 8.50933 13.4268 8.41045 13.424 8.31102C13.4365 8.1914 13.4222 8.07051 13.3822 7.95708C13.3423 7.84364 13.2777 7.74048 13.193 7.65502C13.0097 7.5168 12.7832 7.44838 12.554 7.46202H11.865L11.858 6.40902Z" fill="#58D266"/>
    <path d="M23.9558 11.7919H21.0559V10.4291H22.595V3.55609H21.0559V2.20599H23.9558V11.79V11.7919ZM19.739 11.7919H16.8391V2.20599H19.739V3.55609H18.198V10.4291H19.739V11.7919Z" fill="#58D266"/>
  </g>
  <defs>
    <clipPath id="clip0_6808_93294">
      <rect width="26" height="14" fill="white"/>
    </clipPath>
  </defs>
</svg>
