<svg width="26" height="14" viewBox="0 0 26 14" fill="none"
  xmlns="http://www.w3.org/2000/svg">
  <g clip-path="url(#clip0_6808_92339)">
    <path d="M17.8747 10.2667C17.574 10.1755 17.3056 10.0002 17.1011 9.76154C16.8632 9.45609 16.7008 9.09866 16.6275 8.71846C16.5112 8.14849 16.4585 7.56737 16.4703 6.98578C16.4582 6.41818 16.5142 5.85119 16.6365 5.2968C16.7172 4.91782 16.8842 4.56262 17.1251 4.25911C17.3319 4.01597 17.6028 3.83604 17.9072 3.7398C18.2378 3.63976 18.582 3.59116 18.9274 3.59576C19.2079 3.59472 19.4881 3.6111 19.7665 3.64484C20.0251 3.67757 20.2608 3.71575 20.4692 3.76158C20.6501 3.79788 20.8284 3.84753 21.002 3.91002L21.0388 3.92527V5.06112L20.969 5.04473C20.8599 5.02073 20.7212 4.99779 20.5422 4.97488C20.3633 4.95196 20.1571 4.93235 19.929 4.91707C19.701 4.9018 19.4581 4.89523 19.2061 4.89523C18.9972 4.89075 18.7885 4.91836 18.5881 4.97707C18.4298 5.02599 18.2931 5.12769 18.2007 5.26516C18.0853 5.45772 18.0114 5.67203 17.9828 5.89469C17.9279 6.25863 17.9027 6.62648 17.9083 6.99451C17.9042 7.35386 17.9262 7.71302 17.9738 8.06922C18.0012 8.29398 18.0728 8.51119 18.1837 8.7086C18.2738 8.85041 18.4086 8.95773 18.5673 9.01308C18.7751 9.07813 18.9926 9.10833 19.2103 9.10251C19.6566 9.10251 20.0243 9.0938 20.3014 9.07634C20.5786 9.05888 20.8073 9.03812 20.9775 9.01521L21.043 9.00648V10.1281L21.0041 10.1423C20.8209 10.2015 20.6337 10.2482 20.4442 10.282C20.238 10.3213 20.0079 10.3507 19.7559 10.3725C19.5038 10.3944 19.2223 10.4042 18.9146 10.4042C18.5632 10.4096 18.2127 10.3633 17.8747 10.2667ZM16.5284 6.98578C16.5166 7.56262 16.569 8.13899 16.6845 8.70427C16.7559 9.07491 16.9139 9.42338 17.1459 9.72118C17.3424 9.95253 17.6017 10.1222 17.8923 10.21C18.2232 10.3041 18.5664 10.349 18.9104 10.3431C19.217 10.3431 19.4959 10.3333 19.7447 10.3115C19.9741 10.2935 20.2024 10.2636 20.4287 10.222C20.6135 10.1889 20.7957 10.1434 20.9743 10.0856C20.7957 10.1437 20.6134 10.19 20.4287 10.2242C20.2214 10.2613 19.9924 10.2918 19.7447 10.3136C19.497 10.3354 19.218 10.3442 18.9114 10.3442C18.5674 10.3499 18.2243 10.305 17.8933 10.2111C17.603 10.1234 17.3438 9.95413 17.1469 9.72338C16.9144 9.42593 16.7564 9.07731 16.6856 8.70647C16.5692 8.14095 16.5164 7.56304 16.5284 6.98578ZM16.693 5.31098C16.6271 5.58567 16.5828 5.86512 16.5609 6.14675C16.5826 5.86466 16.6272 5.58476 16.6941 5.30985C16.7427 5.10558 16.8118 4.90671 16.9003 4.71629C16.811 4.90698 16.7423 5.10626 16.693 5.31098ZM17.9205 5.8827C17.9382 5.7783 17.9625 5.67627 17.9935 5.57503C17.9616 5.67722 17.937 5.78143 17.9194 5.88703L17.9205 5.8827ZM19.9327 4.86033C20.1641 4.87561 20.3691 4.89413 20.5502 4.91814C20.7313 4.94214 20.8774 4.96617 20.9865 4.988C20.8774 4.96399 20.7367 4.93998 20.5555 4.91707C20.3744 4.89416 20.1694 4.87454 19.9391 4.85927C19.7089 4.84399 19.4645 4.83636 19.2103 4.83636C19.4598 4.8349 19.6992 4.84286 19.929 4.85813L19.9327 4.86033ZM11.2738 10.3213V3.62959H13.9173C14.4484 3.5844 14.9754 3.7515 15.3835 4.09435C15.5456 4.27134 15.6705 4.47917 15.7506 4.70543C15.8306 4.9317 15.8644 5.17179 15.8497 5.41134C15.8554 5.65233 15.8183 5.89245 15.7404 6.12058C15.6722 6.31376 15.5604 6.48849 15.4133 6.63117C15.3146 6.72367 15.2 6.79761 15.075 6.8494C15.1616 6.88263 15.2454 6.9224 15.326 6.96834C15.4702 7.0551 15.5987 7.16578 15.7058 7.29565C15.8261 7.44209 15.9168 7.61022 15.9738 7.79099C16.0411 8.00518 16.0739 8.22886 16.0702 8.45334C16.086 8.83094 16.0052 9.20635 15.8363 9.54444C15.6817 9.81973 15.4351 10.0315 15.1395 10.1423C14.7869 10.2685 14.4137 10.3284 14.0393 10.3191L11.2738 10.3213ZM12.7053 9.02286H13.9978C14.1266 9.02583 14.2545 8.99775 14.3702 8.94102C14.4735 8.88427 14.5561 8.7965 14.6067 8.69009C14.6701 8.5417 14.6996 8.38101 14.693 8.21979C14.6978 8.0783 14.6666 7.93795 14.6025 7.81176C14.5456 7.70666 14.461 7.61913 14.3579 7.55864C14.2474 7.49774 14.1229 7.46686 13.9967 7.46913H12.7042L12.7053 9.02286ZM14.5444 8.87995C14.5889 8.83127 14.6258 8.77605 14.6536 8.71626C14.6231 8.77418 14.5846 8.82748 14.5391 8.87449L14.5444 8.87995ZM13.9988 7.4102C14.1351 7.40759 14.2701 7.44152 14.3888 7.50842C14.2695 7.44209 14.1342 7.40892 13.9978 7.41239L13.9988 7.4102ZM15.6818 6.10093C15.6161 6.28584 15.5081 6.45281 15.3664 6.58861C15.2291 6.71695 15.0603 6.8072 14.8774 6.85046C15.0587 6.80631 15.2254 6.71612 15.3617 6.58861C15.5041 6.45329 15.6126 6.2862 15.6781 6.10093C15.6945 6.0562 15.7087 6.00929 15.7229 5.96128C15.7065 6.00384 15.6924 6.04961 15.6749 6.09434L15.6818 6.10093ZM12.7064 6.34094H13.9259C14.0031 6.34474 14.0804 6.32988 14.1507 6.29759C14.221 6.2653 14.2823 6.21656 14.3297 6.15548C14.4361 6.00714 14.4894 5.82715 14.4805 5.64482C14.4946 5.54556 14.4878 5.44443 14.4608 5.34788C14.4337 5.25132 14.387 5.16148 14.3233 5.08403C14.2104 4.98065 14.0618 4.92546 13.9088 4.93019H12.7085L12.7064 6.34094ZM14.2455 6.31151C14.2953 6.27872 14.3393 6.23775 14.3755 6.19037C14.3361 6.23531 14.2897 6.27363 14.2381 6.30385L14.2455 6.31151ZM13.9088 4.87232C14.076 4.86829 14.2379 4.9284 14.3622 5.04034C14.4322 5.12231 14.4845 5.21812 14.5151 5.3215C14.4846 5.21807 14.4339 5.12222 14.3638 5.04034C14.2394 4.92775 14.0765 4.86831 13.9088 4.87232ZM9.42296 10.3278L9.00527 8.94974H6.85345L6.44429 10.3278H4.96375L7.06069 3.63611H8.80655L10.9035 10.3278H9.42296ZM9.05003 8.893L9.46558 10.2689L9.04896 8.89087L9.05003 8.893ZM8.73783 7.70921L7.93069 4.82104L8.73783 7.70595V7.70921ZM7.19815 7.65134H8.66058L7.9291 5.03927L7.19815 7.65134Z" fill="#5F89FF"/>
  </g>
  <defs>
    <clipPath id="clip0_6808_92339">
      <rect width="26" height="14" fill="white"/>
    </clipPath>
  </defs>
</svg>
