<svg width="26" height="14" viewBox="0 0 26 14" fill="none"
  xmlns="http://www.w3.org/2000/svg">
  <g clip-path="url(#clip0_6808_92405)">
    <path opacity="0.01" d="M26 0H0V14H26V0Z" fill="#5F89FF"/>
    <path d="M11.018 11.061C11.004 11.061 10.986 11.07 10.972 11.07C10.086 10.6282 9.36783 9.91006 8.92603 9.02403C8.92603 9.01003 8.93503 8.99203 8.93503 8.97803C9.49352 9.13958 10.0612 9.26748 10.635 9.36103C10.7303 9.93451 10.8581 10.5021 11.018 11.061Z" fill="#5F89FF"/>
    <path d="M17.074 9.02803C16.6175 9.93765 15.8723 10.6702 14.955 11.111C15.1308 10.5372 15.2695 9.95269 15.37 9.36103C15.9422 9.26795 16.5083 9.14004 17.065 8.97803C17.06 8.99603 17.074 9.01403 17.074 9.02803Z" fill="#5F89FF"/>
    <path d="M17.111 5.04504C16.5398 4.87079 15.9583 4.73219 15.37 4.63004C15.2727 4.04068 15.134 3.45891 14.955 2.88904C15.8987 3.34044 16.6596 4.10127 17.111 5.04504Z" fill="#5F89FF"/>
    <path d="M11.017 2.94003C10.8565 3.49845 10.7302 4.06618 10.639 4.64003C10.0472 4.735 9.46246 4.87032 8.88904 5.04503C9.32984 4.12771 10.0624 3.38248 10.972 2.92603C10.989 2.92603 11.004 2.94003 11.017 2.94003Z" fill="#5F89FF"/>
    <path d="M14.5899 4.53499C13.5329 4.4165 12.466 4.4165 11.4089 4.53499C11.5182 3.90772 11.6736 3.28937 11.8739 2.68499C11.8792 2.6519 11.8822 2.61849 11.8829 2.58499C12.248 2.49354 12.6226 2.44588 12.9989 2.44299C13.3732 2.44563 13.7459 2.49296 14.1089 2.58399C14.1114 2.6176 14.116 2.65101 14.1229 2.68399C14.3235 3.2888 14.4795 3.90745 14.5899 4.53499Z" fill="#5F89FF"/>
    <path d="M10.535 8.59103C9.9076 8.48234 9.28921 8.3269 8.68499 8.12603C8.6519 8.12079 8.61849 8.11778 8.58499 8.11703C8.49347 7.75166 8.4458 7.37669 8.44299 7.00003C8.44555 6.6254 8.49288 6.25242 8.58399 5.88903C8.6176 5.8866 8.65101 5.88192 8.68399 5.87503C9.28931 5.67677 9.90784 5.52139 10.535 5.41003C10.4211 6.46731 10.4211 7.53376 10.535 8.59103Z" fill="#5F89FF"/>
    <path d="M17.5579 7.00003C17.5555 7.37665 17.5081 7.75162 17.4169 8.11703C17.3834 8.11778 17.35 8.12079 17.3169 8.12603C16.7115 8.32376 16.093 8.47913 15.4659 8.59103C15.5844 7.53401 15.5844 6.46706 15.4659 5.41003C16.0932 5.51927 16.7116 5.6747 17.3159 5.87503C17.3485 5.88413 17.3821 5.88884 17.4159 5.88903C17.5071 6.25244 17.5547 6.62539 17.5579 7.00003Z" fill="#5F89FF"/>
    <path d="M14.5899 9.46497C14.4812 10.0924 14.3258 10.7107 14.1249 11.315C14.118 11.348 14.1134 11.3814 14.1109 11.415C13.7472 11.5062 13.3739 11.5535 12.9989 11.556C12.6227 11.5537 12.2481 11.5067 11.8829 11.416C11.8822 11.3825 11.8792 11.3491 11.8739 11.316C11.6757 10.7106 11.5203 10.0921 11.4089 9.46497C11.9367 9.5279 12.4675 9.56129 12.9989 9.56497C13.5307 9.56147 14.0619 9.52808 14.5899 9.46497Z" fill="#5F89FF"/>
    <path d="M14.7148 8.71485C13.576 8.85865 12.4237 8.85865 11.2848 8.71485C11.1411 7.57604 11.1411 6.42366 11.2848 5.28485C12.4237 5.14105 13.576 5.14105 14.7148 5.28485C14.8586 6.42366 14.8586 7.57604 14.7148 8.71485Z" fill="#5F89FF"/>
  </g>
  <defs>
    <clipPath id="clip0_6808_92405">
      <rect width="26" height="14" fill="white"/>
    </clipPath>
  </defs>
</svg>
