<svg width="26" height="14" viewBox="0 0 26 14" fill="none"
  xmlns="http://www.w3.org/2000/svg">
  <g clip-path="url(#clip0_6808_93160)">
    <path d="M13.0712 9.64995C12.827 9.57599 12.6092 9.43376 12.4432 9.23997C12.2504 8.99216 12.1185 8.70228 12.059 8.39396C11.9647 7.93178 11.9222 7.46053 11.932 6.98894C11.922 6.52857 11.9668 6.06866 12.0658 5.61894C12.1321 5.31108 12.2694 5.02286 12.4662 4.77696C12.634 4.5801 12.8534 4.43422 13.1 4.35594C13.3684 4.27479 13.6477 4.23533 13.9281 4.23894C14.1554 4.23817 14.3822 4.25157 14.6078 4.27897C14.8178 4.30497 15.0081 4.33695 15.1781 4.37395C15.3249 4.4032 15.4694 4.4433 15.6102 4.49394L15.641 4.50596V5.42698L15.5829 5.41398C15.4989 5.39498 15.3832 5.37598 15.2372 5.35698C15.0912 5.33798 14.9252 5.32198 14.7372 5.30998C14.5492 5.29798 14.3552 5.29295 14.1512 5.29295C13.9822 5.28934 13.8136 5.31158 13.6512 5.35893C13.5229 5.39869 13.4116 5.4813 13.3368 5.59294C13.2422 5.74902 13.1812 5.92305 13.1571 6.10399C13.1121 6.39945 13.0917 6.69809 13.0961 6.99693C13.093 7.28849 13.1104 7.5799 13.1488 7.86894C13.1713 8.05133 13.2294 8.22764 13.3192 8.38798C13.3924 8.50309 13.5024 8.59007 13.6312 8.63493C13.7998 8.6874 13.9758 8.71175 14.1522 8.70695C14.5142 8.70695 14.812 8.69996 15.038 8.68596C15.264 8.67196 15.4488 8.65497 15.5868 8.63597L15.64 8.62895V9.53898L15.6078 9.54997C15.4592 9.59788 15.3079 9.63561 15.1542 9.66295C14.9862 9.69495 14.7981 9.71894 14.5951 9.73594C14.3921 9.75294 14.162 9.76195 13.913 9.76195C13.6283 9.76598 13.3448 9.72825 13.0712 9.64995ZM11.9779 6.98894C11.9681 7.45684 12.0103 7.92442 12.1039 8.38298C12.1618 8.68359 12.29 8.96622 12.4779 9.20793C12.6371 9.39696 12.8475 9.53591 13.0839 9.60795C13.3521 9.6843 13.6302 9.72073 13.9091 9.71599C14.1584 9.71599 14.3838 9.70763 14.5858 9.69096C14.7719 9.67659 14.9574 9.65253 15.141 9.61894C15.2924 9.5922 15.442 9.55515 15.5883 9.50798C15.4419 9.55514 15.2923 9.59256 15.141 9.61998C14.9723 9.65064 14.7871 9.67363 14.5858 9.69096C14.3858 9.70696 14.1571 9.71599 13.9091 9.71599C13.6302 9.72073 13.3521 9.6843 13.0839 9.60795C12.8497 9.53488 12.6418 9.39601 12.4843 9.20793C12.2952 8.96677 12.1667 8.68395 12.1093 8.38298C12.0148 7.9242 11.9718 7.45625 11.9818 6.98796L11.9779 6.98894ZM12.1122 5.62999C12.0587 5.85281 12.023 6.0795 12.0052 6.30797C12.0227 6.07914 12.0585 5.85207 12.1122 5.62895C12.1522 5.46346 12.2084 5.30233 12.2802 5.14793C12.2079 5.30247 12.1517 5.46403 12.1122 5.62999ZM13.1122 6.09398L13.1058 6.12999C13.1058 6.11799 13.1062 6.10498 13.1122 6.09398C13.1264 6.00946 13.1462 5.92693 13.1713 5.84495C13.1443 5.92641 13.1225 6.00962 13.1068 6.09398H13.1122ZM14.7469 5.26695C14.9349 5.27895 15.1019 5.29395 15.2469 5.31395C15.3919 5.33395 15.511 5.35295 15.597 5.37095C15.511 5.35195 15.3969 5.33295 15.2469 5.31395C15.0969 5.29495 14.9339 5.27895 14.7469 5.26695C14.5599 5.25495 14.3621 5.24797 14.1561 5.24797C14.3568 5.24464 14.5508 5.24995 14.7382 5.26195L14.7469 5.26695ZM7.72009 9.69096V4.26195H9.86511C10.2962 4.22545 10.7241 4.36138 11.0551 4.63994C11.1866 4.78362 11.288 4.95237 11.3529 5.13603C11.4178 5.31969 11.445 5.51453 11.433 5.70897C11.4362 5.90462 11.4049 6.09931 11.3402 6.28398C11.284 6.44079 11.1922 6.58247 11.0721 6.69798C10.9921 6.77288 10.8994 6.83283 10.7982 6.87498C10.8672 6.90337 10.9338 6.93677 10.9979 6.97496C11.1148 7.04454 11.219 7.13347 11.306 7.23796C11.4036 7.35615 11.4773 7.49195 11.5238 7.63798C11.5784 7.81165 11.6048 7.99295 11.6019 8.17497C11.6154 8.48222 11.5504 8.78784 11.413 9.06297C11.2875 9.28606 11.0875 9.45777 10.848 9.54796C10.5618 9.65052 10.2589 9.69932 9.95496 9.69194L7.72009 9.69096ZM8.88123 8.63695H9.92908C10.0329 8.63931 10.1356 8.61669 10.2289 8.57097C10.3123 8.52606 10.3798 8.45609 10.4213 8.37095C10.473 8.2505 10.4968 8.11991 10.4911 7.98894C10.4951 7.87421 10.4697 7.76034 10.4178 7.65794C10.3709 7.57254 10.3021 7.50139 10.2181 7.45195C10.1284 7.40279 10.0274 7.378 9.92517 7.37999H8.87683L8.88123 8.63695ZM10.3739 8.52098C10.4112 8.48164 10.4425 8.43679 10.4662 8.38798C10.4396 8.43669 10.4058 8.48113 10.3661 8.51994L10.3739 8.52098ZM9.93005 7.32896C10.0409 7.32643 10.1503 7.3537 10.2469 7.40794C10.1501 7.35418 10.0418 7.32725 9.93103 7.32994L9.93005 7.32896ZM11.2963 6.26494C11.2436 6.41633 11.1559 6.55333 11.0409 6.66496C10.9285 6.76978 10.7907 6.84324 10.641 6.87797C10.7883 6.8423 10.9241 6.76926 11.035 6.66594C11.1507 6.55468 11.2383 6.41764 11.2909 6.26597C11.3049 6.22897 11.316 6.19096 11.327 6.15196C11.312 6.19096 11.298 6.22894 11.287 6.26494H11.2963ZM8.8822 6.45897H9.87195C9.93458 6.46194 9.99715 6.44973 10.0541 6.42344C10.111 6.39716 10.1607 6.35757 10.1991 6.30797C10.2857 6.18784 10.3291 6.0419 10.3221 5.89396C10.3336 5.81346 10.3279 5.73144 10.306 5.65312C10.2842 5.5748 10.2467 5.50189 10.1952 5.43895C10.1038 5.35509 9.98326 5.31023 9.85925 5.31395H8.88318L8.8822 6.45897ZM10.1312 6.43498C10.1717 6.40786 10.2071 6.37401 10.2362 6.33494C10.2044 6.37553 10.1655 6.41039 10.1219 6.43797L10.1312 6.43498ZM6.21814 9.68895L5.87878 8.57194H4.13416L3.80212 9.68895H2.60193L4.30212 4.25993H5.72009L7.4198 9.68895H6.21814ZM5.66492 7.56596L5.01013 5.22294L5.66492 7.56297V7.56596ZM4.41589 7.51896H5.60291L5.01013 5.39995L4.41589 7.51896Z" fill="#5F89FF"/>
    <path d="M24.5879 11.7919H21.688V10.4291H23.2271V3.55609H21.688V2.20599H24.5879V11.79V11.7919ZM20.5361 11.7919H17.6362V2.20599H20.5361V3.55609H18.9951V10.4291H20.5361V11.7919Z" fill="#5F89FF"/>
  </g>
  <defs>
    <clipPath id="clip0_6808_93160">
      <rect width="26" height="14" fill="white"/>
    </clipPath>
  </defs>
</svg>
