<svg width="26" height="14" viewBox="0 0 26 14" fill="none"
  xmlns="http://www.w3.org/2000/svg">
  <g clip-path="url(#clip0_6808_92527)">
    <path opacity="0.01" d="M26 0H0V14H26V0Z" fill="#3BC7FF"/>
    <path d="M12.9332 11.88H9.63335C9.31572 11.8335 9.02832 11.6655 8.83208 11.4114C8.63585 11.1574 8.54585 10.8371 8.58111 10.518V3.77802C8.5811 3.58246 8.65874 3.3949 8.79693 3.25653C8.93511 3.11816 9.12237 3.0403 9.31792 3.04004H10.0542V1.77802C10.0542 1.72205 10.0762 1.66842 10.1158 1.62885C10.1553 1.58928 10.2092 1.56702 10.2652 1.56702H10.8751C10.931 1.56702 10.9849 1.58928 11.0245 1.62885C11.064 1.66842 11.086 1.72205 11.086 1.77802V3.04004H14.9161V1.77802C14.9161 1.75031 14.9216 1.72287 14.9322 1.69727C14.9428 1.67167 14.9585 1.64844 14.9781 1.62885C14.9977 1.60925 15.0208 1.59367 15.0464 1.58307C15.072 1.57247 15.0993 1.56702 15.127 1.56702H15.7359C15.7919 1.56702 15.8457 1.58928 15.8853 1.62885C15.9249 1.66842 15.9473 1.72205 15.9473 1.77802V3.04004H16.6841C16.8797 3.0403 17.0669 3.11816 17.2051 3.25653C17.3433 3.3949 17.4209 3.58246 17.4209 3.77802V6.578C17.1049 6.36985 16.7572 6.21482 16.3912 6.11902V5.28601H9.60894V10.522C9.6034 10.6404 9.63626 10.7575 9.7022 10.856H12.2701C12.4281 11.2346 12.6521 11.5823 12.9312 11.883L12.9332 11.88ZM10.938 9.92603C10.7557 9.9255 10.581 9.85267 10.4522 9.72351C10.3234 9.59436 10.251 9.41939 10.251 9.237C10.251 9.05444 10.3237 8.87937 10.4527 8.75018C10.5817 8.621 10.7565 8.5483 10.939 8.54803C11.1216 8.5483 11.2968 8.621 11.4258 8.75018C11.5548 8.87937 11.627 9.05444 11.627 9.237C11.627 9.41973 11.5546 9.59503 11.4253 9.72424C11.2961 9.85346 11.1208 9.92603 10.938 9.92603ZM10.938 7.66803C10.7557 7.6675 10.581 7.59467 10.4522 7.46552C10.3234 7.33636 10.251 7.16139 10.251 6.979C10.251 6.79644 10.3237 6.62137 10.4527 6.49219C10.5817 6.363 10.7565 6.2903 10.939 6.29004C11.1216 6.2903 11.2968 6.363 11.4258 6.49219C11.5548 6.62137 11.627 6.79644 11.627 6.979C11.6267 7.16156 11.554 7.33658 11.4249 7.46558C11.2957 7.59457 11.1206 7.66699 10.938 7.66699V7.66803ZM12.5992 7.54004C12.5104 7.47608 12.4381 7.39191 12.3882 7.29456C12.3383 7.1972 12.3122 7.08944 12.3121 6.98004C12.3121 6.79748 12.3847 6.62235 12.5137 6.49316C12.6427 6.36398 12.8175 6.29128 13.0001 6.29102C13.1107 6.29118 13.2198 6.31797 13.3179 6.36914C13.4161 6.42031 13.5005 6.49437 13.564 6.58502C13.1838 6.83752 12.8568 7.16196 12.6011 7.54004H12.5992Z" fill="#3BC7FF"/>
    <path d="M15.501 7C14.9226 7.00011 14.3622 7.20076 13.9151 7.56776C13.4681 7.93476 13.1622 8.44541 13.0494 9.0127C12.9367 9.57999 13.0241 10.1688 13.2969 10.6789C13.5696 11.1889 14.0107 11.5886 14.5451 11.8099C15.0795 12.0311 15.6741 12.0602 16.2275 11.8922C16.781 11.7243 17.2591 11.3696 17.5803 10.8886C17.9016 10.4077 18.0462 9.8302 17.9894 9.25461C17.9326 8.67902 17.678 8.14092 17.269 7.732C17.0368 7.49987 16.7612 7.31575 16.4578 7.19015C16.1545 7.06455 15.8293 6.99994 15.501 7ZM16.587 10.39C16.5705 10.4182 16.5468 10.4416 16.5184 10.4577C16.4899 10.4739 16.4577 10.4823 16.425 10.482C16.3913 10.4827 16.3582 10.4733 16.33 10.455L15.556 9.993C15.4571 9.92878 15.3751 9.84177 15.3168 9.73928C15.2585 9.63679 15.2257 9.52181 15.221 9.404V8.378C15.221 8.32827 15.2408 8.28058 15.2759 8.24542C15.3111 8.21025 15.3588 8.1905 15.4085 8.1905C15.4582 8.1905 15.5059 8.21025 15.5411 8.24542C15.5762 8.28058 15.596 8.32827 15.596 8.378V9.403C15.6007 9.45581 15.6167 9.507 15.6429 9.55307C15.6691 9.59915 15.705 9.63903 15.748 9.67L16.522 10.132C16.5434 10.1444 16.5621 10.1609 16.577 10.1806C16.5919 10.2003 16.6027 10.2228 16.6087 10.2468C16.6148 10.2707 16.616 10.2957 16.6123 10.3201C16.6085 10.3445 16.5999 10.3679 16.587 10.389V10.39Z" fill="#454450"/>
  </g>
  <defs>
    <clipPath id="clip0_6808_92527">
      <rect width="26" height="14" fill="white"/>
    </clipPath>
  </defs>
</svg>
