<svg width="26" height="14" viewBox="0 0 26 14" fill="none"
  xmlns="http://www.w3.org/2000/svg">
  <g clip-path="url(#clip0_6808_92460)">
    <path opacity="0.01" d="M26 0H0V14H26V0Z" fill="#58D266"/>
    <path d="M9.41602 10.067H7.99302V5.53804L6.59302 5.94704V4.86604L9.28602 3.93804H9.41702L9.41602 10.067ZM14.499 10.067H10.22V9.13804L12.191 7.06904C12.5719 6.72149 12.8281 6.25841 12.92 5.75104C12.9343 5.53696 12.8731 5.32464 12.747 5.15104C12.6848 5.08093 12.6075 5.02594 12.5208 4.99024C12.4342 4.95454 12.3405 4.93908 12.247 4.94504C12.1433 4.94371 12.0409 4.96825 11.9491 5.01644C11.8572 5.06463 11.7788 5.13495 11.721 5.22104C11.5815 5.42301 11.5114 5.66478 11.521 5.91004H10.094C10.0914 5.54352 10.189 5.18324 10.376 4.86804C10.5624 4.55076 10.8336 4.29173 11.159 4.12004C11.5038 3.93759 11.889 3.84474 12.279 3.85004C12.8279 3.81411 13.3714 3.97705 13.81 4.30904C13.9928 4.47424 14.1361 4.67852 14.229 4.90671C14.322 5.1349 14.3623 5.38112 14.347 5.62704C14.3469 5.86845 14.3011 6.10766 14.212 6.33204C14.1054 6.58983 13.9645 6.83203 13.793 7.05204C13.5097 7.40775 13.2038 7.74479 12.877 8.06104L12.085 8.97504H14.499V10.067ZM16.426 6.40704H17.096C17.203 6.42334 17.3123 6.41461 17.4153 6.38156C17.5183 6.34851 17.6123 6.29202 17.6898 6.21654C17.7673 6.14106 17.8263 6.04863 17.8621 5.94652C17.8978 5.84441 17.9095 5.7354 17.896 5.62804C17.8995 5.53697 17.8844 5.44615 17.8517 5.36107C17.8191 5.27599 17.7695 5.19842 17.706 5.13304C17.6341 5.06506 17.549 5.01265 17.4559 4.9791C17.3628 4.94554 17.2638 4.93157 17.165 4.93804C16.9873 4.93432 16.8138 4.99227 16.674 5.10204C16.6092 5.14866 16.5565 5.21012 16.5203 5.28127C16.4841 5.35243 16.4655 5.43121 16.466 5.51104H15.049C15.0449 5.20198 15.1395 4.89967 15.319 4.64804C15.5098 4.38633 15.7685 4.18164 16.067 4.05604C16.3983 3.91152 16.7566 3.83892 17.118 3.84304C17.692 3.80991 18.26 3.97476 18.727 4.31004C18.9189 4.46272 19.072 4.65866 19.1736 4.88182C19.2753 5.10498 19.3227 5.34904 19.312 5.59404C19.3105 5.86237 19.226 6.12366 19.07 6.34204C18.8901 6.59183 18.6467 6.78898 18.365 6.91304C18.6668 7.01434 18.9329 7.20085 19.131 7.45004C19.3219 7.70701 19.4199 8.02114 19.409 8.34104C19.4168 8.5947 19.3634 8.8465 19.2534 9.07519C19.1434 9.30389 18.98 9.50277 18.777 9.65504C18.2958 10.0024 17.7109 10.1762 17.118 10.148C16.7333 10.1513 16.3522 10.0729 16 9.91804C15.683 9.78706 15.4115 9.56592 15.219 9.28204C15.0411 9.00709 14.9489 8.68549 14.954 8.35804H16.382C16.3819 8.45117 16.4022 8.54318 16.4414 8.62765C16.4806 8.71212 16.5378 8.787 16.609 8.84704C16.7621 8.98536 16.9628 9.05916 17.169 9.05304C17.3885 9.06478 17.6039 8.99012 17.769 8.84504C17.842 8.77719 17.8996 8.69454 17.9381 8.60262C17.9765 8.5107 17.9949 8.41164 17.992 8.31204C18.0043 8.19219 17.9899 8.0711 17.9498 7.9575C17.9097 7.84389 17.8448 7.7406 17.76 7.65504C17.5765 7.5164 17.3496 7.44762 17.12 7.46104H16.429L16.426 6.40704Z" fill="#58D266"/>
  </g>
  <defs>
    <clipPath id="clip0_6808_92460">
      <rect width="26" height="14" fill="white"/>
    </clipPath>
  </defs>
</svg>
