<svg width="26" height="14" viewBox="0 0 26 14" fill="none"
  xmlns="http://www.w3.org/2000/svg">
  <g clip-path="url(#clip0_6808_93318)">
    <path opacity="0.01" d="M26 0H0V14H26V0Z" fill="#58D266"/>
    <path d="M5.61284 10.4922C5.28634 10.5 4.96252 10.4337 4.66508 10.2988C4.39878 10.1741 4.1792 9.96796 4.03813 9.70996C3.88432 9.40894 3.80905 9.07371 3.81987 8.73584V5.31885C3.80906 4.97496 3.88594 4.63424 4.04301 4.32812C4.18483 4.06559 4.4045 3.85357 4.67192 3.72119C4.96875 3.58163 5.29421 3.51295 5.62211 3.521H7.0142C7.34878 3.50995 7.6805 3.58444 7.97807 3.73779C8.23033 3.87971 8.43097 4.09783 8.5518 4.36084C8.68454 4.66343 8.74952 4.99146 8.74126 5.32178V8.73877C8.75787 8.97758 8.72488 9.21767 8.64506 9.44336C8.56525 9.66904 8.43996 9.87552 8.2769 10.0508C7.92777 10.3617 7.46977 10.522 7.00297 10.4961L5.61284 10.4922ZM3.86284 8.73584C3.85133 9.06636 3.9247 9.39449 4.07524 9.68896C3.92402 9.39398 3.85032 9.06615 3.86186 8.73486L3.86284 8.73584ZM5.13481 9.00684C5.1664 9.07164 5.21023 9.13033 5.26323 9.1792C5.43689 9.32023 5.65655 9.39124 5.87993 9.37891H6.70903C6.82022 9.3893 6.93237 9.37716 7.03862 9.34277C7.14487 9.30839 7.24317 9.25277 7.32719 9.1792C7.4692 9.01273 7.54063 8.79748 7.5269 8.5791V6.43115L5.13481 9.00684ZM5.2271 4.7998C5.14915 4.88413 5.08933 4.98393 5.05131 5.09229C5.0133 5.20064 4.99772 5.31564 5.0059 5.43018C4.99267 5.31666 5.00528 5.2013 5.04252 5.09326C5.07977 4.98522 5.14086 4.8869 5.22124 4.80566C5.30161 4.72442 5.39924 4.66243 5.50688 4.62402C5.61452 4.58562 5.72917 4.57197 5.84282 4.58398C5.73072 4.57646 5.61829 4.59178 5.51225 4.62891C5.40621 4.66603 5.31003 4.72401 5.2271 4.7998ZM5.25688 4.83008C5.18309 4.91059 5.12664 5.00521 5.09086 5.1084C5.05509 5.21159 5.04075 5.32126 5.04887 5.43018V7.61816L7.45512 5.01221C7.42513 4.93631 7.37845 4.86781 7.31889 4.81201C7.16163 4.68072 6.96047 4.61389 6.7559 4.625H5.84428C5.73755 4.61813 5.63034 4.63276 5.52934 4.66797C5.42835 4.70318 5.33621 4.75834 5.25688 4.83008ZM10.8389 10.4541V4.69922L9.55717 4.9292V4.12109L9.58305 4.10986L10.9922 3.50977H12.065V10.4551L10.8389 10.4541Z" fill="#58D266"/>
    <path d="M22.1809 11.7919H19.281V10.4291H20.8201V3.55609H19.281V2.20599H22.1809V11.79V11.7919ZM17.9641 11.7919H15.0642V2.20599H17.9641V3.55609H16.4231V10.4291H17.9641V11.7919Z" fill="#58D266"/>
  </g>
  <defs>
    <clipPath id="clip0_6808_93318">
      <rect width="26" height="14" fill="white"/>
    </clipPath>
  </defs>
</svg>
