<svg width="26" height="14" viewBox="0 0 26 14" fill="none"
  xmlns="http://www.w3.org/2000/svg">
  <g clip-path="url(#clip0_6808_93418)">
    <path opacity="0.01" d="M26 0H0V14H26V0Z" fill="#3BC7FF"/>
    <path d="M5.58409 10.874C5.42224 10.8681 5.26468 10.8211 5.12609 10.7373C4.9875 10.6535 4.87247 10.5356 4.7921 10.395C4.73937 10.237 4.72551 10.0686 4.75109 9.90405C4.77666 9.73948 4.84089 9.5835 4.93907 9.44897L5.8214 8.53394C5.86329 8.48217 5.90848 8.43339 5.95714 8.38794L6.01525 8.33203L6.30431 8.03198V8.05908L7.45519 6.97412L6.2672 5.85498V5.89697L4.9381 4.5481C4.83999 4.41353 4.77568 4.25733 4.75011 4.09277C4.72454 3.92822 4.73848 3.76004 4.79113 3.60205C4.87142 3.46137 4.9865 3.34359 5.12511 3.25977C5.26372 3.17594 5.42124 3.12883 5.58312 3.12305H10.3981C10.55 3.12537 10.6979 3.17177 10.8238 3.25684C10.9498 3.3419 11.0482 3.46196 11.107 3.60205C11.1476 3.77208 11.153 3.94853 11.1222 4.12061C11.0914 4.29268 11.0254 4.45666 10.9283 4.60205L10.0704 5.45288C10.0374 5.49088 10.0033 5.52701 9.97032 5.56201L9.85216 5.6731L9.62511 5.89795V5.88794L8.4713 6.9751L9.6212 8.05811V8.03394L9.90001 8.32397L9.96935 8.38892C10.0191 8.436 10.0652 8.48658 10.108 8.54004L10.9342 9.39697C11.0314 9.54231 11.0972 9.70608 11.128 9.87817C11.1588 10.0503 11.1541 10.227 11.1134 10.397C11.0545 10.5371 10.9561 10.6571 10.8302 10.7422C10.7043 10.8273 10.5563 10.8737 10.4044 10.876L5.58409 10.874ZM7.03429 9.07397C7.03363 9.10773 7.03956 9.14142 7.05187 9.17285C7.06417 9.20429 7.08267 9.23299 7.10607 9.25732C7.12947 9.28165 7.15717 9.30093 7.1881 9.31445C7.21903 9.32797 7.25249 9.33529 7.28624 9.33594H8.63927C8.70718 9.33385 8.77137 9.30531 8.81847 9.25635C8.86557 9.20738 8.89178 9.14191 8.89122 9.07397C8.89189 9.04022 8.88595 9.00678 8.87364 8.97534C8.86134 8.94391 8.84285 8.9152 8.81945 8.89087C8.79604 8.86654 8.76786 8.84702 8.73693 8.8335C8.70599 8.81998 8.67302 8.81266 8.63927 8.81201H7.28624C7.25223 8.81305 7.21864 8.82074 7.18761 8.83472C7.15658 8.8487 7.12889 8.86876 7.10558 8.89355C7.08227 8.91835 7.06391 8.94742 7.05187 8.97925C7.03983 9.01108 7.0342 9.04508 7.03527 9.0791L7.03429 9.07397ZM7.03429 4.87402C7.03363 4.90777 7.03956 4.94122 7.05187 4.97266C7.06417 5.00409 7.08267 5.0328 7.10607 5.05713C7.12947 5.08146 7.15717 5.10098 7.1881 5.1145C7.21903 5.12802 7.25249 5.13534 7.28624 5.13599H8.63927C8.70718 5.1339 8.77137 5.10536 8.81847 5.0564C8.86557 5.00743 8.89178 4.94196 8.89122 4.87402C8.89189 4.84027 8.88595 4.80658 8.87364 4.77515C8.86134 4.74371 8.84285 4.715 8.81945 4.69067C8.79604 4.66634 8.76786 4.64706 8.73693 4.63354C8.70599 4.62003 8.67302 4.61271 8.63927 4.61206H7.28624C7.2179 4.61415 7.15309 4.64323 7.10607 4.69287C7.05905 4.74252 7.03365 4.80859 7.03527 4.87695L7.03429 4.87402Z" fill="#3BC7FF"/>
    <path d="M21.2739 11.7919H18.374V10.4291H19.9131V3.55609H18.374V2.20599H21.2739V11.79V11.7919ZM17.0571 11.7919H14.1572V2.20599H17.0571V3.55609H15.5161V10.4291H17.0571V11.7919Z" fill="#3BC7FF"/>
  </g>
  <defs>
    <clipPath id="clip0_6808_93418">
      <rect width="26" height="14" fill="white"/>
    </clipPath>
  </defs>
</svg>
