<svg width="26" height="14" viewBox="0 0 26 14" fill="none"
  xmlns="http://www.w3.org/2000/svg">
  <g clip-path="url(#clip0_6808_93393)">
    <path opacity="0.01" d="M26 0H0V14H26V0Z" fill="#3BC7FF"/>
    <path d="M22.3248 11.7919H19.4249V10.4291H20.964V3.55609H19.4249V2.20599H22.3248V11.79V11.7919ZM18.108 11.7919H15.2081V2.20599H18.108V3.55609H16.567V10.4291H18.108V11.7919Z" fill="#3BC7FF"/>
    <path d="M7.61894 11.684H4.62894C4.34123 11.6417 4.08114 11.4895 3.90339 11.2594C3.72564 11.0292 3.64411 10.7391 3.67594 10.45V4.34302C3.67594 4.16576 3.74629 3.99575 3.87153 3.87032C3.99678 3.74488 4.16668 3.67428 4.34394 3.67402H5.01094V2.53402C5.01094 2.48353 5.03093 2.4351 5.06653 2.39931C5.10213 2.36352 5.15046 2.34328 5.20094 2.34302H5.75394C5.8046 2.34302 5.85318 2.36314 5.889 2.39896C5.92482 2.43478 5.94494 2.48336 5.94494 2.53402V3.67702H9.41394V2.53402C9.41394 2.48336 9.43406 2.43478 9.46988 2.39896C9.5057 2.36314 9.55429 2.34302 9.60494 2.34302H10.1569C10.2076 2.34302 10.2562 2.36314 10.292 2.39896C10.3278 2.43478 10.3479 2.48336 10.3479 2.53402V3.67702H11.0159C11.1925 3.67754 11.3617 3.74785 11.4866 3.87261C11.6116 3.99736 11.6822 4.16645 11.6829 4.34302V6.87802C11.3967 6.68934 11.0816 6.54881 10.7499 6.46202V5.70802H4.60794V10.45C4.60328 10.5564 4.63271 10.6615 4.69194 10.75H7.01894C7.16238 11.0931 7.36552 11.4079 7.61894 11.68V11.684ZM5.81294 9.91402C5.68953 9.91402 5.56888 9.87742 5.46627 9.80885C5.36365 9.74029 5.28367 9.64283 5.23644 9.52881C5.18921 9.41479 5.17685 9.28933 5.20093 9.16828C5.22501 9.04724 5.28444 8.93605 5.37171 8.84878C5.45897 8.76152 5.57016 8.70208 5.69121 8.67801C5.81225 8.65393 5.93771 8.66629 6.05174 8.71352C6.16576 8.76075 6.26321 8.84073 6.33178 8.94334C6.40034 9.04596 6.43694 9.1666 6.43694 9.29002C6.43694 9.45551 6.3712 9.61423 6.25418 9.73125C6.13715 9.84827 5.97844 9.91402 5.81294 9.91402ZM5.81294 7.86902C5.68957 7.86921 5.56891 7.83284 5.4662 7.76448C5.3635 7.69612 5.28336 7.59885 5.23592 7.48497C5.18848 7.37108 5.17587 7.24568 5.19967 7.12463C5.22347 7.00357 5.28262 6.89229 5.36965 6.80484C5.45668 6.7174 5.56768 6.65771 5.68862 6.63333C5.80955 6.60894 5.93501 6.62096 6.04912 6.66785C6.16324 6.71474 6.26089 6.79441 6.32974 6.89678C6.39859 6.99916 6.43555 7.11965 6.43594 7.24302C6.4362 7.32505 6.42029 7.40632 6.38911 7.4822C6.35793 7.55807 6.3121 7.62705 6.25424 7.68519C6.19637 7.74333 6.12761 7.7895 6.05189 7.82104C5.97617 7.85258 5.89497 7.86889 5.81294 7.86902ZM7.31294 7.75302C7.23886 7.70024 7.1772 7.6319 7.13231 7.55279C7.08741 7.47368 7.06035 7.38571 7.05302 7.29504C7.0457 7.20437 7.05829 7.1132 7.0899 7.02791C7.12152 6.94262 7.1714 6.86527 7.23605 6.80128C7.3007 6.73729 7.37857 6.68822 7.46418 6.65748C7.54979 6.62675 7.64109 6.61511 7.73168 6.62337C7.82227 6.63164 7.90995 6.65961 7.9886 6.70532C8.06724 6.75103 8.13493 6.81339 8.18694 6.88802C7.84227 7.1166 7.54469 7.41046 7.31294 7.75302Z" fill="#3BC7FF"/>
    <path d="M8.95795 11.546C8.95095 11.546 8.94195 11.546 8.93495 11.546C8.49566 11.3275 8.13913 10.9724 7.91895 10.534C7.91895 10.527 7.91895 10.518 7.91895 10.511C8.19787 10.5913 8.48138 10.6548 8.76795 10.701C8.81516 10.986 8.8786 11.2682 8.95795 11.546Z" fill="#454450"/>
    <path d="M11.9669 10.536C11.7401 10.988 11.3698 11.352 10.9139 11.571C11.0013 11.2857 11.0701 10.9951 11.1199 10.701C11.4042 10.6548 11.6854 10.5914 11.9619 10.511C11.9599 10.52 11.9669 10.529 11.9669 10.536Z" fill="#454450"/>
    <path d="M11.9849 8.55696C11.7012 8.47045 11.4123 8.40165 11.1199 8.35096C11.0717 8.05815 11.0028 7.7691 10.9139 7.48596C11.3827 7.71022 11.7607 8.08816 11.9849 8.55696Z" fill="#454450"/>
    <path d="M8.958 7.51097C8.87827 7.78755 8.81548 8.06874 8.77 8.35297C8.47612 8.39978 8.18578 8.4666 7.901 8.55297C8.12069 8.09859 8.48462 7.72974 8.936 7.50397C8.943 7.50397 8.952 7.51097 8.958 7.51097Z" fill="#454450"/>
    <path d="M10.733 8.30298C10.2079 8.24414 9.67798 8.24414 9.15295 8.30298C9.20723 7.99138 9.28444 7.68421 9.38395 7.38398C9.38508 7.36733 9.38508 7.35062 9.38395 7.33398C9.56682 7.28837 9.75449 7.26487 9.94295 7.26398C10.1291 7.26524 10.3144 7.28874 10.495 7.33398C10.4965 7.3508 10.4992 7.36751 10.503 7.38398C10.6019 7.68431 10.6787 7.99146 10.733 8.30298Z" fill="#454450"/>
    <path d="M8.71796 10.318C8.40632 10.2643 8.09913 10.1874 7.79896 10.088C7.78231 10.0868 7.7656 10.0868 7.74896 10.088C7.70327 9.90479 7.67977 9.71677 7.67896 9.52798C7.68022 9.34185 7.70372 9.15653 7.74896 8.97598C7.76576 8.97477 7.78246 8.97243 7.79896 8.96898C8.09949 8.87051 8.40658 8.79332 8.71796 8.73798C8.66138 9.26312 8.66138 9.79283 8.71796 10.318Z" fill="#454450"/>
    <path d="M12.207 9.52798C12.2058 9.7151 12.1823 9.90141 12.137 10.083C12.1203 10.0818 12.1036 10.0818 12.087 10.083C11.7865 10.1825 11.4794 10.2611 11.168 10.318C11.2268 9.79295 11.2268 9.263 11.168 8.73798C11.4796 8.79225 11.7867 8.86946 12.087 8.96898C12.1032 8.97354 12.1201 8.97589 12.137 8.97598C12.1821 9.15656 12.2056 9.34185 12.207 9.52798Z" fill="#454450"/>
    <path d="M10.733 10.753C10.6793 11.0646 10.6024 11.3718 10.503 11.672C10.4995 11.6885 10.4972 11.7052 10.496 11.722C10.3154 11.7672 10.1301 11.7907 9.94395 11.792C9.7565 11.7909 9.56984 11.7674 9.38795 11.722C9.38908 11.7053 9.38908 11.6886 9.38795 11.672C9.28814 11.3716 9.20961 11.0645 9.15295 10.753C9.41515 10.7844 9.67889 10.8011 9.94295 10.803C10.207 10.8011 10.4708 10.7844 10.733 10.753Z" fill="#454450"/>
    <path d="M10.795 10.381C10.2305 10.4521 9.6594 10.4521 9.09496 10.381C9.02385 9.81655 9.02385 9.24542 9.09496 8.68099C9.6594 8.60988 10.2305 8.60988 10.795 8.68099C10.8661 9.24542 10.8661 9.81655 10.795 10.381Z" fill="#454450"/>
  </g>
  <defs>
    <clipPath id="clip0_6808_93393">
      <rect width="26" height="14" fill="white"/>
    </clipPath>
  </defs>
</svg>
