<svg width="26" height="14" viewBox="0 0 26 14" fill="none"
  xmlns="http://www.w3.org/2000/svg">
  <g clip-path="url(#clip0_6808_93306)">
    <path opacity="0.01" d="M26 0H0V14H26V0Z" fill="#58D266"/>
    <path d="M6.241 10.185H4.782V5.53998L3.349 5.95898V4.85298L6.107 3.89898H6.241V10.185ZM7.686 8.73198C7.89644 8.72484 8.10169 8.79815 8.26 8.93698C8.33444 9.00226 8.39355 9.08315 8.43314 9.1739C8.47272 9.26465 8.49179 9.36301 8.489 9.46198C8.49179 9.56094 8.47272 9.65931 8.43314 9.75006C8.39355 9.8408 8.33444 9.9217 8.26 9.98698C8.10169 10.1258 7.89644 10.1991 7.686 10.192C7.47449 10.1998 7.26814 10.1256 7.11 9.98498C7.03659 9.91962 6.97826 9.83909 6.93906 9.74895C6.89987 9.65882 6.88074 9.56124 6.883 9.46298C6.88074 9.36472 6.89987 9.26714 6.93906 9.177C6.97826 9.08687 7.03659 9.00633 7.11 8.94098C7.26783 8.79959 7.47422 8.7247 7.686 8.73198ZM13.535 10.185H9.148V9.23498L11.169 7.11098C11.5604 6.75508 11.8239 6.28037 11.919 5.75998C11.9342 5.53991 11.8716 5.32151 11.742 5.14298C11.6782 5.07079 11.5987 5.01416 11.5096 4.97742C11.4205 4.94067 11.3242 4.92479 11.228 4.93098C11.1216 4.92952 11.0164 4.95463 10.9221 5.00405C10.8278 5.05346 10.7474 5.12562 10.688 5.21398C10.5444 5.42068 10.4717 5.66844 10.481 5.91998H9.019C9.01616 5.54397 9.11609 5.17433 9.308 4.85098C9.49847 4.52639 9.77545 4.26118 10.108 4.08498C10.4623 3.89738 10.8582 3.80211 11.259 3.80798C11.8216 3.77143 12.3785 3.93863 12.828 4.27898C13.0153 4.44835 13.1621 4.65777 13.2573 4.89167C13.3525 5.12557 13.3938 5.37793 13.378 5.62998C13.378 5.87753 13.3312 6.12284 13.24 6.35298C13.1306 6.61724 12.986 6.8655 12.81 7.09098C12.5196 7.45551 12.2059 7.80089 11.871 8.12498L11.059 9.06198H13.533L13.535 10.185Z" fill="#58D266"/>
    <path d="M22.6519 11.7919H19.752V10.4291H21.291V3.55609H19.752V2.20599H22.6519V11.79V11.7919ZM18.4351 11.7919H15.5352V2.20599H18.4351V3.55609H16.894V10.4291H18.4351V11.7919Z" fill="#58D266"/>
  </g>
  <defs>
    <clipPath id="clip0_6808_93306">
      <rect width="26" height="14" fill="white"/>
    </clipPath>
  </defs>
</svg>
