<svg width="26" height="14" viewBox="0 0 26 14" fill="none"
  xmlns="http://www.w3.org/2000/svg">
  <g clip-path="url(#clip0_6808_92604)">
    <path opacity="0.01" d="M26 0H0V14H26V0Z" fill="#3BC7FF"/>
    <path d="M13 2.52698C11.9648 2.5267 10.9616 2.88539 10.1613 3.54191C9.36093 4.19844 8.81302 5.11217 8.6109 6.12741C8.40878 7.14264 8.56496 8.19655 9.05282 9.10954C9.54068 10.0225 10.33 10.7381 11.2864 11.1343C12.2427 11.5305 13.3068 11.5828 14.2974 11.2824C15.288 10.9819 16.1438 10.3472 16.7189 9.48649C17.2939 8.62577 17.5528 7.59227 17.4512 6.5621C17.3497 5.53193 16.894 4.56885 16.162 3.83698C15.323 2.99823 14.1863 2.52703 13 2.52698ZM14.943 8.59298C14.9133 8.64349 14.871 8.68532 14.8201 8.71428C14.7692 8.74324 14.7115 8.75831 14.653 8.75798C14.593 8.7589 14.5341 8.74184 14.484 8.70898L13.099 7.88198C12.9218 7.76707 12.7747 7.61125 12.6703 7.42765C12.5659 7.24405 12.5071 7.03804 12.499 6.82698V4.99398C12.499 4.905 12.5343 4.81966 12.5972 4.75674C12.6602 4.69383 12.7455 4.65848 12.8345 4.65848C12.9235 4.65848 13.0088 4.69383 13.0717 4.75674C13.1346 4.81966 13.17 4.905 13.17 4.99398V6.82798C13.178 6.92263 13.2063 7.01445 13.2531 7.09712C13.2999 7.1798 13.364 7.25139 13.441 7.30698L14.826 8.13398C14.8643 8.15605 14.8979 8.18559 14.9246 8.22085C14.9513 8.25611 14.9707 8.29638 14.9817 8.33926C14.9926 8.38215 14.9948 8.42679 14.9881 8.47054C14.9815 8.51429 14.9661 8.55526 14.943 8.59298Z" fill="#3BC7FF"/>
  </g>
  <defs>
    <clipPath id="clip0_6808_92604">
      <rect width="26" height="14" fill="white"/>
    </clipPath>
  </defs>
</svg>
