<svg width="26" height="14" viewBox="0 0 26 14" fill="none"
  xmlns="http://www.w3.org/2000/svg">
  <g clip-path="url(#clip0_6808_93441)">
    <path opacity="0.01" d="M26 0H0V14H26V0Z" fill="#3BC7FF"/>
    <path d="M7.94199 3.02698C7.02258 3.02696 6.13161 3.34573 5.42089 3.92898C4.71016 4.51223 4.22366 5.32387 4.04428 6.22561C3.86489 7.12735 4.00372 8.06339 4.43711 8.87424C4.8705 9.6851 5.57164 10.3206 6.42105 10.6724C7.27047 11.0243 8.2156 11.0708 9.09543 10.8039C9.97525 10.537 10.7353 9.97332 11.2461 9.20887C11.7569 8.44442 11.9869 7.5265 11.8968 6.61152C11.8067 5.69654 11.4021 4.84111 10.752 4.19098C10.0067 3.4457 8.99595 3.027 7.94199 3.02698ZM9.66699 8.41498C9.64043 8.45976 9.60268 8.49686 9.55745 8.52264C9.51221 8.54841 9.46105 8.56197 9.40899 8.56198C9.35582 8.5629 9.30359 8.54793 9.25899 8.51898L8.02799 7.78398C7.87077 7.6818 7.74039 7.54336 7.64781 7.3803C7.55524 7.21725 7.50317 7.03434 7.49599 6.84698V5.21798C7.49599 5.13841 7.52759 5.06211 7.58385 5.00585C7.64012 4.94959 7.71642 4.91798 7.79599 4.91798C7.87555 4.91798 7.95186 4.94959 8.00812 5.00585C8.06438 5.06211 8.09599 5.13841 8.09599 5.21798V6.84698C8.10322 6.93099 8.12849 7.01245 8.17008 7.08579C8.21167 7.15914 8.2686 7.22265 8.33699 7.27198L9.56799 8.00698C9.60165 8.02691 9.631 8.05336 9.6543 8.08479C9.67761 8.11621 9.69442 8.15196 9.70373 8.18996C9.71304 8.22796 9.71468 8.26743 9.70854 8.30607C9.7024 8.34471 9.68762 8.38174 9.66699 8.41498Z" fill="#3BC7FF"/>
    <path d="M22.0319 11.7919H19.132V10.4291H20.671V3.55609H19.132V2.20599H22.0319V11.79V11.7919ZM17.8151 11.7919H14.9152V2.20599H17.8151V3.55609H16.274V10.4291H17.8151V11.7919Z" fill="#3BC7FF"/>
  </g>
  <defs>
    <clipPath id="clip0_6808_93441">
      <rect width="26" height="14" fill="white"/>
    </clipPath>
  </defs>
</svg>
