<svg width="26" height="14" viewBox="0 0 26 14" fill="none"
  xmlns="http://www.w3.org/2000/svg">
  <g clip-path="url(#clip0_6808_93282)">
    <path opacity="0.01" d="M26 0H0V14H26V0Z" fill="#58D266"/>
    <path d="M9.43298 7.92702H7.29298L7.69298 6.03802H9.83298L9.43298 7.92702ZM8.76298 11.039H9.95298L10.39 9.01902H12.06V7.92702H10.619L11.019 6.03802H12.705V4.94702H11.253L11.678 2.96002H10.488L10.063 4.94702H7.92298L8.34798 2.96002H7.15798L6.73298 4.94702H4.82198V6.03902H6.50298L6.10298 7.92802H4.17798V9.02002H5.86998L5.43298 11.039H6.62298L7.05998 9.01902H9.19998L8.76298 11.039Z" fill="#58D266"/>
    <path d="M21.8219 11.7919H18.922V10.4291H20.4611V3.55609H18.922V2.20599H21.8219V11.79V11.7919ZM17.6051 11.7919H14.7052V2.20599H17.6051V3.55609H16.0641V10.4291H17.6051V11.7919Z" fill="#58D266"/>
  </g>
  <defs>
    <clipPath id="clip0_6808_93282">
      <rect width="26" height="14" fill="white"/>
    </clipPath>
  </defs>
</svg>
