<svg width="26" height="14" viewBox="0 0 26 14" fill="none"
  xmlns="http://www.w3.org/2000/svg">
  <g clip-path="url(#clip0_6808_93196)">
    <path opacity="0.01" d="M26 0H0V14H26V0Z" fill="white"/>
    <path d="M2.36101 4.59499H3.51701V7.89499C3.5219 8.18229 3.44825 8.46548 3.30401 8.71399C3.16294 8.95292 2.95649 9.14653 2.70901 9.27199C2.44583 9.40688 2.15372 9.47553 1.85801 9.47199C1.4147 9.49835 0.977929 9.35538 0.636012 9.07199C0.48701 8.92769 0.370919 8.75291 0.295671 8.55962C0.220424 8.36632 0.187794 8.15906 0.200012 7.95199H1.36301C1.34929 8.11971 1.38921 8.28744 1.47701 8.43099C1.52438 8.48425 1.5837 8.52551 1.6501 8.55141C1.7165 8.57731 1.78809 8.58711 1.85901 8.57999C1.93112 8.58346 2.00295 8.5688 2.06793 8.53736C2.13292 8.50592 2.18898 8.45869 2.23101 8.39999C2.32577 8.25107 2.37157 8.07624 2.36201 7.89999L2.36101 4.59499ZM6.79701 8.12699C6.8012 8.05078 6.78704 7.97468 6.75572 7.90508C6.7244 7.83547 6.67683 7.7744 6.61701 7.72699C6.42269 7.59649 6.20909 7.49729 5.98401 7.43299C5.73118 7.35129 5.48398 7.25308 5.24401 7.13899C4.97984 7.04625 4.74954 6.87643 4.58287 6.65146C4.4162 6.4265 4.3208 6.15672 4.30901 5.87699C4.30588 5.6235 4.38793 5.3763 4.54201 5.17499C4.71393 4.95895 4.94189 4.7943 5.20101 4.69899C5.50657 4.58173 5.83176 4.52402 6.15901 4.52899C6.47865 4.52371 6.79573 4.58679 7.08901 4.71399C7.34803 4.82492 7.5698 5.00782 7.72801 5.24099C7.881 5.47239 7.96047 5.74463 7.95601 6.02199H6.80001C6.80499 5.93747 6.79146 5.85287 6.76037 5.77412C6.72928 5.69536 6.68138 5.62433 6.62001 5.56599C6.48404 5.45228 6.31 5.39439 6.13301 5.40399C5.95872 5.3943 5.78611 5.44246 5.64201 5.54099C5.58591 5.58016 5.54019 5.63241 5.50883 5.69322C5.47747 5.75403 5.4614 5.82157 5.46201 5.88999C5.46609 5.95777 5.48639 6.02357 5.52119 6.08186C5.55599 6.14016 5.60429 6.18925 5.66201 6.22499C5.87798 6.364 6.11409 6.4689 6.36201 6.53599C6.64627 6.6222 6.92075 6.73783 7.18101 6.88099C7.41438 6.99327 7.61135 7.16908 7.74932 7.38824C7.88729 7.6074 7.96066 7.86102 7.96101 8.11999C7.96849 8.31147 7.92903 8.50187 7.84606 8.6746C7.7631 8.84733 7.63915 8.99714 7.48501 9.11099C7.10117 9.37066 6.6427 9.49713 6.18001 9.47099C5.81618 9.47619 5.45533 9.40463 5.12101 9.26099C4.83202 9.14307 4.58383 8.9432 4.40701 8.68599C4.24525 8.43572 4.1617 8.14294 4.16701 7.84499H5.32601C5.31726 7.94873 5.33055 8.05315 5.36502 8.15139C5.39949 8.24963 5.45436 8.33947 5.52601 8.41499C5.71248 8.55373 5.94354 8.61888 6.17501 8.59799C6.33576 8.60673 6.49502 8.56323 6.62901 8.47399C6.68338 8.43442 6.72716 8.38206 6.75646 8.32153C6.78577 8.261 6.79969 8.19419 6.79701 8.12699ZM12.697 7.09899C12.7055 7.52874 12.6163 7.95479 12.436 8.34499C12.2763 8.69005 12.0181 8.9802 11.694 9.17899C11.3619 9.37744 10.9808 9.47862 10.594 9.47099C10.2118 9.47796 9.8349 9.38045 9.50401 9.18899C9.18358 8.99728 8.92579 8.71656 8.76201 8.38099C8.57874 8.00536 8.48333 7.59295 8.48301 7.17499V6.90399C8.47414 6.47411 8.56269 6.04779 8.74201 5.65699C8.90176 5.31164 9.16032 5.0214 9.48501 4.82299C9.8172 4.62459 10.1981 4.52277 10.585 4.52899C10.9683 4.52267 11.3458 4.62345 11.675 4.81999C11.9982 5.01809 12.257 5.30572 12.42 5.64799C12.6031 6.03219 12.6952 6.45344 12.689 6.87899L12.697 7.09899ZM11.517 6.89899C11.5406 6.52068 11.4575 6.14334 11.277 5.80999C11.2063 5.69235 11.1054 5.59579 10.9848 5.53037C10.8641 5.46495 10.7282 5.43305 10.591 5.43799C10.0097 5.43799 9.70235 5.87399 9.66901 6.74599V7.09999C9.64728 7.47694 9.72852 7.85269 9.90401 8.18699C9.97471 8.30835 10.0774 8.40797 10.2008 8.47498C10.3243 8.54199 10.4637 8.57382 10.604 8.56699C10.7399 8.57127 10.8745 8.5389 10.9936 8.47327C11.1127 8.40764 11.212 8.31118 11.281 8.19399C11.4568 7.86276 11.5371 7.48921 11.513 7.11499L11.517 6.89899ZM17.376 9.40499H16.223L14.518 6.41499V9.40499H13.358V4.59499H14.518L16.218 7.58799V4.59499H17.374L17.376 9.40499Z" fill="#5F89FF"/>
    <path d="M25.7969 11.7919H22.897V10.4291H24.436V3.55609H22.897V2.20599H25.7969V11.79V11.7919ZM21.5801 11.7919H18.6802V2.20599H21.5801V3.55609H20.0391V10.4291H21.5801V11.7919Z" fill="#5F89FF"/>
  </g>
  <defs>
    <clipPath id="clip0_6808_93196">
      <rect width="26" height="14" fill="white"/>
    </clipPath>
  </defs>
</svg>
