<svg width="26" height="14" viewBox="0 0 26 14" fill="none"
  xmlns="http://www.w3.org/2000/svg">
  <g clip-path="url(#clip0_6808_92487)">
    <path opacity="0.01" d="M26 0H0V14H26V0Z" fill="#58D266"/>
    <path d="M10.6718 10.4922C10.3453 10.5 10.0215 10.4337 9.72404 10.2988C9.45774 10.1741 9.23816 9.96796 9.09709 9.70996C8.94328 9.40894 8.86801 9.07371 8.87883 8.73584V5.31885C8.86802 4.97496 8.9449 4.63424 9.10197 4.32812C9.24379 4.06559 9.46346 3.85357 9.73088 3.72119C10.0277 3.58163 10.3532 3.51295 10.6811 3.521H12.0732C12.4077 3.50995 12.7395 3.58444 13.037 3.73779C13.2893 3.87971 13.4899 4.09783 13.6108 4.36084C13.7435 4.66343 13.8085 4.99146 13.8002 5.32178V8.73877C13.8168 8.97758 13.7838 9.21767 13.704 9.44336C13.6242 9.66904 13.4989 9.87552 13.3359 10.0508C12.9867 10.3617 12.5287 10.522 12.0619 10.4961L10.6718 10.4922ZM8.9218 8.73584C8.91029 9.06636 8.98366 9.39449 9.1342 9.68896C8.98298 9.39398 8.90928 9.06615 8.92082 8.73486L8.9218 8.73584ZM10.1938 9.00684C10.2254 9.07164 10.2692 9.13033 10.3222 9.1792C10.4958 9.32023 10.7155 9.39124 10.9389 9.37891H11.768C11.8792 9.3893 11.9913 9.37716 12.0976 9.34277C12.2038 9.30839 12.3021 9.25277 12.3862 9.1792C12.5282 9.01273 12.5996 8.79748 12.5859 8.5791V6.43115L10.1938 9.00684ZM10.2861 4.7998C10.2081 4.88413 10.1483 4.98393 10.1103 5.09229C10.0723 5.20064 10.0567 5.31564 10.0649 5.43018C10.0516 5.31666 10.0642 5.2013 10.1015 5.09326C10.1387 4.98522 10.1998 4.8869 10.2802 4.80566C10.3606 4.72442 10.4582 4.66243 10.5658 4.62402C10.6735 4.58562 10.7881 4.57197 10.9018 4.58398C10.7897 4.57646 10.6773 4.59178 10.5712 4.62891C10.4652 4.66603 10.369 4.72401 10.2861 4.7998ZM10.3158 4.83008C10.2421 4.91059 10.1856 5.00521 10.1498 5.1084C10.1141 5.21159 10.0997 5.32126 10.1078 5.43018V7.61816L12.5141 5.01221C12.4841 4.93631 12.4374 4.86781 12.3779 4.81201C12.2206 4.68072 12.0194 4.61389 11.8149 4.625H10.9032C10.7965 4.61813 10.6893 4.63276 10.5883 4.66797C10.4873 4.70318 10.3952 4.75834 10.3158 4.83008ZM15.8979 10.4541V4.69922L14.6161 4.9292V4.12109L14.642 4.10986L16.0512 3.50977H17.1239V10.4551L15.8979 10.4541Z" fill="#58D266"/>
  </g>
  <defs>
    <clipPath id="clip0_6808_92487">
      <rect width="26" height="14" fill="white"/>
    </clipPath>
  </defs>
</svg>
