<svg width="26" height="14" viewBox="0 0 26 14" fill="none"
  xmlns="http://www.w3.org/2000/svg">
  <g clip-path="url(#clip0_6808_92549)">
    <path opacity="0.01" d="M26 0H0V14H26V0Z" fill="#3BC7FF"/>
    <path d="M12.9332 11.88H9.63335C9.31572 11.8335 9.02832 11.6655 8.83208 11.4114C8.63585 11.1574 8.54585 10.8371 8.58111 10.518V3.77802C8.5811 3.58246 8.65874 3.3949 8.79693 3.25653C8.93511 3.11816 9.12237 3.0403 9.31792 3.04004H10.0542V1.77802C10.0542 1.72205 10.0762 1.66842 10.1158 1.62885C10.1553 1.58928 10.2092 1.56702 10.2652 1.56702H10.8751C10.931 1.56702 10.9849 1.58928 11.0245 1.62885C11.064 1.66842 11.086 1.72205 11.086 1.77802V3.04004H14.9161V1.77802C14.9161 1.75031 14.9216 1.72287 14.9322 1.69727C14.9428 1.67167 14.9585 1.64844 14.9781 1.62885C14.9977 1.60925 15.0208 1.59367 15.0464 1.58307C15.072 1.57247 15.0993 1.56702 15.127 1.56702H15.7359C15.7919 1.56702 15.8457 1.58928 15.8853 1.62885C15.9249 1.66842 15.9473 1.72205 15.9473 1.77802V3.04004H16.6841C16.8797 3.0403 17.0669 3.11816 17.2051 3.25653C17.3433 3.3949 17.4209 3.58246 17.4209 3.77802V6.578C17.1049 6.36985 16.7572 6.21482 16.3912 6.11902V5.28601H9.60894V10.522C9.6034 10.6404 9.63626 10.7575 9.7022 10.856H12.2701C12.4281 11.2346 12.6521 11.5823 12.9312 11.883L12.9332 11.88ZM10.938 9.92603C10.7557 9.9255 10.581 9.85267 10.4522 9.72351C10.3234 9.59436 10.251 9.41939 10.251 9.237C10.251 9.05444 10.3237 8.87937 10.4527 8.75018C10.5817 8.621 10.7565 8.5483 10.939 8.54803C11.1216 8.5483 11.2968 8.621 11.4258 8.75018C11.5548 8.87937 11.627 9.05444 11.627 9.237C11.627 9.41973 11.5546 9.59503 11.4253 9.72424C11.2961 9.85346 11.1208 9.92603 10.938 9.92603ZM10.938 7.66803C10.7557 7.6675 10.581 7.59467 10.4522 7.46552C10.3234 7.33636 10.251 7.16139 10.251 6.979C10.251 6.79644 10.3237 6.62137 10.4527 6.49219C10.5817 6.363 10.7565 6.2903 10.939 6.29004C11.1216 6.2903 11.2968 6.363 11.4258 6.49219C11.5548 6.62137 11.627 6.79644 11.627 6.979C11.6267 7.16156 11.554 7.33658 11.4249 7.46558C11.2957 7.59457 11.1206 7.66699 10.938 7.66699V7.66803ZM12.5992 7.54004C12.5104 7.47608 12.4381 7.39191 12.3882 7.29456C12.3383 7.1972 12.3122 7.08944 12.3121 6.98004C12.3121 6.79748 12.3847 6.62235 12.5137 6.49316C12.6427 6.36398 12.8175 6.29128 13.0001 6.29102C13.1107 6.29118 13.2198 6.31797 13.3179 6.36914C13.4161 6.42031 13.5005 6.49437 13.564 6.58502C13.1838 6.83752 12.8568 7.16196 12.6011 7.54004H12.5992Z" fill="#3BC7FF"/>
    <path d="M14.413 11.728C14.405 11.728 14.395 11.733 14.388 11.733C13.9016 11.4907 13.5073 11.0965 13.265 10.61C13.265 10.603 13.27 10.593 13.27 10.585C13.5765 10.6736 13.8881 10.7438 14.203 10.795C14.2552 11.1098 14.3253 11.4213 14.413 11.728Z" fill="#454450"/>
    <path d="M17.735 10.613C17.4844 11.1119 17.0754 11.5135 16.572 11.755C16.6686 11.4403 16.7448 11.1196 16.8 10.795C17.114 10.744 17.4246 10.6739 17.73 10.585C17.727 10.595 17.735 10.605 17.735 10.613Z" fill="#454450"/>
    <path d="M17.755 8.428C17.4417 8.3323 17.1228 8.25615 16.8 8.2C16.7465 7.8767 16.6703 7.55758 16.572 7.245C17.0899 7.49264 17.5074 7.91012 17.755 8.428Z" fill="#454450"/>
    <path d="M14.413 7.27301C14.3248 7.57849 14.2553 7.88907 14.205 8.20301C13.8802 8.25604 13.5595 8.33122 13.245 8.42801C13.4868 7.92452 13.8888 7.51548 14.388 7.26501C14.395 7.26501 14.405 7.27301 14.413 7.27301Z" fill="#454450"/>
    <path d="M16.372 8.148C15.7921 8.083 15.2068 8.083 14.627 8.148C14.6868 7.80385 14.7721 7.46459 14.882 7.133C14.8849 7.1148 14.8865 7.09643 14.887 7.078C15.0875 7.02772 15.2932 7.00154 15.5 7C15.7057 7.00159 15.9105 7.02777 16.11 7.078C16.1111 7.09647 16.1134 7.11484 16.117 7.133C16.2265 7.46468 16.3118 7.80391 16.372 8.148Z" fill="#454450"/>
    <path d="M14.148 10.372C13.8038 10.3124 13.4645 10.2272 13.133 10.117C13.1148 10.1141 13.0964 10.1124 13.078 10.112C13.0278 9.91183 13.0016 9.70639 13 9.50001C13.0016 9.2943 13.0278 9.08951 13.078 8.89001C13.0965 8.88858 13.1149 8.88591 13.133 8.88201C13.4649 8.7733 13.8041 8.68809 14.148 8.62701C14.0855 9.207 14.0855 9.79203 14.148 10.372Z" fill="#454450"/>
    <path d="M18.0001 9.50001C17.9985 9.70672 17.9723 9.91251 17.9221 10.113C17.9036 10.1134 17.8853 10.1151 17.8671 10.118C17.535 10.2261 17.1959 10.311 16.8521 10.372C16.9171 9.79216 16.9171 9.20686 16.8521 8.62701C17.1962 8.6869 17.5355 8.77214 17.8671 8.88201C17.8849 8.88713 17.9034 8.88982 17.9221 8.89001C17.9721 9.08955 17.9983 9.29431 18.0001 9.50001Z" fill="#454450"/>
    <path d="M16.372 10.852C16.3124 11.1962 16.2271 11.5355 16.117 11.867C16.1131 11.8851 16.1104 11.9035 16.109 11.922C15.9095 11.9722 15.7047 11.9984 15.499 12C15.2926 11.9984 15.0871 11.9722 14.887 11.922C14.8865 11.9036 14.8849 11.8852 14.882 11.867C14.7732 11.5351 14.688 11.1959 14.627 10.852C14.9167 10.8866 15.2082 10.905 15.5 10.907C15.7914 10.905 16.0825 10.8866 16.372 10.852Z" fill="#454450"/>
    <path d="M16.4412 10.4412C15.8163 10.5201 15.184 10.5201 14.5592 10.4412C14.4803 9.81634 14.4803 9.18404 14.5592 8.55919C15.184 8.48027 15.8163 8.48027 16.4412 8.55919C16.5201 9.18404 16.5201 9.81634 16.4412 10.4412Z" fill="#454450"/>
  </g>
  <defs>
    <clipPath id="clip0_6808_92549">
      <rect width="26" height="14" fill="white"/>
    </clipPath>
  </defs>
</svg>
