<svg width="18" height="18" viewBox="0 0 18 18" fill="none"
  xmlns="http://www.w3.org/2000/svg">
  <path d="M8.2 13H5C3.89333 13 2.95 12.61 2.17 11.83C1.39 11.05 1 10.1067 1 9C1 7.89333 1.39 6.95 2.17 6.17C2.95 5.39 3.89333 5 5 5H8.2V6.6H5C4.33333 6.6 3.76667 6.83333 3.3 7.3C2.83333 7.76667 2.6 8.33333 2.6 9C2.6 9.66667 2.83333 10.2333 3.3 10.7C3.76667 11.1667 4.33333 11.4 5 11.4H8.2V13ZM5.8 9.8V8.2H12.2V9.8H5.8ZM9.8 13V11.4H13C13.6667 11.4 14.2333 11.1667 14.7 10.7C15.1667 10.2333 15.4 9.66667 15.4 9C15.4 8.33333 15.1667 7.76667 14.7 7.3C14.2333 6.83333 13.6667 6.6 13 6.6H9.8V5H13C14.1067 5 15.05 5.39 15.83 6.17C16.61 6.95 17 7.89333 17 9C17 10.1067 16.61 11.05 15.83 11.83C15.05 12.61 14.1067 13 13 13H9.8Z" fill="currentColor"/>
</svg>
