<svg width="20" height="20" viewBox="0 0 18 18" fill="none"
  xmlns="http://www.w3.org/2000/svg">
  <path d="M8.5 15.5C6.68542 15.5 5.14844 14.8703 3.88906 13.6109C2.62969 12.3516 2 10.8146 2 9C2 7.18542 2.62969 5.64844 3.88906 4.38906C5.14844 3.12969 6.68542 2.5 8.5 2.5C9.43437 2.5 10.3281 2.69297 11.1812 3.07891C12.0344 3.46484 12.7656 4.01667 13.375 4.73438V2.5H15V8.1875H9.3125V6.5625H12.725C12.2917 5.80417 11.6992 5.20833 10.9477 4.775C10.1961 4.34167 9.38021 4.125 8.5 4.125C7.14583 4.125 5.99479 4.59896 5.04688 5.54688C4.09896 6.49479 3.625 7.64583 3.625 9C3.625 10.3542 4.09896 11.5052 5.04688 12.4531C5.99479 13.401 7.14583 13.875 8.5 13.875C9.54271 13.875 10.4839 13.5771 11.3234 12.9812C12.163 12.3854 12.7521 11.6 13.0906 10.625H14.7969C14.4177 12.0604 13.6458 13.2318 12.4812 14.1391C11.3167 15.0464 9.98958 15.5 8.5 15.5Z" fill="currentColor"/>
</svg>
