<svg width="7" height="4" viewBox="0 0 7 4" fill="none" xmlns="http://www.w3.org/2000/svg">
<path d="M3.8225 3.74982C3.72873 3.84355 3.60158 3.89621 3.469 3.89621C3.33641 3.89621 3.20926 3.84355 3.1155 3.74982L0.322495 0.957817C0.252449 0.887947 0.204706 0.798868 0.185307 0.701853C0.165908 0.604837 0.175727 0.504248 0.213521 0.412816C0.251314 0.321383 0.315383 0.243218 0.397619 0.188214C0.479855 0.133209 0.57656 0.103837 0.675495 0.103817L6.2615 0.103817C6.36052 0.103639 6.45736 0.132868 6.53975 0.187796C6.62214 0.242725 6.68636 0.32088 6.72428 0.412353C6.7622 0.503827 6.7721 0.604499 6.75273 0.701607C6.73337 0.798716 6.6856 0.887887 6.6155 0.957817L3.8225 3.74982Z" />
</svg>
