<svg width="8" height="8" viewBox="0 0 8 8" fill="none" xmlns="http://www.w3.org/2000/svg">
<path d="M7.55539 4.44686H0.444606C0.326924 4.4461 0.214279 4.39901 0.131064 4.3158C0.0478486 4.23258 0.000761717 4.11994 0 4.00225C0.000761717 3.88457 0.0478486 3.77193 0.131064 3.68871C0.214279 3.6055 0.326924 3.55841 0.444606 3.55765H7.55539C7.67308 3.55841 7.78572 3.6055 7.86894 3.68871C7.95215 3.77193 7.99924 3.88457 8 4.00225C7.99924 4.11994 7.95215 4.23258 7.86894 4.3158C7.78572 4.39901 7.67308 4.4461 7.55539 4.44686Z" fill="#3BC6FE"/>
<path d="M4.00125 8.00567C3.88273 8.0049 3.76936 7.95715 3.686 7.87289C3.60265 7.78862 3.55613 7.67474 3.55664 7.55622V0.44543C3.55741 0.327748 3.60449 0.215103 3.68771 0.131888C3.77092 0.0486725 3.88357 0.00158569 4.00125 0.000823975C4.11893 0.00158569 4.23158 0.0486725 4.31479 0.131888C4.39801 0.215103 4.44509 0.327748 4.44586 0.44543V7.55622C4.44637 7.67474 4.39985 7.78862 4.3165 7.87289C4.23314 7.95715 4.11977 8.0049 4.00125 8.00567Z" fill="#3BC6FE"/>
</svg>
