<svg width="11" height="11" viewBox="0 0 11 11" fill="none" xmlns="http://www.w3.org/2000/svg">
<g clip-path="url(#clip0_1349_48126)">
<path d="M8.24701 3.66501H7.78901V2.74901C7.78901 2.44815 7.72975 2.15024 7.61462 1.87228C7.49948 1.59432 7.33073 1.34177 7.11799 1.12903C6.90525 0.916287 6.65269 0.747533 6.37474 0.6324C6.09678 0.517266 5.79887 0.458008 5.49801 0.458008C5.19715 0.458008 4.89924 0.517266 4.62128 0.6324C4.34332 0.747533 4.09076 0.916287 3.87803 1.12903C3.66529 1.34177 3.49653 1.59432 3.3814 1.87228C3.26627 2.15024 3.20701 2.44815 3.20701 2.74901V3.66501H2.74901C2.50614 3.6658 2.27346 3.7627 2.10182 3.93453C1.93018 4.10635 1.83354 4.33914 1.83301 4.58201V9.16301C1.8338 9.4057 1.93056 9.63823 2.10217 9.80984C2.27378 9.98146 2.50631 10.0782 2.74901 10.079H8.24901C8.4917 10.0782 8.72423 9.98146 8.89584 9.80984C9.06746 9.63823 9.16422 9.4057 9.16501 9.16301V4.58201C9.16448 4.33879 9.06756 4.10571 8.89549 3.93382C8.72341 3.76194 8.49022 3.66527 8.24701 3.66501ZM5.49801 7.78901C5.31684 7.78901 5.13974 7.73529 4.98911 7.63463C4.83847 7.53398 4.72106 7.39092 4.65173 7.22355C4.5824 7.05617 4.56426 6.87199 4.59961 6.6943C4.63495 6.51662 4.72219 6.3534 4.8503 6.2253C4.9784 6.09719 5.14162 6.00995 5.3193 5.97461C5.49699 5.93926 5.68117 5.9574 5.84855 6.02673C6.01592 6.09606 6.15898 6.21347 6.25963 6.36411C6.36029 6.51474 6.41401 6.69184 6.41401 6.87301C6.41322 7.1157 6.31646 7.34823 6.14484 7.51984C5.97323 7.69146 5.7407 7.78822 5.49801 7.78901ZM6.91801 3.66501H4.07801V2.74901C4.07801 2.37227 4.22767 2.01096 4.49406 1.74456C4.76046 1.47817 5.12177 1.32851 5.49851 1.32851C5.87525 1.32851 6.23656 1.47817 6.50295 1.74456C6.76935 2.01096 6.91901 2.37227 6.91901 2.74901L6.91801 3.66501Z" fill="#50585D"/>
</g>
<defs>
<clipPath id="clip0_1349_48126">
<rect width="10.996" height="10.996" fill="white"/>
</clipPath>
</defs>
</svg>
