<svg width="11" height="11" viewBox="0 0 11 11" fill="none" xmlns="http://www.w3.org/2000/svg">
<path d="M9.625 9.98204L1.934 2.29104L1.375 2.85104L2.31 3.78604C2.16573 3.86397 2.04522 3.97947 1.96125 4.12031C1.87728 4.26114 1.83296 4.42207 1.833 4.58604V9.16604C1.83353 9.40908 1.93031 9.64202 2.10217 9.81388C2.27402 9.98573 2.50696 10.0825 2.75 10.083H8.25C8.3523 10.0809 8.45359 10.0623 8.55 10.028L9.063 10.541L9.625 9.98204ZM4.075 2.75004C4.075 2.37317 4.22471 2.01173 4.4912 1.74524C4.75769 1.47875 5.11913 1.32904 5.496 1.32904C5.87287 1.32904 6.23431 1.47875 6.5008 1.74524C6.76729 2.01173 6.917 2.37317 6.917 2.75004V3.66704H4.428L9.167 8.40604V4.58304C9.16647 4.34 9.06969 4.10706 8.89783 3.93521C8.72598 3.76335 8.49304 3.66657 8.25 3.66604H7.792V2.75004C7.79329 2.16673 7.57154 1.60499 7.17217 1.17983C6.77279 0.754683 6.22599 0.498285 5.64374 0.46314C5.06148 0.427996 4.48782 0.616762 4.0402 0.990789C3.59258 1.36482 3.30488 1.89581 3.236 2.47504L4.075 3.31804V2.75004Z" fill="#50585D"/>
</svg>
