<svg width="311" height="270" viewBox="0 0 311 270" fill="none" xmlns="http://www.w3.org/2000/svg">
<path d="M117.544 117.775L116.582 117.506L73.637 105.5L72.6743 105.231L72.9431 104.268C74.5418 98.5414 76.7049 92.9468 79.3724 87.6397C82.4951 81.4268 86.3313 75.5507 90.7745 70.1748C95.1909 64.8301 100.214 59.9716 105.705 55.7343L106.497 55.1229L107.108 55.9157L134.327 91.2423L134.936 92.0335L134.146 92.6441C131.9 94.3792 129.799 96.3334 127.902 98.4522C124.183 102.607 121.275 107.332 119.258 112.495C118.707 113.907 118.221 115.36 117.814 116.813L117.544 117.775Z" fill="#C36EFF"/>
<path d="M116.851 116.543C117.269 115.053 117.761 113.582 118.327 112.131C120.387 106.856 123.359 102.029 127.157 97.7852C129.097 95.6181 131.243 93.6227 133.535 91.8527L106.316 56.526C100.886 60.7167 95.9158 65.5228 91.5454 70.8119C87.1501 76.1298 83.355 81.9428 80.2659 88.0888C77.6214 93.3503 75.4884 98.8695 73.9063 104.537L116.851 116.543ZM118.238 119.008L71.4424 105.925L71.98 103.999C73.596 98.2104 75.7826 92.5553 78.479 87.1907C81.6353 80.9107 85.5128 74.9714 90.0037 69.5377C94.4674 64.1358 99.5445 59.2253 105.094 54.9427L106.678 53.7198L136.338 92.2144L134.757 93.4355C132.559 95.1335 130.503 97.0457 128.647 99.1192C125.008 103.184 122.163 107.807 120.19 112.859C119.651 114.24 119.175 115.662 118.777 117.083L118.238 119.008Z" fill="white"/>
<path d="M115.112 130.266L70.5371 130.266H69.5371V129.266C69.5371 121.921 70.3978 114.61 72.0953 107.537C72.3563 106.449 72.6416 105.349 72.9432 104.268L73.2122 103.305L74.1757 103.574L117.12 115.58L116.867 116.487L117.829 116.758C116.69 120.804 116.112 125.012 116.112 129.265V130.265L115.112 130.266Z" fill="#E5BFFF"/>
<path d="M115.112 129.266V129.265C115.112 124.918 115.703 120.619 116.867 116.487L116.851 116.543L73.9064 104.537C73.608 105.606 73.3258 106.694 73.0677 107.77C71.3888 114.766 70.5371 121.998 70.5371 129.266L115.112 129.266ZM115.112 131.266L68.5371 131.266V129.266C68.5371 121.842 69.4071 114.453 71.1229 107.304C71.3867 106.204 71.6751 105.092 71.9801 103.999L72.518 102.072L117.39 114.617L116.867 116.486L118.792 117.029C117.678 120.987 117.112 125.104 117.112 129.265V131.265L115.112 131.266Z" fill="white"/>
<path d="M144.258 85.623L127.171 44.428C132.621 42.1664 138.277 40.438 144.061 39.267C150.019 38.0658 156.082 37.4549 162.16 37.443L162.36 37.443V82.018H162.352C156.142 82.0066 149.991 83.2303 144.258 85.618V85.623Z" fill="#B0E27C" stroke="white" stroke-width="2"/>
<path d="M97.4319 195.611L96.7248 194.904C92.5245 190.704 88.7112 186.082 85.3907 181.167C82.0381 176.204 79.1586 170.899 76.8321 165.399C74.4625 159.796 72.6426 153.934 71.423 147.973C70.1716 141.858 69.5371 135.564 69.5371 129.267V128.267H70.5371H115.112H116.112V129.267C116.112 135.5 117.337 141.551 119.752 147.251C122.085 152.756 125.423 157.703 129.674 161.955L130.381 162.662L129.674 163.369L98.139 194.904L97.4319 195.611Z" fill="#694CC9"/>
<path d="M70.5371 129.267C70.5371 154.624 80.8149 177.58 97.4319 194.197L128.967 162.662C120.411 154.106 115.112 142.294 115.112 129.267H70.5371ZM68.5371 127.267H117.112V129.267C117.112 135.365 118.31 141.285 120.673 146.861C122.955 152.247 126.221 157.088 130.381 161.248L131.795 162.662L97.4319 197.025L96.0177 195.611C91.7724 191.366 87.9182 186.694 84.562 181.727C81.1734 176.711 78.2628 171.348 75.9111 165.788C73.5158 160.125 71.6762 154.199 70.4433 148.174C69.1784 141.993 68.5371 135.632 68.5371 129.267V127.267Z" fill="white"/>
<path d="M129.216 216.037L128.302 215.644L128.301 215.644L128.289 215.638C127.608 215.371 126.912 215.087 126.219 214.793C120.717 212.465 115.411 209.584 110.448 206.23C105.533 202.907 100.91 199.091 96.7098 194.888L96.0029 194.181L96.7101 193.474L128.252 161.947L128.959 161.24L129.666 161.947C132.088 164.37 134.78 166.527 137.667 168.358C140.572 170.2 143.683 171.716 146.913 172.864L147.925 173.224L147.495 174.207L129.614 215.126L129.216 216.037Z" fill="#A2EDEF"/>
<path d="M128.698 214.726L146.579 173.807C143.278 172.634 140.1 171.084 137.131 169.202C134.181 167.332 131.432 165.129 128.959 162.654L97.4172 194.182C101.573 198.339 106.146 202.114 111.008 205.401C115.918 208.72 121.167 211.57 126.609 213.872C127.297 214.164 128 214.451 128.696 214.724L128.696 214.725L128.698 214.726ZM129.734 217.349L127.908 216.563C127.224 216.294 126.525 216.009 125.829 215.714C120.268 213.361 114.905 210.449 109.888 207.058C104.92 203.7 100.248 199.843 96.0026 195.595L94.5889 194.181L128.96 159.826L130.374 161.24C132.744 163.611 135.378 165.722 138.202 167.513C141.045 169.316 144.089 170.799 147.248 171.922L149.271 172.641L129.734 217.349Z" fill="white"/>
<path d="M162.361 222.092C150.357 222.092 138.676 219.835 127.643 215.382L126.722 215.011L127.087 214.087L143.479 172.607L143.852 171.664L144.79 172.05C150.371 174.351 156.282 175.517 162.361 175.517C167.269 175.517 172.103 174.749 176.729 173.233C181.204 171.767 185.421 169.625 189.266 166.867L190.067 166.291L190.653 167.085L217.146 202.964L217.744 203.774L216.93 204.367C209.167 210.017 200.628 214.405 191.549 217.41C182.162 220.517 172.342 222.092 162.361 222.092Z" fill="#54DEE2"/>
<path d="M162.361 221.092C182.535 221.092 201.19 214.586 216.341 203.559L189.849 167.679C182.1 173.24 172.606 176.517 162.361 176.517C156.009 176.517 149.946 175.257 144.409 172.975L128.017 214.455C138.626 218.736 150.217 221.092 162.361 221.092ZM162.361 223.092C150.228 223.092 138.421 220.81 127.269 216.309L125.427 215.566L143.295 170.352L145.171 171.126C150.63 173.376 156.414 174.517 162.361 174.517C167.163 174.517 171.893 173.765 176.418 172.283C180.795 170.849 184.921 168.753 188.683 166.054L190.286 164.904L219.146 203.991L217.518 205.176C209.672 210.886 201.04 215.322 191.863 218.36C182.374 221.5 172.449 223.092 162.361 223.092Z" fill="white"/>
<path d="M216.567 204.635L215.973 203.829L189.544 167.905L188.952 167.101L189.755 166.508C193.712 163.589 197.167 160.081 200.023 156.081C202.328 152.853 204.207 149.349 205.608 145.666L205.963 144.732L206.897 145.086L247.656 160.541C247.894 159.892 248.125 159.24 248.346 158.592L250.239 159.237C247.293 167.881 243.079 176.038 237.715 183.481C232.036 191.361 225.192 198.278 217.372 204.041L216.567 204.635Z" fill="#56A0D5"/>
<path d="M216.778 203.236L216.779 203.236C224.515 197.535 231.286 190.692 236.904 182.896C242.209 175.535 246.377 167.467 249.292 158.915C248.958 159.895 248.604 160.877 248.242 161.833L206.542 146.021C205.111 149.784 203.192 153.365 200.837 156.662C197.919 160.749 194.39 164.332 190.349 167.313L216.778 203.236ZM216.354 206.033L215.167 204.422L187.554 166.889L189.162 165.703C193.034 162.847 196.414 159.414 199.209 155.5C201.465 152.342 203.303 148.913 204.673 145.31L205.383 143.442L247.06 159.246C247.175 158.92 247.289 158.594 247.399 158.269L251.185 159.56C248.207 168.298 243.948 176.542 238.526 184.065C232.786 192.03 225.869 199.021 217.966 204.846L216.354 206.033Z" fill="white"/>
<path d="M248.633 163.604L247.701 163.244L206.089 147.199L205.155 146.839L205.517 145.906C207.57 140.599 208.611 135 208.611 129.267V128.267H209.611H254.186H255.186V129.267C255.186 140.783 253.103 152.022 248.993 162.671L248.633 163.604Z" fill="#9DD1F7"/>
<path d="M248.06 162.311C252.017 152.057 254.186 140.916 254.186 129.267H209.611C209.611 135.257 208.491 140.989 206.449 146.266L248.06 162.311ZM249.206 164.896L203.861 147.412L204.584 145.545C206.592 140.353 207.611 134.877 207.611 129.267V127.267H256.186V129.267C256.186 140.907 254.08 152.267 249.926 163.031L249.206 164.896Z" fill="white"/>
<path d="M162.362 250.619C160.798 250.619 159.21 250.589 157.64 250.529L157.677 248.53L167.278 248.521L167.319 250.52C165.676 250.586 164.008 250.619 162.362 250.619ZM221.604 202.986L220.967 202.243L220.966 202.241L220.301 201.466L221.09 200.818C223.016 199.234 224.898 197.556 226.685 195.829C230.248 192.384 233.564 188.622 236.539 184.649L238.141 185.847C233.572 191.955 228.263 197.513 222.361 202.364L221.604 202.986ZM252.67 157.514L251.706 157.214L251.705 157.213L250.758 156.919L251.045 155.97C251.277 155.2 251.502 154.418 251.713 153.646L253.643 154.171C253.434 154.942 253.204 155.742 252.961 156.548L252.67 157.514ZM68.754 130.267H68.7531H42.0093H41.0093V129.267C41.0093 119.667 42.1342 110.11 44.3527 100.861C46.5089 91.8716 49.7094 83.1206 53.8652 74.851C57.9468 66.7291 62.9608 59.0472 68.7683 52.0187C74.5433 45.0296 81.1095 38.678 88.2845 33.1404L89.0767 32.5289L89.6876 33.3216L106.039 54.5395L106.648 55.3308L105.858 55.9414C100.38 60.1718 95.3669 65.0223 90.9567 70.3583C86.5218 75.7242 82.6924 81.5866 79.5747 87.783C76.4004 94.0919 73.9558 100.765 72.3087 107.617C70.6136 114.668 69.7541 121.952 69.754 129.266L69.7539 130.266L68.754 130.267Z" fill="#A831FC"/>
<path d="M162.362 249.619C163.98 249.619 165.634 249.587 167.279 249.521L157.678 249.53C159.236 249.589 160.812 249.619 162.362 249.619ZM221.726 201.592C227.564 196.793 232.818 191.294 237.34 185.248C234.333 189.264 230.982 193.066 227.38 196.548C225.575 198.293 223.672 199.99 221.725 201.591L221.726 201.592ZM252.004 156.259C252.238 155.482 252.466 154.692 252.678 153.91C252.464 154.691 252.237 155.481 252.002 156.259L252.004 156.259ZM68.754 129.267V129.266C68.7541 121.874 69.6229 114.511 71.3364 107.383C73.0014 100.457 75.4727 93.7109 78.6814 87.3335C81.8327 81.0704 85.7033 75.1448 90.1859 69.7213C94.6442 64.327 99.7113 59.4249 105.246 55.1499L88.8955 33.932C81.7792 39.4243 75.2668 45.7239 69.5392 52.6557C63.7795 59.6264 58.8067 67.245 54.7588 75.3C50.6374 83.5012 47.4635 92.1796 45.3252 101.094C43.1252 110.266 42.0093 119.744 42.0093 129.267H68.754ZM162.362 251.619C160.786 251.619 159.185 251.589 157.602 251.528L157.676 247.53L167.277 247.521L167.36 251.519C165.703 251.586 164.021 251.619 162.362 251.619ZM221.493 204.372L218.867 201.351L220.455 200.046C222.36 198.479 224.222 196.818 225.99 195.11C229.515 191.702 232.795 187.98 235.739 184.049L238.941 186.446C234.325 192.619 228.96 198.234 222.996 203.137L221.493 204.372ZM253.336 158.767L249.514 157.581L250.087 155.681C250.317 154.919 250.54 154.146 250.748 153.382L254.608 154.433C254.397 155.213 254.165 156.022 253.918 156.837L253.336 158.767ZM68.754 131.267H40.0093V129.267C40.0093 119.589 41.1435 109.953 43.3803 100.628C45.5545 91.5637 48.7815 82.7401 52.9717 74.402C57.087 66.213 62.1423 58.4679 67.9974 51.3818C73.8196 44.3355 80.4396 37.9318 87.6735 32.3487L89.2579 31.1259L108.05 55.5116L106.469 56.7328C101.05 60.9179 96.0905 65.7165 91.7275 70.9954C87.3403 76.3035 83.5521 82.1029 80.468 88.2324C77.3282 94.4728 74.9102 101.073 73.281 107.851C71.6043 114.826 70.7541 122.031 70.754 129.266L70.754 131.266L68.754 131.267Z" fill="white"/>
<path d="M106.13 56.5536L105.519 55.7606L89.1676 34.5422L88.5576 33.7507L89.3487 33.1402C99.7393 25.1213 111.268 18.8823 123.614 14.5965C136.386 10.163 149.781 7.91498 163.426 7.91498H164.426V8.91498V35.6597V36.6597H163.426C153.029 36.6597 142.816 38.3787 133.072 41.7691C123.654 45.0457 114.856 49.8141 106.922 55.9417L106.13 56.5536Z" fill="#97CC60"/>
<path d="M106.311 55.1502C122.126 42.9359 141.944 35.6597 163.426 35.6597V8.91498C135.766 8.91498 110.285 18.2459 89.9599 33.9318L106.311 55.1502ZM105.949 57.9569L87.1558 33.5696L88.738 32.3485C99.2141 24.2636 110.838 17.9731 123.286 13.6518C136.164 9.18156 149.669 6.91498 163.426 6.91498H165.426V37.6597H163.426C153.141 37.6597 143.039 39.36 133.4 42.7135C124.085 45.9547 115.382 50.6715 107.533 56.7331L105.949 57.9569Z" fill="white"/>
<path d="M77.2596 215.783L76.5525 215.076C71.0613 209.585 66.0759 203.543 61.7349 197.117C57.352 190.63 53.5876 183.694 50.5461 176.503C47.4483 169.179 45.0692 161.515 43.4747 153.723C41.8388 145.728 41.0093 137.5 41.0093 129.267V128.267H42.0093H68.754H69.754V129.267C69.754 135.54 70.3881 141.812 71.6388 147.907C72.8573 153.847 74.6755 159.691 77.0426 165.278C79.3666 170.763 82.2427 176.055 85.591 181.007C88.9075 185.912 92.7155 190.526 96.9093 194.719L97.6164 195.426L96.9093 196.134L77.9667 215.076L77.2596 215.783Z" fill="#694CC9"/>
<path d="M42.0093 129.267C42.0093 162.501 55.4801 192.59 77.2596 214.369L96.2022 195.426C79.2521 178.476 68.754 155.075 68.754 129.267H42.0093ZM40.0093 127.267H70.754V129.267C70.754 135.473 71.3813 141.677 72.6184 147.706C73.8237 153.581 75.622 159.362 77.9633 164.888C80.2622 170.314 83.1072 175.549 86.4194 180.447C89.7003 185.299 93.4675 189.863 97.6164 194.012L99.0306 195.426L77.2596 217.197L75.8454 215.783C70.3092 210.247 65.2829 204.155 60.9063 197.677C56.4873 191.136 52.6917 184.143 49.6251 176.893C46.5016 169.508 44.1027 161.78 42.495 153.923C40.8456 145.863 40.0093 137.567 40.0093 129.267V127.267Z" fill="white"/>
<path d="M254.186 130.268H209.611H208.611V129.268C208.611 124.273 207.816 119.358 206.248 114.659C205.089 111.188 203.513 107.853 201.562 104.748L201.031 103.902L201.877 103.37L239.634 79.6334L240.481 79.1012L241.013 79.9477C241.911 81.3757 242.781 82.8477 243.599 84.3227C247.333 91.0573 250.214 98.2414 252.161 105.675C254.168 113.336 255.186 121.273 255.186 129.267L255.186 130.267L254.186 130.268Z" fill="#53DEFF"/>
<path d="M254.186 129.268V129.267C254.186 121.358 253.179 113.506 251.194 105.929C249.267 98.5756 246.418 91.4693 242.724 84.8076C241.918 83.3532 241.058 81.8972 240.167 80.48L202.409 104.216C204.402 107.389 206.012 110.796 207.196 114.343C208.799 119.145 209.611 124.166 209.611 129.268H254.186ZM254.186 131.268H207.611V129.268C207.611 124.381 206.833 119.572 205.299 114.976C204.166 111.58 202.624 108.318 200.716 105.28L199.652 103.587L240.795 77.7224L241.86 79.4155C242.767 80.8589 243.647 82.3468 244.473 83.8378C248.248 90.6453 251.16 97.9073 253.129 105.422C255.157 113.165 256.186 121.187 256.186 129.267L256.186 131.267L254.186 131.268Z" fill="white"/>
<path d="M202.095 105.596L201.563 104.75L201.562 104.748L201.39 104.474C199.645 101.739 197.606 99.1784 195.327 96.8608C192.973 94.4664 190.356 92.3244 187.549 90.4945L186.712 89.9492L187.256 89.112L211.553 51.7132L212.098 50.8738L212.937 51.42C218.562 55.0815 223.805 59.3674 228.52 64.1586C233.238 68.9519 237.441 74.2641 241.013 79.9477L241.545 80.7942L240.699 81.3263L202.942 105.064L202.095 105.596Z" fill="#B7F1FF"/>
<path d="M202.41 104.217L240.167 80.4798C236.633 74.8572 232.475 69.602 227.808 64.8601C223.144 60.1212 217.957 55.8812 212.392 52.258L188.095 89.6568C190.963 91.5261 193.636 93.714 196.041 96.1597C198.446 98.6065 200.589 101.317 202.409 104.215L202.409 104.216L202.41 104.217ZM201.781 106.975L200.546 105.01C198.838 102.334 196.844 99.8293 194.615 97.5619C192.311 95.2188 189.75 93.1229 187.003 91.3322L185.33 90.2417L211.805 49.4897L213.483 50.5819C219.168 54.2828 224.467 58.6146 229.233 63.4572C234.002 68.3018 238.25 73.6709 241.86 79.4156L242.924 81.1086L201.781 106.975Z" fill="white"/>
<path d="M188.388 91.0413L187.549 90.4944C180.045 85.6035 171.335 83.0183 162.361 83.0183H161.361V82.0183V37.443V36.443H162.361C180.398 36.443 197.887 41.6216 212.938 51.4191L213.775 51.9641L213.231 52.8019L188.933 90.2014L188.388 91.0413Z" fill="#8EE9FF"/>
<path d="M188.095 89.6567L212.392 52.2572C197.999 42.8878 180.815 37.443 162.361 37.443V82.0183C171.845 82.0183 180.686 84.8276 188.095 89.6567ZM188.68 92.4259L187.002 91.3321C179.662 86.5474 171.141 84.0183 162.361 84.0183H160.361V35.443H162.361C180.592 35.443 198.27 40.6776 213.483 50.581L215.158 51.6711L188.68 92.4259Z" fill="white"/>
<path d="M158.157 250.529L158.138 250.528C150.362 250.228 142.604 249.18 135.078 247.415C127.729 245.691 120.503 243.259 113.603 240.187C106.818 237.167 100.268 233.493 94.136 229.267C88.0571 225.079 82.3242 220.304 77.0968 215.077L76.3896 214.37L77.0968 213.662L96.0393 194.72L96.7464 194.013L97.4535 194.72C101.647 198.914 106.261 202.722 111.166 206.038C116.118 209.386 121.41 212.263 126.895 214.587C132.482 216.954 138.326 218.772 144.266 219.99C150.361 221.241 156.633 221.875 162.906 221.875C172.996 221.875 182.922 220.254 192.408 217.058C201.58 213.967 210.191 209.459 218.001 203.66L218.817 203.054L219.41 203.88L235.036 225.64L235.612 226.442L234.817 227.028C225.262 234.068 214.773 239.649 203.64 243.615C192.162 247.704 180.126 250.028 167.869 250.52L167.849 250.521L167.83 250.521L158.177 250.529L158.157 250.529Z" fill="#32C0C4"/>
<path d="M96.7466 195.427L77.804 214.37C98.5466 235.112 126.821 248.318 158.176 249.529L167.829 249.521C192.632 248.524 215.496 240.023 234.224 226.223L218.598 204.463C203.025 216.026 183.749 222.875 162.906 222.875C137.099 222.875 113.697 212.377 96.7466 195.427ZM96.7466 192.599L98.1608 194.013C102.31 198.162 106.874 201.929 111.726 205.21C116.624 208.522 121.859 211.367 127.285 213.666C132.811 216.007 138.592 217.806 144.467 219.011C150.496 220.248 156.7 220.875 162.906 220.875C172.887 220.875 182.706 219.272 192.089 216.11C201.161 213.053 209.679 208.594 217.405 202.857L219.037 201.646L237.001 226.661L235.41 227.833C225.777 234.931 215.201 240.558 203.976 244.557C192.402 248.68 180.268 251.023 167.909 251.519L167.831 251.521L158.139 251.529L158.099 251.527C150.26 251.225 142.437 250.169 134.85 248.388C127.439 246.65 120.154 244.198 113.197 241.101C106.356 238.055 99.7518 234.351 93.5688 230.091C87.44 225.868 81.6601 221.054 76.3898 215.784L74.9756 214.37L96.7466 192.599Z" fill="white"/>
<path d="M233.39 227.677L232.797 226.87L216.942 205.279L216.351 204.475L217.155 203.882C222.872 199.673 228.113 194.802 232.733 189.404C237.374 183.981 241.386 178.028 244.657 171.712C247.987 165.282 250.553 158.466 252.283 151.453C254.065 144.232 254.969 136.767 254.969 129.267V128.267H255.969H282.713H283.713V129.267C283.713 139.112 282.531 148.906 280.199 158.377C277.933 167.577 274.574 176.515 270.214 184.944C265.932 193.223 260.678 201.022 254.6 208.125C248.551 215.195 241.686 221.574 234.196 227.084L233.39 227.677Z" fill="#1677BC"/>
<path d="M233.603 226.278C263.384 204.369 282.713 169.074 282.713 129.267H255.969C255.969 160.175 240.913 187.631 217.748 204.688L233.603 226.278ZM233.176 229.075L214.954 204.261L216.562 203.077C222.218 198.913 227.403 194.094 231.973 188.753C236.565 183.389 240.533 177.5 243.769 171.252C247.063 164.892 249.601 158.15 251.313 151.213C253.075 144.07 253.969 136.687 253.969 129.267V127.267H284.713V129.267C284.713 139.192 283.521 149.067 281.17 158.616C278.886 167.892 275.499 176.905 271.103 185.403C266.785 193.751 261.488 201.614 255.36 208.776C249.261 215.903 242.34 222.334 234.789 227.889L233.176 229.075Z" fill="white"/>
<path d="M283.713 130.267H282.713H255.969H254.969V129.267C254.969 78.2033 213.425 36.6597 162.361 36.6597H161.361V35.6597V8.91498V7.91498H162.361C170.594 7.91498 178.822 8.74446 186.817 10.3804C194.609 11.9749 202.273 14.354 209.597 17.4518C216.788 20.4933 223.723 24.2577 230.211 28.6406C236.637 32.9816 242.679 37.967 248.17 43.4582C253.661 48.9494 258.647 54.9917 262.988 61.4173C267.37 67.9048 271.135 74.8403 274.176 82.0311C277.274 89.3551 279.653 97.0196 281.248 104.812C282.884 112.806 283.713 121.034 283.713 129.267V130.267Z" fill="#00CEFF"/>
<path d="M282.713 129.267C282.713 62.7983 228.83 8.91498 162.361 8.91498V35.6597C213.976 35.6597 255.969 77.6522 255.969 129.267H282.713ZM284.713 131.267H253.969V129.267C253.969 78.7547 212.873 37.6597 162.361 37.6597H160.361V6.91498H162.361C170.661 6.91498 178.957 7.75129 187.017 9.40071C194.874 11.0084 202.602 13.4073 209.987 16.5308C217.237 19.5974 224.23 23.393 230.771 27.812C237.249 32.1886 243.341 37.2149 248.877 42.7511C254.413 48.2873 259.44 54.3791 263.816 60.8575C268.235 67.3985 272.031 74.3913 275.097 81.6416C278.221 89.0264 280.62 96.7545 282.227 104.611C283.877 112.672 284.713 120.967 284.713 129.267V131.267Z" fill="white"/>
<path d="M106.315 56.528C112.705 51.5946 119.718 47.5261 127.172 44.428L144.259 85.623C140.426 87.22 136.82 89.3151 133.535 91.854L106.315 56.528Z" fill="#D6F2B9" stroke="white" stroke-width="2"/>
<path d="M256.615 42.877H257.2V42.139C258.415 42.031 259.081 41.185 259.081 40.312C259.081 39.043 258.1 38.8 257.2 38.584V36.64C257.632 36.748 257.884 37.081 257.92 37.441H259.018C258.937 36.424 258.235 35.857 257.2 35.767V35.038H256.615V35.776C255.499 35.875 254.725 36.568 254.725 37.576C254.725 38.845 255.715 39.097 256.615 39.322V41.302C256.111 41.212 255.859 40.879 255.823 40.429H254.725C254.725 41.446 255.517 42.049 256.615 42.148V42.877ZM258.046 40.366C258.046 40.834 257.74 41.212 257.2 41.302V39.475C257.686 39.628 258.046 39.853 258.046 40.366ZM255.769 37.522C255.769 36.973 256.12 36.676 256.615 36.613V38.431C256.129 38.278 255.769 38.044 255.769 37.522ZM260.498 42.004H264.872V41.149H262.019C263.072 40.186 264.692 38.971 264.692 37.378C264.692 36.199 263.936 35.398 262.604 35.398C261.443 35.398 260.525 36.091 260.489 37.513H261.479C261.506 36.775 261.893 36.271 262.613 36.271C263.378 36.271 263.675 36.739 263.675 37.423C263.675 38.71 262.046 39.898 260.498 41.257V42.004ZM266.106 40.312C266.187 41.248 266.817 42.085 268.176 42.085C269.895 42.085 270.363 40.906 270.363 38.692C270.363 36.541 269.796 35.38 268.104 35.38C266.727 35.38 265.926 36.244 265.926 37.549C265.926 38.935 266.862 39.646 268.014 39.646C268.608 39.646 269.175 39.421 269.472 39.007C269.472 40.681 269.058 41.23 268.239 41.23C267.555 41.23 267.168 40.897 267.051 40.312H266.106ZM268.194 38.782C267.285 38.782 266.907 38.197 266.907 37.522C266.907 36.766 267.366 36.235 268.131 36.235C268.878 36.235 269.355 36.712 269.355 37.549C269.355 38.287 268.923 38.782 268.194 38.782ZM270.991 43.345H271.657L272.746 40.861H271.63L270.991 43.345ZM274.614 38.665C273.957 38.908 273.516 39.493 273.516 40.285C273.516 41.482 274.488 42.256 275.838 42.256C277.197 42.256 278.169 41.482 278.169 40.285C278.169 39.502 277.728 38.917 277.062 38.665C277.593 38.404 277.998 37.891 277.998 37.189C277.998 36.244 277.287 35.416 275.838 35.416C274.389 35.416 273.678 36.235 273.678 37.189C273.678 37.918 274.056 38.386 274.614 38.665ZM275.838 38.341C275.154 38.341 274.668 37.918 274.668 37.324C274.668 36.631 275.136 36.271 275.838 36.271C276.558 36.271 277.017 36.64 277.017 37.315C277.017 37.909 276.522 38.341 275.838 38.341ZM275.838 39.115C276.612 39.115 277.161 39.511 277.161 40.249C277.161 40.906 276.666 41.401 275.838 41.401C275.001 41.401 274.497 40.915 274.497 40.249C274.497 39.484 275.082 39.115 275.838 39.115ZM279.58 40.312C279.661 41.248 280.291 42.085 281.65 42.085C283.369 42.085 283.837 40.906 283.837 38.692C283.837 36.541 283.27 35.38 281.578 35.38C280.201 35.38 279.4 36.244 279.4 37.549C279.4 38.935 280.336 39.646 281.488 39.646C282.082 39.646 282.649 39.421 282.946 39.007C282.946 40.681 282.532 41.23 281.713 41.23C281.029 41.23 280.642 40.897 280.525 40.312H279.58ZM281.668 38.782C280.759 38.782 280.381 38.197 280.381 37.522C280.381 36.766 280.84 36.235 281.605 36.235C282.352 36.235 282.829 36.712 282.829 37.549C282.829 38.287 282.397 38.782 281.668 38.782ZM284.779 35.56V36.433H288.109L285.58 42.094H286.615L289.117 36.325V35.56H284.779ZM291.193 41.5C291.193 41.131 290.905 40.843 290.545 40.843C290.176 40.843 289.888 41.131 289.888 41.5C289.888 41.869 290.176 42.157 290.545 42.157C290.905 42.157 291.193 41.869 291.193 41.5ZM292.085 42.004H296.459V41.149H293.606C294.659 40.186 296.279 38.971 296.279 37.378C296.279 36.199 295.523 35.398 294.191 35.398C293.03 35.398 292.112 36.091 292.076 37.513H293.066C293.093 36.775 293.48 36.271 294.2 36.271C294.965 36.271 295.262 36.739 295.262 37.423C295.262 38.71 293.633 39.898 292.085 41.257V42.004ZM297.631 35.515V39.304H298.603C298.774 38.818 299.179 38.485 299.782 38.485C300.637 38.485 301.06 38.971 301.06 39.826C301.06 40.636 300.664 41.239 299.782 41.239C299.089 41.239 298.621 40.879 298.486 40.321H297.487C297.64 41.347 298.423 42.094 299.773 42.094C301.294 42.094 302.041 41.104 302.041 39.799C302.041 38.809 301.546 37.612 299.935 37.612C299.35 37.612 298.819 37.882 298.576 38.206V36.415H301.591V35.515H297.631Z" fill="#50585D"/>
<path d="M264.43 205.783H265.015V205.045C266.23 204.937 266.896 204.091 266.896 203.218C266.896 201.949 265.915 201.706 265.015 201.49V199.546C265.447 199.654 265.699 199.987 265.735 200.347H266.833C266.752 199.33 266.05 198.763 265.015 198.673V197.944H264.43V198.682C263.314 198.781 262.54 199.474 262.54 200.482C262.54 201.751 263.53 202.003 264.43 202.228V204.208C263.926 204.118 263.674 203.785 263.638 203.335H262.54C262.54 204.352 263.332 204.955 264.43 205.054V205.783ZM265.861 203.272C265.861 203.74 265.555 204.118 265.015 204.208V202.381C265.501 202.534 265.861 202.759 265.861 203.272ZM263.584 200.428C263.584 199.879 263.935 199.582 264.43 199.519V201.337C263.944 201.184 263.584 200.95 263.584 200.428ZM269.096 205H270.131V198.439H268.259V199.375H269.096V205ZM276.013 199.96C275.905 199.087 275.266 198.277 273.988 198.277C272.35 198.277 271.666 199.519 271.666 201.571C271.666 203.659 272.161 205 274.069 205C275.473 205 276.22 204.055 276.22 202.813C276.22 201.445 275.383 200.653 274.204 200.653C273.52 200.653 272.872 200.941 272.548 201.481C272.575 199.762 273.052 199.132 273.979 199.132C274.627 199.132 274.942 199.429 275.068 199.96H276.013ZM273.979 201.517C274.843 201.517 275.239 202.075 275.239 202.858C275.239 203.632 274.771 204.145 274.015 204.145C273.142 204.145 272.665 203.605 272.665 202.795C272.665 201.922 273.304 201.517 273.979 201.517ZM276.819 206.251H277.485L278.574 203.767H277.458L276.819 206.251ZM279.669 203.218C279.75 204.154 280.38 204.991 281.739 204.991C283.458 204.991 283.926 203.812 283.926 201.598C283.926 199.447 283.359 198.286 281.667 198.286C280.29 198.286 279.489 199.15 279.489 200.455C279.489 201.841 280.425 202.552 281.577 202.552C282.171 202.552 282.738 202.327 283.035 201.913C283.035 203.587 282.621 204.136 281.802 204.136C281.118 204.136 280.731 203.803 280.614 203.218H279.669ZM281.757 201.688C280.848 201.688 280.47 201.103 280.47 200.428C280.47 199.672 280.929 199.141 281.694 199.141C282.441 199.141 282.918 199.618 282.918 200.455C282.918 201.193 282.486 201.688 281.757 201.688ZM286.156 201.571C285.499 201.814 285.058 202.399 285.058 203.191C285.058 204.388 286.03 205.162 287.38 205.162C288.739 205.162 289.711 204.388 289.711 203.191C289.711 202.408 289.27 201.823 288.604 201.571C289.135 201.31 289.54 200.797 289.54 200.095C289.54 199.15 288.829 198.322 287.38 198.322C285.931 198.322 285.22 199.141 285.22 200.095C285.22 200.824 285.598 201.292 286.156 201.571ZM287.38 201.247C286.696 201.247 286.21 200.824 286.21 200.23C286.21 199.537 286.678 199.177 287.38 199.177C288.1 199.177 288.559 199.546 288.559 200.221C288.559 200.815 288.064 201.247 287.38 201.247ZM287.38 202.021C288.154 202.021 288.703 202.417 288.703 203.155C288.703 203.812 288.208 204.307 287.38 204.307C286.543 204.307 286.039 203.821 286.039 203.155C286.039 202.39 286.624 202.021 287.38 202.021ZM290.77 200.059H291.769C291.832 199.6 292.165 199.168 292.885 199.168C293.587 199.168 293.956 199.546 293.956 200.113C293.956 200.815 293.389 201.085 292.462 201.094H292.219V201.94H292.453C293.524 201.94 294.082 202.237 294.082 203.101C294.082 203.713 293.704 204.181 292.939 204.181C292.165 204.181 291.715 203.713 291.67 203.101H290.68C290.743 204.388 291.706 205.036 292.948 205.036C294.316 205.036 295.054 204.244 295.054 203.2C295.054 202.291 294.613 201.724 293.929 201.517V201.481C294.442 201.31 294.937 200.779 294.937 199.996C294.937 199.042 294.226 198.286 292.921 198.286C291.724 198.286 290.842 198.925 290.77 200.059ZM297.329 204.406C297.329 204.037 297.041 203.749 296.681 203.749C296.312 203.749 296.024 204.037 296.024 204.406C296.024 204.775 296.312 205.063 296.681 205.063C297.041 205.063 297.329 204.775 297.329 204.406ZM298.123 198.466V199.339H301.453L298.924 205H299.959L302.461 199.231V198.466H298.123ZM303.321 200.059H304.32C304.383 199.6 304.716 199.168 305.436 199.168C306.138 199.168 306.507 199.546 306.507 200.113C306.507 200.815 305.94 201.085 305.013 201.094H304.77V201.94H305.004C306.075 201.94 306.633 202.237 306.633 203.101C306.633 203.713 306.255 204.181 305.49 204.181C304.716 204.181 304.266 203.713 304.221 203.101H303.231C303.294 204.388 304.257 205.036 305.499 205.036C306.867 205.036 307.605 204.244 307.605 203.2C307.605 202.291 307.164 201.724 306.48 201.517V201.481C306.993 201.31 307.488 200.779 307.488 199.996C307.488 199.042 306.777 198.286 305.472 198.286C304.275 198.286 303.393 198.925 303.321 200.059Z" fill="#50585D"/>
<path d="M138.43 264.783H139.015V264.045C140.23 263.937 140.896 263.091 140.896 262.218C140.896 260.949 139.915 260.706 139.015 260.49V258.546C139.447 258.654 139.699 258.987 139.735 259.347H140.833C140.752 258.33 140.05 257.763 139.015 257.673V256.944H138.43V257.682C137.314 257.781 136.54 258.474 136.54 259.482C136.54 260.751 137.53 261.003 138.43 261.228V263.208C137.926 263.118 137.674 262.785 137.638 262.335H136.54C136.54 263.352 137.332 263.955 138.43 264.054V264.783ZM139.861 262.272C139.861 262.74 139.555 263.118 139.015 263.208V261.381C139.501 261.534 139.861 261.759 139.861 262.272ZM137.584 259.428C137.584 258.879 137.935 258.582 138.43 258.519V260.337C137.944 260.184 137.584 259.95 137.584 259.428ZM142.313 263.91H146.687V263.055H143.834C144.887 262.092 146.507 260.877 146.507 259.284C146.507 258.105 145.751 257.304 144.419 257.304C143.258 257.304 142.34 257.997 142.304 259.419H143.294C143.321 258.681 143.708 258.177 144.428 258.177C145.193 258.177 145.49 258.645 145.49 259.329C145.49 260.616 143.861 261.804 142.313 263.163V263.91ZM148.695 260.571C148.038 260.814 147.597 261.399 147.597 262.191C147.597 263.388 148.569 264.162 149.919 264.162C151.278 264.162 152.25 263.388 152.25 262.191C152.25 261.408 151.809 260.823 151.143 260.571C151.674 260.31 152.079 259.797 152.079 259.095C152.079 258.15 151.368 257.322 149.919 257.322C148.47 257.322 147.759 258.141 147.759 259.095C147.759 259.824 148.137 260.292 148.695 260.571ZM149.919 260.247C149.235 260.247 148.749 259.824 148.749 259.23C148.749 258.537 149.217 258.177 149.919 258.177C150.639 258.177 151.098 258.546 151.098 259.221C151.098 259.815 150.603 260.247 149.919 260.247ZM149.919 261.021C150.693 261.021 151.242 261.417 151.242 262.155C151.242 262.812 150.747 263.307 149.919 263.307C149.082 263.307 148.578 262.821 148.578 262.155C148.578 261.39 149.163 261.021 149.919 261.021ZM152.832 265.251H153.498L154.587 262.767H153.471L152.832 265.251ZM156.051 264H157.086V257.439H155.214V258.375H156.051V264ZM161.627 264H162.635V262.632H163.472V261.741H162.635V257.52H161.393L158.369 261.858V262.632H161.627V264ZM159.548 261.741L161.672 258.564V261.741H159.548ZM164.655 262.218C164.736 263.154 165.366 263.991 166.725 263.991C168.444 263.991 168.912 262.812 168.912 260.598C168.912 258.447 168.345 257.286 166.653 257.286C165.276 257.286 164.475 258.15 164.475 259.455C164.475 260.841 165.411 261.552 166.563 261.552C167.157 261.552 167.724 261.327 168.021 260.913C168.021 262.587 167.607 263.136 166.788 263.136C166.104 263.136 165.717 262.803 165.6 262.218H164.655ZM166.743 260.688C165.834 260.688 165.456 260.103 165.456 259.428C165.456 258.672 165.915 258.141 166.68 258.141C167.427 258.141 167.904 258.618 167.904 259.455C167.904 260.193 167.472 260.688 166.743 260.688ZM171.232 263.406C171.232 263.037 170.944 262.749 170.584 262.749C170.215 262.749 169.927 263.037 169.927 263.406C169.927 263.775 170.215 264.063 170.584 264.063C170.944 264.063 171.232 263.775 171.232 263.406ZM176.679 258.96C176.571 258.087 175.932 257.277 174.654 257.277C173.016 257.277 172.332 258.519 172.332 260.571C172.332 262.659 172.827 264 174.735 264C176.139 264 176.886 263.055 176.886 261.813C176.886 260.445 176.049 259.653 174.87 259.653C174.186 259.653 173.538 259.941 173.214 260.481C173.241 258.762 173.718 258.132 174.645 258.132C175.293 258.132 175.608 258.429 175.734 258.96H176.679ZM174.645 260.517C175.509 260.517 175.905 261.075 175.905 261.858C175.905 262.632 175.437 263.145 174.681 263.145C173.808 263.145 173.331 262.605 173.331 261.795C173.331 260.922 173.97 260.517 174.645 260.517Z" fill="#50585D"/>
<path d="M3.24006 75.863H3.82506V75.125C5.04006 75.017 5.70606 74.171 5.70606 73.298C5.70606 72.029 4.72506 71.786 3.82506 71.57V69.626C4.25706 69.734 4.50906 70.067 4.54506 70.427H5.64306C5.56206 69.41 4.86006 68.843 3.82506 68.753V68.024H3.24006V68.762C2.12406 68.861 1.35006 69.554 1.35006 70.562C1.35006 71.831 2.34006 72.083 3.24006 72.308V74.288C2.73606 74.198 2.48406 73.865 2.44806 73.415H1.35006C1.35006 74.432 2.14206 75.035 3.24006 75.134V75.863ZM4.67106 73.352C4.67106 73.82 4.36506 74.198 3.82506 74.288V72.461C4.31106 72.614 4.67106 72.839 4.67106 73.352ZM2.39406 70.508C2.39406 69.959 2.74506 69.662 3.24006 69.599V71.417C2.75406 71.264 2.39406 71.03 2.39406 70.508ZM7.90557 75.08H8.94057V68.519H7.06857V69.455H7.90557V75.08ZM10.6201 68.501V72.29H11.5921C11.7631 71.804 12.1681 71.471 12.7711 71.471C13.6261 71.471 14.0491 71.957 14.0491 72.812C14.0491 73.622 13.6531 74.225 12.7711 74.225C12.0781 74.225 11.6101 73.865 11.4751 73.307H10.4761C10.6291 74.333 11.4121 75.08 12.7621 75.08C14.2831 75.08 15.0301 74.09 15.0301 72.785C15.0301 71.795 14.5351 70.598 12.9241 70.598C12.3391 70.598 11.8081 70.868 11.5651 71.192V69.401H14.5801V68.501H10.6201ZM15.6031 76.331H16.2691L17.3581 73.847H16.2421L15.6031 76.331ZM19.2266 71.651C18.5696 71.894 18.1286 72.479 18.1286 73.271C18.1286 74.468 19.1006 75.242 20.4506 75.242C21.8096 75.242 22.7816 74.468 22.7816 73.271C22.7816 72.488 22.3406 71.903 21.6746 71.651C22.2056 71.39 22.6106 70.877 22.6106 70.175C22.6106 69.23 21.8996 68.402 20.4506 68.402C19.0016 68.402 18.2906 69.221 18.2906 70.175C18.2906 70.904 18.6686 71.372 19.2266 71.651ZM20.4506 71.327C19.7666 71.327 19.2806 70.904 19.2806 70.31C19.2806 69.617 19.7486 69.257 20.4506 69.257C21.1706 69.257 21.6296 69.626 21.6296 70.301C21.6296 70.895 21.1346 71.327 20.4506 71.327ZM20.4506 72.101C21.2246 72.101 21.7736 72.497 21.7736 73.235C21.7736 73.892 21.2786 74.387 20.4506 74.387C19.6136 74.387 19.1096 73.901 19.1096 73.235C19.1096 72.47 19.6946 72.101 20.4506 72.101ZM23.7778 74.99H28.1518V74.135H25.2988C26.3518 73.172 27.9718 71.957 27.9718 70.364C27.9718 69.185 27.2158 68.384 25.8838 68.384C24.7228 68.384 23.8048 69.077 23.7688 70.499H24.7588C24.7858 69.761 25.1728 69.257 25.8928 69.257C26.6578 69.257 26.9548 69.725 26.9548 70.409C26.9548 71.696 25.3258 72.884 23.7778 74.243V74.99ZM29.3862 73.298C29.4672 74.234 30.0972 75.071 31.4562 75.071C33.1752 75.071 33.6432 73.892 33.6432 71.678C33.6432 69.527 33.0762 68.366 31.3842 68.366C30.0072 68.366 29.2062 69.23 29.2062 70.535C29.2062 71.921 30.1422 72.632 31.2942 72.632C31.8882 72.632 32.4552 72.407 32.7522 71.993C32.7522 73.667 32.3382 74.216 31.5192 74.216C30.8352 74.216 30.4482 73.883 30.3312 73.298H29.3862ZM31.4742 71.768C30.5652 71.768 30.1872 71.183 30.1872 70.508C30.1872 69.752 30.6462 69.221 31.4112 69.221C32.1582 69.221 32.6352 69.698 32.6352 70.535C32.6352 71.273 32.2032 71.768 31.4742 71.768ZM35.9631 74.486C35.9631 74.117 35.6751 73.829 35.3151 73.829C34.9461 73.829 34.6581 74.117 34.6581 74.486C34.6581 74.855 34.9461 75.143 35.3151 75.143C35.6751 75.143 35.9631 74.855 35.9631 74.486ZM36.856 74.99H41.23V74.135H38.377C39.43 73.172 41.05 71.957 41.05 70.364C41.05 69.185 40.294 68.384 38.962 68.384C37.801 68.384 36.883 69.077 36.847 70.499H37.837C37.864 69.761 38.251 69.257 38.971 69.257C39.736 69.257 40.033 69.725 40.033 70.409C40.033 71.696 38.404 72.884 36.856 74.243V74.99ZM43.2383 71.651C42.5813 71.894 42.1403 72.479 42.1403 73.271C42.1403 74.468 43.1123 75.242 44.4623 75.242C45.8213 75.242 46.7933 74.468 46.7933 73.271C46.7933 72.488 46.3523 71.903 45.6863 71.651C46.2173 71.39 46.6223 70.877 46.6223 70.175C46.6223 69.23 45.9113 68.402 44.4623 68.402C43.0133 68.402 42.3023 69.221 42.3023 70.175C42.3023 70.904 42.6803 71.372 43.2383 71.651ZM44.4623 71.327C43.7783 71.327 43.2923 70.904 43.2923 70.31C43.2923 69.617 43.7603 69.257 44.4623 69.257C45.1823 69.257 45.6413 69.626 45.6413 70.301C45.6413 70.895 45.1463 71.327 44.4623 71.327ZM44.4623 72.101C45.2363 72.101 45.7853 72.497 45.7853 73.235C45.7853 73.892 45.2903 74.387 44.4623 74.387C43.6253 74.387 43.1213 73.901 43.1213 73.235C43.1213 72.47 43.7063 72.101 44.4623 72.101Z" fill="#50585D"/>
<path d="M92.0032 10.783H92.5882V10.045C93.8032 9.937 94.4692 9.091 94.4692 8.218C94.4692 6.949 93.4882 6.706 92.5882 6.49V4.546C93.0202 4.654 93.2722 4.987 93.3082 5.347H94.4062C94.3252 4.33 93.6232 3.763 92.5882 3.673V2.944H92.0032V3.682C90.8872 3.781 90.1132 4.474 90.1132 5.482C90.1132 6.751 91.1032 7.003 92.0032 7.228V9.208C91.4992 9.118 91.2472 8.785 91.2112 8.335H90.1132C90.1132 9.352 90.9052 9.955 92.0032 10.054V10.783ZM93.4342 8.272C93.4342 8.74 93.1282 9.118 92.5882 9.208V7.381C93.0742 7.534 93.4342 7.759 93.4342 8.272ZM91.1572 5.428C91.1572 4.879 91.5082 4.582 92.0032 4.519V6.337C91.5172 6.184 91.1572 5.95 91.1572 5.428ZM96.2368 3.421V7.21H97.2088C97.3798 6.724 97.7848 6.391 98.3878 6.391C99.2428 6.391 99.6658 6.877 99.6658 7.732C99.6658 8.542 99.2698 9.145 98.3878 9.145C97.6948 9.145 97.2268 8.785 97.0918 8.227H96.0928C96.2458 9.253 97.0288 10 98.3788 10C99.8998 10 100.647 9.01 100.647 7.705C100.647 6.715 100.152 5.518 98.5408 5.518C97.9558 5.518 97.4248 5.788 97.1818 6.112V4.321H100.197V3.421H96.2368ZM101.22 11.251H101.886L102.975 8.767H101.859L101.22 11.251ZM104.438 10H105.473V3.439H103.601V4.375H104.438V10ZM107.216 8.218C107.297 9.154 107.927 9.991 109.286 9.991C111.005 9.991 111.473 8.812 111.473 6.598C111.473 4.447 110.906 3.286 109.214 3.286C107.837 3.286 107.036 4.15 107.036 5.455C107.036 6.841 107.972 7.552 109.124 7.552C109.718 7.552 110.285 7.327 110.582 6.913C110.582 8.587 110.168 9.136 109.349 9.136C108.665 9.136 108.278 8.803 108.161 8.218H107.216ZM109.304 6.688C108.395 6.688 108.017 6.103 108.017 5.428C108.017 4.672 108.476 4.141 109.241 4.141C109.988 4.141 110.465 4.618 110.465 5.455C110.465 6.193 110.033 6.688 109.304 6.688ZM112.515 9.91H116.889V9.055H114.036C115.089 8.092 116.709 6.877 116.709 5.284C116.709 4.105 115.953 3.304 114.621 3.304C113.46 3.304 112.542 3.997 112.506 5.419H113.496C113.523 4.681 113.91 4.177 114.63 4.177C115.395 4.177 115.692 4.645 115.692 5.329C115.692 6.616 114.063 7.804 112.515 9.163V9.91ZM118.987 9.406C118.987 9.037 118.699 8.749 118.339 8.749C117.97 8.749 117.682 9.037 117.682 9.406C117.682 9.775 117.97 10.063 118.339 10.063C118.699 10.063 118.987 9.775 118.987 9.406ZM121.068 6.571C120.411 6.814 119.97 7.399 119.97 8.191C119.97 9.388 120.942 10.162 122.292 10.162C123.651 10.162 124.623 9.388 124.623 8.191C124.623 7.408 124.182 6.823 123.516 6.571C124.047 6.31 124.452 5.797 124.452 5.095C124.452 4.15 123.741 3.322 122.292 3.322C120.843 3.322 120.132 4.141 120.132 5.095C120.132 5.824 120.51 6.292 121.068 6.571ZM122.292 6.247C121.608 6.247 121.122 5.824 121.122 5.23C121.122 4.537 121.59 4.177 122.292 4.177C123.012 4.177 123.471 4.546 123.471 5.221C123.471 5.815 122.976 6.247 122.292 6.247ZM122.292 7.021C123.066 7.021 123.615 7.417 123.615 8.155C123.615 8.812 123.12 9.307 122.292 9.307C121.455 9.307 120.951 8.821 120.951 8.155C120.951 7.39 121.536 7.021 122.292 7.021Z" fill="#50585D"/>
<path d="M12.7498 180.168H13.3348V179.43C14.5498 179.322 15.2158 178.476 15.2158 177.603C15.2158 176.334 14.2348 176.091 13.3348 175.875V173.931C13.7668 174.039 14.0188 174.372 14.0548 174.732H15.1528C15.0718 173.715 14.3698 173.148 13.3348 173.058V172.329H12.7498V173.067C11.6338 173.166 10.8598 173.859 10.8598 174.867C10.8598 176.136 11.8498 176.388 12.7498 176.613V178.593C12.2458 178.503 11.9938 178.17 11.9578 177.72H10.8598C10.8598 178.737 11.6518 179.34 12.7498 179.439V180.168ZM14.1808 177.657C14.1808 178.125 13.8748 178.503 13.3348 178.593V176.766C13.8208 176.919 14.1808 177.144 14.1808 177.657ZM11.9038 174.813C11.9038 174.264 12.2548 173.967 12.7498 173.904V175.722C12.2638 175.569 11.9038 175.335 11.9038 174.813ZM17.4153 179.385H18.4503V172.824H16.5783V173.76H17.4153V179.385ZM19.8598 176.019C19.8598 177.927 20.3638 179.367 22.1998 179.367C24.0358 179.367 24.5398 177.927 24.5398 176.019C24.5398 174.147 24.0358 172.707 22.1998 172.707C20.3638 172.707 19.8598 174.147 19.8598 176.019ZM23.5318 176.019C23.5318 177.306 23.3968 178.431 22.1998 178.431C21.0028 178.431 20.8678 177.306 20.8678 176.019C20.8678 174.795 21.0028 173.643 22.1998 173.643C23.3968 173.643 23.5318 174.795 23.5318 176.019ZM25.1304 180.636H25.7964L26.8854 178.152H25.7694L25.1304 180.636ZM27.9799 177.603C28.0609 178.539 28.6909 179.376 30.0499 179.376C31.7689 179.376 32.2369 178.197 32.2369 175.983C32.2369 173.832 31.6699 172.671 29.9779 172.671C28.6009 172.671 27.7999 173.535 27.7999 174.84C27.7999 176.226 28.7359 176.937 29.8879 176.937C30.4819 176.937 31.0489 176.712 31.3459 176.298C31.3459 177.972 30.9319 178.521 30.1129 178.521C29.4289 178.521 29.0419 178.188 28.9249 177.603H27.9799ZM30.0679 176.073C29.1589 176.073 28.7809 175.488 28.7809 174.813C28.7809 174.057 29.2399 173.526 30.0049 173.526C30.7519 173.526 31.2289 174.003 31.2289 174.84C31.2289 175.578 30.7969 176.073 30.0679 176.073ZM34.0618 179.385H35.0968V172.824H33.2248V173.76H34.0618V179.385ZM39.6383 179.385H40.6463V178.017H41.4833V177.126H40.6463V172.905H39.4043L36.3803 177.243V178.017H39.6383V179.385ZM37.5593 177.126L39.6833 173.949V177.126H37.5593Z" fill="#50585D"/>
<path d="M174.855 80.3186L175.289 78.7017L180.522 80.1048L180.788 79.1138L175.555 77.7107L175.986 76.1025L175.177 75.8857L174.047 80.1018L174.855 80.3186ZM180.312 71.2949C178.809 70.8917 177.555 71.7109 177.189 73.0757C176.823 74.4405 177.499 75.7771 179.003 76.1803C180.506 76.5835 181.757 75.8101 182.123 74.4453C182.492 73.0718 181.816 71.6981 180.312 71.2949ZM179.273 75.1719C178.186 74.8806 177.844 74.0714 178.045 73.3238C178.243 72.5849 178.953 72.0206 180.04 72.3119C181.126 72.6033 181.461 73.4757 181.263 74.2146C181.062 74.9622 180.36 75.4633 179.273 75.1719ZM180.719 69.2916C179.702 69.0189 179.519 68.4853 179.715 67.7551L179.782 67.503L178.757 67.2279C178.575 67.906 178.742 68.4634 179.146 68.8697L178.45 68.6833L178.185 69.6743L182.974 70.9585L183.24 69.9675L180.719 69.2916ZM182.693 62.4151C181.189 62.0119 179.935 62.8311 179.57 64.1959C179.204 65.5607 179.88 66.8974 181.383 67.3006C182.887 67.7038 184.138 66.9304 184.504 65.5656C184.872 64.1921 184.197 62.8183 182.693 62.4151ZM181.654 66.2922C180.567 66.0009 180.225 65.1917 180.425 64.4441C180.624 63.7052 181.334 63.1409 182.421 63.4322C183.507 63.7236 183.842 64.5959 183.644 65.3348C183.443 66.0824 182.74 66.5835 181.654 66.2922ZM186.267 58.6798L186.53 57.6975L183.705 56.94C182.366 56.5811 181.436 57.2355 181.135 58.3569C180.981 58.9306 181.074 59.5238 181.379 59.9504L180.831 59.8035L180.565 60.7945L185.355 62.0788L185.621 61.0878L182.943 60.3699C182.065 60.1345 181.742 59.5352 181.937 58.805C182.131 58.0835 182.711 57.7265 183.589 57.9619L186.267 58.6798ZM185.581 55.9203C186.554 56.1814 187.053 55.7467 187.281 54.8948L187.491 54.1124L186.665 53.891L186.502 54.4995C186.39 54.9167 186.205 55.0162 185.849 54.9207L183.197 54.2098L183.51 53.0449L182.701 52.8282L182.389 53.993L181.198 53.6737L180.93 54.6734L182.121 54.9927L181.969 55.5578L182.778 55.7745L182.929 55.2095L185.581 55.9203ZM186.56 47.9919C185.056 47.5887 183.803 48.4079 183.437 49.7727C183.071 51.1375 183.747 52.4742 185.251 52.8774C186.754 53.2806 188.005 52.5072 188.371 51.1424C188.74 49.7689 188.064 48.3951 186.56 47.9919ZM185.521 51.869C184.434 51.5777 184.092 50.7685 184.293 50.0209C184.491 49.282 185.201 48.7177 186.288 49.009C187.374 49.3004 187.709 50.1727 187.511 50.9116C187.31 51.6592 186.607 52.1603 185.521 51.869Z" fill="white"/>
<path d="M205.768 91.2657L206.354 90.5672L202.095 86.9924L201.509 87.691L203.335 89.2237L201.653 91.2274L199.827 89.6946L199.241 90.3931L203.499 93.9678L204.086 93.2693L202.223 91.7057L203.905 89.7021L205.768 91.2657ZM205.227 88.4505C206.269 89.3249 207.577 89.2221 208.313 88.3458C208.786 87.7821 208.856 87.1514 208.748 86.6952L209.25 87.117L209.842 86.4123L206.465 83.5783L205.874 84.2829L206.364 84.6944C205.913 84.6713 205.315 84.8371 204.836 85.4069C204.091 86.2954 204.185 87.5761 205.227 88.4505ZM207.559 85.6974C208.288 86.3094 208.282 87.1504 207.84 87.6773C207.402 88.1981 206.558 88.3457 205.829 87.7336C205.1 87.1215 205.129 86.2899 205.566 85.7691C206.009 85.2421 206.836 85.0904 207.559 85.6974ZM210.612 85.4948L211.198 84.7963L206.664 80.9901L206.077 81.6887L210.612 85.4948ZM211.968 83.8792L212.554 83.1807L209.178 80.3466L208.592 81.0452L211.968 83.8792ZM208.443 80.3143C208.648 80.0692 208.617 79.7085 208.366 79.4977C208.115 79.2868 207.754 79.3183 207.548 79.5634C207.337 79.8146 207.369 80.1753 207.62 80.3861C207.871 80.597 208.232 80.5655 208.443 80.3143ZM213.396 82.1778L213.988 81.4732L211.181 79.1175L211.706 78.4925L211.136 78.0141L210.611 78.6391L210.372 78.4385C209.986 78.1145 209.963 77.844 210.323 77.4151L209.741 76.9264C209 77.8088 209.003 78.49 209.781 79.1432L210.02 79.3438L209.686 79.7421L210.255 80.2204L210.59 79.8221L213.396 82.1778ZM213.133 79.0321C214.175 79.9065 215.483 79.8036 216.219 78.9274C216.692 78.3637 216.762 77.733 216.654 77.2768L217.156 77.6985L217.748 76.9939L214.371 74.1598L213.78 74.8645L214.27 75.2759C213.82 75.2528 213.221 75.4187 212.742 75.9885C211.997 76.877 212.091 78.1577 213.133 79.0321ZM215.465 76.2789C216.194 76.891 216.188 77.7319 215.746 78.2589C215.309 78.7797 214.464 78.9273 213.735 78.3152C213.006 77.7031 213.035 76.8715 213.472 76.3507C213.915 75.8237 214.742 75.672 215.465 76.2789ZM219.984 74.3301L220.647 73.5397L218.022 73.1953L217.271 70.7056L216.659 71.4348L217.229 73.0829L215.471 72.8502L214.807 73.6406L217.439 73.9901L218.183 76.4747L218.796 75.7455L218.226 74.0974L219.984 74.3301Z" fill="white"/>
<path d="M212.96 117.743L210.816 114.75L210.112 114.952L212.773 118.527L213.534 118.309L213.89 113.869L213.198 114.067L212.96 117.743ZM214.91 116.179C215.192 117.159 216.048 117.644 216.873 117.407C217.404 117.255 217.712 116.892 217.836 116.563L217.971 117.036L218.635 116.846L217.723 113.668L217.06 113.858L217.192 114.32C216.922 114.117 216.48 113.969 215.944 114.122C215.107 114.362 214.629 115.198 214.91 116.179ZM217.515 115.445C217.712 116.131 217.355 116.651 216.859 116.794C216.369 116.934 215.782 116.672 215.585 115.985C215.388 115.299 215.755 114.794 216.246 114.654C216.742 114.512 217.32 114.764 217.515 115.445ZM221.753 115.952L222.405 115.765L221.868 113.891C221.613 113.002 220.919 112.696 220.175 112.909C219.795 113.018 219.488 113.275 219.349 113.595L219.244 113.232L218.587 113.421L219.498 116.599L220.156 116.41L219.646 114.634C219.479 114.051 219.711 113.66 220.195 113.521C220.674 113.384 221.077 113.593 221.244 114.176L221.753 115.952ZM222.568 113.996C222.854 114.993 223.685 115.454 224.597 115.193C225.375 114.97 225.759 114.391 225.759 113.717L225.05 113.921C225.023 114.284 224.83 114.527 224.438 114.639C223.907 114.791 223.443 114.5 223.243 113.802C223.044 113.11 223.284 112.617 223.814 112.465C224.207 112.352 224.517 112.476 224.714 112.75L225.423 112.546C225.053 111.929 224.434 111.688 223.656 111.911C222.744 112.172 222.284 113.004 222.568 113.996ZM229.274 112.073C228.987 111.075 228.089 110.64 227.183 110.9C226.278 111.159 225.746 112.004 226.032 113.002C226.318 114 227.19 114.449 228.095 114.19C229.007 113.928 229.56 113.071 229.274 112.073ZM226.701 112.81C226.494 112.089 226.839 111.616 227.335 111.474C227.826 111.333 228.392 111.545 228.599 112.266C228.805 112.987 228.422 113.478 227.932 113.619C227.436 113.761 226.908 113.531 226.701 112.81ZM232.347 109.475L231.689 109.664L232.197 111.434C232.364 112.017 232.133 112.408 231.648 112.547C231.17 112.684 230.766 112.475 230.599 111.892L230.092 110.122L229.44 110.309L229.976 112.177C230.23 113.066 230.93 113.371 231.674 113.157C232.049 113.05 232.361 112.792 232.491 112.461L232.6 112.842L233.258 112.653L232.347 109.475ZM232.839 109.334L234.956 112.166L235.74 111.941L236.04 108.416L235.342 108.616L235.185 111.464L233.543 109.132L232.839 109.334ZM238.019 108.392C238.51 108.251 238.985 108.452 239.137 108.939L237.378 109.443C237.304 108.921 237.575 108.519 238.019 108.392ZM240.004 109.695L239.294 109.899C239.244 110.181 239.075 110.442 238.672 110.558C238.187 110.697 237.721 110.487 237.525 109.975L239.953 109.279C239.939 109.164 239.915 109.059 239.883 108.949C239.615 108.015 238.795 107.57 237.889 107.83C236.949 108.099 236.487 108.925 236.773 109.922C237.059 110.92 237.919 111.373 238.83 111.111C239.609 110.888 239.983 110.3 240.004 109.695ZM241.186 108.57C240.993 107.895 241.235 107.607 241.719 107.468L241.886 107.42L241.691 106.739C241.241 106.868 240.98 107.155 240.887 107.526L240.755 107.064L240.097 107.253L241.008 110.431L241.666 110.242L241.186 108.57Z" fill="white"/>
<path d="M217.365 143.08L218.074 143.205L217.328 138.833L216.548 138.696L214.351 142.549L215.054 142.673L215.498 141.886L217.217 142.189L217.365 143.08ZM217.125 141.606L215.784 141.37L216.794 139.58L217.125 141.606ZM218.778 141.636C218.601 142.64 219.159 143.451 220.016 143.602C220.548 143.696 220.981 143.517 221.24 143.258L221.154 143.748L221.833 143.868L222.604 139.496L221.925 139.376L221.648 140.948C221.454 140.597 221.04 140.316 220.615 140.241C219.752 140.089 218.956 140.631 218.778 141.636ZM221.441 142.117C221.317 142.821 220.769 143.132 220.261 143.043C219.758 142.954 219.346 142.461 219.47 141.758C219.594 141.055 220.145 140.762 220.647 140.85C221.155 140.94 221.564 141.42 221.441 142.117ZM224.572 141.524C225.075 141.613 225.414 142.002 225.337 142.506L223.535 142.188C223.697 141.687 224.117 141.444 224.572 141.524ZM225.784 143.566L225.057 143.437C224.889 143.67 224.623 143.83 224.209 143.757C223.713 143.669 223.386 143.277 223.433 142.731L225.921 143.169C225.959 143.06 225.983 142.955 226.003 142.843C226.172 141.885 225.63 141.126 224.702 140.962C223.739 140.792 222.961 141.331 222.781 142.354C222.601 143.376 223.175 144.16 224.109 144.324C224.907 144.465 225.501 144.101 225.784 143.566ZM226.365 144.667L227.038 144.786L227.809 140.413L227.136 140.295L226.365 144.667ZM227.988 143.26C227.811 144.264 228.368 145.075 229.213 145.224C229.757 145.32 230.193 145.129 230.449 144.888L230.363 145.372L231.043 145.492L231.617 142.236L230.937 142.116L230.854 142.589C230.7 142.288 230.368 141.961 229.818 141.864C228.961 141.713 228.165 142.255 227.988 143.26ZM230.651 143.741C230.527 144.445 229.978 144.756 229.47 144.666C228.968 144.578 228.555 144.085 228.679 143.382C228.803 142.678 229.355 142.386 229.857 142.474C230.365 142.564 230.774 143.044 230.651 143.741ZM231.928 145.648L232.601 145.767L233.175 142.511L232.502 142.392L231.928 145.648ZM232.92 142.021C233.157 142.063 233.379 141.907 233.422 141.665C233.465 141.423 233.309 141.2 233.072 141.159C232.83 141.116 232.608 141.272 232.565 141.514C232.522 141.756 232.678 141.979 232.92 142.021ZM233.551 144.24C233.373 145.245 233.931 146.056 234.788 146.207C235.32 146.301 235.753 146.122 236.012 145.863L235.926 146.353L236.605 146.473L237.376 142.1L236.697 141.98L236.42 143.552C236.226 143.201 235.812 142.921 235.387 142.846C234.524 142.694 233.728 143.236 233.551 144.24ZM236.213 144.722C236.089 145.425 235.541 145.737 235.033 145.647C234.531 145.559 234.118 145.066 234.242 144.362C234.366 143.659 234.917 143.367 235.419 143.455C235.928 143.545 236.336 144.025 236.213 144.722ZM239.344 144.129C239.847 144.217 240.186 144.606 240.11 145.111L238.307 144.793C238.469 144.291 238.889 144.049 239.344 144.129ZM240.556 146.17L239.83 146.042C239.661 146.274 239.395 146.435 238.981 146.362C238.485 146.274 238.158 145.881 238.206 145.335L240.693 145.774C240.731 145.665 240.755 145.56 240.775 145.447C240.944 144.49 240.402 143.73 239.474 143.567C238.511 143.397 237.733 143.936 237.553 144.958C237.373 145.981 237.948 146.764 238.881 146.929C239.679 147.07 240.273 146.705 240.556 146.17Z" fill="white"/>
<path d="M201.707 162.262L202.246 162.683L204.005 160.433L203.253 163.47L203.627 163.762L206.388 162.296L204.629 164.546L205.168 164.967L207.736 161.682L207.159 161.231L203.997 162.909L204.857 159.431L204.276 158.977L201.707 162.262ZM208.687 164.185C209.089 164.499 209.206 165.002 208.902 165.411L207.46 164.284C207.838 163.917 208.323 163.9 208.687 164.185ZM208.798 166.556L208.217 166.102C207.959 166.227 207.649 166.244 207.318 165.985C206.921 165.675 206.817 165.175 207.115 164.715L209.105 166.271C209.19 166.192 209.261 166.11 209.331 166.021C209.93 165.255 209.808 164.329 209.066 163.749C208.295 163.147 207.355 163.258 206.716 164.076C206.077 164.893 206.216 165.855 206.963 166.439C207.601 166.938 208.297 166.895 208.798 166.556ZM208.793 167.801L209.332 168.223L212.067 164.725L211.528 164.303L208.793 167.801ZM212.312 166.98L213.313 165.699L212.774 165.278L210.04 168.776L210.579 169.197L210.874 168.819C210.867 169.179 211.023 169.613 211.453 169.949C212.138 170.485 213.11 170.353 213.738 169.549C214.366 168.746 214.246 167.799 213.556 167.259C213.144 166.938 212.667 166.877 212.312 166.98ZM213.19 169.121C212.75 169.683 212.107 169.706 211.701 169.389C211.299 169.074 211.159 168.455 211.599 167.892C212.035 167.334 212.67 167.321 213.072 167.635C213.478 167.953 213.629 168.558 213.19 169.121ZM216.745 171.915C217.384 171.098 217.208 170.115 216.466 169.535C215.724 168.954 214.728 169.021 214.088 169.839C213.449 170.656 213.598 171.626 214.34 172.206C215.087 172.79 216.106 172.733 216.745 171.915ZM214.637 170.267C215.099 169.676 215.684 169.677 216.091 169.995C216.493 170.309 216.654 170.892 216.192 171.483C215.73 172.074 215.108 172.052 214.706 171.738C214.299 171.42 214.175 170.858 214.637 170.267ZM220.653 172.876L220.114 172.455L218.979 173.906C218.606 174.383 218.154 174.426 217.757 174.115C217.365 173.809 217.297 173.36 217.67 172.882L218.805 171.431L218.27 171.013L217.073 172.545C216.504 173.273 216.668 174.018 217.278 174.495C217.585 174.735 217.978 174.836 218.322 174.747L218.078 175.059L218.617 175.48L220.653 172.876ZM220.938 175.087C221.371 174.534 221.746 174.56 222.143 174.871L222.28 174.978L222.716 174.42C222.347 174.132 221.962 174.089 221.607 174.231L221.903 173.853L221.364 173.432L219.328 176.036L219.867 176.458L220.938 175.087ZM222.99 178.899L223.524 179.317L224.725 177.781C225.294 177.053 225.135 176.311 224.525 175.835C224.213 175.591 223.825 175.493 223.484 175.569L223.717 175.271L223.178 174.85L221.142 177.454L221.681 177.876L222.819 176.42C223.192 175.942 223.644 175.9 224.041 176.21C224.434 176.517 224.502 176.966 224.128 177.443L222.99 178.899ZM227.023 178.518C227.425 178.832 227.542 179.335 227.237 179.744L225.796 178.617C226.174 178.25 226.659 178.234 227.023 178.518ZM227.134 180.89L226.553 180.435C226.294 180.561 225.984 180.577 225.654 180.319C225.256 180.008 225.152 179.508 225.451 179.048L227.441 180.604C227.525 180.525 227.597 180.444 227.667 180.354C228.265 179.588 228.144 178.663 227.401 178.083C226.631 177.48 225.691 177.591 225.052 178.409C224.413 179.227 224.552 180.189 225.299 180.773C225.937 181.271 226.633 181.229 227.134 180.89Z" fill="white"/>
<path d="M171.229 212.939C172.691 212.888 173.674 211.74 173.626 210.369C173.59 209.354 173.056 208.497 172.092 208.16L172.125 209.118C172.652 209.359 172.913 209.812 172.933 210.393C172.967 211.358 172.299 212.082 171.201 212.12C170.102 212.159 169.392 211.483 169.359 210.518C169.338 209.937 169.567 209.467 170.076 209.19L170.042 208.231C169.104 208.635 168.624 209.528 168.659 210.542C168.707 211.913 169.774 212.99 171.229 212.939ZM173.472 207.177L173.445 206.379L171.29 206.455C170.583 206.479 170.206 206.107 170.186 205.52C170.165 204.939 170.516 204.542 171.222 204.517L173.377 204.442L173.349 203.651L171.076 203.731C169.998 203.768 169.455 204.46 169.485 205.32C169.503 205.817 169.707 206.244 170.038 206.498L168.268 206.56L168.296 207.358L173.472 207.177ZM173.314 202.634L173.286 201.836L169.431 201.971L169.459 202.768L173.314 202.634ZM168.934 202.381C168.924 202.101 168.693 201.885 168.406 201.895C168.119 201.905 167.903 202.136 167.913 202.416C167.923 202.703 168.155 202.919 168.441 202.909C168.728 202.899 168.944 202.667 168.934 202.381ZM171.328 201.123C172.538 201.08 173.294 200.269 173.256 199.164C173.223 198.22 172.676 197.622 171.913 197.432L171.943 198.292C172.347 198.425 172.567 198.712 172.584 199.187C172.607 199.831 172.146 200.274 171.299 200.304C170.46 200.333 169.969 199.923 169.947 199.28C169.93 198.804 170.157 198.488 170.523 198.342L170.493 197.481C169.689 197.727 169.242 198.359 169.275 199.303C169.314 200.408 170.125 201.165 171.328 201.123ZM171.167 196.928C172.357 196.887 173.147 196.054 173.112 195.053C173.09 194.41 172.766 193.959 172.428 193.725L173.002 193.705L172.974 192.901L169.119 193.035L169.147 193.84L169.707 193.82C169.4 194.069 169.108 194.528 169.131 195.178C169.166 196.193 169.978 196.97 171.167 196.928ZM171.071 193.773C171.904 193.744 172.392 194.294 172.413 194.896C172.434 195.49 171.971 196.081 171.139 196.11C170.306 196.139 169.839 195.581 169.818 194.986C169.797 194.385 170.246 193.802 171.071 193.773ZM171.002 192.187C172.191 192.146 172.981 191.312 172.946 190.298C172.924 189.668 172.593 189.218 172.256 188.984L172.899 188.962C173.669 188.935 174.063 189.384 174.084 189.999C174.104 190.552 173.846 190.988 173.451 191.121L173.479 191.911C174.329 191.784 174.813 191.003 174.777 189.975C174.735 188.772 173.921 188.121 172.871 188.157L168.954 188.294L168.982 189.099L169.541 189.079C169.221 189.328 168.943 189.807 168.965 190.437C169.001 191.451 169.813 192.229 171.002 192.187ZM170.906 189.031C171.738 189.002 172.227 189.553 172.248 190.154C172.268 190.749 171.806 191.339 170.973 191.369C170.141 191.398 169.673 190.84 169.652 190.245C169.631 189.643 170.08 189.06 170.906 189.031ZM170.713 183.507C169.502 183.549 168.756 184.444 168.795 185.542C168.833 186.64 169.64 187.481 170.85 187.438C172.06 187.396 172.815 186.536 172.776 185.438C172.738 184.333 171.923 183.464 170.713 183.507ZM170.822 186.627C169.947 186.657 169.509 186.133 169.488 185.532C169.467 184.937 169.867 184.356 170.741 184.325C171.616 184.295 172.063 184.867 172.084 185.462C172.105 186.064 171.696 186.596 170.822 186.627Z" fill="white"/>
<path d="M119.603 198.552L119.952 197.922L115.575 197.204L115.191 197.897L118.119 201.228L118.465 200.604L117.866 199.928L118.712 198.401L119.603 198.552ZM118.131 198.298L117.471 199.49L116.107 197.952L118.131 198.298ZM119.516 196.814C120.104 197.14 120.496 196.939 120.782 196.425L121.043 195.953L120.545 195.676L120.341 196.044C120.202 196.296 120.066 196.33 119.851 196.211L118.25 195.324L118.64 194.62L118.152 194.35L117.762 195.053L117.043 194.655L116.709 195.258L117.428 195.657L117.238 195.998L117.726 196.268L117.916 195.927L119.516 196.814ZM121.349 195.401L121.681 194.803L117.797 192.651L117.466 193.249L121.349 195.401ZM120.546 193.408C121.439 193.903 122.387 193.64 122.803 192.889C123.071 192.406 123.032 191.932 122.887 191.612L123.317 191.85L123.652 191.247L120.76 189.644L120.426 190.248L120.846 190.48C120.51 190.528 120.093 190.736 119.823 191.224C119.401 191.985 119.654 192.914 120.546 193.408ZM121.869 191.047C122.493 191.394 122.609 192.014 122.359 192.465C122.112 192.911 121.511 193.141 120.887 192.794C120.262 192.448 120.165 191.832 120.412 191.386C120.662 190.934 121.25 190.704 121.869 191.047ZM125.225 188.409L125.553 187.816L123.848 186.871C123.04 186.423 122.332 186.696 121.957 187.373C121.765 187.72 121.729 188.118 121.858 188.443L121.527 188.26L121.196 188.858L124.087 190.461L124.419 189.863L122.803 188.967C122.273 188.673 122.16 188.233 122.404 187.792C122.645 187.357 123.078 187.219 123.608 187.513L125.225 188.409ZM125.226 186.514C125.813 186.839 126.206 186.638 126.491 186.124L126.753 185.652L126.254 185.376L126.051 185.743C125.911 185.995 125.775 186.029 125.56 185.91L123.96 185.023L124.349 184.32L123.861 184.049L123.472 184.752L122.753 184.354L122.418 184.957L123.137 185.356L122.948 185.697L123.436 185.967L123.625 185.626L125.226 186.514ZM125.489 184.491C126.381 184.986 127.33 184.723 127.746 183.972C128.013 183.489 127.974 183.015 127.83 182.695L128.26 182.933L128.594 182.33L125.703 180.727L125.368 181.33L125.788 181.563C125.453 181.611 125.036 181.819 124.766 182.307C124.344 183.068 124.597 183.997 125.489 184.491ZM126.811 182.13C127.436 182.476 127.552 183.096 127.302 183.548C127.055 183.994 126.454 184.223 125.829 183.877C125.205 183.531 125.108 182.915 125.355 182.469C125.605 182.017 126.192 181.787 126.811 182.13Z" fill="white"/>
<path d="M87.6442 158.329C86.4442 158.994 85.9696 160.434 86.6755 161.707C87.3848 162.987 88.8537 163.341 90.0537 162.676C91.1986 162.041 91.5663 160.741 91.1484 159.684L90.8464 159.139L88.5016 160.439L88.8104 160.996L90.4083 160.11C90.7013 160.884 90.4755 161.618 89.7041 162.045C88.8592 162.514 87.911 162.247 87.3918 161.31C86.8726 160.373 87.1522 159.434 87.9971 158.966C88.5053 158.684 89.0281 158.674 89.4922 158.977L90.331 158.512C89.5449 157.86 88.5319 157.837 87.6442 158.329ZM94.0129 156.023L93.315 156.41L94.3568 158.29C94.6996 158.908 94.5393 159.413 94.0251 159.698C93.5169 159.98 93.0037 159.848 92.6609 159.23L91.6191 157.35L90.9273 157.734L92.0268 159.717C92.5494 160.66 93.4243 160.824 94.2141 160.386C94.612 160.165 94.9 159.789 94.9609 159.38L95.1849 159.784L95.8828 159.397L94.0129 156.023ZM95.0412 154.869C95.2861 154.733 95.3734 154.429 95.2342 154.178C95.0951 153.927 94.7906 153.84 94.5457 153.975C94.2947 154.114 94.2074 154.419 94.3465 154.67C94.4856 154.921 94.7901 155.008 95.0412 154.869ZM94.9338 155.513L97.1702 159.547C97.3094 159.799 97.2691 159.957 96.9752 160.12L96.7365 160.252L97.0623 160.84L97.4235 160.64C98.0235 160.307 98.2483 159.846 97.8682 159.161L95.6317 155.126L94.9338 155.513ZM97.2419 156.418C97.8188 157.459 98.92 157.785 99.7955 157.3C100.359 156.988 100.613 156.494 100.668 156.088L100.947 156.59L101.651 156.2L99.7807 152.826L99.0766 153.216L99.3481 153.706C98.9872 153.546 98.4461 153.494 97.8767 153.81C96.989 154.302 96.665 155.378 97.2419 156.418ZM100.01 154.9C100.414 155.629 100.145 156.314 99.6187 156.606C99.0983 156.894 98.3621 156.75 97.9582 156.021C97.5544 155.293 97.8392 154.623 98.3596 154.334C98.8861 154.042 99.6094 154.178 100.01 154.9ZM102.281 153.529C101.884 152.813 102.084 152.422 102.598 152.137L102.775 152.039L102.375 151.316C101.897 151.581 101.676 151.976 101.667 152.421L101.395 151.931L100.697 152.318L102.567 155.691L103.265 155.305L102.281 153.529ZM103.741 152.816C104.318 153.857 105.419 154.183 106.294 153.698C106.858 153.385 107.112 152.892 107.167 152.485L107.446 152.987L108.15 152.597L106.28 149.224L105.576 149.614L105.847 150.104C105.486 149.944 104.945 149.891 104.376 150.207C103.488 150.699 103.164 151.775 103.741 152.816ZM106.509 151.298C106.913 152.026 106.644 152.711 106.118 153.003C105.597 153.292 104.861 153.147 104.457 152.419C104.053 151.69 104.338 151.02 104.859 150.732C105.385 150.44 106.108 150.575 106.509 151.298ZM108.657 151.091C109.037 151.777 109.55 151.821 110.15 151.488L110.701 151.183L110.379 150.601L109.95 150.839C109.656 151.002 109.501 150.952 109.361 150.701L108.326 148.834L109.147 148.379L108.831 147.809L108.011 148.264L107.546 147.425L106.842 147.816L107.307 148.655L106.909 148.875L107.224 149.444L107.622 149.224L108.657 151.091Z" fill="white"/>
<path d="M81.7006 117.824C81.6446 118.222 81.3328 118.415 80.8753 118.351L79.9603 118.222L80.1415 116.933L81.0327 117.058C81.4843 117.121 81.7582 117.414 81.7006 117.824ZM81.8466 116.009C81.7932 116.389 81.4966 116.56 81.0569 116.498L80.2192 116.38L80.3853 115.198L81.2231 115.316C81.6628 115.377 81.8993 115.635 81.8466 116.009ZM82.3679 117.991C82.4372 117.498 82.1425 117.008 81.7137 116.869C82.1318 116.782 82.4774 116.522 82.5476 116.023C82.6294 115.44 82.2336 114.894 81.3602 114.771L79.7856 114.55L79.2053 118.679L80.8571 118.912C81.7008 119.03 82.2794 118.621 82.3679 117.991ZM83.8673 117.578C83.965 116.882 84.3032 116.718 84.8023 116.788L84.9746 116.812L85.0731 116.111C84.6097 116.046 84.2545 116.202 84.0185 116.502L84.0853 116.027L83.4079 115.932L82.9478 119.205L83.6252 119.301L83.8673 117.578ZM85.2345 117.842C85.0925 118.852 85.6781 119.644 86.5278 119.763C87.0744 119.84 87.5033 119.634 87.7505 119.384L87.682 119.871L88.3653 119.967L88.8254 116.693L88.1421 116.597L88.0753 117.072C87.9109 116.777 87.5674 116.462 87.0148 116.384C86.1533 116.263 85.3765 116.832 85.2345 117.842ZM87.9125 118.231C87.8131 118.938 87.2759 119.268 86.7649 119.197C86.2599 119.126 85.8303 118.647 85.9297 117.94C86.029 117.233 86.5697 116.921 87.0747 116.992C87.5857 117.064 88.011 117.53 87.9125 118.231ZM91.8256 119.52C91.9561 118.333 90.0565 118.441 90.1492 117.782C90.1801 117.562 90.3911 117.44 90.7535 117.491C91.1219 117.543 91.3142 117.77 91.2979 118.058L91.9752 118.154C92.0314 117.495 91.6001 117.028 90.8574 116.924C90.085 116.815 89.5385 117.169 89.465 117.692C89.2964 118.892 91.2495 118.791 91.1593 119.432C91.1275 119.658 90.8962 119.795 90.5041 119.74C90.1297 119.688 89.9051 119.432 89.919 119.161L89.2178 119.063C89.164 119.661 89.6515 120.202 90.4358 120.312C91.2082 120.421 91.7479 120.073 91.8256 119.52ZM92.4289 120.538L93.1062 120.633L93.5663 117.359L92.889 117.264L92.4289 120.538ZM93.2945 116.879C93.5322 116.912 93.7491 116.749 93.7833 116.505C93.8175 116.262 93.6541 116.045 93.4164 116.011C93.1728 115.977 92.956 116.14 92.9218 116.384C92.8875 116.628 93.0509 116.845 93.2945 116.879ZM93.9955 120.758L94.6728 120.853L95.2908 116.456L94.6134 116.361L93.9955 120.758ZM95.5621 120.978L96.2395 121.073L96.6996 117.8L96.0222 117.704L95.5621 120.978ZM96.4278 117.319C96.6655 117.353 96.8823 117.189 96.9166 116.945C96.9508 116.702 96.7874 116.485 96.5497 116.452C96.3061 116.417 96.0893 116.581 96.055 116.824C96.0208 117.068 96.1842 117.285 96.4278 117.319ZM97.1351 119.515C96.9932 120.525 97.5787 121.316 98.4284 121.436C98.975 121.512 99.4039 121.306 99.6511 121.056L99.5826 121.543L100.266 121.639L100.726 118.365L100.043 118.269L99.9759 118.745C99.8115 118.449 99.468 118.134 98.9154 118.056C98.0539 117.935 97.2771 118.505 97.1351 119.515ZM99.8131 119.903C99.7137 120.61 99.1765 120.941 98.6655 120.869C98.1605 120.798 97.7309 120.32 97.8303 119.613C97.9297 118.906 98.4703 118.594 98.9753 118.665C99.4863 118.737 99.9117 119.202 99.8131 119.903Z" fill="white"/>
<path d="M88.5382 83.8213L89.2149 84.2442L90.3428 82.4397L91.708 83.293L92.0531 82.7409L90.6878 81.8876L91.4483 80.6708L93.1995 81.7652L93.5445 81.2132L91.1167 79.6958L88.5382 83.8213ZM95.7335 86.04C96.3754 85.0131 96.0511 83.8942 95.1191 83.3117C94.1872 82.7292 93.0393 82.9281 92.3975 83.955C91.7557 84.982 92.0465 86.0883 92.9785 86.6707C93.9164 87.2569 95.0917 87.067 95.7335 86.04ZM93.0861 84.3854C93.5498 83.6434 94.2295 83.5729 94.74 83.892C95.2445 84.2073 95.5028 84.864 95.039 85.606C94.5753 86.348 93.8503 86.3984 93.3458 86.0831C92.8353 85.764 92.6223 85.1274 93.0861 84.3854ZM97.1311 86.798C97.5652 86.1035 98.0037 86.0886 98.5023 86.4003L98.6745 86.5079L99.1123 85.8074C98.6493 85.518 98.1966 85.5158 97.8026 85.7236L98.0994 85.2487L97.4227 84.8257L95.3785 88.0965L96.0552 88.5194L97.1311 86.798ZM98.3312 88.6789C97.9157 89.3437 98.1256 89.8134 98.7074 90.177L99.2416 90.5109L99.5941 89.947L99.1785 89.6873C98.8936 89.5092 98.8617 89.3489 99.0138 89.1056L100.145 87.2951L100.941 87.7922L101.286 87.2402L100.49 86.743L100.999 85.9298L100.316 85.5031L99.8078 86.3164L99.4219 86.0752L99.0769 86.6273L99.4627 86.8684L98.3312 88.6789ZM100.671 89.1095C100.04 90.1186 100.289 91.2398 101.138 91.7703C101.684 92.1117 102.239 92.0953 102.621 91.9462L102.317 92.4329L103 92.8596L105.044 89.5889L104.361 89.1622L104.064 89.6371C104.029 89.2438 103.813 88.7452 103.261 88.4002C102.4 87.8622 101.302 88.1004 100.671 89.1095ZM103.341 90.7946C102.899 91.501 102.17 91.5982 101.659 91.2791C101.155 90.9638 100.924 90.25 101.366 89.5436C101.807 88.8372 102.531 88.7615 103.036 89.0769C103.546 89.3959 103.779 90.0942 103.341 90.7946ZM103.888 93.4151L104.565 93.8381L107.31 89.4454L106.634 89.0225L103.888 93.4151ZM108.552 92.4997C109.057 92.8151 109.254 93.3842 108.951 93.8962L107.14 92.7646C107.534 92.2927 108.095 92.2141 108.552 92.4997ZM108.971 95.2377L108.24 94.7814C107.956 94.9587 107.599 95.0159 107.183 94.7562C106.684 94.4445 106.503 93.8769 106.793 93.307L109.292 94.869C109.38 94.7673 109.453 94.6642 109.523 94.5514C110.124 93.5897 109.87 92.5309 108.938 91.9484C107.97 91.3437 106.894 91.5871 106.252 92.614C105.61 93.6409 105.889 94.7398 106.827 95.326C107.628 95.8269 108.43 95.6926 108.971 95.2377ZM113.245 94.7146L110.977 93.2974L110.632 93.8494L112.122 94.7806L109.278 96.016L108.933 96.5681L111.201 97.9853L111.546 97.4333L110.062 96.5058L112.9 95.2666L113.245 94.7146ZM112.717 96.6382C112.086 97.6473 112.335 98.7685 113.184 99.299C113.73 99.6404 114.285 99.624 114.667 99.4749L114.363 99.9616L115.045 100.388L117.09 97.1176L116.407 96.6909L116.11 97.1658C116.075 96.7725 115.859 96.2739 115.307 95.9289C114.446 95.3909 113.348 95.6291 112.717 96.6382ZM115.387 98.3233C114.945 99.0297 114.216 99.1269 113.705 98.8078C113.201 98.4925 112.97 97.7787 113.412 97.0723C113.853 96.3659 114.577 96.2902 115.082 96.6056C115.592 96.9246 115.825 97.6229 115.387 98.3233Z" fill="white"/>
<path d="M122.433 58.4651L123.024 59.4115L119.961 61.3256L120.324 61.9057L123.387 59.9916L123.975 60.9329L124.448 60.6372L122.906 58.1694L122.433 58.4651ZM124.353 65.2283C125.233 64.6782 125.403 63.6943 124.904 62.8955C124.405 62.0966 123.446 61.8186 122.566 62.3687C121.685 62.9187 121.494 63.8803 121.993 64.6792C122.495 65.4831 123.472 65.7783 124.353 65.2283ZM122.934 62.9589C123.571 62.5615 124.121 62.7625 124.394 63.2001C124.664 63.6326 124.617 64.2355 123.981 64.6329C123.345 65.0304 122.767 64.7969 122.497 64.3644C122.223 63.9268 122.298 63.3563 122.934 62.9589ZM123.307 66.6792L123.669 67.2593L124.875 66.5058L124.318 68.2973L124.807 69.0809L125.399 66.9141L127.611 67.329L127.109 66.5251L125.246 66.2737L127.434 64.9065L127.072 64.3264L123.307 66.6792ZM126.424 70.1843L128.068 68.0602L127.664 67.414L125.596 70.2415L123.876 70.5237L124.252 71.1241L129.448 70.2686L129.073 69.6681L126.424 70.1843ZM129.991 74.252C130.872 73.702 131.042 72.7181 130.543 71.9192C130.044 71.1204 129.085 70.8424 128.204 71.3924C127.324 71.9425 127.133 72.9041 127.632 73.7029C128.134 74.5069 129.111 74.8021 129.991 74.252ZM128.573 71.9827C129.209 71.5852 129.759 71.7862 130.033 72.2238C130.303 72.6563 130.255 73.2593 129.619 73.6567C128.983 74.0541 128.406 73.8207 128.135 73.3882C127.862 72.9506 127.937 72.3801 128.573 71.9827Z" fill="white"/>
<path d="M143.68 54.7079L143.861 55.735L145.88 53.1969L148.646 54.8557L148.472 53.87L145.959 52.394L148.144 52.0087L148.005 51.2228L143.214 52.0676L143.353 52.8535L145.497 52.4754L143.68 54.7079ZM145.15 57.7667L147.857 56.1876L147.703 55.3121L144.23 57.4669L142.247 57.0205L142.39 57.834L148.385 59.1795L148.241 58.366L145.15 57.7667ZM147.232 63.726C148.424 63.5157 149.039 62.526 148.848 61.4436C148.657 60.3613 147.741 59.6415 146.549 59.8517C145.356 60.062 144.728 61.0185 144.919 62.1008C145.111 63.19 146.039 63.9363 147.232 63.726ZM146.69 60.6514C147.551 60.4995 148.058 60.9573 148.163 61.5502C148.266 62.1362 147.951 62.7675 147.089 62.9194C146.228 63.0714 145.705 62.5664 145.602 61.9805C145.497 61.3876 145.828 60.8034 146.69 60.6514ZM146.543 64.7765C145.771 64.9126 145.562 65.3829 145.681 66.0585L145.791 66.679L146.445 66.5635L146.36 66.0809C146.302 65.75 146.4 65.6191 146.682 65.5692L148.785 65.1985L148.948 66.1222L149.589 66.0092L149.426 65.0854L150.37 64.9189L150.231 64.1261L149.286 64.2927L149.207 63.8446L148.566 63.9576L148.645 64.4057L146.543 64.7765ZM148.459 70.687C149.652 70.4767 150.266 69.4869 150.075 68.4046C149.884 67.3223 148.969 66.6024 147.776 66.8127C146.583 67.023 145.956 67.9795 146.147 69.0618C146.339 70.151 147.266 70.8972 148.459 70.687ZM147.917 67.6124C148.779 67.4604 149.286 67.9183 149.39 68.5112C149.494 69.0971 149.179 69.7285 148.317 69.8804C147.455 70.0323 146.933 69.5274 146.829 68.9415C146.725 68.3486 147.055 67.7643 147.917 67.6124Z" fill="white"/>
<path d="M138.192 119.48H139.68V124H141.048V119.48H142.536V118.384H138.192V119.48ZM148.751 121.176C148.751 119.488 147.479 118.304 145.879 118.304C144.287 118.304 142.991 119.488 142.991 121.176C142.991 122.864 144.287 124.056 145.879 124.056C147.471 124.056 148.751 122.864 148.751 121.176ZM144.391 121.176C144.391 120.176 144.967 119.544 145.879 119.544C146.775 119.544 147.359 120.176 147.359 121.176C147.359 122.16 146.775 122.808 145.879 122.808C144.967 122.808 144.391 122.16 144.391 121.176ZM149.208 119.48H150.696V124H152.064V119.48H153.552V118.384H149.208V119.48ZM158.07 124H159.518L157.486 118.384H155.902L153.87 124H155.302L155.638 123.008H157.734L158.07 124ZM157.382 121.952H155.998L156.686 119.896L157.382 121.952ZM160.137 118.384V124H163.297V122.944H161.505V118.384H160.137ZM169.724 122.328C169.724 120.448 166.948 120.888 166.948 119.912C166.948 119.56 167.196 119.392 167.524 119.4C167.892 119.408 168.148 119.624 168.172 119.984H169.652C169.596 118.912 168.772 118.304 167.548 118.304C166.372 118.304 165.5 118.896 165.5 119.96C165.484 121.952 168.292 121.392 168.292 122.432C168.292 122.76 168.036 122.96 167.636 122.96C167.252 122.96 166.98 122.752 166.94 122.32H165.484C165.524 123.456 166.468 124.056 167.676 124.056C168.988 124.056 169.724 123.272 169.724 122.328ZM174.398 124H175.846L173.814 118.384H172.23L170.198 124H171.63L171.966 123.008H174.062L174.398 124ZM173.71 121.952H172.326L173.014 119.896L173.71 121.952ZM176.465 118.384V124H179.625V122.944H177.833V118.384H176.465ZM183.717 118.384H180.277V124H183.717V122.904H181.645V121.672H183.477V120.616H181.645V119.48H183.717V118.384ZM188.685 122.328C188.685 120.448 185.909 120.888 185.909 119.912C185.909 119.56 186.157 119.392 186.485 119.4C186.853 119.408 187.109 119.624 187.133 119.984H188.613C188.557 118.912 187.733 118.304 186.509 118.304C185.333 118.304 184.461 118.896 184.461 119.96C184.445 121.952 187.253 121.392 187.253 122.432C187.253 122.76 186.997 122.96 186.597 122.96C186.213 122.96 185.941 122.752 185.901 122.32H184.445C184.485 123.456 185.429 124.056 186.637 124.056C187.949 124.056 188.685 123.272 188.685 122.328Z" fill="#A7B0B5"/>
<path d="M132.135 142.171H132.839V141.28C134.577 141.203 135.523 140.158 135.523 138.97C135.523 137.265 134.016 136.946 132.839 136.616V134.911C133.147 135.021 133.356 135.274 133.4 135.681H135.413C135.314 134.284 134.346 133.514 132.839 133.393V132.502H132.135V133.393C130.639 133.492 129.484 134.306 129.484 135.681C129.484 137.408 130.958 137.738 132.135 138.046V139.784C131.761 139.663 131.541 139.388 131.497 138.937H129.495C129.55 140.356 130.639 141.137 132.135 141.269V142.171ZM133.554 139.036C133.554 139.443 133.279 139.74 132.839 139.817V138.255C133.268 138.42 133.554 138.64 133.554 139.036ZM131.475 135.593C131.475 135.164 131.728 134.922 132.135 134.856V136.385C131.739 136.209 131.475 135.978 131.475 135.593ZM137.626 141.214H139.584V133.184H136.537V134.933H137.626V141.214ZM140.585 142.875H141.817L143.214 139.311H141.289L140.585 142.875ZM144.061 137.089C144.061 139.465 144.864 141.181 147.152 141.181C149.44 141.181 150.243 139.465 150.243 137.089C150.243 134.735 149.44 133.019 147.152 133.019C144.864 133.019 144.061 134.735 144.061 137.089ZM148.395 137.089C148.395 138.365 148.263 139.421 147.152 139.421C146.041 139.421 145.909 138.365 145.909 137.089C145.909 135.857 146.041 134.779 147.152 134.779C148.263 134.779 148.395 135.857 148.395 137.089ZM151.171 141.104H156.693V139.575H153.723C154.999 138.596 156.572 137.188 156.572 135.428C156.572 134.075 155.758 133.008 153.932 133.008C152.469 133.008 151.204 133.844 151.149 135.791H152.964C152.964 135.032 153.294 134.592 153.855 134.592C154.427 134.592 154.691 134.966 154.691 135.549C154.691 136.902 152.876 138.299 151.171 139.707V141.104ZM157.235 142.875H158.467L159.864 139.311H157.939L157.235 142.875ZM160.998 138.86C161.086 140.092 161.933 141.247 163.682 141.247C165.838 141.247 166.476 139.729 166.476 136.99C166.476 134.548 165.838 132.997 163.55 132.997C161.845 132.997 160.789 134.053 160.789 135.681C160.789 137.386 161.845 138.244 163.22 138.244C163.902 138.244 164.496 137.98 164.815 137.529C164.815 139.058 164.54 139.729 163.748 139.729C163.165 139.729 162.846 139.421 162.736 138.86H160.998ZM163.649 136.759C162.912 136.759 162.56 136.308 162.56 135.703C162.56 135.032 162.956 134.614 163.605 134.614C164.243 134.614 164.661 134.999 164.661 135.714C164.661 136.363 164.265 136.759 163.649 136.759ZM173.199 135.351C173.1 134.163 172.33 133.019 170.603 133.019C168.524 133.019 167.666 134.394 167.666 137.144C167.666 139.542 168.26 141.258 170.68 141.258C172.407 141.258 173.419 140.158 173.419 138.563C173.419 136.891 172.429 135.978 171.032 135.978C170.295 135.978 169.646 136.286 169.327 136.803C169.338 135.252 169.668 134.537 170.515 134.537C171.076 134.537 171.34 134.823 171.45 135.351H173.199ZM170.581 137.463C171.285 137.463 171.648 137.903 171.648 138.574C171.648 139.256 171.241 139.663 170.603 139.663C169.888 139.663 169.481 139.245 169.481 138.541C169.481 137.815 169.987 137.463 170.581 137.463ZM180.203 135.351C180.104 134.163 179.334 133.019 177.607 133.019C175.528 133.019 174.67 134.394 174.67 137.144C174.67 139.542 175.264 141.258 177.684 141.258C179.411 141.258 180.423 140.158 180.423 138.563C180.423 136.891 179.433 135.978 178.036 135.978C177.299 135.978 176.65 136.286 176.331 136.803C176.342 135.252 176.672 134.537 177.519 134.537C178.08 134.537 178.344 134.823 178.454 135.351H180.203ZM177.585 137.463C178.289 137.463 178.652 137.903 178.652 138.574C178.652 139.256 178.245 139.663 177.607 139.663C176.892 139.663 176.485 139.245 176.485 138.541C176.485 137.815 176.991 137.463 177.585 137.463ZM183.665 140.29C183.665 139.707 183.214 139.256 182.554 139.256C181.883 139.256 181.432 139.707 181.432 140.29C181.432 140.851 181.883 141.302 182.554 141.302C183.214 141.302 183.665 140.851 183.665 140.29ZM190.312 135.351C190.213 134.163 189.443 133.019 187.716 133.019C185.637 133.019 184.779 134.394 184.779 137.144C184.779 139.542 185.373 141.258 187.793 141.258C189.52 141.258 190.532 140.158 190.532 138.563C190.532 136.891 189.542 135.978 188.145 135.978C187.408 135.978 186.759 136.286 186.44 136.803C186.451 135.252 186.781 134.537 187.628 134.537C188.189 134.537 188.453 134.823 188.563 135.351H190.312ZM187.694 137.463C188.398 137.463 188.761 137.903 188.761 138.574C188.761 139.256 188.354 139.663 187.716 139.663C187.001 139.663 186.594 139.245 186.594 138.541C186.594 137.815 187.1 137.463 187.694 137.463ZM197.316 135.351C197.217 134.163 196.447 133.019 194.72 133.019C192.641 133.019 191.783 134.394 191.783 137.144C191.783 139.542 192.377 141.258 194.797 141.258C196.524 141.258 197.536 140.158 197.536 138.563C197.536 136.891 196.546 135.978 195.149 135.978C194.412 135.978 193.763 136.286 193.444 136.803C193.455 135.252 193.785 134.537 194.632 134.537C195.193 134.537 195.457 134.823 195.567 135.351H197.316ZM194.698 137.463C195.402 137.463 195.765 137.903 195.765 138.574C195.765 139.256 195.358 139.663 194.72 139.663C194.005 139.663 193.598 139.245 193.598 138.541C193.598 137.815 194.104 137.463 194.698 137.463Z" fill="#50585D"/>
</svg>
