<svg width="442" height="260" viewBox="0 0 442 260" fill="none" xmlns="http://www.w3.org/2000/svg">
<path d="M1.9091 13.016H2.1691V12.688C2.7091 12.64 3.0051 12.264 3.0051 11.876C3.0051 11.312 2.5691 11.204 2.1691 11.108V10.244C2.3611 10.292 2.4731 10.44 2.4891 10.6H2.9771C2.9411 10.148 2.6291 9.89597 2.1691 9.85597V9.53197H1.9091V9.85997C1.4131 9.90397 1.0691 10.212 1.0691 10.66C1.0691 11.224 1.5091 11.336 1.9091 11.436V12.316C1.6851 12.276 1.5731 12.128 1.5571 11.928H1.0691C1.0691 12.38 1.4211 12.648 1.9091 12.692V13.016ZM2.5451 11.9C2.5451 12.108 2.4091 12.276 2.1691 12.316V11.504C2.3851 11.572 2.5451 11.672 2.5451 11.9ZM1.5331 10.636C1.5331 10.392 1.6891 10.26 1.9091 10.232V11.04C1.6931 10.972 1.5331 10.868 1.5331 10.636ZM3.98266 12.668H4.44266V9.75197H3.61066V10.168H3.98266V12.668ZM5.0331 12.628H6.9771V12.248H5.7091C6.1771 11.82 6.8971 11.28 6.8971 10.572C6.8971 10.048 6.5611 9.69197 5.9691 9.69197C5.4531 9.69197 5.0451 9.99997 5.0291 10.632H5.4691C5.4811 10.304 5.6531 10.08 5.9731 10.08C6.3131 10.08 6.4451 10.288 6.4451 10.592C6.4451 11.164 5.7211 11.692 5.0331 12.296V12.628ZM7.4977 9.74397V11.428H7.9297C8.0057 11.212 8.1857 11.064 8.4537 11.064C8.8337 11.064 9.0217 11.28 9.0217 11.66C9.0217 12.02 8.8457 12.288 8.4537 12.288C8.1457 12.288 7.9377 12.128 7.8777 11.88H7.4337C7.5017 12.336 7.8497 12.668 8.4497 12.668C9.1257 12.668 9.4577 12.228 9.4577 11.648C9.4577 11.208 9.2377 10.676 8.5217 10.676C8.2617 10.676 8.0257 10.796 7.9177 10.94V10.144H9.2577V9.74397H7.4977ZM10.4644 12.404C10.4644 12.24 10.3364 12.112 10.1764 12.112C10.0124 12.112 9.88438 12.24 9.88438 12.404C9.88438 12.568 10.0124 12.696 10.1764 12.696C10.3364 12.696 10.4644 12.568 10.4644 12.404ZM10.8972 11.172C10.8972 12.02 11.1212 12.66 11.9372 12.66C12.7532 12.66 12.9772 12.02 12.9772 11.172C12.9772 10.34 12.7532 9.69997 11.9372 9.69997C11.1212 9.69997 10.8972 10.34 10.8972 11.172ZM12.5292 11.172C12.5292 11.744 12.4692 12.244 11.9372 12.244C11.4052 12.244 11.3452 11.744 11.3452 11.172C11.3452 10.628 11.4052 10.116 11.9372 10.116C12.4692 10.116 12.5292 10.628 12.5292 11.172ZM13.4597 11.172C13.4597 12.02 13.6837 12.66 14.4997 12.66C15.3157 12.66 15.5397 12.02 15.5397 11.172C15.5397 10.34 15.3157 9.69997 14.4997 9.69997C13.6837 9.69997 13.4597 10.34 13.4597 11.172ZM15.0917 11.172C15.0917 11.744 15.0317 12.244 14.4997 12.244C13.9677 12.244 13.9077 11.744 13.9077 11.172C13.9077 10.628 13.9677 10.116 14.4997 10.116C15.0317 10.116 15.0917 10.628 15.0917 11.172Z" fill="#50585D"/>
<path d="M3.83879 95.078H4.09879V94.75C4.63879 94.702 4.93479 94.326 4.93479 93.938C4.93479 93.374 4.49879 93.266 4.09879 93.17V92.306C4.29079 92.354 4.40279 92.502 4.41879 92.662H4.90679C4.87079 92.21 4.55879 91.958 4.09879 91.918V91.594H3.83879V91.922C3.34279 91.966 2.99879 92.274 2.99879 92.722C2.99879 93.286 3.43879 93.398 3.83879 93.498V94.378C3.61479 94.338 3.50279 94.19 3.48679 93.99H2.99879C2.99879 94.442 3.35079 94.71 3.83879 94.754V95.078ZM4.47479 93.962C4.47479 94.17 4.33879 94.338 4.09879 94.378V93.566C4.31479 93.634 4.47479 93.734 4.47479 93.962ZM3.46279 92.698C3.46279 92.454 3.61879 92.322 3.83879 92.294V93.102C3.62279 93.034 3.46279 92.93 3.46279 92.698ZM5.52035 91.826V92.214H7.00035L5.87635 94.73H6.33635L7.44835 92.166V91.826H5.52035ZM7.95863 91.806V93.49H8.39063C8.46663 93.274 8.64663 93.126 8.91463 93.126C9.29463 93.126 9.48263 93.342 9.48263 93.722C9.48263 94.082 9.30663 94.35 8.91463 94.35C8.60663 94.35 8.39863 94.19 8.33863 93.942H7.89463C7.96263 94.398 8.31063 94.73 8.91063 94.73C9.58663 94.73 9.91863 94.29 9.91863 93.71C9.91863 93.27 9.69863 92.738 8.98263 92.738C8.72263 92.738 8.48663 92.858 8.37863 93.002V92.206H9.71863V91.806H7.95863ZM10.9253 94.466C10.9253 94.302 10.7973 94.174 10.6373 94.174C10.4733 94.174 10.3453 94.302 10.3453 94.466C10.3453 94.63 10.4733 94.758 10.6373 94.758C10.7973 94.758 10.9253 94.63 10.9253 94.466ZM11.3582 93.234C11.3582 94.082 11.5822 94.722 12.3982 94.722C13.2142 94.722 13.4382 94.082 13.4382 93.234C13.4382 92.402 13.2142 91.762 12.3982 91.762C11.5822 91.762 11.3582 92.402 11.3582 93.234ZM12.9902 93.234C12.9902 93.806 12.9302 94.306 12.3982 94.306C11.8662 94.306 11.8062 93.806 11.8062 93.234C11.8062 92.69 11.8662 92.178 12.3982 92.178C12.9302 92.178 12.9902 92.69 12.9902 93.234ZM13.9207 93.234C13.9207 94.082 14.1447 94.722 14.9607 94.722C15.7767 94.722 16.0007 94.082 16.0007 93.234C16.0007 92.402 15.7767 91.762 14.9607 91.762C14.1447 91.762 13.9207 92.402 13.9207 93.234ZM15.5527 93.234C15.5527 93.806 15.4927 94.306 14.9607 94.306C14.4287 94.306 14.3687 93.806 14.3687 93.234C14.3687 92.69 14.4287 92.178 14.9607 92.178C15.4927 92.178 15.5527 92.69 15.5527 93.234Z" fill="#50585D"/>
<path d="M1.64494 54.047H1.90494V53.719C2.44494 53.671 2.74094 53.295 2.74094 52.907C2.74094 52.343 2.30494 52.235 1.90494 52.139V51.275C2.09694 51.323 2.20894 51.471 2.22494 51.631H2.71294C2.67694 51.179 2.36494 50.927 1.90494 50.887V50.563H1.64494V50.891C1.14894 50.935 0.804941 51.243 0.804941 51.691C0.804941 52.255 1.24494 52.367 1.64494 52.467V53.347C1.42094 53.307 1.30894 53.159 1.29294 52.959H0.804941C0.804941 53.411 1.15694 53.679 1.64494 53.723V54.047ZM2.28094 52.931C2.28094 53.139 2.14494 53.307 1.90494 53.347V52.535C2.12094 52.603 2.28094 52.703 2.28094 52.931ZM1.26894 51.667C1.26894 51.423 1.42494 51.291 1.64494 51.263V52.071C1.42894 52.003 1.26894 51.899 1.26894 51.667ZM3.7185 53.699H4.1785V50.783H3.3465V51.199H3.7185V53.699ZM4.80494 52.203C4.80494 53.051 5.02894 53.691 5.84494 53.691C6.66094 53.691 6.88494 53.051 6.88494 52.203C6.88494 51.371 6.66094 50.731 5.84494 50.731C5.02894 50.731 4.80494 51.371 4.80494 52.203ZM6.43694 52.203C6.43694 52.775 6.37694 53.275 5.84494 53.275C5.31294 53.275 5.25294 52.775 5.25294 52.203C5.25294 51.659 5.31294 51.147 5.84494 51.147C6.37694 51.147 6.43694 51.659 6.43694 52.203ZM7.36744 52.203C7.36744 53.051 7.59144 53.691 8.40744 53.691C9.22344 53.691 9.44744 53.051 9.44744 52.203C9.44744 51.371 9.22344 50.731 8.40744 50.731C7.59144 50.731 7.36744 51.371 7.36744 52.203ZM8.99944 52.203C8.99944 52.775 8.93944 53.275 8.40744 53.275C7.87544 53.275 7.81544 52.775 7.81544 52.203C7.81544 51.659 7.87544 51.147 8.40744 51.147C8.93944 51.147 8.99944 51.659 8.99944 52.203ZM10.4619 53.435C10.4619 53.271 10.3339 53.143 10.1739 53.143C10.0099 53.143 9.88194 53.271 9.88194 53.435C9.88194 53.599 10.0099 53.727 10.1739 53.727C10.3339 53.727 10.4619 53.599 10.4619 53.435ZM10.8948 52.203C10.8948 53.051 11.1188 53.691 11.9348 53.691C12.7508 53.691 12.9748 53.051 12.9748 52.203C12.9748 51.371 12.7508 50.731 11.9348 50.731C11.1188 50.731 10.8948 51.371 10.8948 52.203ZM12.5268 52.203C12.5268 52.775 12.4668 53.275 11.9348 53.275C11.4028 53.275 11.3428 52.775 11.3428 52.203C11.3428 51.659 11.4028 51.147 11.9348 51.147C12.4668 51.147 12.5268 51.659 12.5268 52.203ZM13.4573 52.203C13.4573 53.051 13.6813 53.691 14.4973 53.691C15.3133 53.691 15.5373 53.051 15.5373 52.203C15.5373 51.371 15.3133 50.731 14.4973 50.731C13.6813 50.731 13.4573 51.371 13.4573 52.203ZM15.0893 52.203C15.0893 52.775 15.0293 53.275 14.4973 53.275C13.9653 53.275 13.9053 52.775 13.9053 52.203C13.9053 51.659 13.9653 51.147 14.4973 51.147C15.0293 51.147 15.0893 51.659 15.0893 52.203Z" fill="#50585D"/>
<path d="M5.14881 140.103H5.53881V139.611C6.34881 139.539 6.79281 138.975 6.79281 138.393C6.79281 137.547 6.13881 137.385 5.53881 137.241V135.945C5.82681 136.017 5.99481 136.239 6.01881 136.479H6.75081C6.69681 135.801 6.22881 135.423 5.53881 135.363V134.877H5.14881V135.369C4.40481 135.435 3.88881 135.897 3.88881 136.569C3.88881 137.415 4.54881 137.583 5.14881 137.733V139.053C4.81281 138.993 4.64481 138.771 4.62081 138.471H3.88881C3.88881 139.149 4.41681 139.551 5.14881 139.617V140.103ZM6.10281 138.429C6.10281 138.741 5.89881 138.993 5.53881 139.053V137.835C5.86281 137.937 6.10281 138.087 6.10281 138.429ZM4.58481 136.533C4.58481 136.167 4.81881 135.969 5.14881 135.927V137.139C4.82481 137.037 4.58481 136.881 4.58481 136.533ZM7.97115 135.195V137.721H8.61915C8.73315 137.397 9.00315 137.175 9.40515 137.175C9.97515 137.175 10.2572 137.499 10.2572 138.069C10.2572 138.609 9.99315 139.011 9.40515 139.011C8.94315 139.011 8.63115 138.771 8.54115 138.399H7.87515C7.97715 139.083 8.49915 139.581 9.39915 139.581C10.4132 139.581 10.9112 138.921 10.9112 138.051C10.9112 137.391 10.5812 136.593 9.50715 136.593C9.11715 136.593 8.76315 136.773 8.60115 136.989V135.795H10.6112V135.195H7.97115ZM11.6232 137.337C11.6232 138.609 11.9592 139.569 13.1832 139.569C14.4072 139.569 14.7432 138.609 14.7432 137.337C14.7432 136.089 14.4072 135.129 13.1832 135.129C11.9592 135.129 11.6232 136.089 11.6232 137.337ZM14.0712 137.337C14.0712 138.195 13.9812 138.945 13.1832 138.945C12.3852 138.945 12.2952 138.195 12.2952 137.337C12.2952 136.521 12.3852 135.753 13.1832 135.753C13.9812 135.753 14.0712 136.521 14.0712 137.337ZM16.2649 139.185C16.2649 138.939 16.0729 138.747 15.8329 138.747C15.5869 138.747 15.3949 138.939 15.3949 139.185C15.3949 139.431 15.5869 139.623 15.8329 139.623C16.0729 139.623 16.2649 139.431 16.2649 139.185ZM16.9142 137.337C16.9142 138.609 17.2502 139.569 18.4742 139.569C19.6982 139.569 20.0342 138.609 20.0342 137.337C20.0342 136.089 19.6982 135.129 18.4742 135.129C17.2502 135.129 16.9142 136.089 16.9142 137.337ZM19.3622 137.337C19.3622 138.195 19.2722 138.945 18.4742 138.945C17.6762 138.945 17.5862 138.195 17.5862 137.337C17.5862 136.521 17.6762 135.753 18.4742 135.753C19.2722 135.753 19.3622 136.521 19.3622 137.337ZM20.7579 137.337C20.7579 138.609 21.0939 139.569 22.3179 139.569C23.5419 139.569 23.8779 138.609 23.8779 137.337C23.8779 136.089 23.5419 135.129 22.3179 135.129C21.0939 135.129 20.7579 136.089 20.7579 137.337ZM23.2059 137.337C23.2059 138.195 23.1159 138.945 22.3179 138.945C21.5199 138.945 21.4299 138.195 21.4299 137.337C21.4299 136.521 21.5199 135.753 22.3179 135.753C23.1159 135.753 23.2059 136.521 23.2059 137.337Z" fill="#50585D"/>
<path d="M5.59074 177.96H5.85074V177.632C6.39074 177.584 6.68674 177.208 6.68674 176.82C6.68674 176.256 6.25074 176.148 5.85074 176.052V175.188C6.04274 175.236 6.15474 175.384 6.17074 175.544H6.65874C6.62274 175.092 6.31074 174.84 5.85074 174.8V174.476H5.59074V174.804C5.09474 174.848 4.75074 175.156 4.75074 175.604C4.75074 176.168 5.19074 176.28 5.59074 176.38V177.26C5.36674 177.22 5.25474 177.072 5.23874 176.872H4.75074C4.75074 177.324 5.10274 177.592 5.59074 177.636V177.96ZM6.22674 176.844C6.22674 177.052 6.09074 177.22 5.85074 177.26V176.448C6.06674 176.516 6.22674 176.616 6.22674 176.844ZM5.21474 175.58C5.21474 175.336 5.37074 175.204 5.59074 175.176V175.984C5.37474 175.916 5.21474 175.812 5.21474 175.58ZM7.3163 177.572H9.2603V177.192H7.9923C8.4603 176.764 9.1803 176.224 9.1803 175.516C9.1803 174.992 8.8443 174.636 8.2523 174.636C7.7363 174.636 7.3283 174.944 7.3123 175.576H7.7523C7.7643 175.248 7.9363 175.024 8.2563 175.024C8.5963 175.024 8.7283 175.232 8.7283 175.536C8.7283 176.108 8.0043 176.636 7.3163 177.24V177.572ZM9.7809 174.688V176.372H10.2129C10.2889 176.156 10.4689 176.008 10.7369 176.008C11.1169 176.008 11.3049 176.224 11.3049 176.604C11.3049 176.964 11.1289 177.232 10.7369 177.232C10.4289 177.232 10.2209 177.072 10.1609 176.824H9.7169C9.7849 177.28 10.1329 177.612 10.7329 177.612C11.4089 177.612 11.7409 177.172 11.7409 176.592C11.7409 176.152 11.5209 175.62 10.8049 175.62C10.5449 175.62 10.3089 175.74 10.2009 175.884V175.088H11.5409V174.688H9.7809ZM12.7476 177.348C12.7476 177.184 12.6196 177.056 12.4596 177.056C12.2956 177.056 12.1676 177.184 12.1676 177.348C12.1676 177.512 12.2956 177.64 12.4596 177.64C12.6196 177.64 12.7476 177.512 12.7476 177.348ZM13.1804 176.116C13.1804 176.964 13.4044 177.604 14.2204 177.604C15.0364 177.604 15.2604 176.964 15.2604 176.116C15.2604 175.284 15.0364 174.644 14.2204 174.644C13.4044 174.644 13.1804 175.284 13.1804 176.116ZM14.8124 176.116C14.8124 176.688 14.7524 177.188 14.2204 177.188C13.6884 177.188 13.6284 176.688 13.6284 176.116C13.6284 175.572 13.6884 175.06 14.2204 175.06C14.7524 175.06 14.8124 175.572 14.8124 176.116ZM15.7429 176.116C15.7429 176.964 15.9669 177.604 16.7829 177.604C17.5989 177.604 17.8229 176.964 17.8229 176.116C17.8229 175.284 17.5989 174.644 16.7829 174.644C15.9669 174.644 15.7429 175.284 15.7429 176.116ZM17.3749 176.116C17.3749 176.688 17.3149 177.188 16.7829 177.188C16.2509 177.188 16.1909 176.688 16.1909 176.116C16.1909 175.572 16.2509 175.06 16.7829 175.06C17.3149 175.06 17.3749 175.572 17.3749 176.116Z" fill="#50585D"/>
<path d="M415.617 13.537H416.073V10.757H415.617V11.949H414.309V10.757H413.853V13.537H414.309V12.321H415.617V13.537ZM417.581 10.757H416.673V13.537H417.581C418.473 13.537 419.057 13.013 419.057 12.157C419.057 11.297 418.473 10.757 417.581 10.757ZM417.129 13.165V11.129H417.581C418.237 11.129 418.589 11.521 418.589 12.157C418.589 12.789 418.237 13.165 417.581 13.165H417.129ZM422.116 12.741C422.116 13.009 421.928 13.165 421.62 13.165H421.004V12.297H421.604C421.908 12.297 422.116 12.465 422.116 12.741ZM422.044 11.529C422.044 11.785 421.864 11.925 421.568 11.925H421.004V11.129H421.568C421.864 11.129 422.044 11.277 422.044 11.529ZM422.572 12.789C422.572 12.457 422.332 12.161 422.036 12.109C422.304 12.013 422.508 11.809 422.508 11.473C422.508 11.081 422.196 10.757 421.608 10.757H420.548V13.537H421.66C422.228 13.537 422.572 13.213 422.572 12.789ZM425.064 11.333H424.608V12.561C424.608 12.965 424.388 13.173 424.052 13.173C423.72 13.173 423.5 12.965 423.5 12.561V11.333H423.048V12.629C423.048 13.245 423.44 13.569 423.956 13.569C424.216 13.569 424.464 13.461 424.608 13.273V13.537H425.064V11.333ZM426.533 13.013L425.913 11.333H425.405L426.273 13.501L425.825 14.573H426.297L427.649 11.333H427.177L426.533 13.013ZM430.908 12.749C430.908 11.733 429.436 12.125 429.436 11.497C429.436 11.229 429.64 11.101 429.904 11.109C430.192 11.117 430.356 11.289 430.372 11.477H430.876C430.836 11.001 430.46 10.721 429.928 10.721C429.36 10.721 428.972 11.025 428.972 11.513C428.972 12.537 430.448 12.101 430.448 12.773C430.448 13.009 430.268 13.181 429.948 13.181C429.632 13.181 429.472 12.997 429.452 12.769H428.964C428.964 13.261 429.392 13.565 429.948 13.565C430.568 13.565 430.908 13.165 430.908 12.749ZM431.294 12.425C431.294 13.105 431.754 13.573 432.326 13.573C432.694 13.573 432.958 13.397 433.098 13.209V13.537H433.558V11.333H433.098V11.653C432.962 11.473 432.706 11.297 432.334 11.297C431.754 11.297 431.294 11.745 431.294 12.425ZM433.098 12.433C433.098 12.909 432.774 13.177 432.43 13.177C432.09 13.177 431.762 12.901 431.762 12.425C431.762 11.949 432.09 11.693 432.43 11.693C432.774 11.693 433.098 11.961 433.098 12.433ZM434.157 13.537H434.613V10.577H434.157V13.537ZM436.14 11.681C436.48 11.681 436.748 11.897 436.756 12.237H435.536C435.584 11.889 435.832 11.681 436.14 11.681ZM437.172 12.881H436.68C436.596 13.053 436.44 13.189 436.16 13.189C435.824 13.189 435.564 12.969 435.532 12.605H437.216C437.228 12.529 437.232 12.457 437.232 12.381C437.232 11.733 436.788 11.297 436.16 11.297C435.508 11.297 435.06 11.741 435.06 12.433C435.06 13.125 435.528 13.573 436.16 13.573C436.7 13.573 437.048 13.265 437.172 12.881Z" fill="#50585D"/>
<path d="M415.617 31.5911H416.073V28.8111H415.617V30.0031H414.309V28.8111H413.853V31.5911H414.309V30.3751H415.617V31.5911ZM417.581 28.8111H416.673V31.5911H417.581C418.473 31.5911 419.057 31.0671 419.057 30.2111C419.057 29.3511 418.473 28.8111 417.581 28.8111ZM417.129 31.2191V29.1831H417.581C418.237 29.1831 418.589 29.5751 418.589 30.2111C418.589 30.8431 418.237 31.2191 417.581 31.2191H417.129ZM422.024 29.6431C422.024 29.9191 421.864 30.1151 421.508 30.1151H421.004V29.1831H421.508C421.864 29.1831 422.024 29.3631 422.024 29.6431ZM420.548 28.8111V31.5911H421.004V30.4791H421.352L421.992 31.5911H422.536L421.848 30.4391C422.316 30.3231 422.492 29.9711 422.492 29.6431C422.492 29.1911 422.168 28.8111 421.508 28.8111H420.548ZM424.003 29.7351C424.343 29.7351 424.611 29.9511 424.619 30.2911H423.399C423.447 29.9431 423.695 29.7351 424.003 29.7351ZM425.035 30.9351H424.543C424.459 31.1071 424.303 31.2431 424.023 31.2431C423.687 31.2431 423.427 31.0231 423.395 30.6591H425.079C425.091 30.5831 425.095 30.5111 425.095 30.4351C425.095 29.7871 424.651 29.3511 424.023 29.3511C423.371 29.3511 422.923 29.7951 422.923 30.4871C422.923 31.1791 423.391 31.6271 424.023 31.6271C424.563 31.6271 424.911 31.3191 425.035 30.9351ZM427.108 31.5911H427.56V30.2911C427.56 29.6751 427.172 29.3511 426.656 29.3511C426.392 29.3511 426.148 29.4591 426 29.6391V29.3871H425.544V31.5911H426V30.3591C426 29.9551 426.22 29.7471 426.556 29.7471C426.888 29.7471 427.108 29.9551 427.108 30.3591V31.5911ZM428.214 30.9791C428.214 31.4271 428.458 31.5911 428.85 31.5911H429.21V31.2111H428.93C428.738 31.2111 428.674 31.1431 428.674 30.9791V29.7591H429.21V29.3871H428.674V28.8391H428.214V29.3871H427.954V29.7591H428.214V30.9791ZM432.545 30.8031C432.545 29.7871 431.073 30.1791 431.073 29.5511C431.073 29.2831 431.277 29.1551 431.541 29.1631C431.829 29.1711 431.993 29.3431 432.009 29.5311H432.513C432.473 29.0551 432.097 28.7751 431.565 28.7751C430.997 28.7751 430.609 29.0791 430.609 29.5671C430.609 30.5911 432.085 30.1551 432.085 30.8271C432.085 31.0631 431.905 31.2351 431.585 31.2351C431.269 31.2351 431.109 31.0511 431.089 30.8231H430.601C430.601 31.3151 431.029 31.6191 431.585 31.6191C432.205 31.6191 432.545 31.2191 432.545 30.8031ZM432.931 30.4791C432.931 31.1591 433.391 31.6271 433.963 31.6271C434.331 31.6271 434.595 31.4511 434.735 31.2631V31.5911H435.195V29.3871H434.735V29.7071C434.599 29.5271 434.343 29.3511 433.971 29.3511C433.391 29.3511 432.931 29.7991 432.931 30.4791ZM434.735 30.4871C434.735 30.9631 434.411 31.2311 434.067 31.2311C433.727 31.2311 433.399 30.9551 433.399 30.4791C433.399 30.0031 433.727 29.7471 434.067 29.7471C434.411 29.7471 434.735 30.0151 434.735 30.4871ZM435.794 31.5911H436.25V28.6311H435.794V31.5911ZM437.777 29.7351C438.117 29.7351 438.385 29.9511 438.393 30.2911H437.173C437.221 29.9431 437.469 29.7351 437.777 29.7351ZM438.809 30.9351H438.317C438.233 31.1071 438.077 31.2431 437.797 31.2431C437.461 31.2431 437.201 31.0231 437.169 30.6591H438.853C438.865 30.5831 438.869 30.5111 438.869 30.4351C438.869 29.7871 438.425 29.3511 437.797 29.3511C437.145 29.3511 436.697 29.7951 436.697 30.4871C436.697 31.1791 437.165 31.6271 437.797 31.6271C438.337 31.6271 438.685 31.3191 438.809 30.9351ZM440.962 30.9751C440.938 30.1791 439.694 30.4271 439.694 29.9831C439.694 29.8351 439.822 29.7351 440.066 29.7351C440.314 29.7351 440.462 29.8671 440.478 30.0591H440.934C440.91 29.6191 440.582 29.3511 440.082 29.3511C439.562 29.3511 439.234 29.6351 439.234 29.9871C439.234 30.7951 440.514 30.5471 440.514 30.9791C440.514 31.1311 440.374 31.2431 440.11 31.2431C439.858 31.2431 439.686 31.0951 439.67 30.9151H439.198C439.218 31.3151 439.59 31.6271 440.118 31.6271C440.638 31.6271 440.962 31.3471 440.962 30.9751Z" fill="#50585D"/>
<path d="M415.729 48.857C415.729 47.841 414.257 48.233 414.257 47.605C414.257 47.337 414.461 47.209 414.725 47.217C415.013 47.225 415.177 47.397 415.193 47.585H415.697C415.657 47.109 415.281 46.829 414.749 46.829C414.181 46.829 413.793 47.133 413.793 47.621C413.793 48.645 415.269 48.209 415.269 48.881C415.269 49.117 415.089 49.289 414.769 49.289C414.453 49.289 414.293 49.105 414.273 48.877H413.785C413.785 49.369 414.213 49.673 414.769 49.673C415.389 49.673 415.729 49.273 415.729 48.857ZM417.175 46.865H416.267V49.645H417.175C418.067 49.645 418.651 49.121 418.651 48.265C418.651 47.405 418.067 46.865 417.175 46.865ZM416.723 49.273V47.237H417.175C417.831 47.237 418.183 47.629 418.183 48.265C418.183 48.897 417.831 49.273 417.175 49.273H416.723ZM421.71 48.849C421.71 49.117 421.522 49.273 421.214 49.273H420.598V48.405H421.198C421.502 48.405 421.71 48.573 421.71 48.849ZM421.638 47.637C421.638 47.893 421.458 48.033 421.162 48.033H420.598V47.237H421.162C421.458 47.237 421.638 47.385 421.638 47.637ZM422.166 48.897C422.166 48.565 421.926 48.269 421.63 48.217C421.898 48.121 422.102 47.917 422.102 47.581C422.102 47.189 421.79 46.865 421.202 46.865H420.142V49.645H421.254C421.822 49.645 422.166 49.321 422.166 48.897ZM424.657 47.441H424.201V48.669C424.201 49.073 423.981 49.281 423.645 49.281C423.313 49.281 423.093 49.073 423.093 48.669V47.441H422.641V48.737C422.641 49.353 423.033 49.677 423.549 49.677C423.809 49.677 424.057 49.569 424.201 49.381V49.645H424.657V47.441ZM426.127 49.121L425.507 47.441H424.999L425.867 49.609L425.419 50.681H425.891L427.243 47.441H426.771L426.127 49.121ZM430.502 48.857C430.502 47.841 429.03 48.233 429.03 47.605C429.03 47.337 429.234 47.209 429.498 47.217C429.786 47.225 429.95 47.397 429.966 47.585H430.47C430.43 47.109 430.054 46.829 429.522 46.829C428.954 46.829 428.566 47.133 428.566 47.621C428.566 48.645 430.042 48.209 430.042 48.881C430.042 49.117 429.862 49.289 429.542 49.289C429.226 49.289 429.066 49.105 429.046 48.877H428.558C428.558 49.369 428.986 49.673 429.542 49.673C430.162 49.673 430.502 49.273 430.502 48.857ZM430.888 48.533C430.888 49.213 431.348 49.681 431.92 49.681C432.288 49.681 432.552 49.505 432.692 49.317V49.645H433.152V47.441H432.692V47.761C432.556 47.581 432.3 47.405 431.928 47.405C431.348 47.405 430.888 47.853 430.888 48.533ZM432.692 48.541C432.692 49.017 432.368 49.285 432.024 49.285C431.684 49.285 431.356 49.009 431.356 48.533C431.356 48.057 431.684 47.801 432.024 47.801C432.368 47.801 432.692 48.069 432.692 48.541ZM433.751 49.645H434.207V46.685H433.751V49.645ZM435.734 47.789C436.074 47.789 436.342 48.005 436.35 48.345H435.13C435.178 47.997 435.426 47.789 435.734 47.789ZM436.766 48.989H436.274C436.19 49.161 436.034 49.297 435.754 49.297C435.418 49.297 435.158 49.077 435.126 48.713H436.81C436.822 48.637 436.826 48.565 436.826 48.489C436.826 47.841 436.382 47.405 435.754 47.405C435.102 47.405 434.654 47.849 434.654 48.541C434.654 49.233 435.122 49.681 435.754 49.681C436.294 49.681 436.642 49.373 436.766 48.989ZM438.919 49.029C438.895 48.233 437.651 48.481 437.651 48.037C437.651 47.889 437.779 47.789 438.023 47.789C438.271 47.789 438.419 47.921 438.435 48.113H438.891C438.867 47.673 438.539 47.405 438.039 47.405C437.519 47.405 437.191 47.689 437.191 48.041C437.191 48.849 438.471 48.601 438.471 49.033C438.471 49.185 438.331 49.297 438.067 49.297C437.815 49.297 437.643 49.149 437.627 48.969H437.155C437.175 49.369 437.547 49.681 438.075 49.681C438.595 49.681 438.919 49.401 438.919 49.029Z" fill="#50585D"/>
<path d="M415.729 66.91C415.729 65.894 414.257 66.286 414.257 65.658C414.257 65.39 414.461 65.262 414.725 65.27C415.013 65.278 415.177 65.45 415.193 65.638H415.697C415.657 65.162 415.281 64.882 414.749 64.882C414.181 64.882 413.793 65.186 413.793 65.674C413.793 66.698 415.269 66.262 415.269 66.934C415.269 67.17 415.089 67.342 414.769 67.342C414.453 67.342 414.293 67.158 414.273 66.93H413.785C413.785 67.422 414.213 67.726 414.769 67.726C415.389 67.726 415.729 67.326 415.729 66.91ZM417.175 64.918H416.267V67.698H417.175C418.067 67.698 418.651 67.174 418.651 66.318C418.651 65.458 418.067 64.918 417.175 64.918ZM416.723 67.326V65.29H417.175C417.831 65.29 418.183 65.682 418.183 66.318C418.183 66.95 417.831 67.326 417.175 67.326H416.723ZM421.618 65.75C421.618 66.026 421.458 66.222 421.102 66.222H420.598V65.29H421.102C421.458 65.29 421.618 65.47 421.618 65.75ZM420.142 64.918V67.698H420.598V66.586H420.946L421.586 67.698H422.13L421.442 66.546C421.91 66.43 422.086 66.078 422.086 65.75C422.086 65.298 421.762 64.918 421.102 64.918H420.142ZM423.597 65.842C423.937 65.842 424.205 66.058 424.213 66.398H422.993C423.041 66.05 423.289 65.842 423.597 65.842ZM424.629 67.042H424.137C424.053 67.214 423.897 67.35 423.617 67.35C423.281 67.35 423.021 67.13 422.989 66.766H424.673C424.685 66.69 424.689 66.618 424.689 66.542C424.689 65.894 424.245 65.458 423.617 65.458C422.965 65.458 422.517 65.902 422.517 66.594C422.517 67.286 422.985 67.734 423.617 67.734C424.157 67.734 424.505 67.426 424.629 67.042ZM426.702 67.698H427.154V66.398C427.154 65.782 426.766 65.458 426.25 65.458C425.986 65.458 425.742 65.566 425.594 65.746V65.494H425.138V67.698H425.594V66.466C425.594 66.062 425.814 65.854 426.15 65.854C426.482 65.854 426.702 66.062 426.702 66.466V67.698ZM427.808 67.086C427.808 67.534 428.052 67.698 428.444 67.698H428.804V67.318H428.524C428.332 67.318 428.268 67.25 428.268 67.086V65.866H428.804V65.494H428.268V64.946H427.808V65.494H427.548V65.866H427.808V67.086ZM432.139 66.91C432.139 65.894 430.667 66.286 430.667 65.658C430.667 65.39 430.871 65.262 431.135 65.27C431.423 65.278 431.587 65.45 431.603 65.638H432.107C432.067 65.162 431.691 64.882 431.159 64.882C430.591 64.882 430.203 65.186 430.203 65.674C430.203 66.698 431.679 66.262 431.679 66.934C431.679 67.17 431.499 67.342 431.179 67.342C430.863 67.342 430.703 67.158 430.683 66.93H430.195C430.195 67.422 430.623 67.726 431.179 67.726C431.799 67.726 432.139 67.326 432.139 66.91ZM432.525 66.586C432.525 67.266 432.985 67.734 433.557 67.734C433.925 67.734 434.189 67.558 434.329 67.37V67.698H434.789V65.494H434.329V65.814C434.193 65.634 433.937 65.458 433.565 65.458C432.985 65.458 432.525 65.906 432.525 66.586ZM434.329 66.594C434.329 67.07 434.005 67.338 433.661 67.338C433.321 67.338 432.993 67.062 432.993 66.586C432.993 66.11 433.321 65.854 433.661 65.854C434.005 65.854 434.329 66.122 434.329 66.594ZM435.388 67.698H435.844V64.738H435.388V67.698ZM437.371 65.842C437.711 65.842 437.979 66.058 437.987 66.398H436.767C436.815 66.05 437.063 65.842 437.371 65.842ZM438.403 67.042H437.911C437.827 67.214 437.671 67.35 437.391 67.35C437.055 67.35 436.795 67.13 436.763 66.766H438.447C438.459 66.69 438.463 66.618 438.463 66.542C438.463 65.894 438.019 65.458 437.391 65.458C436.739 65.458 436.291 65.902 436.291 66.594C436.291 67.286 436.759 67.734 437.391 67.734C437.931 67.734 438.279 67.426 438.403 67.042ZM440.555 67.082C440.531 66.286 439.287 66.534 439.287 66.09C439.287 65.942 439.415 65.842 439.659 65.842C439.907 65.842 440.055 65.974 440.071 66.166H440.527C440.503 65.726 440.175 65.458 439.675 65.458C439.155 65.458 438.827 65.742 438.827 66.094C438.827 66.902 440.107 66.654 440.107 67.086C440.107 67.238 439.967 67.35 439.703 67.35C439.451 67.35 439.279 67.202 439.263 67.022H438.791C438.811 67.422 439.183 67.734 439.711 67.734C440.231 67.734 440.555 67.454 440.555 67.082Z" fill="#50585D"/>
<path d="M415.617 85.752H416.073V82.972H415.617V84.164H414.309V82.972H413.853V85.752H414.309V84.536H415.617V85.752ZM417.581 82.972H416.673V85.752H417.581C418.473 85.752 419.057 85.228 419.057 84.372C419.057 83.512 418.473 82.972 417.581 82.972ZM417.129 85.38V83.344H417.581C418.237 83.344 418.589 83.736 418.589 84.372C418.589 85.004 418.237 85.38 417.581 85.38H417.129ZM422.116 84.956C422.116 85.224 421.928 85.38 421.62 85.38H421.004V84.512H421.604C421.908 84.512 422.116 84.68 422.116 84.956ZM422.044 83.744C422.044 84 421.864 84.14 421.568 84.14H421.004V83.344H421.568C421.864 83.344 422.044 83.492 422.044 83.744ZM422.572 85.004C422.572 84.672 422.332 84.376 422.036 84.324C422.304 84.228 422.508 84.024 422.508 83.688C422.508 83.296 422.196 82.972 421.608 82.972H420.548V85.752H421.66C422.228 85.752 422.572 85.428 422.572 85.004ZM425.064 83.548H424.608V84.776C424.608 85.18 424.388 85.388 424.052 85.388C423.72 85.388 423.5 85.18 423.5 84.776V83.548H423.048V84.844C423.048 85.46 423.44 85.784 423.956 85.784C424.216 85.784 424.464 85.676 424.608 85.488V85.752H425.064V83.548ZM426.533 85.228L425.913 83.548H425.405L426.273 85.716L425.825 86.788H426.297L427.649 83.548H427.177L426.533 85.228ZM429.488 84.252V83.344H429.992C430.348 83.344 430.508 83.512 430.508 83.8C430.508 84.08 430.348 84.252 429.992 84.252H429.488ZM430.976 83.8C430.976 83.348 430.652 82.972 429.992 82.972H429.032V85.752H429.488V84.624H429.992C430.716 84.624 430.976 84.196 430.976 83.8ZM431.867 84.592C431.867 84.124 432.075 83.984 432.411 83.984H432.527V83.512C432.215 83.512 431.995 83.648 431.867 83.868V83.548H431.411V85.752H431.867V84.592ZM432.946 85.752H433.402V83.548H432.946V85.752ZM433.178 83.256C433.338 83.256 433.466 83.128 433.466 82.964C433.466 82.8 433.338 82.672 433.178 82.672C433.014 82.672 432.886 82.8 432.886 82.964C432.886 83.128 433.014 83.256 433.178 83.256ZM433.849 84.648C433.849 85.34 434.297 85.788 434.929 85.788C435.469 85.788 435.821 85.488 435.945 85.056H435.453C435.369 85.284 435.201 85.404 434.929 85.404C434.561 85.404 434.317 85.132 434.317 84.648C434.317 84.168 434.561 83.896 434.929 83.896C435.201 83.896 435.377 84.032 435.453 84.244H435.945C435.821 83.78 435.469 83.512 434.929 83.512C434.297 83.512 433.849 83.96 433.849 84.648ZM437.328 83.896C437.668 83.896 437.936 84.112 437.944 84.452H436.724C436.772 84.104 437.02 83.896 437.328 83.896ZM438.36 85.096H437.868C437.784 85.268 437.628 85.404 437.348 85.404C437.012 85.404 436.752 85.184 436.72 84.82H438.404C438.416 84.744 438.42 84.672 438.42 84.596C438.42 83.948 437.976 83.512 437.348 83.512C436.696 83.512 436.248 83.956 436.248 84.648C436.248 85.34 436.716 85.788 437.348 85.788C437.888 85.788 438.236 85.48 438.36 85.096Z" fill="#50585D"/>
<path d="M415.729 103.017C415.729 102.001 414.257 102.393 414.257 101.765C414.257 101.497 414.461 101.369 414.725 101.377C415.013 101.385 415.177 101.557 415.193 101.745H415.697C415.657 101.269 415.281 100.989 414.749 100.989C414.181 100.989 413.793 101.293 413.793 101.781C413.793 102.805 415.269 102.369 415.269 103.041C415.269 103.277 415.089 103.449 414.769 103.449C414.453 103.449 414.293 103.265 414.273 103.037H413.785C413.785 103.529 414.213 103.833 414.769 103.833C415.389 103.833 415.729 103.433 415.729 103.017ZM417.175 101.025H416.267V103.805H417.175C418.067 103.805 418.651 103.281 418.651 102.425C418.651 101.565 418.067 101.025 417.175 101.025ZM416.723 103.433V101.397H417.175C417.831 101.397 418.183 101.789 418.183 102.425C418.183 103.057 417.831 103.433 417.175 103.433H416.723ZM421.71 103.009C421.71 103.277 421.522 103.433 421.214 103.433H420.598V102.565H421.198C421.502 102.565 421.71 102.733 421.71 103.009ZM421.638 101.797C421.638 102.053 421.458 102.193 421.162 102.193H420.598V101.397H421.162C421.458 101.397 421.638 101.545 421.638 101.797ZM422.166 103.057C422.166 102.725 421.926 102.429 421.63 102.377C421.898 102.281 422.102 102.077 422.102 101.741C422.102 101.349 421.79 101.025 421.202 101.025H420.142V103.805H421.254C421.822 103.805 422.166 103.481 422.166 103.057ZM424.657 101.601H424.201V102.829C424.201 103.233 423.981 103.441 423.645 103.441C423.313 103.441 423.093 103.233 423.093 102.829V101.601H422.641V102.897C422.641 103.513 423.033 103.837 423.549 103.837C423.809 103.837 424.057 103.729 424.201 103.541V103.805H424.657V101.601ZM426.127 103.281L425.507 101.601H424.999L425.867 103.769L425.419 104.841H425.891L427.243 101.601H426.771L426.127 103.281ZM429.082 102.305V101.397H429.586C429.942 101.397 430.102 101.565 430.102 101.853C430.102 102.133 429.942 102.305 429.586 102.305H429.082ZM430.57 101.853C430.57 101.401 430.246 101.025 429.586 101.025H428.626V103.805H429.082V102.677H429.586C430.31 102.677 430.57 102.249 430.57 101.853ZM431.461 102.645C431.461 102.177 431.669 102.037 432.005 102.037H432.121V101.565C431.809 101.565 431.589 101.701 431.461 101.921V101.601H431.005V103.805H431.461V102.645ZM432.54 103.805H432.996V101.601H432.54V103.805ZM432.772 101.309C432.932 101.309 433.06 101.181 433.06 101.017C433.06 100.853 432.932 100.725 432.772 100.725C432.608 100.725 432.48 100.853 432.48 101.017C432.48 101.181 432.608 101.309 432.772 101.309ZM433.443 102.701C433.443 103.393 433.891 103.841 434.523 103.841C435.063 103.841 435.415 103.541 435.539 103.109H435.047C434.963 103.337 434.795 103.457 434.523 103.457C434.155 103.457 433.911 103.185 433.911 102.701C433.911 102.221 434.155 101.949 434.523 101.949C434.795 101.949 434.971 102.085 435.047 102.297H435.539C435.415 101.833 435.063 101.565 434.523 101.565C433.891 101.565 433.443 102.013 433.443 102.701ZM436.921 101.949C437.261 101.949 437.529 102.165 437.537 102.505H436.317C436.365 102.157 436.613 101.949 436.921 101.949ZM437.953 103.149H437.461C437.377 103.321 437.221 103.457 436.941 103.457C436.605 103.457 436.345 103.237 436.313 102.873H437.997C438.009 102.797 438.013 102.725 438.013 102.649C438.013 102.001 437.569 101.565 436.941 101.565C436.289 101.565 435.841 102.009 435.841 102.701C435.841 103.393 436.309 103.841 436.941 103.841C437.481 103.841 437.829 103.533 437.953 103.149Z" fill="#50585D"/>
<path d="M415.617 121.859H416.073V119.079H415.617V120.271H414.309V119.079H413.853V121.859H414.309V120.643H415.617V121.859ZM417.581 119.079H416.673V121.859H417.581C418.473 121.859 419.057 121.335 419.057 120.479C419.057 119.619 418.473 119.079 417.581 119.079ZM417.129 121.487V119.451H417.581C418.237 119.451 418.589 119.843 418.589 120.479C418.589 121.111 418.237 121.487 417.581 121.487H417.129ZM422.024 119.911C422.024 120.187 421.864 120.383 421.508 120.383H421.004V119.451H421.508C421.864 119.451 422.024 119.631 422.024 119.911ZM420.548 119.079V121.859H421.004V120.747H421.352L421.992 121.859H422.536L421.848 120.707C422.316 120.591 422.492 120.239 422.492 119.911C422.492 119.459 422.168 119.079 421.508 119.079H420.548ZM424.003 120.003C424.343 120.003 424.611 120.219 424.619 120.559H423.399C423.447 120.211 423.695 120.003 424.003 120.003ZM425.035 121.203H424.543C424.459 121.375 424.303 121.511 424.023 121.511C423.687 121.511 423.427 121.291 423.395 120.927H425.079C425.091 120.851 425.095 120.779 425.095 120.703C425.095 120.055 424.651 119.619 424.023 119.619C423.371 119.619 422.923 120.063 422.923 120.755C422.923 121.447 423.391 121.895 424.023 121.895C424.563 121.895 424.911 121.587 425.035 121.203ZM427.108 121.859H427.56V120.559C427.56 119.943 427.172 119.619 426.656 119.619C426.392 119.619 426.148 119.727 426 119.907V119.655H425.544V121.859H426V120.627C426 120.223 426.22 120.015 426.556 120.015C426.888 120.015 427.108 120.223 427.108 120.627V121.859ZM428.214 121.247C428.214 121.695 428.458 121.859 428.85 121.859H429.21V121.479H428.93C428.738 121.479 428.674 121.411 428.674 121.247V120.027H429.21V119.655H428.674V119.107H428.214V119.655H427.954V120.027H428.214V121.247ZM431.125 120.359V119.451H431.629C431.985 119.451 432.145 119.619 432.145 119.907C432.145 120.187 431.985 120.359 431.629 120.359H431.125ZM432.613 119.907C432.613 119.455 432.289 119.079 431.629 119.079H430.669V121.859H431.125V120.731H431.629C432.353 120.731 432.613 120.303 432.613 119.907ZM433.504 120.699C433.504 120.231 433.712 120.091 434.048 120.091H434.164V119.619C433.852 119.619 433.632 119.755 433.504 119.975V119.655H433.048V121.859H433.504V120.699ZM434.583 121.859H435.039V119.655H434.583V121.859ZM434.815 119.363C434.975 119.363 435.103 119.235 435.103 119.071C435.103 118.907 434.975 118.779 434.815 118.779C434.651 118.779 434.523 118.907 434.523 119.071C434.523 119.235 434.651 119.363 434.815 119.363ZM435.486 120.755C435.486 121.447 435.934 121.895 436.566 121.895C437.106 121.895 437.458 121.595 437.582 121.163H437.09C437.006 121.391 436.838 121.511 436.566 121.511C436.198 121.511 435.954 121.239 435.954 120.755C435.954 120.275 436.198 120.003 436.566 120.003C436.838 120.003 437.014 120.139 437.09 120.351H437.582C437.458 119.887 437.106 119.619 436.566 119.619C435.934 119.619 435.486 120.067 435.486 120.755ZM438.964 120.003C439.304 120.003 439.572 120.219 439.58 120.559H438.36C438.408 120.211 438.656 120.003 438.964 120.003ZM439.996 121.203H439.504C439.42 121.375 439.264 121.511 438.984 121.511C438.648 121.511 438.388 121.291 438.356 120.927H440.04C440.052 120.851 440.056 120.779 440.056 120.703C440.056 120.055 439.612 119.619 438.984 119.619C438.332 119.619 437.884 120.063 437.884 120.755C437.884 121.447 438.352 121.895 438.984 121.895C439.524 121.895 439.872 121.587 439.996 121.203Z" fill="#50585D"/>
<path d="M9.81486 218.991H10.0749V218.663C10.6149 218.615 10.9109 218.239 10.9109 217.851C10.9109 217.287 10.4749 217.179 10.0749 217.083V216.219C10.2669 216.267 10.3789 216.415 10.3949 216.575H10.8829C10.8469 216.123 10.5349 215.871 10.0749 215.831V215.507H9.81486V215.835C9.31886 215.879 8.97486 216.187 8.97486 216.635C8.97486 217.199 9.41486 217.311 9.81486 217.411V218.291C9.59086 218.251 9.47886 218.103 9.46286 217.903H8.97486C8.97486 218.355 9.32686 218.623 9.81486 218.667V218.991ZM10.4509 217.875C10.4509 218.083 10.3149 218.251 10.0749 218.291V217.479C10.2909 217.547 10.4509 217.647 10.4509 217.875ZM9.43886 216.611C9.43886 216.367 9.59486 216.235 9.81486 216.207V217.015C9.59886 216.947 9.43886 216.843 9.43886 216.611ZM11.5764 217.147C11.5764 217.995 11.8004 218.635 12.6164 218.635C13.4324 218.635 13.6564 217.995 13.6564 217.147C13.6564 216.315 13.4324 215.675 12.6164 215.675C11.8004 215.675 11.5764 216.315 11.5764 217.147ZM13.2084 217.147C13.2084 217.719 13.1484 218.219 12.6164 218.219C12.0844 218.219 12.0244 217.719 12.0244 217.147C12.0244 216.603 12.0844 216.091 12.6164 216.091C13.1484 216.091 13.2084 216.603 13.2084 217.147ZM14.6709 218.379C14.6709 218.215 14.5429 218.087 14.3829 218.087C14.2189 218.087 14.0909 218.215 14.0909 218.379C14.0909 218.543 14.2189 218.671 14.3829 218.671C14.5429 218.671 14.6709 218.543 14.6709 218.379ZM15.1038 217.147C15.1038 217.995 15.3278 218.635 16.1438 218.635C16.9598 218.635 17.1838 217.995 17.1838 217.147C17.1838 216.315 16.9598 215.675 16.1438 215.675C15.3278 215.675 15.1038 216.315 15.1038 217.147ZM16.7358 217.147C16.7358 217.719 16.6758 218.219 16.1438 218.219C15.6118 218.219 15.5518 217.719 15.5518 217.147C15.5518 216.603 15.6118 216.091 16.1438 216.091C16.6758 216.091 16.7358 216.603 16.7358 217.147ZM17.6663 217.147C17.6663 217.995 17.8903 218.635 18.7063 218.635C19.5223 218.635 19.7463 217.995 19.7463 217.147C19.7463 216.315 19.5223 215.675 18.7063 215.675C17.8903 215.675 17.6663 216.315 17.6663 217.147ZM19.2983 217.147C19.2983 217.719 19.2383 218.219 18.7063 218.219C18.1743 218.219 18.1143 217.719 18.1143 217.147C18.1143 216.603 18.1743 216.091 18.7063 216.091C19.2383 216.091 19.2983 216.603 19.2983 217.147Z" fill="#50585D"/>
<path d="M92.546 236.014C92.546 236.478 92.314 236.814 91.826 236.814C91.338 236.814 91.114 236.478 91.106 236.014H90.186C90.186 237.022 90.866 237.622 91.826 237.622C92.786 237.622 93.466 237.022 93.466 236.014V232.006H92.546V236.014ZM94.6456 235.342C94.6456 236.702 95.5656 237.638 96.7096 237.638C97.4456 237.638 97.9736 237.286 98.2536 236.91V237.566H99.1736V233.158H98.2536V233.798C97.9816 233.438 97.4696 233.086 96.7256 233.086C95.5656 233.086 94.6456 233.982 94.6456 235.342ZM98.2536 235.358C98.2536 236.31 97.6056 236.846 96.9176 236.846C96.2376 236.846 95.5816 236.294 95.5816 235.342C95.5816 234.39 96.2376 233.878 96.9176 233.878C97.6056 233.878 98.2536 234.414 98.2536 235.358ZM103.499 237.566H104.403V234.966C104.403 233.734 103.627 233.086 102.595 233.086C102.067 233.086 101.579 233.302 101.283 233.662V233.158H100.371V237.566H101.283V235.102C101.283 234.294 101.723 233.878 102.395 233.878C103.059 233.878 103.499 234.294 103.499 235.102V237.566ZM108.149 237.566H109.069V231.734H107.405V232.566H108.149V237.566ZM109.882 238.678H110.474L111.442 236.47H110.45L109.882 238.678ZM114.125 237.486H118.013V236.726H115.477C116.413 235.87 117.853 234.79 117.853 233.374C117.853 232.326 117.181 231.614 115.997 231.614C114.965 231.614 114.149 232.23 114.117 233.494H114.997C115.021 232.838 115.365 232.39 116.005 232.39C116.685 232.39 116.949 232.806 116.949 233.414C116.949 234.558 115.501 235.614 114.125 236.822V237.486ZM118.814 234.574C118.814 236.27 119.262 237.55 120.894 237.55C122.526 237.55 122.974 236.27 122.974 234.574C122.974 232.91 122.526 231.63 120.894 231.63C119.262 231.63 118.814 232.91 118.814 234.574ZM122.078 234.574C122.078 235.718 121.958 236.718 120.894 236.718C119.83 236.718 119.71 235.718 119.71 234.574C119.71 233.486 119.83 232.462 120.894 232.462C121.958 232.462 122.078 233.486 122.078 234.574ZM123.867 237.486H127.755V236.726H125.219C126.155 235.87 127.595 234.79 127.595 233.374C127.595 232.326 126.923 231.614 125.739 231.614C124.707 231.614 123.891 232.23 123.859 233.494H124.739C124.763 232.838 125.107 232.39 125.747 232.39C126.427 232.39 126.691 232.806 126.691 233.414C126.691 234.558 125.243 235.614 123.867 236.822V237.486ZM128.556 234.574C128.556 236.27 129.004 237.55 130.636 237.55C132.268 237.55 132.716 236.27 132.716 234.574C132.716 232.91 132.268 231.63 130.636 231.63C129.004 231.63 128.556 232.91 128.556 234.574ZM131.82 234.574C131.82 235.718 131.7 236.718 130.636 236.718C129.572 236.718 129.452 235.718 129.452 234.574C129.452 233.486 129.572 232.462 130.636 232.462C131.7 232.462 131.82 233.486 131.82 234.574Z" fill="#50585D"/>
<path d="M195.641 250.825H193.537V256.441H195.641C197.433 256.441 198.585 255.297 198.585 253.633C198.585 251.961 197.433 250.825 195.641 250.825ZM194.905 255.257V251.993H195.553C196.585 251.993 197.193 252.601 197.193 253.633C197.193 254.665 196.585 255.257 195.553 255.257H194.905ZM203.182 256.441H204.63L202.598 250.825H201.014L198.982 256.441H200.414L200.75 255.449H202.846L203.182 256.441ZM202.494 254.393H201.11L201.798 252.337L202.494 254.393ZM204.944 251.921H206.432V256.441H207.8V251.921H209.288V250.825H204.944V251.921ZM213.415 250.825H209.975V256.441H213.415V255.345H211.343V254.113H213.175V253.057H211.343V251.921H213.415V250.825Z" fill="#50585D"/>
<path d="M241.166 236.014C241.166 236.478 240.934 236.814 240.446 236.814C239.958 236.814 239.734 236.478 239.726 236.014H238.806C238.806 237.022 239.486 237.622 240.446 237.622C241.406 237.622 242.086 237.022 242.086 236.014V232.006H241.166V236.014ZM243.266 235.342C243.266 236.702 244.186 237.638 245.33 237.638C246.066 237.638 246.594 237.286 246.874 236.91V237.566H247.794V233.158H246.874V233.798C246.602 233.438 246.09 233.086 245.346 233.086C244.186 233.086 243.266 233.982 243.266 235.342ZM246.874 235.358C246.874 236.31 246.226 236.846 245.538 236.846C244.858 236.846 244.202 236.294 244.202 235.342C244.202 234.39 244.858 233.878 245.538 233.878C246.226 233.878 246.874 234.414 246.874 235.358ZM252.12 237.566H253.024V234.966C253.024 233.734 252.248 233.086 251.216 233.086C250.688 233.086 250.2 233.302 249.904 233.662V233.158H248.992V237.566H249.904V235.102C249.904 234.294 250.344 233.878 251.016 233.878C251.68 233.878 252.12 234.294 252.12 235.102V237.566ZM256.073 237.486H259.961V236.726H257.425C258.361 235.87 259.801 234.79 259.801 233.374C259.801 232.326 259.129 231.614 257.945 231.614C256.913 231.614 256.097 232.23 256.065 233.494H256.945C256.969 232.838 257.313 232.39 257.953 232.39C258.633 232.39 258.897 232.806 258.897 233.414C258.897 234.558 257.449 235.614 256.073 236.822V237.486ZM260.322 238.678H260.914L261.882 236.47H260.89L260.322 238.678ZM264.565 237.486H268.453V236.726H265.917C266.853 235.87 268.293 234.79 268.293 233.374C268.293 232.326 267.621 231.614 266.437 231.614C265.405 231.614 264.589 232.23 264.557 233.494H265.437C265.461 232.838 265.805 232.39 266.445 232.39C267.125 232.39 267.389 232.806 267.389 233.414C267.389 234.558 265.941 235.614 264.565 236.822V237.486ZM269.254 234.574C269.254 236.27 269.702 237.55 271.334 237.55C272.966 237.55 273.414 236.27 273.414 234.574C273.414 232.91 272.966 231.63 271.334 231.63C269.702 231.63 269.254 232.91 269.254 234.574ZM272.518 234.574C272.518 235.718 272.398 236.718 271.334 236.718C270.27 236.718 270.15 235.718 270.15 234.574C270.15 233.486 270.27 232.462 271.334 232.462C272.398 232.462 272.518 233.486 272.518 234.574ZM274.307 237.486H278.195V236.726H275.659C276.595 235.87 278.035 234.79 278.035 233.374C278.035 232.326 277.363 231.614 276.179 231.614C275.147 231.614 274.331 232.23 274.299 233.494H275.179C275.203 232.838 275.547 232.39 276.187 232.39C276.867 232.39 277.131 232.806 277.131 233.414C277.131 234.558 275.683 235.614 274.307 236.822V237.486ZM278.997 234.574C278.997 236.27 279.445 237.55 281.077 237.55C282.709 237.55 283.157 236.27 283.157 234.574C283.157 232.91 282.709 231.63 281.077 231.63C279.445 231.63 278.997 232.91 278.997 234.574ZM282.261 234.574C282.261 235.718 282.141 236.718 281.077 236.718C280.013 236.718 279.893 235.718 279.893 234.574C279.893 233.486 280.013 232.462 281.077 232.462C282.141 232.462 282.261 233.486 282.261 234.574Z" fill="#50585D"/>
<path d="M47.1514 220.797H365.806" stroke="#A7B0B5"/>
<path d="M47.5557 179.764H366.21" stroke="#E6E6E6" stroke-dasharray="7 7"/>
<path d="M47.5557 138.735H366.21" stroke="#E6E6E6" stroke-dasharray="7 7"/>
<path d="M47.5557 96.8809H366.21" stroke="#E6E6E6" stroke-dasharray="7 7"/>
<path d="M47.5557 55.8518H366.21" stroke="#E6E6E6" stroke-dasharray="7 7"/>
<path d="M47.5557 14.8218H366.21" stroke="#E6E6E6" stroke-dasharray="7 7"/>
<path d="M65.8589 26.7219H72.2709C73.597 26.7219 74.8687 27.2487 75.8064 28.1864C76.7441 29.1241 77.2709 30.3958 77.2709 31.7219V220.388H60.8589V31.7219C60.8589 30.3958 61.3857 29.1241 62.3234 28.1864C63.261 27.2487 64.5328 26.7219 65.8589 26.7219Z" fill="#9E1C53"/>
<path d="M81.7207 56.2639H88.1327C89.4588 56.2639 90.7306 56.7907 91.6682 57.7284C92.6059 58.6661 93.1327 59.9378 93.1327 61.2639V220.388H76.7207V61.2639C76.7207 59.9378 77.2475 58.6661 78.1852 57.7284C79.1229 56.7907 80.3946 56.2639 81.7207 56.2639V56.2639Z" fill="#F3AC30"/>
<path d="M113.445 143.249H119.857C121.183 143.249 122.455 143.776 123.392 144.713C124.33 145.651 124.857 146.923 124.857 148.249V220.387H108.445V148.249C108.445 146.923 108.972 145.651 109.909 144.713C110.847 143.776 112.119 143.249 113.445 143.249V143.249Z" fill="#4285E2"/>
<path d="M97.584 194.948H103.996C105.322 194.948 106.594 195.475 107.532 196.412C108.469 197.35 108.996 198.622 108.996 199.948V220.387H92.584V199.948C92.584 198.622 93.1108 197.35 94.0485 196.412C94.9861 195.475 96.2579 194.948 97.584 194.948V194.948Z" fill="#003B74"/>
<path d="M129.307 186.742H135.719C137.045 186.742 138.317 187.269 139.255 188.206C140.192 189.144 140.719 190.416 140.719 191.742V220.387H124.307V191.742C124.307 190.416 124.834 189.144 125.772 188.206C126.709 187.269 127.981 186.742 129.307 186.742V186.742Z" fill="#1C9D9D"/>
<path d="M145.17 196.59H151.582C152.908 196.59 154.18 197.117 155.117 198.055C156.055 198.992 156.582 200.264 156.582 201.59V220.39H140.17V201.59C140.17 200.264 140.697 198.992 141.634 198.055C142.572 197.117 143.844 196.59 145.17 196.59V196.59Z" fill="#E86745"/>
<path d="M161.032 204.796H167.444C168.77 204.796 170.042 205.323 170.979 206.26C171.917 207.198 172.444 208.47 172.444 209.796V220.388H156.032V209.796C156.032 208.47 156.559 207.198 157.496 206.26C158.434 205.323 159.706 204.796 161.032 204.796V204.796Z" fill="#56D6D4"/>
<path d="M218.596 38.21H225.008C226.334 38.21 227.606 38.7367 228.543 39.6744C229.481 40.6121 230.008 41.8839 230.008 43.21V220.387H213.596V43.21C213.596 41.8839 214.122 40.6121 215.06 39.6744C215.998 38.7367 217.27 38.21 218.596 38.21V38.21Z" fill="#9E1C53"/>
<path d="M234.458 98.115H240.87C242.196 98.115 243.468 98.6418 244.406 99.5795C245.343 100.517 245.87 101.789 245.87 103.115V220.387H229.458V103.115C229.458 101.789 229.985 100.517 230.922 99.5795C231.86 98.6418 233.132 98.115 234.458 98.115V98.115Z" fill="#F3AC30"/>
<path d="M266.182 194.948H272.594C273.92 194.948 275.192 195.475 276.13 196.412C277.067 197.35 277.594 198.622 277.594 199.948V220.387H261.182V199.948C261.182 198.622 261.709 197.35 262.647 196.412C263.584 195.475 264.856 194.948 266.182 194.948V194.948Z" fill="#4285E2"/>
<path d="M282.045 190.025H288.457C289.783 190.025 291.055 190.552 291.992 191.489C292.93 192.427 293.457 193.699 293.457 195.025V220.388H277.045V195.025C277.045 193.699 277.572 192.427 278.509 191.489C279.447 190.552 280.719 190.025 282.045 190.025V190.025Z" fill="#1C9D9D"/>
<path d="M297.907 200.693H304.319C305.645 200.693 306.917 201.22 307.854 202.157C308.792 203.095 309.319 204.367 309.319 205.693V220.388H292.907V205.693C292.907 204.367 293.434 203.095 294.371 202.157C295.309 201.22 296.581 200.693 297.907 200.693V200.693Z" fill="#E86745"/>
<path d="M313.768 210.54H320.18C321.506 210.54 322.778 211.067 323.716 212.005C324.653 212.942 325.18 214.214 325.18 215.54V220.387H308.768V215.54C308.768 214.214 309.295 212.942 310.233 212.005C311.17 211.067 312.442 210.54 313.768 210.54V210.54Z" fill="#56D6D4"/>
<path d="M402.066 21.85C400.767 21.8506 399.497 21.466 398.417 20.7447C397.337 20.0234 396.495 18.998 395.997 17.7981C395.5 16.5982 395.37 15.2778 395.623 14.0038C395.876 12.7298 396.502 11.5596 397.42 10.6412C398.339 9.72271 399.509 9.09729 400.783 8.84404C402.057 8.59078 403.377 8.72106 404.577 9.2184C405.777 9.71574 406.802 10.5578 407.524 11.638C408.245 12.7182 408.63 13.9881 408.629 15.287C408.627 17.027 407.935 18.6951 406.704 19.9254C405.474 21.1558 403.806 21.8479 402.066 21.85ZM402.066 12.823C401.579 12.8226 401.103 12.9665 400.699 13.2366C400.294 13.5066 399.978 13.8907 399.791 14.3402C399.605 14.7896 399.555 15.2844 399.65 15.7618C399.744 16.2392 399.978 16.6779 400.322 17.0224C400.666 17.3669 401.104 17.6018 401.581 17.6972C402.059 17.7927 402.553 17.7445 403.003 17.5587C403.453 17.373 403.838 17.058 404.109 16.6537C404.38 16.2493 404.524 15.7737 404.525 15.287C404.525 14.6339 404.267 14.0074 403.806 13.5448C403.345 13.0821 402.719 12.8211 402.066 12.819V12.823Z" fill="#9E1C53"/>
<path d="M402.066 39.904C400.767 39.9046 399.497 39.5199 398.417 38.7987C397.337 38.0774 396.495 37.052 395.997 35.8521C395.5 34.6522 395.37 33.3317 395.623 32.0577C395.876 30.7838 396.502 29.6136 397.42 28.6951C398.339 27.7767 399.509 27.1512 400.783 26.898C402.057 26.6447 403.377 26.775 404.577 27.2724C405.777 27.7697 406.802 28.6117 407.524 29.692C408.245 30.7722 408.63 32.0421 408.629 33.341C408.627 35.0809 407.935 36.749 406.704 37.9794C405.474 39.2097 403.806 39.9019 402.066 39.904ZM402.066 30.877C401.579 30.8766 401.103 31.0205 400.699 31.2905C400.294 31.5606 399.978 31.9446 399.791 32.3941C399.605 32.8436 399.555 33.3383 399.65 33.8158C399.744 34.2932 399.978 34.7319 400.322 35.0764C400.666 35.4209 401.104 35.6557 401.581 35.7512C402.059 35.8466 402.553 35.7984 403.003 35.6127C403.453 35.4269 403.838 35.112 404.109 34.7076C404.38 34.3033 404.524 33.8277 404.525 33.341C404.525 32.6879 404.267 32.0614 403.806 31.5987C403.345 31.1361 402.719 30.8751 402.066 30.873V30.877Z" fill="#F3AC30"/>
<path d="M402.066 57.957C400.767 57.9575 399.497 57.5729 398.417 56.8516C397.337 56.1304 396.495 55.1049 395.997 53.905C395.5 52.7051 395.37 51.3847 395.623 50.1107C395.876 48.8368 396.502 47.6665 397.42 46.7481C398.339 45.8296 399.509 45.2042 400.783 44.951C402.057 44.6977 403.377 44.828 404.577 45.3253C405.777 45.8227 406.802 46.6647 407.524 47.745C408.245 48.8252 408.63 50.0951 408.629 51.394C408.627 53.1339 407.935 54.802 406.704 56.0324C405.474 57.2627 403.806 57.9548 402.066 57.957ZM402.066 48.93C401.579 48.9296 401.103 49.0735 400.699 49.3435C400.294 49.6136 399.978 49.9976 399.791 50.4471C399.605 50.8966 399.555 51.3913 399.65 51.8687C399.744 52.3462 399.978 52.7849 400.322 53.1294C400.666 53.4739 401.104 53.7087 401.581 53.8042C402.059 53.8996 402.553 53.8514 403.003 53.6657C403.453 53.4799 403.838 53.165 404.109 52.7606C404.38 52.3562 404.524 51.8807 404.525 51.394C404.525 50.7409 404.267 50.1143 403.806 49.6517C403.345 49.1891 402.719 48.9281 402.066 48.926V48.93Z" fill="#003B74"/>
<path d="M402.066 76.0109C400.767 76.0115 399.497 75.6268 398.417 74.9056C397.337 74.1843 396.495 73.1589 395.997 71.959C395.5 70.7591 395.37 69.4386 395.623 68.1647C395.876 66.8907 396.502 65.7205 397.42 64.802C398.339 63.8836 399.509 63.2582 400.783 63.0049C402.057 62.7517 403.377 62.882 404.577 63.3793C405.777 63.8766 406.802 64.7187 407.524 65.7989C408.245 66.8791 408.63 68.149 408.629 69.4479C408.627 71.1879 407.935 72.856 406.704 74.0863C405.474 75.3167 403.806 76.0088 402.066 76.0109ZM402.066 66.9839C401.579 66.9835 401.103 67.1274 400.699 67.3975C400.294 67.6675 399.978 68.0516 399.791 68.501C399.605 68.9505 399.555 69.4453 399.65 69.9227C399.744 70.4001 399.978 70.8388 400.322 71.1833C400.666 71.5278 401.104 71.7626 401.581 71.8581C402.059 71.9536 402.553 71.9054 403.003 71.7196C403.453 71.5339 403.838 71.2189 404.109 70.8146C404.38 70.4102 404.524 69.9346 404.525 69.4479C404.525 68.7948 404.267 68.1683 403.806 67.7057C403.345 67.243 402.719 66.982 402.066 66.9799V66.9839Z" fill="#4285E2"/>
<path d="M402.066 94.065C400.767 94.0656 399.497 93.6809 398.417 92.9597C397.337 92.2384 396.495 91.213 395.997 90.0131C395.5 88.8132 395.37 87.4927 395.623 86.2188C395.876 84.9448 396.502 83.7746 397.42 82.8561C398.339 81.9377 399.509 81.3123 400.783 81.059C402.057 80.8057 403.377 80.936 404.577 81.4334C405.777 81.9307 406.802 82.7728 407.524 83.853C408.245 84.9332 408.63 86.2031 408.629 87.502C408.627 89.242 407.935 90.91 406.704 92.1404C405.474 93.3707 403.806 94.0629 402.066 94.065ZM402.066 85.038C401.579 85.0376 401.103 85.1815 400.699 85.4516C400.294 85.7216 399.978 86.1056 399.791 86.5551C399.605 87.0046 399.555 87.4993 399.65 87.9768C399.744 88.4542 399.978 88.8929 400.322 89.2374C400.666 89.5819 401.104 89.8167 401.581 89.9122C402.059 90.0076 402.553 89.9595 403.003 89.7737C403.453 89.588 403.838 89.273 404.109 88.8686C404.38 88.4643 404.524 87.9887 404.525 87.502C404.525 86.8489 404.267 86.2224 403.806 85.7597C403.345 85.2971 402.719 85.0361 402.066 85.034V85.038Z" fill="#1C9D9D"/>
<path d="M402.066 112.118C400.767 112.119 399.497 111.734 398.417 111.013C397.337 110.292 396.495 109.266 395.997 108.066C395.5 106.866 395.37 105.546 395.623 104.272C395.876 102.998 396.502 101.828 397.42 100.909C398.339 99.9908 399.509 99.3654 400.783 99.1121C402.057 98.8588 403.377 98.9891 404.577 99.4865C405.777 99.9838 406.802 100.826 407.524 101.906C408.245 102.986 408.63 104.256 408.629 105.555C408.627 107.295 407.935 108.963 406.704 110.193C405.474 111.424 403.806 112.116 402.066 112.118ZM402.066 103.091C401.579 103.091 401.103 103.235 400.699 103.505C400.294 103.775 399.978 104.159 399.791 104.608C399.605 105.058 399.555 105.552 399.65 106.03C399.744 106.507 399.978 106.946 400.322 107.291C400.666 107.635 401.104 107.87 401.581 107.965C402.059 108.061 402.553 108.013 403.003 107.827C403.453 107.641 403.838 107.326 404.109 106.922C404.38 106.517 404.524 106.042 404.525 105.555C404.525 104.902 404.267 104.275 403.806 103.813C403.345 103.35 402.719 103.089 402.066 103.087V103.091Z" fill="#E86745"/>
<path d="M402.066 130.172C400.767 130.173 399.497 129.788 398.417 129.067C397.337 128.345 396.495 127.32 395.997 126.12C395.5 124.92 395.37 123.6 395.623 122.326C395.876 121.052 396.502 119.882 397.42 118.963C398.339 118.045 399.509 117.419 400.783 117.166C402.057 116.913 403.377 117.043 404.577 117.54C405.777 118.038 406.802 118.88 407.524 119.96C408.245 121.04 408.63 122.31 408.629 123.609C408.627 125.349 407.935 127.017 406.704 128.247C405.474 129.478 403.806 130.17 402.066 130.172ZM402.066 121.145C401.579 121.145 401.103 121.289 400.699 121.559C400.294 121.829 399.978 122.213 399.791 122.662C399.605 123.112 399.555 123.606 399.65 124.084C399.744 124.561 399.978 125 400.322 125.344C400.666 125.689 401.104 125.924 401.581 126.019C402.059 126.115 402.553 126.067 403.003 125.881C403.453 125.695 403.838 125.38 404.109 124.976C404.38 124.571 404.524 124.096 404.525 123.609C404.525 122.956 404.267 122.329 403.806 121.867C403.345 121.404 402.719 121.143 402.066 121.141V121.145Z" fill="#56D6D4"/>
<path d="M68.8656 21.798L63.9426 16.874H73.7896L68.8656 21.798Z" fill="#50585D"/>
<path d="M88 0H50C48.3431 0 47 1.34315 47 3V14C47 15.6569 48.3431 17 50 17H88C89.6569 17 91 15.6569 91 14V3C91 1.34315 89.6569 0 88 0Z" fill="#50585D"/>
<path d="M57.68 12.696H58.2V12.04C59.28 11.944 59.872 11.192 59.872 10.416C59.872 9.288 59 9.072 58.2 8.88V7.152C58.584 7.248 58.808 7.544 58.84 7.864H59.816C59.744 6.96 59.12 6.456 58.2 6.376V5.728H57.68V6.384C56.688 6.472 56 7.088 56 7.984C56 9.112 56.88 9.336 57.68 9.536V11.296C57.232 11.216 57.008 10.92 56.976 10.52H56C56 11.424 56.704 11.96 57.68 12.048V12.696ZM58.952 10.464C58.952 10.88 58.68 11.216 58.2 11.296V9.672C58.632 9.808 58.952 10.008 58.952 10.464ZM56.928 7.936C56.928 7.448 57.24 7.184 57.68 7.128V8.744C57.248 8.608 56.928 8.4 56.928 7.936ZM61.8271 12H62.7471V6.168H61.0831V7H61.8271V12ZM64.624 12H65.544V6.168H63.88V7H64.624V12ZM66.7249 11.92H70.6129V11.16H68.0769C69.0129 10.304 70.4529 9.224 70.4529 7.808C70.4529 6.76 69.7809 6.048 68.5969 6.048C67.5649 6.048 66.7489 6.664 66.7169 7.928H67.5969C67.6209 7.272 67.9649 6.824 68.6049 6.824C69.2849 6.824 69.5489 7.24 69.5489 7.848C69.5489 8.992 68.1009 10.048 66.7249 11.256V11.92ZM72.4781 11.472C72.4781 11.144 72.2221 10.888 71.9021 10.888C71.5741 10.888 71.3181 11.144 71.3181 11.472C71.3181 11.8 71.5741 12.056 71.9021 12.056C72.2221 12.056 72.4781 11.8 72.4781 11.472ZM77.3198 7.52C77.2238 6.744 76.6558 6.024 75.5198 6.024C74.0638 6.024 73.4558 7.128 73.4558 8.952C73.4558 10.808 73.8958 12 75.5918 12C76.8398 12 77.5038 11.16 77.5038 10.056C77.5038 8.84 76.7598 8.136 75.7118 8.136C75.1038 8.136 74.5278 8.392 74.2398 8.872C74.2638 7.344 74.6878 6.784 75.5118 6.784C76.0878 6.784 76.3678 7.048 76.4798 7.52H77.3198ZM75.5118 8.904C76.2798 8.904 76.6318 9.4 76.6318 10.096C76.6318 10.784 76.2158 11.24 75.5438 11.24C74.7678 11.24 74.3438 10.76 74.3438 10.04C74.3438 9.264 74.9118 8.904 75.5118 8.904ZM78.3166 6.192V6.968H81.2766L79.0286 12H79.9486L82.1726 6.872V6.192H78.3166Z" fill="white"/>
</svg>
