<svg width="10" height="10" viewBox="0 0 10 10" fill="none" xmlns="http://www.w3.org/2000/svg">
<path d="M6.74583 0.83249H5.3125V5.72832H9.16667V3.25332C9.19698 2.92785 9.15518 2.5997 9.04424 2.29222C8.9333 1.98474 8.75595 1.70549 8.52481 1.47435C8.29367 1.24321 8.01442 1.06586 7.70694 0.954919C7.39946 0.843979 7.07131 0.802178 6.74583 0.83249Z" fill="#A7B0B5"/>
<path d="M0.832338 4.26999V6.74499C0.802026 7.07046 0.843827 7.39862 0.954767 7.7061C1.06571 8.01358 1.24306 8.29282 1.4742 8.52396C1.70534 8.7551 1.98458 8.93245 2.29206 9.04339C2.59954 9.15433 2.9277 9.19613 3.25317 9.16582H4.6865V4.26999H0.832338Z" fill="#A7B0B5"/>
<path d="M4.6865 0.83249V3.64499H0.832338V3.25332C0.802026 2.92785 0.843827 2.5997 0.954767 2.29222C1.06571 1.98474 1.24306 1.70549 1.4742 1.47435C1.70534 1.24321 1.98458 1.06586 2.29206 0.954919C2.59954 0.843979 2.9277 0.802178 3.25317 0.83249H4.6865Z" fill="#A7B0B5"/>
<path d="M9.17008 6.35748V6.74915C9.2004 7.07462 9.1586 7.40278 9.04766 7.71026C8.93672 8.01774 8.75936 8.29698 8.52822 8.52812C8.29708 8.75926 8.01784 8.93661 7.71036 9.04755C7.40288 9.15849 7.07472 9.20029 6.74925 9.16998H5.31592V6.35748H9.17008Z" fill="#A7B0B5"/>
</svg>
