<svg width="18" height="19" viewBox="0 0 18 19" fill="none" xmlns="http://www.w3.org/2000/svg">
<path d="M15.5309 8.32399C14.9698 8.0237 14.3424 7.86866 13.7061 7.87299H4.14723C3.50853 7.87038 2.87903 8.02529 2.31445 8.32399V6.22399C2.31445 3.54099 3.15035 2.72399 5.88802 2.72399H6.79291C7.16011 2.68231 7.53164 2.74456 7.86521 2.90367C8.19877 3.06279 8.48097 3.31236 8.67968 3.62399L9.59957 4.82399C9.79155 5.07999 9.79955 5.09499 10.1365 5.09499H11.9613C14.308 5.09499 15.2549 5.69499 15.5089 7.89499C15.5049 7.79099 15.5219 8.04699 15.5309 8.32399Z" fill="#394CB2"/>
<path d="M9.58805 15.078H4.51766C2.12795 15.078 2.00597 13.765 1.90898 12.71L1.63101 9.20001C1.56628 8.51743 1.76799 7.83625 2.19394 7.29901C2.4061 7.0338 2.66925 6.8138 2.96785 6.65201C3.35571 6.43461 3.79308 6.32095 4.2377 6.32201H13.5946C14.0393 6.32031 14.4768 6.43401 14.8644 6.65201C15.1504 6.80345 15.4034 7.0105 15.6083 7.26101L15.7293 7.42701C16.1078 7.93908 16.2792 8.57508 16.2092 9.20801V9.26501C15.4319 8.678 14.4836 8.36188 13.5096 8.36501C12.7233 8.36438 11.9505 8.56984 11.2683 8.96094C10.5861 9.35203 10.0183 9.9151 9.62149 10.594C9.22466 11.273 9.01267 12.044 9.00662 12.8304C9.00058 13.6168 9.2007 14.3911 9.58705 15.076L9.58805 15.078Z" fill="#6F87F0"/>
<path d="M13.5029 9.32098C14.2028 9.32098 14.887 9.52854 15.469 9.91741C16.051 10.3063 16.5046 10.859 16.7725 11.5057C17.0403 12.1523 17.1104 12.8639 16.9739 13.5504C16.8373 14.2369 16.5003 14.8675 16.0053 15.3624C15.5104 15.8574 14.8798 16.1944 14.1933 16.331C13.5068 16.4675 12.7952 16.3975 12.1486 16.1296C11.5019 15.8617 10.9492 15.4081 10.5603 14.8261C10.1714 14.2442 9.96387 13.5599 9.96387 12.86C9.96387 11.9214 10.3367 11.0212 11.0004 10.3575C11.6641 9.69384 12.5643 9.32098 13.5029 9.32098V9.32098Z" fill="#3D4BAC"/>
<path d="M13.772 14.113V11.606C13.772 11.4574 13.6518 11.337 13.5035 11.337C13.3552 11.337 13.235 11.4574 13.235 11.606V14.113C13.235 14.2615 13.3552 14.382 13.5035 14.382C13.6518 14.382 13.772 14.2615 13.772 14.113Z" fill="white"/>
<path d="M13.8218 14.113V11.606C13.8218 11.4298 13.6792 11.287 13.5033 11.287C13.3274 11.287 13.1848 11.4298 13.1848 11.606V14.113C13.1848 14.2892 13.3274 14.432 13.5033 14.432C13.6792 14.432 13.8218 14.2892 13.8218 14.113Z" stroke="white" stroke-width="0.1"/>
<path d="M14.7985 12.591H12.2075C12.0589 12.591 11.9385 12.7112 11.9385 12.8595C11.9385 13.0078 12.0589 13.128 12.2075 13.128H14.7985C14.947 13.128 15.0675 13.0078 15.0675 12.8595C15.0675 12.7112 14.947 12.591 14.7985 12.591Z" fill="white"/>
<path d="M14.7987 12.541H12.2077C12.0315 12.541 11.8887 12.6836 11.8887 12.8595C11.8887 13.0354 12.0315 13.178 12.2077 13.178H14.7987C14.9749 13.178 15.1177 13.0354 15.1177 12.8595C15.1177 12.6836 14.9749 12.541 14.7987 12.541Z" stroke="white" stroke-width="0.1"/>
</svg>
