<svg width="18" height="19" viewBox="0 0 18 19" fill="none" xmlns="http://www.w3.org/2000/svg">
<path d="M2.68066 3.154V3.834C2.69079 4.04895 2.78511 4.25128 2.94321 4.39724C3.10132 4.54321 3.31051 4.62107 3.52556 4.614L14.4792 4.59C14.6946 4.59709 14.9041 4.51932 15.0627 4.37344C15.2213 4.22755 15.3162 4.02522 15.3271 3.81V3.13C15.3157 2.91548 15.2204 2.71405 15.0618 2.56923C14.9031 2.42441 14.6939 2.34782 14.4792 2.356L3.52556 2.38C3.31115 2.37157 3.10209 2.44817 2.94386 2.59312C2.78564 2.73807 2.69104 2.93965 2.68066 3.154V3.154Z" fill="#45444E"/>
<path d="M9.00293 8.69102V9.37102C9.01306 9.58597 9.10739 9.7883 9.26551 9.93426C9.42363 10.0802 9.63285 10.1581 9.84793 10.151L14.4789 10.127C14.6943 10.1341 14.9039 10.0563 15.0625 9.91045C15.2211 9.76457 15.316 9.56223 15.3269 9.34702V8.66702C15.3155 8.4525 15.2202 8.25107 15.0615 8.10625C14.9029 7.96143 14.6936 7.88483 14.4789 7.89302L9.84793 7.91702C9.6335 7.90859 9.42441 7.98519 9.26616 8.13014C9.10791 8.27509 9.01331 8.47667 9.00293 8.69102V8.69102Z" fill="#45444E"/>
<path d="M9.00293 14.228V14.908C9.01306 15.123 9.10739 15.3253 9.26551 15.4712C9.42363 15.6172 9.63285 15.6951 9.84793 15.688L14.4789 15.664C14.6943 15.6711 14.9039 15.5933 15.0625 15.4474C15.2211 15.3016 15.316 15.0992 15.3269 14.884V14.204C15.3155 13.9895 15.2202 13.7881 15.0615 13.6432C14.9029 13.4984 14.6936 13.4218 14.4789 13.43L9.84793 13.454C9.6335 13.4456 9.42441 13.5222 9.26616 13.6671C9.10791 13.8121 9.01331 14.0137 9.00293 14.228V14.228Z" fill="#45444E"/>
<path opacity="0.5" d="M6.14864 10.31V9.78099H3.58564C3.50608 9.78099 3.42977 9.74938 3.37351 9.69312C3.31725 9.63686 3.28564 9.56055 3.28564 9.48099V5.96199C3.28564 5.88242 3.31725 5.80612 3.37351 5.74986C3.42977 5.69359 3.50608 5.66199 3.58564 5.66199H4.61864C4.69821 5.66199 4.77452 5.69359 4.83078 5.74986C4.88704 5.80612 4.91864 5.88242 4.91864 5.96199V8.14899H6.14864V7.61999C6.14864 7.36299 6.38764 7.20899 6.56964 7.34799L8.31264 8.69299C8.35162 8.72678 8.38288 8.76856 8.4043 8.81549C8.42573 8.86242 8.43681 8.9134 8.43681 8.96499C8.43681 9.01657 8.42573 9.06756 8.4043 9.11449C8.38288 9.16142 8.35162 9.20319 8.31264 9.23699L6.56964 10.582C6.52762 10.6157 6.47551 10.6344 6.42164 10.635C6.38237 10.6316 6.34416 10.6205 6.30918 10.6023C6.2742 10.5841 6.24315 10.5592 6.21779 10.5291C6.19244 10.4989 6.17328 10.464 6.16142 10.4264C6.14955 10.3888 6.14521 10.3493 6.14864 10.31Z" fill="#45444D"/>
<path opacity="0.5" d="M6.14864 15.759V15.23H3.58564C3.50608 15.23 3.42977 15.1984 3.37351 15.1421C3.31725 15.0859 3.28564 15.0096 3.28564 14.93V11.411C3.28564 11.3314 3.31725 11.2551 3.37351 11.1989C3.42977 11.1426 3.50608 11.111 3.58564 11.111H4.61864C4.69821 11.111 4.77452 11.1426 4.83078 11.1989C4.88704 11.2551 4.91864 11.3314 4.91864 11.411V13.598H6.14864V13.069C6.14864 12.812 6.38764 12.658 6.56964 12.797L8.31264 14.142C8.35162 14.1758 8.38288 14.2176 8.4043 14.2645C8.42573 14.3114 8.43681 14.3624 8.43681 14.414C8.43681 14.4656 8.42573 14.5166 8.4043 14.5635C8.38288 14.6104 8.35162 14.6522 8.31264 14.686L6.56964 16.031C6.52762 16.0647 6.47551 16.0834 6.42164 16.084C6.38237 16.0806 6.34416 16.0695 6.30918 16.0513C6.2742 16.0331 6.24315 16.0082 6.21779 15.9781C6.19244 15.9479 6.17328 15.913 6.16142 15.8754C6.14955 15.8378 6.14521 15.7983 6.14864 15.759Z" fill="#45444D"/>
</svg>
