<svg width="17" height="17" viewBox="0 0 17 17" fill="none" xmlns="http://www.w3.org/2000/svg">
<path d="M7.48408 4.2075C7.48408 4.61727 7.36257 5.01785 7.13491 5.35857C6.90725 5.69929 6.58367 5.96484 6.20508 6.12166C5.82649 6.27847 5.40991 6.3195 5.00801 6.23956C4.6061 6.15962 4.23693 5.96229 3.94717 5.67253C3.65741 5.38278 3.46009 5.0136 3.38014 4.6117C3.3002 4.20979 3.34123 3.79321 3.49805 3.41462C3.65486 3.03604 3.92042 2.71245 4.26114 2.48479C4.60185 2.25713 5.00243 2.13562 5.41221 2.13562C5.9617 2.13562 6.48869 2.35391 6.87724 2.74246C7.2658 3.13101 7.48408 3.658 7.48408 4.2075Z" fill="#9D1C54"/>
<path d="M14.6379 11.4548L12.719 6.96684C12.3694 6.14553 11.8488 5.67909 11.2538 5.64722C10.9048 5.67127 10.5698 5.79386 10.2877 6.00075C10.0055 6.20763 9.78792 6.49032 9.66007 6.81597L8.49132 8.90378C8.40272 9.09758 8.26726 9.26628 8.09716 9.39464C7.92706 9.523 7.72768 9.60699 7.51701 9.63903C7.30313 9.645 7.09127 9.59632 6.90144 9.4976C6.71162 9.39888 6.55012 9.25337 6.4322 9.07484L6.29726 8.90272C6.12866 8.65741 5.89996 8.45944 5.63302 8.32774C5.36608 8.19604 5.06983 8.135 4.77257 8.15047C4.4781 8.1968 4.20049 8.31808 3.96641 8.50266C3.73234 8.68724 3.54967 8.92892 3.43595 9.20447L2.37345 11.3199C2.18702 11.6926 2.09899 12.1067 2.1177 12.523C2.13641 12.9392 2.26126 13.3438 2.48036 13.6982C2.69947 14.0527 3.00557 14.3452 3.36957 14.548C3.73357 14.7508 4.14338 14.8572 4.56007 14.857H12.3822C12.7867 14.8572 13.1849 14.7571 13.5411 14.5655C13.8973 14.374 14.2004 14.097 14.4233 13.7594C14.6504 13.4245 14.7892 13.0376 14.8267 12.6347C14.8642 12.2318 14.7993 11.8259 14.6379 11.4548Z" fill="#9D1C54"/>
</svg>
