<svg width="6" height="4" viewBox="0 0 6 4" fill="none" xmlns="http://www.w3.org/2000/svg">
<path d="M3.32201 3.38421C3.2366 3.45836 3.12077 3.50002 3 3.50001C2.87923 3.50001 2.7634 3.45836 2.67799 3.38421L0.133808 1.17558C0.0700023 1.12031 0.0265114 1.04984 0.00884126 0.973096C-0.00882889 0.896351 0.000114675 0.81678 0.0345414 0.744451C0.0689681 0.672123 0.127329 0.61029 0.202239 0.566778C0.277149 0.523267 0.365239 0.500032 0.455361 0.500015L5.54373 0.500016C5.63393 0.499876 5.72214 0.522997 5.79719 0.566448C5.87224 0.6099 5.93075 0.671725 5.96528 0.744086C5.99982 0.816447 6.00885 0.896084 5.9912 0.972902C5.97356 1.04972 5.93005 1.12026 5.86619 1.17558L3.32201 3.38421Z" fill="#A7B0B5"/>
</svg>
