<svg width="17" height="17" viewBox="0 0 17 17" fill="none" xmlns="http://www.w3.org/2000/svg">
<g clip-path="url(#clip0_4488_69653)">
<path d="M12.7734 14.8771H9.99606V13.8975H12.8797C13.1615 13.8975 13.4317 13.7856 13.631 13.5863C13.8302 13.3871 13.9422 13.1168 13.9422 12.835V9.97157H14.8984V12.7521C14.8984 13.3157 14.6746 13.8562 14.276 14.2547C13.8775 14.6533 13.337 14.8771 12.7734 14.8771ZM7.054 14.8771H4.27344C3.70985 14.8771 3.16935 14.6533 2.77084 14.2547C2.37232 13.8562 2.14844 13.3157 2.14844 12.7521V9.97157H3.1525V12.8318C3.1525 13.1136 3.26444 13.3839 3.4637 13.5831C3.66296 13.7824 3.93321 13.8943 4.215 13.8943H7.054V14.8771ZM14.8984 7.02951H13.9422V4.1682C13.9422 3.88641 13.8302 3.61616 13.631 3.4169C13.4317 3.21764 13.1615 3.1057 12.8797 3.1057H9.99606V2.12714H12.7734C13.337 2.12714 13.8775 2.35102 14.276 2.74953C14.6746 3.14805 14.8984 3.68855 14.8984 4.25214V7.02845V7.02951ZM3.15038 7.02951H2.14844V4.25214C2.14844 3.68855 2.37232 3.14805 2.77084 2.74953C3.16935 2.35102 3.70985 2.12714 4.27344 2.12714H7.054V3.1057H4.215C3.93321 3.1057 3.66296 3.21764 3.4637 3.4169C3.26444 3.61616 3.1525 3.88641 3.1525 4.1682V7.02845L3.15038 7.02951Z" fill="#0C011F"/>
</g>
<defs>
<clipPath id="clip0_4488_69653">
<rect width="17" height="17" fill="white"/>
</clipPath>
</defs>
</svg>
