<svg width="19" height="19" viewBox="0 0 19 19" fill="none" xmlns="http://www.w3.org/2000/svg">
<path d="M11.8427 7.69699C11.0205 7.69699 10.232 8.0236 9.65065 8.60496C9.06928 9.18632 8.74268 9.97482 8.74268 10.797C8.74193 11.3617 8.89769 11.9155 9.19268 12.397C9.46676 12.8543 9.85466 13.2328 10.3186 13.4956C10.7824 13.7584 11.3065 13.8966 11.8397 13.8966C12.3728 13.8966 12.8969 13.7584 13.3608 13.4956C13.8247 13.2328 14.2126 12.8543 14.4867 12.397C14.7825 11.9159 14.9383 11.3618 14.9367 10.797C14.9367 9.97586 14.6109 9.18827 14.0308 8.60708C13.4508 8.02589 12.6638 7.69858 11.8427 7.69699V7.69699ZM12.9997 11.27H12.3287V11.97C12.3287 12.0997 12.2772 12.2241 12.1855 12.3158C12.0937 12.4075 11.9694 12.459 11.8397 12.459C11.71 12.459 11.5856 12.4075 11.4939 12.3158C11.4022 12.2241 11.3507 12.0997 11.3507 11.97V11.27H10.6857C10.6215 11.27 10.5579 11.2573 10.4985 11.2328C10.4392 11.2082 10.3853 11.1722 10.3399 11.1268C10.2945 11.0814 10.2585 11.0275 10.2339 10.9681C10.2093 10.9088 10.1967 10.8452 10.1967 10.781C10.1967 10.7168 10.2093 10.6532 10.2339 10.5939C10.2585 10.5345 10.2945 10.4806 10.3399 10.4352C10.3853 10.3898 10.4392 10.3538 10.4985 10.3292C10.5579 10.3046 10.6215 10.292 10.6857 10.292H11.3507V9.65299C11.3507 9.5233 11.4022 9.39892 11.4939 9.30722C11.5856 9.21551 11.71 9.16399 11.8397 9.16399C11.9694 9.16399 12.0937 9.21551 12.1855 9.30722C12.2772 9.39892 12.3287 9.5233 12.3287 9.65299V10.292H13.0007C13.0649 10.292 13.1285 10.3046 13.1878 10.3292C13.2471 10.3538 13.301 10.3898 13.3465 10.4352C13.3919 10.4806 13.4279 10.5345 13.4525 10.5939C13.477 10.6532 13.4897 10.7168 13.4897 10.781C13.4897 10.8452 13.477 10.9088 13.4525 10.9681C13.4279 11.0275 13.3919 11.0814 13.3465 11.1268C13.301 11.1722 13.2471 11.2082 13.1878 11.2328C13.1285 11.2573 13.0649 11.27 13.0007 11.27H12.9997Z" fill="#45444F"/>
<path d="M14.2511 3.79899V5.24599C14.2134 5.81186 13.9833 6.34781 13.5992 6.76499L13.4822 6.86499C13.4355 6.90552 13.3788 6.9329 13.3181 6.94432C13.2573 6.95574 13.1945 6.9508 13.1363 6.92999C13.0063 6.88399 12.8753 6.85199 12.7453 6.81899C12.4486 6.74895 12.1443 6.71536 11.8394 6.71899C10.7587 6.71899 9.72225 7.14829 8.95798 7.91247C8.1937 8.67666 7.7642 9.71315 7.76394 10.794C7.76208 11.5347 7.96522 12.2616 8.35086 12.894C8.66707 13.4257 9.10504 13.8747 9.62871 14.204C9.66547 14.2233 9.69737 14.2507 9.72199 14.2841C9.74661 14.3176 9.7633 14.3562 9.77081 14.397C9.77833 14.4379 9.77646 14.4799 9.76535 14.5199C9.75424 14.5599 9.73419 14.5969 9.7067 14.628C9.66071 14.667 9.61571 14.7 9.56972 14.728L8.65683 15.321C8.45683 15.4438 8.22778 15.5111 7.99317 15.5161C7.75857 15.5211 7.52685 15.4636 7.32179 15.3495C7.11672 15.2354 6.9457 15.0689 6.82625 14.8668C6.70681 14.6648 6.64324 14.4347 6.64207 14.2V10.716C6.60872 10.2138 6.42707 9.73283 6.12014 9.33399L3.65143 6.69999C3.31394 6.33866 3.10728 5.87461 3.06451 5.38199V3.86399C3.05756 3.68751 3.08583 3.5114 3.14767 3.34596C3.20951 3.18052 3.30368 3.02906 3.42468 2.90041C3.54568 2.77176 3.69109 2.6685 3.85243 2.59666C4.01376 2.52482 4.18779 2.48584 4.36435 2.48199H12.9533C13.2996 2.48595 13.6303 2.62658 13.8734 2.87325C14.1164 3.11992 14.2522 3.45266 14.2511 3.79899Z" fill="#45444F"/>
</svg>
