<svg width="12" height="12" viewBox="0 0 12 12" fill="none" xmlns="http://www.w3.org/2000/svg">
<path d="M10.6354 4.58959C10.4942 4.36623 10.3406 4.15095 10.1754 3.94479C10.1317 3.88951 10.0768 3.84407 10.0144 3.81147C9.95195 3.77886 9.88332 3.75982 9.813 3.75559C9.74267 3.75136 9.67225 3.76203 9.60635 3.78692C9.54044 3.81181 9.48054 3.85034 9.43056 3.89999L7.93056 5.39999C8.04616 5.7578 8.05643 6.14131 7.96016 6.50479C7.87066 6.85443 7.68869 7.17353 7.43334 7.42859C7.178 7.68366 6.8587 7.86528 6.50896 7.95439C6.14547 8.05066 5.76197 8.04039 5.40416 7.92479L4.17536 9.15439C4.11686 9.21293 4.07372 9.28502 4.04979 9.36425C4.02585 9.44347 4.02186 9.52739 4.03817 9.60853C4.05448 9.68967 4.09058 9.76552 4.14326 9.82935C4.19595 9.89318 4.26358 9.943 4.34016 9.97439C4.86972 10.1789 5.43249 10.2839 6.00016 10.284C6.90121 10.2774 7.78255 10.0195 8.54496 9.53919C9.40615 8.98663 10.1296 8.24453 10.6602 7.36959C10.89 6.94148 11.0083 6.46232 11.0039 5.97642C10.9996 5.49051 10.8728 5.01354 10.6354 4.58959V4.58959Z" fill="#A7B0B5"/>
<path d="M7.00982 4.98961L4.98982 7.00961C4.72335 6.74051 4.57262 6.37791 4.56982 5.99921C4.57067 5.62032 4.72156 5.25718 4.98948 4.98926C5.2574 4.72135 5.62053 4.57046 5.99942 4.56961C6.37812 4.57241 6.74073 4.72313 7.00982 4.98961V4.98961Z" fill="#A7B0B5"/>
<path d="M9.12502 2.87519L7.42982 4.57039C7.2429 4.38168 7.02014 4.23223 6.77463 4.13084C6.52913 4.02945 6.26583 3.97816 6.00022 3.97999C5.60068 3.98049 5.21025 4.09931 4.87818 4.32147C4.5461 4.54363 4.28727 4.85917 4.13434 5.22827C3.98141 5.59738 3.94123 6.00351 4.01888 6.39542C4.09652 6.78734 4.28851 7.14748 4.57062 7.43039L2.88022 9.12479H2.87542C2.2877 8.64016 1.7813 8.06462 1.37542 7.41999C1.12966 6.98621 1.00049 6.49616 1.00049 5.99759C1.00049 5.49903 1.12966 5.00898 1.37542 4.57519C1.90136 3.72307 2.61224 3.00016 3.45542 2.45999C4.21884 1.98196 5.09952 1.72421 6.00022 1.71519C7.14432 1.73048 8.24808 2.14022 9.12502 2.87519V2.87519Z" fill="#A7B0B5"/>
<path d="M7.43024 5.99999C7.4296 6.37916 7.2787 6.74262 7.01058 7.01074C6.74247 7.27885 6.37901 7.42976 5.99984 7.43039C5.97118 7.43186 5.94249 7.42834 5.91504 7.41999L7.41984 5.91519C7.42819 5.94264 7.4317 5.97134 7.43024 5.99999V5.99999Z" fill="#A7B0B5"/>
<path d="M10.8849 1.11519C10.8125 1.04323 10.7146 1.00284 10.6125 1.00284C10.5104 1.00284 10.4125 1.04323 10.3401 1.11519L1.11528 10.3448C1.04332 10.4172 1.00293 10.5151 1.00293 10.6172C1.00293 10.7193 1.04332 10.8172 1.11528 10.8896C1.18793 10.9591 1.28434 10.9983 1.38488 10.9992C1.43535 10.9989 1.48526 10.9886 1.5317 10.9689C1.57813 10.9491 1.62014 10.9202 1.65528 10.884L10.8849 1.65519C10.9216 1.62043 10.9508 1.57856 10.9707 1.53214C10.9907 1.48572 11.001 1.43572 11.001 1.38519C11.001 1.33466 10.9907 1.28466 10.9707 1.23824C10.9508 1.19182 10.9216 1.14995 10.8849 1.11519V1.11519Z" fill="#A7B0B5"/>
</svg>
