<svg width="12" height="12" viewBox="0 0 12 12" fill="none" xmlns="http://www.w3.org/2000/svg">
<path d="M10.5351 2.6144C9.73034 2.5344 8.92474 2.4744 8.11514 2.4296V2.4248L8.00314 1.7752C7.92954 1.3144 7.81994 0.624802 6.64954 0.624802H5.33993C4.17513 0.624802 4.06473 1.2848 3.98473 1.7696L3.87994 2.4096C3.41514 2.44 2.94954 2.4696 2.48474 2.5144L1.46474 2.6144C1.41421 2.61684 1.36471 2.62949 1.31921 2.6516C1.27371 2.6737 1.23316 2.70479 1.20001 2.74299C1.16686 2.7812 1.1418 2.82572 1.12633 2.87388C1.11086 2.92204 1.10532 2.97284 1.11002 3.0232C1.11473 3.07356 1.12959 3.12245 1.15371 3.16691C1.17783 3.21137 1.21072 3.25048 1.25037 3.28188C1.29003 3.31328 1.33563 3.33633 1.38444 3.34961C1.43324 3.3629 1.48423 3.36616 1.53434 3.3592L2.55514 3.26C5.18889 3.03256 7.83873 3.06767 10.4655 3.3648H10.5055C10.5994 3.36509 10.6901 3.33044 10.7599 3.26761C10.8297 3.20477 10.8736 3.11823 10.8831 3.0248C10.8907 2.92439 10.8584 2.82505 10.7933 2.74825C10.7282 2.67145 10.6354 2.62337 10.5351 2.6144Z" fill="#EA4821"/>
<path d="M9.61446 4.0704C9.55573 4.00899 9.48522 3.96005 9.40715 3.92651C9.32907 3.89297 9.24504 3.87552 9.16006 3.8752H2.84006C2.75488 3.87495 2.67055 3.89213 2.59227 3.9257C2.51398 3.95927 2.4434 4.00852 2.38486 4.0704C2.32647 4.13332 2.28124 4.20727 2.25184 4.28791C2.22244 4.36856 2.20946 4.45427 2.21366 4.54L2.52486 9.6704C2.58006 10.4304 2.64966 11.3808 4.39446 11.3808H7.60486C9.34966 11.3808 9.42006 10.436 9.47526 9.6704L9.78486 4.5456C9.7897 4.45902 9.77711 4.37235 9.74784 4.29073C9.71857 4.2091 9.67322 4.13418 9.61446 4.0704V4.0704ZM6.82966 8.8752H5.16486C5.11419 8.87754 5.06356 8.86958 5.01605 8.8518C4.96854 8.83403 4.92512 8.8068 4.88843 8.77176C4.85174 8.73673 4.82254 8.69462 4.80258 8.64798C4.78263 8.60133 4.77234 8.55113 4.77234 8.5004C4.77234 8.44967 4.78263 8.39947 4.80258 8.35283C4.82254 8.30618 4.85174 8.26407 4.88843 8.22904C4.92512 8.19401 4.96854 8.16678 5.01605 8.149C5.06356 8.13122 5.11419 8.12326 5.16486 8.1256H6.82966C6.92917 8.1256 7.0246 8.16513 7.09497 8.23549C7.16533 8.30586 7.20486 8.40129 7.20486 8.5008C7.20486 8.60031 7.16533 8.69574 7.09497 8.76611C7.0246 8.83647 6.92917 8.876 6.82966 8.876V8.8752ZM7.25366 6.8752H4.74966C4.65325 6.87075 4.56227 6.82931 4.49562 6.75951C4.42897 6.68971 4.39178 6.59691 4.39178 6.5004C4.39178 6.40389 4.42897 6.31109 4.49562 6.24129C4.56227 6.17149 4.65325 6.13006 4.74966 6.1256H7.25366C7.35317 6.1256 7.44861 6.16513 7.51897 6.23549C7.58933 6.30586 7.62886 6.40129 7.62886 6.5008C7.62886 6.60031 7.58933 6.69574 7.51897 6.76611C7.44861 6.83647 7.35317 6.876 7.25366 6.876V6.8752Z" fill="#EA4821"/>
</svg>
