<svg width="17" height="17" viewBox="0 0 17 17" fill="none" xmlns="http://www.w3.org/2000/svg">
<g clip-path="url(#clip0_4488_69696)">
<path d="M5.90756 2.14625V5.94044H2.14631C2.09915 5.43325 2.16379 4.9219 2.33565 4.44239C2.50752 3.96289 2.78245 3.52691 3.14105 3.16516C3.49966 2.80341 3.93323 2.52469 4.41122 2.34865C4.88921 2.17261 5.39998 2.10352 5.90756 2.14625Z" fill="#7C6AE7"/>
<path d="M14.8526 5.94044H11.0913V2.14625C11.5989 2.10352 12.1097 2.17261 12.5876 2.34865C13.0656 2.52469 13.4992 2.80341 13.8578 3.16516C14.2164 3.52691 14.4913 3.96289 14.6632 4.44239C14.8351 4.9219 14.8997 5.43325 14.8526 5.94044Z" fill="#7C6AE7"/>
<path d="M14.8526 11.1233C14.891 11.6256 14.8199 12.1302 14.644 12.6023C14.4681 13.0743 14.1917 13.5025 13.834 13.8571C13.4762 14.2117 13.0456 14.4844 12.572 14.6561C12.0985 14.8278 11.5932 14.8945 11.0913 14.8516V11.1233H14.8526Z" fill="#7C6AE7"/>
<path d="M5.90764 11.1233V14.8516C5.40572 14.8945 4.90048 14.8278 4.42691 14.6561C3.95334 14.4844 3.52276 14.2117 3.16499 13.8571C2.80723 13.5025 2.53083 13.0743 2.35495 12.6023C2.17907 12.1302 2.1079 11.6256 2.14639 11.1233L5.90764 11.1233Z" fill="#7C6AE7"/>
<path d="M2.14648 6.73199H5.90773V10.3296H2.14648V6.73199Z" fill="#7C6AE7"/>
<path d="M11.0913 6.73199H14.8526V10.3296H11.0913V6.73199Z" fill="#7C6AE7"/>
<path d="M6.7002 6.73199H10.2978V10.3296H6.7002V6.73199Z" fill="#7C6AE7"/>
<path d="M6.7002 2.14624H10.2978V5.94043H6.7002V2.14624Z" fill="#7C6AE7"/>
<path d="M6.7002 11.1233H10.2978V14.8516H6.7002V11.1233Z" fill="#7C6AE7"/>
</g>
<defs>
<clipPath id="clip0_4488_69696">
<rect width="17" height="17" fill="white"/>
</clipPath>
</defs>
</svg>
