<svg width="12" height="12" viewBox="0 0 12 12" fill="none" xmlns="http://www.w3.org/2000/svg">
<g clip-path="url(#clip0_3994_3161)">
<path d="M9 4H8.5V3C8.5 2.33696 8.23661 1.70107 7.76777 1.23223C7.29893 0.763392 6.66304 0.5 6 0.5C5.33696 0.5 4.70107 0.763392 4.23223 1.23223C3.76339 1.70107 3.5 2.33696 3.5 3V4H3C2.73504 4.00084 2.48118 4.10647 2.29383 4.29383C2.10647 4.48118 2.00084 4.73504 2 5V10C2.00084 10.265 2.10647 10.5188 2.29383 10.7062C2.48118 10.8935 2.73504 10.9992 3 11H9C9.26496 10.9992 9.51882 10.8935 9.70617 10.7062C9.89353 10.5188 9.99916 10.265 10 10V5C9.99916 4.73504 9.89353 4.48118 9.70617 4.29383C9.51882 4.10647 9.26496 4.00084 9 4ZM6 8.5C5.80222 8.5 5.60888 8.44135 5.44443 8.33147C5.27998 8.22159 5.15181 8.06541 5.07612 7.88268C5.00043 7.69996 4.98063 7.49889 5.01921 7.30491C5.0578 7.11093 5.15304 6.93275 5.29289 6.79289C5.43275 6.65304 5.61093 6.5578 5.80491 6.51921C5.99889 6.48063 6.19996 6.50043 6.38268 6.57612C6.56541 6.65181 6.72159 6.77998 6.83147 6.94443C6.94135 7.10888 7 7.30222 7 7.5C6.99916 7.76496 6.89353 8.01882 6.70617 8.20617C6.51882 8.39353 6.26496 8.49916 6 8.5ZM7.5504 4H4.4496V3C4.4588 2.59501 4.62614 2.20971 4.91582 1.92654C5.2055 1.64336 5.59451 1.48482 5.9996 1.48482C6.40469 1.48482 6.7937 1.64336 7.08338 1.92654C7.37306 2.20971 7.5404 2.59501 7.5496 3L7.5504 4Z" fill="#A7B0B5"/>
</g>
<defs>
<clipPath id="clip0_3994_3161">
<rect width="12" height="12" fill="white"/>
</clipPath>
</defs>
</svg>
