<svg width="17" height="17" viewBox="0 0 17 17" fill="none" xmlns="http://www.w3.org/2000/svg">
<g clip-path="url(#clip0_4488_69663)">
<path d="M14.6591 5.28276C14.4455 4.59007 14.0657 3.9601 13.5529 3.4477C13.0402 2.9353 12.4099 2.556 11.7171 2.34282C11.3561 2.17868 10.9617 2.10153 10.5655 2.11759C10.1693 2.13364 9.78239 2.24245 9.4359 2.43526C9.18901 2.67068 8.99971 2.95984 8.8827 3.28029C8.76569 3.60073 8.72411 3.94383 8.76121 4.28295V5.86926C8.76121 7.43645 9.47415 8.23226 10.8756 8.23226H12.7041C13.0433 8.26833 13.3862 8.22617 13.7065 8.10903C14.0268 7.99188 14.316 7.80287 14.5518 7.55651C14.7521 7.21438 14.8665 6.82882 14.8852 6.43284C14.9038 6.03685 14.8263 5.64223 14.6591 5.28276Z" fill="#C418FF"/>
<path d="M12.9008 9.367C12.8192 9.27317 12.7185 9.19789 12.6055 9.14621C12.4924 9.09453 12.3696 9.06765 12.2452 9.06737H9.96405C9.42525 9.06681 8.90869 8.85245 8.52781 8.47136C8.14692 8.09027 7.93283 7.57361 7.93255 7.03481V4.75469C7.93303 4.62947 7.90651 4.50562 7.85481 4.39157C7.8031 4.27752 7.72742 4.17597 7.63292 4.09381C7.54108 4.01193 7.43281 3.95061 7.31535 3.91396C7.1979 3.87731 7.07397 3.86618 6.95186 3.88131C6.20309 3.98152 5.48258 4.2332 4.83427 4.62102C4.18597 5.00883 3.62345 5.52464 3.18105 6.137C2.63727 6.88598 2.29132 7.76009 2.17525 8.67835C2.05918 9.59661 2.17675 10.5293 2.51706 11.39C2.85737 12.2508 3.40941 13.0117 4.12205 13.6023C4.83468 14.1929 5.68485 14.5941 6.5938 14.7687C6.9397 14.8388 7.29169 14.8744 7.64461 14.875C8.80135 14.877 9.92837 14.5088 10.8608 13.8242C11.4732 13.3802 11.9886 12.8159 12.3756 12.1659C12.7625 11.5159 13.0128 10.7938 13.1112 10.0438C13.1264 9.92252 13.1156 9.79936 13.0793 9.68262C13.043 9.56588 12.9821 9.45826 12.9008 9.367Z" fill="#C418FF"/>
</g>
<defs>
<clipPath id="clip0_4488_69663">
<rect width="17" height="17" fill="white"/>
</clipPath>
</defs>
</svg>
