<svg width="16" height="16" viewBox="0 0 16 16" fill="none" xmlns="http://www.w3.org/2000/svg">
<path d="M5.16723 1.3336V5.20009H1.33354C1.28559 4.68319 1.35156 4.16207 1.5268 3.67343C1.70203 3.18479 1.98226 2.74051 2.34777 2.37188C2.71327 2.00326 3.15514 1.71925 3.64227 1.53986C4.12941 1.36047 4.64994 1.29006 5.16723 1.3336Z" fill="#5F89FF"/>
<path d="M14.6677 5.20009H10.834V1.3336C11.3513 1.29006 11.8718 1.36047 12.3589 1.53986C12.8461 1.71925 13.2879 2.00326 13.6534 2.37188C14.0189 2.74051 14.2992 3.18479 14.4744 3.67343C14.6496 4.16207 14.7156 4.68319 14.6677 5.20009Z" fill="#5F89FF"/>
<path d="M14.6677 10.8671C14.7069 11.379 14.6343 11.8933 14.4551 12.3745C14.2758 12.8556 13.9941 13.292 13.6294 13.6535C13.2648 14.0149 12.8259 14.2928 12.3432 14.4678C11.8605 14.6429 11.3456 14.7109 10.834 14.6672V10.8671H14.6677Z" fill="#5F89FF"/>
<path d="M5.16728 10.8671V14.6672C4.6557 14.7109 4.14073 14.6429 3.65805 14.4678C3.17536 14.2928 2.7365 14.0149 2.37184 13.6535C2.00719 13.292 1.72547 12.8556 1.5462 12.3745C1.36692 11.8933 1.29438 11.379 1.33359 10.8671L5.16728 10.8671Z" fill="#5F89FF"/>
<path d="M1.33398 6.2002H5.16768V9.86992H1.33398V6.2002Z" fill="#5F89FF"/>
<path d="M10.834 6.2002H14.6677V9.86992H10.834V6.2002Z" fill="#5F89FF"/>
<path d="M6.16602 6.2002H9.83574V9.86992H6.16602V6.2002Z" fill="#5F89FF"/>
<path d="M6.16602 1.33359H9.83574V5.20007H6.16602V1.33359Z" fill="#5F89FF"/>
<path d="M6.16602 10.8671H9.83574V14.6672H6.16602V10.8671Z" fill="#5F89FF"/>
</svg>
