<svg width="16" height="16" viewBox="0 0 16 16" fill="none" xmlns="http://www.w3.org/2000/svg">
<path d="M15.166 11.6667C15.1652 11.7991 15.1122 11.9259 15.0186 12.0195C14.925 12.1131 14.7982 12.1661 14.6658 12.1669H10.0051V12.3333C10.0278 12.5138 10.009 12.6971 9.95003 12.8692C9.89107 13.0413 9.79355 13.1976 9.66491 13.3262C9.53628 13.4549 9.37994 13.5524 9.20785 13.6114C9.03575 13.6703 8.85245 13.6892 8.67196 13.6664H4.6661C4.48561 13.6892 4.30231 13.6703 4.13021 13.6114C3.95812 13.5524 3.80178 13.4549 3.67315 13.3262C3.54451 13.1976 3.44699 13.0413 3.38802 12.8692C3.32906 12.6971 3.31022 12.5138 3.33294 12.3333V12.1669H1.33321C1.20055 12.1669 1.07332 12.1142 0.979513 12.0204C0.885707 11.9266 0.833008 11.7994 0.833008 11.6667C0.833008 11.534 0.885707 11.4068 0.979513 11.313C1.07332 11.2192 1.20055 11.1665 1.33321 11.1665H3.33294V11.0001C3.31022 10.8196 3.32906 10.6363 3.38802 10.4642C3.44699 10.2922 3.54451 10.1358 3.67315 10.0072C3.80178 9.87855 3.95812 9.78102 4.13021 9.72206C4.30231 9.6631 4.48561 9.64426 4.6661 9.66698H8.66663C8.84753 9.64336 9.03144 9.66154 9.20422 9.7201C9.377 9.77866 9.53405 9.87606 9.66331 10.0048C9.79257 10.1335 9.8906 10.2902 9.94985 10.4628C10.0091 10.6353 10.028 10.8191 10.0051 11.0001V11.1665H14.6722C14.8035 11.169 14.9286 11.2227 15.0209 11.3162C15.1131 11.4096 15.1652 11.5354 15.166 11.6667Z" fill="#5F89FF"/>
<path d="M15.166 4.33329C15.1652 4.46569 15.1122 4.59243 15.0186 4.68606C14.925 4.77968 14.7982 4.83265 14.6658 4.83349H12.6714V4.99987C12.6941 5.18036 12.6753 5.36366 12.6163 5.53575C12.5574 5.70785 12.4599 5.86419 12.3312 5.99282C12.2026 6.12145 12.0463 6.21898 11.8742 6.27794C11.7021 6.3369 11.5188 6.35575 11.3383 6.33302H7.33347C7.1529 6.35592 6.96948 6.33722 6.79725 6.27833C6.62502 6.21945 6.46854 6.12195 6.33978 5.99329C6.21102 5.86464 6.11339 5.70823 6.05437 5.53605C5.99535 5.36386 5.9765 5.18046 5.99925 4.99987V4.83349H1.33321C1.20055 4.83349 1.07332 4.78079 0.979513 4.68699C0.885707 4.59318 0.833008 4.46595 0.833008 4.33329C0.833008 4.20063 0.885707 4.0734 0.979513 3.9796C1.07332 3.88579 1.20055 3.83309 1.33321 3.83309H5.99925V3.66671C5.9765 3.48612 5.99535 3.30272 6.05437 3.13053C6.11339 2.95835 6.21102 2.80194 6.33978 2.67329C6.46854 2.54463 6.62502 2.44713 6.79725 2.38825C6.96948 2.32937 7.1529 2.31066 7.33347 2.33356H11.3329C11.5138 2.30994 11.6977 2.32812 11.8705 2.38668C12.0433 2.44524 12.2004 2.54264 12.3296 2.67139C12.4589 2.80013 12.5569 2.95679 12.6162 3.12934C12.6754 3.30189 12.6943 3.48572 12.6714 3.66671V3.83309H14.6712C14.8026 3.83532 14.928 3.8889 15.0205 3.98237C15.113 4.07585 15.1652 4.2018 15.166 4.33329Z" fill="#5F89FF"/>
</svg>
