<svg class="svg-icon" style="width: 1.0419921875em; height: 1em;vertical-align: middle;fill: currentColor;overflow: hidden;" viewBox="0 0 1067 1024" version="1.1" xmlns="http://www.w3.org/2000/svg"><path d="M1024 1024 213.333333 1024c-93.866667 0-170.666667-76.8-170.666667-170.666667L42.666667 42.666667c0-25.6 17.066667-42.666667 42.666667-42.666667s42.666667 17.066667 42.666667 42.666667l0 810.666667c0 46.933333 38.4 85.333333 85.333333 85.333333l810.666667 0c25.6 0 42.666667 17.066667 42.666667 42.666667S1049.6 1024 1024 1024z"  /><path d="M256 853.333333c-25.6 0-42.666667-17.066667-42.666667-42.666667l0-213.333333c0-25.6 17.066667-42.666667 42.666667-42.666667s42.666667 17.066667 42.666667 42.666667l0 213.333333C298.666667 836.266667 281.6 853.333333 256 853.333333z"  /><path d="M426.666667 853.333333c-25.6 0-42.666667-17.066667-42.666667-42.666667l0-384c0-25.6 17.066667-42.666667 42.666667-42.666667s42.666667 17.066667 42.666667 42.666667l0 384C469.333333 836.266667 452.266667 853.333333 426.666667 853.333333z"  /><path d="M597.333333 853.333333c-25.6 0-42.666667-17.066667-42.666667-42.666667l0-298.666667c0-25.6 17.066667-42.666667 42.666667-42.666667s42.666667 17.066667 42.666667 42.666667l0 298.666667C640 836.266667 622.933333 853.333333 597.333333 853.333333z"  /><path d="M768 853.333333c-25.6 0-42.666667-17.066667-42.666667-42.666667L725.333333 298.666667c0-25.6 17.066667-42.666667 42.666667-42.666667s42.666667 17.066667 42.666667 42.666667l0 512C810.666667 836.266667 793.6 853.333333 768 853.333333z"  /><path d="M938.666667 853.333333c-25.6 0-42.666667-17.066667-42.666667-42.666667l0-256c0-25.6 17.066667-42.666667 42.666667-42.666667s42.666667 17.066667 42.666667 42.666667l0 256C981.333333 836.266667 964.266667 853.333333 938.666667 853.333333z"  /></svg>