<svg width="16" height="16" viewBox="0 0 16 16" fill="none" xmlns="http://www.w3.org/2000/svg">
<path d="M14.4459 4.63042C14.2225 3.90455 13.8249 3.24437 13.2877 2.70742C12.7506 2.17048 12.0903 1.77309 11.3643 1.54989C10.9864 1.37898 10.5737 1.29903 10.1593 1.31644C9.74496 1.33385 9.34043 1.44815 8.9782 1.65015C8.71961 1.89646 8.52129 2.19906 8.39864 2.53446C8.27599 2.86985 8.23231 3.229 8.271 3.58402V5.24375C8.271 6.88429 9.01766 7.71842 10.4854 7.71842H12.399C12.754 7.75653 13.113 7.71259 13.4483 7.58997C13.7836 7.46735 14.0862 7.26934 14.3329 7.01122C14.5428 6.65308 14.6627 6.24939 14.6824 5.83474C14.7021 5.42008 14.621 5.00684 14.4459 4.63042Z" fill="#5F89FF"/>
<path d="M12.6057 8.90452C12.5202 8.80622 12.4147 8.72738 12.2962 8.67328C12.1777 8.61919 12.049 8.59111 11.9188 8.59092H9.53156C8.9689 8.58924 8.42969 8.36535 8.03133 7.96798C7.63297 7.57062 7.40772 7.03197 7.40463 6.46932V4.07679C7.40444 3.94653 7.37636 3.81783 7.32227 3.69934C7.26817 3.58085 7.18932 3.47532 7.09103 3.38985C6.99462 3.30449 6.88106 3.24072 6.75799 3.20282C6.63492 3.16492 6.50516 3.15377 6.37743 3.17012C5.59431 3.27432 4.84058 3.53676 4.16209 3.94147C3.4836 4.34617 2.89455 4.88469 2.43076 5.52425C1.86237 6.30866 1.50098 7.22374 1.38003 8.18486C1.25909 9.14597 1.38249 10.1221 1.73882 11.0228C2.09515 11.9236 2.67291 12.72 3.41863 13.3382C4.16436 13.9565 5.05397 14.3767 6.00516 14.56C6.36767 14.6318 6.73641 14.6676 7.10596 14.6667C8.31652 14.6686 9.49588 14.2828 10.4713 13.5659C11.1109 13.1021 11.6494 12.513 12.0541 11.8345C12.4588 11.156 12.7212 10.4023 12.8254 9.61919C12.8424 9.49127 12.8316 9.36118 12.7937 9.23784C12.7557 9.11449 12.6916 9.00079 12.6057 8.90452Z" fill="#5F89FF"/>
</svg>
